M48
; DRILL file {KiCad (6.0.1)} date Sun Sep 11 15:04:49 2022
; FORMAT={-:-/ absolute / inch / decimal}
; #@! TF.CreationDate,2022-09-11T15:04:49+02:00
; #@! TF.GenerationSoftware,Kicad,Pcbnew,(6.0.1)
; #@! TF.FileFunction,Plated,1,4,PTH
FMAT,2
INCH
; #@! TA.AperFunction,Plated,PTH,ViaDrill
T1C0.0118
; #@! TA.AperFunction,Plated,PTH,ViaDrill
T2C0.0157
; #@! TA.AperFunction,Plated,PTH,ComponentDrill
T3C0.0197
; #@! TA.AperFunction,Plated,PTH,ComponentDrill
T4C0.0236
; #@! TA.AperFunction,Plated,PTH,ComponentDrill
T5C0.0315
; #@! TA.AperFunction,Plated,PTH,ComponentDrill
T6C0.0984
%
G90
G05
T1
X5.1515Y-4.8784
X5.1515Y-5.085
X5.2697Y-4.2353
X5.3187Y-4.1663
X5.3268Y-4.1327
X5.335Y-4.895
X5.3592Y-4.7391
X5.395Y-3.785
X5.44Y-4.5376
X5.4447Y-4.7596
X5.445Y-4.849
X5.455Y-4.44
X5.4652Y-4.1413
X5.475Y-3.975
X5.4823Y-3.8773
X5.485Y-4.08
X5.485Y-4.165
X5.4986Y-3.9411
X5.522Y-4.768
X5.535Y-5.0195
X5.547Y-4.768
X5.5482Y-4.8507
X5.5482Y-4.8782
X5.572Y-4.768
X5.5985Y-4.1895
X5.6066Y-4.2221
X5.6248Y-4.7955
X5.6384Y-4.295
X5.6531Y-4.128
X5.745Y-4.8472
X5.7533Y-4.5636
X5.7598Y-4.7198
X5.7913Y-4.2782
X5.8075Y-5.0428
X5.82Y-4.3
X5.8485Y-4.8019
X5.855Y-4.2864
X5.87Y-5.205
X5.8724Y-4.6778
X5.88Y-3.775
X5.88Y-4.875
X5.8915Y-4.2003
X5.895Y-5.205
X5.9085Y-4.8161
X5.92Y-5.205
X5.9425Y-4.6837
X5.945Y-4.875
X5.945Y-5.205
X5.9485Y-4.5632
X5.97Y-5.205
X5.9788Y-4.8772
X5.98Y-3.78
X5.9897Y-4.4082
X5.9977Y-4.2106
X6.01Y-4.614
X6.01Y-4.8802
X6.015Y-3.865
X6.015Y-5.0425
X6.04Y-4.93
X6.05Y-5.0317
X6.075Y-4.75
X6.075Y-4.8802
X6.105Y-4.5462
X6.1053Y-4.8053
X6.11Y-4.72
X6.115Y-3.815
X6.1413Y-4.3442
X6.145Y-3.96
X6.155Y-4.0895
X6.1899Y-4.2748
X6.255Y-5.08
X6.26Y-4.565
X6.283Y-4.5477
X6.3085Y-4.9761
X6.3085Y-5.0739
X6.3129Y-4.7811
T2
X5.885Y-5.035
T3
X5.1562Y-3.855
X5.1562Y-5.285
X5.1778Y-3.8028
X5.1778Y-3.9072
X5.1778Y-5.2328
X5.1778Y-5.3372
X5.23Y-3.7812
X5.23Y-3.9288
X5.23Y-5.2112
X5.23Y-5.3588
X5.2822Y-3.8028
X5.2822Y-3.9072
X5.2822Y-5.2328
X5.2822Y-5.3372
X5.3038Y-3.855
X5.3038Y-5.285
X6.1562Y-3.855
X6.1562Y-5.285
X6.1778Y-3.8028
X6.1778Y-3.9072
X6.1778Y-5.2328
X6.1778Y-5.3372
X6.23Y-3.7812
X6.23Y-3.9288
X6.23Y-5.2112
X6.23Y-5.3588
X6.2822Y-3.8028
X6.2822Y-3.9072
X6.2822Y-5.2328
X6.2822Y-5.3372
X6.3038Y-3.855
X6.3038Y-5.285
T5
X5.1489Y-4.507
X5.1489Y-4.753
T6
X5.23Y-3.855
X5.23Y-5.285
X6.23Y-3.855
X6.23Y-5.285
T4
G00X5.7499Y-5.1588
M15
G01X5.7499Y-5.2021
M16
G05
G00X5.7499Y-5.3293
M15
G01X5.7499Y-5.3607
M16
G05
G00X6.0901Y-5.1588
M15
G01X6.0901Y-5.2021
M16
G05
G00X6.0901Y-5.3293
M15
G01X6.0901Y-5.3607
M16
G05
T0
M30
