%TF.GenerationSoftware,KiCad,Pcbnew,(6.0.1)*%
%TF.CreationDate,2022-09-11T15:04:47+02:00*%
%TF.ProjectId,trick-tracker,74726963-6b2d-4747-9261-636b65722e6b,rev?*%
%TF.SameCoordinates,Original*%
%TF.FileFunction,Copper,L3,Inr*%
%TF.FilePolarity,Positive*%
%FSLAX46Y46*%
G04 Gerber Fmt 4.6, Leading zero omitted, Abs format (unit mm)*
G04 Created by KiCad (PCBNEW (6.0.1)) date 2022-09-11 15:04:47*
%MOMM*%
%LPD*%
G01*
G04 APERTURE LIST*
%TA.AperFunction,ComponentPad*%
%ADD10O,1.050000X2.100000*%
%TD*%
%TA.AperFunction,ComponentPad*%
%ADD11O,1.000000X2.000000*%
%TD*%
%TA.AperFunction,ComponentPad*%
%ADD12C,0.800000*%
%TD*%
%TA.AperFunction,ComponentPad*%
%ADD13C,5.000000*%
%TD*%
%TA.AperFunction,ComponentPad*%
%ADD14C,1.300000*%
%TD*%
%TA.AperFunction,ViaPad*%
%ADD15C,0.500000*%
%TD*%
%TA.AperFunction,ViaPad*%
%ADD16C,0.800000*%
%TD*%
G04 APERTURE END LIST*
D10*
%TO.N,unconnected-(J1-PadS1)*%
%TO.C,J1*%
X146048000Y-131583000D03*
D11*
%TO.N,unconnected-(J1-PadS2)*%
X146048000Y-135763000D03*
%TO.N,unconnected-(J1-PadS3)*%
X154688000Y-135763000D03*
D10*
%TO.N,unconnected-(J1-PadS4)*%
X154688000Y-131583000D03*
%TD*%
D12*
%TO.N,N/C*%
%TO.C,H1*%
X134717000Y-134239000D03*
X131516175Y-135564825D03*
X131516175Y-132913175D03*
X132842000Y-132364000D03*
X132842000Y-136114000D03*
X134167825Y-132913175D03*
D13*
X132842000Y-134239000D03*
D12*
X134167825Y-135564825D03*
X130967000Y-134239000D03*
%TD*%
%TO.N,N/C*%
%TO.C,H2*%
X156916175Y-135564825D03*
X159567825Y-135564825D03*
X158242000Y-136114000D03*
D13*
X158242000Y-134239000D03*
D12*
X159567825Y-132913175D03*
X158242000Y-132364000D03*
X160117000Y-134239000D03*
X156916175Y-132913175D03*
X156367000Y-134239000D03*
%TD*%
D14*
%TO.N,unconnected-(S3-PadMH1)*%
%TO.C,S3*%
X130782000Y-114477000D03*
%TO.N,unconnected-(S3-PadMH2)*%
X130782000Y-120727000D03*
%TD*%
D12*
%TO.N,N/C*%
%TO.C,H3*%
X132842000Y-99792000D03*
X134167825Y-96591175D03*
X130967000Y-97917000D03*
X134717000Y-97917000D03*
D13*
X132842000Y-97917000D03*
D12*
X132842000Y-96042000D03*
X131516175Y-96591175D03*
X134167825Y-99242825D03*
X131516175Y-99242825D03*
%TD*%
%TO.N,N/C*%
%TO.C,H4*%
X160117000Y-97917000D03*
X159567825Y-99242825D03*
X156367000Y-97917000D03*
X159567825Y-96591175D03*
X158242000Y-99792000D03*
D13*
X158242000Y-97917000D03*
D12*
X158242000Y-96042000D03*
X156916175Y-99242825D03*
X156916175Y-96591175D03*
%TD*%
D15*
%TO.N,+3V3*%
X157224200Y-108581000D03*
X149352000Y-123825000D03*
X152654000Y-123956066D03*
X156083000Y-100584000D03*
X152781000Y-98171000D03*
X151003000Y-123825000D03*
X148717000Y-108873300D03*
X155074992Y-122053603D03*
X148550800Y-121968000D03*
X147098400Y-108666100D03*
X133850500Y-107577000D03*
X142406400Y-107240400D03*
X151892000Y-96012000D03*
X138296600Y-120894500D03*
%TO.N,GND*%
X149159200Y-118815800D03*
X155067000Y-115474300D03*
X153670000Y-127805400D03*
X151091800Y-115904300D03*
X135096000Y-105822900D03*
X155194000Y-119888000D03*
X140925100Y-123206600D03*
X154305000Y-120650000D03*
X140589000Y-127494498D03*
X146134600Y-115914800D03*
X135509000Y-124333000D03*
X130849000Y-123911200D03*
X160235000Y-128876900D03*
X155988000Y-110343700D03*
X156337000Y-103873000D03*
X138176000Y-115255500D03*
X149645200Y-106687200D03*
X147511000Y-128086100D03*
X149352000Y-95885000D03*
X137033000Y-96139000D03*
X143588900Y-104852300D03*
X142202500Y-106413000D03*
X155321000Y-96901000D03*
X159004000Y-115951000D03*
X158877000Y-129032000D03*
X152654000Y-117195600D03*
X160235000Y-126392400D03*
X130849000Y-129159000D03*
X160347100Y-121441200D03*
%TO.N,/VBUS*%
X140893300Y-121107700D03*
X151638000Y-132207000D03*
X151003000Y-132207000D03*
D16*
X149479000Y-127889000D03*
D15*
X149733000Y-132207000D03*
X159588200Y-115510600D03*
X142869245Y-121805622D03*
X149098000Y-132207000D03*
X140258300Y-121107700D03*
X150368000Y-132207000D03*
X141528300Y-121107700D03*
X152781000Y-128080600D03*
%TO.N,/VBAT*%
X140925100Y-123907000D03*
X138303000Y-123163400D03*
%TO.N,/SCL*%
X135301700Y-104971500D03*
%TO.N,/SDA*%
X138815800Y-105188900D03*
%TO.N,/IO0*%
X139319000Y-105791000D03*
X138557000Y-112776000D03*
X139319000Y-103632000D03*
%TO.N,/PRESS_INT*%
X150938900Y-118965000D03*
%TO.N,/BTN*%
X153416000Y-125222000D03*
X151860340Y-123880433D03*
X154305000Y-123956066D03*
%TO.N,/Tx*%
X139663400Y-100103700D03*
%TO.N,/Rx*%
X139065000Y-100965000D03*
%TO.N,/BAT_SENS*%
X152341800Y-106949900D03*
%TO.N,Net-(D4-Pad2)*%
X152137200Y-111967600D03*
%TO.N,/SD_DETECT*%
X146300000Y-119884000D03*
X145923000Y-123119000D03*
%TO.N,/ESP_EN*%
X139250633Y-98482800D03*
X150075556Y-122329268D03*
X136123500Y-120372000D03*
%TO.N,/BMX_INT2*%
X147828000Y-109220000D03*
%TO.N,/BMX_INT1*%
X143214100Y-109092900D03*
%TD*%
%TA.AperFunction,Conductor*%
%TO.N,+3V3*%
G36*
X149045196Y-95270002D02*
G01*
X149091689Y-95323658D01*
X149101793Y-95393932D01*
X149072299Y-95458512D01*
X149044310Y-95482562D01*
X149029256Y-95492060D01*
X149029252Y-95492063D01*
X149021661Y-95496853D01*
X148925999Y-95605170D01*
X148922185Y-95613293D01*
X148922184Y-95613295D01*
X148905404Y-95649035D01*
X148864583Y-95735982D01*
X148863203Y-95744846D01*
X148863202Y-95744849D01*
X148844589Y-95864395D01*
X148842350Y-95878773D01*
X148843514Y-95887675D01*
X148843514Y-95887678D01*
X148857673Y-95995948D01*
X148861088Y-96022065D01*
X148919289Y-96154339D01*
X149012276Y-96264960D01*
X149019747Y-96269933D01*
X149019748Y-96269934D01*
X149125101Y-96340063D01*
X149125103Y-96340064D01*
X149132574Y-96345037D01*
X149141138Y-96347713D01*
X149141141Y-96347714D01*
X149201542Y-96366585D01*
X149270510Y-96388132D01*
X149414998Y-96390780D01*
X149449261Y-96381439D01*
X149545763Y-96355130D01*
X149545765Y-96355129D01*
X149554422Y-96352769D01*
X149677572Y-96277154D01*
X149774551Y-96170014D01*
X149837560Y-96039962D01*
X149861536Y-95897453D01*
X149861688Y-95885000D01*
X149851347Y-95812796D01*
X149842474Y-95750835D01*
X149842473Y-95750833D01*
X149841201Y-95741948D01*
X149781388Y-95610395D01*
X149775530Y-95603596D01*
X149775527Y-95603592D01*
X149692916Y-95507718D01*
X149692913Y-95507716D01*
X149687056Y-95500918D01*
X149657454Y-95481731D01*
X149611171Y-95427896D01*
X149601341Y-95357583D01*
X149631085Y-95293117D01*
X149690961Y-95254967D01*
X149725988Y-95250000D01*
X156879217Y-95250000D01*
X156947338Y-95270002D01*
X156993831Y-95323658D01*
X157003935Y-95393932D01*
X156974441Y-95458512D01*
X156943640Y-95484285D01*
X156690911Y-95634642D01*
X156687910Y-95636957D01*
X156687906Y-95636960D01*
X156548062Y-95744849D01*
X156427950Y-95837515D01*
X156425249Y-95840174D01*
X156425242Y-95840180D01*
X156193974Y-96067845D01*
X156191266Y-96070511D01*
X156188902Y-96073478D01*
X156188899Y-96073481D01*
X155986652Y-96327285D01*
X155984287Y-96330253D01*
X155872202Y-96512090D01*
X155870662Y-96514588D01*
X155817890Y-96562081D01*
X155747819Y-96573505D01*
X155682695Y-96545231D01*
X155667950Y-96530721D01*
X155661917Y-96523719D01*
X155661914Y-96523716D01*
X155656056Y-96516918D01*
X155534790Y-96438317D01*
X155486965Y-96424014D01*
X155404938Y-96399482D01*
X155404936Y-96399482D01*
X155396337Y-96396910D01*
X155387363Y-96396855D01*
X155387361Y-96396855D01*
X155324082Y-96396469D01*
X155251827Y-96396028D01*
X155243196Y-96398495D01*
X155243194Y-96398495D01*
X155121509Y-96433272D01*
X155121505Y-96433274D01*
X155112879Y-96435739D01*
X155105292Y-96440526D01*
X155105290Y-96440527D01*
X155060628Y-96468707D01*
X154990661Y-96512853D01*
X154984718Y-96519582D01*
X154984717Y-96519583D01*
X154974498Y-96531154D01*
X154894999Y-96621170D01*
X154891185Y-96629293D01*
X154891184Y-96629295D01*
X154883914Y-96644780D01*
X154833583Y-96751982D01*
X154811350Y-96894773D01*
X154812514Y-96903675D01*
X154812514Y-96903678D01*
X154828924Y-97029164D01*
X154830088Y-97038065D01*
X154888289Y-97170339D01*
X154981276Y-97280960D01*
X154988747Y-97285933D01*
X154988748Y-97285934D01*
X155094101Y-97356063D01*
X155094103Y-97356064D01*
X155101574Y-97361037D01*
X155110138Y-97363713D01*
X155110141Y-97363714D01*
X155170542Y-97382585D01*
X155239510Y-97404132D01*
X155383998Y-97406780D01*
X155383931Y-97410414D01*
X155436971Y-97419097D01*
X155489711Y-97466626D01*
X155508383Y-97535123D01*
X155506871Y-97549262D01*
X155507289Y-97549317D01*
X155506792Y-97553091D01*
X155506073Y-97556808D01*
X155505806Y-97560584D01*
X155505805Y-97560589D01*
X155482884Y-97884314D01*
X155482616Y-97888103D01*
X155482805Y-97891895D01*
X155498213Y-98201392D01*
X155499130Y-98219816D01*
X155499771Y-98223547D01*
X155499772Y-98223555D01*
X155547283Y-98500047D01*
X155555375Y-98547142D01*
X155556463Y-98550781D01*
X155556464Y-98550784D01*
X155647711Y-98855890D01*
X155650537Y-98865341D01*
X155652050Y-98868812D01*
X155652052Y-98868818D01*
X155702000Y-98983417D01*
X155783236Y-99169803D01*
X155785159Y-99173074D01*
X155785161Y-99173078D01*
X155949629Y-99452847D01*
X155949633Y-99452853D01*
X155951552Y-99456117D01*
X155953853Y-99459132D01*
X156149548Y-99715553D01*
X156153046Y-99720137D01*
X156155694Y-99722856D01*
X156155699Y-99722861D01*
X156379381Y-99952477D01*
X156384798Y-99958038D01*
X156387742Y-99960409D01*
X156387745Y-99960412D01*
X156458810Y-100017652D01*
X156643453Y-100166374D01*
X156646681Y-100168387D01*
X156831692Y-100283770D01*
X156925264Y-100342127D01*
X157226147Y-100482751D01*
X157277969Y-100499739D01*
X157525606Y-100580918D01*
X157541746Y-100586209D01*
X157867488Y-100651003D01*
X157871261Y-100651290D01*
X157871268Y-100651291D01*
X158194878Y-100675908D01*
X158194883Y-100675908D01*
X158198655Y-100676195D01*
X158530450Y-100661418D01*
X158858067Y-100606888D01*
X158861701Y-100605822D01*
X158861705Y-100605821D01*
X159005154Y-100563737D01*
X159176759Y-100513393D01*
X159197396Y-100504527D01*
X159451467Y-100395370D01*
X159481912Y-100382290D01*
X159769103Y-100215475D01*
X160034175Y-100015367D01*
X160273286Y-99784863D01*
X160323764Y-99722861D01*
X160480582Y-99530239D01*
X160480583Y-99530238D01*
X160482973Y-99527302D01*
X160503623Y-99494574D01*
X160658176Y-99249623D01*
X160658179Y-99249617D01*
X160660199Y-99246416D01*
X160662885Y-99240747D01*
X160663329Y-99240248D01*
X160663651Y-99239663D01*
X160663785Y-99239737D01*
X160710121Y-99187747D01*
X160778514Y-99168698D01*
X160846349Y-99189649D01*
X160892088Y-99243949D01*
X160902754Y-99295121D01*
X160867144Y-109599960D01*
X160828057Y-120911125D01*
X160828025Y-120920279D01*
X160807788Y-120988331D01*
X160753972Y-121034638D01*
X160683663Y-121044499D01*
X160633494Y-121025577D01*
X160560890Y-120978517D01*
X160544021Y-120973472D01*
X160431038Y-120939682D01*
X160431036Y-120939682D01*
X160422437Y-120937110D01*
X160413463Y-120937055D01*
X160413461Y-120937055D01*
X160350182Y-120936669D01*
X160277927Y-120936228D01*
X160269296Y-120938695D01*
X160269294Y-120938695D01*
X160147609Y-120973472D01*
X160147605Y-120973474D01*
X160138979Y-120975939D01*
X160131392Y-120980726D01*
X160131390Y-120980727D01*
X160034035Y-121042154D01*
X160016761Y-121053053D01*
X159921099Y-121161370D01*
X159859683Y-121292182D01*
X159858303Y-121301046D01*
X159858302Y-121301049D01*
X159841843Y-121406760D01*
X159837450Y-121434973D01*
X159838614Y-121443875D01*
X159838614Y-121443878D01*
X159847867Y-121514635D01*
X159856188Y-121578265D01*
X159914389Y-121710539D01*
X159920163Y-121717408D01*
X159984546Y-121794000D01*
X160007376Y-121821160D01*
X160014847Y-121826133D01*
X160014848Y-121826134D01*
X160120201Y-121896263D01*
X160120203Y-121896264D01*
X160127674Y-121901237D01*
X160136238Y-121903913D01*
X160136241Y-121903914D01*
X160189784Y-121920642D01*
X160265610Y-121944332D01*
X160410098Y-121946980D01*
X160434589Y-121940303D01*
X160540863Y-121911330D01*
X160540865Y-121911329D01*
X160549522Y-121908969D01*
X160610598Y-121871468D01*
X160632484Y-121858030D01*
X160701002Y-121839432D01*
X160768697Y-121860829D01*
X160814078Y-121915428D01*
X160824412Y-121965838D01*
X160810648Y-125948718D01*
X160790411Y-126016770D01*
X160736595Y-126063077D01*
X160666286Y-126072938D01*
X160601808Y-126043222D01*
X160589196Y-126030531D01*
X160570056Y-126008318D01*
X160448790Y-125929717D01*
X160431921Y-125924672D01*
X160318938Y-125890882D01*
X160318936Y-125890882D01*
X160310337Y-125888310D01*
X160301363Y-125888255D01*
X160301361Y-125888255D01*
X160238082Y-125887869D01*
X160165827Y-125887428D01*
X160157196Y-125889895D01*
X160157194Y-125889895D01*
X160035509Y-125924672D01*
X160035505Y-125924674D01*
X160026879Y-125927139D01*
X159904661Y-126004253D01*
X159898718Y-126010982D01*
X159898717Y-126010983D01*
X159844001Y-126072938D01*
X159808999Y-126112570D01*
X159805185Y-126120693D01*
X159805184Y-126120695D01*
X159794168Y-126144158D01*
X159747583Y-126243382D01*
X159746203Y-126252246D01*
X159746202Y-126252249D01*
X159728508Y-126365892D01*
X159725350Y-126386173D01*
X159726514Y-126395075D01*
X159726514Y-126395078D01*
X159742924Y-126520564D01*
X159744088Y-126529465D01*
X159802289Y-126661739D01*
X159895276Y-126772360D01*
X159902747Y-126777333D01*
X159902748Y-126777334D01*
X160008101Y-126847463D01*
X160008103Y-126847464D01*
X160015574Y-126852437D01*
X160024138Y-126855113D01*
X160024141Y-126855114D01*
X160084542Y-126873985D01*
X160153510Y-126895532D01*
X160297998Y-126898180D01*
X160317530Y-126892855D01*
X160428763Y-126862530D01*
X160428765Y-126862529D01*
X160437422Y-126860169D01*
X160560572Y-126784554D01*
X160588157Y-126754079D01*
X160648701Y-126716998D01*
X160719681Y-126718536D01*
X160778562Y-126758205D01*
X160806649Y-126823409D01*
X160807571Y-126839067D01*
X160805306Y-127494498D01*
X160802096Y-128423293D01*
X160781859Y-128491345D01*
X160728043Y-128537652D01*
X160657734Y-128547513D01*
X160593256Y-128517797D01*
X160580644Y-128505106D01*
X160575915Y-128499618D01*
X160570056Y-128492818D01*
X160509423Y-128453517D01*
X160456324Y-128419100D01*
X160456322Y-128419099D01*
X160448790Y-128414217D01*
X160431921Y-128409172D01*
X160318938Y-128375382D01*
X160318936Y-128375382D01*
X160310337Y-128372810D01*
X160301363Y-128372755D01*
X160301361Y-128372755D01*
X160238082Y-128372369D01*
X160165827Y-128371928D01*
X160157196Y-128374395D01*
X160157194Y-128374395D01*
X160035509Y-128409172D01*
X160035505Y-128409174D01*
X160026879Y-128411639D01*
X160019292Y-128416426D01*
X160019290Y-128416427D01*
X159912254Y-128483962D01*
X159904661Y-128488753D01*
X159898718Y-128495482D01*
X159898717Y-128495483D01*
X159879010Y-128517797D01*
X159808999Y-128597070D01*
X159805185Y-128605193D01*
X159805184Y-128605195D01*
X159787034Y-128643853D01*
X159747583Y-128727882D01*
X159746203Y-128736746D01*
X159746202Y-128736749D01*
X159739201Y-128781718D01*
X159725350Y-128870673D01*
X159726514Y-128879575D01*
X159726514Y-128879578D01*
X159742924Y-129005064D01*
X159744088Y-129013965D01*
X159802289Y-129146239D01*
X159895276Y-129256860D01*
X159902747Y-129261833D01*
X159902748Y-129261834D01*
X160008101Y-129331963D01*
X160008103Y-129331964D01*
X160015574Y-129336937D01*
X160024138Y-129339613D01*
X160024141Y-129339614D01*
X160084542Y-129358484D01*
X160153510Y-129380032D01*
X160297998Y-129382680D01*
X160332411Y-129373298D01*
X160428763Y-129347030D01*
X160428765Y-129347029D01*
X160437422Y-129344669D01*
X160560572Y-129269054D01*
X160579538Y-129248101D01*
X160640082Y-129211020D01*
X160711062Y-129212558D01*
X160769943Y-129252227D01*
X160798030Y-129317431D01*
X160798952Y-129333092D01*
X160787409Y-132673315D01*
X160767172Y-132741367D01*
X160713356Y-132787674D01*
X160643047Y-132797535D01*
X160578569Y-132767819D01*
X160553464Y-132737869D01*
X160516205Y-132675982D01*
X160513878Y-132672998D01*
X160513873Y-132672991D01*
X160314294Y-132417082D01*
X160314292Y-132417079D01*
X160311958Y-132414087D01*
X160077726Y-132178626D01*
X160056865Y-132162180D01*
X159819885Y-131975360D01*
X159816904Y-131973010D01*
X159533269Y-131800218D01*
X159412654Y-131745378D01*
X159234381Y-131664321D01*
X159234373Y-131664318D01*
X159230929Y-131662752D01*
X158914264Y-131562604D01*
X158769680Y-131535415D01*
X158591585Y-131501925D01*
X158591580Y-131501924D01*
X158587861Y-131501225D01*
X158256449Y-131479503D01*
X158252669Y-131479711D01*
X158252668Y-131479711D01*
X158157655Y-131484940D01*
X157924827Y-131497753D01*
X157921100Y-131498414D01*
X157921096Y-131498414D01*
X157662396Y-131544263D01*
X157597799Y-131555711D01*
X157594174Y-131556816D01*
X157594169Y-131556817D01*
X157347671Y-131631945D01*
X157280103Y-131652538D01*
X156976341Y-131786830D01*
X156690911Y-131956642D01*
X156427950Y-132159515D01*
X156425249Y-132162174D01*
X156425242Y-132162180D01*
X156193974Y-132389845D01*
X156191266Y-132392511D01*
X156188902Y-132395478D01*
X156188899Y-132395481D01*
X156090943Y-132518408D01*
X155984287Y-132652253D01*
X155982296Y-132655483D01*
X155931980Y-132737111D01*
X155879208Y-132784604D01*
X155809136Y-132796028D01*
X155744013Y-132767754D01*
X155704513Y-132708760D01*
X155698744Y-132673465D01*
X155695758Y-132521177D01*
X155695757Y-132521165D01*
X155695706Y-132518550D01*
X155691332Y-132476336D01*
X155684087Y-132438018D01*
X155683714Y-132436048D01*
X155683711Y-132436032D01*
X155683536Y-132435108D01*
X155680246Y-132420182D01*
X155637726Y-132330661D01*
X155595340Y-132273705D01*
X155565179Y-132239936D01*
X155519243Y-132211380D01*
X155486262Y-132190877D01*
X155486260Y-132190876D01*
X155481011Y-132187613D01*
X155414562Y-132162614D01*
X155405816Y-132160188D01*
X155345522Y-132122703D01*
X155315065Y-132058571D01*
X155313500Y-132038774D01*
X155313500Y-131068675D01*
X155333502Y-131000554D01*
X155387158Y-130954061D01*
X155408122Y-130946645D01*
X155408611Y-130946519D01*
X155408616Y-130946517D01*
X155417344Y-130944273D01*
X155502488Y-130893553D01*
X155555222Y-130846018D01*
X155586019Y-130812824D01*
X155630225Y-130724123D01*
X155648888Y-130655623D01*
X155657772Y-130583876D01*
X155655869Y-130486802D01*
X155655869Y-130486801D01*
X155627221Y-129025773D01*
X158367350Y-129025773D01*
X158368514Y-129034675D01*
X158368514Y-129034678D01*
X158384001Y-129153108D01*
X158386088Y-129169065D01*
X158444289Y-129301339D01*
X158450063Y-129308208D01*
X158512664Y-129382680D01*
X158537276Y-129411960D01*
X158544747Y-129416933D01*
X158544748Y-129416934D01*
X158650101Y-129487063D01*
X158650103Y-129487064D01*
X158657574Y-129492037D01*
X158666138Y-129494713D01*
X158666141Y-129494714D01*
X158719716Y-129511452D01*
X158795510Y-129535132D01*
X158939998Y-129537780D01*
X158959530Y-129532455D01*
X159070763Y-129502130D01*
X159070765Y-129502129D01*
X159079422Y-129499769D01*
X159202572Y-129424154D01*
X159299551Y-129317014D01*
X159362560Y-129186962D01*
X159386536Y-129044453D01*
X159386688Y-129032000D01*
X159366201Y-128888948D01*
X159306388Y-128757395D01*
X159300530Y-128750596D01*
X159300527Y-128750592D01*
X159217916Y-128654718D01*
X159217913Y-128654716D01*
X159212056Y-128647918D01*
X159141669Y-128602295D01*
X159098324Y-128574200D01*
X159098322Y-128574199D01*
X159090790Y-128569317D01*
X159017884Y-128547513D01*
X158960938Y-128530482D01*
X158960936Y-128530482D01*
X158952337Y-128527910D01*
X158943363Y-128527855D01*
X158943361Y-128527855D01*
X158880082Y-128527469D01*
X158807827Y-128527028D01*
X158799196Y-128529495D01*
X158799194Y-128529495D01*
X158677509Y-128564272D01*
X158677505Y-128564274D01*
X158668879Y-128566739D01*
X158661292Y-128571526D01*
X158661290Y-128571527D01*
X158620807Y-128597070D01*
X158546661Y-128643853D01*
X158540718Y-128650582D01*
X158540717Y-128650583D01*
X158498375Y-128698527D01*
X158450999Y-128752170D01*
X158389583Y-128882982D01*
X158388203Y-128891846D01*
X158388202Y-128891849D01*
X158368880Y-129015948D01*
X158367350Y-129025773D01*
X155627221Y-129025773D01*
X155577373Y-126483551D01*
X155571076Y-126432109D01*
X155568472Y-126420680D01*
X155560055Y-126383732D01*
X155560051Y-126383716D01*
X155559714Y-126382237D01*
X155553062Y-126358445D01*
X155529270Y-126316665D01*
X155507084Y-126277702D01*
X155507081Y-126277698D01*
X155504021Y-126272324D01*
X155457528Y-126218668D01*
X155424944Y-126187227D01*
X155337127Y-126141291D01*
X155269006Y-126121289D01*
X155264547Y-126120648D01*
X155264543Y-126120647D01*
X155233226Y-126116145D01*
X155197446Y-126111000D01*
X147319000Y-126111000D01*
X147250879Y-126090998D01*
X147204386Y-126037342D01*
X147193000Y-125985000D01*
X147193000Y-125215773D01*
X152906350Y-125215773D01*
X152907514Y-125224675D01*
X152907514Y-125224678D01*
X152923924Y-125350164D01*
X152925088Y-125359065D01*
X152983289Y-125491339D01*
X153076276Y-125601960D01*
X153083747Y-125606933D01*
X153083748Y-125606934D01*
X153189101Y-125677063D01*
X153189103Y-125677064D01*
X153196574Y-125682037D01*
X153205138Y-125684713D01*
X153205141Y-125684714D01*
X153265542Y-125703584D01*
X153334510Y-125725132D01*
X153478998Y-125727780D01*
X153498530Y-125722455D01*
X153609763Y-125692130D01*
X153609765Y-125692129D01*
X153618422Y-125689769D01*
X153741572Y-125614154D01*
X153838551Y-125507014D01*
X153901560Y-125376962D01*
X153925536Y-125234453D01*
X153925688Y-125222000D01*
X153905201Y-125078948D01*
X153845388Y-124947395D01*
X153839530Y-124940596D01*
X153839527Y-124940592D01*
X153756916Y-124844718D01*
X153756913Y-124844716D01*
X153751056Y-124837918D01*
X153686497Y-124796073D01*
X153637324Y-124764200D01*
X153637322Y-124764199D01*
X153629790Y-124759317D01*
X153612921Y-124754272D01*
X153499938Y-124720482D01*
X153499936Y-124720482D01*
X153491337Y-124717910D01*
X153482363Y-124717855D01*
X153482361Y-124717855D01*
X153419082Y-124717469D01*
X153346827Y-124717028D01*
X153338196Y-124719495D01*
X153338194Y-124719495D01*
X153216509Y-124754272D01*
X153216505Y-124754274D01*
X153207879Y-124756739D01*
X153200292Y-124761526D01*
X153200290Y-124761527D01*
X153134354Y-124803130D01*
X153085661Y-124833853D01*
X152989999Y-124942170D01*
X152928583Y-125072982D01*
X152906350Y-125215773D01*
X147193000Y-125215773D01*
X147193000Y-123874206D01*
X151350690Y-123874206D01*
X151351854Y-123883108D01*
X151351854Y-123883111D01*
X151363023Y-123968519D01*
X151369428Y-124017498D01*
X151427629Y-124149772D01*
X151520616Y-124260393D01*
X151528087Y-124265366D01*
X151528088Y-124265367D01*
X151633441Y-124335496D01*
X151633443Y-124335497D01*
X151640914Y-124340470D01*
X151649478Y-124343146D01*
X151649481Y-124343147D01*
X151680750Y-124352916D01*
X151778850Y-124383565D01*
X151923338Y-124386213D01*
X151978270Y-124371237D01*
X152054103Y-124350563D01*
X152054105Y-124350562D01*
X152062762Y-124348202D01*
X152185912Y-124272587D01*
X152282891Y-124165447D01*
X152327079Y-124074243D01*
X152341985Y-124043476D01*
X152341985Y-124043475D01*
X152345900Y-124035395D01*
X152360294Y-123949839D01*
X153795350Y-123949839D01*
X153796514Y-123958741D01*
X153796514Y-123958744D01*
X153811618Y-124074243D01*
X153814088Y-124093131D01*
X153872289Y-124225405D01*
X153965276Y-124336026D01*
X153972747Y-124340999D01*
X153972748Y-124341000D01*
X154078101Y-124411129D01*
X154078103Y-124411130D01*
X154085574Y-124416103D01*
X154094138Y-124418779D01*
X154094141Y-124418780D01*
X154154542Y-124437650D01*
X154223510Y-124459198D01*
X154367998Y-124461846D01*
X154387530Y-124456521D01*
X154498763Y-124426196D01*
X154498765Y-124426195D01*
X154507422Y-124423835D01*
X154630572Y-124348220D01*
X154639950Y-124337860D01*
X154681577Y-124291871D01*
X154727551Y-124241080D01*
X154760970Y-124172103D01*
X154786645Y-124119109D01*
X154786645Y-124119108D01*
X154790560Y-124111028D01*
X154814536Y-123968519D01*
X154814688Y-123956066D01*
X154794201Y-123813014D01*
X154734388Y-123681461D01*
X154728530Y-123674662D01*
X154728527Y-123674658D01*
X154645916Y-123578784D01*
X154645913Y-123578782D01*
X154640056Y-123571984D01*
X154557178Y-123518265D01*
X154526324Y-123498266D01*
X154526322Y-123498265D01*
X154518790Y-123493383D01*
X154499102Y-123487495D01*
X154388938Y-123454548D01*
X154388936Y-123454548D01*
X154380337Y-123451976D01*
X154371363Y-123451921D01*
X154371361Y-123451921D01*
X154308082Y-123451535D01*
X154235827Y-123451094D01*
X154227196Y-123453561D01*
X154227194Y-123453561D01*
X154105509Y-123488338D01*
X154105505Y-123488340D01*
X154096879Y-123490805D01*
X154089292Y-123495592D01*
X154089290Y-123495593D01*
X153985151Y-123561300D01*
X153974661Y-123567919D01*
X153968718Y-123574648D01*
X153968717Y-123574649D01*
X153941181Y-123605828D01*
X153878999Y-123676236D01*
X153875185Y-123684359D01*
X153875184Y-123684361D01*
X153846119Y-123746268D01*
X153817583Y-123807048D01*
X153816203Y-123815912D01*
X153816202Y-123815915D01*
X153798681Y-123928447D01*
X153795350Y-123949839D01*
X152360294Y-123949839D01*
X152369876Y-123892886D01*
X152370028Y-123880433D01*
X152349541Y-123737381D01*
X152289728Y-123605828D01*
X152283870Y-123599029D01*
X152283867Y-123599025D01*
X152201256Y-123503151D01*
X152201253Y-123503149D01*
X152195396Y-123496351D01*
X152125007Y-123450727D01*
X152081664Y-123422633D01*
X152081662Y-123422632D01*
X152074130Y-123417750D01*
X152035604Y-123406228D01*
X151944278Y-123378915D01*
X151944276Y-123378915D01*
X151935677Y-123376343D01*
X151926703Y-123376288D01*
X151926701Y-123376288D01*
X151863422Y-123375902D01*
X151791167Y-123375461D01*
X151782536Y-123377928D01*
X151782534Y-123377928D01*
X151660849Y-123412705D01*
X151660845Y-123412707D01*
X151652219Y-123415172D01*
X151644632Y-123419959D01*
X151644630Y-123419960D01*
X151595286Y-123451094D01*
X151530001Y-123492286D01*
X151524058Y-123499015D01*
X151524057Y-123499016D01*
X151494591Y-123532380D01*
X151434339Y-123600603D01*
X151372923Y-123731415D01*
X151371543Y-123740279D01*
X151371542Y-123740282D01*
X151357743Y-123828910D01*
X151350690Y-123874206D01*
X147193000Y-123874206D01*
X147193000Y-122323041D01*
X149565906Y-122323041D01*
X149567070Y-122331943D01*
X149567070Y-122331946D01*
X149583480Y-122457432D01*
X149584644Y-122466333D01*
X149642845Y-122598607D01*
X149735832Y-122709228D01*
X149743303Y-122714201D01*
X149743304Y-122714202D01*
X149848657Y-122784331D01*
X149848659Y-122784332D01*
X149856130Y-122789305D01*
X149864694Y-122791981D01*
X149864697Y-122791982D01*
X149925098Y-122810852D01*
X149994066Y-122832400D01*
X150138554Y-122835048D01*
X150158086Y-122829723D01*
X150269319Y-122799398D01*
X150269321Y-122799397D01*
X150277978Y-122797037D01*
X150401128Y-122721422D01*
X150498107Y-122614282D01*
X150561116Y-122484230D01*
X150585092Y-122341721D01*
X150585244Y-122329268D01*
X150564757Y-122186216D01*
X150504944Y-122054663D01*
X150499086Y-122047864D01*
X150499083Y-122047860D01*
X150416472Y-121951986D01*
X150416469Y-121951984D01*
X150410612Y-121945186D01*
X150289346Y-121866585D01*
X150260741Y-121858030D01*
X150159494Y-121827750D01*
X150159492Y-121827750D01*
X150150893Y-121825178D01*
X150141919Y-121825123D01*
X150141917Y-121825123D01*
X150078638Y-121824737D01*
X150006383Y-121824296D01*
X149997752Y-121826763D01*
X149997750Y-121826763D01*
X149876065Y-121861540D01*
X149876061Y-121861542D01*
X149867435Y-121864007D01*
X149859848Y-121868794D01*
X149859846Y-121868795D01*
X149760372Y-121931559D01*
X149745217Y-121941121D01*
X149739274Y-121947850D01*
X149739273Y-121947851D01*
X149737118Y-121950291D01*
X149649555Y-122049438D01*
X149645741Y-122057561D01*
X149645740Y-122057563D01*
X149616080Y-122120737D01*
X149588139Y-122180250D01*
X149586759Y-122189114D01*
X149586758Y-122189117D01*
X149569494Y-122300000D01*
X149565906Y-122323041D01*
X147193000Y-122323041D01*
X147193000Y-122300000D01*
X147187196Y-122246010D01*
X147175810Y-122193668D01*
X147174562Y-122189117D01*
X147170701Y-122175046D01*
X147168616Y-122167445D01*
X147145403Y-122126680D01*
X147122638Y-122086702D01*
X147122635Y-122086698D01*
X147119575Y-122081324D01*
X147091946Y-122049438D01*
X147074922Y-122029791D01*
X147074917Y-122029786D01*
X147073082Y-122027668D01*
X147040498Y-121996227D01*
X146952681Y-121950291D01*
X146884560Y-121930289D01*
X146880101Y-121929648D01*
X146880097Y-121929647D01*
X146848780Y-121925144D01*
X146813000Y-121920000D01*
X143763000Y-121920000D01*
X143694879Y-121899998D01*
X143648386Y-121846342D01*
X143637000Y-121794000D01*
X143637000Y-120643773D01*
X153795350Y-120643773D01*
X153796514Y-120652675D01*
X153796514Y-120652678D01*
X153798471Y-120667642D01*
X153814088Y-120787065D01*
X153872289Y-120919339D01*
X153965276Y-121029960D01*
X153972747Y-121034933D01*
X153972748Y-121034934D01*
X154078101Y-121105063D01*
X154078103Y-121105064D01*
X154085574Y-121110037D01*
X154094138Y-121112713D01*
X154094141Y-121112714D01*
X154154542Y-121131584D01*
X154223510Y-121153132D01*
X154367998Y-121155780D01*
X154387530Y-121150455D01*
X154498763Y-121120130D01*
X154498765Y-121120129D01*
X154507422Y-121117769D01*
X154630572Y-121042154D01*
X154727551Y-120935014D01*
X154759055Y-120869988D01*
X154786645Y-120813043D01*
X154786645Y-120813042D01*
X154790560Y-120804962D01*
X154814536Y-120662453D01*
X154814688Y-120650000D01*
X154794201Y-120506948D01*
X154790487Y-120498780D01*
X154788002Y-120490280D01*
X154788082Y-120419284D01*
X154826534Y-120359601D01*
X154891148Y-120330181D01*
X154963184Y-120341194D01*
X154967100Y-120343062D01*
X154974574Y-120348037D01*
X155112510Y-120391132D01*
X155256998Y-120393780D01*
X155266711Y-120391132D01*
X155387763Y-120358130D01*
X155387765Y-120358129D01*
X155396422Y-120355769D01*
X155519572Y-120280154D01*
X155616551Y-120173014D01*
X155679560Y-120042962D01*
X155703536Y-119900453D01*
X155703688Y-119888000D01*
X155683201Y-119744948D01*
X155623388Y-119613395D01*
X155617530Y-119606596D01*
X155617527Y-119606592D01*
X155534916Y-119510718D01*
X155534913Y-119510716D01*
X155529056Y-119503918D01*
X155407790Y-119425317D01*
X155377546Y-119416272D01*
X155277938Y-119386482D01*
X155277936Y-119386482D01*
X155269337Y-119383910D01*
X155260363Y-119383855D01*
X155260361Y-119383855D01*
X155197082Y-119383469D01*
X155124827Y-119383028D01*
X155116196Y-119385495D01*
X155116194Y-119385495D01*
X154994509Y-119420272D01*
X154994505Y-119420274D01*
X154985879Y-119422739D01*
X154978292Y-119427526D01*
X154978290Y-119427527D01*
X154877594Y-119491062D01*
X154863661Y-119499853D01*
X154857718Y-119506582D01*
X154857717Y-119506583D01*
X154838554Y-119528281D01*
X154767999Y-119608170D01*
X154764185Y-119616293D01*
X154764184Y-119616295D01*
X154760401Y-119624353D01*
X154706583Y-119738982D01*
X154705203Y-119747846D01*
X154705202Y-119747849D01*
X154686509Y-119867910D01*
X154684350Y-119881773D01*
X154685514Y-119890675D01*
X154685514Y-119890678D01*
X154701401Y-120012164D01*
X154703088Y-120025065D01*
X154706703Y-120033280D01*
X154706817Y-120033540D01*
X154706853Y-120033820D01*
X154709117Y-120041928D01*
X154707947Y-120042255D01*
X154715943Y-120103947D01*
X154685556Y-120168112D01*
X154625302Y-120205663D01*
X154554313Y-120204676D01*
X154534684Y-120195499D01*
X154534469Y-120195964D01*
X154526324Y-120192200D01*
X154518790Y-120187317D01*
X154466394Y-120171647D01*
X154388938Y-120148482D01*
X154388936Y-120148482D01*
X154380337Y-120145910D01*
X154371363Y-120145855D01*
X154371361Y-120145855D01*
X154308082Y-120145469D01*
X154235827Y-120145028D01*
X154227196Y-120147495D01*
X154227194Y-120147495D01*
X154105509Y-120182272D01*
X154105505Y-120182274D01*
X154096879Y-120184739D01*
X154089292Y-120189526D01*
X154089290Y-120189527D01*
X153984576Y-120255597D01*
X153974661Y-120261853D01*
X153968718Y-120268582D01*
X153968717Y-120268583D01*
X153962031Y-120276154D01*
X153878999Y-120370170D01*
X153875185Y-120378293D01*
X153875184Y-120378295D01*
X153865226Y-120399506D01*
X153817583Y-120500982D01*
X153816203Y-120509846D01*
X153816202Y-120509849D01*
X153797261Y-120631501D01*
X153795350Y-120643773D01*
X143637000Y-120643773D01*
X143637000Y-120395000D01*
X143636382Y-120389247D01*
X143631558Y-120344374D01*
X143631557Y-120344367D01*
X143631196Y-120341010D01*
X143627374Y-120323440D01*
X143620170Y-120290322D01*
X143620168Y-120290315D01*
X143619810Y-120288668D01*
X143612616Y-120262445D01*
X143588888Y-120220777D01*
X143566638Y-120181702D01*
X143566635Y-120181698D01*
X143563575Y-120176324D01*
X143527697Y-120134918D01*
X143518922Y-120124791D01*
X143518917Y-120124786D01*
X143517082Y-120122668D01*
X143484498Y-120091227D01*
X143396681Y-120045291D01*
X143328560Y-120025289D01*
X143324101Y-120024648D01*
X143324097Y-120024647D01*
X143292780Y-120020144D01*
X143257000Y-120015000D01*
X141604000Y-120015000D01*
X141600653Y-120015360D01*
X141600649Y-120015360D01*
X141553374Y-120020442D01*
X141553367Y-120020443D01*
X141550010Y-120020804D01*
X141546710Y-120021522D01*
X141546709Y-120021522D01*
X141499322Y-120031830D01*
X141499315Y-120031832D01*
X141497668Y-120032190D01*
X141471445Y-120039384D01*
X141442206Y-120056034D01*
X141390702Y-120085362D01*
X141390698Y-120085365D01*
X141385324Y-120088425D01*
X141380647Y-120092478D01*
X141348055Y-120120719D01*
X141331668Y-120134918D01*
X141300227Y-120167502D01*
X141254291Y-120255319D01*
X141234289Y-120323440D01*
X141233648Y-120327899D01*
X141233647Y-120327903D01*
X141230316Y-120351073D01*
X141224000Y-120395000D01*
X141224000Y-120510784D01*
X141203998Y-120578905D01*
X141150342Y-120625398D01*
X141080068Y-120635502D01*
X141061897Y-120631501D01*
X140977238Y-120606182D01*
X140977236Y-120606182D01*
X140968637Y-120603610D01*
X140959663Y-120603555D01*
X140959661Y-120603555D01*
X140896382Y-120603169D01*
X140824127Y-120602728D01*
X140815496Y-120605195D01*
X140815494Y-120605195D01*
X140685179Y-120642439D01*
X140684876Y-120641380D01*
X140644497Y-120650000D01*
X140507190Y-120650000D01*
X140471087Y-120644717D01*
X140342238Y-120606182D01*
X140342236Y-120606182D01*
X140333637Y-120603610D01*
X140324663Y-120603555D01*
X140324661Y-120603555D01*
X140261382Y-120603169D01*
X140189127Y-120602728D01*
X140180496Y-120605195D01*
X140180494Y-120605195D01*
X140050179Y-120642439D01*
X140049876Y-120641380D01*
X140009497Y-120650000D01*
X138937000Y-120650000D01*
X138933653Y-120650360D01*
X138933649Y-120650360D01*
X138886374Y-120655442D01*
X138886367Y-120655443D01*
X138883010Y-120655804D01*
X138879710Y-120656522D01*
X138879709Y-120656522D01*
X138832322Y-120666830D01*
X138832315Y-120666832D01*
X138830668Y-120667190D01*
X138804445Y-120674384D01*
X138763680Y-120697597D01*
X138723702Y-120720362D01*
X138723698Y-120720365D01*
X138718324Y-120723425D01*
X138664668Y-120769918D01*
X138633227Y-120802502D01*
X138587291Y-120890319D01*
X138567289Y-120958440D01*
X138566648Y-120962899D01*
X138566647Y-120962903D01*
X138562991Y-120988331D01*
X138557000Y-121030000D01*
X138557000Y-122543546D01*
X138536998Y-122611667D01*
X138483342Y-122658160D01*
X138413068Y-122668264D01*
X138394898Y-122664263D01*
X138378337Y-122659310D01*
X138369363Y-122659255D01*
X138369361Y-122659255D01*
X138306082Y-122658869D01*
X138233827Y-122658428D01*
X138225196Y-122660895D01*
X138225194Y-122660895D01*
X138103509Y-122695672D01*
X138103505Y-122695674D01*
X138094879Y-122698139D01*
X138087292Y-122702926D01*
X138087290Y-122702927D01*
X137980254Y-122770462D01*
X137972661Y-122775253D01*
X137966718Y-122781982D01*
X137966717Y-122781983D01*
X137957886Y-122791982D01*
X137876999Y-122883570D01*
X137815583Y-123014382D01*
X137814203Y-123023246D01*
X137814202Y-123023249D01*
X137798108Y-123126614D01*
X137764280Y-123194720D01*
X137744227Y-123215502D01*
X137698291Y-123303319D01*
X137678289Y-123371440D01*
X137668000Y-123443000D01*
X137668000Y-129160000D01*
X137668360Y-129163347D01*
X137668360Y-129163351D01*
X137669858Y-129177280D01*
X137673804Y-129213990D01*
X137674522Y-129217290D01*
X137674522Y-129217291D01*
X137684335Y-129262400D01*
X137685190Y-129266332D01*
X137692384Y-129292555D01*
X137709176Y-129322043D01*
X137738362Y-129373298D01*
X137738365Y-129373302D01*
X137741425Y-129378676D01*
X137754686Y-129393980D01*
X137784901Y-129428850D01*
X137787918Y-129432332D01*
X137820502Y-129463773D01*
X137908319Y-129509709D01*
X137976440Y-129529711D01*
X137980899Y-129530352D01*
X137980903Y-129530353D01*
X138002639Y-129533478D01*
X138048000Y-129540000D01*
X140082000Y-129540000D01*
X140085347Y-129539640D01*
X140085351Y-129539640D01*
X140132626Y-129534558D01*
X140132633Y-129534557D01*
X140135990Y-129534196D01*
X140139291Y-129533478D01*
X140186678Y-129523170D01*
X140186685Y-129523168D01*
X140188332Y-129522810D01*
X140214555Y-129515616D01*
X140264697Y-129487063D01*
X140295298Y-129469638D01*
X140295302Y-129469635D01*
X140300676Y-129466575D01*
X140336039Y-129435933D01*
X140352209Y-129421922D01*
X140352214Y-129421917D01*
X140354332Y-129420082D01*
X140385773Y-129387498D01*
X140431709Y-129299681D01*
X140451711Y-129231560D01*
X140462000Y-129160000D01*
X140462000Y-128125126D01*
X140482002Y-128057005D01*
X140535658Y-128010512D01*
X140590308Y-127999147D01*
X140651998Y-128000278D01*
X140661711Y-127997630D01*
X140782763Y-127964628D01*
X140782765Y-127964627D01*
X140791422Y-127962267D01*
X140914572Y-127886652D01*
X141011551Y-127779512D01*
X141074560Y-127649460D01*
X141098536Y-127506951D01*
X141098688Y-127494498D01*
X141078201Y-127351446D01*
X141018388Y-127219893D01*
X141012530Y-127213094D01*
X141012527Y-127213090D01*
X140929916Y-127117216D01*
X140929913Y-127117214D01*
X140924056Y-127110416D01*
X140802790Y-127031815D01*
X140794190Y-127029243D01*
X140672938Y-126992980D01*
X140672936Y-126992980D01*
X140664337Y-126990408D01*
X140655363Y-126990353D01*
X140655361Y-126990353D01*
X140587230Y-126989937D01*
X140519233Y-126969519D01*
X140473069Y-126915580D01*
X140462000Y-126863939D01*
X140462000Y-125729000D01*
X140482002Y-125660879D01*
X140535658Y-125614386D01*
X140588000Y-125603000D01*
X144908000Y-125603000D01*
X144976121Y-125623002D01*
X145022614Y-125676658D01*
X145034000Y-125729000D01*
X145034000Y-130651315D01*
X145037972Y-130696056D01*
X145045791Y-130739751D01*
X145049530Y-130757122D01*
X145092047Y-130846645D01*
X145134431Y-130903602D01*
X145164592Y-130937372D01*
X145172244Y-130942129D01*
X145172245Y-130942130D01*
X145179305Y-130946519D01*
X145248759Y-130989697D01*
X145254549Y-130991875D01*
X145254550Y-130991876D01*
X145312581Y-131013710D01*
X145312589Y-131013713D01*
X145315208Y-131014698D01*
X145317907Y-131015447D01*
X145317920Y-131015451D01*
X145330180Y-131018852D01*
X145390475Y-131056335D01*
X145420934Y-131120466D01*
X145422500Y-131140267D01*
X145422500Y-132025258D01*
X145402498Y-132093379D01*
X145348842Y-132139872D01*
X145325476Y-132147881D01*
X145290219Y-132156212D01*
X145290215Y-132156214D01*
X145281445Y-132158286D01*
X145273611Y-132162747D01*
X145200702Y-132204264D01*
X145200698Y-132204267D01*
X145195324Y-132207327D01*
X145141668Y-132253820D01*
X145110227Y-132286404D01*
X145064291Y-132374221D01*
X145044289Y-132442342D01*
X145034000Y-132513902D01*
X145034000Y-132716000D01*
X145034360Y-132719347D01*
X145034360Y-132719351D01*
X145038992Y-132762433D01*
X145039804Y-132769990D01*
X145040522Y-132773290D01*
X145040522Y-132773291D01*
X145044311Y-132790707D01*
X145051190Y-132822332D01*
X145058384Y-132848555D01*
X145062284Y-132855403D01*
X145104362Y-132929298D01*
X145104365Y-132929302D01*
X145107425Y-132934676D01*
X145153918Y-132988332D01*
X145186502Y-133019773D01*
X145274319Y-133065709D01*
X145342440Y-133085711D01*
X145346899Y-133086352D01*
X145346903Y-133086353D01*
X145378220Y-133090856D01*
X145414000Y-133096000D01*
X145603983Y-133096000D01*
X145624999Y-133095129D01*
X145631972Y-133094550D01*
X145639988Y-133093885D01*
X145639993Y-133093884D01*
X145645776Y-133093404D01*
X145651372Y-133091873D01*
X145651378Y-133091872D01*
X145726981Y-133071188D01*
X145735527Y-133068850D01*
X145799417Y-133037889D01*
X145838242Y-133014590D01*
X145844348Y-133007965D01*
X145844351Y-133007963D01*
X145901214Y-132946272D01*
X145901217Y-132946268D01*
X145905411Y-132941718D01*
X145941302Y-132882961D01*
X145993882Y-132835254D01*
X146063907Y-132823547D01*
X146129144Y-132851557D01*
X146158321Y-132886292D01*
X146182810Y-132929298D01*
X146182813Y-132929302D01*
X146185873Y-132934676D01*
X146232366Y-132988332D01*
X146264950Y-133019773D01*
X146352767Y-133065709D01*
X146420888Y-133085711D01*
X146425347Y-133086352D01*
X146425351Y-133086353D01*
X146456668Y-133090856D01*
X146492448Y-133096000D01*
X147173089Y-133096000D01*
X147231500Y-133089192D01*
X147235047Y-133088354D01*
X147235052Y-133088353D01*
X147285987Y-133076317D01*
X147285993Y-133076315D01*
X147287899Y-133075865D01*
X147318251Y-133066659D01*
X147402568Y-133014575D01*
X147402750Y-133014870D01*
X147465893Y-132990676D01*
X147535398Y-133005149D01*
X147549149Y-133013729D01*
X147555413Y-133019773D01*
X147643230Y-133065709D01*
X147711351Y-133085711D01*
X147715810Y-133086352D01*
X147715814Y-133086353D01*
X147747131Y-133090856D01*
X147782911Y-133096000D01*
X152953089Y-133096000D01*
X153011500Y-133089192D01*
X153015047Y-133088354D01*
X153015052Y-133088353D01*
X153065987Y-133076317D01*
X153065993Y-133076315D01*
X153067899Y-133075865D01*
X153098251Y-133066659D01*
X153182568Y-133014575D01*
X153182750Y-133014870D01*
X153245893Y-132990676D01*
X153315398Y-133005149D01*
X153329149Y-133013729D01*
X153335413Y-133019773D01*
X153423230Y-133065709D01*
X153491351Y-133085711D01*
X153495810Y-133086352D01*
X153495814Y-133086353D01*
X153527131Y-133090856D01*
X153562911Y-133096000D01*
X154243983Y-133096000D01*
X154264999Y-133095129D01*
X154271972Y-133094550D01*
X154279988Y-133093885D01*
X154279993Y-133093884D01*
X154285776Y-133093404D01*
X154291372Y-133091873D01*
X154291378Y-133091872D01*
X154366981Y-133071188D01*
X154375527Y-133068850D01*
X154439417Y-133037889D01*
X154478242Y-133014590D01*
X154484348Y-133007965D01*
X154484351Y-133007963D01*
X154541214Y-132946272D01*
X154541217Y-132946268D01*
X154545411Y-132941718D01*
X154581302Y-132882961D01*
X154633882Y-132835254D01*
X154703907Y-132823547D01*
X154769144Y-132851557D01*
X154798321Y-132886292D01*
X154822810Y-132929298D01*
X154822813Y-132929302D01*
X154825873Y-132934676D01*
X154872366Y-132988332D01*
X154904950Y-133019773D01*
X154992767Y-133065709D01*
X155060888Y-133085711D01*
X155065347Y-133086352D01*
X155065351Y-133086353D01*
X155096668Y-133090856D01*
X155132448Y-133096000D01*
X155319505Y-133096000D01*
X155323004Y-133095606D01*
X155323012Y-133095606D01*
X155344870Y-133093147D01*
X155375929Y-133089654D01*
X155379365Y-133088871D01*
X155379372Y-133088870D01*
X155428727Y-133077625D01*
X155428734Y-133077623D01*
X155430508Y-133077219D01*
X155432253Y-133076713D01*
X155432259Y-133076711D01*
X155451288Y-133071188D01*
X155459006Y-133068948D01*
X155465911Y-133064835D01*
X155465915Y-133064833D01*
X155508793Y-133039291D01*
X155577553Y-133021613D01*
X155644956Y-133043916D01*
X155689600Y-133099119D01*
X155697313Y-133169695D01*
X155687703Y-133200288D01*
X155670965Y-133236596D01*
X155569161Y-133552732D01*
X155506073Y-133878808D01*
X155505806Y-133882584D01*
X155505805Y-133882589D01*
X155482884Y-134206314D01*
X155482616Y-134210103D01*
X155499130Y-134541816D01*
X155499771Y-134545547D01*
X155499772Y-134545555D01*
X155550585Y-134841264D01*
X155555375Y-134869142D01*
X155556463Y-134872781D01*
X155556464Y-134872784D01*
X155643983Y-135165425D01*
X155650537Y-135187341D01*
X155783236Y-135491803D01*
X155785159Y-135495074D01*
X155785161Y-135495078D01*
X155949629Y-135774847D01*
X155949634Y-135774855D01*
X155951552Y-135778117D01*
X156153046Y-136042137D01*
X156155694Y-136044856D01*
X156155699Y-136044861D01*
X156382152Y-136277322D01*
X156384798Y-136280038D01*
X156387742Y-136282409D01*
X156387745Y-136282412D01*
X156458810Y-136339652D01*
X156643453Y-136488374D01*
X156735996Y-136546089D01*
X156783211Y-136599108D01*
X156794267Y-136669238D01*
X156765653Y-136734213D01*
X156706453Y-136773403D01*
X156669318Y-136779000D01*
X155304477Y-136779000D01*
X155236356Y-136758998D01*
X155189863Y-136705342D01*
X155179759Y-136635068D01*
X155204513Y-136576298D01*
X155207507Y-136572396D01*
X155207509Y-136572392D01*
X155212536Y-136565841D01*
X155273044Y-136419762D01*
X155288500Y-136302361D01*
X155288500Y-135223639D01*
X155273044Y-135106238D01*
X155212536Y-134960159D01*
X155116282Y-134834718D01*
X154990841Y-134738464D01*
X154844762Y-134677956D01*
X154688000Y-134657318D01*
X154531238Y-134677956D01*
X154385159Y-134738464D01*
X154259718Y-134834718D01*
X154163464Y-134960159D01*
X154102956Y-135106238D01*
X154087500Y-135223639D01*
X154087500Y-136302361D01*
X154102956Y-136419762D01*
X154163464Y-136565841D01*
X154168491Y-136572392D01*
X154168493Y-136572396D01*
X154171487Y-136576298D01*
X154197086Y-136642519D01*
X154182820Y-136712068D01*
X154133217Y-136762863D01*
X154071523Y-136779000D01*
X146664477Y-136779000D01*
X146596356Y-136758998D01*
X146549863Y-136705342D01*
X146539759Y-136635068D01*
X146564513Y-136576298D01*
X146567507Y-136572396D01*
X146567509Y-136572392D01*
X146572536Y-136565841D01*
X146633044Y-136419762D01*
X146648500Y-136302361D01*
X146648500Y-135223639D01*
X146633044Y-135106238D01*
X146572536Y-134960159D01*
X146476282Y-134834718D01*
X146350841Y-134738464D01*
X146204762Y-134677956D01*
X146048000Y-134657318D01*
X145891238Y-134677956D01*
X145745159Y-134738464D01*
X145619718Y-134834718D01*
X145523464Y-134960159D01*
X145462956Y-135106238D01*
X145447500Y-135223639D01*
X145447500Y-136302361D01*
X145462956Y-136419762D01*
X145523464Y-136565841D01*
X145528491Y-136572392D01*
X145528493Y-136572396D01*
X145531487Y-136576298D01*
X145557086Y-136642519D01*
X145542820Y-136712068D01*
X145493217Y-136762863D01*
X145431523Y-136779000D01*
X144906000Y-136779000D01*
X144837879Y-136758998D01*
X144791386Y-136705342D01*
X144780000Y-136653000D01*
X144780000Y-135165425D01*
X144782421Y-135140844D01*
X144782555Y-135140170D01*
X144784976Y-135128000D01*
X144775013Y-135077909D01*
X144765263Y-135028894D01*
X144758371Y-135018579D01*
X144758370Y-135018577D01*
X144716017Y-134955192D01*
X144709124Y-134944876D01*
X144625106Y-134888737D01*
X144526000Y-134869024D01*
X144513153Y-134871579D01*
X144488575Y-134874000D01*
X136435425Y-134874000D01*
X136410847Y-134871579D01*
X136398000Y-134869024D01*
X136298894Y-134888737D01*
X136214876Y-134944876D01*
X136158737Y-135028894D01*
X136148988Y-135077909D01*
X136139024Y-135128000D01*
X136141445Y-135140170D01*
X136141579Y-135140844D01*
X136144000Y-135165425D01*
X136144000Y-136653000D01*
X136123998Y-136721121D01*
X136070342Y-136767614D01*
X136018000Y-136779000D01*
X134421076Y-136779000D01*
X134352955Y-136758998D01*
X134306462Y-136705342D01*
X134296358Y-136635068D01*
X134325852Y-136570488D01*
X134357791Y-136544046D01*
X134365815Y-136539386D01*
X134365829Y-136539377D01*
X134369103Y-136537475D01*
X134634175Y-136337367D01*
X134873286Y-136106863D01*
X134923764Y-136044861D01*
X135080582Y-135852239D01*
X135080583Y-135852238D01*
X135082973Y-135849302D01*
X135084995Y-135846098D01*
X135258176Y-135571623D01*
X135258179Y-135571617D01*
X135260199Y-135568416D01*
X135402397Y-135268273D01*
X135507506Y-134953220D01*
X135574005Y-134627822D01*
X135600930Y-134296791D01*
X135601312Y-134260321D01*
X135601512Y-134241221D01*
X135601512Y-134241214D01*
X135601535Y-134239000D01*
X135581549Y-133907478D01*
X135580869Y-133903754D01*
X135522559Y-133584481D01*
X135522558Y-133584477D01*
X135521879Y-133580759D01*
X135513177Y-133552732D01*
X135424513Y-133267189D01*
X135423391Y-133263574D01*
X135412913Y-133240203D01*
X135333389Y-133062842D01*
X135287510Y-132960518D01*
X135116205Y-132675982D01*
X135113878Y-132672998D01*
X135113873Y-132672991D01*
X134914294Y-132417082D01*
X134914292Y-132417079D01*
X134911958Y-132414087D01*
X134677726Y-132178626D01*
X134656865Y-132162180D01*
X134419885Y-131975360D01*
X134416904Y-131973010D01*
X134133269Y-131800218D01*
X134012654Y-131745378D01*
X133834381Y-131664321D01*
X133834373Y-131664318D01*
X133830929Y-131662752D01*
X133514264Y-131562604D01*
X133369680Y-131535415D01*
X133191585Y-131501925D01*
X133191580Y-131501924D01*
X133187861Y-131501225D01*
X132856449Y-131479503D01*
X132852669Y-131479711D01*
X132852668Y-131479711D01*
X132757655Y-131484940D01*
X132524827Y-131497753D01*
X132521100Y-131498414D01*
X132521096Y-131498414D01*
X132262396Y-131544263D01*
X132197799Y-131555711D01*
X132194174Y-131556816D01*
X132194169Y-131556817D01*
X131947671Y-131631945D01*
X131880103Y-131652538D01*
X131576341Y-131786830D01*
X131290911Y-131956642D01*
X131027950Y-132159515D01*
X131025249Y-132162174D01*
X131025242Y-132162180D01*
X130793974Y-132389845D01*
X130791266Y-132392511D01*
X130788902Y-132395478D01*
X130788899Y-132395481D01*
X130690943Y-132518408D01*
X130584287Y-132652253D01*
X130582296Y-132655483D01*
X130535260Y-132731790D01*
X130482488Y-132779283D01*
X130412417Y-132790707D01*
X130347293Y-132762433D01*
X130307793Y-132703439D01*
X130302000Y-132665674D01*
X130302000Y-129633604D01*
X130322002Y-129565483D01*
X130375658Y-129518990D01*
X130445932Y-129508886D01*
X130508517Y-129538057D01*
X130509276Y-129538960D01*
X130516747Y-129543933D01*
X130516748Y-129543934D01*
X130622101Y-129614063D01*
X130622103Y-129614064D01*
X130629574Y-129619037D01*
X130638138Y-129621713D01*
X130638141Y-129621714D01*
X130676199Y-129633604D01*
X130767510Y-129662132D01*
X130911998Y-129664780D01*
X130931530Y-129659455D01*
X131042763Y-129629130D01*
X131042765Y-129629129D01*
X131051422Y-129626769D01*
X131174572Y-129551154D01*
X131189075Y-129535132D01*
X131212831Y-129508886D01*
X131271551Y-129444014D01*
X131334560Y-129313962D01*
X131358536Y-129171453D01*
X131358688Y-129159000D01*
X131341196Y-129036860D01*
X131339474Y-129024835D01*
X131339473Y-129024833D01*
X131338201Y-129015948D01*
X131278388Y-128884395D01*
X131272530Y-128877596D01*
X131272527Y-128877592D01*
X131189916Y-128781718D01*
X131189913Y-128781716D01*
X131184056Y-128774918D01*
X131111489Y-128727882D01*
X131070324Y-128701200D01*
X131070322Y-128701199D01*
X131062790Y-128696317D01*
X131022368Y-128684228D01*
X130932938Y-128657482D01*
X130932936Y-128657482D01*
X130924337Y-128654910D01*
X130915363Y-128654855D01*
X130915361Y-128654855D01*
X130852082Y-128654469D01*
X130779827Y-128654028D01*
X130771196Y-128656495D01*
X130771194Y-128656495D01*
X130649509Y-128691272D01*
X130649505Y-128691274D01*
X130640879Y-128693739D01*
X130633292Y-128698526D01*
X130633290Y-128698527D01*
X130526249Y-128766065D01*
X130526248Y-128766066D01*
X130518661Y-128770853D01*
X130512720Y-128777580D01*
X130509665Y-128780180D01*
X130444825Y-128809100D01*
X130374644Y-128798373D01*
X130321402Y-128751406D01*
X130302000Y-128684228D01*
X130302000Y-124385804D01*
X130322002Y-124317683D01*
X130375658Y-124271190D01*
X130445932Y-124261086D01*
X130508517Y-124290257D01*
X130509276Y-124291160D01*
X130516747Y-124296133D01*
X130516748Y-124296134D01*
X130622101Y-124366263D01*
X130622103Y-124366264D01*
X130629574Y-124371237D01*
X130638138Y-124373913D01*
X130638141Y-124373914D01*
X130669948Y-124383851D01*
X130767510Y-124414332D01*
X130911998Y-124416980D01*
X130931530Y-124411655D01*
X131042763Y-124381330D01*
X131042765Y-124381329D01*
X131051422Y-124378969D01*
X131136431Y-124326773D01*
X134999350Y-124326773D01*
X135000514Y-124335675D01*
X135000514Y-124335678D01*
X135012351Y-124426196D01*
X135018088Y-124470065D01*
X135076289Y-124602339D01*
X135169276Y-124712960D01*
X135176747Y-124717933D01*
X135176748Y-124717934D01*
X135282101Y-124788063D01*
X135282103Y-124788064D01*
X135289574Y-124793037D01*
X135298138Y-124795713D01*
X135298141Y-124795714D01*
X135358542Y-124814584D01*
X135427510Y-124836132D01*
X135571998Y-124838780D01*
X135607644Y-124829062D01*
X135702763Y-124803130D01*
X135702765Y-124803129D01*
X135711422Y-124800769D01*
X135834572Y-124725154D01*
X135931551Y-124618014D01*
X135994560Y-124487962D01*
X136018536Y-124345453D01*
X136018688Y-124333000D01*
X136005524Y-124241080D01*
X135999474Y-124198835D01*
X135999473Y-124198833D01*
X135998201Y-124189948D01*
X135938388Y-124058395D01*
X135932530Y-124051596D01*
X135932527Y-124051592D01*
X135849916Y-123955718D01*
X135849913Y-123955716D01*
X135844056Y-123948918D01*
X135778434Y-123906384D01*
X135730324Y-123875200D01*
X135730322Y-123875199D01*
X135722790Y-123870317D01*
X135705921Y-123865272D01*
X135592938Y-123831482D01*
X135592936Y-123831482D01*
X135584337Y-123828910D01*
X135575363Y-123828855D01*
X135575361Y-123828855D01*
X135512082Y-123828469D01*
X135439827Y-123828028D01*
X135431196Y-123830495D01*
X135431194Y-123830495D01*
X135309509Y-123865272D01*
X135309505Y-123865274D01*
X135300879Y-123867739D01*
X135293292Y-123872526D01*
X135293290Y-123872527D01*
X135212261Y-123923653D01*
X135178661Y-123944853D01*
X135082999Y-124053170D01*
X135021583Y-124183982D01*
X135020203Y-124192846D01*
X135020202Y-124192849D01*
X135004121Y-124296134D01*
X134999350Y-124326773D01*
X131136431Y-124326773D01*
X131174572Y-124303354D01*
X131271551Y-124196214D01*
X131334560Y-124066162D01*
X131358536Y-123923653D01*
X131358688Y-123911200D01*
X131345042Y-123815915D01*
X131339474Y-123777035D01*
X131339473Y-123777033D01*
X131338201Y-123768148D01*
X131278388Y-123636595D01*
X131272530Y-123629796D01*
X131272527Y-123629792D01*
X131189916Y-123533918D01*
X131189913Y-123533916D01*
X131184056Y-123527118D01*
X131062790Y-123448517D01*
X131022368Y-123436428D01*
X130932938Y-123409682D01*
X130932936Y-123409682D01*
X130924337Y-123407110D01*
X130915363Y-123407055D01*
X130915361Y-123407055D01*
X130852082Y-123406669D01*
X130779827Y-123406228D01*
X130771196Y-123408695D01*
X130771194Y-123408695D01*
X130649509Y-123443472D01*
X130649505Y-123443474D01*
X130640879Y-123445939D01*
X130633292Y-123450726D01*
X130633290Y-123450727D01*
X130526249Y-123518265D01*
X130526248Y-123518266D01*
X130518661Y-123523053D01*
X130512720Y-123529780D01*
X130509665Y-123532380D01*
X130444825Y-123561300D01*
X130374644Y-123550573D01*
X130321402Y-123503606D01*
X130302000Y-123436428D01*
X130302000Y-121697412D01*
X130322002Y-121629291D01*
X130375658Y-121582798D01*
X130445932Y-121572694D01*
X130479248Y-121582305D01*
X130494920Y-121589283D01*
X130494928Y-121589286D01*
X130500955Y-121591969D01*
X130593944Y-121611735D01*
X130680476Y-121630128D01*
X130680480Y-121630128D01*
X130686933Y-121631500D01*
X130877067Y-121631500D01*
X130883520Y-121630128D01*
X130883524Y-121630128D01*
X130970056Y-121611735D01*
X131063045Y-121591969D01*
X131113817Y-121569364D01*
X131230711Y-121517320D01*
X131230713Y-121517319D01*
X131236741Y-121514635D01*
X131390562Y-121402877D01*
X131517786Y-121261580D01*
X131612853Y-121096920D01*
X131671608Y-120916092D01*
X131676195Y-120872455D01*
X131690792Y-120733565D01*
X131691482Y-120727000D01*
X131682735Y-120643773D01*
X131672298Y-120544471D01*
X131672298Y-120544469D01*
X131671608Y-120537908D01*
X131612853Y-120357080D01*
X131607076Y-120347073D01*
X131568841Y-120280850D01*
X131517786Y-120192420D01*
X131510876Y-120184745D01*
X131394984Y-120056034D01*
X131394983Y-120056033D01*
X131390562Y-120051123D01*
X131236741Y-119939365D01*
X131230713Y-119936681D01*
X131230711Y-119936680D01*
X131069076Y-119864716D01*
X131069075Y-119864716D01*
X131063045Y-119862031D01*
X130968972Y-119842035D01*
X130883524Y-119823872D01*
X130883520Y-119823872D01*
X130877067Y-119822500D01*
X130686933Y-119822500D01*
X130680480Y-119823872D01*
X130680476Y-119823872D01*
X130595028Y-119842035D01*
X130500955Y-119862031D01*
X130494928Y-119864714D01*
X130494920Y-119864717D01*
X130479248Y-119871695D01*
X130408881Y-119881129D01*
X130344584Y-119851022D01*
X130306771Y-119790933D01*
X130302000Y-119756588D01*
X130302000Y-119254000D01*
X133223000Y-119254000D01*
X133223360Y-119257347D01*
X133223360Y-119257351D01*
X133226433Y-119285930D01*
X133228804Y-119307990D01*
X133229522Y-119311290D01*
X133229522Y-119311291D01*
X133239499Y-119357154D01*
X133240190Y-119360332D01*
X133247384Y-119386555D01*
X133264306Y-119416272D01*
X133293362Y-119467298D01*
X133293365Y-119467302D01*
X133296425Y-119472676D01*
X133315799Y-119495035D01*
X133333898Y-119515922D01*
X133342918Y-119526332D01*
X133375502Y-119557773D01*
X133463319Y-119603709D01*
X133531440Y-119623711D01*
X133535899Y-119624352D01*
X133535903Y-119624353D01*
X133557639Y-119627478D01*
X133603000Y-119634000D01*
X135970294Y-119634000D01*
X136038415Y-119654002D01*
X136084908Y-119707658D01*
X136095012Y-119777932D01*
X136065518Y-119842512D01*
X136004918Y-119881149D01*
X135924009Y-119904272D01*
X135924005Y-119904274D01*
X135915379Y-119906739D01*
X135907792Y-119911526D01*
X135907790Y-119911527D01*
X135863670Y-119939365D01*
X135793161Y-119983853D01*
X135787218Y-119990582D01*
X135787217Y-119990583D01*
X135740440Y-120043548D01*
X135697499Y-120092170D01*
X135693685Y-120100293D01*
X135693684Y-120100295D01*
X135672682Y-120145028D01*
X135636083Y-120222982D01*
X135634703Y-120231846D01*
X135634702Y-120231849D01*
X135615408Y-120355769D01*
X135613850Y-120365773D01*
X135615014Y-120374675D01*
X135615014Y-120374678D01*
X135630469Y-120492859D01*
X135632588Y-120509065D01*
X135690789Y-120641339D01*
X135696563Y-120648208D01*
X135712217Y-120666830D01*
X135783776Y-120751960D01*
X135791247Y-120756933D01*
X135791248Y-120756934D01*
X135896601Y-120827063D01*
X135896603Y-120827064D01*
X135904074Y-120832037D01*
X135912638Y-120834713D01*
X135912641Y-120834714D01*
X135973042Y-120853584D01*
X136042010Y-120875132D01*
X136186498Y-120877780D01*
X136206030Y-120872455D01*
X136317263Y-120842130D01*
X136317265Y-120842129D01*
X136325922Y-120839769D01*
X136449072Y-120764154D01*
X136546051Y-120657014D01*
X136609060Y-120526962D01*
X136633036Y-120384453D01*
X136633188Y-120372000D01*
X136619462Y-120276154D01*
X136613974Y-120237835D01*
X136613973Y-120237833D01*
X136612701Y-120228948D01*
X136552888Y-120097395D01*
X136547030Y-120090596D01*
X136547027Y-120090592D01*
X136464416Y-119994718D01*
X136464413Y-119994716D01*
X136458556Y-119987918D01*
X136337290Y-119909317D01*
X136241660Y-119880717D01*
X136237129Y-119877773D01*
X145790350Y-119877773D01*
X145791514Y-119886675D01*
X145791514Y-119886678D01*
X145800804Y-119957717D01*
X145809088Y-120021065D01*
X145867289Y-120153339D01*
X145873063Y-120160208D01*
X145954478Y-120257062D01*
X145960276Y-120263960D01*
X145967747Y-120268933D01*
X145967748Y-120268934D01*
X146073101Y-120339063D01*
X146073103Y-120339064D01*
X146080574Y-120344037D01*
X146089138Y-120346713D01*
X146089141Y-120346714D01*
X146121748Y-120356901D01*
X146218510Y-120387132D01*
X146362998Y-120389780D01*
X146382530Y-120384455D01*
X146493763Y-120354130D01*
X146493765Y-120354129D01*
X146502422Y-120351769D01*
X146625572Y-120276154D01*
X146722551Y-120169014D01*
X146781105Y-120048158D01*
X146781645Y-120047043D01*
X146781645Y-120047042D01*
X146785560Y-120038962D01*
X146809536Y-119896453D01*
X146809688Y-119884000D01*
X146789201Y-119740948D01*
X146729388Y-119609395D01*
X146723530Y-119602596D01*
X146723527Y-119602592D01*
X146640916Y-119506718D01*
X146640913Y-119506716D01*
X146635056Y-119499918D01*
X146535101Y-119435130D01*
X146521324Y-119426200D01*
X146521322Y-119426199D01*
X146513790Y-119421317D01*
X146439707Y-119399161D01*
X146383938Y-119382482D01*
X146383936Y-119382482D01*
X146375337Y-119379910D01*
X146366363Y-119379855D01*
X146366361Y-119379855D01*
X146303082Y-119379469D01*
X146230827Y-119379028D01*
X146222196Y-119381495D01*
X146222194Y-119381495D01*
X146100509Y-119416272D01*
X146100505Y-119416274D01*
X146091879Y-119418739D01*
X146084292Y-119423526D01*
X146084290Y-119423527D01*
X145992412Y-119481498D01*
X145969661Y-119495853D01*
X145963718Y-119502582D01*
X145963717Y-119502583D01*
X145892914Y-119582752D01*
X145873999Y-119604170D01*
X145870185Y-119612293D01*
X145870184Y-119612295D01*
X145864523Y-119624353D01*
X145812583Y-119734982D01*
X145811203Y-119743846D01*
X145811202Y-119743849D01*
X145791886Y-119867910D01*
X145790350Y-119877773D01*
X136237129Y-119877773D01*
X136182127Y-119842035D01*
X136152957Y-119777307D01*
X136163413Y-119707085D01*
X136210173Y-119653663D01*
X136277763Y-119634000D01*
X142749000Y-119634000D01*
X142752347Y-119633640D01*
X142752351Y-119633640D01*
X142799626Y-119628558D01*
X142799633Y-119628557D01*
X142802990Y-119628196D01*
X142806291Y-119627478D01*
X142853678Y-119617170D01*
X142853685Y-119617168D01*
X142855332Y-119616810D01*
X142857210Y-119616295D01*
X142867780Y-119613395D01*
X142881555Y-119609616D01*
X142922320Y-119586403D01*
X142962298Y-119563638D01*
X142962302Y-119563635D01*
X142967676Y-119560575D01*
X142994458Y-119537368D01*
X143019209Y-119515922D01*
X143019214Y-119515917D01*
X143021332Y-119514082D01*
X143052773Y-119481498D01*
X143098709Y-119393681D01*
X143118711Y-119325560D01*
X143119641Y-119319096D01*
X143124409Y-119285930D01*
X143129000Y-119254000D01*
X143129000Y-118809573D01*
X148649550Y-118809573D01*
X148650714Y-118818475D01*
X148650714Y-118818478D01*
X148667124Y-118943964D01*
X148668288Y-118952865D01*
X148726489Y-119085139D01*
X148819476Y-119195760D01*
X148826947Y-119200733D01*
X148826948Y-119200734D01*
X148932301Y-119270863D01*
X148932303Y-119270864D01*
X148939774Y-119275837D01*
X148948338Y-119278513D01*
X148948341Y-119278514D01*
X149008742Y-119297384D01*
X149077710Y-119318932D01*
X149222198Y-119321580D01*
X149259938Y-119311291D01*
X149352963Y-119285930D01*
X149352965Y-119285929D01*
X149361622Y-119283569D01*
X149484772Y-119207954D01*
X149581751Y-119100814D01*
X149644760Y-118970762D01*
X149646777Y-118958773D01*
X150429250Y-118958773D01*
X150430414Y-118967675D01*
X150430414Y-118967678D01*
X150444700Y-119076925D01*
X150447988Y-119102065D01*
X150506189Y-119234339D01*
X150511963Y-119241208D01*
X150582869Y-119325560D01*
X150599176Y-119344960D01*
X150606647Y-119349933D01*
X150606648Y-119349934D01*
X150712001Y-119420063D01*
X150712003Y-119420064D01*
X150719474Y-119425037D01*
X150728038Y-119427713D01*
X150728041Y-119427714D01*
X150788442Y-119446585D01*
X150857410Y-119468132D01*
X151001898Y-119470780D01*
X151021430Y-119465455D01*
X151132663Y-119435130D01*
X151132665Y-119435129D01*
X151141322Y-119432769D01*
X151264472Y-119357154D01*
X151361451Y-119250014D01*
X151424460Y-119119962D01*
X151448436Y-118977453D01*
X151448588Y-118965000D01*
X151428101Y-118821948D01*
X151422475Y-118809573D01*
X151372004Y-118698569D01*
X151368288Y-118690395D01*
X151362430Y-118683596D01*
X151362427Y-118683592D01*
X151279816Y-118587718D01*
X151279813Y-118587716D01*
X151273956Y-118580918D01*
X151204610Y-118535970D01*
X151160224Y-118507200D01*
X151160222Y-118507199D01*
X151152690Y-118502317D01*
X151135821Y-118497272D01*
X151022838Y-118463482D01*
X151022836Y-118463482D01*
X151014237Y-118460910D01*
X151005263Y-118460855D01*
X151005261Y-118460855D01*
X150941982Y-118460469D01*
X150869727Y-118460028D01*
X150861096Y-118462495D01*
X150861094Y-118462495D01*
X150739409Y-118497272D01*
X150739405Y-118497274D01*
X150730779Y-118499739D01*
X150723192Y-118504526D01*
X150723190Y-118504527D01*
X150675857Y-118534392D01*
X150608561Y-118576853D01*
X150512899Y-118685170D01*
X150451483Y-118815982D01*
X150450103Y-118824846D01*
X150450102Y-118824849D01*
X150431556Y-118943964D01*
X150429250Y-118958773D01*
X149646777Y-118958773D01*
X149668736Y-118828253D01*
X149668888Y-118815800D01*
X149651344Y-118693295D01*
X149649674Y-118681635D01*
X149649673Y-118681633D01*
X149648401Y-118672748D01*
X149588588Y-118541195D01*
X149582730Y-118534396D01*
X149582727Y-118534392D01*
X149500116Y-118438518D01*
X149500113Y-118438516D01*
X149494256Y-118431718D01*
X149372990Y-118353117D01*
X149356121Y-118348072D01*
X149243138Y-118314282D01*
X149243136Y-118314282D01*
X149234537Y-118311710D01*
X149225563Y-118311655D01*
X149225561Y-118311655D01*
X149162282Y-118311269D01*
X149090027Y-118310828D01*
X149081396Y-118313295D01*
X149081394Y-118313295D01*
X148959709Y-118348072D01*
X148959705Y-118348074D01*
X148951079Y-118350539D01*
X148828861Y-118427653D01*
X148822918Y-118434382D01*
X148822917Y-118434383D01*
X148798090Y-118462495D01*
X148733199Y-118535970D01*
X148729385Y-118544093D01*
X148729384Y-118544095D01*
X148712096Y-118580918D01*
X148671783Y-118666782D01*
X148670403Y-118675646D01*
X148670402Y-118675649D01*
X148666834Y-118698569D01*
X148649550Y-118809573D01*
X143129000Y-118809573D01*
X143129000Y-117189373D01*
X152144350Y-117189373D01*
X152145514Y-117198275D01*
X152145514Y-117198278D01*
X152161924Y-117323764D01*
X152163088Y-117332665D01*
X152221289Y-117464939D01*
X152314276Y-117575560D01*
X152321747Y-117580533D01*
X152321748Y-117580534D01*
X152427101Y-117650663D01*
X152427103Y-117650664D01*
X152434574Y-117655637D01*
X152443138Y-117658313D01*
X152443141Y-117658314D01*
X152503542Y-117677184D01*
X152572510Y-117698732D01*
X152716998Y-117701380D01*
X152736530Y-117696055D01*
X152847763Y-117665730D01*
X152847765Y-117665729D01*
X152856422Y-117663369D01*
X152979572Y-117587754D01*
X153076551Y-117480614D01*
X153139560Y-117350562D01*
X153163536Y-117208053D01*
X153163688Y-117195600D01*
X153143201Y-117052548D01*
X153083388Y-116920995D01*
X153077530Y-116914196D01*
X153077527Y-116914192D01*
X152994916Y-116818318D01*
X152994913Y-116818316D01*
X152989056Y-116811518D01*
X152867790Y-116732917D01*
X152850921Y-116727872D01*
X152737938Y-116694082D01*
X152737936Y-116694082D01*
X152729337Y-116691510D01*
X152720363Y-116691455D01*
X152720361Y-116691455D01*
X152657082Y-116691069D01*
X152584827Y-116690628D01*
X152576196Y-116693095D01*
X152576194Y-116693095D01*
X152454509Y-116727872D01*
X152454505Y-116727874D01*
X152445879Y-116730339D01*
X152323661Y-116807453D01*
X152227999Y-116915770D01*
X152166583Y-117046582D01*
X152144350Y-117189373D01*
X143129000Y-117189373D01*
X143129000Y-115908573D01*
X145624950Y-115908573D01*
X145626114Y-115917475D01*
X145626114Y-115917478D01*
X145633976Y-115977596D01*
X145643688Y-116051865D01*
X145701889Y-116184139D01*
X145794876Y-116294760D01*
X145802347Y-116299733D01*
X145802348Y-116299734D01*
X145907701Y-116369863D01*
X145907703Y-116369864D01*
X145915174Y-116374837D01*
X145923738Y-116377513D01*
X145923741Y-116377514D01*
X145984142Y-116396384D01*
X146053110Y-116417932D01*
X146197598Y-116420580D01*
X146221466Y-116414073D01*
X146328363Y-116384930D01*
X146328365Y-116384929D01*
X146337022Y-116382569D01*
X146460172Y-116306954D01*
X146557151Y-116199814D01*
X146598707Y-116114041D01*
X146616245Y-116077843D01*
X146616245Y-116077842D01*
X146620160Y-116069762D01*
X146644136Y-115927253D01*
X146644288Y-115914800D01*
X146641892Y-115898073D01*
X150582150Y-115898073D01*
X150583314Y-115906975D01*
X150583314Y-115906978D01*
X150592549Y-115977596D01*
X150600888Y-116041365D01*
X150659089Y-116173639D01*
X150752076Y-116284260D01*
X150759547Y-116289233D01*
X150759548Y-116289234D01*
X150864901Y-116359363D01*
X150864903Y-116359364D01*
X150872374Y-116364337D01*
X150880938Y-116367013D01*
X150880941Y-116367014D01*
X150914550Y-116377514D01*
X151010310Y-116407432D01*
X151154798Y-116410080D01*
X151164511Y-116407432D01*
X151285563Y-116374430D01*
X151285565Y-116374429D01*
X151294222Y-116372069D01*
X151417372Y-116296454D01*
X151514351Y-116189314D01*
X151577360Y-116059262D01*
X151601336Y-115916753D01*
X151601488Y-115904300D01*
X151585923Y-115795614D01*
X151582274Y-115770135D01*
X151582273Y-115770133D01*
X151581001Y-115761248D01*
X151576448Y-115751233D01*
X151568242Y-115733186D01*
X151521188Y-115629695D01*
X151515330Y-115622896D01*
X151515327Y-115622892D01*
X151432716Y-115527018D01*
X151432713Y-115527016D01*
X151426856Y-115520218D01*
X151360145Y-115476978D01*
X151346406Y-115468073D01*
X154557350Y-115468073D01*
X154558514Y-115476975D01*
X154558514Y-115476978D01*
X154569744Y-115562853D01*
X154576088Y-115611365D01*
X154634289Y-115743639D01*
X154640063Y-115750508D01*
X154651530Y-115764149D01*
X154727276Y-115854260D01*
X154734747Y-115859233D01*
X154734748Y-115859234D01*
X154840101Y-115929363D01*
X154840103Y-115929364D01*
X154847574Y-115934337D01*
X154856138Y-115937013D01*
X154856141Y-115937014D01*
X154916542Y-115955884D01*
X154985510Y-115977432D01*
X155129998Y-115980080D01*
X155153499Y-115973673D01*
X155259505Y-115944773D01*
X158494350Y-115944773D01*
X158495514Y-115953675D01*
X158495514Y-115953678D01*
X158511751Y-116077843D01*
X158513088Y-116088065D01*
X158571289Y-116220339D01*
X158577063Y-116227208D01*
X158635271Y-116296454D01*
X158664276Y-116330960D01*
X158671747Y-116335933D01*
X158671748Y-116335934D01*
X158777101Y-116406063D01*
X158777103Y-116406064D01*
X158784574Y-116411037D01*
X158793138Y-116413713D01*
X158793141Y-116413714D01*
X158853542Y-116432585D01*
X158922510Y-116454132D01*
X159066998Y-116456780D01*
X159086530Y-116451455D01*
X159197763Y-116421130D01*
X159197765Y-116421129D01*
X159206422Y-116418769D01*
X159329572Y-116343154D01*
X159426551Y-116236014D01*
X159489560Y-116105962D01*
X159490315Y-116101475D01*
X159528834Y-116044507D01*
X159594085Y-116016528D01*
X159611410Y-116015651D01*
X159642221Y-116016216D01*
X159642225Y-116016216D01*
X159651198Y-116016380D01*
X159662690Y-116013247D01*
X159781963Y-115980730D01*
X159781965Y-115980729D01*
X159790622Y-115978369D01*
X159913772Y-115902754D01*
X160010751Y-115795614D01*
X160042255Y-115730588D01*
X160069845Y-115673643D01*
X160069845Y-115673642D01*
X160073760Y-115665562D01*
X160097736Y-115523053D01*
X160097888Y-115510600D01*
X160083809Y-115412295D01*
X160078674Y-115376435D01*
X160078673Y-115376433D01*
X160077401Y-115367548D01*
X160017588Y-115235995D01*
X160011730Y-115229196D01*
X160011727Y-115229192D01*
X159929116Y-115133318D01*
X159929113Y-115133316D01*
X159923256Y-115126518D01*
X159801990Y-115047917D01*
X159696901Y-115016488D01*
X159672138Y-115009082D01*
X159672136Y-115009082D01*
X159663537Y-115006510D01*
X159654563Y-115006455D01*
X159654561Y-115006455D01*
X159591282Y-115006069D01*
X159519027Y-115005628D01*
X159510396Y-115008095D01*
X159510394Y-115008095D01*
X159388709Y-115042872D01*
X159388705Y-115042874D01*
X159380079Y-115045339D01*
X159372492Y-115050126D01*
X159372490Y-115050127D01*
X159298173Y-115097018D01*
X159257861Y-115122453D01*
X159251918Y-115129182D01*
X159251917Y-115129183D01*
X159227562Y-115156760D01*
X159162199Y-115230770D01*
X159158385Y-115238893D01*
X159158384Y-115238895D01*
X159119041Y-115322694D01*
X159100783Y-115361582D01*
X159100607Y-115361499D01*
X159064423Y-115416453D01*
X158999519Y-115445228D01*
X158982203Y-115446317D01*
X158966227Y-115446220D01*
X158934827Y-115446028D01*
X158926196Y-115448495D01*
X158926194Y-115448495D01*
X158804509Y-115483272D01*
X158804505Y-115483274D01*
X158795879Y-115485739D01*
X158788292Y-115490526D01*
X158788290Y-115490527D01*
X158720368Y-115533383D01*
X158673661Y-115562853D01*
X158667718Y-115569582D01*
X158667717Y-115569583D01*
X158619243Y-115624470D01*
X158577999Y-115671170D01*
X158516583Y-115801982D01*
X158515203Y-115810846D01*
X158515202Y-115810849D01*
X158497835Y-115922393D01*
X158494350Y-115944773D01*
X155259505Y-115944773D01*
X155260763Y-115944430D01*
X155260765Y-115944429D01*
X155269422Y-115942069D01*
X155392572Y-115866454D01*
X155489551Y-115759314D01*
X155521056Y-115694288D01*
X155548645Y-115637343D01*
X155548645Y-115637342D01*
X155552560Y-115629262D01*
X155576536Y-115486753D01*
X155576688Y-115474300D01*
X155563201Y-115380128D01*
X155557474Y-115340135D01*
X155557473Y-115340133D01*
X155556201Y-115331248D01*
X155496388Y-115199695D01*
X155490530Y-115192896D01*
X155490527Y-115192892D01*
X155407916Y-115097018D01*
X155407913Y-115097016D01*
X155402056Y-115090218D01*
X155332826Y-115045345D01*
X155288324Y-115016500D01*
X155288322Y-115016499D01*
X155280790Y-115011617D01*
X155272170Y-115009039D01*
X155150938Y-114972782D01*
X155150936Y-114972782D01*
X155142337Y-114970210D01*
X155133363Y-114970155D01*
X155133361Y-114970155D01*
X155070082Y-114969769D01*
X154997827Y-114969328D01*
X154989196Y-114971795D01*
X154989194Y-114971795D01*
X154867509Y-115006572D01*
X154867505Y-115006574D01*
X154858879Y-115009039D01*
X154851292Y-115013826D01*
X154851290Y-115013827D01*
X154789522Y-115052800D01*
X154736661Y-115086153D01*
X154730718Y-115092882D01*
X154730717Y-115092883D01*
X154674303Y-115156760D01*
X154640999Y-115194470D01*
X154637185Y-115202593D01*
X154637184Y-115202595D01*
X154617665Y-115244169D01*
X154579583Y-115325282D01*
X154578203Y-115334146D01*
X154578202Y-115334149D01*
X154560235Y-115449545D01*
X154557350Y-115468073D01*
X151346406Y-115468073D01*
X151313124Y-115446500D01*
X151313122Y-115446499D01*
X151305590Y-115441617D01*
X151221449Y-115416453D01*
X151175738Y-115402782D01*
X151175736Y-115402782D01*
X151167137Y-115400210D01*
X151158163Y-115400155D01*
X151158161Y-115400155D01*
X151094882Y-115399769D01*
X151022627Y-115399328D01*
X151013996Y-115401795D01*
X151013994Y-115401795D01*
X150892309Y-115436572D01*
X150892305Y-115436574D01*
X150883679Y-115439039D01*
X150876092Y-115443826D01*
X150876090Y-115443827D01*
X150800459Y-115491547D01*
X150761461Y-115516153D01*
X150755518Y-115522882D01*
X150755517Y-115522883D01*
X150746244Y-115533383D01*
X150665799Y-115624470D01*
X150661985Y-115632593D01*
X150661984Y-115632595D01*
X150654578Y-115648369D01*
X150604383Y-115755282D01*
X150603003Y-115764146D01*
X150603002Y-115764149D01*
X150588972Y-115854260D01*
X150582150Y-115898073D01*
X146641892Y-115898073D01*
X146623801Y-115771748D01*
X146614474Y-115751233D01*
X146607286Y-115735425D01*
X146563988Y-115640195D01*
X146558130Y-115633396D01*
X146558127Y-115633392D01*
X146475516Y-115537518D01*
X146475513Y-115537516D01*
X146469656Y-115530718D01*
X146373007Y-115468073D01*
X146355924Y-115457000D01*
X146355922Y-115456999D01*
X146348390Y-115452117D01*
X146329608Y-115446500D01*
X146218538Y-115413282D01*
X146218536Y-115413282D01*
X146209937Y-115410710D01*
X146200963Y-115410655D01*
X146200961Y-115410655D01*
X146137682Y-115410269D01*
X146065427Y-115409828D01*
X146056796Y-115412295D01*
X146056794Y-115412295D01*
X145935109Y-115447072D01*
X145935105Y-115447074D01*
X145926479Y-115449539D01*
X145918892Y-115454326D01*
X145918890Y-115454327D01*
X145822199Y-115515335D01*
X145804261Y-115526653D01*
X145798318Y-115533382D01*
X145798317Y-115533383D01*
X145737307Y-115602464D01*
X145708599Y-115634970D01*
X145647183Y-115765782D01*
X145645803Y-115774646D01*
X145645802Y-115774649D01*
X145626585Y-115898073D01*
X145624950Y-115908573D01*
X143129000Y-115908573D01*
X143129000Y-114934000D01*
X143123196Y-114880010D01*
X143119374Y-114862440D01*
X143112170Y-114829322D01*
X143112168Y-114829315D01*
X143111810Y-114827668D01*
X143104616Y-114801445D01*
X143077589Y-114753982D01*
X143058638Y-114720702D01*
X143058635Y-114720698D01*
X143055575Y-114715324D01*
X143018415Y-114672439D01*
X143010922Y-114663791D01*
X143010917Y-114663786D01*
X143009082Y-114661668D01*
X142976498Y-114630227D01*
X142888681Y-114584291D01*
X142820560Y-114564289D01*
X142816101Y-114563648D01*
X142816097Y-114563647D01*
X142784780Y-114559145D01*
X142749000Y-114554000D01*
X138722479Y-114554000D01*
X138720263Y-114554158D01*
X138720252Y-114554158D01*
X138688757Y-114556398D01*
X138688750Y-114556399D01*
X138686539Y-114556556D01*
X138684332Y-114556871D01*
X138684327Y-114556872D01*
X138657914Y-114560647D01*
X138657910Y-114560648D01*
X138651243Y-114561601D01*
X138550217Y-114599138D01*
X138544544Y-114602771D01*
X138544541Y-114602772D01*
X138492797Y-114635904D01*
X138492790Y-114635909D01*
X138490427Y-114637422D01*
X138488208Y-114639140D01*
X138488202Y-114639144D01*
X138461753Y-114659619D01*
X138454624Y-114665138D01*
X138419586Y-114713556D01*
X138363449Y-114757015D01*
X138292724Y-114763225D01*
X138281421Y-114760407D01*
X138251337Y-114751410D01*
X138242363Y-114751355D01*
X138242361Y-114751355D01*
X138179963Y-114750974D01*
X138106827Y-114750528D01*
X138071505Y-114760623D01*
X138000512Y-114760111D01*
X137941064Y-114721297D01*
X137938378Y-114717846D01*
X137936942Y-114715324D01*
X137899782Y-114672439D01*
X137892289Y-114663791D01*
X137892284Y-114663786D01*
X137890449Y-114661668D01*
X137857865Y-114630227D01*
X137770048Y-114584291D01*
X137701927Y-114564289D01*
X137697468Y-114563648D01*
X137697464Y-114563647D01*
X137666147Y-114559145D01*
X137630367Y-114554000D01*
X133603000Y-114554000D01*
X133599653Y-114554360D01*
X133599649Y-114554360D01*
X133552374Y-114559442D01*
X133552367Y-114559443D01*
X133549010Y-114559804D01*
X133545710Y-114560522D01*
X133545709Y-114560522D01*
X133498322Y-114570830D01*
X133498315Y-114570832D01*
X133496668Y-114571190D01*
X133470445Y-114578384D01*
X133438119Y-114596792D01*
X133389702Y-114624362D01*
X133389698Y-114624365D01*
X133384324Y-114627425D01*
X133357542Y-114650632D01*
X133339700Y-114666092D01*
X133330668Y-114673918D01*
X133299227Y-114706502D01*
X133253291Y-114794319D01*
X133233289Y-114862440D01*
X133223000Y-114934000D01*
X133223000Y-119254000D01*
X130302000Y-119254000D01*
X130302000Y-115447412D01*
X130322002Y-115379291D01*
X130375658Y-115332798D01*
X130445932Y-115322694D01*
X130479248Y-115332305D01*
X130494920Y-115339283D01*
X130494928Y-115339286D01*
X130500955Y-115341969D01*
X130582853Y-115359377D01*
X130680476Y-115380128D01*
X130680480Y-115380128D01*
X130686933Y-115381500D01*
X130877067Y-115381500D01*
X130883520Y-115380128D01*
X130883524Y-115380128D01*
X130981147Y-115359377D01*
X131063045Y-115341969D01*
X131100525Y-115325282D01*
X131230711Y-115267320D01*
X131230713Y-115267319D01*
X131236741Y-115264635D01*
X131390562Y-115152877D01*
X131446980Y-115090218D01*
X131513367Y-115016488D01*
X131513368Y-115016487D01*
X131517786Y-115011580D01*
X131601316Y-114866903D01*
X131609549Y-114852643D01*
X131609550Y-114852642D01*
X131612853Y-114846920D01*
X131671608Y-114666092D01*
X131675378Y-114630227D01*
X131690792Y-114483565D01*
X131691482Y-114477000D01*
X131671608Y-114287908D01*
X131612853Y-114107080D01*
X131517786Y-113942420D01*
X131390562Y-113801123D01*
X131236741Y-113689365D01*
X131230713Y-113686681D01*
X131230711Y-113686680D01*
X131069076Y-113614716D01*
X131069075Y-113614716D01*
X131063045Y-113612031D01*
X130970056Y-113592266D01*
X130883524Y-113573872D01*
X130883520Y-113573872D01*
X130877067Y-113572500D01*
X130686933Y-113572500D01*
X130680480Y-113573872D01*
X130680476Y-113573872D01*
X130593944Y-113592266D01*
X130500955Y-113612031D01*
X130494928Y-113614714D01*
X130494920Y-113614717D01*
X130479248Y-113621695D01*
X130408881Y-113631129D01*
X130344584Y-113601022D01*
X130306771Y-113540933D01*
X130302000Y-113506588D01*
X130302000Y-112769773D01*
X138047350Y-112769773D01*
X138048514Y-112778675D01*
X138048514Y-112778678D01*
X138064924Y-112904164D01*
X138066088Y-112913065D01*
X138124289Y-113045339D01*
X138217276Y-113155960D01*
X138224747Y-113160933D01*
X138224748Y-113160934D01*
X138330101Y-113231063D01*
X138330103Y-113231064D01*
X138337574Y-113236037D01*
X138346138Y-113238713D01*
X138346141Y-113238714D01*
X138406542Y-113257585D01*
X138475510Y-113279132D01*
X138619998Y-113281780D01*
X138639530Y-113276455D01*
X138750763Y-113246130D01*
X138750765Y-113246129D01*
X138759422Y-113243769D01*
X138882572Y-113168154D01*
X138979551Y-113061014D01*
X139042560Y-112930962D01*
X139066536Y-112788453D01*
X139066688Y-112776000D01*
X139046201Y-112632948D01*
X138986388Y-112501395D01*
X138980530Y-112494596D01*
X138980527Y-112494592D01*
X138897916Y-112398718D01*
X138897913Y-112398716D01*
X138892056Y-112391918D01*
X138770790Y-112313317D01*
X138753921Y-112308272D01*
X138640938Y-112274482D01*
X138640936Y-112274482D01*
X138632337Y-112271910D01*
X138623363Y-112271855D01*
X138623361Y-112271855D01*
X138560082Y-112271469D01*
X138487827Y-112271028D01*
X138479196Y-112273495D01*
X138479194Y-112273495D01*
X138357509Y-112308272D01*
X138357505Y-112308274D01*
X138348879Y-112310739D01*
X138341292Y-112315526D01*
X138341290Y-112315527D01*
X138290521Y-112347560D01*
X138226661Y-112387853D01*
X138130999Y-112496170D01*
X138069583Y-112626982D01*
X138047350Y-112769773D01*
X130302000Y-112769773D01*
X130302000Y-111961373D01*
X151627550Y-111961373D01*
X151628714Y-111970275D01*
X151628714Y-111970278D01*
X151645124Y-112095764D01*
X151646288Y-112104665D01*
X151704489Y-112236939D01*
X151797476Y-112347560D01*
X151804947Y-112352533D01*
X151804948Y-112352534D01*
X151910301Y-112422663D01*
X151910303Y-112422664D01*
X151917774Y-112427637D01*
X151926338Y-112430313D01*
X151926341Y-112430314D01*
X151986742Y-112449185D01*
X152055710Y-112470732D01*
X152200198Y-112473380D01*
X152219730Y-112468055D01*
X152330963Y-112437730D01*
X152330965Y-112437729D01*
X152339622Y-112435369D01*
X152462772Y-112359754D01*
X152559751Y-112252614D01*
X152622760Y-112122562D01*
X152646736Y-111980053D01*
X152646888Y-111967600D01*
X152626401Y-111824548D01*
X152566588Y-111692995D01*
X152560730Y-111686196D01*
X152560727Y-111686192D01*
X152478116Y-111590318D01*
X152478113Y-111590316D01*
X152472256Y-111583518D01*
X152350990Y-111504917D01*
X152334121Y-111499872D01*
X152221138Y-111466082D01*
X152221136Y-111466082D01*
X152212537Y-111463510D01*
X152203563Y-111463455D01*
X152203561Y-111463455D01*
X152140282Y-111463069D01*
X152068027Y-111462628D01*
X152059396Y-111465095D01*
X152059394Y-111465095D01*
X151937709Y-111499872D01*
X151937705Y-111499874D01*
X151929079Y-111502339D01*
X151806861Y-111579453D01*
X151711199Y-111687770D01*
X151649783Y-111818582D01*
X151627550Y-111961373D01*
X130302000Y-111961373D01*
X130302000Y-110337473D01*
X155478350Y-110337473D01*
X155479514Y-110346375D01*
X155479514Y-110346378D01*
X155495924Y-110471864D01*
X155497088Y-110480765D01*
X155555289Y-110613039D01*
X155648276Y-110723660D01*
X155655747Y-110728633D01*
X155655748Y-110728634D01*
X155761101Y-110798763D01*
X155761103Y-110798764D01*
X155768574Y-110803737D01*
X155777138Y-110806413D01*
X155777141Y-110806414D01*
X155837542Y-110825284D01*
X155906510Y-110846832D01*
X156050998Y-110849480D01*
X156070530Y-110844155D01*
X156181763Y-110813830D01*
X156181765Y-110813829D01*
X156190422Y-110811469D01*
X156313572Y-110735854D01*
X156410551Y-110628714D01*
X156473560Y-110498662D01*
X156497536Y-110356153D01*
X156497688Y-110343700D01*
X156477201Y-110200648D01*
X156417388Y-110069095D01*
X156411530Y-110062296D01*
X156411527Y-110062292D01*
X156328916Y-109966418D01*
X156328913Y-109966416D01*
X156323056Y-109959618D01*
X156201790Y-109881017D01*
X156184921Y-109875972D01*
X156071938Y-109842182D01*
X156071936Y-109842182D01*
X156063337Y-109839610D01*
X156054363Y-109839555D01*
X156054361Y-109839555D01*
X155991082Y-109839169D01*
X155918827Y-109838728D01*
X155910196Y-109841195D01*
X155910194Y-109841195D01*
X155788509Y-109875972D01*
X155788505Y-109875974D01*
X155779879Y-109878439D01*
X155657661Y-109955553D01*
X155561999Y-110063870D01*
X155500583Y-110194682D01*
X155478350Y-110337473D01*
X130302000Y-110337473D01*
X130302000Y-109086673D01*
X142704450Y-109086673D01*
X142705614Y-109095575D01*
X142705614Y-109095578D01*
X142719910Y-109204901D01*
X142723188Y-109229965D01*
X142781389Y-109362239D01*
X142874376Y-109472860D01*
X142881847Y-109477833D01*
X142881848Y-109477834D01*
X142987201Y-109547963D01*
X142987203Y-109547964D01*
X142994674Y-109552937D01*
X143003238Y-109555613D01*
X143003241Y-109555614D01*
X143063642Y-109574485D01*
X143132610Y-109596032D01*
X143277098Y-109598680D01*
X143297602Y-109593090D01*
X143407863Y-109563030D01*
X143407865Y-109563029D01*
X143416522Y-109560669D01*
X143539672Y-109485054D01*
X143636651Y-109377914D01*
X143699660Y-109247862D01*
X143705395Y-109213773D01*
X147318350Y-109213773D01*
X147319514Y-109222675D01*
X147319514Y-109222678D01*
X147323864Y-109255943D01*
X147337088Y-109357065D01*
X147395289Y-109489339D01*
X147488276Y-109599960D01*
X147495747Y-109604933D01*
X147495748Y-109604934D01*
X147601101Y-109675063D01*
X147601103Y-109675064D01*
X147608574Y-109680037D01*
X147617138Y-109682713D01*
X147617141Y-109682714D01*
X147677542Y-109701584D01*
X147746510Y-109723132D01*
X147890998Y-109725780D01*
X147910530Y-109720455D01*
X148021763Y-109690130D01*
X148021765Y-109690129D01*
X148030422Y-109687769D01*
X148153572Y-109612154D01*
X148165918Y-109598515D01*
X148244526Y-109511670D01*
X148250551Y-109505014D01*
X148313560Y-109374962D01*
X148337536Y-109232453D01*
X148337688Y-109220000D01*
X148317201Y-109076948D01*
X148257388Y-108945395D01*
X148251530Y-108938596D01*
X148251527Y-108938592D01*
X148168916Y-108842718D01*
X148168913Y-108842716D01*
X148163056Y-108835918D01*
X148041790Y-108757317D01*
X148024921Y-108752272D01*
X147911938Y-108718482D01*
X147911936Y-108718482D01*
X147903337Y-108715910D01*
X147894363Y-108715855D01*
X147894361Y-108715855D01*
X147831082Y-108715469D01*
X147758827Y-108715028D01*
X147750196Y-108717495D01*
X147750194Y-108717495D01*
X147628509Y-108752272D01*
X147628505Y-108752274D01*
X147619879Y-108754739D01*
X147497661Y-108831853D01*
X147401999Y-108940170D01*
X147398185Y-108948293D01*
X147398184Y-108948295D01*
X147368524Y-109011469D01*
X147340583Y-109070982D01*
X147339203Y-109079846D01*
X147339202Y-109079849D01*
X147336414Y-109097760D01*
X147318350Y-109213773D01*
X143705395Y-109213773D01*
X143723636Y-109105353D01*
X143723788Y-109092900D01*
X143703301Y-108949848D01*
X143643488Y-108818295D01*
X143637630Y-108811496D01*
X143637627Y-108811492D01*
X143555016Y-108715618D01*
X143555013Y-108715616D01*
X143549156Y-108708818D01*
X143427890Y-108630217D01*
X143411021Y-108625172D01*
X143298038Y-108591382D01*
X143298036Y-108591382D01*
X143289437Y-108588810D01*
X143280463Y-108588755D01*
X143280461Y-108588755D01*
X143217182Y-108588369D01*
X143144927Y-108587928D01*
X143136296Y-108590395D01*
X143136294Y-108590395D01*
X143014609Y-108625172D01*
X143014605Y-108625174D01*
X143005979Y-108627639D01*
X142883761Y-108704753D01*
X142877818Y-108711482D01*
X142877817Y-108711483D01*
X142871636Y-108718482D01*
X142788099Y-108813070D01*
X142784285Y-108821193D01*
X142784284Y-108821195D01*
X142774179Y-108842718D01*
X142726683Y-108943882D01*
X142725303Y-108952746D01*
X142725302Y-108952749D01*
X142725175Y-108953569D01*
X142704450Y-109086673D01*
X130302000Y-109086673D01*
X130302000Y-106406773D01*
X141692850Y-106406773D01*
X141694014Y-106415675D01*
X141694014Y-106415678D01*
X141698162Y-106447395D01*
X141711588Y-106550065D01*
X141769789Y-106682339D01*
X141862776Y-106792960D01*
X141870247Y-106797933D01*
X141870248Y-106797934D01*
X141975601Y-106868063D01*
X141975603Y-106868064D01*
X141983074Y-106873037D01*
X141991638Y-106875713D01*
X141991641Y-106875714D01*
X142052042Y-106894584D01*
X142121010Y-106916132D01*
X142265498Y-106918780D01*
X142285030Y-106913455D01*
X142396263Y-106883130D01*
X142396265Y-106883129D01*
X142404922Y-106880769D01*
X142528072Y-106805154D01*
X142539292Y-106792759D01*
X142619026Y-106704670D01*
X142625051Y-106698014D01*
X142633307Y-106680973D01*
X149135550Y-106680973D01*
X149136714Y-106689875D01*
X149136714Y-106689878D01*
X149149296Y-106786090D01*
X149154288Y-106824265D01*
X149212489Y-106956539D01*
X149305476Y-107067160D01*
X149312947Y-107072133D01*
X149312948Y-107072134D01*
X149418301Y-107142263D01*
X149418303Y-107142264D01*
X149425774Y-107147237D01*
X149434338Y-107149913D01*
X149434341Y-107149914D01*
X149494742Y-107168784D01*
X149563710Y-107190332D01*
X149708198Y-107192980D01*
X149727730Y-107187655D01*
X149838963Y-107157330D01*
X149838965Y-107157329D01*
X149847622Y-107154969D01*
X149970772Y-107079354D01*
X150067751Y-106972214D01*
X150081579Y-106943673D01*
X151832150Y-106943673D01*
X151833314Y-106952575D01*
X151833314Y-106952578D01*
X151847400Y-107060290D01*
X151850888Y-107086965D01*
X151909089Y-107219239D01*
X152002076Y-107329860D01*
X152009547Y-107334833D01*
X152009548Y-107334834D01*
X152114901Y-107404963D01*
X152114903Y-107404964D01*
X152122374Y-107409937D01*
X152130938Y-107412613D01*
X152130941Y-107412614D01*
X152191342Y-107431485D01*
X152260310Y-107453032D01*
X152404798Y-107455680D01*
X152424330Y-107450355D01*
X152535563Y-107420030D01*
X152535565Y-107420029D01*
X152544222Y-107417669D01*
X152667372Y-107342054D01*
X152764351Y-107234914D01*
X152827360Y-107104862D01*
X152851336Y-106962353D01*
X152851488Y-106949900D01*
X152837216Y-106850243D01*
X152832274Y-106815735D01*
X152832273Y-106815733D01*
X152831001Y-106806848D01*
X152827206Y-106798500D01*
X152784442Y-106704447D01*
X152771188Y-106675295D01*
X152765330Y-106668496D01*
X152765327Y-106668492D01*
X152682716Y-106572618D01*
X152682713Y-106572616D01*
X152676856Y-106565818D01*
X152555590Y-106487217D01*
X152538721Y-106482172D01*
X152425738Y-106448382D01*
X152425736Y-106448382D01*
X152417137Y-106445810D01*
X152408163Y-106445755D01*
X152408161Y-106445755D01*
X152344882Y-106445369D01*
X152272627Y-106444928D01*
X152263996Y-106447395D01*
X152263994Y-106447395D01*
X152142309Y-106482172D01*
X152142305Y-106482174D01*
X152133679Y-106484639D01*
X152126092Y-106489426D01*
X152126090Y-106489427D01*
X152039363Y-106544148D01*
X152011461Y-106561753D01*
X152005518Y-106568482D01*
X152005517Y-106568483D01*
X151934714Y-106648652D01*
X151915799Y-106670070D01*
X151911985Y-106678193D01*
X151911984Y-106678195D01*
X151902679Y-106698014D01*
X151854383Y-106800882D01*
X151853003Y-106809746D01*
X151853002Y-106809749D01*
X151836052Y-106918615D01*
X151832150Y-106943673D01*
X150081579Y-106943673D01*
X150112055Y-106880769D01*
X150126845Y-106850243D01*
X150126845Y-106850242D01*
X150130760Y-106842162D01*
X150154736Y-106699653D01*
X150154888Y-106687200D01*
X150137886Y-106568483D01*
X150135674Y-106553035D01*
X150135673Y-106553033D01*
X150134401Y-106544148D01*
X150074588Y-106412595D01*
X150068730Y-106405796D01*
X150068727Y-106405792D01*
X149986116Y-106309918D01*
X149986113Y-106309916D01*
X149980256Y-106303118D01*
X149899905Y-106251037D01*
X149866524Y-106229400D01*
X149866522Y-106229399D01*
X149858990Y-106224517D01*
X149842121Y-106219472D01*
X149729138Y-106185682D01*
X149729136Y-106185682D01*
X149720537Y-106183110D01*
X149711563Y-106183055D01*
X149711561Y-106183055D01*
X149648282Y-106182669D01*
X149576027Y-106182228D01*
X149567396Y-106184695D01*
X149567394Y-106184695D01*
X149445709Y-106219472D01*
X149445705Y-106219474D01*
X149437079Y-106221939D01*
X149429492Y-106226726D01*
X149429490Y-106226727D01*
X149340403Y-106282937D01*
X149314861Y-106299053D01*
X149219199Y-106407370D01*
X149215385Y-106415493D01*
X149215384Y-106415495D01*
X149201540Y-106444983D01*
X149157783Y-106538182D01*
X149156403Y-106547046D01*
X149156402Y-106547049D01*
X149137248Y-106670070D01*
X149135550Y-106680973D01*
X142633307Y-106680973D01*
X142688060Y-106567962D01*
X142712036Y-106425453D01*
X142712188Y-106413000D01*
X142699774Y-106326318D01*
X142692974Y-106278835D01*
X142692973Y-106278833D01*
X142691701Y-106269948D01*
X142631888Y-106138395D01*
X142626030Y-106131596D01*
X142626027Y-106131592D01*
X142543416Y-106035718D01*
X142543413Y-106035716D01*
X142537556Y-106028918D01*
X142416290Y-105950317D01*
X142372130Y-105937110D01*
X142286438Y-105911482D01*
X142286436Y-105911482D01*
X142277837Y-105908910D01*
X142268863Y-105908855D01*
X142268861Y-105908855D01*
X142205582Y-105908469D01*
X142133327Y-105908028D01*
X142124696Y-105910495D01*
X142124694Y-105910495D01*
X142003009Y-105945272D01*
X142003005Y-105945274D01*
X141994379Y-105947739D01*
X141986792Y-105952526D01*
X141986790Y-105952527D01*
X141946637Y-105977862D01*
X141872161Y-106024853D01*
X141776499Y-106133170D01*
X141772685Y-106141293D01*
X141772684Y-106141295D01*
X141752308Y-106184695D01*
X141715083Y-106263982D01*
X141713703Y-106272846D01*
X141713702Y-106272849D01*
X141705422Y-106326032D01*
X141692850Y-106406773D01*
X130302000Y-106406773D01*
X130302000Y-105816673D01*
X134586350Y-105816673D01*
X134587514Y-105825575D01*
X134587514Y-105825578D01*
X134601991Y-105936280D01*
X134605088Y-105959965D01*
X134663289Y-106092239D01*
X134756276Y-106202860D01*
X134763747Y-106207833D01*
X134763748Y-106207834D01*
X134869101Y-106277963D01*
X134869103Y-106277964D01*
X134876574Y-106282937D01*
X134885138Y-106285613D01*
X134885141Y-106285614D01*
X134928157Y-106299053D01*
X135014510Y-106326032D01*
X135158998Y-106328680D01*
X135178530Y-106323355D01*
X135289763Y-106293030D01*
X135289765Y-106293029D01*
X135298422Y-106290669D01*
X135421572Y-106215054D01*
X135518551Y-106107914D01*
X135559190Y-106024035D01*
X135577645Y-105985943D01*
X135577645Y-105985942D01*
X135581560Y-105977862D01*
X135605536Y-105835353D01*
X135605688Y-105822900D01*
X135585201Y-105679848D01*
X135528052Y-105554154D01*
X135518066Y-105483864D01*
X135547666Y-105419333D01*
X135576825Y-105394629D01*
X135619621Y-105368352D01*
X135619622Y-105368351D01*
X135627272Y-105363654D01*
X135724251Y-105256514D01*
X135760026Y-105182673D01*
X138306150Y-105182673D01*
X138307314Y-105191575D01*
X138307314Y-105191578D01*
X138315806Y-105256514D01*
X138324888Y-105325965D01*
X138383089Y-105458239D01*
X138476076Y-105568860D01*
X138483547Y-105573833D01*
X138483548Y-105573834D01*
X138588901Y-105643963D01*
X138588903Y-105643964D01*
X138596374Y-105648937D01*
X138604938Y-105651613D01*
X138604943Y-105651615D01*
X138722989Y-105688495D01*
X138782046Y-105727901D01*
X138810350Y-105792424D01*
X138828088Y-105928065D01*
X138886289Y-106060339D01*
X138892063Y-106067208D01*
X138941855Y-106126442D01*
X138979276Y-106170960D01*
X138986747Y-106175933D01*
X138986748Y-106175934D01*
X139092101Y-106246063D01*
X139092103Y-106246064D01*
X139099574Y-106251037D01*
X139108138Y-106253713D01*
X139108141Y-106253714D01*
X139160103Y-106269948D01*
X139237510Y-106294132D01*
X139381998Y-106296780D01*
X139422955Y-106285614D01*
X139512763Y-106261130D01*
X139512765Y-106261129D01*
X139521422Y-106258769D01*
X139644572Y-106183154D01*
X139741551Y-106076014D01*
X139789105Y-105977862D01*
X139800645Y-105954043D01*
X139800645Y-105954042D01*
X139804560Y-105945962D01*
X139828536Y-105803453D01*
X139828688Y-105791000D01*
X139814749Y-105693667D01*
X139809474Y-105656835D01*
X139809473Y-105656833D01*
X139808201Y-105647948D01*
X139748388Y-105516395D01*
X139742530Y-105509596D01*
X139742527Y-105509592D01*
X139659916Y-105413718D01*
X139659913Y-105413716D01*
X139654056Y-105406918D01*
X139587308Y-105363654D01*
X139540324Y-105333200D01*
X139540322Y-105333199D01*
X139532790Y-105328317D01*
X139505211Y-105320069D01*
X139414183Y-105292845D01*
X139354650Y-105254163D01*
X139325481Y-105189438D01*
X139325488Y-105188900D01*
X139324597Y-105182673D01*
X139306274Y-105054735D01*
X139306273Y-105054733D01*
X139305001Y-105045848D01*
X139245188Y-104914295D01*
X139239330Y-104907496D01*
X139239327Y-104907492D01*
X139186405Y-104846073D01*
X143079250Y-104846073D01*
X143080414Y-104854975D01*
X143080414Y-104854978D01*
X143095022Y-104966684D01*
X143097988Y-104989365D01*
X143156189Y-105121639D01*
X143249176Y-105232260D01*
X143256647Y-105237233D01*
X143256648Y-105237234D01*
X143362001Y-105307363D01*
X143362003Y-105307364D01*
X143369474Y-105312337D01*
X143378038Y-105315013D01*
X143378041Y-105315014D01*
X143436251Y-105333200D01*
X143507410Y-105355432D01*
X143651898Y-105358080D01*
X143671430Y-105352755D01*
X143782663Y-105322430D01*
X143782665Y-105322429D01*
X143791322Y-105320069D01*
X143914472Y-105244454D01*
X144011451Y-105137314D01*
X144054360Y-105048749D01*
X144070545Y-105015343D01*
X144070545Y-105015342D01*
X144074460Y-105007262D01*
X144098436Y-104864753D01*
X144098588Y-104852300D01*
X144078101Y-104709248D01*
X144072485Y-104696895D01*
X144023920Y-104590083D01*
X144018288Y-104577695D01*
X144012430Y-104570896D01*
X144012427Y-104570892D01*
X143929816Y-104475018D01*
X143929813Y-104475016D01*
X143923956Y-104468218D01*
X143802690Y-104389617D01*
X143765903Y-104378615D01*
X143672838Y-104350782D01*
X143672836Y-104350782D01*
X143664237Y-104348210D01*
X143655263Y-104348155D01*
X143655261Y-104348155D01*
X143591982Y-104347769D01*
X143519727Y-104347328D01*
X143511096Y-104349795D01*
X143511094Y-104349795D01*
X143389409Y-104384572D01*
X143389405Y-104384574D01*
X143380779Y-104387039D01*
X143258561Y-104464153D01*
X143162899Y-104572470D01*
X143159085Y-104580593D01*
X143159084Y-104580595D01*
X143152688Y-104594218D01*
X143101483Y-104703282D01*
X143100103Y-104712146D01*
X143100102Y-104712149D01*
X143081543Y-104831349D01*
X143079250Y-104846073D01*
X139186405Y-104846073D01*
X139156716Y-104811618D01*
X139156713Y-104811616D01*
X139150856Y-104804818D01*
X139029590Y-104726217D01*
X138972851Y-104709248D01*
X138899738Y-104687382D01*
X138899736Y-104687382D01*
X138891137Y-104684810D01*
X138882163Y-104684755D01*
X138882161Y-104684755D01*
X138818882Y-104684369D01*
X138746627Y-104683928D01*
X138737996Y-104686395D01*
X138737994Y-104686395D01*
X138616309Y-104721172D01*
X138616305Y-104721174D01*
X138607679Y-104723639D01*
X138485461Y-104800753D01*
X138479518Y-104807482D01*
X138479517Y-104807483D01*
X138428938Y-104864753D01*
X138389799Y-104909070D01*
X138328383Y-105039882D01*
X138327003Y-105048746D01*
X138327002Y-105048749D01*
X138313213Y-105137314D01*
X138306150Y-105182673D01*
X135760026Y-105182673D01*
X135787260Y-105126462D01*
X135811236Y-104983953D01*
X135811388Y-104971500D01*
X135796787Y-104869547D01*
X135792174Y-104837335D01*
X135792173Y-104837333D01*
X135790901Y-104828448D01*
X135731088Y-104696895D01*
X135725230Y-104690096D01*
X135725227Y-104690092D01*
X135642616Y-104594218D01*
X135642613Y-104594216D01*
X135636756Y-104587418D01*
X135515490Y-104508817D01*
X135498621Y-104503772D01*
X135385638Y-104469982D01*
X135385636Y-104469982D01*
X135377037Y-104467410D01*
X135368063Y-104467355D01*
X135368061Y-104467355D01*
X135304782Y-104466969D01*
X135232527Y-104466528D01*
X135223896Y-104468995D01*
X135223894Y-104468995D01*
X135102209Y-104503772D01*
X135102205Y-104503774D01*
X135093579Y-104506239D01*
X135085992Y-104511026D01*
X135085990Y-104511027D01*
X134991110Y-104570892D01*
X134971361Y-104583353D01*
X134875699Y-104691670D01*
X134871885Y-104699793D01*
X134871884Y-104699795D01*
X134857187Y-104731100D01*
X134814283Y-104822482D01*
X134812903Y-104831346D01*
X134812902Y-104831349D01*
X134798715Y-104922469D01*
X134792050Y-104965273D01*
X134793214Y-104974175D01*
X134793214Y-104974178D01*
X134802966Y-105048749D01*
X134810788Y-105108565D01*
X134839492Y-105173801D01*
X134868989Y-105240839D01*
X134865850Y-105242220D01*
X134880431Y-105294657D01*
X134859451Y-105362483D01*
X134821680Y-105399406D01*
X134773258Y-105429958D01*
X134773251Y-105429964D01*
X134765661Y-105434753D01*
X134669999Y-105543070D01*
X134666185Y-105551193D01*
X134666184Y-105551195D01*
X134655555Y-105573834D01*
X134608583Y-105673882D01*
X134607203Y-105682746D01*
X134607202Y-105682749D01*
X134589591Y-105795860D01*
X134586350Y-105816673D01*
X130302000Y-105816673D01*
X130302000Y-103625773D01*
X138809350Y-103625773D01*
X138810514Y-103634675D01*
X138810514Y-103634678D01*
X138822973Y-103729948D01*
X138828088Y-103769065D01*
X138886289Y-103901339D01*
X138979276Y-104011960D01*
X138986747Y-104016933D01*
X138986748Y-104016934D01*
X139092101Y-104087063D01*
X139092103Y-104087064D01*
X139099574Y-104092037D01*
X139108138Y-104094713D01*
X139108141Y-104094714D01*
X139168542Y-104113584D01*
X139237510Y-104135132D01*
X139381998Y-104137780D01*
X139401530Y-104132455D01*
X139512763Y-104102130D01*
X139512765Y-104102129D01*
X139521422Y-104099769D01*
X139644572Y-104024154D01*
X139741551Y-103917014D01*
X139765892Y-103866773D01*
X155827350Y-103866773D01*
X155828514Y-103875675D01*
X155828514Y-103875678D01*
X155830796Y-103893125D01*
X155846088Y-104010065D01*
X155904289Y-104142339D01*
X155997276Y-104252960D01*
X156004747Y-104257933D01*
X156004748Y-104257934D01*
X156110101Y-104328063D01*
X156110103Y-104328064D01*
X156117574Y-104333037D01*
X156126138Y-104335713D01*
X156126141Y-104335714D01*
X156171212Y-104349795D01*
X156255510Y-104376132D01*
X156399998Y-104378780D01*
X156419530Y-104373455D01*
X156530763Y-104343130D01*
X156530765Y-104343129D01*
X156539422Y-104340769D01*
X156662572Y-104265154D01*
X156759551Y-104158014D01*
X156822560Y-104027962D01*
X156846536Y-103885453D01*
X156846688Y-103873000D01*
X156836347Y-103800796D01*
X156827474Y-103738835D01*
X156827473Y-103738833D01*
X156826201Y-103729948D01*
X156766388Y-103598395D01*
X156760530Y-103591596D01*
X156760527Y-103591592D01*
X156677916Y-103495718D01*
X156677913Y-103495716D01*
X156672056Y-103488918D01*
X156550790Y-103410317D01*
X156533921Y-103405272D01*
X156420938Y-103371482D01*
X156420936Y-103371482D01*
X156412337Y-103368910D01*
X156403363Y-103368855D01*
X156403361Y-103368855D01*
X156340082Y-103368469D01*
X156267827Y-103368028D01*
X156259196Y-103370495D01*
X156259194Y-103370495D01*
X156137509Y-103405272D01*
X156137505Y-103405274D01*
X156128879Y-103407739D01*
X156006661Y-103484853D01*
X156000718Y-103491582D01*
X156000717Y-103491583D01*
X155929914Y-103571752D01*
X155910999Y-103593170D01*
X155907185Y-103601293D01*
X155907184Y-103601295D01*
X155889203Y-103639593D01*
X155849583Y-103723982D01*
X155848203Y-103732846D01*
X155848202Y-103732849D01*
X155838519Y-103795043D01*
X155827350Y-103866773D01*
X139765892Y-103866773D01*
X139804560Y-103786962D01*
X139828536Y-103644453D01*
X139828688Y-103632000D01*
X139808201Y-103488948D01*
X139748388Y-103357395D01*
X139742530Y-103350596D01*
X139742527Y-103350592D01*
X139659916Y-103254718D01*
X139659913Y-103254716D01*
X139654056Y-103247918D01*
X139532790Y-103169317D01*
X139515921Y-103164272D01*
X139402938Y-103130482D01*
X139402936Y-103130482D01*
X139394337Y-103127910D01*
X139385363Y-103127855D01*
X139385361Y-103127855D01*
X139322082Y-103127469D01*
X139249827Y-103127028D01*
X139241196Y-103129495D01*
X139241194Y-103129495D01*
X139119509Y-103164272D01*
X139119505Y-103164274D01*
X139110879Y-103166739D01*
X138988661Y-103243853D01*
X138892999Y-103352170D01*
X138889185Y-103360293D01*
X138889184Y-103360295D01*
X138859524Y-103423469D01*
X138831583Y-103482982D01*
X138830203Y-103491846D01*
X138830202Y-103491849D01*
X138813613Y-103598395D01*
X138809350Y-103625773D01*
X130302000Y-103625773D01*
X130302000Y-100958773D01*
X138555350Y-100958773D01*
X138556514Y-100967675D01*
X138556514Y-100967678D01*
X138572924Y-101093164D01*
X138574088Y-101102065D01*
X138632289Y-101234339D01*
X138725276Y-101344960D01*
X138732747Y-101349933D01*
X138732748Y-101349934D01*
X138838101Y-101420063D01*
X138838103Y-101420064D01*
X138845574Y-101425037D01*
X138854138Y-101427713D01*
X138854141Y-101427714D01*
X138914542Y-101446584D01*
X138983510Y-101468132D01*
X139127998Y-101470780D01*
X139147530Y-101465455D01*
X139258763Y-101435130D01*
X139258765Y-101435129D01*
X139267422Y-101432769D01*
X139390572Y-101357154D01*
X139487551Y-101250014D01*
X139550560Y-101119962D01*
X139574536Y-100977453D01*
X139574688Y-100965000D01*
X139554201Y-100821948D01*
X139537994Y-100786302D01*
X139528008Y-100716011D01*
X139557609Y-100651479D01*
X139617399Y-100613196D01*
X139655003Y-100608172D01*
X139717421Y-100609316D01*
X139717425Y-100609316D01*
X139726398Y-100609480D01*
X139735062Y-100607118D01*
X139857163Y-100573830D01*
X139857165Y-100573829D01*
X139865822Y-100571469D01*
X139988972Y-100495854D01*
X140085951Y-100388714D01*
X140117455Y-100323688D01*
X140145045Y-100266743D01*
X140145045Y-100266742D01*
X140148960Y-100258662D01*
X140172936Y-100116153D01*
X140173088Y-100103700D01*
X140152601Y-99960648D01*
X140092788Y-99829095D01*
X140086930Y-99822296D01*
X140086927Y-99822292D01*
X140004316Y-99726418D01*
X140004313Y-99726416D01*
X139998456Y-99719618D01*
X139877190Y-99641017D01*
X139860321Y-99635972D01*
X139747338Y-99602182D01*
X139747336Y-99602182D01*
X139738737Y-99599610D01*
X139729763Y-99599555D01*
X139729761Y-99599555D01*
X139666482Y-99599169D01*
X139594227Y-99598728D01*
X139585596Y-99601195D01*
X139585594Y-99601195D01*
X139463909Y-99635972D01*
X139463905Y-99635974D01*
X139455279Y-99638439D01*
X139333061Y-99715553D01*
X139237399Y-99823870D01*
X139175983Y-99954682D01*
X139174603Y-99963546D01*
X139174602Y-99963549D01*
X139166944Y-100012736D01*
X139153750Y-100097473D01*
X139154914Y-100106375D01*
X139154914Y-100106378D01*
X139162760Y-100166374D01*
X139172488Y-100240765D01*
X139176103Y-100248980D01*
X139191410Y-100283770D01*
X139200536Y-100354178D01*
X139170149Y-100418343D01*
X139109895Y-100455893D01*
X139075311Y-100460513D01*
X139049949Y-100460358D01*
X138995827Y-100460028D01*
X138987196Y-100462495D01*
X138987194Y-100462495D01*
X138865509Y-100497272D01*
X138865505Y-100497274D01*
X138856879Y-100499739D01*
X138849292Y-100504526D01*
X138849290Y-100504527D01*
X138750637Y-100566773D01*
X138734661Y-100576853D01*
X138728718Y-100583582D01*
X138728717Y-100583583D01*
X138708135Y-100606888D01*
X138638999Y-100685170D01*
X138577583Y-100815982D01*
X138555350Y-100958773D01*
X130302000Y-100958773D01*
X130302000Y-99494574D01*
X130322002Y-99426453D01*
X130375658Y-99379960D01*
X130445932Y-99369856D01*
X130510512Y-99399350D01*
X130536620Y-99430717D01*
X130551552Y-99456117D01*
X130553853Y-99459132D01*
X130749548Y-99715553D01*
X130753046Y-99720137D01*
X130755694Y-99722856D01*
X130755699Y-99722861D01*
X130979381Y-99952477D01*
X130984798Y-99958038D01*
X130987742Y-99960409D01*
X130987745Y-99960412D01*
X131058810Y-100017652D01*
X131243453Y-100166374D01*
X131246681Y-100168387D01*
X131431692Y-100283770D01*
X131525264Y-100342127D01*
X131826147Y-100482751D01*
X131877969Y-100499739D01*
X132125606Y-100580918D01*
X132141746Y-100586209D01*
X132467488Y-100651003D01*
X132471261Y-100651290D01*
X132471268Y-100651291D01*
X132794878Y-100675908D01*
X132794883Y-100675908D01*
X132798655Y-100676195D01*
X133130450Y-100661418D01*
X133458067Y-100606888D01*
X133461701Y-100605822D01*
X133461705Y-100605821D01*
X133605154Y-100563737D01*
X133776759Y-100513393D01*
X133797396Y-100504527D01*
X134051467Y-100395370D01*
X134081912Y-100382290D01*
X134369103Y-100215475D01*
X134634175Y-100015367D01*
X134873286Y-99784863D01*
X134923764Y-99722861D01*
X135080582Y-99530239D01*
X135080583Y-99530238D01*
X135082973Y-99527302D01*
X135103623Y-99494574D01*
X135258176Y-99249623D01*
X135258179Y-99249617D01*
X135260199Y-99246416D01*
X135402397Y-98946273D01*
X135507506Y-98631220D01*
X135539110Y-98476573D01*
X138740983Y-98476573D01*
X138742147Y-98485475D01*
X138742147Y-98485478D01*
X138749721Y-98543397D01*
X138759721Y-98619865D01*
X138817922Y-98752139D01*
X138910909Y-98862760D01*
X138918380Y-98867733D01*
X138918381Y-98867734D01*
X139023734Y-98937863D01*
X139023736Y-98937864D01*
X139031207Y-98942837D01*
X139039771Y-98945513D01*
X139039774Y-98945514D01*
X139100175Y-98964384D01*
X139169143Y-98985932D01*
X139313631Y-98988580D01*
X139333163Y-98983255D01*
X139444396Y-98952930D01*
X139444398Y-98952929D01*
X139453055Y-98950569D01*
X139576205Y-98874954D01*
X139673184Y-98767814D01*
X139736193Y-98637762D01*
X139760169Y-98495253D01*
X139760321Y-98482800D01*
X139739834Y-98339748D01*
X139680021Y-98208195D01*
X139674163Y-98201396D01*
X139674160Y-98201392D01*
X139591549Y-98105518D01*
X139591546Y-98105516D01*
X139585689Y-98098718D01*
X139464423Y-98020117D01*
X139447554Y-98015072D01*
X139334571Y-97981282D01*
X139334569Y-97981282D01*
X139325970Y-97978710D01*
X139316996Y-97978655D01*
X139316994Y-97978655D01*
X139253715Y-97978269D01*
X139181460Y-97977828D01*
X139172829Y-97980295D01*
X139172827Y-97980295D01*
X139051142Y-98015072D01*
X139051138Y-98015074D01*
X139042512Y-98017539D01*
X138920294Y-98094653D01*
X138824632Y-98202970D01*
X138763216Y-98333782D01*
X138740983Y-98476573D01*
X135539110Y-98476573D01*
X135574005Y-98305822D01*
X135600930Y-97974791D01*
X135601535Y-97917000D01*
X135581549Y-97585478D01*
X135580869Y-97581754D01*
X135522559Y-97262481D01*
X135522558Y-97262477D01*
X135521879Y-97258759D01*
X135423391Y-96941574D01*
X135287510Y-96638518D01*
X135116205Y-96353982D01*
X135113878Y-96350998D01*
X135113873Y-96350991D01*
X134943689Y-96132773D01*
X136523350Y-96132773D01*
X136524514Y-96141675D01*
X136524514Y-96141678D01*
X136527068Y-96161208D01*
X136542088Y-96276065D01*
X136600289Y-96408339D01*
X136693276Y-96518960D01*
X136700747Y-96523933D01*
X136700748Y-96523934D01*
X136806101Y-96594063D01*
X136806103Y-96594064D01*
X136813574Y-96599037D01*
X136822138Y-96601713D01*
X136822141Y-96601714D01*
X136862881Y-96614442D01*
X136951510Y-96642132D01*
X137095998Y-96644780D01*
X137118967Y-96638518D01*
X137226763Y-96609130D01*
X137226765Y-96609129D01*
X137235422Y-96606769D01*
X137358572Y-96531154D01*
X137455551Y-96424014D01*
X137494475Y-96343674D01*
X137514645Y-96302043D01*
X137514645Y-96302042D01*
X137518560Y-96293962D01*
X137542536Y-96151453D01*
X137542688Y-96139000D01*
X137529662Y-96048043D01*
X137523474Y-96004835D01*
X137523473Y-96004833D01*
X137522201Y-95995948D01*
X137462388Y-95864395D01*
X137456530Y-95857596D01*
X137456527Y-95857592D01*
X137373916Y-95761718D01*
X137373913Y-95761716D01*
X137368056Y-95754918D01*
X137246790Y-95676317D01*
X137229921Y-95671272D01*
X137116938Y-95637482D01*
X137116936Y-95637482D01*
X137108337Y-95634910D01*
X137099363Y-95634855D01*
X137099361Y-95634855D01*
X137036082Y-95634469D01*
X136963827Y-95634028D01*
X136955196Y-95636495D01*
X136955194Y-95636495D01*
X136833509Y-95671272D01*
X136833505Y-95671274D01*
X136824879Y-95673739D01*
X136817292Y-95678526D01*
X136817290Y-95678527D01*
X136710254Y-95746062D01*
X136702661Y-95750853D01*
X136606999Y-95859170D01*
X136603185Y-95867293D01*
X136603184Y-95867295D01*
X136592590Y-95889860D01*
X136545583Y-95989982D01*
X136544203Y-95998846D01*
X136544202Y-95998849D01*
X136529219Y-96095082D01*
X136523350Y-96132773D01*
X134943689Y-96132773D01*
X134914294Y-96095082D01*
X134914292Y-96095079D01*
X134911958Y-96092087D01*
X134677726Y-95856626D01*
X134656865Y-95840180D01*
X134419885Y-95653360D01*
X134416904Y-95651010D01*
X134363653Y-95618569D01*
X134142112Y-95483605D01*
X134094343Y-95431082D01*
X134082553Y-95361071D01*
X134110485Y-95295800D01*
X134169271Y-95255992D01*
X134207665Y-95250000D01*
X148977075Y-95250000D01*
X149045196Y-95270002D01*
G37*
%TD.AperFunction*%
%TD*%
%TA.AperFunction,Conductor*%
%TO.N,/VBUS*%
G36*
X143325121Y-120289002D02*
G01*
X143371614Y-120342658D01*
X143383000Y-120395000D01*
X143383000Y-122174000D01*
X146813000Y-122174000D01*
X146881121Y-122194002D01*
X146927614Y-122247658D01*
X146939000Y-122300000D01*
X146939000Y-126365000D01*
X155197446Y-126365000D01*
X155265567Y-126385002D01*
X155312060Y-126438658D01*
X155323422Y-126488530D01*
X155401918Y-130491780D01*
X155403821Y-130588854D01*
X155385158Y-130657354D01*
X155332424Y-130704889D01*
X155262362Y-130716369D01*
X155197215Y-130688148D01*
X155175909Y-130665385D01*
X155152254Y-130632827D01*
X155147594Y-130626413D01*
X155102193Y-130588854D01*
X155031932Y-130530729D01*
X155031928Y-130530726D01*
X155025823Y-130525676D01*
X154882826Y-130458386D01*
X154875043Y-130456901D01*
X154875042Y-130456901D01*
X154735374Y-130430258D01*
X154735372Y-130430258D01*
X154727588Y-130428773D01*
X154569862Y-130438696D01*
X154562318Y-130441147D01*
X154562319Y-130441147D01*
X154427095Y-130485084D01*
X154427092Y-130485085D01*
X154419559Y-130487533D01*
X154286123Y-130572214D01*
X154177938Y-130687418D01*
X154101803Y-130825908D01*
X154062500Y-130978981D01*
X154062500Y-131889786D01*
X154042498Y-131957907D01*
X153988842Y-132004400D01*
X153918568Y-132014504D01*
X153853988Y-131985010D01*
X153820749Y-131931910D01*
X153818687Y-131932764D01*
X153763858Y-131800397D01*
X153760698Y-131792767D01*
X153668451Y-131672549D01*
X153548233Y-131580302D01*
X153408236Y-131522313D01*
X153295720Y-131507500D01*
X153220280Y-131507500D01*
X153107764Y-131522313D01*
X152967767Y-131580302D01*
X152847549Y-131672549D01*
X152755302Y-131792767D01*
X152697313Y-131932764D01*
X152677534Y-132083000D01*
X152697313Y-132233236D01*
X152755302Y-132373233D01*
X152847549Y-132493451D01*
X152967767Y-132585698D01*
X152975396Y-132588858D01*
X152975401Y-132588861D01*
X153001308Y-132599592D01*
X153056589Y-132644140D01*
X153079009Y-132711504D01*
X153061450Y-132780295D01*
X153009488Y-132828673D01*
X152953089Y-132842000D01*
X147782911Y-132842000D01*
X147714790Y-132821998D01*
X147668297Y-132768342D01*
X147658193Y-132698068D01*
X147687687Y-132633488D01*
X147734692Y-132599592D01*
X147760599Y-132588861D01*
X147760604Y-132588858D01*
X147768233Y-132585698D01*
X147888451Y-132493451D01*
X147980698Y-132373233D01*
X148038687Y-132233236D01*
X148058466Y-132083000D01*
X148038687Y-131932764D01*
X147980698Y-131792767D01*
X147888451Y-131672549D01*
X147768233Y-131580302D01*
X147628236Y-131522313D01*
X147515720Y-131507500D01*
X147440280Y-131507500D01*
X147327764Y-131522313D01*
X147187767Y-131580302D01*
X147067549Y-131672549D01*
X146975302Y-131792767D01*
X146917313Y-131932764D01*
X146915376Y-131931962D01*
X146884256Y-131983019D01*
X146820396Y-132014041D01*
X146749901Y-132005613D01*
X146695154Y-131960411D01*
X146673500Y-131889786D01*
X146673500Y-131018650D01*
X146658664Y-130901208D01*
X146631892Y-130833589D01*
X146603404Y-130761637D01*
X146603403Y-130761634D01*
X146600486Y-130754268D01*
X146556966Y-130694367D01*
X146512254Y-130632827D01*
X146507594Y-130626413D01*
X146462193Y-130588854D01*
X146391932Y-130530729D01*
X146391928Y-130530726D01*
X146385823Y-130525676D01*
X146242826Y-130458386D01*
X146235043Y-130456901D01*
X146235042Y-130456901D01*
X146095374Y-130430258D01*
X146095372Y-130430258D01*
X146087588Y-130428773D01*
X145929862Y-130438696D01*
X145922318Y-130441147D01*
X145922319Y-130441147D01*
X145787095Y-130485084D01*
X145787092Y-130485085D01*
X145779559Y-130487533D01*
X145646123Y-130572214D01*
X145537938Y-130687418D01*
X145534121Y-130694361D01*
X145534117Y-130694367D01*
X145524414Y-130712016D01*
X145474069Y-130762075D01*
X145404652Y-130776968D01*
X145338203Y-130751967D01*
X145295819Y-130695010D01*
X145288000Y-130651315D01*
X145288000Y-128079873D01*
X147001350Y-128079873D01*
X147002514Y-128088775D01*
X147002514Y-128088778D01*
X147014246Y-128178490D01*
X147020088Y-128223165D01*
X147078289Y-128355439D01*
X147171276Y-128466060D01*
X147178747Y-128471033D01*
X147178748Y-128471034D01*
X147284101Y-128541163D01*
X147284103Y-128541164D01*
X147291574Y-128546137D01*
X147300138Y-128548813D01*
X147300141Y-128548814D01*
X147360542Y-128567684D01*
X147429510Y-128589232D01*
X147573998Y-128591880D01*
X147593530Y-128586555D01*
X147704763Y-128556230D01*
X147704765Y-128556229D01*
X147713422Y-128553869D01*
X147836572Y-128478254D01*
X147933551Y-128371114D01*
X147979861Y-128275530D01*
X147992645Y-128249143D01*
X147992645Y-128249142D01*
X147996560Y-128241062D01*
X148020536Y-128098553D01*
X148020688Y-128086100D01*
X148003838Y-127968443D01*
X148001474Y-127951935D01*
X148001473Y-127951933D01*
X148000201Y-127943048D01*
X147940388Y-127811495D01*
X147934530Y-127804696D01*
X147934527Y-127804692D01*
X147929771Y-127799173D01*
X153160350Y-127799173D01*
X153161514Y-127808075D01*
X153161514Y-127808078D01*
X153170195Y-127874458D01*
X153179088Y-127942465D01*
X153237289Y-128074739D01*
X153330276Y-128185360D01*
X153337747Y-128190333D01*
X153337748Y-128190334D01*
X153443101Y-128260463D01*
X153443103Y-128260464D01*
X153450574Y-128265437D01*
X153459138Y-128268113D01*
X153459141Y-128268114D01*
X153519542Y-128286984D01*
X153588510Y-128308532D01*
X153732998Y-128311180D01*
X153752530Y-128305855D01*
X153863763Y-128275530D01*
X153863765Y-128275529D01*
X153872422Y-128273169D01*
X153995572Y-128197554D01*
X154092551Y-128090414D01*
X154155560Y-127960362D01*
X154179536Y-127817853D01*
X154179688Y-127805400D01*
X154159201Y-127662348D01*
X154099388Y-127530795D01*
X154093530Y-127523996D01*
X154093527Y-127523992D01*
X154010916Y-127428118D01*
X154010913Y-127428116D01*
X154005056Y-127421318D01*
X153944423Y-127382017D01*
X153891324Y-127347600D01*
X153891322Y-127347599D01*
X153883790Y-127342717D01*
X153866921Y-127337672D01*
X153753938Y-127303882D01*
X153753936Y-127303882D01*
X153745337Y-127301310D01*
X153736363Y-127301255D01*
X153736361Y-127301255D01*
X153673082Y-127300869D01*
X153600827Y-127300428D01*
X153592196Y-127302895D01*
X153592194Y-127302895D01*
X153470509Y-127337672D01*
X153470505Y-127337674D01*
X153461879Y-127340139D01*
X153454292Y-127344926D01*
X153454290Y-127344927D01*
X153347254Y-127412462D01*
X153339661Y-127417253D01*
X153243999Y-127525570D01*
X153240185Y-127533693D01*
X153240184Y-127533695D01*
X153216756Y-127583595D01*
X153182583Y-127656382D01*
X153181203Y-127665246D01*
X153181202Y-127665249D01*
X153174419Y-127708818D01*
X153160350Y-127799173D01*
X147929771Y-127799173D01*
X147851916Y-127708818D01*
X147851913Y-127708816D01*
X147846056Y-127702018D01*
X147764969Y-127649460D01*
X147732324Y-127628300D01*
X147732322Y-127628299D01*
X147724790Y-127623417D01*
X147707921Y-127618372D01*
X147594938Y-127584582D01*
X147594936Y-127584582D01*
X147586337Y-127582010D01*
X147577363Y-127581955D01*
X147577361Y-127581955D01*
X147514082Y-127581569D01*
X147441827Y-127581128D01*
X147433196Y-127583595D01*
X147433194Y-127583595D01*
X147311509Y-127618372D01*
X147311505Y-127618374D01*
X147302879Y-127620839D01*
X147295292Y-127625626D01*
X147295290Y-127625627D01*
X147223006Y-127671235D01*
X147180661Y-127697953D01*
X147084999Y-127806270D01*
X147081185Y-127814393D01*
X147081184Y-127814395D01*
X147078708Y-127819669D01*
X147023583Y-127937082D01*
X147022203Y-127945946D01*
X147022202Y-127945949D01*
X147019662Y-127962267D01*
X147001350Y-128079873D01*
X145288000Y-128079873D01*
X145288000Y-123493401D01*
X145308002Y-123425280D01*
X145361658Y-123378787D01*
X145431932Y-123368683D01*
X145496512Y-123398177D01*
X145510451Y-123412325D01*
X145563925Y-123475939D01*
X145583276Y-123498960D01*
X145590747Y-123503933D01*
X145590748Y-123503934D01*
X145696101Y-123574063D01*
X145696103Y-123574064D01*
X145703574Y-123579037D01*
X145712138Y-123581713D01*
X145712141Y-123581714D01*
X145772542Y-123600584D01*
X145841510Y-123622132D01*
X145985998Y-123624780D01*
X146005530Y-123619455D01*
X146116763Y-123589130D01*
X146116765Y-123589129D01*
X146125422Y-123586769D01*
X146248572Y-123511154D01*
X146345551Y-123404014D01*
X146385814Y-123320910D01*
X146404645Y-123282043D01*
X146404645Y-123282042D01*
X146408560Y-123273962D01*
X146432536Y-123131453D01*
X146432688Y-123119000D01*
X146412201Y-122975948D01*
X146352388Y-122844395D01*
X146346530Y-122837596D01*
X146346527Y-122837592D01*
X146263916Y-122741718D01*
X146263913Y-122741716D01*
X146258056Y-122734918D01*
X146136790Y-122656317D01*
X146119921Y-122651272D01*
X146006938Y-122617482D01*
X146006936Y-122617482D01*
X145998337Y-122614910D01*
X145989363Y-122614855D01*
X145989361Y-122614855D01*
X145926082Y-122614469D01*
X145853827Y-122614028D01*
X145845196Y-122616495D01*
X145845194Y-122616495D01*
X145723509Y-122651272D01*
X145723505Y-122651274D01*
X145714879Y-122653739D01*
X145707292Y-122658526D01*
X145707290Y-122658527D01*
X145633505Y-122705082D01*
X145592661Y-122730853D01*
X145586718Y-122737582D01*
X145586717Y-122737583D01*
X145576811Y-122748800D01*
X145496999Y-122839170D01*
X145435583Y-122969982D01*
X145434203Y-122978846D01*
X145434202Y-122978849D01*
X145419631Y-123072435D01*
X145413350Y-123112773D01*
X145414514Y-123121675D01*
X145414514Y-123121679D01*
X145421692Y-123176568D01*
X145410692Y-123246707D01*
X145363517Y-123299764D01*
X145295147Y-123318895D01*
X145288000Y-123318080D01*
X145288000Y-123317000D01*
X141559662Y-123317000D01*
X141491541Y-123296998D01*
X141445048Y-123243342D01*
X141435763Y-123206460D01*
X141434788Y-123206600D01*
X141415574Y-123072435D01*
X141415573Y-123072433D01*
X141414301Y-123063548D01*
X141354488Y-122931995D01*
X141348630Y-122925196D01*
X141348627Y-122925192D01*
X141266016Y-122829318D01*
X141266013Y-122829316D01*
X141260156Y-122822518D01*
X141138890Y-122743917D01*
X141079188Y-122726062D01*
X141009038Y-122705082D01*
X141009036Y-122705082D01*
X141000437Y-122702510D01*
X140991463Y-122702455D01*
X140991461Y-122702455D01*
X140928182Y-122702069D01*
X140855927Y-122701628D01*
X140847296Y-122704095D01*
X140847294Y-122704095D01*
X140725609Y-122738872D01*
X140725605Y-122738874D01*
X140716979Y-122741339D01*
X140709392Y-122746126D01*
X140709390Y-122746127D01*
X140628703Y-122797037D01*
X140594761Y-122818453D01*
X140588818Y-122825182D01*
X140588817Y-122825183D01*
X140564631Y-122852569D01*
X140499099Y-122926770D01*
X140437683Y-123057582D01*
X140415450Y-123200373D01*
X140414461Y-123200219D01*
X140395988Y-123260407D01*
X140341770Y-123306243D01*
X140290828Y-123317000D01*
X138937000Y-123317000D01*
X138868879Y-123296998D01*
X138822386Y-123243342D01*
X138811000Y-123191000D01*
X138811000Y-121030000D01*
X138831002Y-120961879D01*
X138884658Y-120915386D01*
X138937000Y-120904000D01*
X141478000Y-120904000D01*
X141478000Y-120395000D01*
X141498002Y-120326879D01*
X141551658Y-120280386D01*
X141604000Y-120269000D01*
X143257000Y-120269000D01*
X143325121Y-120289002D01*
G37*
%TD.AperFunction*%
%TD*%
%TA.AperFunction,Conductor*%
%TO.N,/VBAT*%
G36*
X138572525Y-123337002D02*
G01*
X138613895Y-123380648D01*
X138630425Y-123409676D01*
X138676918Y-123463332D01*
X138709502Y-123494773D01*
X138797319Y-123540709D01*
X138865440Y-123560711D01*
X138869899Y-123561352D01*
X138869903Y-123561353D01*
X138901220Y-123565856D01*
X138937000Y-123571000D01*
X140290828Y-123571000D01*
X140294080Y-123570660D01*
X140294088Y-123570660D01*
X140340051Y-123565860D01*
X140340053Y-123565860D01*
X140343306Y-123565520D01*
X140394248Y-123554763D01*
X140419042Y-123548204D01*
X140425854Y-123544434D01*
X140433077Y-123541532D01*
X140434283Y-123544533D01*
X140489154Y-123532289D01*
X140555806Y-123556744D01*
X140577287Y-123576938D01*
X140585376Y-123586560D01*
X140592847Y-123591533D01*
X140592848Y-123591534D01*
X140698201Y-123661663D01*
X140698203Y-123661664D01*
X140705674Y-123666637D01*
X140714238Y-123669313D01*
X140714241Y-123669314D01*
X140774642Y-123688184D01*
X140843610Y-123709732D01*
X140988098Y-123712380D01*
X141044512Y-123697000D01*
X141118863Y-123676730D01*
X141118865Y-123676729D01*
X141127522Y-123674369D01*
X141250672Y-123598754D01*
X141257208Y-123591534D01*
X141275871Y-123570915D01*
X141336414Y-123533833D01*
X141407394Y-123535370D01*
X141415022Y-123538115D01*
X141419981Y-123540709D01*
X141488102Y-123560711D01*
X141492561Y-123561352D01*
X141492565Y-123561353D01*
X141523882Y-123565856D01*
X141559662Y-123571000D01*
X144908000Y-123571000D01*
X144976121Y-123591002D01*
X145022614Y-123644658D01*
X145034000Y-123697000D01*
X145034000Y-125223000D01*
X145013998Y-125291121D01*
X144960342Y-125337614D01*
X144908000Y-125349000D01*
X140208000Y-125349000D01*
X140208000Y-127116040D01*
X140187998Y-127184161D01*
X140176442Y-127199446D01*
X140162999Y-127214668D01*
X140101583Y-127345480D01*
X140079350Y-127488271D01*
X140080514Y-127497173D01*
X140080514Y-127497176D01*
X140095616Y-127612658D01*
X140098088Y-127631563D01*
X140156289Y-127763837D01*
X140178451Y-127790202D01*
X140206972Y-127855215D01*
X140208000Y-127871276D01*
X140208000Y-129160000D01*
X140187998Y-129228121D01*
X140134342Y-129274614D01*
X140082000Y-129286000D01*
X138048000Y-129286000D01*
X137979879Y-129265998D01*
X137933386Y-129212342D01*
X137922000Y-129160000D01*
X137922000Y-123443000D01*
X137942002Y-123374879D01*
X137995658Y-123328386D01*
X138048000Y-123317000D01*
X138504404Y-123317000D01*
X138572525Y-123337002D01*
G37*
%TD.AperFunction*%
%TD*%
M02*
