%TF.GenerationSoftware,KiCad,Pcbnew,(6.0.1)*%
%TF.CreationDate,2022-09-11T15:04:47+02:00*%
%TF.ProjectId,trick-tracker,74726963-6b2d-4747-9261-636b65722e6b,rev?*%
%TF.SameCoordinates,Original*%
%TF.FileFunction,Copper,L2,Inr*%
%TF.FilePolarity,Positive*%
%FSLAX46Y46*%
G04 Gerber Fmt 4.6, Leading zero omitted, Abs format (unit mm)*
G04 Created by KiCad (PCBNEW (6.0.1)) date 2022-09-11 15:04:47*
%MOMM*%
%LPD*%
G01*
G04 APERTURE LIST*
%TA.AperFunction,ComponentPad*%
%ADD10O,1.050000X2.100000*%
%TD*%
%TA.AperFunction,ComponentPad*%
%ADD11O,1.000000X2.000000*%
%TD*%
%TA.AperFunction,ComponentPad*%
%ADD12C,0.800000*%
%TD*%
%TA.AperFunction,ComponentPad*%
%ADD13C,5.000000*%
%TD*%
%TA.AperFunction,ComponentPad*%
%ADD14C,1.300000*%
%TD*%
%TA.AperFunction,ViaPad*%
%ADD15C,0.500000*%
%TD*%
%TA.AperFunction,ViaPad*%
%ADD16C,0.800000*%
%TD*%
G04 APERTURE END LIST*
D10*
%TO.N,unconnected-(J1-PadS1)*%
%TO.C,J1*%
X146048000Y-131583000D03*
D11*
%TO.N,unconnected-(J1-PadS2)*%
X146048000Y-135763000D03*
%TO.N,unconnected-(J1-PadS3)*%
X154688000Y-135763000D03*
D10*
%TO.N,unconnected-(J1-PadS4)*%
X154688000Y-131583000D03*
%TD*%
D12*
%TO.N,N/C*%
%TO.C,H1*%
X134717000Y-134239000D03*
X131516175Y-135564825D03*
X131516175Y-132913175D03*
X132842000Y-132364000D03*
X132842000Y-136114000D03*
X134167825Y-132913175D03*
D13*
X132842000Y-134239000D03*
D12*
X134167825Y-135564825D03*
X130967000Y-134239000D03*
%TD*%
%TO.N,N/C*%
%TO.C,H2*%
X156916175Y-135564825D03*
X159567825Y-135564825D03*
X158242000Y-136114000D03*
D13*
X158242000Y-134239000D03*
D12*
X159567825Y-132913175D03*
X158242000Y-132364000D03*
X160117000Y-134239000D03*
X156916175Y-132913175D03*
X156367000Y-134239000D03*
%TD*%
D14*
%TO.N,unconnected-(S3-PadMH1)*%
%TO.C,S3*%
X130782000Y-114477000D03*
%TO.N,unconnected-(S3-PadMH2)*%
X130782000Y-120727000D03*
%TD*%
D12*
%TO.N,N/C*%
%TO.C,H3*%
X132842000Y-99792000D03*
X134167825Y-96591175D03*
X130967000Y-97917000D03*
X134717000Y-97917000D03*
D13*
X132842000Y-97917000D03*
D12*
X132842000Y-96042000D03*
X131516175Y-96591175D03*
X134167825Y-99242825D03*
X131516175Y-99242825D03*
%TD*%
%TO.N,N/C*%
%TO.C,H4*%
X160117000Y-97917000D03*
X159567825Y-99242825D03*
X156367000Y-97917000D03*
X159567825Y-96591175D03*
X158242000Y-99792000D03*
D13*
X158242000Y-97917000D03*
D12*
X158242000Y-96042000D03*
X156916175Y-99242825D03*
X156916175Y-96591175D03*
%TD*%
D15*
%TO.N,+3V3*%
X157224200Y-108581000D03*
X149352000Y-123825000D03*
X152654000Y-123956066D03*
X156083000Y-100584000D03*
X152781000Y-98171000D03*
X151003000Y-123825000D03*
X148717000Y-108873300D03*
X155074992Y-122053603D03*
X148550800Y-121968000D03*
X147098400Y-108666100D03*
X133850500Y-107577000D03*
X142406400Y-107240400D03*
X151892000Y-96012000D03*
X138296600Y-120894500D03*
%TO.N,GND*%
X149159200Y-118815800D03*
X155067000Y-115474300D03*
X153670000Y-127805400D03*
X151091800Y-115904300D03*
X135096000Y-105822900D03*
X155194000Y-119888000D03*
X140925100Y-123206600D03*
X154305000Y-120650000D03*
X140589000Y-127494498D03*
X146134600Y-115914800D03*
X135509000Y-124333000D03*
X130849000Y-123911200D03*
X160235000Y-128876900D03*
X155988000Y-110343700D03*
X156337000Y-103873000D03*
X138176000Y-115255500D03*
X149645200Y-106687200D03*
X147511000Y-128086100D03*
X149352000Y-95885000D03*
X137033000Y-96139000D03*
X143588900Y-104852300D03*
X142202500Y-106413000D03*
X155321000Y-96901000D03*
X159004000Y-115951000D03*
X158877000Y-129032000D03*
X152654000Y-117195600D03*
X160235000Y-126392400D03*
X130849000Y-129159000D03*
X160347100Y-121441200D03*
%TO.N,/VBUS*%
X140893300Y-121107700D03*
X151638000Y-132207000D03*
X151003000Y-132207000D03*
D16*
X149479000Y-127889000D03*
D15*
X149733000Y-132207000D03*
X159588200Y-115510600D03*
X142869245Y-121805622D03*
X149098000Y-132207000D03*
X140258300Y-121107700D03*
X150368000Y-132207000D03*
X141528300Y-121107700D03*
X152781000Y-128080600D03*
%TO.N,/VBAT*%
X140925100Y-123907000D03*
X138303000Y-123163400D03*
%TO.N,/SCL*%
X135301700Y-104971500D03*
%TO.N,/SDA*%
X138815800Y-105188900D03*
%TO.N,/IO0*%
X139319000Y-105791000D03*
X138557000Y-112776000D03*
X139319000Y-103632000D03*
%TO.N,/PRESS_INT*%
X150938900Y-118965000D03*
%TO.N,/BTN*%
X153416000Y-125222000D03*
X151860340Y-123880433D03*
X154305000Y-123956066D03*
%TO.N,/Tx*%
X139663400Y-100103700D03*
%TO.N,/Rx*%
X139065000Y-100965000D03*
%TO.N,/BAT_SENS*%
X152341800Y-106949900D03*
%TO.N,Net-(D4-Pad2)*%
X152137200Y-111967600D03*
%TO.N,/SD_DETECT*%
X146300000Y-119884000D03*
X145923000Y-123119000D03*
%TO.N,/ESP_EN*%
X139250633Y-98482800D03*
X150075556Y-122329268D03*
X136123500Y-120372000D03*
%TO.N,/BMX_INT2*%
X147828000Y-109220000D03*
%TO.N,/BMX_INT1*%
X143214100Y-109092900D03*
%TD*%
%TA.AperFunction,Conductor*%
%TO.N,GND*%
G36*
X156947338Y-95270002D02*
G01*
X156993831Y-95323658D01*
X157003935Y-95393932D01*
X156974441Y-95458512D01*
X156943640Y-95484285D01*
X156697734Y-95630583D01*
X156690911Y-95634642D01*
X156427950Y-95837515D01*
X156425249Y-95840174D01*
X156425242Y-95840180D01*
X156245766Y-96016860D01*
X156191266Y-96070511D01*
X156188902Y-96073478D01*
X156188899Y-96073481D01*
X156107968Y-96175043D01*
X155984287Y-96330253D01*
X155810012Y-96612980D01*
X155670965Y-96914596D01*
X155569161Y-97230732D01*
X155506073Y-97556808D01*
X155505806Y-97560584D01*
X155505805Y-97560589D01*
X155489299Y-97793718D01*
X155482616Y-97888103D01*
X155482805Y-97891895D01*
X155498213Y-98201392D01*
X155499130Y-98219816D01*
X155499771Y-98223547D01*
X155499772Y-98223555D01*
X155547283Y-98500047D01*
X155555375Y-98547142D01*
X155556463Y-98550781D01*
X155556464Y-98550784D01*
X155647711Y-98855890D01*
X155650537Y-98865341D01*
X155652050Y-98868812D01*
X155652052Y-98868818D01*
X155702000Y-98983417D01*
X155783236Y-99169803D01*
X155785159Y-99173074D01*
X155785161Y-99173078D01*
X155949629Y-99452847D01*
X155949633Y-99452853D01*
X155951552Y-99456117D01*
X155953853Y-99459132D01*
X156149548Y-99715553D01*
X156153046Y-99720137D01*
X156306682Y-99877849D01*
X156339887Y-99940599D01*
X156333895Y-100011342D01*
X156290608Y-100067616D01*
X156223769Y-100091554D01*
X156180325Y-100086485D01*
X156166943Y-100082483D01*
X156166938Y-100082482D01*
X156158337Y-100079910D01*
X156149363Y-100079855D01*
X156149361Y-100079855D01*
X156086082Y-100079469D01*
X156013827Y-100079028D01*
X156005196Y-100081495D01*
X156005194Y-100081495D01*
X155883509Y-100116272D01*
X155883505Y-100116274D01*
X155874879Y-100118739D01*
X155752661Y-100195853D01*
X155746718Y-100202582D01*
X155746717Y-100202583D01*
X155712996Y-100240765D01*
X155656999Y-100304170D01*
X155595583Y-100434982D01*
X155594203Y-100443846D01*
X155594202Y-100443849D01*
X155575063Y-100566773D01*
X155573350Y-100577773D01*
X155574514Y-100586675D01*
X155574514Y-100586678D01*
X155590924Y-100712164D01*
X155592088Y-100721065D01*
X155650289Y-100853339D01*
X155743276Y-100963960D01*
X155750747Y-100968933D01*
X155750748Y-100968934D01*
X155856101Y-101039063D01*
X155856103Y-101039064D01*
X155863574Y-101044037D01*
X155872138Y-101046713D01*
X155872141Y-101046714D01*
X155932542Y-101065584D01*
X156001510Y-101087132D01*
X156145998Y-101089780D01*
X156165530Y-101084455D01*
X156276763Y-101054130D01*
X156276765Y-101054129D01*
X156285422Y-101051769D01*
X156408572Y-100976154D01*
X156505551Y-100869014D01*
X156568560Y-100738962D01*
X156592536Y-100596453D01*
X156592688Y-100584000D01*
X156575003Y-100460513D01*
X156573474Y-100449835D01*
X156573473Y-100449833D01*
X156572201Y-100440948D01*
X156542481Y-100375582D01*
X156532495Y-100305291D01*
X156562095Y-100240760D01*
X156621885Y-100202476D01*
X156692882Y-100202594D01*
X156723858Y-100216519D01*
X156831692Y-100283770D01*
X156925264Y-100342127D01*
X157226147Y-100482751D01*
X157277969Y-100499739D01*
X157525606Y-100580918D01*
X157541746Y-100586209D01*
X157545460Y-100586948D01*
X157545461Y-100586948D01*
X157568813Y-100591593D01*
X157867488Y-100651003D01*
X157871261Y-100651290D01*
X157871268Y-100651291D01*
X158194878Y-100675908D01*
X158194883Y-100675908D01*
X158198655Y-100676195D01*
X158530450Y-100661418D01*
X158858067Y-100606888D01*
X158861701Y-100605822D01*
X158861705Y-100605821D01*
X159005154Y-100563737D01*
X159176759Y-100513393D01*
X159197396Y-100504527D01*
X159451467Y-100395370D01*
X159481912Y-100382290D01*
X159769103Y-100215475D01*
X160034175Y-100015367D01*
X160273286Y-99784863D01*
X160323764Y-99722861D01*
X160480582Y-99530239D01*
X160480583Y-99530238D01*
X160482973Y-99527302D01*
X160503623Y-99494574D01*
X160658176Y-99249623D01*
X160658179Y-99249617D01*
X160660199Y-99246416D01*
X160662885Y-99240747D01*
X160663329Y-99240248D01*
X160663651Y-99239663D01*
X160663785Y-99239737D01*
X160710121Y-99187747D01*
X160778514Y-99168698D01*
X160846349Y-99189649D01*
X160892088Y-99243949D01*
X160902754Y-99295121D01*
X160801692Y-128540279D01*
X160788013Y-132498670D01*
X160787409Y-132673315D01*
X160767172Y-132741367D01*
X160713356Y-132787674D01*
X160643047Y-132797535D01*
X160578569Y-132767819D01*
X160553464Y-132737869D01*
X160516205Y-132675982D01*
X160513878Y-132672998D01*
X160513873Y-132672991D01*
X160314294Y-132417082D01*
X160314292Y-132417079D01*
X160311958Y-132414087D01*
X160077726Y-132178626D01*
X160056865Y-132162180D01*
X159819885Y-131975360D01*
X159816904Y-131973010D01*
X159533269Y-131800218D01*
X159317312Y-131702028D01*
X159234381Y-131664321D01*
X159234373Y-131664318D01*
X159230929Y-131662752D01*
X158914264Y-131562604D01*
X158716808Y-131525473D01*
X158591585Y-131501925D01*
X158591580Y-131501924D01*
X158587861Y-131501225D01*
X158256449Y-131479503D01*
X158252669Y-131479711D01*
X158252668Y-131479711D01*
X158157655Y-131484940D01*
X157924827Y-131497753D01*
X157921100Y-131498414D01*
X157921096Y-131498414D01*
X157662396Y-131544263D01*
X157597799Y-131555711D01*
X157594174Y-131556816D01*
X157594169Y-131556817D01*
X157347671Y-131631945D01*
X157280103Y-131652538D01*
X156976341Y-131786830D01*
X156764738Y-131912720D01*
X156731047Y-131932764D01*
X156690911Y-131956642D01*
X156687910Y-131958957D01*
X156687906Y-131958960D01*
X156548062Y-132066849D01*
X156427950Y-132159515D01*
X156425249Y-132162174D01*
X156425242Y-132162180D01*
X156210849Y-132373233D01*
X156191266Y-132392511D01*
X156188902Y-132395478D01*
X156188899Y-132395481D01*
X156004773Y-132626545D01*
X155984287Y-132652253D01*
X155810012Y-132934980D01*
X155670965Y-133236596D01*
X155569161Y-133552732D01*
X155506073Y-133878808D01*
X155505806Y-133882584D01*
X155505805Y-133882589D01*
X155482884Y-134206314D01*
X155482616Y-134210103D01*
X155499130Y-134541816D01*
X155499771Y-134545547D01*
X155499772Y-134545555D01*
X155550585Y-134841264D01*
X155555375Y-134869142D01*
X155556463Y-134872781D01*
X155556464Y-134872784D01*
X155643983Y-135165425D01*
X155650537Y-135187341D01*
X155783236Y-135491803D01*
X155785159Y-135495074D01*
X155785161Y-135495078D01*
X155949629Y-135774847D01*
X155949634Y-135774855D01*
X155951552Y-135778117D01*
X156153046Y-136042137D01*
X156155694Y-136044856D01*
X156155699Y-136044861D01*
X156382152Y-136277322D01*
X156384798Y-136280038D01*
X156387742Y-136282409D01*
X156387745Y-136282412D01*
X156458810Y-136339652D01*
X156643453Y-136488374D01*
X156735996Y-136546089D01*
X156783211Y-136599108D01*
X156794267Y-136669238D01*
X156765653Y-136734213D01*
X156706453Y-136773403D01*
X156669318Y-136779000D01*
X155304477Y-136779000D01*
X155236356Y-136758998D01*
X155189863Y-136705342D01*
X155179759Y-136635068D01*
X155204513Y-136576298D01*
X155207507Y-136572396D01*
X155207509Y-136572392D01*
X155212536Y-136565841D01*
X155273044Y-136419762D01*
X155288500Y-136302361D01*
X155288500Y-135223639D01*
X155273044Y-135106238D01*
X155212536Y-134960159D01*
X155116282Y-134834718D01*
X154990841Y-134738464D01*
X154844762Y-134677956D01*
X154688000Y-134657318D01*
X154531238Y-134677956D01*
X154385159Y-134738464D01*
X154259718Y-134834718D01*
X154163464Y-134960159D01*
X154102956Y-135106238D01*
X154087500Y-135223639D01*
X154087500Y-136302361D01*
X154102956Y-136419762D01*
X154163464Y-136565841D01*
X154168491Y-136572392D01*
X154168493Y-136572396D01*
X154171487Y-136576298D01*
X154197086Y-136642519D01*
X154182820Y-136712068D01*
X154133217Y-136762863D01*
X154071523Y-136779000D01*
X146664477Y-136779000D01*
X146596356Y-136758998D01*
X146549863Y-136705342D01*
X146539759Y-136635068D01*
X146564513Y-136576298D01*
X146567507Y-136572396D01*
X146567509Y-136572392D01*
X146572536Y-136565841D01*
X146633044Y-136419762D01*
X146648500Y-136302361D01*
X146648500Y-135223639D01*
X146633044Y-135106238D01*
X146572536Y-134960159D01*
X146476282Y-134834718D01*
X146350841Y-134738464D01*
X146204762Y-134677956D01*
X146048000Y-134657318D01*
X145891238Y-134677956D01*
X145745159Y-134738464D01*
X145619718Y-134834718D01*
X145523464Y-134960159D01*
X145462956Y-135106238D01*
X145447500Y-135223639D01*
X145447500Y-136302361D01*
X145462956Y-136419762D01*
X145523464Y-136565841D01*
X145528491Y-136572392D01*
X145528493Y-136572396D01*
X145531487Y-136576298D01*
X145557086Y-136642519D01*
X145542820Y-136712068D01*
X145493217Y-136762863D01*
X145431523Y-136779000D01*
X144906000Y-136779000D01*
X144837879Y-136758998D01*
X144791386Y-136705342D01*
X144780000Y-136653000D01*
X144780000Y-135165425D01*
X144782421Y-135140844D01*
X144782555Y-135140170D01*
X144784976Y-135128000D01*
X144775013Y-135077909D01*
X144765263Y-135028894D01*
X144758371Y-135018579D01*
X144758370Y-135018577D01*
X144716017Y-134955192D01*
X144709124Y-134944876D01*
X144625106Y-134888737D01*
X144526000Y-134869024D01*
X144513153Y-134871579D01*
X144488575Y-134874000D01*
X136435425Y-134874000D01*
X136410847Y-134871579D01*
X136398000Y-134869024D01*
X136298894Y-134888737D01*
X136214876Y-134944876D01*
X136158737Y-135028894D01*
X136148988Y-135077909D01*
X136139024Y-135128000D01*
X136141445Y-135140170D01*
X136141579Y-135140844D01*
X136144000Y-135165425D01*
X136144000Y-136653000D01*
X136123998Y-136721121D01*
X136070342Y-136767614D01*
X136018000Y-136779000D01*
X134421076Y-136779000D01*
X134352955Y-136758998D01*
X134306462Y-136705342D01*
X134296358Y-136635068D01*
X134325852Y-136570488D01*
X134357791Y-136544046D01*
X134365815Y-136539386D01*
X134365829Y-136539377D01*
X134369103Y-136537475D01*
X134634175Y-136337367D01*
X134873286Y-136106863D01*
X134923764Y-136044861D01*
X135080582Y-135852239D01*
X135080583Y-135852238D01*
X135082973Y-135849302D01*
X135084995Y-135846098D01*
X135258176Y-135571623D01*
X135258179Y-135571617D01*
X135260199Y-135568416D01*
X135402397Y-135268273D01*
X135507506Y-134953220D01*
X135574005Y-134627822D01*
X135600930Y-134296791D01*
X135601312Y-134260321D01*
X135601512Y-134241221D01*
X135601512Y-134241214D01*
X135601535Y-134239000D01*
X135581549Y-133907478D01*
X135580869Y-133903754D01*
X135522559Y-133584481D01*
X135522558Y-133584477D01*
X135521879Y-133580759D01*
X135513177Y-133552732D01*
X135424513Y-133267189D01*
X135423391Y-133263574D01*
X135412913Y-133240203D01*
X135289065Y-132963987D01*
X135287510Y-132960518D01*
X135116205Y-132675982D01*
X135113878Y-132672998D01*
X135113873Y-132672991D01*
X134914294Y-132417082D01*
X134914292Y-132417079D01*
X134911958Y-132414087D01*
X134677726Y-132178626D01*
X134656865Y-132162180D01*
X134638053Y-132147350D01*
X145422500Y-132147350D01*
X145422996Y-132151275D01*
X145422996Y-132151278D01*
X145434313Y-132240865D01*
X145437336Y-132264792D01*
X145440253Y-132272159D01*
X145489080Y-132395481D01*
X145495514Y-132411732D01*
X145588406Y-132539587D01*
X145594514Y-132544640D01*
X145704068Y-132635271D01*
X145704072Y-132635274D01*
X145710177Y-132640324D01*
X145853174Y-132707614D01*
X145860957Y-132709099D01*
X145860958Y-132709099D01*
X146000626Y-132735742D01*
X146000628Y-132735742D01*
X146008412Y-132737227D01*
X146166138Y-132727304D01*
X146218483Y-132710296D01*
X146308905Y-132680916D01*
X146308908Y-132680915D01*
X146316441Y-132678467D01*
X146449877Y-132593786D01*
X146558062Y-132478582D01*
X146634197Y-132340092D01*
X146668691Y-132205748D01*
X146705005Y-132144742D01*
X146768538Y-132113053D01*
X146839117Y-132120743D01*
X146894334Y-132165370D01*
X146915654Y-132220634D01*
X146916130Y-132224247D01*
X146917313Y-132233236D01*
X146975302Y-132373233D01*
X147067549Y-132493451D01*
X147187767Y-132585698D01*
X147327764Y-132643687D01*
X147335952Y-132644765D01*
X147417364Y-132655483D01*
X147440280Y-132658500D01*
X147515720Y-132658500D01*
X147538637Y-132655483D01*
X147620048Y-132644765D01*
X147628236Y-132643687D01*
X147768233Y-132585698D01*
X147888451Y-132493451D01*
X147980698Y-132373233D01*
X148038687Y-132233236D01*
X148042961Y-132200773D01*
X148588350Y-132200773D01*
X148589514Y-132209675D01*
X148589514Y-132209678D01*
X148597685Y-132272159D01*
X148607088Y-132344065D01*
X148665289Y-132476339D01*
X148758276Y-132586960D01*
X148765747Y-132591933D01*
X148765748Y-132591934D01*
X148871101Y-132662063D01*
X148871103Y-132662064D01*
X148878574Y-132667037D01*
X148887138Y-132669713D01*
X148887141Y-132669714D01*
X148922997Y-132680916D01*
X149016510Y-132710132D01*
X149160998Y-132712780D01*
X149195261Y-132703439D01*
X149291763Y-132677130D01*
X149291765Y-132677129D01*
X149300422Y-132674769D01*
X149308069Y-132670074D01*
X149308073Y-132670072D01*
X149348674Y-132645143D01*
X149417191Y-132626545D01*
X149484421Y-132647631D01*
X149506101Y-132662063D01*
X149506104Y-132662064D01*
X149513574Y-132667037D01*
X149522138Y-132669713D01*
X149522141Y-132669714D01*
X149557997Y-132680916D01*
X149651510Y-132710132D01*
X149795998Y-132712780D01*
X149830261Y-132703439D01*
X149926763Y-132677130D01*
X149926765Y-132677129D01*
X149935422Y-132674769D01*
X149943069Y-132670074D01*
X149943073Y-132670072D01*
X149983674Y-132645143D01*
X150052191Y-132626545D01*
X150119421Y-132647631D01*
X150141101Y-132662063D01*
X150141104Y-132662064D01*
X150148574Y-132667037D01*
X150157138Y-132669713D01*
X150157141Y-132669714D01*
X150192997Y-132680916D01*
X150286510Y-132710132D01*
X150430998Y-132712780D01*
X150465261Y-132703439D01*
X150561763Y-132677130D01*
X150561765Y-132677129D01*
X150570422Y-132674769D01*
X150578069Y-132670074D01*
X150578073Y-132670072D01*
X150618674Y-132645143D01*
X150687191Y-132626545D01*
X150754421Y-132647631D01*
X150776101Y-132662063D01*
X150776104Y-132662064D01*
X150783574Y-132667037D01*
X150792138Y-132669713D01*
X150792141Y-132669714D01*
X150827997Y-132680916D01*
X150921510Y-132710132D01*
X151065998Y-132712780D01*
X151100261Y-132703439D01*
X151196763Y-132677130D01*
X151196765Y-132677129D01*
X151205422Y-132674769D01*
X151213069Y-132670074D01*
X151213073Y-132670072D01*
X151253674Y-132645143D01*
X151322191Y-132626545D01*
X151389421Y-132647631D01*
X151411101Y-132662063D01*
X151411104Y-132662064D01*
X151418574Y-132667037D01*
X151427138Y-132669713D01*
X151427141Y-132669714D01*
X151462997Y-132680916D01*
X151556510Y-132710132D01*
X151700998Y-132712780D01*
X151735261Y-132703439D01*
X151831763Y-132677130D01*
X151831765Y-132677129D01*
X151840422Y-132674769D01*
X151963572Y-132599154D01*
X152060551Y-132492014D01*
X152110051Y-132389845D01*
X152119645Y-132370043D01*
X152119645Y-132370042D01*
X152123560Y-132361962D01*
X152147536Y-132219453D01*
X152147688Y-132207000D01*
X152129930Y-132083000D01*
X152677534Y-132083000D01*
X152697313Y-132233236D01*
X152755302Y-132373233D01*
X152847549Y-132493451D01*
X152967767Y-132585698D01*
X153107764Y-132643687D01*
X153115952Y-132644765D01*
X153197364Y-132655483D01*
X153220280Y-132658500D01*
X153295720Y-132658500D01*
X153318637Y-132655483D01*
X153400048Y-132644765D01*
X153408236Y-132643687D01*
X153548233Y-132585698D01*
X153668451Y-132493451D01*
X153760698Y-132373233D01*
X153818687Y-132233236D01*
X153821145Y-132214566D01*
X153849868Y-132149639D01*
X153909134Y-132110548D01*
X153980125Y-132109703D01*
X154040304Y-132147374D01*
X154071074Y-132215222D01*
X154077336Y-132264792D01*
X154080253Y-132272159D01*
X154129080Y-132395481D01*
X154135514Y-132411732D01*
X154228406Y-132539587D01*
X154234514Y-132544640D01*
X154344068Y-132635271D01*
X154344072Y-132635274D01*
X154350177Y-132640324D01*
X154493174Y-132707614D01*
X154500957Y-132709099D01*
X154500958Y-132709099D01*
X154640626Y-132735742D01*
X154640628Y-132735742D01*
X154648412Y-132737227D01*
X154806138Y-132727304D01*
X154858483Y-132710296D01*
X154948905Y-132680916D01*
X154948908Y-132680915D01*
X154956441Y-132678467D01*
X155089877Y-132593786D01*
X155198062Y-132478582D01*
X155274197Y-132340092D01*
X155313500Y-132187019D01*
X155313500Y-131018650D01*
X155298664Y-130901208D01*
X155271892Y-130833589D01*
X155243404Y-130761637D01*
X155243403Y-130761634D01*
X155240486Y-130754268D01*
X155147594Y-130626413D01*
X155141486Y-130621360D01*
X155031932Y-130530729D01*
X155031928Y-130530726D01*
X155025823Y-130525676D01*
X154882826Y-130458386D01*
X154875043Y-130456901D01*
X154875042Y-130456901D01*
X154735374Y-130430258D01*
X154735372Y-130430258D01*
X154727588Y-130428773D01*
X154569862Y-130438696D01*
X154562318Y-130441147D01*
X154562319Y-130441147D01*
X154427095Y-130485084D01*
X154427092Y-130485085D01*
X154419559Y-130487533D01*
X154286123Y-130572214D01*
X154177938Y-130687418D01*
X154101803Y-130825908D01*
X154062500Y-130978981D01*
X154062500Y-131889786D01*
X154042498Y-131957907D01*
X153988842Y-132004400D01*
X153918568Y-132014504D01*
X153853988Y-131985010D01*
X153820749Y-131931910D01*
X153818687Y-131932764D01*
X153800885Y-131889786D01*
X153760698Y-131792767D01*
X153668451Y-131672549D01*
X153548233Y-131580302D01*
X153408236Y-131522313D01*
X153295720Y-131507500D01*
X153220280Y-131507500D01*
X153107764Y-131522313D01*
X152967767Y-131580302D01*
X152847549Y-131672549D01*
X152755302Y-131792767D01*
X152697313Y-131932764D01*
X152696235Y-131940952D01*
X152692014Y-131973010D01*
X152677534Y-132083000D01*
X152129930Y-132083000D01*
X152127201Y-132063948D01*
X152067388Y-131932395D01*
X152061530Y-131925596D01*
X152061527Y-131925592D01*
X151978916Y-131829718D01*
X151978913Y-131829716D01*
X151973056Y-131822918D01*
X151912423Y-131783618D01*
X151859324Y-131749200D01*
X151859322Y-131749199D01*
X151851790Y-131744317D01*
X151834918Y-131739271D01*
X151721938Y-131705482D01*
X151721936Y-131705482D01*
X151713337Y-131702910D01*
X151704363Y-131702855D01*
X151704361Y-131702855D01*
X151641082Y-131702469D01*
X151568827Y-131702028D01*
X151560196Y-131704495D01*
X151560194Y-131704495D01*
X151438513Y-131739271D01*
X151438510Y-131739272D01*
X151429879Y-131741739D01*
X151388032Y-131768143D01*
X151319749Y-131787576D01*
X151252269Y-131767314D01*
X151216790Y-131744317D01*
X151199918Y-131739271D01*
X151086938Y-131705482D01*
X151086936Y-131705482D01*
X151078337Y-131702910D01*
X151069363Y-131702855D01*
X151069361Y-131702855D01*
X151006082Y-131702469D01*
X150933827Y-131702028D01*
X150925196Y-131704495D01*
X150925194Y-131704495D01*
X150803513Y-131739271D01*
X150803510Y-131739272D01*
X150794879Y-131741739D01*
X150753032Y-131768143D01*
X150684749Y-131787576D01*
X150617269Y-131767314D01*
X150581790Y-131744317D01*
X150564918Y-131739271D01*
X150451938Y-131705482D01*
X150451936Y-131705482D01*
X150443337Y-131702910D01*
X150434363Y-131702855D01*
X150434361Y-131702855D01*
X150371082Y-131702469D01*
X150298827Y-131702028D01*
X150290196Y-131704495D01*
X150290194Y-131704495D01*
X150168513Y-131739271D01*
X150168510Y-131739272D01*
X150159879Y-131741739D01*
X150118032Y-131768143D01*
X150049749Y-131787576D01*
X149982269Y-131767314D01*
X149946790Y-131744317D01*
X149929918Y-131739271D01*
X149816938Y-131705482D01*
X149816936Y-131705482D01*
X149808337Y-131702910D01*
X149799363Y-131702855D01*
X149799361Y-131702855D01*
X149736082Y-131702469D01*
X149663827Y-131702028D01*
X149655196Y-131704495D01*
X149655194Y-131704495D01*
X149533513Y-131739271D01*
X149533510Y-131739272D01*
X149524879Y-131741739D01*
X149483032Y-131768143D01*
X149414749Y-131787576D01*
X149347269Y-131767314D01*
X149311790Y-131744317D01*
X149294918Y-131739271D01*
X149181938Y-131705482D01*
X149181936Y-131705482D01*
X149173337Y-131702910D01*
X149164363Y-131702855D01*
X149164361Y-131702855D01*
X149101082Y-131702469D01*
X149028827Y-131702028D01*
X149020196Y-131704495D01*
X149020194Y-131704495D01*
X148898509Y-131739272D01*
X148898505Y-131739274D01*
X148889879Y-131741739D01*
X148882292Y-131746526D01*
X148882290Y-131746527D01*
X148796912Y-131800397D01*
X148767661Y-131818853D01*
X148671999Y-131927170D01*
X148668185Y-131935293D01*
X148668184Y-131935295D01*
X148656392Y-131960411D01*
X148610583Y-132057982D01*
X148609203Y-132066846D01*
X148609202Y-132066849D01*
X148590492Y-132187019D01*
X148588350Y-132200773D01*
X148042961Y-132200773D01*
X148058466Y-132083000D01*
X148043986Y-131973010D01*
X148039765Y-131940952D01*
X148038687Y-131932764D01*
X147980698Y-131792767D01*
X147888451Y-131672549D01*
X147768233Y-131580302D01*
X147628236Y-131522313D01*
X147515720Y-131507500D01*
X147440280Y-131507500D01*
X147327764Y-131522313D01*
X147187767Y-131580302D01*
X147067549Y-131672549D01*
X146975302Y-131792767D01*
X146917313Y-131932764D01*
X146915376Y-131931962D01*
X146884256Y-131983019D01*
X146820396Y-132014041D01*
X146749901Y-132005613D01*
X146695154Y-131960411D01*
X146673500Y-131889786D01*
X146673500Y-131018650D01*
X146658664Y-130901208D01*
X146631892Y-130833589D01*
X146603404Y-130761637D01*
X146603403Y-130761634D01*
X146600486Y-130754268D01*
X146507594Y-130626413D01*
X146501486Y-130621360D01*
X146391932Y-130530729D01*
X146391928Y-130530726D01*
X146385823Y-130525676D01*
X146242826Y-130458386D01*
X146235043Y-130456901D01*
X146235042Y-130456901D01*
X146095374Y-130430258D01*
X146095372Y-130430258D01*
X146087588Y-130428773D01*
X145929862Y-130438696D01*
X145922318Y-130441147D01*
X145922319Y-130441147D01*
X145787095Y-130485084D01*
X145787092Y-130485085D01*
X145779559Y-130487533D01*
X145646123Y-130572214D01*
X145537938Y-130687418D01*
X145461803Y-130825908D01*
X145422500Y-130978981D01*
X145422500Y-132147350D01*
X134638053Y-132147350D01*
X134419885Y-131975360D01*
X134416904Y-131973010D01*
X134133269Y-131800218D01*
X133917312Y-131702028D01*
X133834381Y-131664321D01*
X133834373Y-131664318D01*
X133830929Y-131662752D01*
X133514264Y-131562604D01*
X133316808Y-131525473D01*
X133191585Y-131501925D01*
X133191580Y-131501924D01*
X133187861Y-131501225D01*
X132856449Y-131479503D01*
X132852669Y-131479711D01*
X132852668Y-131479711D01*
X132757655Y-131484940D01*
X132524827Y-131497753D01*
X132521100Y-131498414D01*
X132521096Y-131498414D01*
X132262396Y-131544263D01*
X132197799Y-131555711D01*
X132194174Y-131556816D01*
X132194169Y-131556817D01*
X131947671Y-131631945D01*
X131880103Y-131652538D01*
X131576341Y-131786830D01*
X131364738Y-131912720D01*
X131331047Y-131932764D01*
X131290911Y-131956642D01*
X131287910Y-131958957D01*
X131287906Y-131958960D01*
X131148062Y-132066849D01*
X131027950Y-132159515D01*
X131025249Y-132162174D01*
X131025242Y-132162180D01*
X130810849Y-132373233D01*
X130791266Y-132392511D01*
X130788902Y-132395478D01*
X130788899Y-132395481D01*
X130604773Y-132626545D01*
X130584287Y-132652253D01*
X130547080Y-132712615D01*
X130535260Y-132731790D01*
X130482488Y-132779283D01*
X130412417Y-132790707D01*
X130347293Y-132762433D01*
X130307793Y-132703439D01*
X130302000Y-132665674D01*
X130302000Y-127882096D01*
X148819729Y-127882096D01*
X148837113Y-128039553D01*
X148839723Y-128046684D01*
X148839723Y-128046686D01*
X148854913Y-128088193D01*
X148891553Y-128188319D01*
X148979908Y-128319805D01*
X148985527Y-128324918D01*
X148985528Y-128324919D01*
X149091460Y-128421309D01*
X149097076Y-128426419D01*
X149236293Y-128502008D01*
X149389522Y-128542207D01*
X149473477Y-128543526D01*
X149540319Y-128544576D01*
X149540322Y-128544576D01*
X149547916Y-128544695D01*
X149702332Y-128509329D01*
X149788284Y-128466100D01*
X149837072Y-128441563D01*
X149837075Y-128441561D01*
X149843855Y-128438151D01*
X149849626Y-128433222D01*
X149849629Y-128433220D01*
X149958536Y-128340204D01*
X149958536Y-128340203D01*
X149964314Y-128335269D01*
X150056755Y-128206624D01*
X150109920Y-128074373D01*
X152271350Y-128074373D01*
X152272514Y-128083275D01*
X152272514Y-128083278D01*
X152286250Y-128188319D01*
X152290088Y-128217665D01*
X152348289Y-128349939D01*
X152441276Y-128460560D01*
X152448747Y-128465533D01*
X152448748Y-128465534D01*
X152554101Y-128535663D01*
X152554103Y-128535664D01*
X152561574Y-128540637D01*
X152570138Y-128543313D01*
X152570141Y-128543314D01*
X152630542Y-128562185D01*
X152699510Y-128583732D01*
X152843998Y-128586380D01*
X152863530Y-128581055D01*
X152974763Y-128550730D01*
X152974765Y-128550729D01*
X152983422Y-128548369D01*
X153106572Y-128472754D01*
X153203551Y-128365614D01*
X153266560Y-128235562D01*
X153290536Y-128093053D01*
X153290688Y-128080600D01*
X153270201Y-127937548D01*
X153210388Y-127805995D01*
X153204530Y-127799196D01*
X153204527Y-127799192D01*
X153121916Y-127703318D01*
X153121913Y-127703316D01*
X153116056Y-127696518D01*
X152994790Y-127617917D01*
X152903614Y-127590649D01*
X152864938Y-127579082D01*
X152864936Y-127579082D01*
X152856337Y-127576510D01*
X152847363Y-127576455D01*
X152847361Y-127576455D01*
X152784082Y-127576069D01*
X152711827Y-127575628D01*
X152703196Y-127578095D01*
X152703194Y-127578095D01*
X152581509Y-127612872D01*
X152581505Y-127612874D01*
X152572879Y-127615339D01*
X152450661Y-127692453D01*
X152444718Y-127699182D01*
X152444717Y-127699183D01*
X152422242Y-127724631D01*
X152354999Y-127800770D01*
X152293583Y-127931582D01*
X152292203Y-127940446D01*
X152292202Y-127940449D01*
X152273644Y-128059641D01*
X152271350Y-128074373D01*
X150109920Y-128074373D01*
X150115842Y-128059641D01*
X150138162Y-127902807D01*
X150138307Y-127889000D01*
X150119276Y-127731733D01*
X150063280Y-127583546D01*
X149973553Y-127452992D01*
X149855275Y-127347611D01*
X149847889Y-127343700D01*
X149721988Y-127277039D01*
X149721989Y-127277039D01*
X149715274Y-127273484D01*
X149561633Y-127234892D01*
X149554034Y-127234852D01*
X149554033Y-127234852D01*
X149488181Y-127234507D01*
X149403221Y-127234062D01*
X149395841Y-127235834D01*
X149395839Y-127235834D01*
X149256563Y-127269271D01*
X149256560Y-127269272D01*
X149249184Y-127271043D01*
X149108414Y-127343700D01*
X148989039Y-127447838D01*
X148897950Y-127577444D01*
X148840406Y-127725037D01*
X148839414Y-127732570D01*
X148839414Y-127732571D01*
X148828672Y-127814169D01*
X148819729Y-127882096D01*
X130302000Y-127882096D01*
X130302000Y-125215773D01*
X152906350Y-125215773D01*
X152907514Y-125224675D01*
X152907514Y-125224678D01*
X152923924Y-125350164D01*
X152925088Y-125359065D01*
X152983289Y-125491339D01*
X153076276Y-125601960D01*
X153083747Y-125606933D01*
X153083748Y-125606934D01*
X153189101Y-125677063D01*
X153189103Y-125677064D01*
X153196574Y-125682037D01*
X153205138Y-125684713D01*
X153205141Y-125684714D01*
X153265542Y-125703584D01*
X153334510Y-125725132D01*
X153478998Y-125727780D01*
X153498530Y-125722455D01*
X153609763Y-125692130D01*
X153609765Y-125692129D01*
X153618422Y-125689769D01*
X153741572Y-125614154D01*
X153838551Y-125507014D01*
X153901560Y-125376962D01*
X153925536Y-125234453D01*
X153925688Y-125222000D01*
X153905201Y-125078948D01*
X153845388Y-124947395D01*
X153839530Y-124940596D01*
X153839527Y-124940592D01*
X153756916Y-124844718D01*
X153756913Y-124844716D01*
X153751056Y-124837918D01*
X153629790Y-124759317D01*
X153612921Y-124754272D01*
X153499938Y-124720482D01*
X153499936Y-124720482D01*
X153491337Y-124717910D01*
X153482363Y-124717855D01*
X153482361Y-124717855D01*
X153419082Y-124717469D01*
X153346827Y-124717028D01*
X153338196Y-124719495D01*
X153338194Y-124719495D01*
X153216509Y-124754272D01*
X153216505Y-124754274D01*
X153207879Y-124756739D01*
X153085661Y-124833853D01*
X152989999Y-124942170D01*
X152928583Y-125072982D01*
X152906350Y-125215773D01*
X130302000Y-125215773D01*
X130302000Y-123900773D01*
X140415450Y-123900773D01*
X140416614Y-123909675D01*
X140416614Y-123909678D01*
X140423316Y-123960926D01*
X140434188Y-124044065D01*
X140492389Y-124176339D01*
X140498163Y-124183208D01*
X140542466Y-124235912D01*
X140585376Y-124286960D01*
X140592847Y-124291933D01*
X140592848Y-124291934D01*
X140698201Y-124362063D01*
X140698203Y-124362064D01*
X140705674Y-124367037D01*
X140714238Y-124369713D01*
X140714241Y-124369714D01*
X140759491Y-124383851D01*
X140843610Y-124410132D01*
X140988098Y-124412780D01*
X141085546Y-124386213D01*
X141118863Y-124377130D01*
X141118865Y-124377129D01*
X141127522Y-124374769D01*
X141250672Y-124299154D01*
X141347651Y-124192014D01*
X141382973Y-124119109D01*
X141406745Y-124070043D01*
X141406745Y-124070042D01*
X141410660Y-124061962D01*
X141434636Y-123919453D01*
X141434788Y-123907000D01*
X141424132Y-123832593D01*
X141422153Y-123818773D01*
X148842350Y-123818773D01*
X148843514Y-123827675D01*
X148843514Y-123827678D01*
X148858329Y-123940967D01*
X148861088Y-123962065D01*
X148919289Y-124094339D01*
X149012276Y-124204960D01*
X149019747Y-124209933D01*
X149019748Y-124209934D01*
X149125101Y-124280063D01*
X149125103Y-124280064D01*
X149132574Y-124285037D01*
X149141138Y-124287713D01*
X149141141Y-124287714D01*
X149201542Y-124306585D01*
X149270510Y-124328132D01*
X149414998Y-124330780D01*
X149435077Y-124325306D01*
X149545763Y-124295130D01*
X149545765Y-124295129D01*
X149554422Y-124292769D01*
X149677572Y-124217154D01*
X149774551Y-124110014D01*
X149837560Y-123979962D01*
X149861536Y-123837453D01*
X149861688Y-123825000D01*
X149860796Y-123818773D01*
X150493350Y-123818773D01*
X150494514Y-123827675D01*
X150494514Y-123827678D01*
X150509329Y-123940967D01*
X150512088Y-123962065D01*
X150570289Y-124094339D01*
X150663276Y-124204960D01*
X150670747Y-124209933D01*
X150670748Y-124209934D01*
X150776101Y-124280063D01*
X150776103Y-124280064D01*
X150783574Y-124285037D01*
X150792138Y-124287713D01*
X150792141Y-124287714D01*
X150852542Y-124306585D01*
X150921510Y-124328132D01*
X151065998Y-124330780D01*
X151086077Y-124325306D01*
X151196763Y-124295130D01*
X151196765Y-124295129D01*
X151205422Y-124292769D01*
X151328572Y-124217154D01*
X151328828Y-124217571D01*
X151388294Y-124191918D01*
X151458339Y-124203505D01*
X151500037Y-124235912D01*
X151514838Y-124253521D01*
X151514844Y-124253526D01*
X151520616Y-124260393D01*
X151528087Y-124265366D01*
X151528088Y-124265367D01*
X151633441Y-124335496D01*
X151633443Y-124335497D01*
X151640914Y-124340470D01*
X151649478Y-124343146D01*
X151649481Y-124343147D01*
X151680750Y-124352916D01*
X151778850Y-124383565D01*
X151923338Y-124386213D01*
X151942870Y-124380888D01*
X152054103Y-124350563D01*
X152054105Y-124350562D01*
X152062762Y-124348202D01*
X152142885Y-124299006D01*
X152211402Y-124280408D01*
X152279098Y-124301805D01*
X152305265Y-124325306D01*
X152314276Y-124336026D01*
X152341914Y-124354423D01*
X152427101Y-124411129D01*
X152427103Y-124411130D01*
X152434574Y-124416103D01*
X152443138Y-124418779D01*
X152443141Y-124418780D01*
X152503542Y-124437650D01*
X152572510Y-124459198D01*
X152716998Y-124461846D01*
X152736530Y-124456521D01*
X152847763Y-124426196D01*
X152847765Y-124426195D01*
X152856422Y-124423835D01*
X152979572Y-124348220D01*
X153076551Y-124241080D01*
X153139560Y-124111028D01*
X153163536Y-123968519D01*
X153163688Y-123956066D01*
X153162796Y-123949839D01*
X153795350Y-123949839D01*
X153796514Y-123958741D01*
X153796514Y-123958744D01*
X153810012Y-124061962D01*
X153814088Y-124093131D01*
X153872289Y-124225405D01*
X153878063Y-124232274D01*
X153928915Y-124292769D01*
X153965276Y-124336026D01*
X153972747Y-124340999D01*
X153972748Y-124341000D01*
X154078101Y-124411129D01*
X154078103Y-124411130D01*
X154085574Y-124416103D01*
X154094138Y-124418779D01*
X154094141Y-124418780D01*
X154154542Y-124437650D01*
X154223510Y-124459198D01*
X154367998Y-124461846D01*
X154387530Y-124456521D01*
X154498763Y-124426196D01*
X154498765Y-124426195D01*
X154507422Y-124423835D01*
X154630572Y-124348220D01*
X154727551Y-124241080D01*
X154790560Y-124111028D01*
X154814536Y-123968519D01*
X154814688Y-123956066D01*
X154794201Y-123813014D01*
X154734388Y-123681461D01*
X154728530Y-123674662D01*
X154728527Y-123674658D01*
X154645916Y-123578784D01*
X154645913Y-123578782D01*
X154640056Y-123571984D01*
X154546207Y-123511154D01*
X154526324Y-123498266D01*
X154526322Y-123498265D01*
X154518790Y-123493383D01*
X154443580Y-123470890D01*
X154388938Y-123454548D01*
X154388936Y-123454548D01*
X154380337Y-123451976D01*
X154371363Y-123451921D01*
X154371361Y-123451921D01*
X154308082Y-123451535D01*
X154235827Y-123451094D01*
X154227196Y-123453561D01*
X154227194Y-123453561D01*
X154105509Y-123488338D01*
X154105505Y-123488340D01*
X154096879Y-123490805D01*
X154089292Y-123495592D01*
X154089290Y-123495593D01*
X153982254Y-123563128D01*
X153974661Y-123567919D01*
X153968718Y-123574648D01*
X153968717Y-123574649D01*
X153915157Y-123635295D01*
X153878999Y-123676236D01*
X153817583Y-123807048D01*
X153816203Y-123815912D01*
X153816202Y-123815915D01*
X153799335Y-123924247D01*
X153795350Y-123949839D01*
X153162796Y-123949839D01*
X153143201Y-123813014D01*
X153083388Y-123681461D01*
X153077530Y-123674662D01*
X153077527Y-123674658D01*
X152994916Y-123578784D01*
X152994913Y-123578782D01*
X152989056Y-123571984D01*
X152895207Y-123511154D01*
X152875324Y-123498266D01*
X152875322Y-123498265D01*
X152867790Y-123493383D01*
X152792580Y-123470890D01*
X152737938Y-123454548D01*
X152737936Y-123454548D01*
X152729337Y-123451976D01*
X152720363Y-123451921D01*
X152720361Y-123451921D01*
X152657082Y-123451535D01*
X152584827Y-123451094D01*
X152576196Y-123453561D01*
X152576194Y-123453561D01*
X152454509Y-123488338D01*
X152454505Y-123488340D01*
X152445879Y-123490805D01*
X152438292Y-123495592D01*
X152438290Y-123495593D01*
X152372338Y-123537206D01*
X152304053Y-123556640D01*
X152236101Y-123536071D01*
X152209650Y-123512893D01*
X152201257Y-123503152D01*
X152201254Y-123503149D01*
X152195396Y-123496351D01*
X152134763Y-123457050D01*
X152081664Y-123422633D01*
X152081662Y-123422632D01*
X152074130Y-123417750D01*
X152050457Y-123410670D01*
X151944278Y-123378915D01*
X151944276Y-123378915D01*
X151935677Y-123376343D01*
X151926703Y-123376288D01*
X151926701Y-123376288D01*
X151863422Y-123375902D01*
X151791167Y-123375461D01*
X151782536Y-123377928D01*
X151782534Y-123377928D01*
X151660849Y-123412705D01*
X151660845Y-123412707D01*
X151652219Y-123415172D01*
X151644632Y-123419959D01*
X151644630Y-123419960D01*
X151536258Y-123488338D01*
X151530001Y-123492286D01*
X151528630Y-123490113D01*
X151476154Y-123513515D01*
X151405973Y-123502786D01*
X151363883Y-123470891D01*
X151338056Y-123440918D01*
X151256937Y-123388339D01*
X151224324Y-123367200D01*
X151224322Y-123367199D01*
X151216790Y-123362317D01*
X151199921Y-123357272D01*
X151086938Y-123323482D01*
X151086936Y-123323482D01*
X151078337Y-123320910D01*
X151069363Y-123320855D01*
X151069361Y-123320855D01*
X151006082Y-123320469D01*
X150933827Y-123320028D01*
X150925196Y-123322495D01*
X150925194Y-123322495D01*
X150803509Y-123357272D01*
X150803505Y-123357274D01*
X150794879Y-123359739D01*
X150787292Y-123364526D01*
X150787290Y-123364527D01*
X150680254Y-123432062D01*
X150672661Y-123436853D01*
X150666718Y-123443582D01*
X150666717Y-123443583D01*
X150620784Y-123495593D01*
X150576999Y-123545170D01*
X150573185Y-123553293D01*
X150573184Y-123553295D01*
X150559673Y-123582073D01*
X150515583Y-123675982D01*
X150514203Y-123684846D01*
X150514202Y-123684849D01*
X150495176Y-123807048D01*
X150493350Y-123818773D01*
X149860796Y-123818773D01*
X149841201Y-123681948D01*
X149781388Y-123550395D01*
X149775530Y-123543596D01*
X149775527Y-123543592D01*
X149692916Y-123447718D01*
X149692913Y-123447716D01*
X149687056Y-123440918D01*
X149605937Y-123388339D01*
X149573324Y-123367200D01*
X149573322Y-123367199D01*
X149565790Y-123362317D01*
X149548921Y-123357272D01*
X149435938Y-123323482D01*
X149435936Y-123323482D01*
X149427337Y-123320910D01*
X149418363Y-123320855D01*
X149418361Y-123320855D01*
X149355082Y-123320469D01*
X149282827Y-123320028D01*
X149274196Y-123322495D01*
X149274194Y-123322495D01*
X149152509Y-123357272D01*
X149152505Y-123357274D01*
X149143879Y-123359739D01*
X149136292Y-123364526D01*
X149136290Y-123364527D01*
X149029254Y-123432062D01*
X149021661Y-123436853D01*
X149015718Y-123443582D01*
X149015717Y-123443583D01*
X148969784Y-123495593D01*
X148925999Y-123545170D01*
X148922185Y-123553293D01*
X148922184Y-123553295D01*
X148908673Y-123582073D01*
X148864583Y-123675982D01*
X148863203Y-123684846D01*
X148863202Y-123684849D01*
X148844176Y-123807048D01*
X148842350Y-123818773D01*
X141422153Y-123818773D01*
X141415574Y-123772835D01*
X141415573Y-123772833D01*
X141414301Y-123763948D01*
X141354488Y-123632395D01*
X141348630Y-123625596D01*
X141348627Y-123625592D01*
X141266016Y-123529718D01*
X141266013Y-123529716D01*
X141260156Y-123522918D01*
X141155480Y-123455070D01*
X141146424Y-123449200D01*
X141146422Y-123449199D01*
X141138890Y-123444317D01*
X141125569Y-123440333D01*
X141009038Y-123405482D01*
X141009036Y-123405482D01*
X141000437Y-123402910D01*
X140991463Y-123402855D01*
X140991461Y-123402855D01*
X140928182Y-123402469D01*
X140855927Y-123402028D01*
X140847296Y-123404495D01*
X140847294Y-123404495D01*
X140725609Y-123439272D01*
X140725605Y-123439274D01*
X140716979Y-123441739D01*
X140709392Y-123446526D01*
X140709390Y-123446527D01*
X140618406Y-123503934D01*
X140594761Y-123518853D01*
X140588818Y-123525582D01*
X140588817Y-123525583D01*
X140547837Y-123571984D01*
X140499099Y-123627170D01*
X140495285Y-123635293D01*
X140495284Y-123635295D01*
X140473609Y-123681461D01*
X140437683Y-123757982D01*
X140436303Y-123766846D01*
X140436302Y-123766849D01*
X140424563Y-123842247D01*
X140415450Y-123900773D01*
X130302000Y-123900773D01*
X130302000Y-123157173D01*
X137793350Y-123157173D01*
X137794514Y-123166075D01*
X137794514Y-123166078D01*
X137805118Y-123247164D01*
X137812088Y-123300465D01*
X137870289Y-123432739D01*
X137876063Y-123439608D01*
X137938189Y-123513515D01*
X137963276Y-123543360D01*
X137970747Y-123548333D01*
X137970748Y-123548334D01*
X138076101Y-123618463D01*
X138076103Y-123618464D01*
X138083574Y-123623437D01*
X138092138Y-123626113D01*
X138092141Y-123626114D01*
X138121528Y-123635295D01*
X138221510Y-123666532D01*
X138365998Y-123669180D01*
X138385530Y-123663855D01*
X138496763Y-123633530D01*
X138496765Y-123633529D01*
X138505422Y-123631169D01*
X138628572Y-123555554D01*
X138725551Y-123448414D01*
X138764898Y-123367200D01*
X138784645Y-123326443D01*
X138784645Y-123326442D01*
X138788560Y-123318362D01*
X138812536Y-123175853D01*
X138812688Y-123163400D01*
X138805438Y-123112773D01*
X145413350Y-123112773D01*
X145414514Y-123121675D01*
X145414514Y-123121678D01*
X145430924Y-123247164D01*
X145432088Y-123256065D01*
X145490289Y-123388339D01*
X145496063Y-123395208D01*
X145543087Y-123451149D01*
X145583276Y-123498960D01*
X145590747Y-123503933D01*
X145590748Y-123503934D01*
X145696101Y-123574063D01*
X145696103Y-123574064D01*
X145703574Y-123579037D01*
X145712138Y-123581713D01*
X145712141Y-123581714D01*
X145772542Y-123600584D01*
X145841510Y-123622132D01*
X145985998Y-123624780D01*
X146009169Y-123618463D01*
X146116763Y-123589130D01*
X146116765Y-123589129D01*
X146125422Y-123586769D01*
X146248572Y-123511154D01*
X146345551Y-123404014D01*
X146386215Y-123320083D01*
X146404645Y-123282043D01*
X146404645Y-123282042D01*
X146408560Y-123273962D01*
X146432536Y-123131453D01*
X146432688Y-123119000D01*
X146417705Y-123014382D01*
X146413474Y-122984835D01*
X146413473Y-122984833D01*
X146412201Y-122975948D01*
X146352388Y-122844395D01*
X146346530Y-122837596D01*
X146346527Y-122837592D01*
X146263916Y-122741718D01*
X146263913Y-122741716D01*
X146258056Y-122734918D01*
X146136790Y-122656317D01*
X146119921Y-122651272D01*
X146006938Y-122617482D01*
X146006936Y-122617482D01*
X145998337Y-122614910D01*
X145989363Y-122614855D01*
X145989361Y-122614855D01*
X145926082Y-122614469D01*
X145853827Y-122614028D01*
X145845196Y-122616495D01*
X145845194Y-122616495D01*
X145723509Y-122651272D01*
X145723505Y-122651274D01*
X145714879Y-122653739D01*
X145707292Y-122658526D01*
X145707290Y-122658527D01*
X145636921Y-122702927D01*
X145592661Y-122730853D01*
X145586718Y-122737582D01*
X145586717Y-122737583D01*
X145554171Y-122774435D01*
X145496999Y-122839170D01*
X145435583Y-122969982D01*
X145434203Y-122978846D01*
X145434202Y-122978849D01*
X145427741Y-123020348D01*
X145413350Y-123112773D01*
X138805438Y-123112773D01*
X138792201Y-123020348D01*
X138732388Y-122888795D01*
X138726530Y-122881996D01*
X138726527Y-122881992D01*
X138643916Y-122786118D01*
X138643913Y-122786116D01*
X138638056Y-122779318D01*
X138573667Y-122737583D01*
X138524324Y-122705600D01*
X138524322Y-122705599D01*
X138516790Y-122700717D01*
X138499921Y-122695672D01*
X138386938Y-122661882D01*
X138386936Y-122661882D01*
X138378337Y-122659310D01*
X138369363Y-122659255D01*
X138369361Y-122659255D01*
X138306082Y-122658869D01*
X138233827Y-122658428D01*
X138225196Y-122660895D01*
X138225194Y-122660895D01*
X138103509Y-122695672D01*
X138103505Y-122695674D01*
X138094879Y-122698139D01*
X138087292Y-122702926D01*
X138087290Y-122702927D01*
X137980254Y-122770462D01*
X137972661Y-122775253D01*
X137966718Y-122781982D01*
X137966717Y-122781983D01*
X137922046Y-122832564D01*
X137876999Y-122883570D01*
X137815583Y-123014382D01*
X137814203Y-123023246D01*
X137814202Y-123023249D01*
X137797355Y-123131453D01*
X137793350Y-123157173D01*
X130302000Y-123157173D01*
X130302000Y-121799395D01*
X142359595Y-121799395D01*
X142360759Y-121808297D01*
X142360759Y-121808300D01*
X142368044Y-121864007D01*
X142378333Y-121942687D01*
X142436534Y-122074961D01*
X142529521Y-122185582D01*
X142536992Y-122190555D01*
X142536993Y-122190556D01*
X142642346Y-122260685D01*
X142642348Y-122260686D01*
X142649819Y-122265659D01*
X142658383Y-122268335D01*
X142658386Y-122268336D01*
X142718787Y-122287207D01*
X142787755Y-122308754D01*
X142932243Y-122311402D01*
X142951775Y-122306077D01*
X143063008Y-122275752D01*
X143063010Y-122275751D01*
X143071667Y-122273391D01*
X143194817Y-122197776D01*
X143291796Y-122090636D01*
X143347533Y-121975593D01*
X143350890Y-121968665D01*
X143350890Y-121968664D01*
X143354229Y-121961773D01*
X148041150Y-121961773D01*
X148042314Y-121970675D01*
X148042314Y-121970678D01*
X148053676Y-122057563D01*
X148059888Y-122105065D01*
X148118089Y-122237339D01*
X148123863Y-122244208D01*
X148196430Y-122330536D01*
X148211076Y-122347960D01*
X148218547Y-122352933D01*
X148218548Y-122352934D01*
X148323901Y-122423063D01*
X148323903Y-122423064D01*
X148331374Y-122428037D01*
X148339938Y-122430713D01*
X148339941Y-122430714D01*
X148366793Y-122439103D01*
X148469310Y-122471132D01*
X148613798Y-122473780D01*
X148641114Y-122466333D01*
X148744563Y-122438130D01*
X148744565Y-122438129D01*
X148753222Y-122435769D01*
X148876372Y-122360154D01*
X148888718Y-122346515D01*
X148909965Y-122323041D01*
X149565906Y-122323041D01*
X149567070Y-122331943D01*
X149567070Y-122331946D01*
X149569815Y-122352934D01*
X149584644Y-122466333D01*
X149642845Y-122598607D01*
X149735832Y-122709228D01*
X149743303Y-122714201D01*
X149743304Y-122714202D01*
X149848657Y-122784331D01*
X149848659Y-122784332D01*
X149856130Y-122789305D01*
X149864694Y-122791981D01*
X149864697Y-122791982D01*
X149925098Y-122810852D01*
X149994066Y-122832400D01*
X150138554Y-122835048D01*
X150158086Y-122829723D01*
X150269319Y-122799398D01*
X150269321Y-122799397D01*
X150277978Y-122797037D01*
X150401128Y-122721422D01*
X150498107Y-122614282D01*
X150561116Y-122484230D01*
X150585092Y-122341721D01*
X150585244Y-122329268D01*
X150564757Y-122186216D01*
X150504944Y-122054663D01*
X150499086Y-122047864D01*
X150499083Y-122047860D01*
X150498666Y-122047376D01*
X154565342Y-122047376D01*
X154566506Y-122056278D01*
X154566506Y-122056281D01*
X154582718Y-122180250D01*
X154584080Y-122190668D01*
X154642281Y-122322942D01*
X154735268Y-122433563D01*
X154742739Y-122438536D01*
X154742740Y-122438537D01*
X154848093Y-122508666D01*
X154848095Y-122508667D01*
X154855566Y-122513640D01*
X154864130Y-122516316D01*
X154864133Y-122516317D01*
X154924534Y-122535187D01*
X154993502Y-122556735D01*
X155137990Y-122559383D01*
X155157522Y-122554058D01*
X155268755Y-122523733D01*
X155268757Y-122523732D01*
X155277414Y-122521372D01*
X155400564Y-122445757D01*
X155497543Y-122338617D01*
X155531420Y-122268695D01*
X155556637Y-122216646D01*
X155556637Y-122216645D01*
X155560552Y-122208565D01*
X155584528Y-122066056D01*
X155584680Y-122053603D01*
X155573508Y-121975593D01*
X155565466Y-121919438D01*
X155565465Y-121919436D01*
X155564193Y-121910551D01*
X155504380Y-121778998D01*
X155498522Y-121772199D01*
X155498519Y-121772195D01*
X155415908Y-121676321D01*
X155415905Y-121676319D01*
X155410048Y-121669521D01*
X155319944Y-121611118D01*
X155296316Y-121595803D01*
X155296314Y-121595802D01*
X155288782Y-121590920D01*
X155265369Y-121583918D01*
X155158930Y-121552085D01*
X155158928Y-121552085D01*
X155150329Y-121549513D01*
X155141355Y-121549458D01*
X155141353Y-121549458D01*
X155078074Y-121549072D01*
X155005819Y-121548631D01*
X154997188Y-121551098D01*
X154997186Y-121551098D01*
X154875501Y-121585875D01*
X154875497Y-121585877D01*
X154866871Y-121588342D01*
X154859284Y-121593129D01*
X154859282Y-121593130D01*
X154752246Y-121660665D01*
X154744653Y-121665456D01*
X154738710Y-121672185D01*
X154738709Y-121672186D01*
X154712759Y-121701569D01*
X154648991Y-121773773D01*
X154645177Y-121781896D01*
X154645176Y-121781898D01*
X154625245Y-121824351D01*
X154587575Y-121904585D01*
X154586195Y-121913449D01*
X154586194Y-121913452D01*
X154575016Y-121985247D01*
X154565342Y-122047376D01*
X150498666Y-122047376D01*
X150416472Y-121951986D01*
X150416469Y-121951984D01*
X150410612Y-121945186D01*
X150344571Y-121902380D01*
X150296880Y-121871468D01*
X150296878Y-121871467D01*
X150289346Y-121866585D01*
X150272477Y-121861540D01*
X150159494Y-121827750D01*
X150159492Y-121827750D01*
X150150893Y-121825178D01*
X150141919Y-121825123D01*
X150141917Y-121825123D01*
X150078638Y-121824737D01*
X150006383Y-121824296D01*
X149997752Y-121826763D01*
X149997750Y-121826763D01*
X149876065Y-121861540D01*
X149876061Y-121861542D01*
X149867435Y-121864007D01*
X149859848Y-121868794D01*
X149859846Y-121868795D01*
X149779582Y-121919438D01*
X149745217Y-121941121D01*
X149739274Y-121947850D01*
X149739273Y-121947851D01*
X149721478Y-121968000D01*
X149649555Y-122049438D01*
X149645741Y-122057561D01*
X149645740Y-122057563D01*
X149627617Y-122096164D01*
X149588139Y-122180250D01*
X149586759Y-122189114D01*
X149586758Y-122189117D01*
X149568131Y-122308754D01*
X149565906Y-122323041D01*
X148909965Y-122323041D01*
X148952769Y-122275752D01*
X148973351Y-122253014D01*
X149007870Y-122181767D01*
X149032445Y-122131043D01*
X149032445Y-122131042D01*
X149036360Y-122122962D01*
X149060336Y-121980453D01*
X149060488Y-121968000D01*
X149046663Y-121871468D01*
X149041274Y-121833835D01*
X149041273Y-121833833D01*
X149040001Y-121824948D01*
X148980188Y-121693395D01*
X148974330Y-121686596D01*
X148974327Y-121686592D01*
X148891716Y-121590718D01*
X148891713Y-121590716D01*
X148885856Y-121583918D01*
X148796179Y-121525792D01*
X148772124Y-121510200D01*
X148772122Y-121510199D01*
X148764590Y-121505317D01*
X148734383Y-121496283D01*
X148634738Y-121466482D01*
X148634736Y-121466482D01*
X148626137Y-121463910D01*
X148617163Y-121463855D01*
X148617161Y-121463855D01*
X148553882Y-121463469D01*
X148481627Y-121463028D01*
X148472996Y-121465495D01*
X148472994Y-121465495D01*
X148351309Y-121500272D01*
X148351305Y-121500274D01*
X148342679Y-121502739D01*
X148335092Y-121507526D01*
X148335090Y-121507527D01*
X148235421Y-121570414D01*
X148220461Y-121579853D01*
X148214518Y-121586582D01*
X148214517Y-121586583D01*
X148147408Y-121662570D01*
X148124799Y-121688170D01*
X148063383Y-121818982D01*
X148062003Y-121827846D01*
X148062002Y-121827849D01*
X148042674Y-121951986D01*
X148041150Y-121961773D01*
X143354229Y-121961773D01*
X143354805Y-121960584D01*
X143378781Y-121818075D01*
X143378933Y-121805622D01*
X143361149Y-121681442D01*
X143359719Y-121671457D01*
X143359718Y-121671455D01*
X143358446Y-121662570D01*
X143298633Y-121531017D01*
X143292775Y-121524218D01*
X143292772Y-121524214D01*
X143210161Y-121428340D01*
X143210158Y-121428338D01*
X143204301Y-121421540D01*
X143116500Y-121364630D01*
X143090569Y-121347822D01*
X143090567Y-121347821D01*
X143083035Y-121342939D01*
X143066166Y-121337894D01*
X142953183Y-121304104D01*
X142953181Y-121304104D01*
X142944582Y-121301532D01*
X142935608Y-121301477D01*
X142935606Y-121301477D01*
X142872327Y-121301091D01*
X142800072Y-121300650D01*
X142791441Y-121303117D01*
X142791439Y-121303117D01*
X142669754Y-121337894D01*
X142669750Y-121337896D01*
X142661124Y-121340361D01*
X142653537Y-121345148D01*
X142653535Y-121345149D01*
X142566420Y-121400115D01*
X142538906Y-121417475D01*
X142532963Y-121424204D01*
X142532962Y-121424205D01*
X142482988Y-121480790D01*
X142443244Y-121525792D01*
X142439430Y-121533915D01*
X142439429Y-121533917D01*
X142412174Y-121591969D01*
X142381828Y-121656604D01*
X142380448Y-121665468D01*
X142380447Y-121665471D01*
X142362771Y-121778998D01*
X142359595Y-121799395D01*
X130302000Y-121799395D01*
X130302000Y-121697412D01*
X130322002Y-121629291D01*
X130375658Y-121582798D01*
X130445932Y-121572694D01*
X130479248Y-121582305D01*
X130494920Y-121589283D01*
X130494928Y-121589286D01*
X130500955Y-121591969D01*
X130577104Y-121608155D01*
X130680476Y-121630128D01*
X130680480Y-121630128D01*
X130686933Y-121631500D01*
X130877067Y-121631500D01*
X130883520Y-121630128D01*
X130883524Y-121630128D01*
X130986896Y-121608155D01*
X131063045Y-121591969D01*
X131071178Y-121588348D01*
X131230711Y-121517320D01*
X131230713Y-121517319D01*
X131236741Y-121514635D01*
X131242846Y-121510200D01*
X131355515Y-121428340D01*
X131390562Y-121402877D01*
X131413827Y-121377039D01*
X131513367Y-121266488D01*
X131513368Y-121266487D01*
X131517786Y-121261580D01*
X131612853Y-121096920D01*
X131671608Y-120916092D01*
X131673080Y-120902093D01*
X131674532Y-120888273D01*
X137786950Y-120888273D01*
X137788114Y-120897175D01*
X137788114Y-120897178D01*
X137804524Y-121022664D01*
X137805688Y-121031565D01*
X137863889Y-121163839D01*
X137869663Y-121170708D01*
X137924433Y-121235864D01*
X137956876Y-121274460D01*
X137964347Y-121279433D01*
X137964348Y-121279434D01*
X138069701Y-121349563D01*
X138069703Y-121349564D01*
X138077174Y-121354537D01*
X138085738Y-121357213D01*
X138085741Y-121357214D01*
X138122906Y-121368825D01*
X138215110Y-121397632D01*
X138359598Y-121400280D01*
X138387350Y-121392714D01*
X138490363Y-121364630D01*
X138490365Y-121364629D01*
X138499022Y-121362269D01*
X138622172Y-121286654D01*
X138719151Y-121179514D01*
X138756961Y-121101473D01*
X139748650Y-121101473D01*
X139749814Y-121110375D01*
X139749814Y-121110378D01*
X139766224Y-121235864D01*
X139767388Y-121244765D01*
X139825589Y-121377039D01*
X139831363Y-121383908D01*
X139897871Y-121463028D01*
X139918576Y-121487660D01*
X139926047Y-121492633D01*
X139926048Y-121492634D01*
X140031401Y-121562763D01*
X140031403Y-121562764D01*
X140038874Y-121567737D01*
X140047438Y-121570413D01*
X140047441Y-121570414D01*
X140107837Y-121589283D01*
X140176810Y-121610832D01*
X140321298Y-121613480D01*
X140340830Y-121608155D01*
X140452063Y-121577830D01*
X140452065Y-121577829D01*
X140460722Y-121575469D01*
X140468369Y-121570774D01*
X140468373Y-121570772D01*
X140508974Y-121545843D01*
X140577491Y-121527245D01*
X140644721Y-121548331D01*
X140666401Y-121562763D01*
X140666404Y-121562764D01*
X140673874Y-121567737D01*
X140682438Y-121570413D01*
X140682441Y-121570414D01*
X140742837Y-121589283D01*
X140811810Y-121610832D01*
X140956298Y-121613480D01*
X140975830Y-121608155D01*
X141087063Y-121577830D01*
X141087065Y-121577829D01*
X141095722Y-121575469D01*
X141103369Y-121570774D01*
X141103373Y-121570772D01*
X141143974Y-121545843D01*
X141212491Y-121527245D01*
X141279721Y-121548331D01*
X141301401Y-121562763D01*
X141301404Y-121562764D01*
X141308874Y-121567737D01*
X141317438Y-121570413D01*
X141317441Y-121570414D01*
X141377837Y-121589283D01*
X141446810Y-121610832D01*
X141591298Y-121613480D01*
X141610830Y-121608155D01*
X141722063Y-121577830D01*
X141722065Y-121577829D01*
X141730722Y-121575469D01*
X141853872Y-121499854D01*
X141950851Y-121392714D01*
X141995028Y-121301532D01*
X142009945Y-121270743D01*
X142009945Y-121270742D01*
X142013860Y-121262662D01*
X142037836Y-121120153D01*
X142037988Y-121107700D01*
X142017501Y-120964648D01*
X141957688Y-120833095D01*
X141951830Y-120826296D01*
X141951827Y-120826292D01*
X141869216Y-120730418D01*
X141869213Y-120730416D01*
X141863356Y-120723618D01*
X141802723Y-120684317D01*
X141749624Y-120649900D01*
X141749622Y-120649899D01*
X141742090Y-120645017D01*
X141685421Y-120628069D01*
X141612238Y-120606182D01*
X141612236Y-120606182D01*
X141603637Y-120603610D01*
X141594663Y-120603555D01*
X141594661Y-120603555D01*
X141531382Y-120603169D01*
X141459127Y-120602728D01*
X141450496Y-120605195D01*
X141450494Y-120605195D01*
X141328813Y-120639971D01*
X141328810Y-120639972D01*
X141320179Y-120642439D01*
X141278332Y-120668843D01*
X141210049Y-120688276D01*
X141142569Y-120668014D01*
X141107090Y-120645017D01*
X141050421Y-120628069D01*
X140977238Y-120606182D01*
X140977236Y-120606182D01*
X140968637Y-120603610D01*
X140959663Y-120603555D01*
X140959661Y-120603555D01*
X140896382Y-120603169D01*
X140824127Y-120602728D01*
X140815496Y-120605195D01*
X140815494Y-120605195D01*
X140693813Y-120639971D01*
X140693810Y-120639972D01*
X140685179Y-120642439D01*
X140643332Y-120668843D01*
X140575049Y-120688276D01*
X140507569Y-120668014D01*
X140472090Y-120645017D01*
X140415421Y-120628069D01*
X140342238Y-120606182D01*
X140342236Y-120606182D01*
X140333637Y-120603610D01*
X140324663Y-120603555D01*
X140324661Y-120603555D01*
X140261382Y-120603169D01*
X140189127Y-120602728D01*
X140180496Y-120605195D01*
X140180494Y-120605195D01*
X140058809Y-120639972D01*
X140058805Y-120639974D01*
X140050179Y-120642439D01*
X140042592Y-120647226D01*
X140042590Y-120647227D01*
X139977532Y-120688276D01*
X139927961Y-120719553D01*
X139922018Y-120726282D01*
X139922017Y-120726283D01*
X139851214Y-120806452D01*
X139832299Y-120827870D01*
X139828485Y-120835993D01*
X139828484Y-120835995D01*
X139809975Y-120875418D01*
X139770883Y-120958682D01*
X139769503Y-120967546D01*
X139769502Y-120967549D01*
X139750338Y-121090635D01*
X139748650Y-121101473D01*
X138756961Y-121101473D01*
X138782160Y-121049462D01*
X138806136Y-120906953D01*
X138806288Y-120894500D01*
X138785801Y-120751448D01*
X138725988Y-120619895D01*
X138720130Y-120613096D01*
X138720127Y-120613092D01*
X138637516Y-120517218D01*
X138637513Y-120517216D01*
X138631656Y-120510418D01*
X138510390Y-120431817D01*
X138493521Y-120426772D01*
X138380538Y-120392982D01*
X138380536Y-120392982D01*
X138371937Y-120390410D01*
X138362963Y-120390355D01*
X138362961Y-120390355D01*
X138299682Y-120389969D01*
X138227427Y-120389528D01*
X138218796Y-120391995D01*
X138218794Y-120391995D01*
X138097109Y-120426772D01*
X138097105Y-120426774D01*
X138088479Y-120429239D01*
X137966261Y-120506353D01*
X137960318Y-120513082D01*
X137960317Y-120513083D01*
X137932596Y-120544471D01*
X137870599Y-120614670D01*
X137866785Y-120622793D01*
X137866784Y-120622795D01*
X137845555Y-120668012D01*
X137809183Y-120745482D01*
X137807803Y-120754346D01*
X137807802Y-120754349D01*
X137788584Y-120877780D01*
X137786950Y-120888273D01*
X131674532Y-120888273D01*
X131690792Y-120733565D01*
X131691482Y-120727000D01*
X131687412Y-120688276D01*
X131672298Y-120544471D01*
X131672298Y-120544469D01*
X131671608Y-120537908D01*
X131615678Y-120365773D01*
X135613850Y-120365773D01*
X135615014Y-120374675D01*
X135615014Y-120374678D01*
X135622149Y-120429239D01*
X135632588Y-120509065D01*
X135690789Y-120641339D01*
X135696563Y-120648208D01*
X135771503Y-120737359D01*
X135783776Y-120751960D01*
X135791247Y-120756933D01*
X135791248Y-120756934D01*
X135896601Y-120827063D01*
X135896603Y-120827064D01*
X135904074Y-120832037D01*
X135912638Y-120834713D01*
X135912641Y-120834714D01*
X135973042Y-120853584D01*
X136042010Y-120875132D01*
X136186498Y-120877780D01*
X136206030Y-120872455D01*
X136317263Y-120842130D01*
X136317265Y-120842129D01*
X136325922Y-120839769D01*
X136449072Y-120764154D01*
X136546051Y-120657014D01*
X136609060Y-120526962D01*
X136633036Y-120384453D01*
X136633188Y-120372000D01*
X136612701Y-120228948D01*
X136552888Y-120097395D01*
X136547030Y-120090596D01*
X136547027Y-120090592D01*
X136464416Y-119994718D01*
X136464413Y-119994716D01*
X136458556Y-119987918D01*
X136337290Y-119909317D01*
X136294277Y-119896453D01*
X136231817Y-119877773D01*
X145790350Y-119877773D01*
X145791514Y-119886675D01*
X145791514Y-119886678D01*
X145800804Y-119957717D01*
X145809088Y-120021065D01*
X145867289Y-120153339D01*
X145873063Y-120160208D01*
X145938316Y-120237835D01*
X145960276Y-120263960D01*
X145967747Y-120268933D01*
X145967748Y-120268934D01*
X146073101Y-120339063D01*
X146073103Y-120339064D01*
X146080574Y-120344037D01*
X146089138Y-120346713D01*
X146089141Y-120346714D01*
X146121748Y-120356901D01*
X146218510Y-120387132D01*
X146362998Y-120389780D01*
X146382530Y-120384455D01*
X146493763Y-120354130D01*
X146493765Y-120354129D01*
X146502422Y-120351769D01*
X146625572Y-120276154D01*
X146722551Y-120169014D01*
X146779668Y-120051123D01*
X146781645Y-120047043D01*
X146781645Y-120047042D01*
X146785560Y-120038962D01*
X146809536Y-119896453D01*
X146809688Y-119884000D01*
X146789201Y-119740948D01*
X146729388Y-119609395D01*
X146723530Y-119602596D01*
X146723527Y-119602592D01*
X146640916Y-119506718D01*
X146640913Y-119506716D01*
X146635056Y-119499918D01*
X146535101Y-119435130D01*
X146521324Y-119426200D01*
X146521322Y-119426199D01*
X146513790Y-119421317D01*
X146496921Y-119416272D01*
X146383938Y-119382482D01*
X146383936Y-119382482D01*
X146375337Y-119379910D01*
X146366363Y-119379855D01*
X146366361Y-119379855D01*
X146303082Y-119379469D01*
X146230827Y-119379028D01*
X146222196Y-119381495D01*
X146222194Y-119381495D01*
X146100509Y-119416272D01*
X146100505Y-119416274D01*
X146091879Y-119418739D01*
X146084292Y-119423526D01*
X146084290Y-119423527D01*
X146009399Y-119470780D01*
X145969661Y-119495853D01*
X145873999Y-119604170D01*
X145812583Y-119734982D01*
X145811203Y-119743846D01*
X145811202Y-119743849D01*
X145791886Y-119867910D01*
X145790350Y-119877773D01*
X136231817Y-119877773D01*
X136207438Y-119870482D01*
X136207436Y-119870482D01*
X136198837Y-119867910D01*
X136189863Y-119867855D01*
X136189861Y-119867855D01*
X136126582Y-119867469D01*
X136054327Y-119867028D01*
X136045696Y-119869495D01*
X136045694Y-119869495D01*
X135924009Y-119904272D01*
X135924005Y-119904274D01*
X135915379Y-119906739D01*
X135907792Y-119911526D01*
X135907790Y-119911527D01*
X135863670Y-119939365D01*
X135793161Y-119983853D01*
X135787218Y-119990582D01*
X135787217Y-119990583D01*
X135737354Y-120047043D01*
X135697499Y-120092170D01*
X135636083Y-120222982D01*
X135634703Y-120231846D01*
X135634702Y-120231849D01*
X135615663Y-120354130D01*
X135613850Y-120365773D01*
X131615678Y-120365773D01*
X131612853Y-120357080D01*
X131607076Y-120347073D01*
X131555123Y-120257090D01*
X131517786Y-120192420D01*
X131482598Y-120153339D01*
X131394984Y-120056034D01*
X131394983Y-120056033D01*
X131390562Y-120051123D01*
X131236741Y-119939365D01*
X131230713Y-119936681D01*
X131230711Y-119936680D01*
X131069076Y-119864716D01*
X131069075Y-119864716D01*
X131063045Y-119862031D01*
X130970056Y-119842265D01*
X130883524Y-119823872D01*
X130883520Y-119823872D01*
X130877067Y-119822500D01*
X130686933Y-119822500D01*
X130680480Y-119823872D01*
X130680476Y-119823872D01*
X130593944Y-119842265D01*
X130500955Y-119862031D01*
X130494928Y-119864714D01*
X130494920Y-119864717D01*
X130479248Y-119871695D01*
X130408881Y-119881129D01*
X130344584Y-119851022D01*
X130306771Y-119790933D01*
X130302000Y-119756588D01*
X130302000Y-118958773D01*
X150429250Y-118958773D01*
X150430414Y-118967675D01*
X150430414Y-118967678D01*
X150446824Y-119093164D01*
X150447988Y-119102065D01*
X150506189Y-119234339D01*
X150599176Y-119344960D01*
X150606647Y-119349933D01*
X150606648Y-119349934D01*
X150712001Y-119420063D01*
X150712003Y-119420064D01*
X150719474Y-119425037D01*
X150728038Y-119427713D01*
X150728041Y-119427714D01*
X150788442Y-119446585D01*
X150857410Y-119468132D01*
X151001898Y-119470780D01*
X151021430Y-119465455D01*
X151132663Y-119435130D01*
X151132665Y-119435129D01*
X151141322Y-119432769D01*
X151264472Y-119357154D01*
X151361451Y-119250014D01*
X151424460Y-119119962D01*
X151448436Y-118977453D01*
X151448588Y-118965000D01*
X151428101Y-118821948D01*
X151368288Y-118690395D01*
X151362430Y-118683596D01*
X151362427Y-118683592D01*
X151279816Y-118587718D01*
X151279813Y-118587716D01*
X151273956Y-118580918D01*
X151152690Y-118502317D01*
X151135821Y-118497272D01*
X151022838Y-118463482D01*
X151022836Y-118463482D01*
X151014237Y-118460910D01*
X151005263Y-118460855D01*
X151005261Y-118460855D01*
X150941982Y-118460469D01*
X150869727Y-118460028D01*
X150861096Y-118462495D01*
X150861094Y-118462495D01*
X150739409Y-118497272D01*
X150739405Y-118497274D01*
X150730779Y-118499739D01*
X150608561Y-118576853D01*
X150512899Y-118685170D01*
X150451483Y-118815982D01*
X150429250Y-118958773D01*
X130302000Y-118958773D01*
X130302000Y-115504373D01*
X159078550Y-115504373D01*
X159079714Y-115513275D01*
X159079714Y-115513278D01*
X159096124Y-115638764D01*
X159097288Y-115647665D01*
X159155489Y-115779939D01*
X159248476Y-115890560D01*
X159255947Y-115895533D01*
X159255948Y-115895534D01*
X159361301Y-115965663D01*
X159361303Y-115965664D01*
X159368774Y-115970637D01*
X159377338Y-115973313D01*
X159377341Y-115973314D01*
X159437742Y-115992185D01*
X159506710Y-116013732D01*
X159651198Y-116016380D01*
X159670730Y-116011055D01*
X159781963Y-115980730D01*
X159781965Y-115980729D01*
X159790622Y-115978369D01*
X159913772Y-115902754D01*
X160010751Y-115795614D01*
X160073760Y-115665562D01*
X160097736Y-115523053D01*
X160097888Y-115510600D01*
X160077401Y-115367548D01*
X160017588Y-115235995D01*
X160011730Y-115229196D01*
X160011727Y-115229192D01*
X159929116Y-115133318D01*
X159929113Y-115133316D01*
X159923256Y-115126518D01*
X159801990Y-115047917D01*
X159696901Y-115016488D01*
X159672138Y-115009082D01*
X159672136Y-115009082D01*
X159663537Y-115006510D01*
X159654563Y-115006455D01*
X159654561Y-115006455D01*
X159591282Y-115006069D01*
X159519027Y-115005628D01*
X159510396Y-115008095D01*
X159510394Y-115008095D01*
X159388709Y-115042872D01*
X159388705Y-115042874D01*
X159380079Y-115045339D01*
X159257861Y-115122453D01*
X159251918Y-115129182D01*
X159251917Y-115129183D01*
X159227562Y-115156760D01*
X159162199Y-115230770D01*
X159158385Y-115238893D01*
X159158384Y-115238895D01*
X159146299Y-115264635D01*
X159100783Y-115361582D01*
X159099403Y-115370446D01*
X159099402Y-115370449D01*
X159097682Y-115381500D01*
X159078550Y-115504373D01*
X130302000Y-115504373D01*
X130302000Y-115447412D01*
X130322002Y-115379291D01*
X130375658Y-115332798D01*
X130445932Y-115322694D01*
X130479248Y-115332305D01*
X130494920Y-115339283D01*
X130494928Y-115339286D01*
X130500955Y-115341969D01*
X130582853Y-115359377D01*
X130680476Y-115380128D01*
X130680480Y-115380128D01*
X130686933Y-115381500D01*
X130877067Y-115381500D01*
X130883520Y-115380128D01*
X130883524Y-115380128D01*
X130981147Y-115359377D01*
X131063045Y-115341969D01*
X131106338Y-115322694D01*
X131230711Y-115267320D01*
X131230713Y-115267319D01*
X131236741Y-115264635D01*
X131390562Y-115152877D01*
X131422270Y-115117662D01*
X131513367Y-115016488D01*
X131513368Y-115016487D01*
X131517786Y-115011580D01*
X131612853Y-114846920D01*
X131671608Y-114666092D01*
X131691482Y-114477000D01*
X131671608Y-114287908D01*
X131612853Y-114107080D01*
X131517786Y-113942420D01*
X131390562Y-113801123D01*
X131236741Y-113689365D01*
X131230713Y-113686681D01*
X131230711Y-113686680D01*
X131069076Y-113614716D01*
X131069075Y-113614716D01*
X131063045Y-113612031D01*
X130970056Y-113592266D01*
X130883524Y-113573872D01*
X130883520Y-113573872D01*
X130877067Y-113572500D01*
X130686933Y-113572500D01*
X130680480Y-113573872D01*
X130680476Y-113573872D01*
X130593944Y-113592266D01*
X130500955Y-113612031D01*
X130494928Y-113614714D01*
X130494920Y-113614717D01*
X130479248Y-113621695D01*
X130408881Y-113631129D01*
X130344584Y-113601022D01*
X130306771Y-113540933D01*
X130302000Y-113506588D01*
X130302000Y-112769773D01*
X138047350Y-112769773D01*
X138048514Y-112778675D01*
X138048514Y-112778678D01*
X138064924Y-112904164D01*
X138066088Y-112913065D01*
X138124289Y-113045339D01*
X138217276Y-113155960D01*
X138224747Y-113160933D01*
X138224748Y-113160934D01*
X138330101Y-113231063D01*
X138330103Y-113231064D01*
X138337574Y-113236037D01*
X138346138Y-113238713D01*
X138346141Y-113238714D01*
X138406542Y-113257585D01*
X138475510Y-113279132D01*
X138619998Y-113281780D01*
X138639530Y-113276455D01*
X138750763Y-113246130D01*
X138750765Y-113246129D01*
X138759422Y-113243769D01*
X138882572Y-113168154D01*
X138979551Y-113061014D01*
X139042560Y-112930962D01*
X139066536Y-112788453D01*
X139066688Y-112776000D01*
X139046201Y-112632948D01*
X138986388Y-112501395D01*
X138980530Y-112494596D01*
X138980527Y-112494592D01*
X138897916Y-112398718D01*
X138897913Y-112398716D01*
X138892056Y-112391918D01*
X138770790Y-112313317D01*
X138753921Y-112308272D01*
X138640938Y-112274482D01*
X138640936Y-112274482D01*
X138632337Y-112271910D01*
X138623363Y-112271855D01*
X138623361Y-112271855D01*
X138560082Y-112271469D01*
X138487827Y-112271028D01*
X138479196Y-112273495D01*
X138479194Y-112273495D01*
X138357509Y-112308272D01*
X138357505Y-112308274D01*
X138348879Y-112310739D01*
X138341292Y-112315526D01*
X138341290Y-112315527D01*
X138290521Y-112347560D01*
X138226661Y-112387853D01*
X138130999Y-112496170D01*
X138069583Y-112626982D01*
X138047350Y-112769773D01*
X130302000Y-112769773D01*
X130302000Y-111961373D01*
X151627550Y-111961373D01*
X151628714Y-111970275D01*
X151628714Y-111970278D01*
X151645124Y-112095764D01*
X151646288Y-112104665D01*
X151704489Y-112236939D01*
X151797476Y-112347560D01*
X151804947Y-112352533D01*
X151804948Y-112352534D01*
X151910301Y-112422663D01*
X151910303Y-112422664D01*
X151917774Y-112427637D01*
X151926338Y-112430313D01*
X151926341Y-112430314D01*
X151986742Y-112449185D01*
X152055710Y-112470732D01*
X152200198Y-112473380D01*
X152219730Y-112468055D01*
X152330963Y-112437730D01*
X152330965Y-112437729D01*
X152339622Y-112435369D01*
X152462772Y-112359754D01*
X152559751Y-112252614D01*
X152622760Y-112122562D01*
X152646736Y-111980053D01*
X152646888Y-111967600D01*
X152626401Y-111824548D01*
X152566588Y-111692995D01*
X152560730Y-111686196D01*
X152560727Y-111686192D01*
X152478116Y-111590318D01*
X152478113Y-111590316D01*
X152472256Y-111583518D01*
X152350990Y-111504917D01*
X152334121Y-111499872D01*
X152221138Y-111466082D01*
X152221136Y-111466082D01*
X152212537Y-111463510D01*
X152203563Y-111463455D01*
X152203561Y-111463455D01*
X152140282Y-111463069D01*
X152068027Y-111462628D01*
X152059396Y-111465095D01*
X152059394Y-111465095D01*
X151937709Y-111499872D01*
X151937705Y-111499874D01*
X151929079Y-111502339D01*
X151806861Y-111579453D01*
X151711199Y-111687770D01*
X151649783Y-111818582D01*
X151627550Y-111961373D01*
X130302000Y-111961373D01*
X130302000Y-109086673D01*
X142704450Y-109086673D01*
X142705614Y-109095575D01*
X142705614Y-109095578D01*
X142715374Y-109170209D01*
X142723188Y-109229965D01*
X142781389Y-109362239D01*
X142787163Y-109369108D01*
X142793320Y-109376432D01*
X142874376Y-109472860D01*
X142881847Y-109477833D01*
X142881848Y-109477834D01*
X142987201Y-109547963D01*
X142987203Y-109547964D01*
X142994674Y-109552937D01*
X143003238Y-109555613D01*
X143003241Y-109555614D01*
X143063642Y-109574485D01*
X143132610Y-109596032D01*
X143277098Y-109598680D01*
X143297602Y-109593090D01*
X143407863Y-109563030D01*
X143407865Y-109563029D01*
X143416522Y-109560669D01*
X143539672Y-109485054D01*
X143636651Y-109377914D01*
X143699660Y-109247862D01*
X143723636Y-109105353D01*
X143723788Y-109092900D01*
X143705605Y-108965934D01*
X143704574Y-108958735D01*
X143704573Y-108958733D01*
X143703301Y-108949848D01*
X143643488Y-108818295D01*
X143637630Y-108811496D01*
X143637627Y-108811492D01*
X143555016Y-108715618D01*
X143555013Y-108715616D01*
X143549156Y-108708818D01*
X143487382Y-108668778D01*
X143473643Y-108659873D01*
X146588750Y-108659873D01*
X146589914Y-108668775D01*
X146589914Y-108668778D01*
X146602131Y-108762197D01*
X146607488Y-108803165D01*
X146665689Y-108935439D01*
X146671463Y-108942308D01*
X146750273Y-109036063D01*
X146758676Y-109046060D01*
X146766147Y-109051033D01*
X146766148Y-109051034D01*
X146871501Y-109121163D01*
X146871503Y-109121164D01*
X146878974Y-109126137D01*
X146887538Y-109128813D01*
X146887541Y-109128814D01*
X146947942Y-109147685D01*
X147016910Y-109169232D01*
X147161398Y-109171880D01*
X147170063Y-109169518D01*
X147178965Y-109168409D01*
X147179189Y-109170209D01*
X147239284Y-109171374D01*
X147298255Y-109210908D01*
X147326385Y-109275221D01*
X147337088Y-109357065D01*
X147395289Y-109489339D01*
X147488276Y-109599960D01*
X147495747Y-109604933D01*
X147495748Y-109604934D01*
X147601101Y-109675063D01*
X147601103Y-109675064D01*
X147608574Y-109680037D01*
X147617138Y-109682713D01*
X147617141Y-109682714D01*
X147677542Y-109701584D01*
X147746510Y-109723132D01*
X147890998Y-109725780D01*
X147910530Y-109720455D01*
X148021763Y-109690130D01*
X148021765Y-109690129D01*
X148030422Y-109687769D01*
X148153572Y-109612154D01*
X148165918Y-109598515D01*
X148244526Y-109511670D01*
X148250551Y-109505014D01*
X148310707Y-109380851D01*
X148358407Y-109328269D01*
X148426966Y-109309823D01*
X148480902Y-109326803D01*
X148482001Y-109324499D01*
X148490102Y-109328363D01*
X148497574Y-109333337D01*
X148506138Y-109336013D01*
X148506141Y-109336014D01*
X148545031Y-109348164D01*
X148635510Y-109376432D01*
X148779998Y-109379080D01*
X148813916Y-109369833D01*
X148910763Y-109343430D01*
X148910765Y-109343429D01*
X148919422Y-109341069D01*
X149042572Y-109265454D01*
X149139551Y-109158314D01*
X149175412Y-109084296D01*
X149198645Y-109036343D01*
X149198645Y-109036342D01*
X149202560Y-109028262D01*
X149226536Y-108885753D01*
X149226688Y-108873300D01*
X149209709Y-108754745D01*
X149207474Y-108739135D01*
X149207473Y-108739133D01*
X149206201Y-108730248D01*
X149146388Y-108598695D01*
X149140530Y-108591896D01*
X149140527Y-108591892D01*
X149125776Y-108574773D01*
X156714550Y-108574773D01*
X156715714Y-108583675D01*
X156715714Y-108583678D01*
X156726843Y-108668778D01*
X156733288Y-108718065D01*
X156791489Y-108850339D01*
X156797263Y-108857208D01*
X156806742Y-108868484D01*
X156884476Y-108960960D01*
X156891947Y-108965933D01*
X156891948Y-108965934D01*
X156997301Y-109036063D01*
X156997303Y-109036064D01*
X157004774Y-109041037D01*
X157013338Y-109043713D01*
X157013341Y-109043714D01*
X157073742Y-109062585D01*
X157142710Y-109084132D01*
X157287198Y-109086780D01*
X157320133Y-109077801D01*
X157417963Y-109051130D01*
X157417965Y-109051129D01*
X157426622Y-109048769D01*
X157549772Y-108973154D01*
X157646751Y-108866014D01*
X157709760Y-108735962D01*
X157733736Y-108593453D01*
X157733888Y-108581000D01*
X157713401Y-108437948D01*
X157653588Y-108306395D01*
X157647730Y-108299596D01*
X157647727Y-108299592D01*
X157565116Y-108203718D01*
X157565113Y-108203716D01*
X157559256Y-108196918D01*
X157437990Y-108118317D01*
X157319165Y-108082780D01*
X157308138Y-108079482D01*
X157308136Y-108079482D01*
X157299537Y-108076910D01*
X157290563Y-108076855D01*
X157290561Y-108076855D01*
X157227282Y-108076469D01*
X157155027Y-108076028D01*
X157146396Y-108078495D01*
X157146394Y-108078495D01*
X157024709Y-108113272D01*
X157024705Y-108113274D01*
X157016079Y-108115739D01*
X157008492Y-108120526D01*
X157008490Y-108120527D01*
X156901454Y-108188062D01*
X156893861Y-108192853D01*
X156887918Y-108199582D01*
X156887917Y-108199583D01*
X156822935Y-108273162D01*
X156798199Y-108301170D01*
X156736783Y-108431982D01*
X156735403Y-108440846D01*
X156735402Y-108440849D01*
X156722604Y-108523048D01*
X156714550Y-108574773D01*
X149125776Y-108574773D01*
X149057916Y-108496018D01*
X149057913Y-108496016D01*
X149052056Y-108489218D01*
X148977432Y-108440849D01*
X148938324Y-108415500D01*
X148938322Y-108415499D01*
X148930790Y-108410617D01*
X148894183Y-108399669D01*
X148800938Y-108371782D01*
X148800936Y-108371782D01*
X148792337Y-108369210D01*
X148783363Y-108369155D01*
X148783361Y-108369155D01*
X148720082Y-108368769D01*
X148647827Y-108368328D01*
X148639196Y-108370795D01*
X148639194Y-108370795D01*
X148517509Y-108405572D01*
X148517505Y-108405574D01*
X148508879Y-108408039D01*
X148501292Y-108412826D01*
X148501290Y-108412827D01*
X148461476Y-108437948D01*
X148386661Y-108485153D01*
X148290999Y-108593470D01*
X148287184Y-108601595D01*
X148287183Y-108601597D01*
X148235261Y-108712188D01*
X148188205Y-108765351D01*
X148119877Y-108784633D01*
X148057528Y-108765835D01*
X148057469Y-108765964D01*
X148056557Y-108765543D01*
X148052675Y-108764372D01*
X148041790Y-108757317D01*
X147980995Y-108739135D01*
X147911938Y-108718482D01*
X147911936Y-108718482D01*
X147903337Y-108715910D01*
X147894363Y-108715855D01*
X147894361Y-108715855D01*
X147831082Y-108715469D01*
X147758827Y-108715028D01*
X147750193Y-108717496D01*
X147742117Y-108718602D01*
X147671912Y-108708032D01*
X147618566Y-108661183D01*
X147600287Y-108611630D01*
X147598371Y-108598247D01*
X147587601Y-108523048D01*
X147527788Y-108391495D01*
X147521930Y-108384696D01*
X147521927Y-108384692D01*
X147439316Y-108288818D01*
X147439313Y-108288816D01*
X147433456Y-108282018D01*
X147312190Y-108203417D01*
X147274132Y-108192035D01*
X147182338Y-108164582D01*
X147182336Y-108164582D01*
X147173737Y-108162010D01*
X147164763Y-108161955D01*
X147164761Y-108161955D01*
X147101482Y-108161569D01*
X147029227Y-108161128D01*
X147020596Y-108163595D01*
X147020594Y-108163595D01*
X146898909Y-108198372D01*
X146898905Y-108198374D01*
X146890279Y-108200839D01*
X146768061Y-108277953D01*
X146762118Y-108284682D01*
X146762117Y-108284683D01*
X146742942Y-108306395D01*
X146672399Y-108386270D01*
X146668585Y-108394393D01*
X146668584Y-108394395D01*
X146650937Y-108431982D01*
X146610983Y-108517082D01*
X146609603Y-108525946D01*
X146609602Y-108525949D01*
X146593368Y-108630217D01*
X146588750Y-108659873D01*
X143473643Y-108659873D01*
X143435424Y-108635100D01*
X143435422Y-108635099D01*
X143427890Y-108630217D01*
X143411021Y-108625172D01*
X143298038Y-108591382D01*
X143298036Y-108591382D01*
X143289437Y-108588810D01*
X143280463Y-108588755D01*
X143280461Y-108588755D01*
X143217182Y-108588369D01*
X143144927Y-108587928D01*
X143136296Y-108590395D01*
X143136294Y-108590395D01*
X143014609Y-108625172D01*
X143014605Y-108625174D01*
X143005979Y-108627639D01*
X142998392Y-108632426D01*
X142998390Y-108632427D01*
X142925285Y-108678553D01*
X142883761Y-108704753D01*
X142877818Y-108711482D01*
X142877817Y-108711483D01*
X142856198Y-108735962D01*
X142788099Y-108813070D01*
X142726683Y-108943882D01*
X142725303Y-108952746D01*
X142725302Y-108952749D01*
X142710352Y-109048769D01*
X142704450Y-109086673D01*
X130302000Y-109086673D01*
X130302000Y-107570773D01*
X133340850Y-107570773D01*
X133342014Y-107579675D01*
X133342014Y-107579678D01*
X133346436Y-107613490D01*
X133359588Y-107714065D01*
X133417789Y-107846339D01*
X133510776Y-107956960D01*
X133518247Y-107961933D01*
X133518248Y-107961934D01*
X133623601Y-108032063D01*
X133623603Y-108032064D01*
X133631074Y-108037037D01*
X133639638Y-108039713D01*
X133639641Y-108039714D01*
X133700042Y-108058585D01*
X133769010Y-108080132D01*
X133913498Y-108082780D01*
X133925595Y-108079482D01*
X134044263Y-108047130D01*
X134044265Y-108047129D01*
X134052922Y-108044769D01*
X134176072Y-107969154D01*
X134273051Y-107862014D01*
X134329172Y-107746180D01*
X134332145Y-107740043D01*
X134332145Y-107740042D01*
X134336060Y-107731962D01*
X134360036Y-107589453D01*
X134360188Y-107577000D01*
X134349379Y-107501525D01*
X134340974Y-107442835D01*
X134340973Y-107442833D01*
X134339701Y-107433948D01*
X134332300Y-107417669D01*
X134300055Y-107346750D01*
X134279888Y-107302395D01*
X134274030Y-107295596D01*
X134274027Y-107295592D01*
X134221105Y-107234173D01*
X141896750Y-107234173D01*
X141897914Y-107243075D01*
X141897914Y-107243078D01*
X141904988Y-107297170D01*
X141915488Y-107377465D01*
X141973689Y-107509739D01*
X141979463Y-107516608D01*
X142036611Y-107584593D01*
X142066676Y-107620360D01*
X142074147Y-107625333D01*
X142074148Y-107625334D01*
X142179501Y-107695463D01*
X142179503Y-107695464D01*
X142186974Y-107700437D01*
X142195538Y-107703113D01*
X142195541Y-107703114D01*
X142255942Y-107721985D01*
X142324910Y-107743532D01*
X142469398Y-107746180D01*
X142488930Y-107740855D01*
X142600163Y-107710530D01*
X142600165Y-107710529D01*
X142608822Y-107708169D01*
X142731972Y-107632554D01*
X142828951Y-107525414D01*
X142871860Y-107436849D01*
X142888045Y-107403443D01*
X142888045Y-107403442D01*
X142891960Y-107395362D01*
X142915936Y-107252853D01*
X142916088Y-107240400D01*
X142898031Y-107114317D01*
X142896874Y-107106235D01*
X142896873Y-107106233D01*
X142895601Y-107097348D01*
X142835788Y-106965795D01*
X142829930Y-106958996D01*
X142829927Y-106958992D01*
X142816727Y-106943673D01*
X151832150Y-106943673D01*
X151833314Y-106952575D01*
X151833314Y-106952578D01*
X151848935Y-107072028D01*
X151850888Y-107086965D01*
X151909089Y-107219239D01*
X151914863Y-107226108D01*
X151968942Y-107290442D01*
X152002076Y-107329860D01*
X152009547Y-107334833D01*
X152009548Y-107334834D01*
X152114901Y-107404963D01*
X152114903Y-107404964D01*
X152122374Y-107409937D01*
X152130938Y-107412613D01*
X152130941Y-107412614D01*
X152180131Y-107427982D01*
X152260310Y-107453032D01*
X152404798Y-107455680D01*
X152424330Y-107450355D01*
X152535563Y-107420030D01*
X152535565Y-107420029D01*
X152544222Y-107417669D01*
X152667372Y-107342054D01*
X152764351Y-107234914D01*
X152795855Y-107169888D01*
X152823445Y-107112943D01*
X152823445Y-107112942D01*
X152827360Y-107104862D01*
X152851336Y-106962353D01*
X152851488Y-106949900D01*
X152839060Y-106863118D01*
X152832274Y-106815735D01*
X152832273Y-106815733D01*
X152831001Y-106806848D01*
X152771188Y-106675295D01*
X152765330Y-106668496D01*
X152765327Y-106668492D01*
X152682716Y-106572618D01*
X152682713Y-106572616D01*
X152676856Y-106565818D01*
X152555590Y-106487217D01*
X152538721Y-106482172D01*
X152425738Y-106448382D01*
X152425736Y-106448382D01*
X152417137Y-106445810D01*
X152408163Y-106445755D01*
X152408161Y-106445755D01*
X152344882Y-106445369D01*
X152272627Y-106444928D01*
X152263996Y-106447395D01*
X152263994Y-106447395D01*
X152142309Y-106482172D01*
X152142305Y-106482174D01*
X152133679Y-106484639D01*
X152011461Y-106561753D01*
X151915799Y-106670070D01*
X151854383Y-106800882D01*
X151853003Y-106809746D01*
X151853002Y-106809749D01*
X151844693Y-106863118D01*
X151832150Y-106943673D01*
X142816727Y-106943673D01*
X142747316Y-106863118D01*
X142747313Y-106863116D01*
X142741456Y-106856318D01*
X142669609Y-106809749D01*
X142627724Y-106782600D01*
X142627722Y-106782599D01*
X142620190Y-106777717D01*
X142603321Y-106772672D01*
X142490338Y-106738882D01*
X142490336Y-106738882D01*
X142481737Y-106736310D01*
X142472763Y-106736255D01*
X142472761Y-106736255D01*
X142409482Y-106735869D01*
X142337227Y-106735428D01*
X142328596Y-106737895D01*
X142328594Y-106737895D01*
X142206909Y-106772672D01*
X142206905Y-106772674D01*
X142198279Y-106775139D01*
X142190692Y-106779926D01*
X142190690Y-106779927D01*
X142133938Y-106815735D01*
X142076061Y-106852253D01*
X141980399Y-106960570D01*
X141918983Y-107091382D01*
X141917603Y-107100246D01*
X141917602Y-107100249D01*
X141902115Y-107199718D01*
X141896750Y-107234173D01*
X134221105Y-107234173D01*
X134191416Y-107199718D01*
X134191413Y-107199716D01*
X134185556Y-107192918D01*
X134064290Y-107114317D01*
X134003077Y-107096010D01*
X133934438Y-107075482D01*
X133934436Y-107075482D01*
X133925837Y-107072910D01*
X133916863Y-107072855D01*
X133916861Y-107072855D01*
X133853582Y-107072469D01*
X133781327Y-107072028D01*
X133772696Y-107074495D01*
X133772694Y-107074495D01*
X133651009Y-107109272D01*
X133651005Y-107109274D01*
X133642379Y-107111739D01*
X133520161Y-107188853D01*
X133514218Y-107195582D01*
X133514217Y-107195583D01*
X133463638Y-107252853D01*
X133424499Y-107297170D01*
X133420685Y-107305293D01*
X133420684Y-107305295D01*
X133409151Y-107329860D01*
X133363083Y-107427982D01*
X133361703Y-107436846D01*
X133361702Y-107436849D01*
X133347913Y-107525414D01*
X133340850Y-107570773D01*
X130302000Y-107570773D01*
X130302000Y-104965273D01*
X134792050Y-104965273D01*
X134793214Y-104974175D01*
X134793214Y-104974178D01*
X134802966Y-105048749D01*
X134810788Y-105108565D01*
X134868989Y-105240839D01*
X134874763Y-105247708D01*
X134947451Y-105334180D01*
X134961976Y-105351460D01*
X134969447Y-105356433D01*
X134969448Y-105356434D01*
X135074801Y-105426563D01*
X135074803Y-105426564D01*
X135082274Y-105431537D01*
X135090838Y-105434213D01*
X135090841Y-105434214D01*
X135141449Y-105450025D01*
X135220210Y-105474632D01*
X135364698Y-105477280D01*
X135409345Y-105465108D01*
X135495463Y-105441630D01*
X135495465Y-105441629D01*
X135504122Y-105439269D01*
X135627272Y-105363654D01*
X135724251Y-105256514D01*
X135760026Y-105182673D01*
X138306150Y-105182673D01*
X138307314Y-105191575D01*
X138307314Y-105191578D01*
X138315806Y-105256514D01*
X138324888Y-105325965D01*
X138383089Y-105458239D01*
X138476076Y-105568860D01*
X138483547Y-105573833D01*
X138483548Y-105573834D01*
X138588901Y-105643963D01*
X138588903Y-105643964D01*
X138596374Y-105648937D01*
X138604938Y-105651613D01*
X138604943Y-105651615D01*
X138722989Y-105688495D01*
X138782046Y-105727901D01*
X138810350Y-105792424D01*
X138828088Y-105928065D01*
X138886289Y-106060339D01*
X138979276Y-106170960D01*
X138986747Y-106175933D01*
X138986748Y-106175934D01*
X139092101Y-106246063D01*
X139092103Y-106246064D01*
X139099574Y-106251037D01*
X139108138Y-106253713D01*
X139108141Y-106253714D01*
X139168542Y-106272584D01*
X139237510Y-106294132D01*
X139381998Y-106296780D01*
X139401530Y-106291455D01*
X139512763Y-106261130D01*
X139512765Y-106261129D01*
X139521422Y-106258769D01*
X139644572Y-106183154D01*
X139741551Y-106076014D01*
X139804560Y-105945962D01*
X139828536Y-105803453D01*
X139828688Y-105791000D01*
X139814749Y-105693667D01*
X139809474Y-105656835D01*
X139809473Y-105656833D01*
X139808201Y-105647948D01*
X139748388Y-105516395D01*
X139742530Y-105509596D01*
X139742527Y-105509592D01*
X139659916Y-105413718D01*
X139659913Y-105413716D01*
X139654056Y-105406918D01*
X139557896Y-105344590D01*
X139540324Y-105333200D01*
X139540322Y-105333199D01*
X139532790Y-105328317D01*
X139524190Y-105325745D01*
X139414183Y-105292845D01*
X139354650Y-105254163D01*
X139325481Y-105189438D01*
X139325488Y-105188900D01*
X139324597Y-105182673D01*
X139306274Y-105054735D01*
X139306273Y-105054733D01*
X139305001Y-105045848D01*
X139245188Y-104914295D01*
X139239330Y-104907496D01*
X139239327Y-104907492D01*
X139156716Y-104811618D01*
X139156713Y-104811616D01*
X139150856Y-104804818D01*
X139029590Y-104726217D01*
X139012721Y-104721172D01*
X138899738Y-104687382D01*
X138899736Y-104687382D01*
X138891137Y-104684810D01*
X138882163Y-104684755D01*
X138882161Y-104684755D01*
X138818882Y-104684369D01*
X138746627Y-104683928D01*
X138737996Y-104686395D01*
X138737994Y-104686395D01*
X138616309Y-104721172D01*
X138616305Y-104721174D01*
X138607679Y-104723639D01*
X138485461Y-104800753D01*
X138479518Y-104807482D01*
X138479517Y-104807483D01*
X138453153Y-104837335D01*
X138389799Y-104909070D01*
X138328383Y-105039882D01*
X138327003Y-105048746D01*
X138327002Y-105048749D01*
X138316281Y-105117610D01*
X138306150Y-105182673D01*
X135760026Y-105182673D01*
X135787260Y-105126462D01*
X135811236Y-104983953D01*
X135811388Y-104971500D01*
X135790901Y-104828448D01*
X135731088Y-104696895D01*
X135725230Y-104690096D01*
X135725227Y-104690092D01*
X135642616Y-104594218D01*
X135642613Y-104594216D01*
X135636756Y-104587418D01*
X135515490Y-104508817D01*
X135498621Y-104503772D01*
X135385638Y-104469982D01*
X135385636Y-104469982D01*
X135377037Y-104467410D01*
X135368063Y-104467355D01*
X135368061Y-104467355D01*
X135304782Y-104466969D01*
X135232527Y-104466528D01*
X135223896Y-104468995D01*
X135223894Y-104468995D01*
X135102209Y-104503772D01*
X135102205Y-104503774D01*
X135093579Y-104506239D01*
X134971361Y-104583353D01*
X134875699Y-104691670D01*
X134871885Y-104699793D01*
X134871884Y-104699795D01*
X134857187Y-104731100D01*
X134814283Y-104822482D01*
X134812903Y-104831346D01*
X134812902Y-104831349D01*
X134798715Y-104922469D01*
X134792050Y-104965273D01*
X130302000Y-104965273D01*
X130302000Y-103625773D01*
X138809350Y-103625773D01*
X138810514Y-103634675D01*
X138810514Y-103634678D01*
X138826924Y-103760164D01*
X138828088Y-103769065D01*
X138886289Y-103901339D01*
X138979276Y-104011960D01*
X138986747Y-104016933D01*
X138986748Y-104016934D01*
X139092101Y-104087063D01*
X139092103Y-104087064D01*
X139099574Y-104092037D01*
X139108138Y-104094713D01*
X139108141Y-104094714D01*
X139168542Y-104113584D01*
X139237510Y-104135132D01*
X139381998Y-104137780D01*
X139401530Y-104132455D01*
X139512763Y-104102130D01*
X139512765Y-104102129D01*
X139521422Y-104099769D01*
X139644572Y-104024154D01*
X139741551Y-103917014D01*
X139804560Y-103786962D01*
X139828536Y-103644453D01*
X139828688Y-103632000D01*
X139808201Y-103488948D01*
X139748388Y-103357395D01*
X139742530Y-103350596D01*
X139742527Y-103350592D01*
X139659916Y-103254718D01*
X139659913Y-103254716D01*
X139654056Y-103247918D01*
X139532790Y-103169317D01*
X139515921Y-103164272D01*
X139402938Y-103130482D01*
X139402936Y-103130482D01*
X139394337Y-103127910D01*
X139385363Y-103127855D01*
X139385361Y-103127855D01*
X139322082Y-103127469D01*
X139249827Y-103127028D01*
X139241196Y-103129495D01*
X139241194Y-103129495D01*
X139119509Y-103164272D01*
X139119505Y-103164274D01*
X139110879Y-103166739D01*
X138988661Y-103243853D01*
X138892999Y-103352170D01*
X138831583Y-103482982D01*
X138809350Y-103625773D01*
X130302000Y-103625773D01*
X130302000Y-100958773D01*
X138555350Y-100958773D01*
X138556514Y-100967675D01*
X138556514Y-100967678D01*
X138572924Y-101093164D01*
X138574088Y-101102065D01*
X138632289Y-101234339D01*
X138725276Y-101344960D01*
X138732747Y-101349933D01*
X138732748Y-101349934D01*
X138838101Y-101420063D01*
X138838103Y-101420064D01*
X138845574Y-101425037D01*
X138854138Y-101427713D01*
X138854141Y-101427714D01*
X138914542Y-101446584D01*
X138983510Y-101468132D01*
X139127998Y-101470780D01*
X139147530Y-101465455D01*
X139258763Y-101435130D01*
X139258765Y-101435129D01*
X139267422Y-101432769D01*
X139390572Y-101357154D01*
X139487551Y-101250014D01*
X139550560Y-101119962D01*
X139574536Y-100977453D01*
X139574688Y-100965000D01*
X139561895Y-100875670D01*
X139555474Y-100830835D01*
X139555473Y-100830833D01*
X139554201Y-100821948D01*
X139537994Y-100786302D01*
X139528008Y-100716011D01*
X139557609Y-100651479D01*
X139617399Y-100613196D01*
X139655003Y-100608172D01*
X139717421Y-100609316D01*
X139717425Y-100609316D01*
X139726398Y-100609480D01*
X139735062Y-100607118D01*
X139857163Y-100573830D01*
X139857165Y-100573829D01*
X139865822Y-100571469D01*
X139988972Y-100495854D01*
X140085951Y-100388714D01*
X140126912Y-100304170D01*
X140145045Y-100266743D01*
X140145045Y-100266742D01*
X140148960Y-100258662D01*
X140172936Y-100116153D01*
X140173088Y-100103700D01*
X140152601Y-99960648D01*
X140092788Y-99829095D01*
X140086930Y-99822296D01*
X140086927Y-99822292D01*
X140004316Y-99726418D01*
X140004313Y-99726416D01*
X139998456Y-99719618D01*
X139877190Y-99641017D01*
X139860321Y-99635972D01*
X139747338Y-99602182D01*
X139747336Y-99602182D01*
X139738737Y-99599610D01*
X139729763Y-99599555D01*
X139729761Y-99599555D01*
X139666482Y-99599169D01*
X139594227Y-99598728D01*
X139585596Y-99601195D01*
X139585594Y-99601195D01*
X139463909Y-99635972D01*
X139463905Y-99635974D01*
X139455279Y-99638439D01*
X139333061Y-99715553D01*
X139327118Y-99722282D01*
X139327117Y-99722283D01*
X139326607Y-99722861D01*
X139237399Y-99823870D01*
X139175983Y-99954682D01*
X139174603Y-99963546D01*
X139174602Y-99963549D01*
X139155461Y-100086485D01*
X139153750Y-100097473D01*
X139154914Y-100106375D01*
X139154914Y-100106378D01*
X139167481Y-100202476D01*
X139172488Y-100240765D01*
X139176103Y-100248980D01*
X139191410Y-100283770D01*
X139200536Y-100354178D01*
X139170149Y-100418343D01*
X139109895Y-100455893D01*
X139075311Y-100460513D01*
X139049949Y-100460358D01*
X138995827Y-100460028D01*
X138987196Y-100462495D01*
X138987194Y-100462495D01*
X138865509Y-100497272D01*
X138865505Y-100497274D01*
X138856879Y-100499739D01*
X138849292Y-100504526D01*
X138849290Y-100504527D01*
X138750637Y-100566773D01*
X138734661Y-100576853D01*
X138728718Y-100583582D01*
X138728717Y-100583583D01*
X138708135Y-100606888D01*
X138638999Y-100685170D01*
X138577583Y-100815982D01*
X138576203Y-100824846D01*
X138576202Y-100824849D01*
X138569326Y-100869014D01*
X138555350Y-100958773D01*
X130302000Y-100958773D01*
X130302000Y-99494574D01*
X130322002Y-99426453D01*
X130375658Y-99379960D01*
X130445932Y-99369856D01*
X130510512Y-99399350D01*
X130536620Y-99430717D01*
X130551552Y-99456117D01*
X130553853Y-99459132D01*
X130749548Y-99715553D01*
X130753046Y-99720137D01*
X130755691Y-99722852D01*
X130755699Y-99722861D01*
X130979381Y-99952477D01*
X130984798Y-99958038D01*
X130987742Y-99960409D01*
X130987745Y-99960412D01*
X131146896Y-100088601D01*
X131243453Y-100166374D01*
X131246681Y-100168387D01*
X131431692Y-100283770D01*
X131525264Y-100342127D01*
X131826147Y-100482751D01*
X131877969Y-100499739D01*
X132125606Y-100580918D01*
X132141746Y-100586209D01*
X132145460Y-100586948D01*
X132145461Y-100586948D01*
X132168813Y-100591593D01*
X132467488Y-100651003D01*
X132471261Y-100651290D01*
X132471268Y-100651291D01*
X132794878Y-100675908D01*
X132794883Y-100675908D01*
X132798655Y-100676195D01*
X133130450Y-100661418D01*
X133458067Y-100606888D01*
X133461701Y-100605822D01*
X133461705Y-100605821D01*
X133605154Y-100563737D01*
X133776759Y-100513393D01*
X133797396Y-100504527D01*
X134051467Y-100395370D01*
X134081912Y-100382290D01*
X134369103Y-100215475D01*
X134634175Y-100015367D01*
X134873286Y-99784863D01*
X134923764Y-99722861D01*
X135080582Y-99530239D01*
X135080583Y-99530238D01*
X135082973Y-99527302D01*
X135103623Y-99494574D01*
X135258176Y-99249623D01*
X135258179Y-99249617D01*
X135260199Y-99246416D01*
X135402397Y-98946273D01*
X135507506Y-98631220D01*
X135539110Y-98476573D01*
X138740983Y-98476573D01*
X138742147Y-98485475D01*
X138742147Y-98485478D01*
X138749721Y-98543397D01*
X138759721Y-98619865D01*
X138817922Y-98752139D01*
X138910909Y-98862760D01*
X138918380Y-98867733D01*
X138918381Y-98867734D01*
X139023734Y-98937863D01*
X139023736Y-98937864D01*
X139031207Y-98942837D01*
X139039771Y-98945513D01*
X139039774Y-98945514D01*
X139100175Y-98964384D01*
X139169143Y-98985932D01*
X139313631Y-98988580D01*
X139333163Y-98983255D01*
X139444396Y-98952930D01*
X139444398Y-98952929D01*
X139453055Y-98950569D01*
X139576205Y-98874954D01*
X139673184Y-98767814D01*
X139736193Y-98637762D01*
X139760169Y-98495253D01*
X139760321Y-98482800D01*
X139739834Y-98339748D01*
X139680021Y-98208195D01*
X139674163Y-98201396D01*
X139674160Y-98201392D01*
X139642607Y-98164773D01*
X152271350Y-98164773D01*
X152272514Y-98173675D01*
X152272514Y-98173678D01*
X152288924Y-98299164D01*
X152290088Y-98308065D01*
X152348289Y-98440339D01*
X152354063Y-98447208D01*
X152434919Y-98543397D01*
X152441276Y-98550960D01*
X152448747Y-98555933D01*
X152448748Y-98555934D01*
X152554101Y-98626063D01*
X152554103Y-98626064D01*
X152561574Y-98631037D01*
X152570138Y-98633713D01*
X152570141Y-98633714D01*
X152608964Y-98645843D01*
X152699510Y-98674132D01*
X152843998Y-98676780D01*
X152863530Y-98671455D01*
X152974763Y-98641130D01*
X152974765Y-98641129D01*
X152983422Y-98638769D01*
X153106572Y-98563154D01*
X153203551Y-98456014D01*
X153266560Y-98325962D01*
X153290536Y-98183453D01*
X153290688Y-98171000D01*
X153270201Y-98027948D01*
X153210388Y-97896395D01*
X153204530Y-97889596D01*
X153204527Y-97889592D01*
X153121916Y-97793718D01*
X153121913Y-97793716D01*
X153116056Y-97786918D01*
X152994790Y-97708317D01*
X152977921Y-97703272D01*
X152864938Y-97669482D01*
X152864936Y-97669482D01*
X152856337Y-97666910D01*
X152847363Y-97666855D01*
X152847361Y-97666855D01*
X152784082Y-97666469D01*
X152711827Y-97666028D01*
X152703196Y-97668495D01*
X152703194Y-97668495D01*
X152581509Y-97703272D01*
X152581505Y-97703274D01*
X152572879Y-97705739D01*
X152450661Y-97782853D01*
X152354999Y-97891170D01*
X152293583Y-98021982D01*
X152292203Y-98030846D01*
X152292202Y-98030849D01*
X152283014Y-98089862D01*
X152271350Y-98164773D01*
X139642607Y-98164773D01*
X139591549Y-98105518D01*
X139591546Y-98105516D01*
X139585689Y-98098718D01*
X139490216Y-98036835D01*
X139471957Y-98025000D01*
X139471955Y-98024999D01*
X139464423Y-98020117D01*
X139443498Y-98013859D01*
X139334571Y-97981282D01*
X139334569Y-97981282D01*
X139325970Y-97978710D01*
X139316996Y-97978655D01*
X139316994Y-97978655D01*
X139253715Y-97978269D01*
X139181460Y-97977828D01*
X139172829Y-97980295D01*
X139172827Y-97980295D01*
X139051142Y-98015072D01*
X139051138Y-98015074D01*
X139042512Y-98017539D01*
X139034925Y-98022326D01*
X139034923Y-98022327D01*
X138927887Y-98089862D01*
X138920294Y-98094653D01*
X138824632Y-98202970D01*
X138763216Y-98333782D01*
X138761836Y-98342646D01*
X138761835Y-98342649D01*
X138743148Y-98462670D01*
X138740983Y-98476573D01*
X135539110Y-98476573D01*
X135574005Y-98305822D01*
X135600930Y-97974791D01*
X135601535Y-97917000D01*
X135599573Y-97884442D01*
X135581777Y-97589256D01*
X135581777Y-97589252D01*
X135581549Y-97585478D01*
X135580869Y-97581754D01*
X135522559Y-97262481D01*
X135522558Y-97262477D01*
X135521879Y-97258759D01*
X135513177Y-97230732D01*
X135424513Y-96945189D01*
X135423391Y-96941574D01*
X135412913Y-96918203D01*
X135350172Y-96778272D01*
X135287510Y-96638518D01*
X135116205Y-96353982D01*
X135113878Y-96350998D01*
X135113873Y-96350991D01*
X134914294Y-96095082D01*
X134914292Y-96095079D01*
X134911958Y-96092087D01*
X134826095Y-96005773D01*
X151382350Y-96005773D01*
X151383514Y-96014675D01*
X151383514Y-96014678D01*
X151393637Y-96092087D01*
X151401088Y-96149065D01*
X151459289Y-96281339D01*
X151552276Y-96391960D01*
X151559747Y-96396933D01*
X151559748Y-96396934D01*
X151665101Y-96467063D01*
X151665103Y-96467064D01*
X151672574Y-96472037D01*
X151681138Y-96474713D01*
X151681141Y-96474714D01*
X151741542Y-96493585D01*
X151810510Y-96515132D01*
X151954998Y-96517780D01*
X151974530Y-96512455D01*
X152085763Y-96482130D01*
X152085765Y-96482129D01*
X152094422Y-96479769D01*
X152217572Y-96404154D01*
X152314551Y-96297014D01*
X152377560Y-96166962D01*
X152401536Y-96024453D01*
X152401688Y-96012000D01*
X152381201Y-95868948D01*
X152321388Y-95737395D01*
X152315530Y-95730596D01*
X152315527Y-95730592D01*
X152232916Y-95634718D01*
X152232913Y-95634716D01*
X152227056Y-95627918D01*
X152105790Y-95549317D01*
X152088921Y-95544272D01*
X151975938Y-95510482D01*
X151975936Y-95510482D01*
X151967337Y-95507910D01*
X151958363Y-95507855D01*
X151958361Y-95507855D01*
X151895082Y-95507469D01*
X151822827Y-95507028D01*
X151814196Y-95509495D01*
X151814194Y-95509495D01*
X151692509Y-95544272D01*
X151692505Y-95544274D01*
X151683879Y-95546739D01*
X151561661Y-95623853D01*
X151555718Y-95630582D01*
X151555717Y-95630583D01*
X151552065Y-95634718D01*
X151465999Y-95732170D01*
X151404583Y-95862982D01*
X151382350Y-96005773D01*
X134826095Y-96005773D01*
X134677726Y-95856626D01*
X134656865Y-95840180D01*
X134419885Y-95653360D01*
X134416904Y-95651010D01*
X134257992Y-95554200D01*
X134142112Y-95483605D01*
X134094343Y-95431082D01*
X134082553Y-95361071D01*
X134110485Y-95295800D01*
X134169271Y-95255992D01*
X134207665Y-95250000D01*
X156879217Y-95250000D01*
X156947338Y-95270002D01*
G37*
%TD.AperFunction*%
%TD*%
M02*
