%TF.GenerationSoftware,KiCad,Pcbnew,(6.0.1)*%
%TF.CreationDate,2022-09-11T15:04:47+02:00*%
%TF.ProjectId,trick-tracker,74726963-6b2d-4747-9261-636b65722e6b,rev?*%
%TF.SameCoordinates,Original*%
%TF.FileFunction,Legend,Top*%
%TF.FilePolarity,Positive*%
%FSLAX46Y46*%
G04 Gerber Fmt 4.6, Leading zero omitted, Abs format (unit mm)*
G04 Created by KiCad (PCBNEW (6.0.1)) date 2022-09-11 15:04:47*
%MOMM*%
%LPD*%
G01*
G04 APERTURE LIST*
%ADD10C,0.120000*%
%ADD11C,0.150000*%
%ADD12C,0.127000*%
%ADD13C,0.160000*%
%ADD14C,0.200000*%
%ADD15C,0.100000*%
%ADD16C,0.010000*%
%ADD17C,0.254000*%
%ADD18C,1.300000*%
G04 APERTURE END LIST*
D10*
X141732000Y-106680000D02*
X141859000Y-106426000D01*
X141986000Y-106680000D02*
X141732000Y-106680000D01*
X141351000Y-108585000D02*
X139700000Y-108585000D01*
X139954000Y-108458000D02*
X139954000Y-108712000D01*
X139700000Y-108585000D02*
X139954000Y-108458000D01*
X139700000Y-108585000D02*
X139954000Y-108712000D01*
X139954000Y-108712000D02*
X139700000Y-108585000D01*
X141351000Y-107950000D02*
X141097000Y-107823000D01*
X141859000Y-108077000D02*
X141859000Y-106426000D01*
X141224000Y-108077000D02*
X141351000Y-107950000D01*
X141097000Y-107823000D02*
X141224000Y-108077000D01*
X141859000Y-108585000D02*
X141097000Y-107823000D01*
X141986000Y-108585000D02*
G75*
G03*
X141986000Y-108585000I-127000J0D01*
G01*
X141859000Y-106426000D02*
X141986000Y-106680000D01*
X141859000Y-106426000D02*
X141732000Y-106680000D01*
X142142981Y-108585000D02*
G75*
G03*
X142142981Y-108585000I-283981J0D01*
G01*
D11*
X144214857Y-98950428D02*
X144014857Y-98664714D01*
X143872000Y-98950428D02*
X143872000Y-98350428D01*
X144100571Y-98350428D01*
X144157714Y-98379000D01*
X144186285Y-98407571D01*
X144214857Y-98464714D01*
X144214857Y-98550428D01*
X144186285Y-98607571D01*
X144157714Y-98636142D01*
X144100571Y-98664714D01*
X143872000Y-98664714D01*
X144414857Y-98950428D02*
X144729142Y-98550428D01*
X144414857Y-98550428D02*
X144729142Y-98950428D01*
X157056142Y-128835000D02*
X157056142Y-128635000D01*
X157370428Y-128549285D02*
X157370428Y-128835000D01*
X156770428Y-128835000D01*
X156770428Y-128549285D01*
X156770428Y-128377857D02*
X157370428Y-128177857D01*
X156770428Y-127977857D01*
X157056142Y-127777857D02*
X157056142Y-127577857D01*
X157370428Y-127492142D02*
X157370428Y-127777857D01*
X156770428Y-127777857D01*
X156770428Y-127492142D01*
X157370428Y-127235000D02*
X156770428Y-127235000D01*
X157370428Y-126892142D01*
X156770428Y-126892142D01*
X156770428Y-126692142D02*
X156770428Y-126349285D01*
X157370428Y-126520714D02*
X156770428Y-126520714D01*
X158527857Y-93851428D02*
X158670714Y-94251428D01*
X158813571Y-93851428D01*
X159013571Y-93708571D02*
X159042142Y-93680000D01*
X159099285Y-93651428D01*
X159242142Y-93651428D01*
X159299285Y-93680000D01*
X159327857Y-93708571D01*
X159356428Y-93765714D01*
X159356428Y-93822857D01*
X159327857Y-93908571D01*
X158985000Y-94251428D01*
X159356428Y-94251428D01*
X159613571Y-94194285D02*
X159642142Y-94222857D01*
X159613571Y-94251428D01*
X159585000Y-94222857D01*
X159613571Y-94194285D01*
X159613571Y-94251428D01*
X160213571Y-94251428D02*
X159870714Y-94251428D01*
X160042142Y-94251428D02*
X160042142Y-93651428D01*
X159985000Y-93737142D01*
X159927857Y-93794285D01*
X159870714Y-93822857D01*
X159037428Y-116038285D02*
X159008857Y-116066857D01*
X158923142Y-116095428D01*
X158866000Y-116095428D01*
X158780285Y-116066857D01*
X158723142Y-116009714D01*
X158694571Y-115952571D01*
X158666000Y-115838285D01*
X158666000Y-115752571D01*
X158694571Y-115638285D01*
X158723142Y-115581142D01*
X158780285Y-115524000D01*
X158866000Y-115495428D01*
X158923142Y-115495428D01*
X159008857Y-115524000D01*
X159037428Y-115552571D01*
X159294571Y-116095428D02*
X159294571Y-115495428D01*
X159294571Y-115781142D02*
X159637428Y-115781142D01*
X159637428Y-116095428D02*
X159637428Y-115495428D01*
X160266000Y-116095428D02*
X160066000Y-115809714D01*
X159923142Y-116095428D02*
X159923142Y-115495428D01*
X160151714Y-115495428D01*
X160208857Y-115524000D01*
X160237428Y-115552571D01*
X160266000Y-115609714D01*
X160266000Y-115695428D01*
X160237428Y-115752571D01*
X160208857Y-115781142D01*
X160151714Y-115809714D01*
X159923142Y-115809714D01*
X160837428Y-115524000D02*
X160780285Y-115495428D01*
X160694571Y-115495428D01*
X160608857Y-115524000D01*
X160551714Y-115581142D01*
X160523142Y-115638285D01*
X160494571Y-115752571D01*
X160494571Y-115838285D01*
X160523142Y-115952571D01*
X160551714Y-116009714D01*
X160608857Y-116066857D01*
X160694571Y-116095428D01*
X160751714Y-116095428D01*
X160837428Y-116066857D01*
X160866000Y-116038285D01*
X160866000Y-115838285D01*
X160751714Y-115838285D01*
X146397714Y-98350428D02*
X146740571Y-98350428D01*
X146569142Y-98950428D02*
X146569142Y-98350428D01*
X146883428Y-98950428D02*
X147197714Y-98550428D01*
X146883428Y-98550428D02*
X147197714Y-98950428D01*
X134948571Y-119897714D02*
X134948571Y-120012000D01*
X134920000Y-120069142D01*
X134862857Y-120126285D01*
X134748571Y-120154857D01*
X134548571Y-120154857D01*
X134434285Y-120126285D01*
X134377142Y-120069142D01*
X134348571Y-120012000D01*
X134348571Y-119897714D01*
X134377142Y-119840571D01*
X134434285Y-119783428D01*
X134548571Y-119754857D01*
X134748571Y-119754857D01*
X134862857Y-119783428D01*
X134920000Y-119840571D01*
X134948571Y-119897714D01*
X134662857Y-120612000D02*
X134662857Y-120412000D01*
X134348571Y-120412000D02*
X134948571Y-120412000D01*
X134948571Y-120697714D01*
X134662857Y-121126285D02*
X134662857Y-120926285D01*
X134348571Y-120926285D02*
X134948571Y-120926285D01*
X134948571Y-121212000D01*
X134977142Y-121869142D02*
X134205714Y-121354857D01*
X134948571Y-122183428D02*
X134948571Y-122297714D01*
X134920000Y-122354857D01*
X134862857Y-122412000D01*
X134748571Y-122440571D01*
X134548571Y-122440571D01*
X134434285Y-122412000D01*
X134377142Y-122354857D01*
X134348571Y-122297714D01*
X134348571Y-122183428D01*
X134377142Y-122126285D01*
X134434285Y-122069142D01*
X134548571Y-122040571D01*
X134748571Y-122040571D01*
X134862857Y-122069142D01*
X134920000Y-122126285D01*
X134948571Y-122183428D01*
X134348571Y-122697714D02*
X134948571Y-122697714D01*
X134348571Y-123040571D01*
X134948571Y-123040571D01*
X133840571Y-126890571D02*
X134126285Y-126690571D01*
X133840571Y-126547714D02*
X134440571Y-126547714D01*
X134440571Y-126776285D01*
X134412000Y-126833428D01*
X134383428Y-126862000D01*
X134326285Y-126890571D01*
X134240571Y-126890571D01*
X134183428Y-126862000D01*
X134154857Y-126833428D01*
X134126285Y-126776285D01*
X134126285Y-126547714D01*
X134154857Y-127147714D02*
X134154857Y-127347714D01*
X133840571Y-127433428D02*
X133840571Y-127147714D01*
X134440571Y-127147714D01*
X134440571Y-127433428D01*
X133869142Y-127662000D02*
X133840571Y-127747714D01*
X133840571Y-127890571D01*
X133869142Y-127947714D01*
X133897714Y-127976285D01*
X133954857Y-128004857D01*
X134012000Y-128004857D01*
X134069142Y-127976285D01*
X134097714Y-127947714D01*
X134126285Y-127890571D01*
X134154857Y-127776285D01*
X134183428Y-127719142D01*
X134212000Y-127690571D01*
X134269142Y-127662000D01*
X134326285Y-127662000D01*
X134383428Y-127690571D01*
X134412000Y-127719142D01*
X134440571Y-127776285D01*
X134440571Y-127919142D01*
X134412000Y-128004857D01*
X134154857Y-128262000D02*
X134154857Y-128462000D01*
X133840571Y-128547714D02*
X133840571Y-128262000D01*
X134440571Y-128262000D01*
X134440571Y-128547714D01*
X134440571Y-128719142D02*
X134440571Y-129062000D01*
X133840571Y-128890571D02*
X134440571Y-128890571D01*
X155960857Y-116095428D02*
X155960857Y-115495428D01*
X156103714Y-115495428D01*
X156189428Y-115524000D01*
X156246571Y-115581142D01*
X156275142Y-115638285D01*
X156303714Y-115752571D01*
X156303714Y-115838285D01*
X156275142Y-115952571D01*
X156246571Y-116009714D01*
X156189428Y-116066857D01*
X156103714Y-116095428D01*
X155960857Y-116095428D01*
X156760857Y-115781142D02*
X156846571Y-115809714D01*
X156875142Y-115838285D01*
X156903714Y-115895428D01*
X156903714Y-115981142D01*
X156875142Y-116038285D01*
X156846571Y-116066857D01*
X156789428Y-116095428D01*
X156560857Y-116095428D01*
X156560857Y-115495428D01*
X156760857Y-115495428D01*
X156818000Y-115524000D01*
X156846571Y-115552571D01*
X156875142Y-115609714D01*
X156875142Y-115666857D01*
X156846571Y-115724000D01*
X156818000Y-115752571D01*
X156760857Y-115781142D01*
X156560857Y-115781142D01*
X157475142Y-115524000D02*
X157418000Y-115495428D01*
X157332285Y-115495428D01*
X157246571Y-115524000D01*
X157189428Y-115581142D01*
X157160857Y-115638285D01*
X157132285Y-115752571D01*
X157132285Y-115838285D01*
X157160857Y-115952571D01*
X157189428Y-116009714D01*
X157246571Y-116066857D01*
X157332285Y-116095428D01*
X157389428Y-116095428D01*
X157475142Y-116066857D01*
X157503714Y-116038285D01*
X157503714Y-115838285D01*
X157389428Y-115838285D01*
X148894857Y-98506000D02*
X148837714Y-98477428D01*
X148752000Y-98477428D01*
X148666285Y-98506000D01*
X148609142Y-98563142D01*
X148580571Y-98620285D01*
X148552000Y-98734571D01*
X148552000Y-98820285D01*
X148580571Y-98934571D01*
X148609142Y-98991714D01*
X148666285Y-99048857D01*
X148752000Y-99077428D01*
X148809142Y-99077428D01*
X148894857Y-99048857D01*
X148923428Y-99020285D01*
X148923428Y-98820285D01*
X148809142Y-98820285D01*
X149180571Y-99077428D02*
X149180571Y-98477428D01*
X149523428Y-99077428D01*
X149523428Y-98477428D01*
X149809142Y-99077428D02*
X149809142Y-98477428D01*
X149952000Y-98477428D01*
X150037714Y-98506000D01*
X150094857Y-98563142D01*
X150123428Y-98620285D01*
X150152000Y-98734571D01*
X150152000Y-98820285D01*
X150123428Y-98934571D01*
X150094857Y-98991714D01*
X150037714Y-99048857D01*
X149952000Y-99077428D01*
X149809142Y-99077428D01*
X140516000Y-106986428D02*
X140916000Y-106986428D01*
X140516000Y-107586428D01*
X140916000Y-107586428D01*
X141659000Y-105589428D02*
X142059000Y-106189428D01*
X142059000Y-105589428D02*
X141659000Y-106189428D01*
X144607142Y-105113142D02*
X144692857Y-105141714D01*
X144721428Y-105170285D01*
X144750000Y-105227428D01*
X144750000Y-105313142D01*
X144721428Y-105370285D01*
X144692857Y-105398857D01*
X144635714Y-105427428D01*
X144407142Y-105427428D01*
X144407142Y-104827428D01*
X144607142Y-104827428D01*
X144664285Y-104856000D01*
X144692857Y-104884571D01*
X144721428Y-104941714D01*
X144721428Y-104998857D01*
X144692857Y-105056000D01*
X144664285Y-105084571D01*
X144607142Y-105113142D01*
X144407142Y-105113142D01*
X145007142Y-105427428D02*
X145007142Y-104827428D01*
X145207142Y-105256000D01*
X145407142Y-104827428D01*
X145407142Y-105427428D01*
X145635714Y-104827428D02*
X146035714Y-105427428D01*
X146035714Y-104827428D02*
X145635714Y-105427428D01*
X146578571Y-105427428D02*
X146235714Y-105427428D01*
X146407142Y-105427428D02*
X146407142Y-104827428D01*
X146350000Y-104913142D01*
X146292857Y-104970285D01*
X146235714Y-104998857D01*
X147092857Y-104827428D02*
X146978571Y-104827428D01*
X146921428Y-104856000D01*
X146892857Y-104884571D01*
X146835714Y-104970285D01*
X146807142Y-105084571D01*
X146807142Y-105313142D01*
X146835714Y-105370285D01*
X146864285Y-105398857D01*
X146921428Y-105427428D01*
X147035714Y-105427428D01*
X147092857Y-105398857D01*
X147121428Y-105370285D01*
X147150000Y-105313142D01*
X147150000Y-105170285D01*
X147121428Y-105113142D01*
X147092857Y-105084571D01*
X147035714Y-105056000D01*
X146921428Y-105056000D01*
X146864285Y-105084571D01*
X146835714Y-105113142D01*
X146807142Y-105170285D01*
X147521428Y-104827428D02*
X147578571Y-104827428D01*
X147635714Y-104856000D01*
X147664285Y-104884571D01*
X147692857Y-104941714D01*
X147721428Y-105056000D01*
X147721428Y-105198857D01*
X147692857Y-105313142D01*
X147664285Y-105370285D01*
X147635714Y-105398857D01*
X147578571Y-105427428D01*
X147521428Y-105427428D01*
X147464285Y-105398857D01*
X147435714Y-105370285D01*
X147407142Y-105313142D01*
X147378571Y-105198857D01*
X147378571Y-105056000D01*
X147407142Y-104941714D01*
X147435714Y-104884571D01*
X147464285Y-104856000D01*
X147521428Y-104827428D01*
X137668047Y-125801428D02*
X138429952Y-125801428D01*
X138049000Y-126182380D02*
X138049000Y-125420476D01*
X139319000Y-108570714D02*
X139319000Y-108856428D01*
X139119000Y-108256428D02*
X139319000Y-108570714D01*
X139519000Y-108256428D01*
X148641000Y-116857428D02*
X148641000Y-116257428D01*
X148783857Y-116257428D01*
X148869571Y-116286000D01*
X148926714Y-116343142D01*
X148955285Y-116400285D01*
X148983857Y-116514571D01*
X148983857Y-116600285D01*
X148955285Y-116714571D01*
X148926714Y-116771714D01*
X148869571Y-116828857D01*
X148783857Y-116857428D01*
X148641000Y-116857428D01*
X149241000Y-116857428D02*
X149241000Y-116257428D01*
X149469571Y-116257428D01*
X149526714Y-116286000D01*
X149555285Y-116314571D01*
X149583857Y-116371714D01*
X149583857Y-116457428D01*
X149555285Y-116514571D01*
X149526714Y-116543142D01*
X149469571Y-116571714D01*
X149241000Y-116571714D01*
X149812428Y-116828857D02*
X149898142Y-116857428D01*
X150041000Y-116857428D01*
X150098142Y-116828857D01*
X150126714Y-116800285D01*
X150155285Y-116743142D01*
X150155285Y-116686000D01*
X150126714Y-116628857D01*
X150098142Y-116600285D01*
X150041000Y-116571714D01*
X149926714Y-116543142D01*
X149869571Y-116514571D01*
X149841000Y-116486000D01*
X149812428Y-116428857D01*
X149812428Y-116371714D01*
X149841000Y-116314571D01*
X149869571Y-116286000D01*
X149926714Y-116257428D01*
X150069571Y-116257428D01*
X150155285Y-116286000D01*
X150355285Y-116257428D02*
X150726714Y-116257428D01*
X150526714Y-116486000D01*
X150612428Y-116486000D01*
X150669571Y-116514571D01*
X150698142Y-116543142D01*
X150726714Y-116600285D01*
X150726714Y-116743142D01*
X150698142Y-116800285D01*
X150669571Y-116828857D01*
X150612428Y-116857428D01*
X150441000Y-116857428D01*
X150383857Y-116828857D01*
X150355285Y-116800285D01*
X151241000Y-116257428D02*
X151126714Y-116257428D01*
X151069571Y-116286000D01*
X151041000Y-116314571D01*
X150983857Y-116400285D01*
X150955285Y-116514571D01*
X150955285Y-116743142D01*
X150983857Y-116800285D01*
X151012428Y-116828857D01*
X151069571Y-116857428D01*
X151183857Y-116857428D01*
X151241000Y-116828857D01*
X151269571Y-116800285D01*
X151298142Y-116743142D01*
X151298142Y-116600285D01*
X151269571Y-116543142D01*
X151241000Y-116514571D01*
X151183857Y-116486000D01*
X151069571Y-116486000D01*
X151012428Y-116514571D01*
X150983857Y-116543142D01*
X150955285Y-116600285D01*
X151641000Y-116514571D02*
X151583857Y-116486000D01*
X151555285Y-116457428D01*
X151526714Y-116400285D01*
X151526714Y-116371714D01*
X151555285Y-116314571D01*
X151583857Y-116286000D01*
X151641000Y-116257428D01*
X151755285Y-116257428D01*
X151812428Y-116286000D01*
X151841000Y-116314571D01*
X151869571Y-116371714D01*
X151869571Y-116400285D01*
X151841000Y-116457428D01*
X151812428Y-116486000D01*
X151755285Y-116514571D01*
X151641000Y-116514571D01*
X151583857Y-116543142D01*
X151555285Y-116571714D01*
X151526714Y-116628857D01*
X151526714Y-116743142D01*
X151555285Y-116800285D01*
X151583857Y-116828857D01*
X151641000Y-116857428D01*
X151755285Y-116857428D01*
X151812428Y-116828857D01*
X151841000Y-116800285D01*
X151869571Y-116743142D01*
X151869571Y-116628857D01*
X151841000Y-116571714D01*
X151812428Y-116543142D01*
X151755285Y-116514571D01*
X141132000Y-98950428D02*
X141132000Y-98350428D01*
X141532000Y-98350428D02*
X141646285Y-98350428D01*
X141703428Y-98379000D01*
X141760571Y-98436142D01*
X141789142Y-98550428D01*
X141789142Y-98750428D01*
X141760571Y-98864714D01*
X141703428Y-98921857D01*
X141646285Y-98950428D01*
X141532000Y-98950428D01*
X141474857Y-98921857D01*
X141417714Y-98864714D01*
X141389142Y-98750428D01*
X141389142Y-98550428D01*
X141417714Y-98436142D01*
X141474857Y-98379000D01*
X141532000Y-98350428D01*
X142160571Y-98350428D02*
X142217714Y-98350428D01*
X142274857Y-98379000D01*
X142303428Y-98407571D01*
X142332000Y-98464714D01*
X142360571Y-98579000D01*
X142360571Y-98721857D01*
X142332000Y-98836142D01*
X142303428Y-98893285D01*
X142274857Y-98921857D01*
X142217714Y-98950428D01*
X142160571Y-98950428D01*
X142103428Y-98921857D01*
X142074857Y-98893285D01*
X142046285Y-98836142D01*
X142017714Y-98721857D01*
X142017714Y-98579000D01*
X142046285Y-98464714D01*
X142074857Y-98407571D01*
X142103428Y-98379000D01*
X142160571Y-98350428D01*
X158910428Y-122159285D02*
X158881857Y-122187857D01*
X158796142Y-122216428D01*
X158739000Y-122216428D01*
X158653285Y-122187857D01*
X158596142Y-122130714D01*
X158567571Y-122073571D01*
X158539000Y-121959285D01*
X158539000Y-121873571D01*
X158567571Y-121759285D01*
X158596142Y-121702142D01*
X158653285Y-121645000D01*
X158739000Y-121616428D01*
X158796142Y-121616428D01*
X158881857Y-121645000D01*
X158910428Y-121673571D01*
X159167571Y-122216428D02*
X159167571Y-121616428D01*
X159167571Y-121902142D02*
X159510428Y-121902142D01*
X159510428Y-122216428D02*
X159510428Y-121616428D01*
X160139000Y-122216428D02*
X159939000Y-121930714D01*
X159796142Y-122216428D02*
X159796142Y-121616428D01*
X160024714Y-121616428D01*
X160081857Y-121645000D01*
X160110428Y-121673571D01*
X160139000Y-121730714D01*
X160139000Y-121816428D01*
X160110428Y-121873571D01*
X160081857Y-121902142D01*
X160024714Y-121930714D01*
X159796142Y-121930714D01*
X160710428Y-121645000D02*
X160653285Y-121616428D01*
X160567571Y-121616428D01*
X160481857Y-121645000D01*
X160424714Y-121702142D01*
X160396142Y-121759285D01*
X160367571Y-121873571D01*
X160367571Y-121959285D01*
X160396142Y-122073571D01*
X160424714Y-122130714D01*
X160481857Y-122187857D01*
X160567571Y-122216428D01*
X160624714Y-122216428D01*
X160710428Y-122187857D01*
X160739000Y-122159285D01*
X160739000Y-121959285D01*
X160624714Y-121959285D01*
X158581857Y-123182428D02*
X158581857Y-122582428D01*
X158724714Y-122582428D01*
X158810428Y-122611000D01*
X158867571Y-122668142D01*
X158896142Y-122725285D01*
X158924714Y-122839571D01*
X158924714Y-122925285D01*
X158896142Y-123039571D01*
X158867571Y-123096714D01*
X158810428Y-123153857D01*
X158724714Y-123182428D01*
X158581857Y-123182428D01*
X159296142Y-122582428D02*
X159410428Y-122582428D01*
X159467571Y-122611000D01*
X159524714Y-122668142D01*
X159553285Y-122782428D01*
X159553285Y-122982428D01*
X159524714Y-123096714D01*
X159467571Y-123153857D01*
X159410428Y-123182428D01*
X159296142Y-123182428D01*
X159239000Y-123153857D01*
X159181857Y-123096714D01*
X159153285Y-122982428D01*
X159153285Y-122782428D01*
X159181857Y-122668142D01*
X159239000Y-122611000D01*
X159296142Y-122582428D01*
X159810428Y-123182428D02*
X159810428Y-122582428D01*
X160153285Y-123182428D01*
X160153285Y-122582428D01*
X160439000Y-122868142D02*
X160639000Y-122868142D01*
X160724714Y-123182428D02*
X160439000Y-123182428D01*
X160439000Y-122582428D01*
X160724714Y-122582428D01*
X142367047Y-125801428D02*
X143128952Y-125801428D01*
X151149142Y-98604428D02*
X151520571Y-98604428D01*
X151320571Y-98833000D01*
X151406285Y-98833000D01*
X151463428Y-98861571D01*
X151492000Y-98890142D01*
X151520571Y-98947285D01*
X151520571Y-99090142D01*
X151492000Y-99147285D01*
X151463428Y-99175857D01*
X151406285Y-99204428D01*
X151234857Y-99204428D01*
X151177714Y-99175857D01*
X151149142Y-99147285D01*
X151692000Y-98604428D02*
X151892000Y-99204428D01*
X152092000Y-98604428D01*
X152234857Y-98604428D02*
X152606285Y-98604428D01*
X152406285Y-98833000D01*
X152492000Y-98833000D01*
X152549142Y-98861571D01*
X152577714Y-98890142D01*
X152606285Y-98947285D01*
X152606285Y-99090142D01*
X152577714Y-99147285D01*
X152549142Y-99175857D01*
X152492000Y-99204428D01*
X152320571Y-99204428D01*
X152263428Y-99175857D01*
X152234857Y-99147285D01*
X138749142Y-98636142D02*
X138949142Y-98636142D01*
X139034857Y-98950428D02*
X138749142Y-98950428D01*
X138749142Y-98350428D01*
X139034857Y-98350428D01*
X139292000Y-98950428D02*
X139292000Y-98350428D01*
X139634857Y-98950428D01*
X139634857Y-98350428D01*
%TO.C,U2*%
X150037857Y-118543428D02*
X150037857Y-119029142D01*
X150066428Y-119086285D01*
X150095000Y-119114857D01*
X150152142Y-119143428D01*
X150266428Y-119143428D01*
X150323571Y-119114857D01*
X150352142Y-119086285D01*
X150380714Y-119029142D01*
X150380714Y-118543428D01*
X150637857Y-118600571D02*
X150666428Y-118572000D01*
X150723571Y-118543428D01*
X150866428Y-118543428D01*
X150923571Y-118572000D01*
X150952142Y-118600571D01*
X150980714Y-118657714D01*
X150980714Y-118714857D01*
X150952142Y-118800571D01*
X150609285Y-119143428D01*
X150980714Y-119143428D01*
%TO.C,U4*%
X139623857Y-122734428D02*
X139623857Y-123220142D01*
X139652428Y-123277285D01*
X139681000Y-123305857D01*
X139738142Y-123334428D01*
X139852428Y-123334428D01*
X139909571Y-123305857D01*
X139938142Y-123277285D01*
X139966714Y-123220142D01*
X139966714Y-122734428D01*
X140509571Y-122934428D02*
X140509571Y-123334428D01*
X140366714Y-122705857D02*
X140223857Y-123134428D01*
X140595285Y-123134428D01*
%TO.C,J2*%
X140262000Y-129719428D02*
X140262000Y-130148000D01*
X140233428Y-130233714D01*
X140176285Y-130290857D01*
X140090571Y-130319428D01*
X140033428Y-130319428D01*
X140519142Y-129776571D02*
X140547714Y-129748000D01*
X140604857Y-129719428D01*
X140747714Y-129719428D01*
X140804857Y-129748000D01*
X140833428Y-129776571D01*
X140862000Y-129833714D01*
X140862000Y-129890857D01*
X140833428Y-129976571D01*
X140490571Y-130319428D01*
X140862000Y-130319428D01*
%TO.C,C1*%
X136739285Y-116051000D02*
X136767857Y-116079571D01*
X136796428Y-116165285D01*
X136796428Y-116222428D01*
X136767857Y-116308142D01*
X136710714Y-116365285D01*
X136653571Y-116393857D01*
X136539285Y-116422428D01*
X136453571Y-116422428D01*
X136339285Y-116393857D01*
X136282142Y-116365285D01*
X136225000Y-116308142D01*
X136196428Y-116222428D01*
X136196428Y-116165285D01*
X136225000Y-116079571D01*
X136253571Y-116051000D01*
X136796428Y-115479571D02*
X136796428Y-115822428D01*
X136796428Y-115651000D02*
X136196428Y-115651000D01*
X136282142Y-115708142D01*
X136339285Y-115765285D01*
X136367857Y-115822428D01*
%TO.C,C2*%
X142394000Y-118705285D02*
X142365428Y-118733857D01*
X142279714Y-118762428D01*
X142222571Y-118762428D01*
X142136857Y-118733857D01*
X142079714Y-118676714D01*
X142051142Y-118619571D01*
X142022571Y-118505285D01*
X142022571Y-118419571D01*
X142051142Y-118305285D01*
X142079714Y-118248142D01*
X142136857Y-118191000D01*
X142222571Y-118162428D01*
X142279714Y-118162428D01*
X142365428Y-118191000D01*
X142394000Y-118219571D01*
X142622571Y-118219571D02*
X142651142Y-118191000D01*
X142708285Y-118162428D01*
X142851142Y-118162428D01*
X142908285Y-118191000D01*
X142936857Y-118219571D01*
X142965428Y-118276714D01*
X142965428Y-118333857D01*
X142936857Y-118419571D01*
X142594000Y-118762428D01*
X142965428Y-118762428D01*
%TO.C,C3*%
X141759000Y-122134285D02*
X141730428Y-122162857D01*
X141644714Y-122191428D01*
X141587571Y-122191428D01*
X141501857Y-122162857D01*
X141444714Y-122105714D01*
X141416142Y-122048571D01*
X141387571Y-121934285D01*
X141387571Y-121848571D01*
X141416142Y-121734285D01*
X141444714Y-121677142D01*
X141501857Y-121620000D01*
X141587571Y-121591428D01*
X141644714Y-121591428D01*
X141730428Y-121620000D01*
X141759000Y-121648571D01*
X141959000Y-121591428D02*
X142330428Y-121591428D01*
X142130428Y-121820000D01*
X142216142Y-121820000D01*
X142273285Y-121848571D01*
X142301857Y-121877142D01*
X142330428Y-121934285D01*
X142330428Y-122077142D01*
X142301857Y-122134285D01*
X142273285Y-122162857D01*
X142216142Y-122191428D01*
X142044714Y-122191428D01*
X141987571Y-122162857D01*
X141959000Y-122134285D01*
%TO.C,C4*%
X140616000Y-117816285D02*
X140587428Y-117844857D01*
X140501714Y-117873428D01*
X140444571Y-117873428D01*
X140358857Y-117844857D01*
X140301714Y-117787714D01*
X140273142Y-117730571D01*
X140244571Y-117616285D01*
X140244571Y-117530571D01*
X140273142Y-117416285D01*
X140301714Y-117359142D01*
X140358857Y-117302000D01*
X140444571Y-117273428D01*
X140501714Y-117273428D01*
X140587428Y-117302000D01*
X140616000Y-117330571D01*
X141130285Y-117473428D02*
X141130285Y-117873428D01*
X140987428Y-117244857D02*
X140844571Y-117673428D01*
X141216000Y-117673428D01*
%TO.C,D2*%
X159577142Y-112158428D02*
X159577142Y-111558428D01*
X159720000Y-111558428D01*
X159805714Y-111587000D01*
X159862857Y-111644142D01*
X159891428Y-111701285D01*
X159920000Y-111815571D01*
X159920000Y-111901285D01*
X159891428Y-112015571D01*
X159862857Y-112072714D01*
X159805714Y-112129857D01*
X159720000Y-112158428D01*
X159577142Y-112158428D01*
X160148571Y-111615571D02*
X160177142Y-111587000D01*
X160234285Y-111558428D01*
X160377142Y-111558428D01*
X160434285Y-111587000D01*
X160462857Y-111615571D01*
X160491428Y-111672714D01*
X160491428Y-111729857D01*
X160462857Y-111815571D01*
X160120000Y-112158428D01*
X160491428Y-112158428D01*
%TO.C,D3*%
X159577142Y-118127428D02*
X159577142Y-117527428D01*
X159720000Y-117527428D01*
X159805714Y-117556000D01*
X159862857Y-117613142D01*
X159891428Y-117670285D01*
X159920000Y-117784571D01*
X159920000Y-117870285D01*
X159891428Y-117984571D01*
X159862857Y-118041714D01*
X159805714Y-118098857D01*
X159720000Y-118127428D01*
X159577142Y-118127428D01*
X160120000Y-117527428D02*
X160491428Y-117527428D01*
X160291428Y-117756000D01*
X160377142Y-117756000D01*
X160434285Y-117784571D01*
X160462857Y-117813142D01*
X160491428Y-117870285D01*
X160491428Y-118013142D01*
X160462857Y-118070285D01*
X160434285Y-118098857D01*
X160377142Y-118127428D01*
X160205714Y-118127428D01*
X160148571Y-118098857D01*
X160120000Y-118070285D01*
%TO.C,R1*%
X148363000Y-128160428D02*
X148163000Y-127874714D01*
X148020142Y-128160428D02*
X148020142Y-127560428D01*
X148248714Y-127560428D01*
X148305857Y-127589000D01*
X148334428Y-127617571D01*
X148363000Y-127674714D01*
X148363000Y-127760428D01*
X148334428Y-127817571D01*
X148305857Y-127846142D01*
X148248714Y-127874714D01*
X148020142Y-127874714D01*
X148934428Y-128160428D02*
X148591571Y-128160428D01*
X148763000Y-128160428D02*
X148763000Y-127560428D01*
X148705857Y-127646142D01*
X148648714Y-127703285D01*
X148591571Y-127731857D01*
%TO.C,R2*%
X151792000Y-128160428D02*
X151592000Y-127874714D01*
X151449142Y-128160428D02*
X151449142Y-127560428D01*
X151677714Y-127560428D01*
X151734857Y-127589000D01*
X151763428Y-127617571D01*
X151792000Y-127674714D01*
X151792000Y-127760428D01*
X151763428Y-127817571D01*
X151734857Y-127846142D01*
X151677714Y-127874714D01*
X151449142Y-127874714D01*
X152020571Y-127617571D02*
X152049142Y-127589000D01*
X152106285Y-127560428D01*
X152249142Y-127560428D01*
X152306285Y-127589000D01*
X152334857Y-127617571D01*
X152363428Y-127674714D01*
X152363428Y-127731857D01*
X152334857Y-127817571D01*
X151992000Y-128160428D01*
X152363428Y-128160428D01*
%TO.C,R3*%
X135917000Y-121302428D02*
X135717000Y-121016714D01*
X135574142Y-121302428D02*
X135574142Y-120702428D01*
X135802714Y-120702428D01*
X135859857Y-120731000D01*
X135888428Y-120759571D01*
X135917000Y-120816714D01*
X135917000Y-120902428D01*
X135888428Y-120959571D01*
X135859857Y-120988142D01*
X135802714Y-121016714D01*
X135574142Y-121016714D01*
X136117000Y-120702428D02*
X136488428Y-120702428D01*
X136288428Y-120931000D01*
X136374142Y-120931000D01*
X136431285Y-120959571D01*
X136459857Y-120988142D01*
X136488428Y-121045285D01*
X136488428Y-121188142D01*
X136459857Y-121245285D01*
X136431285Y-121273857D01*
X136374142Y-121302428D01*
X136202714Y-121302428D01*
X136145571Y-121273857D01*
X136117000Y-121245285D01*
%TO.C,R5*%
X158269000Y-112158428D02*
X158069000Y-111872714D01*
X157926142Y-112158428D02*
X157926142Y-111558428D01*
X158154714Y-111558428D01*
X158211857Y-111587000D01*
X158240428Y-111615571D01*
X158269000Y-111672714D01*
X158269000Y-111758428D01*
X158240428Y-111815571D01*
X158211857Y-111844142D01*
X158154714Y-111872714D01*
X157926142Y-111872714D01*
X158811857Y-111558428D02*
X158526142Y-111558428D01*
X158497571Y-111844142D01*
X158526142Y-111815571D01*
X158583285Y-111787000D01*
X158726142Y-111787000D01*
X158783285Y-111815571D01*
X158811857Y-111844142D01*
X158840428Y-111901285D01*
X158840428Y-112044142D01*
X158811857Y-112101285D01*
X158783285Y-112129857D01*
X158726142Y-112158428D01*
X158583285Y-112158428D01*
X158526142Y-112129857D01*
X158497571Y-112101285D01*
%TO.C,R6*%
X158269000Y-118127428D02*
X158069000Y-117841714D01*
X157926142Y-118127428D02*
X157926142Y-117527428D01*
X158154714Y-117527428D01*
X158211857Y-117556000D01*
X158240428Y-117584571D01*
X158269000Y-117641714D01*
X158269000Y-117727428D01*
X158240428Y-117784571D01*
X158211857Y-117813142D01*
X158154714Y-117841714D01*
X157926142Y-117841714D01*
X158783285Y-117527428D02*
X158669000Y-117527428D01*
X158611857Y-117556000D01*
X158583285Y-117584571D01*
X158526142Y-117670285D01*
X158497571Y-117784571D01*
X158497571Y-118013142D01*
X158526142Y-118070285D01*
X158554714Y-118098857D01*
X158611857Y-118127428D01*
X158726142Y-118127428D01*
X158783285Y-118098857D01*
X158811857Y-118070285D01*
X158840428Y-118013142D01*
X158840428Y-117870285D01*
X158811857Y-117813142D01*
X158783285Y-117784571D01*
X158726142Y-117756000D01*
X158611857Y-117756000D01*
X158554714Y-117784571D01*
X158526142Y-117813142D01*
X158497571Y-117870285D01*
%TO.C,J3*%
X131751428Y-108277000D02*
X132180000Y-108277000D01*
X132265714Y-108305571D01*
X132322857Y-108362714D01*
X132351428Y-108448428D01*
X132351428Y-108505571D01*
X131751428Y-108048428D02*
X131751428Y-107677000D01*
X131980000Y-107877000D01*
X131980000Y-107791285D01*
X132008571Y-107734142D01*
X132037142Y-107705571D01*
X132094285Y-107677000D01*
X132237142Y-107677000D01*
X132294285Y-107705571D01*
X132322857Y-107734142D01*
X132351428Y-107791285D01*
X132351428Y-107962714D01*
X132322857Y-108019857D01*
X132294285Y-108048428D01*
%TO.C,C10*%
X146899285Y-119257714D02*
X146927857Y-119286285D01*
X146956428Y-119372000D01*
X146956428Y-119429142D01*
X146927857Y-119514857D01*
X146870714Y-119572000D01*
X146813571Y-119600571D01*
X146699285Y-119629142D01*
X146613571Y-119629142D01*
X146499285Y-119600571D01*
X146442142Y-119572000D01*
X146385000Y-119514857D01*
X146356428Y-119429142D01*
X146356428Y-119372000D01*
X146385000Y-119286285D01*
X146413571Y-119257714D01*
X146956428Y-118686285D02*
X146956428Y-119029142D01*
X146956428Y-118857714D02*
X146356428Y-118857714D01*
X146442142Y-118914857D01*
X146499285Y-118972000D01*
X146527857Y-119029142D01*
X146356428Y-118314857D02*
X146356428Y-118257714D01*
X146385000Y-118200571D01*
X146413571Y-118172000D01*
X146470714Y-118143428D01*
X146585000Y-118114857D01*
X146727857Y-118114857D01*
X146842142Y-118143428D01*
X146899285Y-118172000D01*
X146927857Y-118200571D01*
X146956428Y-118257714D01*
X146956428Y-118314857D01*
X146927857Y-118372000D01*
X146899285Y-118400571D01*
X146842142Y-118429142D01*
X146727857Y-118457714D01*
X146585000Y-118457714D01*
X146470714Y-118429142D01*
X146413571Y-118400571D01*
X146385000Y-118372000D01*
X146356428Y-118314857D01*
%TO.C,R12*%
X154355428Y-119257714D02*
X154069714Y-119457714D01*
X154355428Y-119600571D02*
X153755428Y-119600571D01*
X153755428Y-119372000D01*
X153784000Y-119314857D01*
X153812571Y-119286285D01*
X153869714Y-119257714D01*
X153955428Y-119257714D01*
X154012571Y-119286285D01*
X154041142Y-119314857D01*
X154069714Y-119372000D01*
X154069714Y-119600571D01*
X154355428Y-118686285D02*
X154355428Y-119029142D01*
X154355428Y-118857714D02*
X153755428Y-118857714D01*
X153841142Y-118914857D01*
X153898285Y-118972000D01*
X153926857Y-119029142D01*
X153812571Y-118457714D02*
X153784000Y-118429142D01*
X153755428Y-118372000D01*
X153755428Y-118229142D01*
X153784000Y-118172000D01*
X153812571Y-118143428D01*
X153869714Y-118114857D01*
X153926857Y-118114857D01*
X154012571Y-118143428D01*
X154355428Y-118486285D01*
X154355428Y-118114857D01*
%TO.C,R15*%
X152268285Y-124477428D02*
X152068285Y-124191714D01*
X151925428Y-124477428D02*
X151925428Y-123877428D01*
X152154000Y-123877428D01*
X152211142Y-123906000D01*
X152239714Y-123934571D01*
X152268285Y-123991714D01*
X152268285Y-124077428D01*
X152239714Y-124134571D01*
X152211142Y-124163142D01*
X152154000Y-124191714D01*
X151925428Y-124191714D01*
X152839714Y-124477428D02*
X152496857Y-124477428D01*
X152668285Y-124477428D02*
X152668285Y-123877428D01*
X152611142Y-123963142D01*
X152554000Y-124020285D01*
X152496857Y-124048857D01*
X153382571Y-123877428D02*
X153096857Y-123877428D01*
X153068285Y-124163142D01*
X153096857Y-124134571D01*
X153154000Y-124106000D01*
X153296857Y-124106000D01*
X153354000Y-124134571D01*
X153382571Y-124163142D01*
X153411142Y-124220285D01*
X153411142Y-124363142D01*
X153382571Y-124420285D01*
X153354000Y-124448857D01*
X153296857Y-124477428D01*
X153154000Y-124477428D01*
X153096857Y-124448857D01*
X153068285Y-124420285D01*
%TO.C,R16*%
X148966285Y-124477428D02*
X148766285Y-124191714D01*
X148623428Y-124477428D02*
X148623428Y-123877428D01*
X148852000Y-123877428D01*
X148909142Y-123906000D01*
X148937714Y-123934571D01*
X148966285Y-123991714D01*
X148966285Y-124077428D01*
X148937714Y-124134571D01*
X148909142Y-124163142D01*
X148852000Y-124191714D01*
X148623428Y-124191714D01*
X149537714Y-124477428D02*
X149194857Y-124477428D01*
X149366285Y-124477428D02*
X149366285Y-123877428D01*
X149309142Y-123963142D01*
X149252000Y-124020285D01*
X149194857Y-124048857D01*
X150052000Y-123877428D02*
X149937714Y-123877428D01*
X149880571Y-123906000D01*
X149852000Y-123934571D01*
X149794857Y-124020285D01*
X149766285Y-124134571D01*
X149766285Y-124363142D01*
X149794857Y-124420285D01*
X149823428Y-124448857D01*
X149880571Y-124477428D01*
X149994857Y-124477428D01*
X150052000Y-124448857D01*
X150080571Y-124420285D01*
X150109142Y-124363142D01*
X150109142Y-124220285D01*
X150080571Y-124163142D01*
X150052000Y-124134571D01*
X149994857Y-124106000D01*
X149880571Y-124106000D01*
X149823428Y-124134571D01*
X149794857Y-124163142D01*
X149766285Y-124220285D01*
%TO.C,R17*%
X146956428Y-122559714D02*
X146670714Y-122759714D01*
X146956428Y-122902571D02*
X146356428Y-122902571D01*
X146356428Y-122674000D01*
X146385000Y-122616857D01*
X146413571Y-122588285D01*
X146470714Y-122559714D01*
X146556428Y-122559714D01*
X146613571Y-122588285D01*
X146642142Y-122616857D01*
X146670714Y-122674000D01*
X146670714Y-122902571D01*
X146956428Y-121988285D02*
X146956428Y-122331142D01*
X146956428Y-122159714D02*
X146356428Y-122159714D01*
X146442142Y-122216857D01*
X146499285Y-122274000D01*
X146527857Y-122331142D01*
X146356428Y-121788285D02*
X146356428Y-121388285D01*
X146956428Y-121645428D01*
%TO.C,S1*%
X131941857Y-128219142D02*
X131970428Y-128133428D01*
X131970428Y-127990571D01*
X131941857Y-127933428D01*
X131913285Y-127904857D01*
X131856142Y-127876285D01*
X131799000Y-127876285D01*
X131741857Y-127904857D01*
X131713285Y-127933428D01*
X131684714Y-127990571D01*
X131656142Y-128104857D01*
X131627571Y-128162000D01*
X131599000Y-128190571D01*
X131541857Y-128219142D01*
X131484714Y-128219142D01*
X131427571Y-128190571D01*
X131399000Y-128162000D01*
X131370428Y-128104857D01*
X131370428Y-127962000D01*
X131399000Y-127876285D01*
X131970428Y-127304857D02*
X131970428Y-127647714D01*
X131970428Y-127476285D02*
X131370428Y-127476285D01*
X131456142Y-127533428D01*
X131513285Y-127590571D01*
X131541857Y-127647714D01*
%TO.C,S2*%
X159627857Y-128219142D02*
X159656428Y-128133428D01*
X159656428Y-127990571D01*
X159627857Y-127933428D01*
X159599285Y-127904857D01*
X159542142Y-127876285D01*
X159485000Y-127876285D01*
X159427857Y-127904857D01*
X159399285Y-127933428D01*
X159370714Y-127990571D01*
X159342142Y-128104857D01*
X159313571Y-128162000D01*
X159285000Y-128190571D01*
X159227857Y-128219142D01*
X159170714Y-128219142D01*
X159113571Y-128190571D01*
X159085000Y-128162000D01*
X159056428Y-128104857D01*
X159056428Y-127962000D01*
X159085000Y-127876285D01*
X159113571Y-127647714D02*
X159085000Y-127619142D01*
X159056428Y-127562000D01*
X159056428Y-127419142D01*
X159085000Y-127362000D01*
X159113571Y-127333428D01*
X159170714Y-127304857D01*
X159227857Y-127304857D01*
X159313571Y-127333428D01*
X159656428Y-127676285D01*
X159656428Y-127304857D01*
%TO.C,S3*%
X133199857Y-118059142D02*
X133228428Y-117973428D01*
X133228428Y-117830571D01*
X133199857Y-117773428D01*
X133171285Y-117744857D01*
X133114142Y-117716285D01*
X133057000Y-117716285D01*
X132999857Y-117744857D01*
X132971285Y-117773428D01*
X132942714Y-117830571D01*
X132914142Y-117944857D01*
X132885571Y-118002000D01*
X132857000Y-118030571D01*
X132799857Y-118059142D01*
X132742714Y-118059142D01*
X132685571Y-118030571D01*
X132657000Y-118002000D01*
X132628428Y-117944857D01*
X132628428Y-117802000D01*
X132657000Y-117716285D01*
X132628428Y-117516285D02*
X132628428Y-117144857D01*
X132857000Y-117344857D01*
X132857000Y-117259142D01*
X132885571Y-117202000D01*
X132914142Y-117173428D01*
X132971285Y-117144857D01*
X133114142Y-117144857D01*
X133171285Y-117173428D01*
X133199857Y-117202000D01*
X133228428Y-117259142D01*
X133228428Y-117430571D01*
X133199857Y-117487714D01*
X133171285Y-117516285D01*
%TO.C,C12*%
X146680285Y-116800285D02*
X146651714Y-116828857D01*
X146566000Y-116857428D01*
X146508857Y-116857428D01*
X146423142Y-116828857D01*
X146366000Y-116771714D01*
X146337428Y-116714571D01*
X146308857Y-116600285D01*
X146308857Y-116514571D01*
X146337428Y-116400285D01*
X146366000Y-116343142D01*
X146423142Y-116286000D01*
X146508857Y-116257428D01*
X146566000Y-116257428D01*
X146651714Y-116286000D01*
X146680285Y-116314571D01*
X147251714Y-116857428D02*
X146908857Y-116857428D01*
X147080285Y-116857428D02*
X147080285Y-116257428D01*
X147023142Y-116343142D01*
X146966000Y-116400285D01*
X146908857Y-116428857D01*
X147480285Y-116314571D02*
X147508857Y-116286000D01*
X147566000Y-116257428D01*
X147708857Y-116257428D01*
X147766000Y-116286000D01*
X147794571Y-116314571D01*
X147823142Y-116371714D01*
X147823142Y-116428857D01*
X147794571Y-116514571D01*
X147451714Y-116857428D01*
X147823142Y-116857428D01*
%TO.C,R4*%
X143156000Y-116857428D02*
X142956000Y-116571714D01*
X142813142Y-116857428D02*
X142813142Y-116257428D01*
X143041714Y-116257428D01*
X143098857Y-116286000D01*
X143127428Y-116314571D01*
X143156000Y-116371714D01*
X143156000Y-116457428D01*
X143127428Y-116514571D01*
X143098857Y-116543142D01*
X143041714Y-116571714D01*
X142813142Y-116571714D01*
X143670285Y-116457428D02*
X143670285Y-116857428D01*
X143527428Y-116228857D02*
X143384571Y-116657428D01*
X143756000Y-116657428D01*
%TO.C,R18*%
X144775285Y-116857428D02*
X144575285Y-116571714D01*
X144432428Y-116857428D02*
X144432428Y-116257428D01*
X144661000Y-116257428D01*
X144718142Y-116286000D01*
X144746714Y-116314571D01*
X144775285Y-116371714D01*
X144775285Y-116457428D01*
X144746714Y-116514571D01*
X144718142Y-116543142D01*
X144661000Y-116571714D01*
X144432428Y-116571714D01*
X145346714Y-116857428D02*
X145003857Y-116857428D01*
X145175285Y-116857428D02*
X145175285Y-116257428D01*
X145118142Y-116343142D01*
X145061000Y-116400285D01*
X145003857Y-116428857D01*
X145689571Y-116514571D02*
X145632428Y-116486000D01*
X145603857Y-116457428D01*
X145575285Y-116400285D01*
X145575285Y-116371714D01*
X145603857Y-116314571D01*
X145632428Y-116286000D01*
X145689571Y-116257428D01*
X145803857Y-116257428D01*
X145861000Y-116286000D01*
X145889571Y-116314571D01*
X145918142Y-116371714D01*
X145918142Y-116400285D01*
X145889571Y-116457428D01*
X145861000Y-116486000D01*
X145803857Y-116514571D01*
X145689571Y-116514571D01*
X145632428Y-116543142D01*
X145603857Y-116571714D01*
X145575285Y-116628857D01*
X145575285Y-116743142D01*
X145603857Y-116800285D01*
X145632428Y-116828857D01*
X145689571Y-116857428D01*
X145803857Y-116857428D01*
X145861000Y-116828857D01*
X145889571Y-116800285D01*
X145918142Y-116743142D01*
X145918142Y-116628857D01*
X145889571Y-116571714D01*
X145861000Y-116543142D01*
X145803857Y-116514571D01*
%TO.C,D4*%
X156275142Y-112158428D02*
X156275142Y-111558428D01*
X156418000Y-111558428D01*
X156503714Y-111587000D01*
X156560857Y-111644142D01*
X156589428Y-111701285D01*
X156618000Y-111815571D01*
X156618000Y-111901285D01*
X156589428Y-112015571D01*
X156560857Y-112072714D01*
X156503714Y-112129857D01*
X156418000Y-112158428D01*
X156275142Y-112158428D01*
X157132285Y-111758428D02*
X157132285Y-112158428D01*
X156989428Y-111529857D02*
X156846571Y-111958428D01*
X157218000Y-111958428D01*
%TO.C,R7*%
X155094000Y-112158428D02*
X154894000Y-111872714D01*
X154751142Y-112158428D02*
X154751142Y-111558428D01*
X154979714Y-111558428D01*
X155036857Y-111587000D01*
X155065428Y-111615571D01*
X155094000Y-111672714D01*
X155094000Y-111758428D01*
X155065428Y-111815571D01*
X155036857Y-111844142D01*
X154979714Y-111872714D01*
X154751142Y-111872714D01*
X155294000Y-111558428D02*
X155694000Y-111558428D01*
X155436857Y-112158428D01*
%TO.C,J6*%
X158929428Y-108277000D02*
X159358000Y-108277000D01*
X159443714Y-108305571D01*
X159500857Y-108362714D01*
X159529428Y-108448428D01*
X159529428Y-108505571D01*
X158929428Y-107734142D02*
X158929428Y-107848428D01*
X158958000Y-107905571D01*
X158986571Y-107934142D01*
X159072285Y-107991285D01*
X159186571Y-108019857D01*
X159415142Y-108019857D01*
X159472285Y-107991285D01*
X159500857Y-107962714D01*
X159529428Y-107905571D01*
X159529428Y-107791285D01*
X159500857Y-107734142D01*
X159472285Y-107705571D01*
X159415142Y-107677000D01*
X159272285Y-107677000D01*
X159215142Y-107705571D01*
X159186571Y-107734142D01*
X159158000Y-107791285D01*
X159158000Y-107905571D01*
X159186571Y-107962714D01*
X159215142Y-107991285D01*
X159272285Y-108019857D01*
%TO.C,C5*%
X148617000Y-109688285D02*
X148588428Y-109716857D01*
X148502714Y-109745428D01*
X148445571Y-109745428D01*
X148359857Y-109716857D01*
X148302714Y-109659714D01*
X148274142Y-109602571D01*
X148245571Y-109488285D01*
X148245571Y-109402571D01*
X148274142Y-109288285D01*
X148302714Y-109231142D01*
X148359857Y-109174000D01*
X148445571Y-109145428D01*
X148502714Y-109145428D01*
X148588428Y-109174000D01*
X148617000Y-109202571D01*
X149159857Y-109145428D02*
X148874142Y-109145428D01*
X148845571Y-109431142D01*
X148874142Y-109402571D01*
X148931285Y-109374000D01*
X149074142Y-109374000D01*
X149131285Y-109402571D01*
X149159857Y-109431142D01*
X149188428Y-109488285D01*
X149188428Y-109631142D01*
X149159857Y-109688285D01*
X149131285Y-109716857D01*
X149074142Y-109745428D01*
X148931285Y-109745428D01*
X148874142Y-109716857D01*
X148845571Y-109688285D01*
%TO.C,C6*%
X142902000Y-109307285D02*
X142873428Y-109335857D01*
X142787714Y-109364428D01*
X142730571Y-109364428D01*
X142644857Y-109335857D01*
X142587714Y-109278714D01*
X142559142Y-109221571D01*
X142530571Y-109107285D01*
X142530571Y-109021571D01*
X142559142Y-108907285D01*
X142587714Y-108850142D01*
X142644857Y-108793000D01*
X142730571Y-108764428D01*
X142787714Y-108764428D01*
X142873428Y-108793000D01*
X142902000Y-108821571D01*
X143416285Y-108764428D02*
X143302000Y-108764428D01*
X143244857Y-108793000D01*
X143216285Y-108821571D01*
X143159142Y-108907285D01*
X143130571Y-109021571D01*
X143130571Y-109250142D01*
X143159142Y-109307285D01*
X143187714Y-109335857D01*
X143244857Y-109364428D01*
X143359142Y-109364428D01*
X143416285Y-109335857D01*
X143444857Y-109307285D01*
X143473428Y-109250142D01*
X143473428Y-109107285D01*
X143444857Y-109050142D01*
X143416285Y-109021571D01*
X143359142Y-108993000D01*
X143244857Y-108993000D01*
X143187714Y-109021571D01*
X143159142Y-109050142D01*
X143130571Y-109107285D01*
%TO.C,IC1*%
X145464285Y-107459428D02*
X145464285Y-106859428D01*
X146092857Y-107402285D02*
X146064285Y-107430857D01*
X145978571Y-107459428D01*
X145921428Y-107459428D01*
X145835714Y-107430857D01*
X145778571Y-107373714D01*
X145750000Y-107316571D01*
X145721428Y-107202285D01*
X145721428Y-107116571D01*
X145750000Y-107002285D01*
X145778571Y-106945142D01*
X145835714Y-106888000D01*
X145921428Y-106859428D01*
X145978571Y-106859428D01*
X146064285Y-106888000D01*
X146092857Y-106916571D01*
X146664285Y-107459428D02*
X146321428Y-107459428D01*
X146492857Y-107459428D02*
X146492857Y-106859428D01*
X146435714Y-106945142D01*
X146378571Y-107002285D01*
X146321428Y-107030857D01*
%TO.C,C7*%
X154205000Y-124420285D02*
X154176428Y-124448857D01*
X154090714Y-124477428D01*
X154033571Y-124477428D01*
X153947857Y-124448857D01*
X153890714Y-124391714D01*
X153862142Y-124334571D01*
X153833571Y-124220285D01*
X153833571Y-124134571D01*
X153862142Y-124020285D01*
X153890714Y-123963142D01*
X153947857Y-123906000D01*
X154033571Y-123877428D01*
X154090714Y-123877428D01*
X154176428Y-123906000D01*
X154205000Y-123934571D01*
X154405000Y-123877428D02*
X154805000Y-123877428D01*
X154547857Y-124477428D01*
%TO.C,C8*%
X156237000Y-102449285D02*
X156208428Y-102477857D01*
X156122714Y-102506428D01*
X156065571Y-102506428D01*
X155979857Y-102477857D01*
X155922714Y-102420714D01*
X155894142Y-102363571D01*
X155865571Y-102249285D01*
X155865571Y-102163571D01*
X155894142Y-102049285D01*
X155922714Y-101992142D01*
X155979857Y-101935000D01*
X156065571Y-101906428D01*
X156122714Y-101906428D01*
X156208428Y-101935000D01*
X156237000Y-101963571D01*
X156579857Y-102163571D02*
X156522714Y-102135000D01*
X156494142Y-102106428D01*
X156465571Y-102049285D01*
X156465571Y-102020714D01*
X156494142Y-101963571D01*
X156522714Y-101935000D01*
X156579857Y-101906428D01*
X156694142Y-101906428D01*
X156751285Y-101935000D01*
X156779857Y-101963571D01*
X156808428Y-102020714D01*
X156808428Y-102049285D01*
X156779857Y-102106428D01*
X156751285Y-102135000D01*
X156694142Y-102163571D01*
X156579857Y-102163571D01*
X156522714Y-102192142D01*
X156494142Y-102220714D01*
X156465571Y-102277857D01*
X156465571Y-102392142D01*
X156494142Y-102449285D01*
X156522714Y-102477857D01*
X156579857Y-102506428D01*
X156694142Y-102506428D01*
X156751285Y-102477857D01*
X156779857Y-102449285D01*
X156808428Y-102392142D01*
X156808428Y-102277857D01*
X156779857Y-102220714D01*
X156751285Y-102192142D01*
X156694142Y-102163571D01*
%TO.C,U1*%
X137628380Y-120014904D02*
X138437904Y-120014904D01*
X138533142Y-119967285D01*
X138580761Y-119919666D01*
X138628380Y-119824428D01*
X138628380Y-119633952D01*
X138580761Y-119538714D01*
X138533142Y-119491095D01*
X138437904Y-119443476D01*
X137628380Y-119443476D01*
X138628380Y-118443476D02*
X138628380Y-119014904D01*
X138628380Y-118729190D02*
X137628380Y-118729190D01*
X137771238Y-118824428D01*
X137866476Y-118919666D01*
X137914095Y-119014904D01*
%TO.C,R8*%
X150776000Y-124477428D02*
X150576000Y-124191714D01*
X150433142Y-124477428D02*
X150433142Y-123877428D01*
X150661714Y-123877428D01*
X150718857Y-123906000D01*
X150747428Y-123934571D01*
X150776000Y-123991714D01*
X150776000Y-124077428D01*
X150747428Y-124134571D01*
X150718857Y-124163142D01*
X150661714Y-124191714D01*
X150433142Y-124191714D01*
X151118857Y-124134571D02*
X151061714Y-124106000D01*
X151033142Y-124077428D01*
X151004571Y-124020285D01*
X151004571Y-123991714D01*
X151033142Y-123934571D01*
X151061714Y-123906000D01*
X151118857Y-123877428D01*
X151233142Y-123877428D01*
X151290285Y-123906000D01*
X151318857Y-123934571D01*
X151347428Y-123991714D01*
X151347428Y-124020285D01*
X151318857Y-124077428D01*
X151290285Y-124106000D01*
X151233142Y-124134571D01*
X151118857Y-124134571D01*
X151061714Y-124163142D01*
X151033142Y-124191714D01*
X151004571Y-124248857D01*
X151004571Y-124363142D01*
X151033142Y-124420285D01*
X151061714Y-124448857D01*
X151118857Y-124477428D01*
X151233142Y-124477428D01*
X151290285Y-124448857D01*
X151318857Y-124420285D01*
X151347428Y-124363142D01*
X151347428Y-124248857D01*
X151318857Y-124191714D01*
X151290285Y-124163142D01*
X151233142Y-124134571D01*
D12*
%TO.C,U2*%
X148644000Y-119872000D02*
X148644000Y-117872000D01*
X151584000Y-119872000D02*
X151584000Y-117872000D01*
D13*
X149094000Y-117422000D02*
G75*
G03*
X149094000Y-117422000I-80000J0D01*
G01*
D10*
%TO.C,U4*%
X137582000Y-122163000D02*
X137582000Y-124613000D01*
X140802000Y-123963000D02*
X140802000Y-122163000D01*
D14*
%TO.C,J1*%
X155158000Y-138363000D02*
X155158000Y-137083000D01*
X145578000Y-138363000D02*
X155158000Y-138363000D01*
X145578000Y-133113000D02*
X145578000Y-134363000D01*
X155158000Y-133113000D02*
X155158000Y-134363000D01*
X145578000Y-137083000D02*
X145578000Y-138363000D01*
D10*
%TO.C,J2*%
X138702000Y-128465000D02*
X138702000Y-125575000D01*
X136402000Y-131115000D02*
X136402000Y-126865000D01*
X144522000Y-131115000D02*
X144522000Y-126865000D01*
X143502000Y-126865000D02*
X143502000Y-128465000D01*
X137422000Y-126865000D02*
X137422000Y-128465000D01*
X136402000Y-126865000D02*
X137422000Y-126865000D01*
X138122000Y-134685000D02*
X142802000Y-134685000D01*
X143502000Y-128465000D02*
X142222000Y-128465000D01*
X137422000Y-128465000D02*
X138702000Y-128465000D01*
X144522000Y-126865000D02*
X143502000Y-126865000D01*
%TO.C,C1*%
X138443580Y-116588000D02*
X138162420Y-116588000D01*
X138443580Y-115568000D02*
X138162420Y-115568000D01*
%TO.C,C2*%
X141857000Y-120409580D02*
X141857000Y-120128420D01*
X142877000Y-120409580D02*
X142877000Y-120128420D01*
%TO.C,C3*%
X141349000Y-123584580D02*
X141349000Y-123303420D01*
X142369000Y-123584580D02*
X142369000Y-123303420D01*
%TO.C,C4*%
X141226000Y-119520580D02*
X141226000Y-119239420D01*
X140206000Y-119520580D02*
X140206000Y-119239420D01*
%TO.C,D2*%
X160755000Y-112307000D02*
X159285000Y-112307000D01*
X159285000Y-112307000D02*
X159285000Y-114592000D01*
X160755000Y-114592000D02*
X160755000Y-112307000D01*
%TO.C,D3*%
X160755000Y-121246000D02*
X160755000Y-118961000D01*
X159285000Y-121246000D02*
X160755000Y-121246000D01*
X159285000Y-118961000D02*
X159285000Y-121246000D01*
%TO.C,R1*%
X148098742Y-128509500D02*
X148573258Y-128509500D01*
X148098742Y-129554500D02*
X148573258Y-129554500D01*
%TO.C,R2*%
X153018258Y-129554500D02*
X152543742Y-129554500D01*
X153018258Y-128509500D02*
X152543742Y-128509500D01*
%TO.C,R3*%
X136002500Y-122444742D02*
X136002500Y-122919258D01*
X137047500Y-122444742D02*
X137047500Y-122919258D01*
%TO.C,R5*%
X157846500Y-114029258D02*
X157846500Y-113554742D01*
X158891500Y-114029258D02*
X158891500Y-113554742D01*
%TO.C,R6*%
X157846500Y-119998258D02*
X157846500Y-119523742D01*
X158891500Y-119998258D02*
X158891500Y-119523742D01*
%TO.C,J3*%
X130411000Y-106137000D02*
X130411000Y-110017000D01*
X132381000Y-111187000D02*
X134881000Y-111187000D01*
X132381000Y-104967000D02*
X134881000Y-104967000D01*
X134881000Y-111187000D02*
X134881000Y-110137000D01*
X134881000Y-104967000D02*
X134881000Y-106017000D01*
X134881000Y-106017000D02*
X135871000Y-106017000D01*
%TO.C,C10*%
X148211000Y-119012580D02*
X148211000Y-118731420D01*
X147191000Y-119012580D02*
X147191000Y-118731420D01*
%TO.C,R12*%
X152131500Y-118634742D02*
X152131500Y-119109258D01*
X153176500Y-118634742D02*
X153176500Y-119109258D01*
%TO.C,R15*%
X153176500Y-121936742D02*
X153176500Y-122411258D01*
X152131500Y-121936742D02*
X152131500Y-122411258D01*
%TO.C,R16*%
X149874500Y-121936742D02*
X149874500Y-122411258D01*
X148829500Y-121936742D02*
X148829500Y-122411258D01*
%TO.C,R17*%
X148223500Y-121936742D02*
X148223500Y-122411258D01*
X147178500Y-121936742D02*
X147178500Y-122411258D01*
D15*
%TO.C,S1*%
X128949000Y-130112000D02*
X130099000Y-130112000D01*
X132699000Y-131562000D02*
X132699000Y-131562000D01*
X133449000Y-130112000D02*
X133299000Y-130112000D01*
X133299000Y-125412000D02*
X133449000Y-125412000D01*
X130099000Y-125412000D02*
X128949000Y-125412000D01*
X128949000Y-125412000D02*
X128949000Y-130112000D01*
X132599000Y-131562000D02*
X132599000Y-131562000D01*
X133449000Y-125412000D02*
X133449000Y-130112000D01*
X132599000Y-131562000D02*
G75*
G03*
X132699000Y-131562000I50000J0D01*
G01*
X132699000Y-131562000D02*
G75*
G03*
X132599000Y-131562000I-50000J0D01*
G01*
%TO.C,S2*%
X157635000Y-130112000D02*
X157635000Y-125412000D01*
X160985000Y-130112000D02*
X162135000Y-130112000D01*
X158385000Y-123962000D02*
X158385000Y-123962000D01*
X157635000Y-125412000D02*
X157785000Y-125412000D01*
X162135000Y-125412000D02*
X160985000Y-125412000D01*
X157785000Y-130112000D02*
X157635000Y-130112000D01*
X162135000Y-130112000D02*
X162135000Y-125412000D01*
X158485000Y-123962000D02*
X158485000Y-123962000D01*
X158485000Y-123962000D02*
G75*
G03*
X158385000Y-123962000I-50000J0D01*
G01*
X158385000Y-123962000D02*
G75*
G03*
X158485000Y-123962000I50000J0D01*
G01*
D14*
%TO.C,S3*%
X136407000Y-114602000D02*
X136407000Y-114602000D01*
X133707000Y-121952000D02*
X133707000Y-121952000D01*
X130707000Y-121952000D02*
X130707000Y-121952000D01*
X130707000Y-115852000D02*
X130707000Y-119352000D01*
X133707000Y-121952000D02*
X130707000Y-121952000D01*
X136407000Y-114602000D02*
X136407000Y-114602000D01*
X133707000Y-119602000D02*
X133707000Y-119602000D01*
X133707000Y-119602000D02*
X133707000Y-121952000D01*
X133707000Y-113252000D02*
X130707000Y-113252000D01*
X133707000Y-121952000D02*
X133707000Y-119602000D01*
X130707000Y-121952000D02*
X133707000Y-121952000D01*
X130707000Y-113252000D02*
X130707000Y-113252000D01*
X133707000Y-121952000D02*
X133707000Y-121952000D01*
X133707000Y-113252000D02*
X133707000Y-113252000D01*
X136307000Y-114602000D02*
X136307000Y-114602000D01*
X130707000Y-119352000D02*
X130707000Y-119352000D01*
X130707000Y-115852000D02*
X130707000Y-115852000D01*
X130707000Y-119352000D02*
X130707000Y-115852000D01*
X130707000Y-113252000D02*
X133707000Y-113252000D01*
X136407000Y-114602000D02*
G75*
G03*
X136307000Y-114602000I-50000J0D01*
G01*
X136307000Y-114602000D02*
G75*
G03*
X136407000Y-114602000I50000J0D01*
G01*
X136407000Y-114602000D02*
G75*
G03*
X136307000Y-114602000I-50000J0D01*
G01*
D10*
%TO.C,C12*%
X147576000Y-114667420D02*
X147576000Y-114948580D01*
X146556000Y-114667420D02*
X146556000Y-114948580D01*
%TO.C,R4*%
X143778500Y-115045258D02*
X143778500Y-114570742D01*
X142733500Y-115045258D02*
X142733500Y-114570742D01*
%TO.C,R18*%
X144638500Y-115045258D02*
X144638500Y-114570742D01*
X145683500Y-115045258D02*
X145683500Y-114570742D01*
%TO.C,D4*%
X155983000Y-115277000D02*
X157453000Y-115277000D01*
X155983000Y-112992000D02*
X155983000Y-115277000D01*
X157453000Y-115277000D02*
X157453000Y-112992000D01*
%TO.C,R7*%
X155589500Y-114029258D02*
X155589500Y-113554742D01*
X154544500Y-114029258D02*
X154544500Y-113554742D01*
%TO.C,J6*%
X156203000Y-104967000D02*
X156203000Y-106017000D01*
X160673000Y-110017000D02*
X160673000Y-106137000D01*
X158703000Y-104967000D02*
X156203000Y-104967000D01*
X156203000Y-110137000D02*
X155213000Y-110137000D01*
X158703000Y-111187000D02*
X156203000Y-111187000D01*
X156203000Y-111187000D02*
X156203000Y-110137000D01*
%TO.C,TP1*%
X152842000Y-97282000D02*
G75*
G03*
X152842000Y-97282000I-950000J0D01*
G01*
%TO.C,TP2*%
X150302000Y-97282000D02*
G75*
G03*
X150302000Y-97282000I-950000J0D01*
G01*
%TO.C,TP4*%
X145222000Y-97155000D02*
G75*
G03*
X145222000Y-97155000I-950000J0D01*
G01*
D16*
%TO.C,G\u002A\u002A\u002A*%
X132842000Y-90140465D02*
X132074093Y-90140465D01*
X132074093Y-90140465D02*
X132074093Y-93330233D01*
X132074093Y-93330233D02*
X131128976Y-93330233D01*
X131128976Y-93330233D02*
X131128976Y-90140465D01*
X131128976Y-90140465D02*
X130361070Y-90140465D01*
X130361070Y-90140465D02*
X130361070Y-89372559D01*
X130361070Y-89372559D02*
X132842000Y-89372559D01*
X132842000Y-89372559D02*
X132842000Y-90140465D01*
X132842000Y-90140465D02*
X132842000Y-90140465D01*
G36*
X132842000Y-90140465D02*
G01*
X132074093Y-90140465D01*
X132074093Y-93330233D01*
X131128976Y-93330233D01*
X131128976Y-90140465D01*
X130361070Y-90140465D01*
X130361070Y-89372559D01*
X132842000Y-89372559D01*
X132842000Y-90140465D01*
G37*
X132842000Y-90140465D02*
X132074093Y-90140465D01*
X132074093Y-93330233D01*
X131128976Y-93330233D01*
X131128976Y-90140465D01*
X130361070Y-90140465D01*
X130361070Y-89372559D01*
X132842000Y-89372559D01*
X132842000Y-90140465D01*
X144774093Y-90140465D02*
X144006186Y-90140465D01*
X144006186Y-90140465D02*
X144006186Y-93330233D01*
X144006186Y-93330233D02*
X143061070Y-93330233D01*
X143061070Y-93330233D02*
X143061070Y-90140465D01*
X143061070Y-90140465D02*
X142293163Y-90140465D01*
X142293163Y-90140465D02*
X142293163Y-89372559D01*
X142293163Y-89372559D02*
X144774093Y-89372559D01*
X144774093Y-89372559D02*
X144774093Y-90140465D01*
X144774093Y-90140465D02*
X144774093Y-90140465D01*
G36*
X144774093Y-90140465D02*
G01*
X144006186Y-90140465D01*
X144006186Y-93330233D01*
X143061070Y-93330233D01*
X143061070Y-90140465D01*
X142293163Y-90140465D01*
X142293163Y-89372559D01*
X144774093Y-89372559D01*
X144774093Y-90140465D01*
G37*
X144774093Y-90140465D02*
X144006186Y-90140465D01*
X144006186Y-93330233D01*
X143061070Y-93330233D01*
X143061070Y-90140465D01*
X142293163Y-90140465D01*
X142293163Y-89372559D01*
X144774093Y-89372559D01*
X144774093Y-90140465D01*
X149076500Y-89407039D02*
X149213741Y-89495458D01*
X149213741Y-89495458D02*
X149405442Y-89625644D01*
X149405442Y-89625644D02*
X149617814Y-89774545D01*
X149617814Y-89774545D02*
X150178976Y-90173464D01*
X150178976Y-90173464D02*
X150194709Y-91751848D01*
X150194709Y-91751848D02*
X150210441Y-93330233D01*
X150210441Y-93330233D02*
X149322465Y-93330233D01*
X149322465Y-93330233D02*
X149322465Y-92621396D01*
X149322465Y-92621396D02*
X148672697Y-92621396D01*
X148672697Y-92621396D02*
X148672697Y-93330233D01*
X148672697Y-93330233D02*
X147786651Y-93330233D01*
X147786651Y-93330233D02*
X147786651Y-91853489D01*
X147786651Y-91853489D02*
X148672697Y-91853489D01*
X148672697Y-91853489D02*
X149322465Y-91853489D01*
X149322465Y-91853489D02*
X149322465Y-91178474D01*
X149322465Y-91178474D02*
X149321361Y-90886866D01*
X149321361Y-90886866D02*
X149314910Y-90689401D01*
X149314910Y-90689401D02*
X149298396Y-90562081D01*
X149298396Y-90562081D02*
X149267109Y-90480911D01*
X149267109Y-90480911D02*
X149216335Y-90421895D01*
X149216335Y-90421895D02*
X149165674Y-90380127D01*
X149165674Y-90380127D02*
X149053655Y-90300914D01*
X149053655Y-90300914D02*
X148979327Y-90294345D01*
X148979327Y-90294345D02*
X148890116Y-90356848D01*
X148890116Y-90356848D02*
X148885093Y-90361072D01*
X148885093Y-90361072D02*
X148794505Y-90442694D01*
X148794505Y-90442694D02*
X148734472Y-90522739D01*
X148734472Y-90522739D02*
X148698671Y-90626837D01*
X148698671Y-90626837D02*
X148680783Y-90780613D01*
X148680783Y-90780613D02*
X148674485Y-91009696D01*
X148674485Y-91009696D02*
X148673602Y-91218489D01*
X148673602Y-91218489D02*
X148672697Y-91853489D01*
X148672697Y-91853489D02*
X147786651Y-91853489D01*
X147786651Y-91853489D02*
X147786651Y-90208194D01*
X147786651Y-90208194D02*
X148379371Y-89790376D01*
X148379371Y-89790376D02*
X148610139Y-89630118D01*
X148610139Y-89630118D02*
X148806114Y-89498554D01*
X148806114Y-89498554D02*
X148947221Y-89408844D01*
X148947221Y-89408844D02*
X149013389Y-89374147D01*
X149013389Y-89374147D02*
X149014371Y-89374092D01*
X149014371Y-89374092D02*
X149076500Y-89407039D01*
X149076500Y-89407039D02*
X149076500Y-89407039D01*
G36*
X148379371Y-89790376D02*
G01*
X148610139Y-89630118D01*
X148806114Y-89498554D01*
X148947221Y-89408844D01*
X149013389Y-89374147D01*
X149014371Y-89374092D01*
X149076500Y-89407039D01*
X149213741Y-89495458D01*
X149405442Y-89625644D01*
X149617814Y-89774545D01*
X150178976Y-90173464D01*
X150194709Y-91751848D01*
X150210441Y-93330233D01*
X149322465Y-93330233D01*
X149322465Y-92621396D01*
X148672697Y-92621396D01*
X148672697Y-93330233D01*
X147786651Y-93330233D01*
X147786651Y-91853489D01*
X148672697Y-91853489D01*
X149322465Y-91853489D01*
X149322465Y-91178474D01*
X149321361Y-90886866D01*
X149314910Y-90689401D01*
X149298396Y-90562081D01*
X149267109Y-90480911D01*
X149216335Y-90421895D01*
X149165674Y-90380127D01*
X149053655Y-90300914D01*
X148979327Y-90294345D01*
X148890116Y-90356848D01*
X148885093Y-90361072D01*
X148794505Y-90442694D01*
X148734472Y-90522739D01*
X148698671Y-90626837D01*
X148680783Y-90780613D01*
X148674485Y-91009696D01*
X148673602Y-91218489D01*
X148672697Y-91853489D01*
X147786651Y-91853489D01*
X147786651Y-90208194D01*
X148379371Y-89790376D01*
G37*
X148379371Y-89790376D02*
X148610139Y-89630118D01*
X148806114Y-89498554D01*
X148947221Y-89408844D01*
X149013389Y-89374147D01*
X149014371Y-89374092D01*
X149076500Y-89407039D01*
X149213741Y-89495458D01*
X149405442Y-89625644D01*
X149617814Y-89774545D01*
X150178976Y-90173464D01*
X150194709Y-91751848D01*
X150210441Y-93330233D01*
X149322465Y-93330233D01*
X149322465Y-92621396D01*
X148672697Y-92621396D01*
X148672697Y-93330233D01*
X147786651Y-93330233D01*
X147786651Y-91853489D01*
X148672697Y-91853489D01*
X149322465Y-91853489D01*
X149322465Y-91178474D01*
X149321361Y-90886866D01*
X149314910Y-90689401D01*
X149298396Y-90562081D01*
X149267109Y-90480911D01*
X149216335Y-90421895D01*
X149165674Y-90380127D01*
X149053655Y-90300914D01*
X148979327Y-90294345D01*
X148890116Y-90356848D01*
X148885093Y-90361072D01*
X148794505Y-90442694D01*
X148734472Y-90522739D01*
X148698671Y-90626837D01*
X148680783Y-90780613D01*
X148674485Y-91009696D01*
X148673602Y-91218489D01*
X148672697Y-91853489D01*
X147786651Y-91853489D01*
X147786651Y-90208194D01*
X148379371Y-89790376D01*
X136799674Y-93330233D02*
X135854558Y-93330233D01*
X135854558Y-93330233D02*
X135854558Y-89372559D01*
X135854558Y-89372559D02*
X136799674Y-89372559D01*
X136799674Y-89372559D02*
X136799674Y-93330233D01*
X136799674Y-93330233D02*
X136799674Y-93330233D01*
G36*
X136799674Y-93330233D02*
G01*
X135854558Y-93330233D01*
X135854558Y-89372559D01*
X136799674Y-89372559D01*
X136799674Y-93330233D01*
G37*
X136799674Y-93330233D02*
X135854558Y-93330233D01*
X135854558Y-89372559D01*
X136799674Y-89372559D01*
X136799674Y-93330233D01*
X147596174Y-90301901D02*
X147579907Y-91231243D01*
X147579907Y-91231243D02*
X147095812Y-91551838D01*
X147095812Y-91551838D02*
X146611718Y-91872432D01*
X146611718Y-91872432D02*
X147036743Y-92163187D01*
X147036743Y-92163187D02*
X147280618Y-92330675D01*
X147280618Y-92330675D02*
X147443939Y-92453520D01*
X147443939Y-92453520D02*
X147542116Y-92555984D01*
X147542116Y-92555984D02*
X147590557Y-92662330D01*
X147590557Y-92662330D02*
X147604671Y-92796822D01*
X147604671Y-92796822D02*
X147599865Y-92983722D01*
X147599865Y-92983722D02*
X147597339Y-93045926D01*
X147597339Y-93045926D02*
X147579907Y-93490442D01*
X147579907Y-93490442D02*
X146797232Y-92966223D01*
X146797232Y-92966223D02*
X146014558Y-92442005D01*
X146014558Y-92442005D02*
X146014558Y-93330233D01*
X146014558Y-93330233D02*
X145010372Y-93330233D01*
X145010372Y-93330233D02*
X145010372Y-90140465D01*
X145010372Y-90140465D02*
X146014558Y-90140465D01*
X146014558Y-90140465D02*
X146014558Y-91391988D01*
X146014558Y-91391988D02*
X146295139Y-91190715D01*
X146295139Y-91190715D02*
X146575721Y-90989442D01*
X146575721Y-90989442D02*
X146593076Y-90564954D01*
X146593076Y-90564954D02*
X146610431Y-90140465D01*
X146610431Y-90140465D02*
X146014558Y-90140465D01*
X146014558Y-90140465D02*
X145010372Y-90140465D01*
X145010372Y-90140465D02*
X145010372Y-89372559D01*
X145010372Y-89372559D02*
X147612442Y-89372559D01*
X147612442Y-89372559D02*
X147596174Y-90301901D01*
X147596174Y-90301901D02*
X147596174Y-90301901D01*
G36*
X147612442Y-89372559D02*
G01*
X147596174Y-90301901D01*
X147579907Y-91231243D01*
X147095812Y-91551838D01*
X146611718Y-91872432D01*
X147036743Y-92163187D01*
X147280618Y-92330675D01*
X147443939Y-92453520D01*
X147542116Y-92555984D01*
X147590557Y-92662330D01*
X147604671Y-92796822D01*
X147599865Y-92983722D01*
X147597339Y-93045926D01*
X147579907Y-93490442D01*
X146797232Y-92966223D01*
X146014558Y-92442005D01*
X146014558Y-93330233D01*
X145010372Y-93330233D01*
X145010372Y-91391988D01*
X146014558Y-91391988D01*
X146295139Y-91190715D01*
X146575721Y-90989442D01*
X146593076Y-90564954D01*
X146610431Y-90140465D01*
X146014558Y-90140465D01*
X146014558Y-91391988D01*
X145010372Y-91391988D01*
X145010372Y-89372559D01*
X147612442Y-89372559D01*
G37*
X147612442Y-89372559D02*
X147596174Y-90301901D01*
X147579907Y-91231243D01*
X147095812Y-91551838D01*
X146611718Y-91872432D01*
X147036743Y-92163187D01*
X147280618Y-92330675D01*
X147443939Y-92453520D01*
X147542116Y-92555984D01*
X147590557Y-92662330D01*
X147604671Y-92796822D01*
X147599865Y-92983722D01*
X147597339Y-93045926D01*
X147579907Y-93490442D01*
X146797232Y-92966223D01*
X146014558Y-92442005D01*
X146014558Y-93330233D01*
X145010372Y-93330233D01*
X145010372Y-91391988D01*
X146014558Y-91391988D01*
X146295139Y-91190715D01*
X146575721Y-90989442D01*
X146593076Y-90564954D01*
X146610431Y-90140465D01*
X146014558Y-90140465D01*
X146014558Y-91391988D01*
X145010372Y-91391988D01*
X145010372Y-89372559D01*
X147612442Y-89372559D01*
X135647814Y-91231243D02*
X135163719Y-91551838D01*
X135163719Y-91551838D02*
X134679625Y-91872432D01*
X134679625Y-91872432D02*
X135104649Y-92163187D01*
X135104649Y-92163187D02*
X135348525Y-92330675D01*
X135348525Y-92330675D02*
X135511846Y-92453520D01*
X135511846Y-92453520D02*
X135610023Y-92555984D01*
X135610023Y-92555984D02*
X135658464Y-92662330D01*
X135658464Y-92662330D02*
X135672578Y-92796822D01*
X135672578Y-92796822D02*
X135667772Y-92983722D01*
X135667772Y-92983722D02*
X135665246Y-93045926D01*
X135665246Y-93045926D02*
X135647814Y-93490442D01*
X135647814Y-93490442D02*
X134865139Y-92966223D01*
X134865139Y-92966223D02*
X134082465Y-92442005D01*
X134082465Y-92442005D02*
X134082465Y-93330233D01*
X134082465Y-93330233D02*
X133078279Y-93330233D01*
X133078279Y-93330233D02*
X133078279Y-90140465D01*
X133078279Y-90140465D02*
X134082465Y-90140465D01*
X134082465Y-90140465D02*
X134082465Y-91391988D01*
X134082465Y-91391988D02*
X134363046Y-91190715D01*
X134363046Y-91190715D02*
X134643628Y-90989442D01*
X134643628Y-90989442D02*
X134660983Y-90564954D01*
X134660983Y-90564954D02*
X134678338Y-90140465D01*
X134678338Y-90140465D02*
X134082465Y-90140465D01*
X134082465Y-90140465D02*
X133078279Y-90140465D01*
X133078279Y-90140465D02*
X133078279Y-89372559D01*
X133078279Y-89372559D02*
X135680348Y-89372559D01*
X135680348Y-89372559D02*
X135647814Y-91231243D01*
X135647814Y-91231243D02*
X135647814Y-91231243D01*
G36*
X135680348Y-89372559D02*
G01*
X135647814Y-91231243D01*
X135163719Y-91551838D01*
X134679625Y-91872432D01*
X135104649Y-92163187D01*
X135348525Y-92330675D01*
X135511846Y-92453520D01*
X135610023Y-92555984D01*
X135658464Y-92662330D01*
X135672578Y-92796822D01*
X135667772Y-92983722D01*
X135665246Y-93045926D01*
X135647814Y-93490442D01*
X134865139Y-92966223D01*
X134082465Y-92442005D01*
X134082465Y-93330233D01*
X133078279Y-93330233D01*
X133078279Y-91391988D01*
X134082465Y-91391988D01*
X134363046Y-91190715D01*
X134643628Y-90989442D01*
X134660983Y-90564954D01*
X134678338Y-90140465D01*
X134082465Y-90140465D01*
X134082465Y-91391988D01*
X133078279Y-91391988D01*
X133078279Y-89372559D01*
X135680348Y-89372559D01*
G37*
X135680348Y-89372559D02*
X135647814Y-91231243D01*
X135163719Y-91551838D01*
X134679625Y-91872432D01*
X135104649Y-92163187D01*
X135348525Y-92330675D01*
X135511846Y-92453520D01*
X135610023Y-92555984D01*
X135658464Y-92662330D01*
X135672578Y-92796822D01*
X135667772Y-92983722D01*
X135665246Y-93045926D01*
X135647814Y-93490442D01*
X134865139Y-92966223D01*
X134082465Y-92442005D01*
X134082465Y-93330233D01*
X133078279Y-93330233D01*
X133078279Y-91391988D01*
X134082465Y-91391988D01*
X134363046Y-91190715D01*
X134643628Y-90989442D01*
X134660983Y-90564954D01*
X134678338Y-90140465D01*
X134082465Y-90140465D01*
X134082465Y-91391988D01*
X133078279Y-91391988D01*
X133078279Y-89372559D01*
X135680348Y-89372559D01*
X153884210Y-90377349D02*
X153900372Y-91382140D01*
X153900372Y-91382140D02*
X154520604Y-90964304D01*
X154520604Y-90964304D02*
X154520604Y-89372559D01*
X154520604Y-89372559D02*
X155465721Y-89372559D01*
X155465721Y-89372559D02*
X155464390Y-90332442D01*
X155464390Y-90332442D02*
X155463060Y-91292326D01*
X155463060Y-91292326D02*
X154985328Y-91607092D01*
X154985328Y-91607092D02*
X154772995Y-91745206D01*
X154772995Y-91745206D02*
X154640211Y-91842036D01*
X154640211Y-91842036D02*
X154590215Y-91917505D01*
X154590215Y-91917505D02*
X154626250Y-91991531D01*
X154626250Y-91991531D02*
X154751557Y-92084035D01*
X154751557Y-92084035D02*
X154969378Y-92214938D01*
X154969378Y-92214938D02*
X155096535Y-92290535D01*
X155096535Y-92290535D02*
X155465721Y-92511810D01*
X155465721Y-92511810D02*
X155465721Y-92980091D01*
X155465721Y-92980091D02*
X155460585Y-93197820D01*
X155460585Y-93197820D02*
X155446945Y-93360606D01*
X155446945Y-93360606D02*
X155427449Y-93440679D01*
X155427449Y-93440679D02*
X155421418Y-93444508D01*
X155421418Y-93444508D02*
X155359112Y-93412234D01*
X155359112Y-93412234D02*
X155216656Y-93325827D01*
X155216656Y-93325827D02*
X155012203Y-93196673D01*
X155012203Y-93196673D02*
X154763910Y-93036158D01*
X154763910Y-93036158D02*
X154623976Y-92944391D01*
X154623976Y-92944391D02*
X153870837Y-92448140D01*
X153870837Y-92448140D02*
X153870837Y-93330233D01*
X153870837Y-93330233D02*
X152925721Y-93330233D01*
X152925721Y-93330233D02*
X152925721Y-89372559D01*
X152925721Y-89372559D02*
X153868047Y-89372559D01*
X153868047Y-89372559D02*
X153884210Y-90377349D01*
X153884210Y-90377349D02*
X153884210Y-90377349D01*
G36*
X153884210Y-90377349D02*
G01*
X153900372Y-91382140D01*
X154520604Y-90964304D01*
X154520604Y-89372559D01*
X155465721Y-89372559D01*
X155464390Y-90332442D01*
X155463060Y-91292326D01*
X154985328Y-91607092D01*
X154772995Y-91745206D01*
X154640211Y-91842036D01*
X154590215Y-91917505D01*
X154626250Y-91991531D01*
X154751557Y-92084035D01*
X154969378Y-92214938D01*
X155096535Y-92290535D01*
X155465721Y-92511810D01*
X155465721Y-92980091D01*
X155460585Y-93197820D01*
X155446945Y-93360606D01*
X155427449Y-93440679D01*
X155421418Y-93444508D01*
X155359112Y-93412234D01*
X155216656Y-93325827D01*
X155012203Y-93196673D01*
X154763910Y-93036158D01*
X154623976Y-92944391D01*
X153870837Y-92448140D01*
X153870837Y-93330233D01*
X152925721Y-93330233D01*
X152925721Y-89372559D01*
X153868047Y-89372559D01*
X153884210Y-90377349D01*
G37*
X153884210Y-90377349D02*
X153900372Y-91382140D01*
X154520604Y-90964304D01*
X154520604Y-89372559D01*
X155465721Y-89372559D01*
X155464390Y-90332442D01*
X155463060Y-91292326D01*
X154985328Y-91607092D01*
X154772995Y-91745206D01*
X154640211Y-91842036D01*
X154590215Y-91917505D01*
X154626250Y-91991531D01*
X154751557Y-92084035D01*
X154969378Y-92214938D01*
X155096535Y-92290535D01*
X155465721Y-92511810D01*
X155465721Y-92980091D01*
X155460585Y-93197820D01*
X155446945Y-93360606D01*
X155427449Y-93440679D01*
X155421418Y-93444508D01*
X155359112Y-93412234D01*
X155216656Y-93325827D01*
X155012203Y-93196673D01*
X154763910Y-93036158D01*
X154623976Y-92944391D01*
X153870837Y-92448140D01*
X153870837Y-93330233D01*
X152925721Y-93330233D01*
X152925721Y-89372559D01*
X153868047Y-89372559D01*
X153884210Y-90377349D01*
X160709662Y-90301901D02*
X160693395Y-91231243D01*
X160693395Y-91231243D02*
X160209301Y-91551838D01*
X160209301Y-91551838D02*
X159725206Y-91872432D01*
X159725206Y-91872432D02*
X160150231Y-92163187D01*
X160150231Y-92163187D02*
X160394106Y-92330675D01*
X160394106Y-92330675D02*
X160557428Y-92453520D01*
X160557428Y-92453520D02*
X160655605Y-92555984D01*
X160655605Y-92555984D02*
X160704046Y-92662330D01*
X160704046Y-92662330D02*
X160718159Y-92796822D01*
X160718159Y-92796822D02*
X160713354Y-92983722D01*
X160713354Y-92983722D02*
X160710827Y-93045926D01*
X160710827Y-93045926D02*
X160693395Y-93490442D01*
X160693395Y-93490442D02*
X159910721Y-92966223D01*
X159910721Y-92966223D02*
X159128046Y-92442005D01*
X159128046Y-92442005D02*
X159128046Y-93330233D01*
X159128046Y-93330233D02*
X158123860Y-93330233D01*
X158123860Y-93330233D02*
X158123860Y-90140465D01*
X158123860Y-90140465D02*
X159128046Y-90140465D01*
X159128046Y-90140465D02*
X159128046Y-91391988D01*
X159128046Y-91391988D02*
X159408628Y-91190715D01*
X159408628Y-91190715D02*
X159689209Y-90989442D01*
X159689209Y-90989442D02*
X159706564Y-90564954D01*
X159706564Y-90564954D02*
X159723920Y-90140465D01*
X159723920Y-90140465D02*
X159128046Y-90140465D01*
X159128046Y-90140465D02*
X158123860Y-90140465D01*
X158123860Y-90140465D02*
X158123860Y-89372559D01*
X158123860Y-89372559D02*
X160725930Y-89372559D01*
X160725930Y-89372559D02*
X160709662Y-90301901D01*
X160709662Y-90301901D02*
X160709662Y-90301901D01*
G36*
X160725930Y-89372559D02*
G01*
X160709662Y-90301901D01*
X160693395Y-91231243D01*
X160209301Y-91551838D01*
X159725206Y-91872432D01*
X160150231Y-92163187D01*
X160394106Y-92330675D01*
X160557428Y-92453520D01*
X160655605Y-92555984D01*
X160704046Y-92662330D01*
X160718159Y-92796822D01*
X160713354Y-92983722D01*
X160710827Y-93045926D01*
X160693395Y-93490442D01*
X159910721Y-92966223D01*
X159128046Y-92442005D01*
X159128046Y-93330233D01*
X158123860Y-93330233D01*
X158123860Y-91391988D01*
X159128046Y-91391988D01*
X159408628Y-91190715D01*
X159689209Y-90989442D01*
X159706564Y-90564954D01*
X159723920Y-90140465D01*
X159128046Y-90140465D01*
X159128046Y-91391988D01*
X158123860Y-91391988D01*
X158123860Y-89372559D01*
X160725930Y-89372559D01*
G37*
X160725930Y-89372559D02*
X160709662Y-90301901D01*
X160693395Y-91231243D01*
X160209301Y-91551838D01*
X159725206Y-91872432D01*
X160150231Y-92163187D01*
X160394106Y-92330675D01*
X160557428Y-92453520D01*
X160655605Y-92555984D01*
X160704046Y-92662330D01*
X160718159Y-92796822D01*
X160713354Y-92983722D01*
X160710827Y-93045926D01*
X160693395Y-93490442D01*
X159910721Y-92966223D01*
X159128046Y-92442005D01*
X159128046Y-93330233D01*
X158123860Y-93330233D01*
X158123860Y-91391988D01*
X159128046Y-91391988D01*
X159408628Y-91190715D01*
X159689209Y-90989442D01*
X159706564Y-90564954D01*
X159723920Y-90140465D01*
X159128046Y-90140465D01*
X159128046Y-91391988D01*
X158123860Y-91391988D01*
X158123860Y-89372559D01*
X160725930Y-89372559D01*
X140475372Y-90377349D02*
X140491535Y-91382140D01*
X140491535Y-91382140D02*
X141111767Y-90964304D01*
X141111767Y-90964304D02*
X141111767Y-89372559D01*
X141111767Y-89372559D02*
X142056883Y-89372559D01*
X142056883Y-89372559D02*
X142055553Y-90332442D01*
X142055553Y-90332442D02*
X142054223Y-91292326D01*
X142054223Y-91292326D02*
X141576490Y-91607092D01*
X141576490Y-91607092D02*
X141364158Y-91745206D01*
X141364158Y-91745206D02*
X141231373Y-91842036D01*
X141231373Y-91842036D02*
X141181378Y-91917505D01*
X141181378Y-91917505D02*
X141217413Y-91991531D01*
X141217413Y-91991531D02*
X141342720Y-92084035D01*
X141342720Y-92084035D02*
X141560541Y-92214938D01*
X141560541Y-92214938D02*
X141687697Y-92290535D01*
X141687697Y-92290535D02*
X142056883Y-92511810D01*
X142056883Y-92511810D02*
X142056883Y-92980091D01*
X142056883Y-92980091D02*
X142051748Y-93197820D01*
X142051748Y-93197820D02*
X142038108Y-93360606D01*
X142038108Y-93360606D02*
X142018612Y-93440679D01*
X142018612Y-93440679D02*
X142012581Y-93444508D01*
X142012581Y-93444508D02*
X141950275Y-93412234D01*
X141950275Y-93412234D02*
X141807818Y-93325827D01*
X141807818Y-93325827D02*
X141603366Y-93196673D01*
X141603366Y-93196673D02*
X141355073Y-93036158D01*
X141355073Y-93036158D02*
X141215139Y-92944391D01*
X141215139Y-92944391D02*
X140462000Y-92448140D01*
X140462000Y-92448140D02*
X140462000Y-93330233D01*
X140462000Y-93330233D02*
X139516883Y-93330233D01*
X139516883Y-93330233D02*
X139516883Y-89372559D01*
X139516883Y-89372559D02*
X140459210Y-89372559D01*
X140459210Y-89372559D02*
X140475372Y-90377349D01*
X140475372Y-90377349D02*
X140475372Y-90377349D01*
G36*
X140475372Y-90377349D02*
G01*
X140491535Y-91382140D01*
X141111767Y-90964304D01*
X141111767Y-89372559D01*
X142056883Y-89372559D01*
X142055553Y-90332442D01*
X142054223Y-91292326D01*
X141576490Y-91607092D01*
X141364158Y-91745206D01*
X141231373Y-91842036D01*
X141181378Y-91917505D01*
X141217413Y-91991531D01*
X141342720Y-92084035D01*
X141560541Y-92214938D01*
X141687697Y-92290535D01*
X142056883Y-92511810D01*
X142056883Y-92980091D01*
X142051748Y-93197820D01*
X142038108Y-93360606D01*
X142018612Y-93440679D01*
X142012581Y-93444508D01*
X141950275Y-93412234D01*
X141807818Y-93325827D01*
X141603366Y-93196673D01*
X141355073Y-93036158D01*
X141215139Y-92944391D01*
X140462000Y-92448140D01*
X140462000Y-93330233D01*
X139516883Y-93330233D01*
X139516883Y-89372559D01*
X140459210Y-89372559D01*
X140475372Y-90377349D01*
G37*
X140475372Y-90377349D02*
X140491535Y-91382140D01*
X141111767Y-90964304D01*
X141111767Y-89372559D01*
X142056883Y-89372559D01*
X142055553Y-90332442D01*
X142054223Y-91292326D01*
X141576490Y-91607092D01*
X141364158Y-91745206D01*
X141231373Y-91842036D01*
X141181378Y-91917505D01*
X141217413Y-91991531D01*
X141342720Y-92084035D01*
X141560541Y-92214938D01*
X141687697Y-92290535D01*
X142056883Y-92511810D01*
X142056883Y-92980091D01*
X142051748Y-93197820D01*
X142038108Y-93360606D01*
X142018612Y-93440679D01*
X142012581Y-93444508D01*
X141950275Y-93412234D01*
X141807818Y-93325827D01*
X141603366Y-93196673D01*
X141355073Y-93036158D01*
X141215139Y-92944391D01*
X140462000Y-92448140D01*
X140462000Y-93330233D01*
X139516883Y-93330233D01*
X139516883Y-89372559D01*
X140459210Y-89372559D01*
X140475372Y-90377349D01*
X157710372Y-90081396D02*
X156588046Y-90081396D01*
X156588046Y-90081396D02*
X156588046Y-90790233D01*
X156588046Y-90790233D02*
X157237814Y-90790233D01*
X157237814Y-90790233D02*
X157237814Y-91499070D01*
X157237814Y-91499070D02*
X156588046Y-91499070D01*
X156588046Y-91499070D02*
X156588046Y-91849466D01*
X156588046Y-91849466D02*
X156593715Y-92052244D01*
X156593715Y-92052244D02*
X156620106Y-92176210D01*
X156620106Y-92176210D02*
X156681299Y-92260505D01*
X156681299Y-92260505D02*
X156757474Y-92320506D01*
X156757474Y-92320506D02*
X156873919Y-92397569D01*
X156873919Y-92397569D02*
X156942462Y-92406459D01*
X156942462Y-92406459D02*
X157011185Y-92347881D01*
X157011185Y-92347881D02*
X157032444Y-92324529D01*
X157032444Y-92324529D02*
X157128670Y-92237225D01*
X157128670Y-92237225D02*
X157188808Y-92207907D01*
X157188808Y-92207907D02*
X157255936Y-92237240D01*
X157255936Y-92237240D02*
X157384844Y-92311680D01*
X157384844Y-92311680D02*
X157543924Y-92410890D01*
X157543924Y-92410890D02*
X157701566Y-92514533D01*
X157701566Y-92514533D02*
X157826159Y-92602270D01*
X157826159Y-92602270D02*
X157886096Y-92653766D01*
X157886096Y-92653766D02*
X157887581Y-92657494D01*
X157887581Y-92657494D02*
X157842137Y-92697911D01*
X157842137Y-92697911D02*
X157723197Y-92784398D01*
X157723197Y-92784398D02*
X157556855Y-92899468D01*
X157556855Y-92899468D02*
X157369202Y-93025634D01*
X157369202Y-93025634D02*
X157186330Y-93145408D01*
X157186330Y-93145408D02*
X157034331Y-93241303D01*
X157034331Y-93241303D02*
X156939296Y-93295832D01*
X156939296Y-93295832D02*
X156927513Y-93300945D01*
X156927513Y-93300945D02*
X156853641Y-93278510D01*
X156853641Y-93278510D02*
X156705446Y-93198483D01*
X156705446Y-93198483D02*
X156503827Y-93073201D01*
X156503827Y-93073201D02*
X156269682Y-92914998D01*
X156269682Y-92914998D02*
X156248768Y-92900300D01*
X156248768Y-92900300D02*
X155643675Y-92473721D01*
X155643675Y-92473721D02*
X155657599Y-89372559D01*
X155657599Y-89372559D02*
X157710372Y-89372559D01*
X157710372Y-89372559D02*
X157710372Y-90081396D01*
X157710372Y-90081396D02*
X157710372Y-90081396D01*
G36*
X157710372Y-90081396D02*
G01*
X156588046Y-90081396D01*
X156588046Y-90790233D01*
X157237814Y-90790233D01*
X157237814Y-91499070D01*
X156588046Y-91499070D01*
X156588046Y-91849466D01*
X156593715Y-92052244D01*
X156620106Y-92176210D01*
X156681299Y-92260505D01*
X156757474Y-92320506D01*
X156873919Y-92397569D01*
X156942462Y-92406459D01*
X157011185Y-92347881D01*
X157032444Y-92324529D01*
X157128670Y-92237225D01*
X157188808Y-92207907D01*
X157255936Y-92237240D01*
X157384844Y-92311680D01*
X157543924Y-92410890D01*
X157701566Y-92514533D01*
X157826159Y-92602270D01*
X157886096Y-92653766D01*
X157887581Y-92657494D01*
X157842137Y-92697911D01*
X157723197Y-92784398D01*
X157556855Y-92899468D01*
X157369202Y-93025634D01*
X157186330Y-93145408D01*
X157034331Y-93241303D01*
X156939296Y-93295832D01*
X156927513Y-93300945D01*
X156853641Y-93278510D01*
X156705446Y-93198483D01*
X156503827Y-93073201D01*
X156269682Y-92914998D01*
X156248768Y-92900300D01*
X155643675Y-92473721D01*
X155657599Y-89372559D01*
X157710372Y-89372559D01*
X157710372Y-90081396D01*
G37*
X157710372Y-90081396D02*
X156588046Y-90081396D01*
X156588046Y-90790233D01*
X157237814Y-90790233D01*
X157237814Y-91499070D01*
X156588046Y-91499070D01*
X156588046Y-91849466D01*
X156593715Y-92052244D01*
X156620106Y-92176210D01*
X156681299Y-92260505D01*
X156757474Y-92320506D01*
X156873919Y-92397569D01*
X156942462Y-92406459D01*
X157011185Y-92347881D01*
X157032444Y-92324529D01*
X157128670Y-92237225D01*
X157188808Y-92207907D01*
X157255936Y-92237240D01*
X157384844Y-92311680D01*
X157543924Y-92410890D01*
X157701566Y-92514533D01*
X157826159Y-92602270D01*
X157886096Y-92653766D01*
X157887581Y-92657494D01*
X157842137Y-92697911D01*
X157723197Y-92784398D01*
X157556855Y-92899468D01*
X157369202Y-93025634D01*
X157186330Y-93145408D01*
X157034331Y-93241303D01*
X156939296Y-93295832D01*
X156927513Y-93300945D01*
X156853641Y-93278510D01*
X156705446Y-93198483D01*
X156503827Y-93073201D01*
X156269682Y-92914998D01*
X156248768Y-92900300D01*
X155643675Y-92473721D01*
X155657599Y-89372559D01*
X157710372Y-89372559D01*
X157710372Y-90081396D01*
X152571302Y-90081396D02*
X151448976Y-90081396D01*
X151448976Y-90081396D02*
X151448976Y-91134355D01*
X151448976Y-91134355D02*
X151449404Y-91510478D01*
X151449404Y-91510478D02*
X151452198Y-91786765D01*
X151452198Y-91786765D02*
X151459627Y-91981522D01*
X151459627Y-91981522D02*
X151473959Y-92113051D01*
X151473959Y-92113051D02*
X151497462Y-92199658D01*
X151497462Y-92199658D02*
X151532406Y-92259647D01*
X151532406Y-92259647D02*
X151581057Y-92311321D01*
X151581057Y-92311321D02*
X151596651Y-92326047D01*
X151596651Y-92326047D02*
X151744325Y-92464780D01*
X151744325Y-92464780D02*
X151890335Y-92327610D01*
X151890335Y-92327610D02*
X152036346Y-92190441D01*
X152036346Y-92190441D02*
X152392654Y-92424595D01*
X152392654Y-92424595D02*
X152748962Y-92658750D01*
X152748962Y-92658750D02*
X152259737Y-92994491D01*
X152259737Y-92994491D02*
X152047772Y-93135970D01*
X152047772Y-93135970D02*
X151869788Y-93247373D01*
X151869788Y-93247373D02*
X151749371Y-93314342D01*
X151749371Y-93314342D02*
X151713117Y-93327242D01*
X151713117Y-93327242D02*
X151645238Y-93293379D01*
X151645238Y-93293379D02*
X151502930Y-93203407D01*
X151502930Y-93203407D02*
X151307059Y-93071042D01*
X151307059Y-93071042D02*
X151079790Y-92910931D01*
X151079790Y-92910931D02*
X150503860Y-92497612D01*
X150503860Y-92497612D02*
X150503860Y-89372559D01*
X150503860Y-89372559D02*
X152571302Y-89372559D01*
X152571302Y-89372559D02*
X152571302Y-90081396D01*
X152571302Y-90081396D02*
X152571302Y-90081396D01*
G36*
X152571302Y-90081396D02*
G01*
X151448976Y-90081396D01*
X151448976Y-91134355D01*
X151449404Y-91510478D01*
X151452198Y-91786765D01*
X151459627Y-91981522D01*
X151473959Y-92113051D01*
X151497462Y-92199658D01*
X151532406Y-92259647D01*
X151581057Y-92311321D01*
X151596651Y-92326047D01*
X151744325Y-92464780D01*
X151890335Y-92327610D01*
X152036346Y-92190441D01*
X152392654Y-92424595D01*
X152748962Y-92658750D01*
X152259737Y-92994491D01*
X152047772Y-93135970D01*
X151869788Y-93247373D01*
X151749371Y-93314342D01*
X151713117Y-93327242D01*
X151645238Y-93293379D01*
X151502930Y-93203407D01*
X151307059Y-93071042D01*
X151079790Y-92910931D01*
X150503860Y-92497612D01*
X150503860Y-89372559D01*
X152571302Y-89372559D01*
X152571302Y-90081396D01*
G37*
X152571302Y-90081396D02*
X151448976Y-90081396D01*
X151448976Y-91134355D01*
X151449404Y-91510478D01*
X151452198Y-91786765D01*
X151459627Y-91981522D01*
X151473959Y-92113051D01*
X151497462Y-92199658D01*
X151532406Y-92259647D01*
X151581057Y-92311321D01*
X151596651Y-92326047D01*
X151744325Y-92464780D01*
X151890335Y-92327610D01*
X152036346Y-92190441D01*
X152392654Y-92424595D01*
X152748962Y-92658750D01*
X152259737Y-92994491D01*
X152047772Y-93135970D01*
X151869788Y-93247373D01*
X151749371Y-93314342D01*
X151713117Y-93327242D01*
X151645238Y-93293379D01*
X151502930Y-93203407D01*
X151307059Y-93071042D01*
X151079790Y-92910931D01*
X150503860Y-92497612D01*
X150503860Y-89372559D01*
X152571302Y-89372559D01*
X152571302Y-90081396D01*
X139103395Y-90081396D02*
X137981070Y-90081396D01*
X137981070Y-90081396D02*
X137981070Y-91134355D01*
X137981070Y-91134355D02*
X137981497Y-91510478D01*
X137981497Y-91510478D02*
X137984291Y-91786765D01*
X137984291Y-91786765D02*
X137991720Y-91981522D01*
X137991720Y-91981522D02*
X138006052Y-92113051D01*
X138006052Y-92113051D02*
X138029555Y-92199658D01*
X138029555Y-92199658D02*
X138064499Y-92259647D01*
X138064499Y-92259647D02*
X138113150Y-92311321D01*
X138113150Y-92311321D02*
X138128744Y-92326047D01*
X138128744Y-92326047D02*
X138276418Y-92464780D01*
X138276418Y-92464780D02*
X138422428Y-92327610D01*
X138422428Y-92327610D02*
X138568439Y-92190441D01*
X138568439Y-92190441D02*
X138924747Y-92424595D01*
X138924747Y-92424595D02*
X139281055Y-92658750D01*
X139281055Y-92658750D02*
X138791830Y-92994491D01*
X138791830Y-92994491D02*
X138579865Y-93135970D01*
X138579865Y-93135970D02*
X138401881Y-93247373D01*
X138401881Y-93247373D02*
X138281464Y-93314342D01*
X138281464Y-93314342D02*
X138245210Y-93327242D01*
X138245210Y-93327242D02*
X138177331Y-93293379D01*
X138177331Y-93293379D02*
X138035023Y-93203407D01*
X138035023Y-93203407D02*
X137839152Y-93071042D01*
X137839152Y-93071042D02*
X137611883Y-92910931D01*
X137611883Y-92910931D02*
X137035953Y-92497612D01*
X137035953Y-92497612D02*
X137035953Y-89372559D01*
X137035953Y-89372559D02*
X139103395Y-89372559D01*
X139103395Y-89372559D02*
X139103395Y-90081396D01*
X139103395Y-90081396D02*
X139103395Y-90081396D01*
G36*
X139103395Y-90081396D02*
G01*
X137981070Y-90081396D01*
X137981070Y-91134355D01*
X137981497Y-91510478D01*
X137984291Y-91786765D01*
X137991720Y-91981522D01*
X138006052Y-92113051D01*
X138029555Y-92199658D01*
X138064499Y-92259647D01*
X138113150Y-92311321D01*
X138128744Y-92326047D01*
X138276418Y-92464780D01*
X138422428Y-92327610D01*
X138568439Y-92190441D01*
X138924747Y-92424595D01*
X139281055Y-92658750D01*
X138791830Y-92994491D01*
X138579865Y-93135970D01*
X138401881Y-93247373D01*
X138281464Y-93314342D01*
X138245210Y-93327242D01*
X138177331Y-93293379D01*
X138035023Y-93203407D01*
X137839152Y-93071042D01*
X137611883Y-92910931D01*
X137035953Y-92497612D01*
X137035953Y-89372559D01*
X139103395Y-89372559D01*
X139103395Y-90081396D01*
G37*
X139103395Y-90081396D02*
X137981070Y-90081396D01*
X137981070Y-91134355D01*
X137981497Y-91510478D01*
X137984291Y-91786765D01*
X137991720Y-91981522D01*
X138006052Y-92113051D01*
X138029555Y-92199658D01*
X138064499Y-92259647D01*
X138113150Y-92311321D01*
X138128744Y-92326047D01*
X138276418Y-92464780D01*
X138422428Y-92327610D01*
X138568439Y-92190441D01*
X138924747Y-92424595D01*
X139281055Y-92658750D01*
X138791830Y-92994491D01*
X138579865Y-93135970D01*
X138401881Y-93247373D01*
X138281464Y-93314342D01*
X138245210Y-93327242D01*
X138177331Y-93293379D01*
X138035023Y-93203407D01*
X137839152Y-93071042D01*
X137611883Y-92910931D01*
X137035953Y-92497612D01*
X137035953Y-89372559D01*
X139103395Y-89372559D01*
X139103395Y-90081396D01*
D10*
%TO.C,TP3*%
X147762000Y-97155000D02*
G75*
G03*
X147762000Y-97155000I-950000J0D01*
G01*
%TO.C,C5*%
X149227000Y-107328580D02*
X149227000Y-107047420D01*
X148207000Y-107328580D02*
X148207000Y-107047420D01*
%TO.C,C6*%
X143639000Y-107328580D02*
X143639000Y-107047420D01*
X142619000Y-107328580D02*
X142619000Y-107047420D01*
D14*
%TO.C,IC1*%
X144550000Y-108438000D02*
X144550000Y-108438000D01*
X144550000Y-108438000D02*
X145050000Y-108438000D01*
X147550000Y-105938000D02*
X147050000Y-105938000D01*
X147550000Y-105938000D02*
X147550000Y-105938000D01*
X144550000Y-105938000D02*
X144550000Y-105938000D01*
X144550000Y-105938000D02*
X145050000Y-105938000D01*
X147550000Y-108438000D02*
X147550000Y-108438000D01*
X144550000Y-105938000D02*
X144550000Y-105938000D01*
X147550000Y-108438000D02*
X147050000Y-108438000D01*
D17*
X144075000Y-106438000D02*
G75*
G03*
X144075000Y-106438000I-125000J0D01*
G01*
D10*
%TO.C,C7*%
X154815000Y-122314580D02*
X154815000Y-122033420D01*
X153795000Y-122314580D02*
X153795000Y-122033420D01*
%TO.C,C8*%
X156847000Y-101967420D02*
X156847000Y-102248580D01*
X155827000Y-101967420D02*
X155827000Y-102248580D01*
%TO.C,TP6*%
X140142000Y-97155000D02*
G75*
G03*
X140142000Y-97155000I-950000J0D01*
G01*
%TO.C,U1*%
X139609000Y-118999000D02*
X139609000Y-117199000D01*
X136489000Y-118999000D02*
X136489000Y-118199000D01*
X136489000Y-118999000D02*
X136489000Y-119799000D01*
X139609000Y-118999000D02*
X139609000Y-119799000D01*
%TO.C,TP5*%
X142682000Y-97155000D02*
G75*
G03*
X142682000Y-97155000I-950000J0D01*
G01*
%TO.C,R8*%
X150480500Y-121936742D02*
X150480500Y-122411258D01*
X151525500Y-121936742D02*
X151525500Y-122411258D01*
%TD*%
D18*
%TO.C,S3*%
X130782000Y-114477000D03*
X130782000Y-120727000D03*
%TD*%
M02*
