%TF.GenerationSoftware,KiCad,Pcbnew,(6.0.1)*%
%TF.CreationDate,2022-03-18T08:08:47+01:00*%
%TF.ProjectId,trick-tracker,74726963-6b2d-4747-9261-636b65722e6b,rev?*%
%TF.SameCoordinates,Original*%
%TF.FileFunction,Paste,Bot*%
%TF.FilePolarity,Positive*%
%FSLAX46Y46*%
G04 Gerber Fmt 4.6, Leading zero omitted, Abs format (unit mm)*
G04 Created by KiCad (PCBNEW (6.0.1)) date 2022-03-18 08:08:47*
%MOMM*%
%LPD*%
G01*
G04 APERTURE LIST*
%ADD10R,1.500000X0.800000*%
%ADD11R,0.950000X1.000000*%
%ADD12R,1.400000X1.300000*%
%ADD13R,1.900000X1.400000*%
%ADD14R,6.000000X3.000000*%
%ADD15R,2.000000X0.900000*%
%ADD16R,0.900000X2.000000*%
%ADD17R,5.000000X5.000000*%
G04 APERTURE END LIST*
D10*
%TO.C,J4*%
X156695000Y-125384000D03*
X156295000Y-124284000D03*
X156695000Y-123184000D03*
X156895000Y-122084000D03*
X156695000Y-120984000D03*
X156895000Y-119884000D03*
X156695000Y-118784000D03*
X156695000Y-117684000D03*
D11*
X145610000Y-119884000D03*
D12*
X145835000Y-118494000D03*
X145835000Y-124194000D03*
D13*
X159985000Y-130044000D03*
X158985000Y-116894000D03*
%TD*%
D14*
%TO.C,P1*%
X138176000Y-129444000D03*
X138176000Y-117544000D03*
%TD*%
D15*
%TO.C,U3*%
X154042000Y-96944000D03*
X154042000Y-98214000D03*
X154042000Y-99484000D03*
X154042000Y-100754000D03*
X154042000Y-102024000D03*
X154042000Y-103294000D03*
X154042000Y-104564000D03*
X154042000Y-105834000D03*
X154042000Y-107104000D03*
X154042000Y-108374000D03*
X154042000Y-109644000D03*
X154042000Y-110914000D03*
X154042000Y-112184000D03*
X154042000Y-113454000D03*
D16*
X151257000Y-114454000D03*
X149987000Y-114454000D03*
X148717000Y-114454000D03*
X147447000Y-114454000D03*
X146177000Y-114454000D03*
X144907000Y-114454000D03*
X143637000Y-114454000D03*
X142367000Y-114454000D03*
X141097000Y-114454000D03*
X139827000Y-114454000D03*
D15*
X137042000Y-113454000D03*
X137042000Y-112184000D03*
X137042000Y-110914000D03*
X137042000Y-109644000D03*
X137042000Y-108374000D03*
X137042000Y-107104000D03*
X137042000Y-105834000D03*
X137042000Y-104564000D03*
X137042000Y-103294000D03*
X137042000Y-102024000D03*
X137042000Y-100754000D03*
X137042000Y-99484000D03*
X137042000Y-98214000D03*
X137042000Y-96944000D03*
D17*
X146542000Y-104444000D03*
%TD*%
M02*
