%TF.GenerationSoftware,KiCad,Pcbnew,(6.0.1)*%
%TF.CreationDate,2022-03-18T08:08:47+01:00*%
%TF.ProjectId,trick-tracker,74726963-6b2d-4747-9261-636b65722e6b,rev?*%
%TF.SameCoordinates,Original*%
%TF.FileFunction,Legend,Bot*%
%TF.FilePolarity,Positive*%
%FSLAX46Y46*%
G04 Gerber Fmt 4.6, Leading zero omitted, Abs format (unit mm)*
G04 Created by KiCad (PCBNEW (6.0.1)) date 2022-03-18 08:08:47*
%MOMM*%
%LPD*%
G01*
G04 APERTURE LIST*
%ADD10C,0.150000*%
%ADD11C,0.200000*%
%ADD12C,0.120000*%
G04 APERTURE END LIST*
D10*
%TO.C,P1*%
X138787095Y-123896380D02*
X138787095Y-122896380D01*
X138406142Y-122896380D01*
X138310904Y-122944000D01*
X138263285Y-122991619D01*
X138215666Y-123086857D01*
X138215666Y-123229714D01*
X138263285Y-123324952D01*
X138310904Y-123372571D01*
X138406142Y-123420190D01*
X138787095Y-123420190D01*
X137263285Y-123896380D02*
X137834714Y-123896380D01*
X137549000Y-123896380D02*
X137549000Y-122896380D01*
X137644238Y-123039238D01*
X137739476Y-123134476D01*
X137834714Y-123182095D01*
D11*
%TO.C,J4*%
X145435000Y-130444000D02*
X145435000Y-125244000D01*
X159635000Y-117944000D02*
X159635000Y-127944000D01*
X160635000Y-127944000D02*
X160635000Y-128944000D01*
X159635000Y-127944000D02*
X160635000Y-127944000D01*
X145435000Y-117444000D02*
X145435000Y-116444000D01*
X145435000Y-123044000D02*
X145435000Y-120744000D01*
X158735000Y-130444000D02*
X145435000Y-130444000D01*
X145435000Y-116444000D02*
X157635000Y-116444000D01*
D12*
%TO.C,P1*%
X133276000Y-124544000D02*
X133276000Y-122544000D01*
X132176000Y-124544000D02*
X133276000Y-124544000D01*
X144176000Y-129444000D02*
X144176000Y-117644000D01*
X132176000Y-117644000D02*
X134976000Y-117644000D01*
X134976000Y-129444000D02*
X132176000Y-129444000D01*
X141376000Y-129444000D02*
X144176000Y-129444000D01*
X133276000Y-122544000D02*
X132176000Y-122544000D01*
X132176000Y-129444000D02*
X132176000Y-117644000D01*
X144176000Y-117644000D02*
X141376000Y-117644000D01*
X143157025Y-127244000D02*
G75*
G03*
X143157025Y-127244000I-781025J0D01*
G01*
%TO.C,U3*%
X154662000Y-115079000D02*
X153662000Y-115079000D01*
X154662000Y-95754000D02*
X155042000Y-95754000D01*
X154662000Y-89334000D02*
X136422000Y-89334000D01*
X154662000Y-89334000D02*
X154662000Y-95754000D01*
X136422000Y-114299000D02*
X136422000Y-115079000D01*
X154662000Y-114299000D02*
X154662000Y-115079000D01*
X136422000Y-115079000D02*
X137422000Y-115079000D01*
X136422000Y-89334000D02*
X136422000Y-95754000D01*
%TD*%
M02*
