%TF.GenerationSoftware,KiCad,Pcbnew,(6.0.1)*%
%TF.CreationDate,2022-03-18T08:08:47+01:00*%
%TF.ProjectId,trick-tracker,74726963-6b2d-4747-9261-636b65722e6b,rev?*%
%TF.SameCoordinates,Original*%
%TF.FileFunction,Copper,L3,Inr*%
%TF.FilePolarity,Positive*%
%FSLAX46Y46*%
G04 Gerber Fmt 4.6, Leading zero omitted, Abs format (unit mm)*
G04 Created by KiCad (PCBNEW (6.0.1)) date 2022-03-18 08:08:47*
%MOMM*%
%LPD*%
G01*
G04 APERTURE LIST*
%TA.AperFunction,ComponentPad*%
%ADD10O,1.050000X2.100000*%
%TD*%
%TA.AperFunction,ComponentPad*%
%ADD11O,1.000000X2.000000*%
%TD*%
%TA.AperFunction,ComponentPad*%
%ADD12C,0.800000*%
%TD*%
%TA.AperFunction,ComponentPad*%
%ADD13C,5.000000*%
%TD*%
%TA.AperFunction,ComponentPad*%
%ADD14C,1.300000*%
%TD*%
%TA.AperFunction,ViaPad*%
%ADD15C,0.500000*%
%TD*%
%TA.AperFunction,ViaPad*%
%ADD16C,0.800000*%
%TD*%
G04 APERTURE END LIST*
D10*
%TO.N,unconnected-(J1-PadS1)*%
%TO.C,J1*%
X146048000Y-131583000D03*
D11*
%TO.N,unconnected-(J1-PadS2)*%
X146048000Y-135763000D03*
%TO.N,unconnected-(J1-PadS3)*%
X154688000Y-135763000D03*
D10*
%TO.N,unconnected-(J1-PadS4)*%
X154688000Y-131583000D03*
%TD*%
D12*
%TO.N,N/C*%
%TO.C,H1*%
X134717000Y-134239000D03*
X131516175Y-135564825D03*
X131516175Y-132913175D03*
X132842000Y-132364000D03*
X132842000Y-136114000D03*
X134167825Y-132913175D03*
D13*
X132842000Y-134239000D03*
D12*
X134167825Y-135564825D03*
X130967000Y-134239000D03*
%TD*%
%TO.N,N/C*%
%TO.C,H2*%
X156916175Y-135564825D03*
X159567825Y-135564825D03*
X158242000Y-136114000D03*
D13*
X158242000Y-134239000D03*
D12*
X159567825Y-132913175D03*
X158242000Y-132364000D03*
X160117000Y-134239000D03*
X156916175Y-132913175D03*
X156367000Y-134239000D03*
%TD*%
D14*
%TO.N,unconnected-(S3-PadMH1)*%
%TO.C,S3*%
X130782000Y-114477000D03*
%TO.N,unconnected-(S3-PadMH2)*%
X130782000Y-120727000D03*
%TD*%
D12*
%TO.N,N/C*%
%TO.C,H3*%
X132842000Y-99792000D03*
X134167825Y-96591175D03*
X130967000Y-97917000D03*
X134717000Y-97917000D03*
D13*
X132842000Y-97917000D03*
D12*
X132842000Y-96042000D03*
X131516175Y-96591175D03*
X134167825Y-99242825D03*
X131516175Y-99242825D03*
%TD*%
%TO.N,N/C*%
%TO.C,H4*%
X160117000Y-97917000D03*
X159567825Y-99242825D03*
X156367000Y-97917000D03*
X159567825Y-96591175D03*
X158242000Y-99792000D03*
D13*
X158242000Y-97917000D03*
D12*
X158242000Y-96042000D03*
X156916175Y-99242825D03*
X156916175Y-96591175D03*
%TD*%
D15*
%TO.N,+3V3*%
X157224200Y-108581000D03*
X155677100Y-122239500D03*
X152577800Y-98075100D03*
X148717000Y-108873300D03*
X151003000Y-123851700D03*
X148550800Y-121968000D03*
X147098400Y-108666100D03*
X133850500Y-107577000D03*
X142406400Y-107240400D03*
X138296600Y-120894500D03*
%TO.N,GND*%
X149159200Y-118815800D03*
X155067000Y-115474300D03*
X154038000Y-127759900D03*
X151091800Y-115904300D03*
X153392300Y-122239300D03*
X135096000Y-105822900D03*
X155690100Y-119894300D03*
X140925100Y-123206600D03*
X138492300Y-97028000D03*
X140475200Y-127310200D03*
X155485800Y-123253000D03*
X146134600Y-115914800D03*
X135822400Y-124209600D03*
X130849000Y-123911200D03*
X160235000Y-128876900D03*
X155988000Y-110343700D03*
X138278100Y-115495100D03*
X149645200Y-106687200D03*
X147511000Y-128086100D03*
X143588900Y-104852300D03*
X142202500Y-106413000D03*
X152582000Y-97107100D03*
X152654000Y-117195600D03*
X160235000Y-126392400D03*
X144272000Y-95954700D03*
X130849000Y-129159000D03*
X160347100Y-121441200D03*
%TO.N,/VBUS*%
X140893300Y-121107700D03*
X151638000Y-132207000D03*
X151003000Y-132207000D03*
X140482200Y-105764000D03*
D16*
X149479000Y-127889000D03*
D15*
X149733000Y-132207000D03*
X159588200Y-115510600D03*
X139000300Y-103687700D03*
X142869245Y-121805622D03*
X149098000Y-132207000D03*
X140258300Y-121107700D03*
X150368000Y-132207000D03*
X141528300Y-121107700D03*
X152781000Y-128080600D03*
%TO.N,/VBAT*%
X140925100Y-123907000D03*
X137919700Y-123163400D03*
%TO.N,/SCL*%
X135301700Y-104971500D03*
%TO.N,/SDA*%
X138815800Y-105188900D03*
%TO.N,/RESET*%
X139112700Y-98329500D03*
X150179300Y-122341400D03*
X136123500Y-120372000D03*
%TO.N,/PRESS_INT*%
X150938900Y-118965000D03*
%TO.N,/BTN*%
X152830900Y-124871000D03*
%TO.N,/Tx*%
X139663400Y-100103700D03*
%TO.N,/Rx*%
X141431100Y-101871400D03*
%TO.N,/BAT_SENS*%
X152341800Y-106949900D03*
%TO.N,Net-(D4-Pad2)*%
X152137200Y-111967600D03*
%TO.N,/VIN*%
X142569700Y-117703500D03*
X143951700Y-119085500D03*
%TO.N,/BMX_INT2*%
X147825300Y-110981000D03*
%TO.N,/BMX_INT1*%
X143214100Y-109092900D03*
%TD*%
%TA.AperFunction,Conductor*%
%TO.N,+3V3*%
G36*
X144080139Y-95270002D02*
G01*
X144126632Y-95323658D01*
X144136736Y-95393932D01*
X144107242Y-95458512D01*
X144066664Y-95488643D01*
X144063879Y-95489439D01*
X144056288Y-95494228D01*
X144056287Y-95494229D01*
X143949254Y-95561762D01*
X143941661Y-95566553D01*
X143935718Y-95573282D01*
X143935717Y-95573283D01*
X143881527Y-95634642D01*
X143845999Y-95674870D01*
X143784583Y-95805682D01*
X143783203Y-95814546D01*
X143783202Y-95814549D01*
X143776233Y-95859312D01*
X143762350Y-95948473D01*
X143763514Y-95957375D01*
X143763514Y-95957378D01*
X143777960Y-96067845D01*
X143781088Y-96091765D01*
X143839289Y-96224039D01*
X143932276Y-96334660D01*
X143939747Y-96339633D01*
X143939748Y-96339634D01*
X144045101Y-96409763D01*
X144045103Y-96409764D01*
X144052574Y-96414737D01*
X144061138Y-96417413D01*
X144061141Y-96417414D01*
X144121542Y-96436285D01*
X144190510Y-96457832D01*
X144334998Y-96460480D01*
X144354530Y-96455155D01*
X144465763Y-96424830D01*
X144465765Y-96424829D01*
X144474422Y-96422469D01*
X144597572Y-96346854D01*
X144694551Y-96239714D01*
X144757560Y-96109662D01*
X144781536Y-95967153D01*
X144781688Y-95954700D01*
X144768027Y-95859312D01*
X144762474Y-95820535D01*
X144762473Y-95820533D01*
X144761201Y-95811648D01*
X144701388Y-95680095D01*
X144695530Y-95673296D01*
X144695527Y-95673292D01*
X144612916Y-95577418D01*
X144612913Y-95577416D01*
X144607056Y-95570618D01*
X144485790Y-95492017D01*
X144478640Y-95489879D01*
X144425764Y-95443648D01*
X144406065Y-95375439D01*
X144426371Y-95307408D01*
X144480233Y-95261154D01*
X144532064Y-95250000D01*
X156879217Y-95250000D01*
X156947338Y-95270002D01*
X156993831Y-95323658D01*
X157003935Y-95393932D01*
X156974441Y-95458512D01*
X156943640Y-95484285D01*
X156690911Y-95634642D01*
X156687910Y-95636957D01*
X156687906Y-95636960D01*
X156621400Y-95688269D01*
X156427950Y-95837515D01*
X156425249Y-95840174D01*
X156425242Y-95840180D01*
X156296260Y-95967153D01*
X156191266Y-96070511D01*
X156188902Y-96073478D01*
X156188899Y-96073481D01*
X156068925Y-96224039D01*
X155984287Y-96330253D01*
X155810012Y-96612980D01*
X155670965Y-96914596D01*
X155569161Y-97230732D01*
X155568442Y-97234448D01*
X155568440Y-97234456D01*
X155511009Y-97531296D01*
X155506073Y-97556808D01*
X155505806Y-97560584D01*
X155505805Y-97560589D01*
X155483777Y-97871700D01*
X155482616Y-97888103D01*
X155485602Y-97948083D01*
X155491327Y-98063069D01*
X155499130Y-98219816D01*
X155499771Y-98223547D01*
X155499772Y-98223555D01*
X155544605Y-98484462D01*
X155555375Y-98547142D01*
X155556463Y-98550781D01*
X155556464Y-98550784D01*
X155628775Y-98792573D01*
X155650537Y-98865341D01*
X155783236Y-99169803D01*
X155785159Y-99173074D01*
X155785161Y-99173078D01*
X155949629Y-99452847D01*
X155949633Y-99452853D01*
X155951552Y-99456117D01*
X155953853Y-99459132D01*
X156149548Y-99715553D01*
X156153046Y-99720137D01*
X156155694Y-99722856D01*
X156155699Y-99722861D01*
X156379381Y-99952477D01*
X156384798Y-99958038D01*
X156387742Y-99960409D01*
X156387745Y-99960412D01*
X156458810Y-100017652D01*
X156643453Y-100166374D01*
X156925264Y-100342127D01*
X157226147Y-100482751D01*
X157229757Y-100483934D01*
X157229756Y-100483934D01*
X157503984Y-100573830D01*
X157541746Y-100586209D01*
X157867488Y-100651003D01*
X157871261Y-100651290D01*
X157871268Y-100651291D01*
X158194878Y-100675908D01*
X158194883Y-100675908D01*
X158198655Y-100676195D01*
X158530450Y-100661418D01*
X158858067Y-100606888D01*
X158861701Y-100605822D01*
X158861705Y-100605821D01*
X159022108Y-100558763D01*
X159176759Y-100513393D01*
X159217583Y-100495854D01*
X159451467Y-100395370D01*
X159481912Y-100382290D01*
X159769103Y-100215475D01*
X160034175Y-100015367D01*
X160273286Y-99784863D01*
X160323764Y-99722861D01*
X160480582Y-99530239D01*
X160480583Y-99530238D01*
X160482973Y-99527302D01*
X160503623Y-99494574D01*
X160658176Y-99249623D01*
X160658179Y-99249617D01*
X160660199Y-99246416D01*
X160662885Y-99240747D01*
X160663329Y-99240248D01*
X160663651Y-99239663D01*
X160663785Y-99239737D01*
X160710121Y-99187747D01*
X160778514Y-99168698D01*
X160846349Y-99189649D01*
X160892088Y-99243949D01*
X160902754Y-99295121D01*
X160866319Y-109838728D01*
X160828129Y-120890319D01*
X160828025Y-120920279D01*
X160807788Y-120988331D01*
X160753972Y-121034638D01*
X160683663Y-121044499D01*
X160633494Y-121025577D01*
X160560890Y-120978517D01*
X160544021Y-120973472D01*
X160431038Y-120939682D01*
X160431036Y-120939682D01*
X160422437Y-120937110D01*
X160413463Y-120937055D01*
X160413461Y-120937055D01*
X160350182Y-120936669D01*
X160277927Y-120936228D01*
X160269296Y-120938695D01*
X160269294Y-120938695D01*
X160147609Y-120973472D01*
X160147605Y-120973474D01*
X160138979Y-120975939D01*
X160131392Y-120980726D01*
X160131390Y-120980727D01*
X160046156Y-121034506D01*
X160016761Y-121053053D01*
X159921099Y-121161370D01*
X159859683Y-121292182D01*
X159858303Y-121301046D01*
X159858302Y-121301049D01*
X159841843Y-121406760D01*
X159837450Y-121434973D01*
X159838614Y-121443875D01*
X159838614Y-121443878D01*
X159847867Y-121514635D01*
X159856188Y-121578265D01*
X159914389Y-121710539D01*
X159920163Y-121717408D01*
X159984546Y-121794000D01*
X160007376Y-121821160D01*
X160014847Y-121826133D01*
X160014848Y-121826134D01*
X160120201Y-121896263D01*
X160120203Y-121896264D01*
X160127674Y-121901237D01*
X160136238Y-121903913D01*
X160136241Y-121903914D01*
X160189784Y-121920642D01*
X160265610Y-121944332D01*
X160410098Y-121946980D01*
X160429630Y-121941655D01*
X160540863Y-121911330D01*
X160540865Y-121911329D01*
X160549522Y-121908969D01*
X160590839Y-121883600D01*
X160632484Y-121858030D01*
X160701002Y-121839432D01*
X160768697Y-121860829D01*
X160814078Y-121915428D01*
X160824412Y-121965838D01*
X160810648Y-125948718D01*
X160790411Y-126016770D01*
X160736595Y-126063077D01*
X160666286Y-126072938D01*
X160601808Y-126043222D01*
X160589196Y-126030531D01*
X160570056Y-126008318D01*
X160448790Y-125929717D01*
X160431921Y-125924672D01*
X160318938Y-125890882D01*
X160318936Y-125890882D01*
X160310337Y-125888310D01*
X160301363Y-125888255D01*
X160301361Y-125888255D01*
X160238082Y-125887869D01*
X160165827Y-125887428D01*
X160157196Y-125889895D01*
X160157194Y-125889895D01*
X160035509Y-125924672D01*
X160035505Y-125924674D01*
X160026879Y-125927139D01*
X159904661Y-126004253D01*
X159898718Y-126010982D01*
X159898717Y-126010983D01*
X159844001Y-126072938D01*
X159808999Y-126112570D01*
X159805185Y-126120693D01*
X159805184Y-126120695D01*
X159794168Y-126144158D01*
X159747583Y-126243382D01*
X159746203Y-126252246D01*
X159746202Y-126252249D01*
X159728508Y-126365892D01*
X159725350Y-126386173D01*
X159726514Y-126395075D01*
X159726514Y-126395078D01*
X159742924Y-126520564D01*
X159744088Y-126529465D01*
X159802289Y-126661739D01*
X159895276Y-126772360D01*
X159902747Y-126777333D01*
X159902748Y-126777334D01*
X160008101Y-126847463D01*
X160008103Y-126847464D01*
X160015574Y-126852437D01*
X160024138Y-126855113D01*
X160024141Y-126855114D01*
X160084542Y-126873985D01*
X160153510Y-126895532D01*
X160297998Y-126898180D01*
X160317530Y-126892855D01*
X160428763Y-126862530D01*
X160428765Y-126862529D01*
X160437422Y-126860169D01*
X160560572Y-126784554D01*
X160571610Y-126772360D01*
X160588157Y-126754079D01*
X160648701Y-126716998D01*
X160719681Y-126718536D01*
X160778562Y-126758205D01*
X160806649Y-126823409D01*
X160807571Y-126839067D01*
X160804571Y-127707050D01*
X160802096Y-128423293D01*
X160781859Y-128491345D01*
X160728043Y-128537652D01*
X160657734Y-128547513D01*
X160593256Y-128517797D01*
X160580644Y-128505106D01*
X160575915Y-128499618D01*
X160570056Y-128492818D01*
X160509423Y-128453517D01*
X160456324Y-128419100D01*
X160456322Y-128419099D01*
X160448790Y-128414217D01*
X160431921Y-128409172D01*
X160318938Y-128375382D01*
X160318936Y-128375382D01*
X160310337Y-128372810D01*
X160301363Y-128372755D01*
X160301361Y-128372755D01*
X160238082Y-128372369D01*
X160165827Y-128371928D01*
X160157196Y-128374395D01*
X160157194Y-128374395D01*
X160035509Y-128409172D01*
X160035505Y-128409174D01*
X160026879Y-128411639D01*
X160019292Y-128416426D01*
X160019290Y-128416427D01*
X159912254Y-128483962D01*
X159904661Y-128488753D01*
X159898718Y-128495482D01*
X159898717Y-128495483D01*
X159879010Y-128517797D01*
X159808999Y-128597070D01*
X159747583Y-128727882D01*
X159746203Y-128736746D01*
X159746202Y-128736749D01*
X159739201Y-128781718D01*
X159725350Y-128870673D01*
X159726514Y-128879575D01*
X159726514Y-128879578D01*
X159728213Y-128892569D01*
X159744088Y-129013965D01*
X159802289Y-129146239D01*
X159895276Y-129256860D01*
X159902747Y-129261833D01*
X159902748Y-129261834D01*
X160008101Y-129331963D01*
X160008103Y-129331964D01*
X160015574Y-129336937D01*
X160024138Y-129339613D01*
X160024141Y-129339614D01*
X160084542Y-129358484D01*
X160153510Y-129380032D01*
X160297998Y-129382680D01*
X160332411Y-129373298D01*
X160428763Y-129347030D01*
X160428765Y-129347029D01*
X160437422Y-129344669D01*
X160560572Y-129269054D01*
X160579538Y-129248101D01*
X160640082Y-129211020D01*
X160711062Y-129212558D01*
X160769943Y-129252227D01*
X160798030Y-129317431D01*
X160798952Y-129333092D01*
X160787409Y-132673315D01*
X160767172Y-132741367D01*
X160713356Y-132787674D01*
X160643047Y-132797535D01*
X160578569Y-132767819D01*
X160553464Y-132737869D01*
X160516205Y-132675982D01*
X160513878Y-132672998D01*
X160513873Y-132672991D01*
X160314294Y-132417082D01*
X160314292Y-132417079D01*
X160311958Y-132414087D01*
X160077726Y-132178626D01*
X160056865Y-132162180D01*
X159819885Y-131975360D01*
X159816904Y-131973010D01*
X159533269Y-131800218D01*
X159412654Y-131745378D01*
X159234381Y-131664321D01*
X159234373Y-131664318D01*
X159230929Y-131662752D01*
X158914264Y-131562604D01*
X158769680Y-131535415D01*
X158591585Y-131501925D01*
X158591580Y-131501924D01*
X158587861Y-131501225D01*
X158256449Y-131479503D01*
X158252669Y-131479711D01*
X158252668Y-131479711D01*
X158157655Y-131484940D01*
X157924827Y-131497753D01*
X157921100Y-131498414D01*
X157921096Y-131498414D01*
X157662396Y-131544263D01*
X157597799Y-131555711D01*
X157594174Y-131556816D01*
X157594169Y-131556817D01*
X157347671Y-131631945D01*
X157280103Y-131652538D01*
X156976341Y-131786830D01*
X156690911Y-131956642D01*
X156427950Y-132159515D01*
X156425249Y-132162174D01*
X156425242Y-132162180D01*
X156193974Y-132389845D01*
X156191266Y-132392511D01*
X156188902Y-132395478D01*
X156188899Y-132395481D01*
X156090943Y-132518408D01*
X155984287Y-132652253D01*
X155982296Y-132655483D01*
X155931980Y-132737111D01*
X155879208Y-132784604D01*
X155809136Y-132796028D01*
X155744013Y-132767754D01*
X155704513Y-132708760D01*
X155698744Y-132673465D01*
X155695758Y-132521177D01*
X155695757Y-132521165D01*
X155695706Y-132518550D01*
X155691332Y-132476336D01*
X155684087Y-132438018D01*
X155683714Y-132436048D01*
X155683711Y-132436032D01*
X155683536Y-132435108D01*
X155680246Y-132420182D01*
X155637726Y-132330661D01*
X155595340Y-132273705D01*
X155565179Y-132239936D01*
X155519243Y-132211380D01*
X155486262Y-132190877D01*
X155486260Y-132190876D01*
X155481011Y-132187613D01*
X155414562Y-132162614D01*
X155405816Y-132160188D01*
X155345522Y-132122703D01*
X155315065Y-132058571D01*
X155313500Y-132038774D01*
X155313500Y-131068675D01*
X155333502Y-131000554D01*
X155387158Y-130954061D01*
X155408122Y-130946645D01*
X155408611Y-130946519D01*
X155408616Y-130946517D01*
X155417344Y-130944273D01*
X155502488Y-130893553D01*
X155555222Y-130846018D01*
X155586019Y-130812824D01*
X155630225Y-130724123D01*
X155648888Y-130655623D01*
X155657772Y-130583876D01*
X155655869Y-130486802D01*
X155655869Y-130486801D01*
X155594597Y-127361983D01*
X155577373Y-126483551D01*
X155571076Y-126432109D01*
X155568472Y-126420680D01*
X155560055Y-126383732D01*
X155560051Y-126383716D01*
X155559714Y-126382237D01*
X155553062Y-126358445D01*
X155529270Y-126316665D01*
X155507084Y-126277702D01*
X155507081Y-126277698D01*
X155504021Y-126272324D01*
X155457528Y-126218668D01*
X155424944Y-126187227D01*
X155337127Y-126141291D01*
X155269006Y-126121289D01*
X155264547Y-126120648D01*
X155264543Y-126120647D01*
X155233226Y-126116145D01*
X155197446Y-126111000D01*
X147319000Y-126111000D01*
X147250879Y-126090998D01*
X147204386Y-126037342D01*
X147193000Y-125985000D01*
X147193000Y-124864773D01*
X152321250Y-124864773D01*
X152322414Y-124873675D01*
X152322414Y-124873678D01*
X152338824Y-124999164D01*
X152339988Y-125008065D01*
X152398189Y-125140339D01*
X152491176Y-125250960D01*
X152498647Y-125255933D01*
X152498648Y-125255934D01*
X152604001Y-125326063D01*
X152604003Y-125326064D01*
X152611474Y-125331037D01*
X152620038Y-125333713D01*
X152620041Y-125333714D01*
X152680442Y-125352585D01*
X152749410Y-125374132D01*
X152893898Y-125376780D01*
X152913430Y-125371455D01*
X153024663Y-125341130D01*
X153024665Y-125341129D01*
X153033322Y-125338769D01*
X153156472Y-125263154D01*
X153253451Y-125156014D01*
X153316460Y-125025962D01*
X153340436Y-124883453D01*
X153340588Y-124871000D01*
X153320101Y-124727948D01*
X153260288Y-124596395D01*
X153254430Y-124589596D01*
X153254427Y-124589592D01*
X153171816Y-124493718D01*
X153171813Y-124493716D01*
X153165956Y-124486918D01*
X153105323Y-124447618D01*
X153052224Y-124413200D01*
X153052222Y-124413199D01*
X153044690Y-124408317D01*
X153027821Y-124403272D01*
X152914838Y-124369482D01*
X152914836Y-124369482D01*
X152906237Y-124366910D01*
X152897263Y-124366855D01*
X152897261Y-124366855D01*
X152833982Y-124366469D01*
X152761727Y-124366028D01*
X152753096Y-124368495D01*
X152753094Y-124368495D01*
X152631409Y-124403272D01*
X152631405Y-124403274D01*
X152622779Y-124405739D01*
X152615192Y-124410526D01*
X152615190Y-124410527D01*
X152508154Y-124478062D01*
X152500561Y-124482853D01*
X152494618Y-124489582D01*
X152494617Y-124489583D01*
X152423814Y-124569752D01*
X152404899Y-124591170D01*
X152343483Y-124721982D01*
X152321250Y-124864773D01*
X147193000Y-124864773D01*
X147193000Y-123246773D01*
X154976150Y-123246773D01*
X154977314Y-123255675D01*
X154977314Y-123255678D01*
X154982007Y-123291564D01*
X154994888Y-123390065D01*
X155053089Y-123522339D01*
X155058863Y-123529208D01*
X155134304Y-123618955D01*
X155146076Y-123632960D01*
X155153547Y-123637933D01*
X155153548Y-123637934D01*
X155258901Y-123708063D01*
X155258903Y-123708064D01*
X155266374Y-123713037D01*
X155274938Y-123715713D01*
X155274941Y-123715714D01*
X155335342Y-123734585D01*
X155404310Y-123756132D01*
X155548798Y-123758780D01*
X155574401Y-123751800D01*
X155679563Y-123723130D01*
X155679565Y-123723129D01*
X155688222Y-123720769D01*
X155811372Y-123645154D01*
X155908351Y-123538014D01*
X155950641Y-123450727D01*
X155967445Y-123416043D01*
X155967445Y-123416042D01*
X155971360Y-123407962D01*
X155995336Y-123265453D01*
X155995488Y-123253000D01*
X155975001Y-123109948D01*
X155915188Y-122978395D01*
X155909330Y-122971596D01*
X155909327Y-122971592D01*
X155826716Y-122875718D01*
X155826713Y-122875716D01*
X155820856Y-122868918D01*
X155716746Y-122801437D01*
X155707124Y-122795200D01*
X155707122Y-122795199D01*
X155699590Y-122790317D01*
X155662813Y-122779318D01*
X155569738Y-122751482D01*
X155569736Y-122751482D01*
X155561137Y-122748910D01*
X155552163Y-122748855D01*
X155552161Y-122748855D01*
X155488882Y-122748469D01*
X155416627Y-122748028D01*
X155407996Y-122750495D01*
X155407994Y-122750495D01*
X155286309Y-122785272D01*
X155286305Y-122785274D01*
X155277679Y-122787739D01*
X155270092Y-122792526D01*
X155270090Y-122792527D01*
X155187408Y-122844696D01*
X155155461Y-122864853D01*
X155149518Y-122871582D01*
X155149517Y-122871583D01*
X155110687Y-122915550D01*
X155059799Y-122973170D01*
X154998383Y-123103982D01*
X154976150Y-123246773D01*
X147193000Y-123246773D01*
X147193000Y-122335173D01*
X149669650Y-122335173D01*
X149670814Y-122344075D01*
X149670814Y-122344078D01*
X149687224Y-122469564D01*
X149688388Y-122478465D01*
X149746589Y-122610739D01*
X149752363Y-122617608D01*
X149816883Y-122694363D01*
X149839576Y-122721360D01*
X149847047Y-122726333D01*
X149847048Y-122726334D01*
X149952401Y-122796463D01*
X149952403Y-122796464D01*
X149959874Y-122801437D01*
X149968438Y-122804113D01*
X149968441Y-122804114D01*
X150028842Y-122822985D01*
X150097810Y-122844532D01*
X150242298Y-122847180D01*
X150261830Y-122841855D01*
X150373063Y-122811530D01*
X150373065Y-122811529D01*
X150381722Y-122809169D01*
X150504872Y-122733554D01*
X150601851Y-122626414D01*
X150664860Y-122496362D01*
X150688836Y-122353853D01*
X150688988Y-122341400D01*
X150674854Y-122242709D01*
X150673474Y-122233073D01*
X152882650Y-122233073D01*
X152883814Y-122241975D01*
X152883814Y-122241978D01*
X152891402Y-122300000D01*
X152901388Y-122376365D01*
X152959589Y-122508639D01*
X153052576Y-122619260D01*
X153060047Y-122624233D01*
X153060048Y-122624234D01*
X153165401Y-122694363D01*
X153165403Y-122694364D01*
X153172874Y-122699337D01*
X153181438Y-122702013D01*
X153181441Y-122702014D01*
X153241842Y-122720884D01*
X153310810Y-122742432D01*
X153455298Y-122745080D01*
X153474830Y-122739755D01*
X153586063Y-122709430D01*
X153586065Y-122709429D01*
X153594722Y-122707069D01*
X153717872Y-122631454D01*
X153814851Y-122524314D01*
X153877860Y-122394262D01*
X153901836Y-122251753D01*
X153901988Y-122239300D01*
X153881501Y-122096248D01*
X153821688Y-121964695D01*
X153815830Y-121957896D01*
X153815827Y-121957892D01*
X153733216Y-121862018D01*
X153733213Y-121862016D01*
X153727356Y-121855218D01*
X153606090Y-121776617D01*
X153589221Y-121771572D01*
X153476238Y-121737782D01*
X153476236Y-121737782D01*
X153467637Y-121735210D01*
X153458663Y-121735155D01*
X153458661Y-121735155D01*
X153395382Y-121734769D01*
X153323127Y-121734328D01*
X153314496Y-121736795D01*
X153314494Y-121736795D01*
X153192809Y-121771572D01*
X153192805Y-121771574D01*
X153184179Y-121774039D01*
X153176592Y-121778826D01*
X153176590Y-121778827D01*
X153079824Y-121839882D01*
X153061961Y-121851153D01*
X153056018Y-121857882D01*
X153056017Y-121857883D01*
X153033305Y-121883600D01*
X152966299Y-121959470D01*
X152962485Y-121967593D01*
X152962484Y-121967595D01*
X152946105Y-122002482D01*
X152904883Y-122090282D01*
X152903503Y-122099146D01*
X152903502Y-122099149D01*
X152888057Y-122198348D01*
X152882650Y-122233073D01*
X150673474Y-122233073D01*
X150669774Y-122207235D01*
X150669773Y-122207233D01*
X150668501Y-122198348D01*
X150608688Y-122066795D01*
X150602830Y-122059996D01*
X150602827Y-122059992D01*
X150520216Y-121964118D01*
X150520213Y-121964116D01*
X150514356Y-121957318D01*
X150449728Y-121915428D01*
X150400624Y-121883600D01*
X150400622Y-121883599D01*
X150393090Y-121878717D01*
X150376221Y-121873672D01*
X150263238Y-121839882D01*
X150263236Y-121839882D01*
X150254637Y-121837310D01*
X150245663Y-121837255D01*
X150245661Y-121837255D01*
X150182382Y-121836869D01*
X150110127Y-121836428D01*
X150101496Y-121838895D01*
X150101494Y-121838895D01*
X149979809Y-121873672D01*
X149979805Y-121873674D01*
X149971179Y-121876139D01*
X149963592Y-121880926D01*
X149963590Y-121880927D01*
X149858903Y-121946980D01*
X149848961Y-121953253D01*
X149843018Y-121959982D01*
X149843017Y-121959983D01*
X149784961Y-122025719D01*
X149753299Y-122061570D01*
X149749485Y-122069693D01*
X149749484Y-122069695D01*
X149740854Y-122088077D01*
X149691883Y-122192382D01*
X149690503Y-122201246D01*
X149690502Y-122201249D01*
X149675127Y-122300000D01*
X149669650Y-122335173D01*
X147193000Y-122335173D01*
X147193000Y-122300000D01*
X147188329Y-122256547D01*
X147187558Y-122249374D01*
X147187557Y-122249367D01*
X147187196Y-122246010D01*
X147175810Y-122193668D01*
X147168616Y-122167445D01*
X147133134Y-122105135D01*
X147122638Y-122086702D01*
X147122635Y-122086698D01*
X147119575Y-122081324D01*
X147073082Y-122027668D01*
X147040498Y-121996227D01*
X146952681Y-121950291D01*
X146884560Y-121930289D01*
X146880101Y-121929648D01*
X146880097Y-121929647D01*
X146848780Y-121925144D01*
X146813000Y-121920000D01*
X143763000Y-121920000D01*
X143694879Y-121899998D01*
X143648386Y-121846342D01*
X143637000Y-121794000D01*
X143637000Y-120395000D01*
X143635050Y-120376860D01*
X143631558Y-120344374D01*
X143631557Y-120344367D01*
X143631196Y-120341010D01*
X143627374Y-120323440D01*
X143620170Y-120290322D01*
X143620168Y-120290315D01*
X143619810Y-120288668D01*
X143612616Y-120262445D01*
X143588888Y-120220777D01*
X143566638Y-120181702D01*
X143566635Y-120181698D01*
X143563575Y-120176324D01*
X143527697Y-120134918D01*
X143518922Y-120124791D01*
X143518917Y-120124786D01*
X143517082Y-120122668D01*
X143484498Y-120091227D01*
X143396681Y-120045291D01*
X143328560Y-120025289D01*
X143324101Y-120024648D01*
X143324097Y-120024647D01*
X143292780Y-120020144D01*
X143257000Y-120015000D01*
X141604000Y-120015000D01*
X141600653Y-120015360D01*
X141600649Y-120015360D01*
X141553374Y-120020442D01*
X141553367Y-120020443D01*
X141550010Y-120020804D01*
X141546710Y-120021522D01*
X141546709Y-120021522D01*
X141499322Y-120031830D01*
X141499315Y-120031832D01*
X141497668Y-120032190D01*
X141471445Y-120039384D01*
X141442206Y-120056034D01*
X141390702Y-120085362D01*
X141390698Y-120085365D01*
X141385324Y-120088425D01*
X141380647Y-120092478D01*
X141348055Y-120120719D01*
X141331668Y-120134918D01*
X141300227Y-120167502D01*
X141254291Y-120255319D01*
X141234289Y-120323440D01*
X141224000Y-120395000D01*
X141224000Y-120510784D01*
X141203998Y-120578905D01*
X141150342Y-120625398D01*
X141080068Y-120635502D01*
X141061897Y-120631501D01*
X140977238Y-120606182D01*
X140977236Y-120606182D01*
X140968637Y-120603610D01*
X140959663Y-120603555D01*
X140959661Y-120603555D01*
X140896382Y-120603169D01*
X140824127Y-120602728D01*
X140815496Y-120605195D01*
X140815494Y-120605195D01*
X140685179Y-120642439D01*
X140684876Y-120641380D01*
X140644497Y-120650000D01*
X140507190Y-120650000D01*
X140471087Y-120644717D01*
X140342238Y-120606182D01*
X140342236Y-120606182D01*
X140333637Y-120603610D01*
X140324663Y-120603555D01*
X140324661Y-120603555D01*
X140261382Y-120603169D01*
X140189127Y-120602728D01*
X140180496Y-120605195D01*
X140180494Y-120605195D01*
X140050179Y-120642439D01*
X140049876Y-120641380D01*
X140009497Y-120650000D01*
X138937000Y-120650000D01*
X138933653Y-120650360D01*
X138933649Y-120650360D01*
X138886374Y-120655442D01*
X138886367Y-120655443D01*
X138883010Y-120655804D01*
X138879710Y-120656522D01*
X138879709Y-120656522D01*
X138832322Y-120666830D01*
X138832315Y-120666832D01*
X138830668Y-120667190D01*
X138804445Y-120674384D01*
X138763680Y-120697597D01*
X138723702Y-120720362D01*
X138723698Y-120720365D01*
X138718324Y-120723425D01*
X138664668Y-120769918D01*
X138633227Y-120802502D01*
X138587291Y-120890319D01*
X138567289Y-120958440D01*
X138566648Y-120962899D01*
X138566647Y-120962903D01*
X138562991Y-120988331D01*
X138557000Y-121030000D01*
X138557000Y-122790832D01*
X138536998Y-122858953D01*
X138483342Y-122905446D01*
X138413068Y-122915550D01*
X138348488Y-122886056D01*
X138335547Y-122873080D01*
X138260616Y-122786118D01*
X138260613Y-122786116D01*
X138254756Y-122779318D01*
X138154739Y-122714490D01*
X138141024Y-122705600D01*
X138141022Y-122705599D01*
X138133490Y-122700717D01*
X138112244Y-122694363D01*
X138003638Y-122661882D01*
X138003636Y-122661882D01*
X137995037Y-122659310D01*
X137986063Y-122659255D01*
X137986061Y-122659255D01*
X137922782Y-122658869D01*
X137850527Y-122658428D01*
X137841896Y-122660895D01*
X137841894Y-122660895D01*
X137720209Y-122695672D01*
X137720205Y-122695674D01*
X137711579Y-122698139D01*
X137703992Y-122702926D01*
X137703990Y-122702927D01*
X137596954Y-122770462D01*
X137589361Y-122775253D01*
X137583418Y-122781982D01*
X137583417Y-122781983D01*
X137557322Y-122811530D01*
X137493699Y-122883570D01*
X137432283Y-123014382D01*
X137430903Y-123023246D01*
X137430902Y-123023249D01*
X137419597Y-123095859D01*
X137410050Y-123157173D01*
X137411214Y-123166075D01*
X137411214Y-123166078D01*
X137424836Y-123270247D01*
X137428788Y-123300465D01*
X137486989Y-123432739D01*
X137492763Y-123439608D01*
X137562219Y-123522235D01*
X137579976Y-123543360D01*
X137587446Y-123548333D01*
X137587450Y-123548336D01*
X137611820Y-123564558D01*
X137657442Y-123618955D01*
X137668000Y-123669444D01*
X137668000Y-129160000D01*
X137668360Y-129163347D01*
X137668360Y-129163351D01*
X137669747Y-129176247D01*
X137673804Y-129213990D01*
X137674522Y-129217290D01*
X137674522Y-129217291D01*
X137684335Y-129262400D01*
X137685190Y-129266332D01*
X137692384Y-129292555D01*
X137709176Y-129322043D01*
X137738362Y-129373298D01*
X137738365Y-129373302D01*
X137741425Y-129378676D01*
X137754686Y-129393980D01*
X137778898Y-129421922D01*
X137787918Y-129432332D01*
X137820502Y-129463773D01*
X137908319Y-129509709D01*
X137976440Y-129529711D01*
X137980899Y-129530352D01*
X137980903Y-129530353D01*
X138002639Y-129533478D01*
X138048000Y-129540000D01*
X140082000Y-129540000D01*
X140085347Y-129539640D01*
X140085351Y-129539640D01*
X140132626Y-129534558D01*
X140132633Y-129534557D01*
X140135990Y-129534196D01*
X140139291Y-129533478D01*
X140186678Y-129523170D01*
X140186685Y-129523168D01*
X140188332Y-129522810D01*
X140214555Y-129515616D01*
X140255320Y-129492403D01*
X140295298Y-129469638D01*
X140295302Y-129469635D01*
X140300676Y-129466575D01*
X140336039Y-129435933D01*
X140352209Y-129421922D01*
X140352214Y-129421917D01*
X140354332Y-129420082D01*
X140385773Y-129387498D01*
X140431709Y-129299681D01*
X140451711Y-129231560D01*
X140462000Y-129160000D01*
X140462000Y-127933001D01*
X140482002Y-127864880D01*
X140535658Y-127818387D01*
X140554858Y-127811438D01*
X140668963Y-127780330D01*
X140668965Y-127780329D01*
X140677622Y-127777969D01*
X140800772Y-127702354D01*
X140897751Y-127595214D01*
X140960760Y-127465162D01*
X140984736Y-127322653D01*
X140984888Y-127310200D01*
X140964401Y-127167148D01*
X140904588Y-127035595D01*
X140898730Y-127028796D01*
X140898727Y-127028792D01*
X140816116Y-126932918D01*
X140816113Y-126932916D01*
X140810256Y-126926118D01*
X140688990Y-126847517D01*
X140680391Y-126844945D01*
X140680388Y-126844944D01*
X140551898Y-126806517D01*
X140492364Y-126767835D01*
X140463194Y-126703108D01*
X140462000Y-126685800D01*
X140462000Y-125729000D01*
X140482002Y-125660879D01*
X140535658Y-125614386D01*
X140588000Y-125603000D01*
X144908000Y-125603000D01*
X144976121Y-125623002D01*
X145022614Y-125676658D01*
X145034000Y-125729000D01*
X145034000Y-130651315D01*
X145037972Y-130696056D01*
X145045791Y-130739751D01*
X145049530Y-130757122D01*
X145092047Y-130846645D01*
X145134431Y-130903602D01*
X145164592Y-130937372D01*
X145172244Y-130942129D01*
X145172245Y-130942130D01*
X145179305Y-130946519D01*
X145248759Y-130989697D01*
X145254549Y-130991875D01*
X145254550Y-130991876D01*
X145312581Y-131013710D01*
X145312589Y-131013713D01*
X145315208Y-131014698D01*
X145317907Y-131015447D01*
X145317920Y-131015451D01*
X145330180Y-131018852D01*
X145390475Y-131056335D01*
X145420934Y-131120466D01*
X145422500Y-131140267D01*
X145422500Y-132025258D01*
X145402498Y-132093379D01*
X145348842Y-132139872D01*
X145325476Y-132147881D01*
X145290219Y-132156212D01*
X145290215Y-132156214D01*
X145281445Y-132158286D01*
X145273611Y-132162747D01*
X145200702Y-132204264D01*
X145200698Y-132204267D01*
X145195324Y-132207327D01*
X145141668Y-132253820D01*
X145110227Y-132286404D01*
X145064291Y-132374221D01*
X145044289Y-132442342D01*
X145034000Y-132513902D01*
X145034000Y-132716000D01*
X145034360Y-132719347D01*
X145034360Y-132719351D01*
X145038992Y-132762433D01*
X145039804Y-132769990D01*
X145040522Y-132773290D01*
X145040522Y-132773291D01*
X145044311Y-132790707D01*
X145051190Y-132822332D01*
X145058384Y-132848555D01*
X145062284Y-132855403D01*
X145104362Y-132929298D01*
X145104365Y-132929302D01*
X145107425Y-132934676D01*
X145153918Y-132988332D01*
X145186502Y-133019773D01*
X145274319Y-133065709D01*
X145342440Y-133085711D01*
X145346899Y-133086352D01*
X145346903Y-133086353D01*
X145378220Y-133090856D01*
X145414000Y-133096000D01*
X145603983Y-133096000D01*
X145624999Y-133095129D01*
X145631972Y-133094550D01*
X145639988Y-133093885D01*
X145639993Y-133093884D01*
X145645776Y-133093404D01*
X145651372Y-133091873D01*
X145651378Y-133091872D01*
X145726981Y-133071188D01*
X145735527Y-133068850D01*
X145799417Y-133037889D01*
X145838242Y-133014590D01*
X145844348Y-133007965D01*
X145844351Y-133007963D01*
X145901214Y-132946272D01*
X145901217Y-132946268D01*
X145905411Y-132941718D01*
X145941302Y-132882961D01*
X145993882Y-132835254D01*
X146063907Y-132823547D01*
X146129144Y-132851557D01*
X146158321Y-132886292D01*
X146182810Y-132929298D01*
X146182813Y-132929302D01*
X146185873Y-132934676D01*
X146232366Y-132988332D01*
X146264950Y-133019773D01*
X146352767Y-133065709D01*
X146420888Y-133085711D01*
X146425347Y-133086352D01*
X146425351Y-133086353D01*
X146456668Y-133090856D01*
X146492448Y-133096000D01*
X147173089Y-133096000D01*
X147231500Y-133089192D01*
X147235047Y-133088354D01*
X147235052Y-133088353D01*
X147285987Y-133076317D01*
X147285993Y-133076315D01*
X147287899Y-133075865D01*
X147318251Y-133066659D01*
X147402568Y-133014575D01*
X147402750Y-133014870D01*
X147465893Y-132990676D01*
X147535398Y-133005149D01*
X147549149Y-133013729D01*
X147555413Y-133019773D01*
X147643230Y-133065709D01*
X147711351Y-133085711D01*
X147715810Y-133086352D01*
X147715814Y-133086353D01*
X147747131Y-133090856D01*
X147782911Y-133096000D01*
X152953089Y-133096000D01*
X153011500Y-133089192D01*
X153015047Y-133088354D01*
X153015052Y-133088353D01*
X153065987Y-133076317D01*
X153065993Y-133076315D01*
X153067899Y-133075865D01*
X153098251Y-133066659D01*
X153182568Y-133014575D01*
X153182750Y-133014870D01*
X153245893Y-132990676D01*
X153315398Y-133005149D01*
X153329149Y-133013729D01*
X153335413Y-133019773D01*
X153423230Y-133065709D01*
X153491351Y-133085711D01*
X153495810Y-133086352D01*
X153495814Y-133086353D01*
X153527131Y-133090856D01*
X153562911Y-133096000D01*
X154243983Y-133096000D01*
X154264999Y-133095129D01*
X154271972Y-133094550D01*
X154279988Y-133093885D01*
X154279993Y-133093884D01*
X154285776Y-133093404D01*
X154291372Y-133091873D01*
X154291378Y-133091872D01*
X154366981Y-133071188D01*
X154375527Y-133068850D01*
X154439417Y-133037889D01*
X154478242Y-133014590D01*
X154484348Y-133007965D01*
X154484351Y-133007963D01*
X154541214Y-132946272D01*
X154541217Y-132946268D01*
X154545411Y-132941718D01*
X154581302Y-132882961D01*
X154633882Y-132835254D01*
X154703907Y-132823547D01*
X154769144Y-132851557D01*
X154798321Y-132886292D01*
X154822810Y-132929298D01*
X154822813Y-132929302D01*
X154825873Y-132934676D01*
X154872366Y-132988332D01*
X154904950Y-133019773D01*
X154992767Y-133065709D01*
X155060888Y-133085711D01*
X155065347Y-133086352D01*
X155065351Y-133086353D01*
X155096668Y-133090856D01*
X155132448Y-133096000D01*
X155319505Y-133096000D01*
X155323004Y-133095606D01*
X155323012Y-133095606D01*
X155344870Y-133093147D01*
X155375929Y-133089654D01*
X155379365Y-133088871D01*
X155379372Y-133088870D01*
X155428727Y-133077625D01*
X155428734Y-133077623D01*
X155430508Y-133077219D01*
X155432253Y-133076713D01*
X155432259Y-133076711D01*
X155451288Y-133071188D01*
X155459006Y-133068948D01*
X155465911Y-133064835D01*
X155465915Y-133064833D01*
X155508793Y-133039291D01*
X155577553Y-133021613D01*
X155644956Y-133043916D01*
X155689600Y-133099119D01*
X155697313Y-133169695D01*
X155687703Y-133200288D01*
X155670965Y-133236596D01*
X155569161Y-133552732D01*
X155506073Y-133878808D01*
X155505806Y-133882584D01*
X155505805Y-133882589D01*
X155482884Y-134206314D01*
X155482616Y-134210103D01*
X155499130Y-134541816D01*
X155499771Y-134545547D01*
X155499772Y-134545555D01*
X155550585Y-134841264D01*
X155555375Y-134869142D01*
X155556463Y-134872781D01*
X155556464Y-134872784D01*
X155643983Y-135165425D01*
X155650537Y-135187341D01*
X155783236Y-135491803D01*
X155785159Y-135495074D01*
X155785161Y-135495078D01*
X155949629Y-135774847D01*
X155949634Y-135774855D01*
X155951552Y-135778117D01*
X156153046Y-136042137D01*
X156155694Y-136044856D01*
X156155699Y-136044861D01*
X156382152Y-136277322D01*
X156384798Y-136280038D01*
X156387742Y-136282409D01*
X156387745Y-136282412D01*
X156458810Y-136339652D01*
X156643453Y-136488374D01*
X156735996Y-136546089D01*
X156783211Y-136599108D01*
X156794267Y-136669238D01*
X156765653Y-136734213D01*
X156706453Y-136773403D01*
X156669318Y-136779000D01*
X155304477Y-136779000D01*
X155236356Y-136758998D01*
X155189863Y-136705342D01*
X155179759Y-136635068D01*
X155204513Y-136576298D01*
X155207507Y-136572396D01*
X155207509Y-136572392D01*
X155212536Y-136565841D01*
X155273044Y-136419762D01*
X155288500Y-136302361D01*
X155288500Y-135223639D01*
X155273044Y-135106238D01*
X155212536Y-134960159D01*
X155116282Y-134834718D01*
X154990841Y-134738464D01*
X154844762Y-134677956D01*
X154688000Y-134657318D01*
X154531238Y-134677956D01*
X154385159Y-134738464D01*
X154259718Y-134834718D01*
X154163464Y-134960159D01*
X154102956Y-135106238D01*
X154087500Y-135223639D01*
X154087500Y-136302361D01*
X154102956Y-136419762D01*
X154163464Y-136565841D01*
X154168491Y-136572392D01*
X154168493Y-136572396D01*
X154171487Y-136576298D01*
X154197086Y-136642519D01*
X154182820Y-136712068D01*
X154133217Y-136762863D01*
X154071523Y-136779000D01*
X146664477Y-136779000D01*
X146596356Y-136758998D01*
X146549863Y-136705342D01*
X146539759Y-136635068D01*
X146564513Y-136576298D01*
X146567507Y-136572396D01*
X146567509Y-136572392D01*
X146572536Y-136565841D01*
X146633044Y-136419762D01*
X146648500Y-136302361D01*
X146648500Y-135223639D01*
X146633044Y-135106238D01*
X146572536Y-134960159D01*
X146476282Y-134834718D01*
X146350841Y-134738464D01*
X146204762Y-134677956D01*
X146048000Y-134657318D01*
X145891238Y-134677956D01*
X145745159Y-134738464D01*
X145619718Y-134834718D01*
X145523464Y-134960159D01*
X145462956Y-135106238D01*
X145447500Y-135223639D01*
X145447500Y-136302361D01*
X145462956Y-136419762D01*
X145523464Y-136565841D01*
X145528491Y-136572392D01*
X145528493Y-136572396D01*
X145531487Y-136576298D01*
X145557086Y-136642519D01*
X145542820Y-136712068D01*
X145493217Y-136762863D01*
X145431523Y-136779000D01*
X144906000Y-136779000D01*
X144837879Y-136758998D01*
X144791386Y-136705342D01*
X144780000Y-136653000D01*
X144780000Y-135165425D01*
X144782421Y-135140844D01*
X144782555Y-135140170D01*
X144784976Y-135128000D01*
X144775013Y-135077909D01*
X144765263Y-135028894D01*
X144758371Y-135018579D01*
X144758370Y-135018577D01*
X144716017Y-134955192D01*
X144709124Y-134944876D01*
X144625106Y-134888737D01*
X144526000Y-134869024D01*
X144513153Y-134871579D01*
X144488575Y-134874000D01*
X136435425Y-134874000D01*
X136410847Y-134871579D01*
X136398000Y-134869024D01*
X136298894Y-134888737D01*
X136214876Y-134944876D01*
X136158737Y-135028894D01*
X136148988Y-135077909D01*
X136139024Y-135128000D01*
X136141445Y-135140170D01*
X136141579Y-135140844D01*
X136144000Y-135165425D01*
X136144000Y-136653000D01*
X136123998Y-136721121D01*
X136070342Y-136767614D01*
X136018000Y-136779000D01*
X134421076Y-136779000D01*
X134352955Y-136758998D01*
X134306462Y-136705342D01*
X134296358Y-136635068D01*
X134325852Y-136570488D01*
X134357791Y-136544046D01*
X134365815Y-136539386D01*
X134365829Y-136539377D01*
X134369103Y-136537475D01*
X134634175Y-136337367D01*
X134873286Y-136106863D01*
X134923764Y-136044861D01*
X135080582Y-135852239D01*
X135080583Y-135852238D01*
X135082973Y-135849302D01*
X135084995Y-135846098D01*
X135258176Y-135571623D01*
X135258179Y-135571617D01*
X135260199Y-135568416D01*
X135402397Y-135268273D01*
X135507506Y-134953220D01*
X135574005Y-134627822D01*
X135600930Y-134296791D01*
X135601312Y-134260321D01*
X135601512Y-134241221D01*
X135601512Y-134241214D01*
X135601535Y-134239000D01*
X135581549Y-133907478D01*
X135580869Y-133903754D01*
X135522559Y-133584481D01*
X135522558Y-133584477D01*
X135521879Y-133580759D01*
X135513177Y-133552732D01*
X135424513Y-133267189D01*
X135423391Y-133263574D01*
X135412913Y-133240203D01*
X135333389Y-133062842D01*
X135287510Y-132960518D01*
X135116205Y-132675982D01*
X135113878Y-132672998D01*
X135113873Y-132672991D01*
X134914294Y-132417082D01*
X134914292Y-132417079D01*
X134911958Y-132414087D01*
X134677726Y-132178626D01*
X134656865Y-132162180D01*
X134419885Y-131975360D01*
X134416904Y-131973010D01*
X134133269Y-131800218D01*
X134012654Y-131745378D01*
X133834381Y-131664321D01*
X133834373Y-131664318D01*
X133830929Y-131662752D01*
X133514264Y-131562604D01*
X133369680Y-131535415D01*
X133191585Y-131501925D01*
X133191580Y-131501924D01*
X133187861Y-131501225D01*
X132856449Y-131479503D01*
X132852669Y-131479711D01*
X132852668Y-131479711D01*
X132757655Y-131484940D01*
X132524827Y-131497753D01*
X132521100Y-131498414D01*
X132521096Y-131498414D01*
X132262396Y-131544263D01*
X132197799Y-131555711D01*
X132194174Y-131556816D01*
X132194169Y-131556817D01*
X131947671Y-131631945D01*
X131880103Y-131652538D01*
X131576341Y-131786830D01*
X131290911Y-131956642D01*
X131027950Y-132159515D01*
X131025249Y-132162174D01*
X131025242Y-132162180D01*
X130793974Y-132389845D01*
X130791266Y-132392511D01*
X130788902Y-132395478D01*
X130788899Y-132395481D01*
X130690943Y-132518408D01*
X130584287Y-132652253D01*
X130582296Y-132655483D01*
X130535260Y-132731790D01*
X130482488Y-132779283D01*
X130412417Y-132790707D01*
X130347293Y-132762433D01*
X130307793Y-132703439D01*
X130302000Y-132665674D01*
X130302000Y-129633604D01*
X130322002Y-129565483D01*
X130375658Y-129518990D01*
X130445932Y-129508886D01*
X130508517Y-129538057D01*
X130509276Y-129538960D01*
X130516747Y-129543933D01*
X130516748Y-129543934D01*
X130622101Y-129614063D01*
X130622103Y-129614064D01*
X130629574Y-129619037D01*
X130638138Y-129621713D01*
X130638141Y-129621714D01*
X130676199Y-129633604D01*
X130767510Y-129662132D01*
X130911998Y-129664780D01*
X130931530Y-129659455D01*
X131042763Y-129629130D01*
X131042765Y-129629129D01*
X131051422Y-129626769D01*
X131174572Y-129551154D01*
X131271551Y-129444014D01*
X131334560Y-129313962D01*
X131358536Y-129171453D01*
X131358688Y-129159000D01*
X131338201Y-129015948D01*
X131278388Y-128884395D01*
X131272530Y-128877596D01*
X131272527Y-128877592D01*
X131189916Y-128781718D01*
X131189913Y-128781716D01*
X131184056Y-128774918D01*
X131111489Y-128727882D01*
X131070324Y-128701200D01*
X131070322Y-128701199D01*
X131062790Y-128696317D01*
X131022368Y-128684228D01*
X130932938Y-128657482D01*
X130932936Y-128657482D01*
X130924337Y-128654910D01*
X130915363Y-128654855D01*
X130915361Y-128654855D01*
X130852082Y-128654469D01*
X130779827Y-128654028D01*
X130771196Y-128656495D01*
X130771194Y-128656495D01*
X130649509Y-128691272D01*
X130649505Y-128691274D01*
X130640879Y-128693739D01*
X130633292Y-128698526D01*
X130633290Y-128698527D01*
X130526249Y-128766065D01*
X130526248Y-128766066D01*
X130518661Y-128770853D01*
X130512720Y-128777580D01*
X130509665Y-128780180D01*
X130444825Y-128809100D01*
X130374644Y-128798373D01*
X130321402Y-128751406D01*
X130302000Y-128684228D01*
X130302000Y-124385804D01*
X130322002Y-124317683D01*
X130375658Y-124271190D01*
X130445932Y-124261086D01*
X130508517Y-124290257D01*
X130509276Y-124291160D01*
X130516747Y-124296133D01*
X130516748Y-124296134D01*
X130622101Y-124366263D01*
X130622103Y-124366264D01*
X130629574Y-124371237D01*
X130638138Y-124373913D01*
X130638141Y-124373914D01*
X130676199Y-124385804D01*
X130767510Y-124414332D01*
X130911998Y-124416980D01*
X130962279Y-124403272D01*
X131042763Y-124381330D01*
X131042765Y-124381329D01*
X131051422Y-124378969D01*
X131174572Y-124303354D01*
X131265071Y-124203373D01*
X135312750Y-124203373D01*
X135313914Y-124212275D01*
X135313914Y-124212278D01*
X135320297Y-124261086D01*
X135331488Y-124346665D01*
X135389689Y-124478939D01*
X135482676Y-124589560D01*
X135490147Y-124594533D01*
X135490148Y-124594534D01*
X135595501Y-124664663D01*
X135595503Y-124664664D01*
X135602974Y-124669637D01*
X135611538Y-124672313D01*
X135611541Y-124672314D01*
X135671942Y-124691184D01*
X135740910Y-124712732D01*
X135885398Y-124715380D01*
X135904930Y-124710055D01*
X136016163Y-124679730D01*
X136016165Y-124679729D01*
X136024822Y-124677369D01*
X136147972Y-124601754D01*
X136244951Y-124494614D01*
X136289205Y-124403272D01*
X136304045Y-124372643D01*
X136304045Y-124372642D01*
X136307960Y-124364562D01*
X136331936Y-124222053D01*
X136332088Y-124209600D01*
X136311601Y-124066548D01*
X136251788Y-123934995D01*
X136245930Y-123928196D01*
X136245927Y-123928192D01*
X136163316Y-123832318D01*
X136163313Y-123832316D01*
X136157456Y-123825518D01*
X136082656Y-123777035D01*
X136043724Y-123751800D01*
X136043722Y-123751799D01*
X136036190Y-123746917D01*
X136019321Y-123741872D01*
X135906338Y-123708082D01*
X135906336Y-123708082D01*
X135897737Y-123705510D01*
X135888763Y-123705455D01*
X135888761Y-123705455D01*
X135825482Y-123705069D01*
X135753227Y-123704628D01*
X135744596Y-123707095D01*
X135744594Y-123707095D01*
X135622909Y-123741872D01*
X135622905Y-123741874D01*
X135614279Y-123744339D01*
X135606692Y-123749126D01*
X135606690Y-123749127D01*
X135576544Y-123768148D01*
X135492061Y-123821453D01*
X135396399Y-123929770D01*
X135334983Y-124060582D01*
X135312750Y-124203373D01*
X131265071Y-124203373D01*
X131271551Y-124196214D01*
X131334560Y-124066162D01*
X131358536Y-123923653D01*
X131358688Y-123911200D01*
X131338201Y-123768148D01*
X131278388Y-123636595D01*
X131272530Y-123629796D01*
X131272527Y-123629792D01*
X131189916Y-123533918D01*
X131189913Y-123533916D01*
X131184056Y-123527118D01*
X131062790Y-123448517D01*
X130982568Y-123424525D01*
X130932938Y-123409682D01*
X130932936Y-123409682D01*
X130924337Y-123407110D01*
X130915363Y-123407055D01*
X130915361Y-123407055D01*
X130852082Y-123406669D01*
X130779827Y-123406228D01*
X130771196Y-123408695D01*
X130771194Y-123408695D01*
X130649509Y-123443472D01*
X130649505Y-123443474D01*
X130640879Y-123445939D01*
X130633292Y-123450726D01*
X130633290Y-123450727D01*
X130526249Y-123518265D01*
X130526248Y-123518266D01*
X130518661Y-123523053D01*
X130512720Y-123529780D01*
X130509665Y-123532380D01*
X130444825Y-123561300D01*
X130374644Y-123550573D01*
X130321402Y-123503606D01*
X130302000Y-123436428D01*
X130302000Y-121697412D01*
X130322002Y-121629291D01*
X130375658Y-121582798D01*
X130445932Y-121572694D01*
X130479248Y-121582305D01*
X130494920Y-121589283D01*
X130494928Y-121589286D01*
X130500955Y-121591969D01*
X130593944Y-121611735D01*
X130680476Y-121630128D01*
X130680480Y-121630128D01*
X130686933Y-121631500D01*
X130877067Y-121631500D01*
X130883520Y-121630128D01*
X130883524Y-121630128D01*
X130970056Y-121611735D01*
X131063045Y-121591969D01*
X131113817Y-121569364D01*
X131230711Y-121517320D01*
X131230713Y-121517319D01*
X131236741Y-121514635D01*
X131390562Y-121402877D01*
X131517786Y-121261580D01*
X131612853Y-121096920D01*
X131671608Y-120916092D01*
X131676195Y-120872455D01*
X131690792Y-120733565D01*
X131691482Y-120727000D01*
X131682834Y-120644717D01*
X131672298Y-120544471D01*
X131672298Y-120544469D01*
X131671608Y-120537908D01*
X131612853Y-120357080D01*
X131517786Y-120192420D01*
X131511979Y-120185970D01*
X131394984Y-120056034D01*
X131394983Y-120056033D01*
X131390562Y-120051123D01*
X131236741Y-119939365D01*
X131230713Y-119936681D01*
X131230711Y-119936680D01*
X131069076Y-119864716D01*
X131069075Y-119864716D01*
X131063045Y-119862031D01*
X130968972Y-119842035D01*
X130883524Y-119823872D01*
X130883520Y-119823872D01*
X130877067Y-119822500D01*
X130686933Y-119822500D01*
X130680480Y-119823872D01*
X130680476Y-119823872D01*
X130595028Y-119842035D01*
X130500955Y-119862031D01*
X130494928Y-119864714D01*
X130494920Y-119864717D01*
X130479248Y-119871695D01*
X130408881Y-119881129D01*
X130344584Y-119851022D01*
X130306771Y-119790933D01*
X130302000Y-119756588D01*
X130302000Y-119254000D01*
X133223000Y-119254000D01*
X133223360Y-119257347D01*
X133223360Y-119257351D01*
X133226433Y-119285930D01*
X133228804Y-119307990D01*
X133229522Y-119311290D01*
X133229522Y-119311291D01*
X133239499Y-119357154D01*
X133240190Y-119360332D01*
X133247384Y-119386555D01*
X133266465Y-119420063D01*
X133293362Y-119467298D01*
X133293365Y-119467302D01*
X133296425Y-119472676D01*
X133304808Y-119482350D01*
X133333898Y-119515922D01*
X133342918Y-119526332D01*
X133375502Y-119557773D01*
X133463319Y-119603709D01*
X133531440Y-119623711D01*
X133535899Y-119624352D01*
X133535903Y-119624353D01*
X133562633Y-119628196D01*
X133603000Y-119634000D01*
X135970294Y-119634000D01*
X136038415Y-119654002D01*
X136084908Y-119707658D01*
X136095012Y-119777932D01*
X136065518Y-119842512D01*
X136004918Y-119881149D01*
X135924009Y-119904272D01*
X135924005Y-119904274D01*
X135915379Y-119906739D01*
X135907792Y-119911526D01*
X135907790Y-119911527D01*
X135863670Y-119939365D01*
X135793161Y-119983853D01*
X135787218Y-119990582D01*
X135787217Y-119990583D01*
X135740440Y-120043548D01*
X135697499Y-120092170D01*
X135693685Y-120100293D01*
X135693684Y-120100295D01*
X135667801Y-120155425D01*
X135636083Y-120222982D01*
X135634703Y-120231846D01*
X135634702Y-120231849D01*
X135615631Y-120354337D01*
X135613850Y-120365773D01*
X135615014Y-120374675D01*
X135615014Y-120374678D01*
X135618336Y-120400080D01*
X135632588Y-120509065D01*
X135690789Y-120641339D01*
X135696563Y-120648208D01*
X135712217Y-120666830D01*
X135783776Y-120751960D01*
X135791247Y-120756933D01*
X135791248Y-120756934D01*
X135896601Y-120827063D01*
X135896603Y-120827064D01*
X135904074Y-120832037D01*
X135912638Y-120834713D01*
X135912641Y-120834714D01*
X135973042Y-120853584D01*
X136042010Y-120875132D01*
X136186498Y-120877780D01*
X136206030Y-120872455D01*
X136317263Y-120842130D01*
X136317265Y-120842129D01*
X136325922Y-120839769D01*
X136449072Y-120764154D01*
X136546051Y-120657014D01*
X136609060Y-120526962D01*
X136633036Y-120384453D01*
X136633188Y-120372000D01*
X136618587Y-120270046D01*
X136613974Y-120237835D01*
X136613973Y-120237833D01*
X136612701Y-120228948D01*
X136552888Y-120097395D01*
X136547030Y-120090596D01*
X136547027Y-120090592D01*
X136464416Y-119994718D01*
X136464413Y-119994716D01*
X136458556Y-119987918D01*
X136337290Y-119909317D01*
X136266256Y-119888073D01*
X155180450Y-119888073D01*
X155181614Y-119896975D01*
X155181614Y-119896978D01*
X155193855Y-119990583D01*
X155199188Y-120031365D01*
X155257389Y-120163639D01*
X155263163Y-120170508D01*
X155286389Y-120198138D01*
X155350376Y-120274260D01*
X155357847Y-120279233D01*
X155357848Y-120279234D01*
X155463201Y-120349363D01*
X155463203Y-120349364D01*
X155470674Y-120354337D01*
X155479238Y-120357013D01*
X155479241Y-120357014D01*
X155535780Y-120374678D01*
X155608610Y-120397432D01*
X155753098Y-120400080D01*
X155762811Y-120397432D01*
X155883863Y-120364430D01*
X155883865Y-120364429D01*
X155892522Y-120362069D01*
X156015672Y-120286454D01*
X156112651Y-120179314D01*
X156154722Y-120092478D01*
X156171745Y-120057343D01*
X156171745Y-120057342D01*
X156175660Y-120049262D01*
X156199636Y-119906753D01*
X156199788Y-119894300D01*
X156189447Y-119822096D01*
X156180574Y-119760135D01*
X156180573Y-119760133D01*
X156179301Y-119751248D01*
X156119488Y-119619695D01*
X156113630Y-119612896D01*
X156113627Y-119612892D01*
X156031016Y-119517018D01*
X156031013Y-119517016D01*
X156025156Y-119510218D01*
X155956103Y-119465460D01*
X155911424Y-119436500D01*
X155911422Y-119436499D01*
X155903890Y-119431617D01*
X155892040Y-119428073D01*
X155774038Y-119392782D01*
X155774036Y-119392782D01*
X155765437Y-119390210D01*
X155756463Y-119390155D01*
X155756461Y-119390155D01*
X155693182Y-119389769D01*
X155620927Y-119389328D01*
X155612296Y-119391795D01*
X155612294Y-119391795D01*
X155490609Y-119426572D01*
X155490605Y-119426574D01*
X155481979Y-119429039D01*
X155474392Y-119433826D01*
X155474390Y-119433827D01*
X155397486Y-119482350D01*
X155359761Y-119506153D01*
X155353818Y-119512882D01*
X155353817Y-119512883D01*
X155286918Y-119588632D01*
X155264099Y-119614470D01*
X155260285Y-119622593D01*
X155260284Y-119622595D01*
X155245698Y-119653663D01*
X155202683Y-119745282D01*
X155201303Y-119754146D01*
X155201302Y-119754149D01*
X155183727Y-119867028D01*
X155180450Y-119888073D01*
X136266256Y-119888073D01*
X136241660Y-119880717D01*
X136182127Y-119842035D01*
X136152957Y-119777307D01*
X136163413Y-119707085D01*
X136210173Y-119653663D01*
X136277763Y-119634000D01*
X142749000Y-119634000D01*
X142752347Y-119633640D01*
X142752351Y-119633640D01*
X142799626Y-119628558D01*
X142799633Y-119628557D01*
X142802990Y-119628196D01*
X142806291Y-119627478D01*
X142853678Y-119617170D01*
X142853685Y-119617168D01*
X142855332Y-119616810D01*
X142881555Y-119609616D01*
X142923106Y-119585955D01*
X142962298Y-119563638D01*
X142962302Y-119563635D01*
X142967676Y-119560575D01*
X142994458Y-119537368D01*
X143019209Y-119515922D01*
X143019214Y-119515917D01*
X143021332Y-119514082D01*
X143052773Y-119481498D01*
X143098709Y-119393681D01*
X143118711Y-119325560D01*
X143119641Y-119319096D01*
X143124409Y-119285930D01*
X143129000Y-119254000D01*
X143129000Y-119079273D01*
X143442050Y-119079273D01*
X143443214Y-119088175D01*
X143443214Y-119088178D01*
X143456384Y-119188890D01*
X143460788Y-119222565D01*
X143518989Y-119354839D01*
X143524763Y-119361708D01*
X143585386Y-119433827D01*
X143611976Y-119465460D01*
X143619447Y-119470433D01*
X143619448Y-119470434D01*
X143724801Y-119540563D01*
X143724803Y-119540564D01*
X143732274Y-119545537D01*
X143740838Y-119548213D01*
X143740841Y-119548214D01*
X143801242Y-119567084D01*
X143870210Y-119588632D01*
X144014698Y-119591280D01*
X144034230Y-119585955D01*
X144145463Y-119555630D01*
X144145465Y-119555629D01*
X144154122Y-119553269D01*
X144277272Y-119477654D01*
X144374251Y-119370514D01*
X144428539Y-119258463D01*
X144433345Y-119248543D01*
X144433345Y-119248542D01*
X144437260Y-119240462D01*
X144461236Y-119097953D01*
X144461388Y-119085500D01*
X144443688Y-118961910D01*
X144442174Y-118951335D01*
X144442173Y-118951333D01*
X144440901Y-118942448D01*
X144381088Y-118810895D01*
X144379949Y-118809573D01*
X148649550Y-118809573D01*
X148650714Y-118818475D01*
X148650714Y-118818478D01*
X148665083Y-118928359D01*
X148668288Y-118952865D01*
X148726489Y-119085139D01*
X148819476Y-119195760D01*
X148826947Y-119200733D01*
X148826948Y-119200734D01*
X148932301Y-119270863D01*
X148932303Y-119270864D01*
X148939774Y-119275837D01*
X148948338Y-119278513D01*
X148948341Y-119278514D01*
X149008742Y-119297384D01*
X149077710Y-119318932D01*
X149222198Y-119321580D01*
X149259938Y-119311291D01*
X149352963Y-119285930D01*
X149352965Y-119285929D01*
X149361622Y-119283569D01*
X149484772Y-119207954D01*
X149581751Y-119100814D01*
X149644760Y-118970762D01*
X149646777Y-118958773D01*
X150429250Y-118958773D01*
X150430414Y-118967675D01*
X150430414Y-118967678D01*
X150445192Y-119080684D01*
X150447988Y-119102065D01*
X150506189Y-119234339D01*
X150511963Y-119241208D01*
X150582869Y-119325560D01*
X150599176Y-119344960D01*
X150606647Y-119349933D01*
X150606648Y-119349934D01*
X150712001Y-119420063D01*
X150712003Y-119420064D01*
X150719474Y-119425037D01*
X150728038Y-119427713D01*
X150728041Y-119427714D01*
X150788442Y-119446585D01*
X150857410Y-119468132D01*
X151001898Y-119470780D01*
X151046611Y-119458590D01*
X151132663Y-119435130D01*
X151132665Y-119435129D01*
X151141322Y-119432769D01*
X151264472Y-119357154D01*
X151361451Y-119250014D01*
X151424460Y-119119962D01*
X151448436Y-118977453D01*
X151448588Y-118965000D01*
X151428101Y-118821948D01*
X151422475Y-118809573D01*
X151415342Y-118793886D01*
X151368288Y-118690395D01*
X151362430Y-118683596D01*
X151362427Y-118683592D01*
X151279816Y-118587718D01*
X151279813Y-118587716D01*
X151273956Y-118580918D01*
X151204610Y-118535970D01*
X151160224Y-118507200D01*
X151160222Y-118507199D01*
X151152690Y-118502317D01*
X151135821Y-118497272D01*
X151022838Y-118463482D01*
X151022836Y-118463482D01*
X151014237Y-118460910D01*
X151005263Y-118460855D01*
X151005261Y-118460855D01*
X150941982Y-118460469D01*
X150869727Y-118460028D01*
X150861096Y-118462495D01*
X150861094Y-118462495D01*
X150739409Y-118497272D01*
X150739405Y-118497274D01*
X150730779Y-118499739D01*
X150723192Y-118504526D01*
X150723190Y-118504527D01*
X150675857Y-118534392D01*
X150608561Y-118576853D01*
X150602618Y-118583582D01*
X150602617Y-118583583D01*
X150536313Y-118658659D01*
X150512899Y-118685170D01*
X150509085Y-118693293D01*
X150509084Y-118693295D01*
X150504019Y-118704083D01*
X150451483Y-118815982D01*
X150450103Y-118824846D01*
X150450102Y-118824849D01*
X150431556Y-118943964D01*
X150429250Y-118958773D01*
X149646777Y-118958773D01*
X149668736Y-118828253D01*
X149668888Y-118815800D01*
X149651239Y-118692562D01*
X149649674Y-118681635D01*
X149649673Y-118681633D01*
X149648401Y-118672748D01*
X149588588Y-118541195D01*
X149582730Y-118534396D01*
X149582727Y-118534392D01*
X149500116Y-118438518D01*
X149500113Y-118438516D01*
X149494256Y-118431718D01*
X149372990Y-118353117D01*
X149356121Y-118348072D01*
X149243138Y-118314282D01*
X149243136Y-118314282D01*
X149234537Y-118311710D01*
X149225563Y-118311655D01*
X149225561Y-118311655D01*
X149162282Y-118311269D01*
X149090027Y-118310828D01*
X149081396Y-118313295D01*
X149081394Y-118313295D01*
X148959709Y-118348072D01*
X148959705Y-118348074D01*
X148951079Y-118350539D01*
X148828861Y-118427653D01*
X148822918Y-118434382D01*
X148822917Y-118434383D01*
X148798090Y-118462495D01*
X148733199Y-118535970D01*
X148729385Y-118544093D01*
X148729384Y-118544095D01*
X148712279Y-118580528D01*
X148671783Y-118666782D01*
X148670403Y-118675646D01*
X148670402Y-118675649D01*
X148666834Y-118698569D01*
X148649550Y-118809573D01*
X144379949Y-118809573D01*
X144375230Y-118804096D01*
X144375227Y-118804092D01*
X144292616Y-118708218D01*
X144292613Y-118708216D01*
X144286756Y-118701418D01*
X144165490Y-118622817D01*
X144148621Y-118617772D01*
X144035638Y-118583982D01*
X144035636Y-118583982D01*
X144027037Y-118581410D01*
X144018063Y-118581355D01*
X144018061Y-118581355D01*
X143954782Y-118580969D01*
X143882527Y-118580528D01*
X143873896Y-118582995D01*
X143873894Y-118582995D01*
X143752209Y-118617772D01*
X143752205Y-118617774D01*
X143743579Y-118620239D01*
X143735992Y-118625026D01*
X143735990Y-118625027D01*
X143628954Y-118692562D01*
X143621361Y-118697353D01*
X143525699Y-118805670D01*
X143521885Y-118813793D01*
X143521884Y-118813795D01*
X143492224Y-118876969D01*
X143464283Y-118936482D01*
X143462903Y-118945346D01*
X143462902Y-118945349D01*
X143457904Y-118977453D01*
X143442050Y-119079273D01*
X143129000Y-119079273D01*
X143129000Y-117189373D01*
X152144350Y-117189373D01*
X152145514Y-117198275D01*
X152145514Y-117198278D01*
X152161924Y-117323764D01*
X152163088Y-117332665D01*
X152221289Y-117464939D01*
X152314276Y-117575560D01*
X152321747Y-117580533D01*
X152321748Y-117580534D01*
X152427101Y-117650663D01*
X152427103Y-117650664D01*
X152434574Y-117655637D01*
X152443138Y-117658313D01*
X152443141Y-117658314D01*
X152503542Y-117677184D01*
X152572510Y-117698732D01*
X152716998Y-117701380D01*
X152736530Y-117696055D01*
X152847763Y-117665730D01*
X152847765Y-117665729D01*
X152856422Y-117663369D01*
X152979572Y-117587754D01*
X153076551Y-117480614D01*
X153139560Y-117350562D01*
X153163536Y-117208053D01*
X153163688Y-117195600D01*
X153143201Y-117052548D01*
X153083388Y-116920995D01*
X153077530Y-116914196D01*
X153077527Y-116914192D01*
X152994916Y-116818318D01*
X152994913Y-116818316D01*
X152989056Y-116811518D01*
X152867790Y-116732917D01*
X152850921Y-116727872D01*
X152737938Y-116694082D01*
X152737936Y-116694082D01*
X152729337Y-116691510D01*
X152720363Y-116691455D01*
X152720361Y-116691455D01*
X152657082Y-116691069D01*
X152584827Y-116690628D01*
X152576196Y-116693095D01*
X152576194Y-116693095D01*
X152454509Y-116727872D01*
X152454505Y-116727874D01*
X152445879Y-116730339D01*
X152323661Y-116807453D01*
X152227999Y-116915770D01*
X152166583Y-117046582D01*
X152144350Y-117189373D01*
X143129000Y-117189373D01*
X143129000Y-115908573D01*
X145624950Y-115908573D01*
X145626114Y-115917475D01*
X145626114Y-115917478D01*
X145633976Y-115977596D01*
X145643688Y-116051865D01*
X145701889Y-116184139D01*
X145794876Y-116294760D01*
X145802347Y-116299733D01*
X145802348Y-116299734D01*
X145907701Y-116369863D01*
X145907703Y-116369864D01*
X145915174Y-116374837D01*
X145923738Y-116377513D01*
X145923741Y-116377514D01*
X145984142Y-116396384D01*
X146053110Y-116417932D01*
X146197598Y-116420580D01*
X146236112Y-116410080D01*
X146328363Y-116384930D01*
X146328365Y-116384929D01*
X146337022Y-116382569D01*
X146460172Y-116306954D01*
X146557151Y-116199814D01*
X146620160Y-116069762D01*
X146644136Y-115927253D01*
X146644288Y-115914800D01*
X146641892Y-115898073D01*
X150582150Y-115898073D01*
X150583314Y-115906975D01*
X150583314Y-115906978D01*
X150592549Y-115977596D01*
X150600888Y-116041365D01*
X150659089Y-116173639D01*
X150752076Y-116284260D01*
X150759547Y-116289233D01*
X150759548Y-116289234D01*
X150864901Y-116359363D01*
X150864903Y-116359364D01*
X150872374Y-116364337D01*
X150880938Y-116367013D01*
X150880941Y-116367014D01*
X150914550Y-116377514D01*
X151010310Y-116407432D01*
X151154798Y-116410080D01*
X151174330Y-116404755D01*
X151285563Y-116374430D01*
X151285565Y-116374429D01*
X151294222Y-116372069D01*
X151417372Y-116296454D01*
X151514351Y-116189314D01*
X151577360Y-116059262D01*
X151601336Y-115916753D01*
X151601488Y-115904300D01*
X151585923Y-115795614D01*
X151582274Y-115770135D01*
X151582273Y-115770133D01*
X151581001Y-115761248D01*
X151576448Y-115751233D01*
X151568242Y-115733186D01*
X151521188Y-115629695D01*
X151515330Y-115622896D01*
X151515327Y-115622892D01*
X151432716Y-115527018D01*
X151432713Y-115527016D01*
X151426856Y-115520218D01*
X151360145Y-115476978D01*
X151346406Y-115468073D01*
X154557350Y-115468073D01*
X154558514Y-115476975D01*
X154558514Y-115476978D01*
X154565542Y-115530718D01*
X154576088Y-115611365D01*
X154634289Y-115743639D01*
X154640063Y-115750508D01*
X154651530Y-115764149D01*
X154727276Y-115854260D01*
X154734747Y-115859233D01*
X154734748Y-115859234D01*
X154840101Y-115929363D01*
X154840103Y-115929364D01*
X154847574Y-115934337D01*
X154856138Y-115937013D01*
X154856141Y-115937014D01*
X154916542Y-115955884D01*
X154985510Y-115977432D01*
X155129998Y-115980080D01*
X155164635Y-115970637D01*
X155260763Y-115944430D01*
X155260765Y-115944429D01*
X155269422Y-115942069D01*
X155392572Y-115866454D01*
X155489551Y-115759314D01*
X155547263Y-115640195D01*
X155548645Y-115637343D01*
X155548645Y-115637342D01*
X155552560Y-115629262D01*
X155573572Y-115504373D01*
X159078550Y-115504373D01*
X159079714Y-115513275D01*
X159079714Y-115513278D01*
X159095628Y-115634970D01*
X159097288Y-115647665D01*
X159155489Y-115779939D01*
X159161263Y-115786808D01*
X159217963Y-115854260D01*
X159248476Y-115890560D01*
X159255947Y-115895533D01*
X159255948Y-115895534D01*
X159361301Y-115965663D01*
X159361303Y-115965664D01*
X159368774Y-115970637D01*
X159377338Y-115973313D01*
X159377341Y-115973314D01*
X159437742Y-115992185D01*
X159506710Y-116013732D01*
X159651198Y-116016380D01*
X159670730Y-116011055D01*
X159781963Y-115980730D01*
X159781965Y-115980729D01*
X159790622Y-115978369D01*
X159913772Y-115902754D01*
X160010751Y-115795614D01*
X160073760Y-115665562D01*
X160097736Y-115523053D01*
X160097888Y-115510600D01*
X160083809Y-115412295D01*
X160078674Y-115376435D01*
X160078673Y-115376433D01*
X160077401Y-115367548D01*
X160017588Y-115235995D01*
X160011730Y-115229196D01*
X160011727Y-115229192D01*
X159929116Y-115133318D01*
X159929113Y-115133316D01*
X159923256Y-115126518D01*
X159801990Y-115047917D01*
X159696901Y-115016488D01*
X159672138Y-115009082D01*
X159672136Y-115009082D01*
X159663537Y-115006510D01*
X159654563Y-115006455D01*
X159654561Y-115006455D01*
X159591282Y-115006069D01*
X159519027Y-115005628D01*
X159510396Y-115008095D01*
X159510394Y-115008095D01*
X159388709Y-115042872D01*
X159388705Y-115042874D01*
X159380079Y-115045339D01*
X159372492Y-115050126D01*
X159372490Y-115050127D01*
X159298173Y-115097018D01*
X159257861Y-115122453D01*
X159251918Y-115129182D01*
X159251917Y-115129183D01*
X159227562Y-115156760D01*
X159162199Y-115230770D01*
X159158385Y-115238893D01*
X159158384Y-115238895D01*
X159146299Y-115264635D01*
X159100783Y-115361582D01*
X159099403Y-115370446D01*
X159099402Y-115370449D01*
X159082476Y-115479160D01*
X159078550Y-115504373D01*
X155573572Y-115504373D01*
X155576536Y-115486753D01*
X155576688Y-115474300D01*
X155563201Y-115380128D01*
X155557474Y-115340135D01*
X155557473Y-115340133D01*
X155556201Y-115331248D01*
X155496388Y-115199695D01*
X155490530Y-115192896D01*
X155490527Y-115192892D01*
X155407916Y-115097018D01*
X155407913Y-115097016D01*
X155402056Y-115090218D01*
X155332826Y-115045345D01*
X155288324Y-115016500D01*
X155288322Y-115016499D01*
X155280790Y-115011617D01*
X155272170Y-115009039D01*
X155150938Y-114972782D01*
X155150936Y-114972782D01*
X155142337Y-114970210D01*
X155133363Y-114970155D01*
X155133361Y-114970155D01*
X155070082Y-114969769D01*
X154997827Y-114969328D01*
X154989196Y-114971795D01*
X154989194Y-114971795D01*
X154867509Y-115006572D01*
X154867505Y-115006574D01*
X154858879Y-115009039D01*
X154851292Y-115013826D01*
X154851290Y-115013827D01*
X154789522Y-115052800D01*
X154736661Y-115086153D01*
X154730718Y-115092882D01*
X154730717Y-115092883D01*
X154674303Y-115156760D01*
X154640999Y-115194470D01*
X154637185Y-115202593D01*
X154637184Y-115202595D01*
X154617665Y-115244169D01*
X154579583Y-115325282D01*
X154578203Y-115334146D01*
X154578202Y-115334149D01*
X154560235Y-115449545D01*
X154557350Y-115468073D01*
X151346406Y-115468073D01*
X151313124Y-115446500D01*
X151313122Y-115446499D01*
X151305590Y-115441617D01*
X151288721Y-115436572D01*
X151175738Y-115402782D01*
X151175736Y-115402782D01*
X151167137Y-115400210D01*
X151158163Y-115400155D01*
X151158161Y-115400155D01*
X151094882Y-115399769D01*
X151022627Y-115399328D01*
X151013996Y-115401795D01*
X151013994Y-115401795D01*
X150892309Y-115436572D01*
X150892305Y-115436574D01*
X150883679Y-115439039D01*
X150876092Y-115443826D01*
X150876090Y-115443827D01*
X150808057Y-115486753D01*
X150761461Y-115516153D01*
X150755518Y-115522882D01*
X150755517Y-115522883D01*
X150746244Y-115533383D01*
X150665799Y-115624470D01*
X150661985Y-115632593D01*
X150661984Y-115632595D01*
X150654909Y-115647665D01*
X150604383Y-115755282D01*
X150603003Y-115764146D01*
X150603002Y-115764149D01*
X150588972Y-115854260D01*
X150582150Y-115898073D01*
X146641892Y-115898073D01*
X146623801Y-115771748D01*
X146614474Y-115751233D01*
X146607286Y-115735425D01*
X146563988Y-115640195D01*
X146558130Y-115633396D01*
X146558127Y-115633392D01*
X146475516Y-115537518D01*
X146475513Y-115537516D01*
X146469656Y-115530718D01*
X146373007Y-115468073D01*
X146355924Y-115457000D01*
X146355922Y-115456999D01*
X146348390Y-115452117D01*
X146296412Y-115436572D01*
X146218538Y-115413282D01*
X146218536Y-115413282D01*
X146209937Y-115410710D01*
X146200963Y-115410655D01*
X146200961Y-115410655D01*
X146137682Y-115410269D01*
X146065427Y-115409828D01*
X146056796Y-115412295D01*
X146056794Y-115412295D01*
X145935109Y-115447072D01*
X145935105Y-115447074D01*
X145926479Y-115449539D01*
X145918892Y-115454326D01*
X145918890Y-115454327D01*
X145825459Y-115513278D01*
X145804261Y-115526653D01*
X145708599Y-115634970D01*
X145704785Y-115643093D01*
X145704784Y-115643095D01*
X145702308Y-115648369D01*
X145647183Y-115765782D01*
X145645803Y-115774646D01*
X145645802Y-115774649D01*
X145626585Y-115898073D01*
X145624950Y-115908573D01*
X143129000Y-115908573D01*
X143129000Y-114934000D01*
X143123196Y-114880010D01*
X143119374Y-114862440D01*
X143112170Y-114829322D01*
X143112168Y-114829315D01*
X143111810Y-114827668D01*
X143104616Y-114801445D01*
X143081403Y-114760680D01*
X143058638Y-114720702D01*
X143058635Y-114720698D01*
X143055575Y-114715324D01*
X143019697Y-114673918D01*
X143010922Y-114663791D01*
X143010917Y-114663786D01*
X143009082Y-114661668D01*
X142976498Y-114630227D01*
X142888681Y-114584291D01*
X142820560Y-114564289D01*
X142816101Y-114563648D01*
X142816097Y-114563647D01*
X142784780Y-114559145D01*
X142749000Y-114554000D01*
X138571708Y-114554000D01*
X138569515Y-114554155D01*
X138569507Y-114554155D01*
X138538258Y-114556360D01*
X138536047Y-114556516D01*
X138533849Y-114556828D01*
X138533846Y-114556828D01*
X138529602Y-114557430D01*
X138501019Y-114561483D01*
X138494710Y-114563815D01*
X138494707Y-114563816D01*
X138455299Y-114578384D01*
X138400190Y-114598756D01*
X138394511Y-114602374D01*
X138394512Y-114602374D01*
X138348688Y-114631571D01*
X138280490Y-114651308D01*
X138213595Y-114629560D01*
X138213246Y-114630227D01*
X138209306Y-114628166D01*
X138125429Y-114584291D01*
X138057308Y-114564289D01*
X138052849Y-114563648D01*
X138052845Y-114563647D01*
X138021528Y-114559145D01*
X137985748Y-114554000D01*
X133603000Y-114554000D01*
X133599653Y-114554360D01*
X133599649Y-114554360D01*
X133552374Y-114559442D01*
X133552367Y-114559443D01*
X133549010Y-114559804D01*
X133545710Y-114560522D01*
X133545709Y-114560522D01*
X133498322Y-114570830D01*
X133498315Y-114570832D01*
X133496668Y-114571190D01*
X133470445Y-114578384D01*
X133438767Y-114596423D01*
X133389702Y-114624362D01*
X133389698Y-114624365D01*
X133384324Y-114627425D01*
X133373872Y-114636482D01*
X133339700Y-114666092D01*
X133330668Y-114673918D01*
X133299227Y-114706502D01*
X133253291Y-114794319D01*
X133233289Y-114862440D01*
X133223000Y-114934000D01*
X133223000Y-119254000D01*
X130302000Y-119254000D01*
X130302000Y-115447412D01*
X130322002Y-115379291D01*
X130375658Y-115332798D01*
X130445932Y-115322694D01*
X130479248Y-115332305D01*
X130494920Y-115339283D01*
X130494928Y-115339286D01*
X130500955Y-115341969D01*
X130582853Y-115359377D01*
X130680476Y-115380128D01*
X130680480Y-115380128D01*
X130686933Y-115381500D01*
X130877067Y-115381500D01*
X130883520Y-115380128D01*
X130883524Y-115380128D01*
X130981147Y-115359377D01*
X131063045Y-115341969D01*
X131100525Y-115325282D01*
X131230711Y-115267320D01*
X131230713Y-115267319D01*
X131236741Y-115264635D01*
X131390562Y-115152877D01*
X131446980Y-115090218D01*
X131513367Y-115016488D01*
X131513368Y-115016487D01*
X131517786Y-115011580D01*
X131601316Y-114866903D01*
X131609549Y-114852643D01*
X131609550Y-114852642D01*
X131612853Y-114846920D01*
X131671608Y-114666092D01*
X131674676Y-114636907D01*
X131690792Y-114483565D01*
X131691482Y-114477000D01*
X131671608Y-114287908D01*
X131612853Y-114107080D01*
X131517786Y-113942420D01*
X131390562Y-113801123D01*
X131236741Y-113689365D01*
X131230713Y-113686681D01*
X131230711Y-113686680D01*
X131069076Y-113614716D01*
X131069075Y-113614716D01*
X131063045Y-113612031D01*
X130970056Y-113592266D01*
X130883524Y-113573872D01*
X130883520Y-113573872D01*
X130877067Y-113572500D01*
X130686933Y-113572500D01*
X130680480Y-113573872D01*
X130680476Y-113573872D01*
X130593944Y-113592266D01*
X130500955Y-113612031D01*
X130494928Y-113614714D01*
X130494920Y-113614717D01*
X130479248Y-113621695D01*
X130408881Y-113631129D01*
X130344584Y-113601022D01*
X130306771Y-113540933D01*
X130302000Y-113506588D01*
X130302000Y-111961373D01*
X151627550Y-111961373D01*
X151628714Y-111970275D01*
X151628714Y-111970278D01*
X151645124Y-112095764D01*
X151646288Y-112104665D01*
X151704489Y-112236939D01*
X151797476Y-112347560D01*
X151804947Y-112352533D01*
X151804948Y-112352534D01*
X151910301Y-112422663D01*
X151910303Y-112422664D01*
X151917774Y-112427637D01*
X151926338Y-112430313D01*
X151926341Y-112430314D01*
X151986742Y-112449185D01*
X152055710Y-112470732D01*
X152200198Y-112473380D01*
X152219730Y-112468055D01*
X152330963Y-112437730D01*
X152330965Y-112437729D01*
X152339622Y-112435369D01*
X152462772Y-112359754D01*
X152559751Y-112252614D01*
X152622760Y-112122562D01*
X152646736Y-111980053D01*
X152646888Y-111967600D01*
X152626401Y-111824548D01*
X152566588Y-111692995D01*
X152560730Y-111686196D01*
X152560727Y-111686192D01*
X152478116Y-111590318D01*
X152478113Y-111590316D01*
X152472256Y-111583518D01*
X152350990Y-111504917D01*
X152334121Y-111499872D01*
X152221138Y-111466082D01*
X152221136Y-111466082D01*
X152212537Y-111463510D01*
X152203563Y-111463455D01*
X152203561Y-111463455D01*
X152140282Y-111463069D01*
X152068027Y-111462628D01*
X152059396Y-111465095D01*
X152059394Y-111465095D01*
X151937709Y-111499872D01*
X151937705Y-111499874D01*
X151929079Y-111502339D01*
X151806861Y-111579453D01*
X151711199Y-111687770D01*
X151649783Y-111818582D01*
X151627550Y-111961373D01*
X130302000Y-111961373D01*
X130302000Y-110974773D01*
X147315650Y-110974773D01*
X147316814Y-110983675D01*
X147316814Y-110983678D01*
X147333224Y-111109164D01*
X147334388Y-111118065D01*
X147392589Y-111250339D01*
X147485576Y-111360960D01*
X147493047Y-111365933D01*
X147493048Y-111365934D01*
X147598401Y-111436063D01*
X147598403Y-111436064D01*
X147605874Y-111441037D01*
X147614438Y-111443713D01*
X147614441Y-111443714D01*
X147674842Y-111462585D01*
X147743810Y-111484132D01*
X147888298Y-111486780D01*
X147907830Y-111481455D01*
X148019063Y-111451130D01*
X148019065Y-111451129D01*
X148027722Y-111448769D01*
X148150872Y-111373154D01*
X148247851Y-111266014D01*
X148310860Y-111135962D01*
X148334836Y-110993453D01*
X148334988Y-110981000D01*
X148314501Y-110837948D01*
X148254688Y-110706395D01*
X148248830Y-110699596D01*
X148248827Y-110699592D01*
X148166216Y-110603718D01*
X148166213Y-110603716D01*
X148160356Y-110596918D01*
X148039090Y-110518317D01*
X148000390Y-110506743D01*
X147909238Y-110479482D01*
X147909236Y-110479482D01*
X147900637Y-110476910D01*
X147891663Y-110476855D01*
X147891661Y-110476855D01*
X147828382Y-110476469D01*
X147756127Y-110476028D01*
X147747496Y-110478495D01*
X147747494Y-110478495D01*
X147625809Y-110513272D01*
X147625805Y-110513274D01*
X147617179Y-110515739D01*
X147494961Y-110592853D01*
X147489018Y-110599582D01*
X147489017Y-110599583D01*
X147463290Y-110628714D01*
X147399299Y-110701170D01*
X147395485Y-110709293D01*
X147395484Y-110709295D01*
X147386139Y-110729200D01*
X147337883Y-110831982D01*
X147336503Y-110840846D01*
X147336502Y-110840849D01*
X147335159Y-110849480D01*
X147315650Y-110974773D01*
X130302000Y-110974773D01*
X130302000Y-110337473D01*
X155478350Y-110337473D01*
X155479514Y-110346375D01*
X155479514Y-110346378D01*
X155495924Y-110471864D01*
X155497088Y-110480765D01*
X155555289Y-110613039D01*
X155648276Y-110723660D01*
X155655747Y-110728633D01*
X155655748Y-110728634D01*
X155761101Y-110798763D01*
X155761103Y-110798764D01*
X155768574Y-110803737D01*
X155777138Y-110806413D01*
X155777141Y-110806414D01*
X155832979Y-110823859D01*
X155906510Y-110846832D01*
X156050998Y-110849480D01*
X156070530Y-110844155D01*
X156181763Y-110813830D01*
X156181765Y-110813829D01*
X156190422Y-110811469D01*
X156313572Y-110735854D01*
X156410551Y-110628714D01*
X156464037Y-110518317D01*
X156469645Y-110506743D01*
X156469645Y-110506742D01*
X156473560Y-110498662D01*
X156497536Y-110356153D01*
X156497688Y-110343700D01*
X156477201Y-110200648D01*
X156417388Y-110069095D01*
X156411530Y-110062296D01*
X156411527Y-110062292D01*
X156328916Y-109966418D01*
X156328913Y-109966416D01*
X156323056Y-109959618D01*
X156201790Y-109881017D01*
X156184921Y-109875972D01*
X156071938Y-109842182D01*
X156071936Y-109842182D01*
X156063337Y-109839610D01*
X156054363Y-109839555D01*
X156054361Y-109839555D01*
X155991082Y-109839169D01*
X155918827Y-109838728D01*
X155910196Y-109841195D01*
X155910194Y-109841195D01*
X155788509Y-109875972D01*
X155788505Y-109875974D01*
X155779879Y-109878439D01*
X155657661Y-109955553D01*
X155561999Y-110063870D01*
X155500583Y-110194682D01*
X155478350Y-110337473D01*
X130302000Y-110337473D01*
X130302000Y-109086673D01*
X142704450Y-109086673D01*
X142705614Y-109095575D01*
X142705614Y-109095578D01*
X142722024Y-109221064D01*
X142723188Y-109229965D01*
X142781389Y-109362239D01*
X142874376Y-109472860D01*
X142881847Y-109477833D01*
X142881848Y-109477834D01*
X142987201Y-109547963D01*
X142987203Y-109547964D01*
X142994674Y-109552937D01*
X143003238Y-109555613D01*
X143003241Y-109555614D01*
X143063642Y-109574485D01*
X143132610Y-109596032D01*
X143277098Y-109598680D01*
X143296630Y-109593355D01*
X143407863Y-109563030D01*
X143407865Y-109563029D01*
X143416522Y-109560669D01*
X143539672Y-109485054D01*
X143636651Y-109377914D01*
X143699660Y-109247862D01*
X143723636Y-109105353D01*
X143723788Y-109092900D01*
X143703301Y-108949848D01*
X143643488Y-108818295D01*
X143637630Y-108811496D01*
X143637627Y-108811492D01*
X143555016Y-108715618D01*
X143555013Y-108715616D01*
X143549156Y-108708818D01*
X143427890Y-108630217D01*
X143411021Y-108625172D01*
X143298038Y-108591382D01*
X143298036Y-108591382D01*
X143289437Y-108588810D01*
X143280463Y-108588755D01*
X143280461Y-108588755D01*
X143217182Y-108588369D01*
X143144927Y-108587928D01*
X143136296Y-108590395D01*
X143136294Y-108590395D01*
X143014609Y-108625172D01*
X143014605Y-108625174D01*
X143005979Y-108627639D01*
X142883761Y-108704753D01*
X142788099Y-108813070D01*
X142726683Y-108943882D01*
X142704450Y-109086673D01*
X130302000Y-109086673D01*
X130302000Y-106406773D01*
X141692850Y-106406773D01*
X141694014Y-106415675D01*
X141694014Y-106415678D01*
X141698162Y-106447395D01*
X141711588Y-106550065D01*
X141769789Y-106682339D01*
X141862776Y-106792960D01*
X141870247Y-106797933D01*
X141870248Y-106797934D01*
X141975601Y-106868063D01*
X141975603Y-106868064D01*
X141983074Y-106873037D01*
X141991638Y-106875713D01*
X141991641Y-106875714D01*
X142052042Y-106894584D01*
X142121010Y-106916132D01*
X142265498Y-106918780D01*
X142285030Y-106913455D01*
X142396263Y-106883130D01*
X142396265Y-106883129D01*
X142404922Y-106880769D01*
X142528072Y-106805154D01*
X142539292Y-106792759D01*
X142619026Y-106704670D01*
X142625051Y-106698014D01*
X142633307Y-106680973D01*
X149135550Y-106680973D01*
X149136714Y-106689875D01*
X149136714Y-106689878D01*
X149149296Y-106786090D01*
X149154288Y-106824265D01*
X149212489Y-106956539D01*
X149305476Y-107067160D01*
X149312947Y-107072133D01*
X149312948Y-107072134D01*
X149418301Y-107142263D01*
X149418303Y-107142264D01*
X149425774Y-107147237D01*
X149434338Y-107149913D01*
X149434341Y-107149914D01*
X149494742Y-107168784D01*
X149563710Y-107190332D01*
X149708198Y-107192980D01*
X149727730Y-107187655D01*
X149838963Y-107157330D01*
X149838965Y-107157329D01*
X149847622Y-107154969D01*
X149970772Y-107079354D01*
X150067751Y-106972214D01*
X150081579Y-106943673D01*
X151832150Y-106943673D01*
X151833314Y-106952575D01*
X151833314Y-106952578D01*
X151847400Y-107060290D01*
X151850888Y-107086965D01*
X151909089Y-107219239D01*
X152002076Y-107329860D01*
X152009547Y-107334833D01*
X152009548Y-107334834D01*
X152114901Y-107404963D01*
X152114903Y-107404964D01*
X152122374Y-107409937D01*
X152130938Y-107412613D01*
X152130941Y-107412614D01*
X152191342Y-107431485D01*
X152260310Y-107453032D01*
X152404798Y-107455680D01*
X152424330Y-107450355D01*
X152535563Y-107420030D01*
X152535565Y-107420029D01*
X152544222Y-107417669D01*
X152667372Y-107342054D01*
X152764351Y-107234914D01*
X152827360Y-107104862D01*
X152851336Y-106962353D01*
X152851488Y-106949900D01*
X152837216Y-106850243D01*
X152832274Y-106815735D01*
X152832273Y-106815733D01*
X152831001Y-106806848D01*
X152827206Y-106798500D01*
X152784442Y-106704447D01*
X152771188Y-106675295D01*
X152765330Y-106668496D01*
X152765327Y-106668492D01*
X152682716Y-106572618D01*
X152682713Y-106572616D01*
X152676856Y-106565818D01*
X152555590Y-106487217D01*
X152538721Y-106482172D01*
X152425738Y-106448382D01*
X152425736Y-106448382D01*
X152417137Y-106445810D01*
X152408163Y-106445755D01*
X152408161Y-106445755D01*
X152344882Y-106445369D01*
X152272627Y-106444928D01*
X152263996Y-106447395D01*
X152263994Y-106447395D01*
X152142309Y-106482172D01*
X152142305Y-106482174D01*
X152133679Y-106484639D01*
X152126092Y-106489426D01*
X152126090Y-106489427D01*
X152039363Y-106544148D01*
X152011461Y-106561753D01*
X152005518Y-106568482D01*
X152005517Y-106568483D01*
X151934714Y-106648652D01*
X151915799Y-106670070D01*
X151911985Y-106678193D01*
X151911984Y-106678195D01*
X151902679Y-106698014D01*
X151854383Y-106800882D01*
X151853003Y-106809746D01*
X151853002Y-106809749D01*
X151836052Y-106918615D01*
X151832150Y-106943673D01*
X150081579Y-106943673D01*
X150112055Y-106880769D01*
X150126845Y-106850243D01*
X150126845Y-106850242D01*
X150130760Y-106842162D01*
X150154736Y-106699653D01*
X150154888Y-106687200D01*
X150137886Y-106568483D01*
X150135674Y-106553035D01*
X150135673Y-106553033D01*
X150134401Y-106544148D01*
X150074588Y-106412595D01*
X150068730Y-106405796D01*
X150068727Y-106405792D01*
X149986116Y-106309918D01*
X149986113Y-106309916D01*
X149980256Y-106303118D01*
X149873821Y-106234130D01*
X149866524Y-106229400D01*
X149866522Y-106229399D01*
X149858990Y-106224517D01*
X149842121Y-106219472D01*
X149729138Y-106185682D01*
X149729136Y-106185682D01*
X149720537Y-106183110D01*
X149711563Y-106183055D01*
X149711561Y-106183055D01*
X149648282Y-106182669D01*
X149576027Y-106182228D01*
X149567396Y-106184695D01*
X149567394Y-106184695D01*
X149445709Y-106219472D01*
X149445705Y-106219474D01*
X149437079Y-106221939D01*
X149429492Y-106226726D01*
X149429490Y-106226727D01*
X149340403Y-106282937D01*
X149314861Y-106299053D01*
X149219199Y-106407370D01*
X149215385Y-106415493D01*
X149215384Y-106415495D01*
X149201540Y-106444983D01*
X149157783Y-106538182D01*
X149156403Y-106547046D01*
X149156402Y-106547049D01*
X149137248Y-106670070D01*
X149135550Y-106680973D01*
X142633307Y-106680973D01*
X142688060Y-106567962D01*
X142712036Y-106425453D01*
X142712188Y-106413000D01*
X142699774Y-106326318D01*
X142692974Y-106278835D01*
X142692973Y-106278833D01*
X142691701Y-106269948D01*
X142631888Y-106138395D01*
X142626030Y-106131596D01*
X142626027Y-106131592D01*
X142543416Y-106035718D01*
X142543413Y-106035716D01*
X142537556Y-106028918D01*
X142416290Y-105950317D01*
X142399421Y-105945272D01*
X142286438Y-105911482D01*
X142286436Y-105911482D01*
X142277837Y-105908910D01*
X142268863Y-105908855D01*
X142268861Y-105908855D01*
X142205582Y-105908469D01*
X142133327Y-105908028D01*
X142124696Y-105910495D01*
X142124694Y-105910495D01*
X142003009Y-105945272D01*
X142003005Y-105945274D01*
X141994379Y-105947739D01*
X141986792Y-105952526D01*
X141986790Y-105952527D01*
X141946637Y-105977862D01*
X141872161Y-106024853D01*
X141866218Y-106031582D01*
X141866217Y-106031583D01*
X141850823Y-106049014D01*
X141776499Y-106133170D01*
X141772685Y-106141293D01*
X141772684Y-106141295D01*
X141753078Y-106183055D01*
X141715083Y-106263982D01*
X141713703Y-106272846D01*
X141713702Y-106272849D01*
X141705422Y-106326032D01*
X141692850Y-106406773D01*
X130302000Y-106406773D01*
X130302000Y-105816673D01*
X134586350Y-105816673D01*
X134587514Y-105825575D01*
X134587514Y-105825578D01*
X134598619Y-105910495D01*
X134605088Y-105959965D01*
X134663289Y-106092239D01*
X134756276Y-106202860D01*
X134763747Y-106207833D01*
X134763748Y-106207834D01*
X134869101Y-106277963D01*
X134869103Y-106277964D01*
X134876574Y-106282937D01*
X134885138Y-106285613D01*
X134885141Y-106285614D01*
X134928157Y-106299053D01*
X135014510Y-106326032D01*
X135158998Y-106328680D01*
X135178530Y-106323355D01*
X135289763Y-106293030D01*
X135289765Y-106293029D01*
X135298422Y-106290669D01*
X135421572Y-106215054D01*
X135518551Y-106107914D01*
X135559190Y-106024035D01*
X135577645Y-105985943D01*
X135577645Y-105985942D01*
X135581560Y-105977862D01*
X135605536Y-105835353D01*
X135605688Y-105822900D01*
X135596361Y-105757773D01*
X139972550Y-105757773D01*
X139973714Y-105766675D01*
X139973714Y-105766678D01*
X139981702Y-105827760D01*
X139991288Y-105901065D01*
X140049489Y-106033339D01*
X140055263Y-106040208D01*
X140132080Y-106131592D01*
X140142476Y-106143960D01*
X140149947Y-106148933D01*
X140149948Y-106148934D01*
X140255301Y-106219063D01*
X140255303Y-106219064D01*
X140262774Y-106224037D01*
X140271338Y-106226713D01*
X140271341Y-106226714D01*
X140331742Y-106245584D01*
X140400710Y-106267132D01*
X140545198Y-106269780D01*
X140574553Y-106261777D01*
X140675963Y-106234130D01*
X140675965Y-106234129D01*
X140684622Y-106231769D01*
X140807772Y-106156154D01*
X140904751Y-106049014D01*
X140936256Y-105983988D01*
X140963845Y-105927043D01*
X140963845Y-105927042D01*
X140967760Y-105918962D01*
X140991736Y-105776453D01*
X140991888Y-105764000D01*
X140975793Y-105651614D01*
X140972674Y-105629835D01*
X140972673Y-105629833D01*
X140971401Y-105620948D01*
X140911588Y-105489395D01*
X140905730Y-105482596D01*
X140905727Y-105482592D01*
X140823116Y-105386718D01*
X140823113Y-105386716D01*
X140817256Y-105379918D01*
X140695990Y-105301317D01*
X140673721Y-105294657D01*
X140566138Y-105262482D01*
X140566136Y-105262482D01*
X140557537Y-105259910D01*
X140548563Y-105259855D01*
X140548561Y-105259855D01*
X140485282Y-105259469D01*
X140413027Y-105259028D01*
X140404396Y-105261495D01*
X140404394Y-105261495D01*
X140282709Y-105296272D01*
X140282705Y-105296274D01*
X140274079Y-105298739D01*
X140266492Y-105303526D01*
X140266490Y-105303527D01*
X140189756Y-105351943D01*
X140151861Y-105375853D01*
X140145918Y-105382582D01*
X140145917Y-105382583D01*
X140131060Y-105399406D01*
X140056199Y-105484170D01*
X140052385Y-105492293D01*
X140052384Y-105492295D01*
X140026092Y-105548295D01*
X139994783Y-105614982D01*
X139993403Y-105623846D01*
X139993402Y-105623849D01*
X139982374Y-105694680D01*
X139972550Y-105757773D01*
X135596361Y-105757773D01*
X135586987Y-105692318D01*
X135586474Y-105688735D01*
X135586473Y-105688733D01*
X135585201Y-105679848D01*
X135528052Y-105554154D01*
X135518066Y-105483864D01*
X135547666Y-105419333D01*
X135576825Y-105394629D01*
X135619621Y-105368352D01*
X135619622Y-105368351D01*
X135627272Y-105363654D01*
X135724251Y-105256514D01*
X135760026Y-105182673D01*
X138306150Y-105182673D01*
X138307314Y-105191575D01*
X138307314Y-105191578D01*
X138311736Y-105225390D01*
X138324888Y-105325965D01*
X138383089Y-105458239D01*
X138476076Y-105568860D01*
X138483547Y-105573833D01*
X138483548Y-105573834D01*
X138588901Y-105643963D01*
X138588903Y-105643964D01*
X138596374Y-105648937D01*
X138604938Y-105651613D01*
X138604941Y-105651614D01*
X138650217Y-105665759D01*
X138734310Y-105692032D01*
X138878798Y-105694680D01*
X138898330Y-105689355D01*
X139009563Y-105659030D01*
X139009565Y-105659029D01*
X139018222Y-105656669D01*
X139141372Y-105581054D01*
X139238351Y-105473914D01*
X139294472Y-105358080D01*
X139297445Y-105351943D01*
X139297445Y-105351942D01*
X139301360Y-105343862D01*
X139325336Y-105201353D01*
X139325488Y-105188900D01*
X139305001Y-105045848D01*
X139245188Y-104914295D01*
X139239330Y-104907496D01*
X139239327Y-104907492D01*
X139186405Y-104846073D01*
X143079250Y-104846073D01*
X143080414Y-104854975D01*
X143080414Y-104854978D01*
X143095022Y-104966684D01*
X143097988Y-104989365D01*
X143156189Y-105121639D01*
X143161963Y-105128508D01*
X143219111Y-105196493D01*
X143249176Y-105232260D01*
X143256647Y-105237233D01*
X143256648Y-105237234D01*
X143362001Y-105307363D01*
X143362003Y-105307364D01*
X143369474Y-105312337D01*
X143378038Y-105315013D01*
X143378041Y-105315014D01*
X143438442Y-105333885D01*
X143507410Y-105355432D01*
X143651898Y-105358080D01*
X143671430Y-105352755D01*
X143782663Y-105322430D01*
X143782665Y-105322429D01*
X143791322Y-105320069D01*
X143914472Y-105244454D01*
X144011451Y-105137314D01*
X144054360Y-105048749D01*
X144070545Y-105015343D01*
X144070545Y-105015342D01*
X144074460Y-105007262D01*
X144098436Y-104864753D01*
X144098588Y-104852300D01*
X144078101Y-104709248D01*
X144072485Y-104696895D01*
X144023920Y-104590083D01*
X144018288Y-104577695D01*
X144012430Y-104570896D01*
X144012427Y-104570892D01*
X143929816Y-104475018D01*
X143929813Y-104475016D01*
X143923956Y-104468218D01*
X143802690Y-104389617D01*
X143785821Y-104384572D01*
X143672838Y-104350782D01*
X143672836Y-104350782D01*
X143664237Y-104348210D01*
X143655263Y-104348155D01*
X143655261Y-104348155D01*
X143591982Y-104347769D01*
X143519727Y-104347328D01*
X143511096Y-104349795D01*
X143511094Y-104349795D01*
X143389409Y-104384572D01*
X143389405Y-104384574D01*
X143380779Y-104387039D01*
X143258561Y-104464153D01*
X143162899Y-104572470D01*
X143159085Y-104580593D01*
X143159084Y-104580595D01*
X143152688Y-104594218D01*
X143101483Y-104703282D01*
X143100103Y-104712146D01*
X143100102Y-104712149D01*
X143081543Y-104831349D01*
X143079250Y-104846073D01*
X139186405Y-104846073D01*
X139156716Y-104811618D01*
X139156713Y-104811616D01*
X139150856Y-104804818D01*
X139029590Y-104726217D01*
X138972851Y-104709248D01*
X138899738Y-104687382D01*
X138899736Y-104687382D01*
X138891137Y-104684810D01*
X138882163Y-104684755D01*
X138882161Y-104684755D01*
X138818882Y-104684369D01*
X138746627Y-104683928D01*
X138737996Y-104686395D01*
X138737994Y-104686395D01*
X138616309Y-104721172D01*
X138616305Y-104721174D01*
X138607679Y-104723639D01*
X138485461Y-104800753D01*
X138479518Y-104807482D01*
X138479517Y-104807483D01*
X138428938Y-104864753D01*
X138389799Y-104909070D01*
X138328383Y-105039882D01*
X138327003Y-105048746D01*
X138327002Y-105048749D01*
X138313213Y-105137314D01*
X138306150Y-105182673D01*
X135760026Y-105182673D01*
X135787260Y-105126462D01*
X135811236Y-104983953D01*
X135811388Y-104971500D01*
X135796787Y-104869547D01*
X135792174Y-104837335D01*
X135792173Y-104837333D01*
X135790901Y-104828448D01*
X135731088Y-104696895D01*
X135725230Y-104690096D01*
X135725227Y-104690092D01*
X135642616Y-104594218D01*
X135642613Y-104594216D01*
X135636756Y-104587418D01*
X135515490Y-104508817D01*
X135498621Y-104503772D01*
X135385638Y-104469982D01*
X135385636Y-104469982D01*
X135377037Y-104467410D01*
X135368063Y-104467355D01*
X135368061Y-104467355D01*
X135304782Y-104466969D01*
X135232527Y-104466528D01*
X135223896Y-104468995D01*
X135223894Y-104468995D01*
X135102209Y-104503772D01*
X135102205Y-104503774D01*
X135093579Y-104506239D01*
X135085992Y-104511026D01*
X135085990Y-104511027D01*
X134991110Y-104570892D01*
X134971361Y-104583353D01*
X134875699Y-104691670D01*
X134871885Y-104699793D01*
X134871884Y-104699795D01*
X134857187Y-104731100D01*
X134814283Y-104822482D01*
X134812903Y-104831346D01*
X134812902Y-104831349D01*
X134798715Y-104922469D01*
X134792050Y-104965273D01*
X134793214Y-104974175D01*
X134793214Y-104974178D01*
X134802966Y-105048749D01*
X134810788Y-105108565D01*
X134862191Y-105225390D01*
X134868989Y-105240839D01*
X134865850Y-105242220D01*
X134880431Y-105294657D01*
X134859451Y-105362483D01*
X134821680Y-105399406D01*
X134773258Y-105429958D01*
X134773251Y-105429964D01*
X134765661Y-105434753D01*
X134759718Y-105441482D01*
X134759717Y-105441483D01*
X134717403Y-105489395D01*
X134669999Y-105543070D01*
X134666185Y-105551193D01*
X134666184Y-105551195D01*
X134649961Y-105585750D01*
X134608583Y-105673882D01*
X134607203Y-105682746D01*
X134607202Y-105682749D01*
X134593795Y-105768860D01*
X134586350Y-105816673D01*
X130302000Y-105816673D01*
X130302000Y-103681473D01*
X138490650Y-103681473D01*
X138491814Y-103690375D01*
X138491814Y-103690378D01*
X138508224Y-103815864D01*
X138509388Y-103824765D01*
X138567589Y-103957039D01*
X138660576Y-104067660D01*
X138668047Y-104072633D01*
X138668048Y-104072634D01*
X138773401Y-104142763D01*
X138773403Y-104142764D01*
X138780874Y-104147737D01*
X138789438Y-104150413D01*
X138789441Y-104150414D01*
X138849842Y-104169285D01*
X138918810Y-104190832D01*
X139063298Y-104193480D01*
X139082830Y-104188155D01*
X139194063Y-104157830D01*
X139194065Y-104157829D01*
X139202722Y-104155469D01*
X139325872Y-104079854D01*
X139422851Y-103972714D01*
X139485860Y-103842662D01*
X139509836Y-103700153D01*
X139509988Y-103687700D01*
X139489501Y-103544648D01*
X139429688Y-103413095D01*
X139423830Y-103406296D01*
X139423827Y-103406292D01*
X139341216Y-103310418D01*
X139341213Y-103310416D01*
X139335356Y-103303618D01*
X139214090Y-103225017D01*
X139197221Y-103219972D01*
X139084238Y-103186182D01*
X139084236Y-103186182D01*
X139075637Y-103183610D01*
X139066663Y-103183555D01*
X139066661Y-103183555D01*
X139003382Y-103183169D01*
X138931127Y-103182728D01*
X138922496Y-103185195D01*
X138922494Y-103185195D01*
X138800809Y-103219972D01*
X138800805Y-103219974D01*
X138792179Y-103222439D01*
X138669961Y-103299553D01*
X138574299Y-103407870D01*
X138512883Y-103538682D01*
X138490650Y-103681473D01*
X130302000Y-103681473D01*
X130302000Y-101865173D01*
X140921450Y-101865173D01*
X140922614Y-101874075D01*
X140922614Y-101874078D01*
X140939024Y-101999564D01*
X140940188Y-102008465D01*
X140998389Y-102140739D01*
X141091376Y-102251360D01*
X141098847Y-102256333D01*
X141098848Y-102256334D01*
X141204201Y-102326463D01*
X141204203Y-102326464D01*
X141211674Y-102331437D01*
X141220238Y-102334113D01*
X141220241Y-102334114D01*
X141280642Y-102352985D01*
X141349610Y-102374532D01*
X141494098Y-102377180D01*
X141513630Y-102371855D01*
X141624863Y-102341530D01*
X141624865Y-102341529D01*
X141633522Y-102339169D01*
X141756672Y-102263554D01*
X141853651Y-102156414D01*
X141916660Y-102026362D01*
X141940636Y-101883853D01*
X141940788Y-101871400D01*
X141920301Y-101728348D01*
X141860488Y-101596795D01*
X141854630Y-101589996D01*
X141854627Y-101589992D01*
X141772016Y-101494118D01*
X141772013Y-101494116D01*
X141766156Y-101487318D01*
X141644890Y-101408717D01*
X141628021Y-101403672D01*
X141515038Y-101369882D01*
X141515036Y-101369882D01*
X141506437Y-101367310D01*
X141497463Y-101367255D01*
X141497461Y-101367255D01*
X141434182Y-101366869D01*
X141361927Y-101366428D01*
X141353296Y-101368895D01*
X141353294Y-101368895D01*
X141231609Y-101403672D01*
X141231605Y-101403674D01*
X141222979Y-101406139D01*
X141100761Y-101483253D01*
X141005099Y-101591570D01*
X140943683Y-101722382D01*
X140921450Y-101865173D01*
X130302000Y-101865173D01*
X130302000Y-99494574D01*
X130322002Y-99426453D01*
X130375658Y-99379960D01*
X130445932Y-99369856D01*
X130510512Y-99399350D01*
X130536620Y-99430717D01*
X130551552Y-99456117D01*
X130553853Y-99459132D01*
X130749548Y-99715553D01*
X130753046Y-99720137D01*
X130755694Y-99722856D01*
X130755699Y-99722861D01*
X130979381Y-99952477D01*
X130984798Y-99958038D01*
X130987742Y-99960409D01*
X130987745Y-99960412D01*
X131058810Y-100017652D01*
X131243453Y-100166374D01*
X131525264Y-100342127D01*
X131826147Y-100482751D01*
X131829757Y-100483934D01*
X131829756Y-100483934D01*
X132103984Y-100573830D01*
X132141746Y-100586209D01*
X132467488Y-100651003D01*
X132471261Y-100651290D01*
X132471268Y-100651291D01*
X132794878Y-100675908D01*
X132794883Y-100675908D01*
X132798655Y-100676195D01*
X133130450Y-100661418D01*
X133458067Y-100606888D01*
X133461701Y-100605822D01*
X133461705Y-100605821D01*
X133622108Y-100558763D01*
X133776759Y-100513393D01*
X133817583Y-100495854D01*
X134051467Y-100395370D01*
X134081912Y-100382290D01*
X134369103Y-100215475D01*
X134525414Y-100097473D01*
X139153750Y-100097473D01*
X139154914Y-100106375D01*
X139154914Y-100106378D01*
X139162760Y-100166374D01*
X139172488Y-100240765D01*
X139230689Y-100373039D01*
X139323676Y-100483660D01*
X139331147Y-100488633D01*
X139331148Y-100488634D01*
X139436501Y-100558763D01*
X139436503Y-100558764D01*
X139443974Y-100563737D01*
X139452538Y-100566413D01*
X139452541Y-100566414D01*
X139512127Y-100585030D01*
X139581910Y-100606832D01*
X139726398Y-100609480D01*
X139735509Y-100606996D01*
X139857163Y-100573830D01*
X139857165Y-100573829D01*
X139865822Y-100571469D01*
X139988972Y-100495854D01*
X140085951Y-100388714D01*
X140148960Y-100258662D01*
X140172936Y-100116153D01*
X140173088Y-100103700D01*
X140152601Y-99960648D01*
X140092788Y-99829095D01*
X140086930Y-99822296D01*
X140086927Y-99822292D01*
X140004316Y-99726418D01*
X140004313Y-99726416D01*
X139998456Y-99719618D01*
X139877190Y-99641017D01*
X139860321Y-99635972D01*
X139747338Y-99602182D01*
X139747336Y-99602182D01*
X139738737Y-99599610D01*
X139729763Y-99599555D01*
X139729761Y-99599555D01*
X139666482Y-99599169D01*
X139594227Y-99598728D01*
X139585596Y-99601195D01*
X139585594Y-99601195D01*
X139463909Y-99635972D01*
X139463905Y-99635974D01*
X139455279Y-99638439D01*
X139333061Y-99715553D01*
X139237399Y-99823870D01*
X139175983Y-99954682D01*
X139174603Y-99963546D01*
X139174602Y-99963549D01*
X139166944Y-100012736D01*
X139153750Y-100097473D01*
X134525414Y-100097473D01*
X134634175Y-100015367D01*
X134873286Y-99784863D01*
X134923764Y-99722861D01*
X135080582Y-99530239D01*
X135080583Y-99530238D01*
X135082973Y-99527302D01*
X135103623Y-99494574D01*
X135258176Y-99249623D01*
X135258179Y-99249617D01*
X135260199Y-99246416D01*
X135402397Y-98946273D01*
X135507506Y-98631220D01*
X135570439Y-98323273D01*
X138603050Y-98323273D01*
X138604214Y-98332175D01*
X138604214Y-98332178D01*
X138620624Y-98457664D01*
X138621788Y-98466565D01*
X138679989Y-98598839D01*
X138772976Y-98709460D01*
X138780447Y-98714433D01*
X138780448Y-98714434D01*
X138885801Y-98784563D01*
X138885803Y-98784564D01*
X138893274Y-98789537D01*
X138901838Y-98792213D01*
X138901841Y-98792214D01*
X138962242Y-98811084D01*
X139031210Y-98832632D01*
X139175698Y-98835280D01*
X139195230Y-98829955D01*
X139306463Y-98799630D01*
X139306465Y-98799629D01*
X139315122Y-98797269D01*
X139438272Y-98721654D01*
X139535251Y-98614514D01*
X139598260Y-98484462D01*
X139622236Y-98341953D01*
X139622388Y-98329500D01*
X139601901Y-98186448D01*
X139542088Y-98054895D01*
X139536230Y-98048096D01*
X139536227Y-98048092D01*
X139453616Y-97952218D01*
X139453613Y-97952216D01*
X139447756Y-97945418D01*
X139387123Y-97906117D01*
X139334024Y-97871700D01*
X139334022Y-97871699D01*
X139326490Y-97866817D01*
X139309621Y-97861772D01*
X139196638Y-97827982D01*
X139196636Y-97827982D01*
X139188037Y-97825410D01*
X139179063Y-97825355D01*
X139179061Y-97825355D01*
X139115782Y-97824969D01*
X139043527Y-97824528D01*
X139034896Y-97826995D01*
X139034894Y-97826995D01*
X138913209Y-97861772D01*
X138913205Y-97861774D01*
X138904579Y-97864239D01*
X138782361Y-97941353D01*
X138776418Y-97948082D01*
X138776417Y-97948083D01*
X138750856Y-97977026D01*
X138686699Y-98049670D01*
X138625283Y-98180482D01*
X138623903Y-98189346D01*
X138623902Y-98189349D01*
X138606357Y-98302035D01*
X138603050Y-98323273D01*
X135570439Y-98323273D01*
X135574005Y-98305822D01*
X135600930Y-97974791D01*
X135601535Y-97917000D01*
X135598355Y-97864239D01*
X135581777Y-97589256D01*
X135581777Y-97589252D01*
X135581549Y-97585478D01*
X135580043Y-97577230D01*
X135522559Y-97262481D01*
X135522558Y-97262477D01*
X135521879Y-97258759D01*
X135519899Y-97252380D01*
X135478655Y-97119553D01*
X135448293Y-97021773D01*
X137982650Y-97021773D01*
X137983814Y-97030675D01*
X137983814Y-97030678D01*
X137994801Y-97114693D01*
X138001388Y-97165065D01*
X138059589Y-97297339D01*
X138152576Y-97407960D01*
X138160047Y-97412933D01*
X138160048Y-97412934D01*
X138265401Y-97483063D01*
X138265403Y-97483064D01*
X138272874Y-97488037D01*
X138281438Y-97490713D01*
X138281441Y-97490714D01*
X138323807Y-97503950D01*
X138410810Y-97531132D01*
X138555298Y-97533780D01*
X138574830Y-97528455D01*
X138686063Y-97498130D01*
X138686065Y-97498129D01*
X138694722Y-97495769D01*
X138817872Y-97420154D01*
X138914851Y-97313014D01*
X138977860Y-97182962D01*
X138991671Y-97100873D01*
X152072350Y-97100873D01*
X152073514Y-97109775D01*
X152073514Y-97109778D01*
X152084141Y-97191043D01*
X152091088Y-97244165D01*
X152149289Y-97376439D01*
X152242276Y-97487060D01*
X152249747Y-97492033D01*
X152249748Y-97492034D01*
X152355101Y-97562163D01*
X152355103Y-97562164D01*
X152362574Y-97567137D01*
X152371138Y-97569813D01*
X152371141Y-97569814D01*
X152409359Y-97581754D01*
X152500510Y-97610232D01*
X152644998Y-97612880D01*
X152731651Y-97589256D01*
X152775763Y-97577230D01*
X152775765Y-97577229D01*
X152784422Y-97574869D01*
X152907572Y-97499254D01*
X153004551Y-97392114D01*
X153067560Y-97262062D01*
X153091536Y-97119553D01*
X153091688Y-97107100D01*
X153079468Y-97021773D01*
X153072474Y-96972935D01*
X153072473Y-96972933D01*
X153071201Y-96964048D01*
X153011388Y-96832495D01*
X153005530Y-96825696D01*
X153005527Y-96825692D01*
X152922916Y-96729818D01*
X152922913Y-96729816D01*
X152917056Y-96723018D01*
X152839842Y-96672970D01*
X152803324Y-96649300D01*
X152803322Y-96649299D01*
X152795790Y-96644417D01*
X152777794Y-96639035D01*
X152665938Y-96605582D01*
X152665936Y-96605582D01*
X152657337Y-96603010D01*
X152648363Y-96602955D01*
X152648361Y-96602955D01*
X152585082Y-96602569D01*
X152512827Y-96602128D01*
X152504196Y-96604595D01*
X152504194Y-96604595D01*
X152382509Y-96639372D01*
X152382505Y-96639374D01*
X152373879Y-96641839D01*
X152366292Y-96646626D01*
X152366290Y-96646627D01*
X152259254Y-96714162D01*
X152251661Y-96718953D01*
X152245718Y-96725682D01*
X152245717Y-96725683D01*
X152221243Y-96753395D01*
X152155999Y-96827270D01*
X152152185Y-96835393D01*
X152152184Y-96835395D01*
X152131720Y-96878982D01*
X152094583Y-96958082D01*
X152093203Y-96966946D01*
X152093202Y-96966949D01*
X152081758Y-97040453D01*
X152072350Y-97100873D01*
X138991671Y-97100873D01*
X139001836Y-97040453D01*
X139001988Y-97028000D01*
X138981501Y-96884948D01*
X138921688Y-96753395D01*
X138915830Y-96746596D01*
X138915827Y-96746592D01*
X138833216Y-96650718D01*
X138833213Y-96650716D01*
X138827356Y-96643918D01*
X138706090Y-96565317D01*
X138683667Y-96558611D01*
X138576238Y-96526482D01*
X138576236Y-96526482D01*
X138567637Y-96523910D01*
X138558663Y-96523855D01*
X138558661Y-96523855D01*
X138495382Y-96523469D01*
X138423127Y-96523028D01*
X138414496Y-96525495D01*
X138414494Y-96525495D01*
X138292809Y-96560272D01*
X138292805Y-96560274D01*
X138284179Y-96562739D01*
X138276592Y-96567526D01*
X138276590Y-96567527D01*
X138204552Y-96612980D01*
X138161961Y-96639853D01*
X138156018Y-96646582D01*
X138156017Y-96646583D01*
X138152365Y-96650718D01*
X138066299Y-96748170D01*
X138004883Y-96878982D01*
X138003503Y-96887846D01*
X138003502Y-96887849D01*
X137992567Y-96958082D01*
X137982650Y-97021773D01*
X135448293Y-97021773D01*
X135423391Y-96941574D01*
X135412913Y-96918203D01*
X135325397Y-96723018D01*
X135287510Y-96638518D01*
X135116205Y-96353982D01*
X135113878Y-96350998D01*
X135113873Y-96350991D01*
X134914294Y-96095082D01*
X134914292Y-96095079D01*
X134911958Y-96092087D01*
X134677726Y-95856626D01*
X134656865Y-95840180D01*
X134419885Y-95653360D01*
X134416904Y-95651010D01*
X134142112Y-95483605D01*
X134094343Y-95431082D01*
X134082553Y-95361071D01*
X134110485Y-95295800D01*
X134169271Y-95255992D01*
X134207665Y-95250000D01*
X144012018Y-95250000D01*
X144080139Y-95270002D01*
G37*
%TD.AperFunction*%
%TD*%
%TA.AperFunction,Conductor*%
%TO.N,/VBUS*%
G36*
X143325121Y-120289002D02*
G01*
X143371614Y-120342658D01*
X143383000Y-120395000D01*
X143383000Y-122174000D01*
X146813000Y-122174000D01*
X146881121Y-122194002D01*
X146927614Y-122247658D01*
X146939000Y-122300000D01*
X146939000Y-126365000D01*
X155197446Y-126365000D01*
X155265567Y-126385002D01*
X155312060Y-126438658D01*
X155323422Y-126488530D01*
X155340646Y-127366962D01*
X155401918Y-130491780D01*
X155403821Y-130588854D01*
X155385158Y-130657354D01*
X155332424Y-130704889D01*
X155262362Y-130716369D01*
X155197215Y-130688148D01*
X155175909Y-130665385D01*
X155152254Y-130632827D01*
X155147594Y-130626413D01*
X155102193Y-130588854D01*
X155031932Y-130530729D01*
X155031928Y-130530726D01*
X155025823Y-130525676D01*
X154882826Y-130458386D01*
X154875043Y-130456901D01*
X154875042Y-130456901D01*
X154735374Y-130430258D01*
X154735372Y-130430258D01*
X154727588Y-130428773D01*
X154569862Y-130438696D01*
X154562318Y-130441147D01*
X154562319Y-130441147D01*
X154427095Y-130485084D01*
X154427092Y-130485085D01*
X154419559Y-130487533D01*
X154286123Y-130572214D01*
X154177938Y-130687418D01*
X154101803Y-130825908D01*
X154062500Y-130978981D01*
X154062500Y-131889786D01*
X154042498Y-131957907D01*
X153988842Y-132004400D01*
X153918568Y-132014504D01*
X153853988Y-131985010D01*
X153820749Y-131931910D01*
X153818687Y-131932764D01*
X153763858Y-131800397D01*
X153760698Y-131792767D01*
X153668451Y-131672549D01*
X153548233Y-131580302D01*
X153408236Y-131522313D01*
X153295720Y-131507500D01*
X153220280Y-131507500D01*
X153107764Y-131522313D01*
X152967767Y-131580302D01*
X152847549Y-131672549D01*
X152755302Y-131792767D01*
X152697313Y-131932764D01*
X152677534Y-132083000D01*
X152697313Y-132233236D01*
X152755302Y-132373233D01*
X152847549Y-132493451D01*
X152967767Y-132585698D01*
X152975396Y-132588858D01*
X152975401Y-132588861D01*
X153001308Y-132599592D01*
X153056589Y-132644140D01*
X153079009Y-132711504D01*
X153061450Y-132780295D01*
X153009488Y-132828673D01*
X152953089Y-132842000D01*
X147782911Y-132842000D01*
X147714790Y-132821998D01*
X147668297Y-132768342D01*
X147658193Y-132698068D01*
X147687687Y-132633488D01*
X147734692Y-132599592D01*
X147760599Y-132588861D01*
X147760604Y-132588858D01*
X147768233Y-132585698D01*
X147888451Y-132493451D01*
X147980698Y-132373233D01*
X148038687Y-132233236D01*
X148058466Y-132083000D01*
X148038687Y-131932764D01*
X147980698Y-131792767D01*
X147888451Y-131672549D01*
X147768233Y-131580302D01*
X147628236Y-131522313D01*
X147515720Y-131507500D01*
X147440280Y-131507500D01*
X147327764Y-131522313D01*
X147187767Y-131580302D01*
X147067549Y-131672549D01*
X146975302Y-131792767D01*
X146917313Y-131932764D01*
X146915376Y-131931962D01*
X146884256Y-131983019D01*
X146820396Y-132014041D01*
X146749901Y-132005613D01*
X146695154Y-131960411D01*
X146673500Y-131889786D01*
X146673500Y-131018650D01*
X146658664Y-130901208D01*
X146631892Y-130833589D01*
X146603404Y-130761637D01*
X146603403Y-130761634D01*
X146600486Y-130754268D01*
X146556966Y-130694367D01*
X146512254Y-130632827D01*
X146507594Y-130626413D01*
X146462193Y-130588854D01*
X146391932Y-130530729D01*
X146391928Y-130530726D01*
X146385823Y-130525676D01*
X146242826Y-130458386D01*
X146235043Y-130456901D01*
X146235042Y-130456901D01*
X146095374Y-130430258D01*
X146095372Y-130430258D01*
X146087588Y-130428773D01*
X145929862Y-130438696D01*
X145922318Y-130441147D01*
X145922319Y-130441147D01*
X145787095Y-130485084D01*
X145787092Y-130485085D01*
X145779559Y-130487533D01*
X145646123Y-130572214D01*
X145537938Y-130687418D01*
X145534121Y-130694361D01*
X145534117Y-130694367D01*
X145524414Y-130712016D01*
X145474069Y-130762075D01*
X145404652Y-130776968D01*
X145338203Y-130751967D01*
X145295819Y-130695010D01*
X145288000Y-130651315D01*
X145288000Y-128079873D01*
X147001350Y-128079873D01*
X147002514Y-128088775D01*
X147002514Y-128088778D01*
X147008296Y-128132990D01*
X147020088Y-128223165D01*
X147078289Y-128355439D01*
X147171276Y-128466060D01*
X147178747Y-128471033D01*
X147178748Y-128471034D01*
X147284101Y-128541163D01*
X147284103Y-128541164D01*
X147291574Y-128546137D01*
X147300138Y-128548813D01*
X147300141Y-128548814D01*
X147360542Y-128567684D01*
X147429510Y-128589232D01*
X147573998Y-128591880D01*
X147593530Y-128586555D01*
X147704763Y-128556230D01*
X147704765Y-128556229D01*
X147713422Y-128553869D01*
X147836572Y-128478254D01*
X147933551Y-128371114D01*
X147996560Y-128241062D01*
X148020536Y-128098553D01*
X148020688Y-128086100D01*
X148000201Y-127943048D01*
X147940388Y-127811495D01*
X147934530Y-127804696D01*
X147934527Y-127804692D01*
X147890566Y-127753673D01*
X153528350Y-127753673D01*
X153529514Y-127762575D01*
X153529514Y-127762578D01*
X153536980Y-127819669D01*
X153547088Y-127896965D01*
X153605289Y-128029239D01*
X153611063Y-128036108D01*
X153667584Y-128103347D01*
X153698276Y-128139860D01*
X153705747Y-128144833D01*
X153705748Y-128144834D01*
X153811101Y-128214963D01*
X153811103Y-128214964D01*
X153818574Y-128219937D01*
X153827138Y-128222613D01*
X153827141Y-128222614D01*
X153886190Y-128241062D01*
X153956510Y-128263032D01*
X154100998Y-128265680D01*
X154191297Y-128241062D01*
X154231763Y-128230030D01*
X154231765Y-128230029D01*
X154240422Y-128227669D01*
X154363572Y-128152054D01*
X154460551Y-128044914D01*
X154492055Y-127979888D01*
X154519645Y-127922943D01*
X154519645Y-127922942D01*
X154523560Y-127914862D01*
X154547536Y-127772353D01*
X154547688Y-127759900D01*
X154527201Y-127616848D01*
X154467388Y-127485295D01*
X154461530Y-127478496D01*
X154461527Y-127478492D01*
X154378916Y-127382618D01*
X154378913Y-127382616D01*
X154373056Y-127375818D01*
X154291033Y-127322653D01*
X154259324Y-127302100D01*
X154259322Y-127302099D01*
X154251790Y-127297217D01*
X154234921Y-127292172D01*
X154121938Y-127258382D01*
X154121936Y-127258382D01*
X154113337Y-127255810D01*
X154104363Y-127255755D01*
X154104361Y-127255755D01*
X154041082Y-127255369D01*
X153968827Y-127254928D01*
X153960196Y-127257395D01*
X153960194Y-127257395D01*
X153838509Y-127292172D01*
X153838505Y-127292174D01*
X153829879Y-127294639D01*
X153822292Y-127299426D01*
X153822290Y-127299427D01*
X153715254Y-127366962D01*
X153707661Y-127371753D01*
X153611999Y-127480070D01*
X153550583Y-127610882D01*
X153549203Y-127619746D01*
X153549202Y-127619749D01*
X153536341Y-127702354D01*
X153528350Y-127753673D01*
X147890566Y-127753673D01*
X147851916Y-127708818D01*
X147851913Y-127708816D01*
X147846056Y-127702018D01*
X147724790Y-127623417D01*
X147655716Y-127602759D01*
X147594938Y-127584582D01*
X147594936Y-127584582D01*
X147586337Y-127582010D01*
X147577363Y-127581955D01*
X147577361Y-127581955D01*
X147514082Y-127581569D01*
X147441827Y-127581128D01*
X147433196Y-127583595D01*
X147433194Y-127583595D01*
X147311509Y-127618372D01*
X147311505Y-127618374D01*
X147302879Y-127620839D01*
X147180661Y-127697953D01*
X147174718Y-127704682D01*
X147174717Y-127704683D01*
X147103914Y-127784852D01*
X147084999Y-127806270D01*
X147023583Y-127937082D01*
X147022203Y-127945946D01*
X147022202Y-127945949D01*
X147005757Y-128051570D01*
X147001350Y-128079873D01*
X145288000Y-128079873D01*
X145288000Y-123317000D01*
X141559662Y-123317000D01*
X141491541Y-123296998D01*
X141445048Y-123243342D01*
X141435763Y-123206460D01*
X141434788Y-123206600D01*
X141415574Y-123072435D01*
X141415573Y-123072433D01*
X141414301Y-123063548D01*
X141354488Y-122931995D01*
X141348630Y-122925196D01*
X141348627Y-122925192D01*
X141266016Y-122829318D01*
X141266013Y-122829316D01*
X141260156Y-122822518D01*
X141199523Y-122783217D01*
X141146424Y-122748800D01*
X141146422Y-122748799D01*
X141138890Y-122743917D01*
X141063466Y-122721360D01*
X141009038Y-122705082D01*
X141009036Y-122705082D01*
X141000437Y-122702510D01*
X140991463Y-122702455D01*
X140991461Y-122702455D01*
X140928182Y-122702069D01*
X140855927Y-122701628D01*
X140847296Y-122704095D01*
X140847294Y-122704095D01*
X140725609Y-122738872D01*
X140725605Y-122738874D01*
X140716979Y-122741339D01*
X140709392Y-122746126D01*
X140709390Y-122746127D01*
X140609475Y-122809169D01*
X140594761Y-122818453D01*
X140499099Y-122926770D01*
X140437683Y-123057582D01*
X140415450Y-123200373D01*
X140414461Y-123200219D01*
X140395988Y-123260407D01*
X140341770Y-123306243D01*
X140290828Y-123317000D01*
X138937000Y-123317000D01*
X138868879Y-123296998D01*
X138822386Y-123243342D01*
X138811000Y-123191000D01*
X138811000Y-121030000D01*
X138831002Y-120961879D01*
X138884658Y-120915386D01*
X138937000Y-120904000D01*
X141478000Y-120904000D01*
X141478000Y-120395000D01*
X141498002Y-120326879D01*
X141551658Y-120280386D01*
X141604000Y-120269000D01*
X143257000Y-120269000D01*
X143325121Y-120289002D01*
G37*
%TD.AperFunction*%
%TD*%
%TA.AperFunction,Conductor*%
%TO.N,/VIN*%
G36*
X138053869Y-114828002D02*
G01*
X138100362Y-114881658D01*
X138110466Y-114951932D01*
X138080972Y-115016512D01*
X138052984Y-115040562D01*
X137947761Y-115106953D01*
X137852099Y-115215270D01*
X137790683Y-115346082D01*
X137768450Y-115488873D01*
X137769614Y-115497775D01*
X137769614Y-115497778D01*
X137786024Y-115623264D01*
X137787188Y-115632165D01*
X137845389Y-115764439D01*
X137938376Y-115875060D01*
X137945847Y-115880033D01*
X137945848Y-115880034D01*
X138051201Y-115950163D01*
X138051203Y-115950164D01*
X138058674Y-115955137D01*
X138067238Y-115957813D01*
X138067241Y-115957814D01*
X138127642Y-115976685D01*
X138196610Y-115998232D01*
X138341098Y-116000880D01*
X138360630Y-115995555D01*
X138471863Y-115965230D01*
X138471865Y-115965229D01*
X138480522Y-115962869D01*
X138603672Y-115887254D01*
X138700651Y-115780114D01*
X138763660Y-115650062D01*
X138787636Y-115507553D01*
X138787788Y-115495100D01*
X138767301Y-115352048D01*
X138707488Y-115220495D01*
X138701630Y-115213696D01*
X138701627Y-115213692D01*
X138619016Y-115117818D01*
X138619013Y-115117816D01*
X138613156Y-115111018D01*
X138503174Y-115039731D01*
X138456892Y-114985896D01*
X138447061Y-114915583D01*
X138476805Y-114851118D01*
X138536680Y-114812967D01*
X138571708Y-114808000D01*
X142749000Y-114808000D01*
X142817121Y-114828002D01*
X142863614Y-114881658D01*
X142875000Y-114934000D01*
X142875000Y-119254000D01*
X142854998Y-119322121D01*
X142801342Y-119368614D01*
X142749000Y-119380000D01*
X133603000Y-119380000D01*
X133534879Y-119359998D01*
X133488386Y-119306342D01*
X133477000Y-119254000D01*
X133477000Y-114934000D01*
X133497002Y-114865879D01*
X133550658Y-114819386D01*
X133603000Y-114808000D01*
X137985748Y-114808000D01*
X138053869Y-114828002D01*
G37*
%TD.AperFunction*%
%TD*%
%TA.AperFunction,Conductor*%
%TO.N,/VBAT*%
G36*
X138572525Y-123337002D02*
G01*
X138613895Y-123380648D01*
X138630425Y-123409676D01*
X138676918Y-123463332D01*
X138709502Y-123494773D01*
X138797319Y-123540709D01*
X138865440Y-123560711D01*
X138869899Y-123561352D01*
X138869903Y-123561353D01*
X138901220Y-123565856D01*
X138937000Y-123571000D01*
X140290828Y-123571000D01*
X140294080Y-123570660D01*
X140294088Y-123570660D01*
X140340051Y-123565860D01*
X140340053Y-123565860D01*
X140343306Y-123565520D01*
X140394248Y-123554763D01*
X140419042Y-123548204D01*
X140425854Y-123544434D01*
X140433077Y-123541532D01*
X140434283Y-123544533D01*
X140489154Y-123532289D01*
X140555806Y-123556744D01*
X140577287Y-123576938D01*
X140585376Y-123586560D01*
X140592847Y-123591533D01*
X140592848Y-123591534D01*
X140698201Y-123661663D01*
X140698203Y-123661664D01*
X140705674Y-123666637D01*
X140714238Y-123669313D01*
X140714241Y-123669314D01*
X140774642Y-123688184D01*
X140843610Y-123709732D01*
X140988098Y-123712380D01*
X141044512Y-123697000D01*
X141118863Y-123676730D01*
X141118865Y-123676729D01*
X141127522Y-123674369D01*
X141250672Y-123598754D01*
X141257208Y-123591534D01*
X141275871Y-123570915D01*
X141336414Y-123533833D01*
X141407394Y-123535370D01*
X141415022Y-123538115D01*
X141419981Y-123540709D01*
X141488102Y-123560711D01*
X141492561Y-123561352D01*
X141492565Y-123561353D01*
X141523882Y-123565856D01*
X141559662Y-123571000D01*
X144908000Y-123571000D01*
X144976121Y-123591002D01*
X145022614Y-123644658D01*
X145034000Y-123697000D01*
X145034000Y-125223000D01*
X145013998Y-125291121D01*
X144960342Y-125337614D01*
X144908000Y-125349000D01*
X140208000Y-125349000D01*
X140208000Y-126812731D01*
X140187998Y-126880852D01*
X140158309Y-126910292D01*
X140159290Y-126911444D01*
X140152453Y-126917263D01*
X140144861Y-126922053D01*
X140049199Y-127030370D01*
X139987783Y-127161182D01*
X139965550Y-127303973D01*
X139966714Y-127312875D01*
X139966714Y-127312878D01*
X139973136Y-127361983D01*
X139984288Y-127447265D01*
X140042489Y-127579539D01*
X140135476Y-127690160D01*
X140151821Y-127701040D01*
X140197442Y-127755437D01*
X140208000Y-127805926D01*
X140208000Y-129160000D01*
X140187998Y-129228121D01*
X140134342Y-129274614D01*
X140082000Y-129286000D01*
X138048000Y-129286000D01*
X137979879Y-129265998D01*
X137933386Y-129212342D01*
X137922000Y-129160000D01*
X137922000Y-123443000D01*
X137942002Y-123374879D01*
X137995658Y-123328386D01*
X138048000Y-123317000D01*
X138504404Y-123317000D01*
X138572525Y-123337002D01*
G37*
%TD.AperFunction*%
%TD*%
M02*
