%TF.GenerationSoftware,KiCad,Pcbnew,(6.0.1)*%
%TF.CreationDate,2022-03-18T08:08:47+01:00*%
%TF.ProjectId,trick-tracker,74726963-6b2d-4747-9261-636b65722e6b,rev?*%
%TF.SameCoordinates,Original*%
%TF.FileFunction,Copper,L4,Bot*%
%TF.FilePolarity,Positive*%
%FSLAX46Y46*%
G04 Gerber Fmt 4.6, Leading zero omitted, Abs format (unit mm)*
G04 Created by KiCad (PCBNEW (6.0.1)) date 2022-03-18 08:08:47*
%MOMM*%
%LPD*%
G01*
G04 APERTURE LIST*
%TA.AperFunction,ComponentPad*%
%ADD10O,1.050000X2.100000*%
%TD*%
%TA.AperFunction,ComponentPad*%
%ADD11O,1.000000X2.000000*%
%TD*%
%TA.AperFunction,ComponentPad*%
%ADD12C,0.800000*%
%TD*%
%TA.AperFunction,ComponentPad*%
%ADD13C,5.000000*%
%TD*%
%TA.AperFunction,ComponentPad*%
%ADD14C,1.300000*%
%TD*%
%TA.AperFunction,SMDPad,CuDef*%
%ADD15R,1.500000X0.800000*%
%TD*%
%TA.AperFunction,SMDPad,CuDef*%
%ADD16R,0.950000X1.000000*%
%TD*%
%TA.AperFunction,SMDPad,CuDef*%
%ADD17R,1.400000X1.300000*%
%TD*%
%TA.AperFunction,SMDPad,CuDef*%
%ADD18R,1.900000X1.400000*%
%TD*%
%TA.AperFunction,SMDPad,CuDef*%
%ADD19R,6.000000X3.000000*%
%TD*%
%TA.AperFunction,SMDPad,CuDef*%
%ADD20R,2.000000X0.900000*%
%TD*%
%TA.AperFunction,SMDPad,CuDef*%
%ADD21R,0.900000X2.000000*%
%TD*%
%TA.AperFunction,SMDPad,CuDef*%
%ADD22R,5.000000X5.000000*%
%TD*%
%TA.AperFunction,ViaPad*%
%ADD23C,0.500000*%
%TD*%
%TA.AperFunction,ViaPad*%
%ADD24C,0.800000*%
%TD*%
%TA.AperFunction,Conductor*%
%ADD25C,0.250000*%
%TD*%
G04 APERTURE END LIST*
D10*
%TO.P,J1,S1,SHELL_GND*%
%TO.N,unconnected-(J1-PadS1)*%
X146048000Y-131583000D03*
D11*
%TO.P,J1,S2,SHELL_GND*%
%TO.N,unconnected-(J1-PadS2)*%
X146048000Y-135763000D03*
%TO.P,J1,S3,SHELL_GND*%
%TO.N,unconnected-(J1-PadS3)*%
X154688000Y-135763000D03*
D10*
%TO.P,J1,S4,SHELL_GND*%
%TO.N,unconnected-(J1-PadS4)*%
X154688000Y-131583000D03*
%TD*%
D12*
%TO.P,H1,1*%
%TO.N,N/C*%
X134717000Y-134239000D03*
X131516175Y-135564825D03*
X131516175Y-132913175D03*
X132842000Y-132364000D03*
X132842000Y-136114000D03*
X134167825Y-132913175D03*
D13*
X132842000Y-134239000D03*
D12*
X134167825Y-135564825D03*
X130967000Y-134239000D03*
%TD*%
%TO.P,H2,1*%
%TO.N,N/C*%
X156916175Y-135564825D03*
X159567825Y-135564825D03*
X158242000Y-136114000D03*
D13*
X158242000Y-134239000D03*
D12*
X159567825Y-132913175D03*
X158242000Y-132364000D03*
X160117000Y-134239000D03*
X156916175Y-132913175D03*
X156367000Y-134239000D03*
%TD*%
D14*
%TO.P,S3,MH1,MH1*%
%TO.N,unconnected-(S3-PadMH1)*%
X130782000Y-114477000D03*
%TO.P,S3,MH2,MH2*%
%TO.N,unconnected-(S3-PadMH2)*%
X130782000Y-120727000D03*
%TD*%
D12*
%TO.P,H3,1*%
%TO.N,N/C*%
X132842000Y-99792000D03*
X134167825Y-96591175D03*
X130967000Y-97917000D03*
X134717000Y-97917000D03*
D13*
X132842000Y-97917000D03*
D12*
X132842000Y-96042000D03*
X131516175Y-96591175D03*
X134167825Y-99242825D03*
X131516175Y-99242825D03*
%TD*%
%TO.P,H4,1*%
%TO.N,N/C*%
X160117000Y-97917000D03*
X159567825Y-99242825D03*
X156367000Y-97917000D03*
X159567825Y-96591175D03*
X158242000Y-99792000D03*
D13*
X158242000Y-97917000D03*
D12*
X158242000Y-96042000D03*
X156916175Y-99242825D03*
X156916175Y-96591175D03*
%TD*%
D15*
%TO.P,J4,1,DATA2/CS*%
%TO.N,/CS*%
X156695000Y-125384000D03*
%TO.P,J4,2,DATA3/MOSI*%
%TO.N,/MOSI*%
X156295000Y-124284000D03*
%TO.P,J4,3,CMD/GND*%
%TO.N,GND*%
X156695000Y-123184000D03*
%TO.P,J4,4,VDD*%
%TO.N,+3V3*%
X156895000Y-122084000D03*
%TO.P,J4,5,CLK*%
%TO.N,/CLK*%
X156695000Y-120984000D03*
%TO.P,J4,6,VSS/GND*%
%TO.N,GND*%
X156895000Y-119884000D03*
%TO.P,J4,7,DATA0/MISO*%
%TO.N,/MISO*%
X156695000Y-118784000D03*
%TO.P,J4,8,DATA1*%
%TO.N,unconnected-(J4-Pad8)*%
X156695000Y-117684000D03*
D16*
%TO.P,J4,9,DETECH*%
%TO.N,/SD_DETECT*%
X145610000Y-119884000D03*
D17*
%TO.P,J4,P1*%
%TO.N,N/C*%
X145835000Y-118494000D03*
%TO.P,J4,P2*%
X145835000Y-124194000D03*
D18*
%TO.P,J4,P3*%
X159985000Y-130044000D03*
%TO.P,J4,P4*%
X158985000Y-116894000D03*
%TD*%
D19*
%TO.P,P1,1,IN*%
%TO.N,Net-(P1-Pad1)*%
X138176000Y-129444000D03*
%TO.P,P1,2,OUT*%
%TO.N,GND*%
X138176000Y-117544000D03*
%TD*%
D20*
%TO.P,U3,1,GND*%
%TO.N,GND*%
X154042000Y-96944000D03*
%TO.P,U3,2,VDD*%
%TO.N,+3V3*%
X154042000Y-98214000D03*
%TO.P,U3,3,EN*%
%TO.N,/RESET*%
X154042000Y-99484000D03*
%TO.P,U3,4,SENSOR_VP*%
%TO.N,unconnected-(U3-Pad4)*%
X154042000Y-100754000D03*
%TO.P,U3,5,SENSOR_VN*%
%TO.N,unconnected-(U3-Pad5)*%
X154042000Y-102024000D03*
%TO.P,U3,6,IO34*%
%TO.N,unconnected-(U3-Pad6)*%
X154042000Y-103294000D03*
%TO.P,U3,7,IO35*%
%TO.N,/BAT_SENS*%
X154042000Y-104564000D03*
%TO.P,U3,8,IO32*%
%TO.N,unconnected-(U3-Pad8)*%
X154042000Y-105834000D03*
%TO.P,U3,9,IO33*%
%TO.N,unconnected-(U3-Pad9)*%
X154042000Y-107104000D03*
%TO.P,U3,10,IO25*%
%TO.N,/SD_DETECT*%
X154042000Y-108374000D03*
%TO.P,U3,11,IO26*%
%TO.N,Net-(P1-Pad1)*%
X154042000Y-109644000D03*
%TO.P,U3,12,IO27*%
%TO.N,unconnected-(U3-Pad12)*%
X154042000Y-110914000D03*
%TO.P,U3,13,IO14*%
%TO.N,unconnected-(U3-Pad13)*%
X154042000Y-112184000D03*
%TO.P,U3,14,IO12*%
%TO.N,unconnected-(U3-Pad14)*%
X154042000Y-113454000D03*
D21*
%TO.P,U3,15,GND*%
%TO.N,GND*%
X151257000Y-114454000D03*
%TO.P,U3,16,IO13*%
%TO.N,/BMX_INT2*%
X149987000Y-114454000D03*
%TO.P,U3,17,SHD/SD2*%
%TO.N,unconnected-(U3-Pad17)*%
X148717000Y-114454000D03*
%TO.P,U3,18,SWP/SD3*%
%TO.N,unconnected-(U3-Pad18)*%
X147447000Y-114454000D03*
%TO.P,U3,19,SCS/CMD*%
%TO.N,unconnected-(U3-Pad19)*%
X146177000Y-114454000D03*
%TO.P,U3,20,SCK/CLK*%
%TO.N,unconnected-(U3-Pad20)*%
X144907000Y-114454000D03*
%TO.P,U3,21,SDO/SD0*%
%TO.N,unconnected-(U3-Pad21)*%
X143637000Y-114454000D03*
%TO.P,U3,22,SDI/SD1*%
%TO.N,unconnected-(U3-Pad22)*%
X142367000Y-114454000D03*
%TO.P,U3,23,IO15*%
%TO.N,/PRESS_INT*%
X141097000Y-114454000D03*
%TO.P,U3,24,IO2*%
%TO.N,Net-(D4-Pad2)*%
X139827000Y-114454000D03*
D20*
%TO.P,U3,25,IO0*%
%TO.N,unconnected-(U3-Pad25)*%
X137042000Y-113454000D03*
%TO.P,U3,26,IO4*%
%TO.N,/BTN*%
X137042000Y-112184000D03*
%TO.P,U3,27,IO16*%
%TO.N,unconnected-(U3-Pad27)*%
X137042000Y-110914000D03*
%TO.P,U3,28,IO17*%
%TO.N,/BMX_INT1*%
X137042000Y-109644000D03*
%TO.P,U3,29,IO5*%
%TO.N,/CS*%
X137042000Y-108374000D03*
%TO.P,U3,30,IO18*%
%TO.N,/CLK*%
X137042000Y-107104000D03*
%TO.P,U3,31,IO19*%
%TO.N,/MISO*%
X137042000Y-105834000D03*
%TO.P,U3,32,NC*%
%TO.N,unconnected-(U3-Pad32)*%
X137042000Y-104564000D03*
%TO.P,U3,33,IO21*%
%TO.N,/SDA*%
X137042000Y-103294000D03*
%TO.P,U3,34,RXD0/IO3*%
%TO.N,/Rx*%
X137042000Y-102024000D03*
%TO.P,U3,35,TXD0/IO1*%
%TO.N,/Tx*%
X137042000Y-100754000D03*
%TO.P,U3,36,IO22*%
%TO.N,/SCL*%
X137042000Y-99484000D03*
%TO.P,U3,37,IO23*%
%TO.N,/MOSI*%
X137042000Y-98214000D03*
%TO.P,U3,38,GND*%
%TO.N,GND*%
X137042000Y-96944000D03*
D22*
%TO.P,U3,39,GND*%
X146542000Y-104444000D03*
%TD*%
D23*
%TO.N,+3V3*%
X157224200Y-108581000D03*
X155677100Y-122239500D03*
X152577800Y-98075100D03*
X148717000Y-108873300D03*
X151003000Y-123851700D03*
X148550800Y-121968000D03*
X147098400Y-108666100D03*
X133850500Y-107577000D03*
X142406400Y-107240400D03*
X138296600Y-120894500D03*
%TO.N,GND*%
X149159200Y-118815800D03*
X155067000Y-115474300D03*
X154038000Y-127759900D03*
X151091800Y-115904300D03*
X153392300Y-122239300D03*
X135096000Y-105822900D03*
X155690100Y-119894300D03*
X140925100Y-123206600D03*
X138492300Y-97028000D03*
X140475200Y-127310200D03*
X155485800Y-123253000D03*
X146134600Y-115914800D03*
X135822400Y-124209600D03*
X130849000Y-123911200D03*
X160235000Y-128876900D03*
X155988000Y-110343700D03*
X138278100Y-115495100D03*
X149645200Y-106687200D03*
X147511000Y-128086100D03*
X143588900Y-104852300D03*
X142202500Y-106413000D03*
X152582000Y-97107100D03*
X152654000Y-117195600D03*
X160235000Y-126392400D03*
X144272000Y-95954700D03*
X130849000Y-129159000D03*
X160347100Y-121441200D03*
%TO.N,/VBUS*%
X140893300Y-121107700D03*
X151638000Y-132207000D03*
X151003000Y-132207000D03*
X140482200Y-105764000D03*
D24*
X149479000Y-127889000D03*
D23*
X149733000Y-132207000D03*
X159588200Y-115510600D03*
X139000300Y-103687700D03*
X142869245Y-121805622D03*
X149098000Y-132207000D03*
X140258300Y-121107700D03*
X150368000Y-132207000D03*
X141528300Y-121107700D03*
X152781000Y-128080600D03*
%TO.N,/VBAT*%
X140925100Y-123907000D03*
X137919700Y-123163400D03*
%TO.N,/SCL*%
X135301700Y-104971500D03*
%TO.N,/SDA*%
X138815800Y-105188900D03*
%TO.N,/RESET*%
X139112700Y-98329500D03*
X150179300Y-122341400D03*
X136123500Y-120372000D03*
%TO.N,/PRESS_INT*%
X150938900Y-118965000D03*
%TO.N,/BTN*%
X152830900Y-124871000D03*
%TO.N,/Tx*%
X139663400Y-100103700D03*
%TO.N,/Rx*%
X141431100Y-101871400D03*
%TO.N,/BAT_SENS*%
X152341800Y-106949900D03*
%TO.N,Net-(D4-Pad2)*%
X152137200Y-111967600D03*
%TO.N,/VIN*%
X142569700Y-117703500D03*
X143951700Y-119085500D03*
%TO.N,/BMX_INT2*%
X147825300Y-110981000D03*
%TO.N,/BMX_INT1*%
X143214100Y-109092900D03*
%TD*%
D25*
%TO.N,+3V3*%
X154042000Y-98214000D02*
X152716700Y-98214000D01*
X155819700Y-122096900D02*
X155819700Y-122084000D01*
X155677100Y-122239500D02*
X155819700Y-122096900D01*
X156895000Y-122084000D02*
X155819700Y-122084000D01*
X152716700Y-98214000D02*
X152577800Y-98075100D01*
%TO.N,GND*%
X155485800Y-123253000D02*
X155550700Y-123253000D01*
X155809400Y-119894300D02*
X155819700Y-119884000D01*
X152582000Y-97107100D02*
X152716700Y-96972400D01*
X156695000Y-123184000D02*
X155619700Y-123184000D01*
X143716700Y-104724500D02*
X143716700Y-104444000D01*
X151216800Y-115779300D02*
X151257000Y-115779300D01*
X156895000Y-119884000D02*
X155819700Y-119884000D01*
X138176000Y-117544000D02*
X138176000Y-115718700D01*
X151091800Y-115904300D02*
X151216800Y-115779300D01*
X138492300Y-97028000D02*
X138408300Y-96944000D01*
X143588900Y-104852300D02*
X143716700Y-104724500D01*
X151257000Y-114454000D02*
X151257000Y-115779300D01*
X152716700Y-96972400D02*
X152716700Y-96944000D01*
X155690100Y-119894300D02*
X155809400Y-119894300D01*
X154042000Y-96944000D02*
X152716700Y-96944000D01*
X155550700Y-123253000D02*
X155619700Y-123184000D01*
X138408300Y-96944000D02*
X137042000Y-96944000D01*
X138278100Y-115495100D02*
X138278100Y-115616600D01*
X146542000Y-104444000D02*
X143716700Y-104444000D01*
X138278100Y-115616600D02*
X138176000Y-115718700D01*
%TO.N,/VBUS*%
X156694500Y-128379900D02*
X159130700Y-125943700D01*
X159130700Y-125943700D02*
X159130700Y-118863400D01*
X139000300Y-104282100D02*
X139000300Y-103687700D01*
X140482200Y-105764000D02*
X139000300Y-104282100D01*
X160299900Y-116047100D02*
X159763400Y-115510600D01*
X152781000Y-128080600D02*
X153080300Y-128379900D01*
X159130700Y-118863400D02*
X160299900Y-117694200D01*
X159763400Y-115510600D02*
X159588200Y-115510600D01*
X153080300Y-128379900D02*
X156694500Y-128379900D01*
X160299900Y-117694200D02*
X160299900Y-116047100D01*
%TO.N,/VBAT*%
X140925100Y-123907000D02*
X138663300Y-123907000D01*
X138663300Y-123907000D02*
X137919700Y-123163400D01*
%TO.N,/SCL*%
X135847000Y-99484000D02*
X135382000Y-99949000D01*
X135382000Y-99949000D02*
X135382000Y-104891200D01*
X137042000Y-99484000D02*
X135847000Y-99484000D01*
X135382000Y-104891200D02*
X135301700Y-104971500D01*
%TO.N,/SDA*%
X138430000Y-104803100D02*
X138815800Y-105188900D01*
X137042000Y-103294000D02*
X137965000Y-103294000D01*
X137965000Y-103294000D02*
X138430000Y-103759000D01*
X138430000Y-103759000D02*
X138430000Y-104803100D01*
%TO.N,/RESET*%
X141624800Y-121816000D02*
X137567500Y-121816000D01*
X141873500Y-98329500D02*
X139112700Y-98329500D01*
X154042000Y-99484000D02*
X143028000Y-99484000D01*
X150179300Y-122341400D02*
X149976200Y-122544500D01*
X143028000Y-99484000D02*
X141873500Y-98329500D01*
X142353300Y-122544500D02*
X141624800Y-121816000D01*
X149976200Y-122544500D02*
X142353300Y-122544500D01*
X137567500Y-121816000D02*
X136123500Y-120372000D01*
%TO.N,/PRESS_INT*%
X141097000Y-114454000D02*
X141097000Y-115161200D01*
X149043100Y-117069200D02*
X150938900Y-118965000D01*
X141097000Y-115161200D02*
X143005000Y-117069200D01*
X143005000Y-117069200D02*
X149043100Y-117069200D01*
%TO.N,/BTN*%
X152830900Y-124871000D02*
X148379400Y-124871000D01*
X148379400Y-124871000D02*
X146661100Y-123152700D01*
X137042000Y-112184000D02*
X135716700Y-112184000D01*
X141079000Y-122266400D02*
X137190600Y-122266400D01*
X141965300Y-123152700D02*
X141079000Y-122266400D01*
X137190600Y-122266400D02*
X134391800Y-119467600D01*
X134391800Y-119467600D02*
X134391800Y-113508900D01*
X146661100Y-123152700D02*
X141965300Y-123152700D01*
X134391800Y-113508900D02*
X135716700Y-112184000D01*
%TO.N,/Tx*%
X137042000Y-100754000D02*
X138367300Y-100754000D01*
X138367300Y-100754000D02*
X139017600Y-100103700D01*
X139017600Y-100103700D02*
X139663400Y-100103700D01*
%TO.N,/Rx*%
X138367300Y-102024000D02*
X141278500Y-102024000D01*
X141278500Y-102024000D02*
X141431100Y-101871400D01*
X137042000Y-102024000D02*
X138367300Y-102024000D01*
%TO.N,/BAT_SENS*%
X152527000Y-106764700D02*
X152341800Y-106949900D01*
X153212978Y-104564000D02*
X152527000Y-105249978D01*
X152527000Y-105249978D02*
X152527000Y-106764700D01*
X154042000Y-104564000D02*
X153212978Y-104564000D01*
%TO.N,Net-(D4-Pad2)*%
X142871900Y-112903000D02*
X145378100Y-110396800D01*
X139827000Y-113284000D02*
X140208000Y-112903000D01*
X145378100Y-110396800D02*
X150566400Y-110396800D01*
X139827000Y-114454000D02*
X139827000Y-113284000D01*
X150566400Y-110396800D02*
X152137200Y-111967600D01*
X140208000Y-112903000D02*
X142871900Y-112903000D01*
%TO.N,/CS*%
X155546200Y-125457500D02*
X155619700Y-125384000D01*
X133908500Y-120006200D02*
X139359800Y-125457500D01*
X135716700Y-108374000D02*
X133908500Y-110182200D01*
X156695000Y-125384000D02*
X155619700Y-125384000D01*
X133908500Y-110182200D02*
X133908500Y-120006200D01*
X139359800Y-125457500D02*
X155546200Y-125457500D01*
X137042000Y-108374000D02*
X135716700Y-108374000D01*
%TO.N,/MOSI*%
X142777900Y-102401500D02*
X142777900Y-106459400D01*
X139002100Y-99057300D02*
X139433700Y-99057300D01*
X153047700Y-124284000D02*
X156295000Y-124284000D01*
X141419400Y-119594700D02*
X143107600Y-121282900D01*
X134842500Y-119171800D02*
X135265400Y-119594700D01*
X143107600Y-121282900D02*
X150046600Y-121282900D01*
X142767400Y-110396800D02*
X141867300Y-110396800D01*
X137235900Y-115202200D02*
X135515600Y-115202200D01*
X142777900Y-106459400D02*
X143821000Y-107502500D01*
X135515600Y-115202200D02*
X134842500Y-115875300D01*
X143821000Y-109343200D02*
X142767400Y-110396800D01*
X135265400Y-119594700D02*
X141419400Y-119594700D01*
X143821000Y-107502500D02*
X143821000Y-109343200D01*
X137042000Y-98214000D02*
X137126000Y-98298000D01*
X138730100Y-113708000D02*
X137235900Y-115202200D01*
X134842500Y-115875300D02*
X134842500Y-119171800D01*
X137126000Y-98298000D02*
X138242800Y-98298000D01*
X139433700Y-99057300D02*
X142777900Y-102401500D01*
X138730100Y-113534000D02*
X138730100Y-113708000D01*
X138242800Y-98298000D02*
X139002100Y-99057300D01*
X141867300Y-110396800D02*
X138730100Y-113534000D01*
X150046600Y-121282900D02*
X153047700Y-124284000D01*
%TO.N,/MISO*%
X137042000Y-105834000D02*
X136335600Y-105834000D01*
X157778000Y-126591300D02*
X158420800Y-125948500D01*
X157770300Y-118784000D02*
X156695000Y-118784000D01*
X158420800Y-125948500D02*
X158420800Y-119434500D01*
X135636000Y-107170500D02*
X133007800Y-109798700D01*
X133007800Y-109798700D02*
X133007800Y-120379300D01*
X136335600Y-105834000D02*
X135636000Y-106533600D01*
X139219800Y-126591300D02*
X157778000Y-126591300D01*
X133007800Y-120379300D02*
X139219800Y-126591300D01*
X135636000Y-106533600D02*
X135636000Y-107170500D01*
X158420800Y-119434500D02*
X157770300Y-118784000D01*
%TO.N,/SD_DETECT*%
X151531400Y-119200000D02*
X150847400Y-119884000D01*
X153212978Y-108374000D02*
X152717489Y-108869489D01*
X151789600Y-116840000D02*
X151531400Y-117098200D01*
X152717489Y-108869489D02*
X152717489Y-116268511D01*
X154042000Y-108374000D02*
X153212978Y-108374000D01*
X151531400Y-117098200D02*
X151531400Y-119200000D01*
X152146000Y-116840000D02*
X151789600Y-116840000D01*
X150847400Y-119884000D02*
X145610000Y-119884000D01*
X152717489Y-116268511D02*
X152146000Y-116840000D01*
%TO.N,/VIN*%
X143951700Y-119085500D02*
X142569700Y-117703500D01*
%TO.N,Net-(P1-Pad1)*%
X159826171Y-114936089D02*
X160750200Y-115860118D01*
X156267300Y-129444000D02*
X138176000Y-129444000D01*
X155413489Y-110581671D02*
X159767907Y-114936089D01*
X159771700Y-125939600D02*
X156267300Y-129444000D01*
X160750200Y-115860118D02*
X160750200Y-118330900D01*
X154871022Y-109644000D02*
X155413489Y-110186467D01*
X154042000Y-109644000D02*
X154871022Y-109644000D01*
X155413489Y-110186467D02*
X155413489Y-110581671D01*
X159767907Y-114936089D02*
X159826171Y-114936089D01*
X160750200Y-118330900D02*
X159771700Y-119309400D01*
X159771700Y-119309400D02*
X159771700Y-125939600D01*
%TO.N,/CLK*%
X157594700Y-126128400D02*
X157970400Y-125752700D01*
X133458100Y-109985300D02*
X133458100Y-120192700D01*
X133458100Y-120192700D02*
X139393800Y-126128400D01*
X157970400Y-121184100D02*
X157770300Y-120984000D01*
X137042000Y-107104000D02*
X136339400Y-107104000D01*
X136339400Y-107104000D02*
X133458100Y-109985300D01*
X139393800Y-126128400D02*
X157594700Y-126128400D01*
X157770300Y-120984000D02*
X156695000Y-120984000D01*
X157970400Y-125752700D02*
X157970400Y-121184100D01*
%TO.N,/BMX_INT2*%
X149973000Y-113128700D02*
X147825300Y-110981000D01*
X149987000Y-113128700D02*
X149973000Y-113128700D01*
X149987000Y-114454000D02*
X149987000Y-113128700D01*
%TO.N,/BMX_INT1*%
X137042000Y-109644000D02*
X138367300Y-109644000D01*
X138367300Y-109644000D02*
X138918400Y-109092900D01*
X138918400Y-109092900D02*
X143214100Y-109092900D01*
%TD*%
M02*
