%TF.GenerationSoftware,KiCad,Pcbnew,(6.0.1)*%
%TF.CreationDate,2022-03-18T07:57:27+01:00*%
%TF.ProjectId,trick-tracker,74726963-6b2d-4747-9261-636b65722e6b,rev?*%
%TF.SameCoordinates,Original*%
%TF.FileFunction,Copper,L2,Inr*%
%TF.FilePolarity,Positive*%
%FSLAX46Y46*%
G04 Gerber Fmt 4.6, Leading zero omitted, Abs format (unit mm)*
G04 Created by KiCad (PCBNEW (6.0.1)) date 2022-03-18 07:57:27*
%MOMM*%
%LPD*%
G01*
G04 APERTURE LIST*
%TA.AperFunction,ComponentPad*%
%ADD10O,1.050000X2.100000*%
%TD*%
%TA.AperFunction,ComponentPad*%
%ADD11O,1.000000X2.000000*%
%TD*%
%TA.AperFunction,ComponentPad*%
%ADD12C,0.800000*%
%TD*%
%TA.AperFunction,ComponentPad*%
%ADD13C,5.000000*%
%TD*%
%TA.AperFunction,ComponentPad*%
%ADD14C,1.300000*%
%TD*%
%TA.AperFunction,ViaPad*%
%ADD15C,0.500000*%
%TD*%
%TA.AperFunction,ViaPad*%
%ADD16C,0.800000*%
%TD*%
G04 APERTURE END LIST*
D10*
%TO.N,unconnected-(J1-PadS1)*%
%TO.C,J1*%
X146048000Y-131583000D03*
D11*
%TO.N,unconnected-(J1-PadS2)*%
X146048000Y-135763000D03*
%TO.N,unconnected-(J1-PadS3)*%
X154688000Y-135763000D03*
D10*
%TO.N,unconnected-(J1-PadS4)*%
X154688000Y-131583000D03*
%TD*%
D12*
%TO.N,N/C*%
%TO.C,H1*%
X134717000Y-134239000D03*
X131516175Y-135564825D03*
X131516175Y-132913175D03*
X132842000Y-132364000D03*
X132842000Y-136114000D03*
X134167825Y-132913175D03*
D13*
X132842000Y-134239000D03*
D12*
X134167825Y-135564825D03*
X130967000Y-134239000D03*
%TD*%
%TO.N,N/C*%
%TO.C,H2*%
X156916175Y-135564825D03*
X159567825Y-135564825D03*
X158242000Y-136114000D03*
D13*
X158242000Y-134239000D03*
D12*
X159567825Y-132913175D03*
X158242000Y-132364000D03*
X160117000Y-134239000D03*
X156916175Y-132913175D03*
X156367000Y-134239000D03*
%TD*%
D14*
%TO.N,unconnected-(S3-PadMH1)*%
%TO.C,S3*%
X130782000Y-114477000D03*
%TO.N,unconnected-(S3-PadMH2)*%
X130782000Y-120727000D03*
%TD*%
D12*
%TO.N,N/C*%
%TO.C,H3*%
X132842000Y-99792000D03*
X134167825Y-96591175D03*
X130967000Y-97917000D03*
X134717000Y-97917000D03*
D13*
X132842000Y-97917000D03*
D12*
X132842000Y-96042000D03*
X131516175Y-96591175D03*
X134167825Y-99242825D03*
X131516175Y-99242825D03*
%TD*%
%TO.N,N/C*%
%TO.C,H4*%
X160117000Y-97917000D03*
X159567825Y-99242825D03*
X156367000Y-97917000D03*
X159567825Y-96591175D03*
X158242000Y-99792000D03*
D13*
X158242000Y-97917000D03*
D12*
X158242000Y-96042000D03*
X156916175Y-99242825D03*
X156916175Y-96591175D03*
%TD*%
D15*
%TO.N,+3V3*%
X157224200Y-108581000D03*
X155677100Y-122239500D03*
X152577800Y-98075100D03*
X148717000Y-108873300D03*
X151003000Y-123851700D03*
X148550800Y-121968000D03*
X147098400Y-108666100D03*
X133850500Y-107577000D03*
X142406400Y-107240400D03*
X138296600Y-120894500D03*
%TO.N,GND*%
X149159200Y-118815800D03*
X155067000Y-115474300D03*
X154038000Y-127759900D03*
X151091800Y-115904300D03*
X153392300Y-122239300D03*
X135096000Y-105822900D03*
X155690100Y-119894300D03*
X140925100Y-123206600D03*
X138492300Y-97028000D03*
X140475200Y-127310200D03*
X155485800Y-123253000D03*
X146134600Y-115914800D03*
X135822400Y-124209600D03*
X130849000Y-123911200D03*
X160235000Y-128876900D03*
X155988000Y-110343700D03*
X138278100Y-115495100D03*
X149645200Y-106687200D03*
X147511000Y-128086100D03*
X143588900Y-104852300D03*
X142202500Y-106413000D03*
X152582000Y-97107100D03*
X152654000Y-117195600D03*
X160235000Y-126392400D03*
X144272000Y-95954700D03*
X130849000Y-129159000D03*
X160347100Y-121441200D03*
%TO.N,/VBUS*%
X140893300Y-121107700D03*
X151638000Y-132207000D03*
X151003000Y-132207000D03*
X140482200Y-105764000D03*
D16*
X149479000Y-127889000D03*
D15*
X149733000Y-132207000D03*
X159588200Y-115510600D03*
X139000300Y-103687700D03*
X142869245Y-121805622D03*
X149098000Y-132207000D03*
X140258300Y-121107700D03*
X150368000Y-132207000D03*
X141528300Y-121107700D03*
X152781000Y-128080600D03*
%TO.N,/VBAT*%
X140925100Y-123907000D03*
X137919700Y-123163400D03*
%TO.N,/SCL*%
X135301700Y-104971500D03*
%TO.N,/SDA*%
X138815800Y-105188900D03*
%TO.N,/RESET*%
X139112700Y-98329500D03*
X150179300Y-122341400D03*
X136123500Y-120372000D03*
%TO.N,/PRESS_INT*%
X150938900Y-118965000D03*
%TO.N,/BTN*%
X152830900Y-124871000D03*
%TO.N,/Tx*%
X139663400Y-100103700D03*
%TO.N,/Rx*%
X141431100Y-101871400D03*
%TO.N,/BAT_SENS*%
X152341800Y-106949900D03*
%TO.N,Net-(D4-Pad2)*%
X152137200Y-111967600D03*
%TO.N,/VIN*%
X142569700Y-117703500D03*
X143951700Y-119085500D03*
%TO.N,/BMX_INT2*%
X147825300Y-110981000D03*
%TO.N,/BMX_INT1*%
X143214100Y-109092900D03*
%TD*%
%TA.AperFunction,Conductor*%
%TO.N,GND*%
G36*
X156947338Y-95270002D02*
G01*
X156993831Y-95323658D01*
X157003935Y-95393932D01*
X156974441Y-95458512D01*
X156943640Y-95484285D01*
X156690911Y-95634642D01*
X156427950Y-95837515D01*
X156425249Y-95840174D01*
X156425242Y-95840180D01*
X156193974Y-96067845D01*
X156191266Y-96070511D01*
X155984287Y-96330253D01*
X155810012Y-96612980D01*
X155670965Y-96914596D01*
X155569161Y-97230732D01*
X155506073Y-97556808D01*
X155505806Y-97560584D01*
X155505805Y-97560589D01*
X155483777Y-97871700D01*
X155482616Y-97888103D01*
X155485602Y-97948083D01*
X155491327Y-98063069D01*
X155499130Y-98219816D01*
X155499771Y-98223547D01*
X155499772Y-98223555D01*
X155554641Y-98542869D01*
X155555375Y-98547142D01*
X155556463Y-98550781D01*
X155556464Y-98550784D01*
X155628775Y-98792573D01*
X155650537Y-98865341D01*
X155783236Y-99169803D01*
X155785159Y-99173074D01*
X155785161Y-99173078D01*
X155949629Y-99452847D01*
X155949633Y-99452853D01*
X155951552Y-99456117D01*
X155953853Y-99459132D01*
X156149548Y-99715553D01*
X156153046Y-99720137D01*
X156155694Y-99722856D01*
X156155699Y-99722861D01*
X156379381Y-99952477D01*
X156384798Y-99958038D01*
X156387742Y-99960409D01*
X156387745Y-99960412D01*
X156458810Y-100017652D01*
X156643453Y-100166374D01*
X156925264Y-100342127D01*
X157226147Y-100482751D01*
X157229757Y-100483934D01*
X157229756Y-100483934D01*
X157503984Y-100573830D01*
X157541746Y-100586209D01*
X157867488Y-100651003D01*
X157871261Y-100651290D01*
X157871268Y-100651291D01*
X158194878Y-100675908D01*
X158194883Y-100675908D01*
X158198655Y-100676195D01*
X158530450Y-100661418D01*
X158858067Y-100606888D01*
X158861701Y-100605822D01*
X158861705Y-100605821D01*
X159022108Y-100558763D01*
X159176759Y-100513393D01*
X159217583Y-100495854D01*
X159451467Y-100395370D01*
X159481912Y-100382290D01*
X159769103Y-100215475D01*
X160034175Y-100015367D01*
X160273286Y-99784863D01*
X160323764Y-99722861D01*
X160480582Y-99530239D01*
X160480583Y-99530238D01*
X160482973Y-99527302D01*
X160503623Y-99494574D01*
X160658176Y-99249623D01*
X160658179Y-99249617D01*
X160660199Y-99246416D01*
X160662885Y-99240747D01*
X160663329Y-99240248D01*
X160663651Y-99239663D01*
X160663785Y-99239737D01*
X160710121Y-99187747D01*
X160778514Y-99168698D01*
X160846349Y-99189649D01*
X160892088Y-99243949D01*
X160902754Y-99295121D01*
X160801692Y-128540279D01*
X160788013Y-132498670D01*
X160787409Y-132673315D01*
X160767172Y-132741367D01*
X160713356Y-132787674D01*
X160643047Y-132797535D01*
X160578569Y-132767819D01*
X160553464Y-132737869D01*
X160516205Y-132675982D01*
X160513878Y-132672998D01*
X160513873Y-132672991D01*
X160314294Y-132417082D01*
X160314292Y-132417079D01*
X160311958Y-132414087D01*
X160077726Y-132178626D01*
X160056865Y-132162180D01*
X159819885Y-131975360D01*
X159816904Y-131973010D01*
X159533269Y-131800218D01*
X159317312Y-131702028D01*
X159234381Y-131664321D01*
X159234373Y-131664318D01*
X159230929Y-131662752D01*
X158914264Y-131562604D01*
X158716808Y-131525473D01*
X158591585Y-131501925D01*
X158591580Y-131501924D01*
X158587861Y-131501225D01*
X158256449Y-131479503D01*
X158252669Y-131479711D01*
X158252668Y-131479711D01*
X158157655Y-131484940D01*
X157924827Y-131497753D01*
X157921100Y-131498414D01*
X157921096Y-131498414D01*
X157662396Y-131544263D01*
X157597799Y-131555711D01*
X157594174Y-131556816D01*
X157594169Y-131556817D01*
X157347671Y-131631945D01*
X157280103Y-131652538D01*
X156976341Y-131786830D01*
X156764738Y-131912720D01*
X156731047Y-131932764D01*
X156690911Y-131956642D01*
X156687910Y-131958957D01*
X156687906Y-131958960D01*
X156548062Y-132066849D01*
X156427950Y-132159515D01*
X156425249Y-132162174D01*
X156425242Y-132162180D01*
X156210849Y-132373233D01*
X156191266Y-132392511D01*
X156188902Y-132395478D01*
X156188899Y-132395481D01*
X156004773Y-132626545D01*
X155984287Y-132652253D01*
X155810012Y-132934980D01*
X155670965Y-133236596D01*
X155569161Y-133552732D01*
X155506073Y-133878808D01*
X155505806Y-133882584D01*
X155505805Y-133882589D01*
X155482884Y-134206314D01*
X155482616Y-134210103D01*
X155499130Y-134541816D01*
X155499771Y-134545547D01*
X155499772Y-134545555D01*
X155550585Y-134841264D01*
X155555375Y-134869142D01*
X155556463Y-134872781D01*
X155556464Y-134872784D01*
X155643983Y-135165425D01*
X155650537Y-135187341D01*
X155783236Y-135491803D01*
X155785159Y-135495074D01*
X155785161Y-135495078D01*
X155949629Y-135774847D01*
X155949634Y-135774855D01*
X155951552Y-135778117D01*
X156153046Y-136042137D01*
X156155694Y-136044856D01*
X156155699Y-136044861D01*
X156382152Y-136277322D01*
X156384798Y-136280038D01*
X156387742Y-136282409D01*
X156387745Y-136282412D01*
X156458810Y-136339652D01*
X156643453Y-136488374D01*
X156735996Y-136546089D01*
X156783211Y-136599108D01*
X156794267Y-136669238D01*
X156765653Y-136734213D01*
X156706453Y-136773403D01*
X156669318Y-136779000D01*
X155304477Y-136779000D01*
X155236356Y-136758998D01*
X155189863Y-136705342D01*
X155179759Y-136635068D01*
X155204513Y-136576298D01*
X155207507Y-136572396D01*
X155207509Y-136572392D01*
X155212536Y-136565841D01*
X155273044Y-136419762D01*
X155288500Y-136302361D01*
X155288500Y-135223639D01*
X155273044Y-135106238D01*
X155212536Y-134960159D01*
X155116282Y-134834718D01*
X154990841Y-134738464D01*
X154844762Y-134677956D01*
X154688000Y-134657318D01*
X154531238Y-134677956D01*
X154385159Y-134738464D01*
X154259718Y-134834718D01*
X154163464Y-134960159D01*
X154102956Y-135106238D01*
X154087500Y-135223639D01*
X154087500Y-136302361D01*
X154102956Y-136419762D01*
X154163464Y-136565841D01*
X154168491Y-136572392D01*
X154168493Y-136572396D01*
X154171487Y-136576298D01*
X154197086Y-136642519D01*
X154182820Y-136712068D01*
X154133217Y-136762863D01*
X154071523Y-136779000D01*
X146664477Y-136779000D01*
X146596356Y-136758998D01*
X146549863Y-136705342D01*
X146539759Y-136635068D01*
X146564513Y-136576298D01*
X146567507Y-136572396D01*
X146567509Y-136572392D01*
X146572536Y-136565841D01*
X146633044Y-136419762D01*
X146648500Y-136302361D01*
X146648500Y-135223639D01*
X146633044Y-135106238D01*
X146572536Y-134960159D01*
X146476282Y-134834718D01*
X146350841Y-134738464D01*
X146204762Y-134677956D01*
X146048000Y-134657318D01*
X145891238Y-134677956D01*
X145745159Y-134738464D01*
X145619718Y-134834718D01*
X145523464Y-134960159D01*
X145462956Y-135106238D01*
X145447500Y-135223639D01*
X145447500Y-136302361D01*
X145462956Y-136419762D01*
X145523464Y-136565841D01*
X145528491Y-136572392D01*
X145528493Y-136572396D01*
X145531487Y-136576298D01*
X145557086Y-136642519D01*
X145542820Y-136712068D01*
X145493217Y-136762863D01*
X145431523Y-136779000D01*
X144906000Y-136779000D01*
X144837879Y-136758998D01*
X144791386Y-136705342D01*
X144780000Y-136653000D01*
X144780000Y-135165425D01*
X144782421Y-135140844D01*
X144782555Y-135140170D01*
X144784976Y-135128000D01*
X144775013Y-135077909D01*
X144765263Y-135028894D01*
X144758371Y-135018579D01*
X144758370Y-135018577D01*
X144716017Y-134955192D01*
X144709124Y-134944876D01*
X144625106Y-134888737D01*
X144526000Y-134869024D01*
X144513153Y-134871579D01*
X144488575Y-134874000D01*
X136435425Y-134874000D01*
X136410847Y-134871579D01*
X136398000Y-134869024D01*
X136298894Y-134888737D01*
X136214876Y-134944876D01*
X136158737Y-135028894D01*
X136148988Y-135077909D01*
X136139024Y-135128000D01*
X136141445Y-135140170D01*
X136141579Y-135140844D01*
X136144000Y-135165425D01*
X136144000Y-136653000D01*
X136123998Y-136721121D01*
X136070342Y-136767614D01*
X136018000Y-136779000D01*
X134421076Y-136779000D01*
X134352955Y-136758998D01*
X134306462Y-136705342D01*
X134296358Y-136635068D01*
X134325852Y-136570488D01*
X134357791Y-136544046D01*
X134365815Y-136539386D01*
X134365829Y-136539377D01*
X134369103Y-136537475D01*
X134634175Y-136337367D01*
X134873286Y-136106863D01*
X134923764Y-136044861D01*
X135080582Y-135852239D01*
X135080583Y-135852238D01*
X135082973Y-135849302D01*
X135084995Y-135846098D01*
X135258176Y-135571623D01*
X135258179Y-135571617D01*
X135260199Y-135568416D01*
X135402397Y-135268273D01*
X135507506Y-134953220D01*
X135574005Y-134627822D01*
X135600930Y-134296791D01*
X135601312Y-134260321D01*
X135601512Y-134241221D01*
X135601512Y-134241214D01*
X135601535Y-134239000D01*
X135581549Y-133907478D01*
X135580869Y-133903754D01*
X135522559Y-133584481D01*
X135522558Y-133584477D01*
X135521879Y-133580759D01*
X135513177Y-133552732D01*
X135424513Y-133267189D01*
X135423391Y-133263574D01*
X135412913Y-133240203D01*
X135289065Y-132963987D01*
X135287510Y-132960518D01*
X135116205Y-132675982D01*
X135113878Y-132672998D01*
X135113873Y-132672991D01*
X134914294Y-132417082D01*
X134914292Y-132417079D01*
X134911958Y-132414087D01*
X134677726Y-132178626D01*
X134656865Y-132162180D01*
X134638053Y-132147350D01*
X145422500Y-132147350D01*
X145422996Y-132151275D01*
X145422996Y-132151278D01*
X145434313Y-132240865D01*
X145437336Y-132264792D01*
X145440253Y-132272159D01*
X145489080Y-132395481D01*
X145495514Y-132411732D01*
X145588406Y-132539587D01*
X145594514Y-132544640D01*
X145704068Y-132635271D01*
X145704072Y-132635274D01*
X145710177Y-132640324D01*
X145853174Y-132707614D01*
X145860957Y-132709099D01*
X145860958Y-132709099D01*
X146000626Y-132735742D01*
X146000628Y-132735742D01*
X146008412Y-132737227D01*
X146166138Y-132727304D01*
X146218483Y-132710296D01*
X146308905Y-132680916D01*
X146308908Y-132680915D01*
X146316441Y-132678467D01*
X146449877Y-132593786D01*
X146558062Y-132478582D01*
X146634197Y-132340092D01*
X146668691Y-132205748D01*
X146705005Y-132144742D01*
X146768538Y-132113053D01*
X146839117Y-132120743D01*
X146894334Y-132165370D01*
X146915654Y-132220634D01*
X146916130Y-132224247D01*
X146917313Y-132233236D01*
X146975302Y-132373233D01*
X147067549Y-132493451D01*
X147187767Y-132585698D01*
X147327764Y-132643687D01*
X147335952Y-132644765D01*
X147417364Y-132655483D01*
X147440280Y-132658500D01*
X147515720Y-132658500D01*
X147538637Y-132655483D01*
X147620048Y-132644765D01*
X147628236Y-132643687D01*
X147768233Y-132585698D01*
X147888451Y-132493451D01*
X147980698Y-132373233D01*
X148038687Y-132233236D01*
X148042961Y-132200773D01*
X148588350Y-132200773D01*
X148589514Y-132209675D01*
X148589514Y-132209678D01*
X148597685Y-132272159D01*
X148607088Y-132344065D01*
X148665289Y-132476339D01*
X148758276Y-132586960D01*
X148765747Y-132591933D01*
X148765748Y-132591934D01*
X148871101Y-132662063D01*
X148871103Y-132662064D01*
X148878574Y-132667037D01*
X148887138Y-132669713D01*
X148887141Y-132669714D01*
X148922997Y-132680916D01*
X149016510Y-132710132D01*
X149160998Y-132712780D01*
X149195261Y-132703439D01*
X149291763Y-132677130D01*
X149291765Y-132677129D01*
X149300422Y-132674769D01*
X149308069Y-132670074D01*
X149308073Y-132670072D01*
X149348674Y-132645143D01*
X149417191Y-132626545D01*
X149484421Y-132647631D01*
X149506101Y-132662063D01*
X149506104Y-132662064D01*
X149513574Y-132667037D01*
X149522138Y-132669713D01*
X149522141Y-132669714D01*
X149557997Y-132680916D01*
X149651510Y-132710132D01*
X149795998Y-132712780D01*
X149830261Y-132703439D01*
X149926763Y-132677130D01*
X149926765Y-132677129D01*
X149935422Y-132674769D01*
X149943069Y-132670074D01*
X149943073Y-132670072D01*
X149983674Y-132645143D01*
X150052191Y-132626545D01*
X150119421Y-132647631D01*
X150141101Y-132662063D01*
X150141104Y-132662064D01*
X150148574Y-132667037D01*
X150157138Y-132669713D01*
X150157141Y-132669714D01*
X150192997Y-132680916D01*
X150286510Y-132710132D01*
X150430998Y-132712780D01*
X150465261Y-132703439D01*
X150561763Y-132677130D01*
X150561765Y-132677129D01*
X150570422Y-132674769D01*
X150578069Y-132670074D01*
X150578073Y-132670072D01*
X150618674Y-132645143D01*
X150687191Y-132626545D01*
X150754421Y-132647631D01*
X150776101Y-132662063D01*
X150776104Y-132662064D01*
X150783574Y-132667037D01*
X150792138Y-132669713D01*
X150792141Y-132669714D01*
X150827997Y-132680916D01*
X150921510Y-132710132D01*
X151065998Y-132712780D01*
X151100261Y-132703439D01*
X151196763Y-132677130D01*
X151196765Y-132677129D01*
X151205422Y-132674769D01*
X151213069Y-132670074D01*
X151213073Y-132670072D01*
X151253674Y-132645143D01*
X151322191Y-132626545D01*
X151389421Y-132647631D01*
X151411101Y-132662063D01*
X151411104Y-132662064D01*
X151418574Y-132667037D01*
X151427138Y-132669713D01*
X151427141Y-132669714D01*
X151462997Y-132680916D01*
X151556510Y-132710132D01*
X151700998Y-132712780D01*
X151735261Y-132703439D01*
X151831763Y-132677130D01*
X151831765Y-132677129D01*
X151840422Y-132674769D01*
X151963572Y-132599154D01*
X152060551Y-132492014D01*
X152110051Y-132389845D01*
X152119645Y-132370043D01*
X152119645Y-132370042D01*
X152123560Y-132361962D01*
X152147536Y-132219453D01*
X152147688Y-132207000D01*
X152129930Y-132083000D01*
X152677534Y-132083000D01*
X152697313Y-132233236D01*
X152755302Y-132373233D01*
X152847549Y-132493451D01*
X152967767Y-132585698D01*
X153107764Y-132643687D01*
X153115952Y-132644765D01*
X153197364Y-132655483D01*
X153220280Y-132658500D01*
X153295720Y-132658500D01*
X153318637Y-132655483D01*
X153400048Y-132644765D01*
X153408236Y-132643687D01*
X153548233Y-132585698D01*
X153668451Y-132493451D01*
X153760698Y-132373233D01*
X153818687Y-132233236D01*
X153821145Y-132214566D01*
X153849868Y-132149639D01*
X153909134Y-132110548D01*
X153980125Y-132109703D01*
X154040304Y-132147374D01*
X154071074Y-132215222D01*
X154077336Y-132264792D01*
X154080253Y-132272159D01*
X154129080Y-132395481D01*
X154135514Y-132411732D01*
X154228406Y-132539587D01*
X154234514Y-132544640D01*
X154344068Y-132635271D01*
X154344072Y-132635274D01*
X154350177Y-132640324D01*
X154493174Y-132707614D01*
X154500957Y-132709099D01*
X154500958Y-132709099D01*
X154640626Y-132735742D01*
X154640628Y-132735742D01*
X154648412Y-132737227D01*
X154806138Y-132727304D01*
X154858483Y-132710296D01*
X154948905Y-132680916D01*
X154948908Y-132680915D01*
X154956441Y-132678467D01*
X155089877Y-132593786D01*
X155198062Y-132478582D01*
X155274197Y-132340092D01*
X155313500Y-132187019D01*
X155313500Y-131018650D01*
X155298664Y-130901208D01*
X155271892Y-130833589D01*
X155243404Y-130761637D01*
X155243403Y-130761634D01*
X155240486Y-130754268D01*
X155147594Y-130626413D01*
X155141486Y-130621360D01*
X155031932Y-130530729D01*
X155031928Y-130530726D01*
X155025823Y-130525676D01*
X154882826Y-130458386D01*
X154875043Y-130456901D01*
X154875042Y-130456901D01*
X154735374Y-130430258D01*
X154735372Y-130430258D01*
X154727588Y-130428773D01*
X154569862Y-130438696D01*
X154562318Y-130441147D01*
X154562319Y-130441147D01*
X154427095Y-130485084D01*
X154427092Y-130485085D01*
X154419559Y-130487533D01*
X154286123Y-130572214D01*
X154177938Y-130687418D01*
X154101803Y-130825908D01*
X154062500Y-130978981D01*
X154062500Y-131889786D01*
X154042498Y-131957907D01*
X153988842Y-132004400D01*
X153918568Y-132014504D01*
X153853988Y-131985010D01*
X153820749Y-131931910D01*
X153818687Y-131932764D01*
X153800885Y-131889786D01*
X153760698Y-131792767D01*
X153668451Y-131672549D01*
X153548233Y-131580302D01*
X153408236Y-131522313D01*
X153295720Y-131507500D01*
X153220280Y-131507500D01*
X153107764Y-131522313D01*
X152967767Y-131580302D01*
X152847549Y-131672549D01*
X152755302Y-131792767D01*
X152697313Y-131932764D01*
X152696235Y-131940952D01*
X152692014Y-131973010D01*
X152677534Y-132083000D01*
X152129930Y-132083000D01*
X152127201Y-132063948D01*
X152067388Y-131932395D01*
X152061530Y-131925596D01*
X152061527Y-131925592D01*
X151978916Y-131829718D01*
X151978913Y-131829716D01*
X151973056Y-131822918D01*
X151912423Y-131783618D01*
X151859324Y-131749200D01*
X151859322Y-131749199D01*
X151851790Y-131744317D01*
X151834918Y-131739271D01*
X151721938Y-131705482D01*
X151721936Y-131705482D01*
X151713337Y-131702910D01*
X151704363Y-131702855D01*
X151704361Y-131702855D01*
X151641082Y-131702469D01*
X151568827Y-131702028D01*
X151560196Y-131704495D01*
X151560194Y-131704495D01*
X151438513Y-131739271D01*
X151438510Y-131739272D01*
X151429879Y-131741739D01*
X151388032Y-131768143D01*
X151319749Y-131787576D01*
X151252269Y-131767314D01*
X151216790Y-131744317D01*
X151199918Y-131739271D01*
X151086938Y-131705482D01*
X151086936Y-131705482D01*
X151078337Y-131702910D01*
X151069363Y-131702855D01*
X151069361Y-131702855D01*
X151006082Y-131702469D01*
X150933827Y-131702028D01*
X150925196Y-131704495D01*
X150925194Y-131704495D01*
X150803513Y-131739271D01*
X150803510Y-131739272D01*
X150794879Y-131741739D01*
X150753032Y-131768143D01*
X150684749Y-131787576D01*
X150617269Y-131767314D01*
X150581790Y-131744317D01*
X150564918Y-131739271D01*
X150451938Y-131705482D01*
X150451936Y-131705482D01*
X150443337Y-131702910D01*
X150434363Y-131702855D01*
X150434361Y-131702855D01*
X150371082Y-131702469D01*
X150298827Y-131702028D01*
X150290196Y-131704495D01*
X150290194Y-131704495D01*
X150168513Y-131739271D01*
X150168510Y-131739272D01*
X150159879Y-131741739D01*
X150118032Y-131768143D01*
X150049749Y-131787576D01*
X149982269Y-131767314D01*
X149946790Y-131744317D01*
X149929918Y-131739271D01*
X149816938Y-131705482D01*
X149816936Y-131705482D01*
X149808337Y-131702910D01*
X149799363Y-131702855D01*
X149799361Y-131702855D01*
X149736082Y-131702469D01*
X149663827Y-131702028D01*
X149655196Y-131704495D01*
X149655194Y-131704495D01*
X149533513Y-131739271D01*
X149533510Y-131739272D01*
X149524879Y-131741739D01*
X149483032Y-131768143D01*
X149414749Y-131787576D01*
X149347269Y-131767314D01*
X149311790Y-131744317D01*
X149294918Y-131739271D01*
X149181938Y-131705482D01*
X149181936Y-131705482D01*
X149173337Y-131702910D01*
X149164363Y-131702855D01*
X149164361Y-131702855D01*
X149101082Y-131702469D01*
X149028827Y-131702028D01*
X149020196Y-131704495D01*
X149020194Y-131704495D01*
X148898509Y-131739272D01*
X148898505Y-131739274D01*
X148889879Y-131741739D01*
X148882292Y-131746526D01*
X148882290Y-131746527D01*
X148796912Y-131800397D01*
X148767661Y-131818853D01*
X148671999Y-131927170D01*
X148668185Y-131935293D01*
X148668184Y-131935295D01*
X148656392Y-131960411D01*
X148610583Y-132057982D01*
X148609203Y-132066846D01*
X148609202Y-132066849D01*
X148590492Y-132187019D01*
X148588350Y-132200773D01*
X148042961Y-132200773D01*
X148058466Y-132083000D01*
X148043986Y-131973010D01*
X148039765Y-131940952D01*
X148038687Y-131932764D01*
X147980698Y-131792767D01*
X147888451Y-131672549D01*
X147768233Y-131580302D01*
X147628236Y-131522313D01*
X147515720Y-131507500D01*
X147440280Y-131507500D01*
X147327764Y-131522313D01*
X147187767Y-131580302D01*
X147067549Y-131672549D01*
X146975302Y-131792767D01*
X146917313Y-131932764D01*
X146915376Y-131931962D01*
X146884256Y-131983019D01*
X146820396Y-132014041D01*
X146749901Y-132005613D01*
X146695154Y-131960411D01*
X146673500Y-131889786D01*
X146673500Y-131018650D01*
X146658664Y-130901208D01*
X146631892Y-130833589D01*
X146603404Y-130761637D01*
X146603403Y-130761634D01*
X146600486Y-130754268D01*
X146507594Y-130626413D01*
X146501486Y-130621360D01*
X146391932Y-130530729D01*
X146391928Y-130530726D01*
X146385823Y-130525676D01*
X146242826Y-130458386D01*
X146235043Y-130456901D01*
X146235042Y-130456901D01*
X146095374Y-130430258D01*
X146095372Y-130430258D01*
X146087588Y-130428773D01*
X145929862Y-130438696D01*
X145922318Y-130441147D01*
X145922319Y-130441147D01*
X145787095Y-130485084D01*
X145787092Y-130485085D01*
X145779559Y-130487533D01*
X145646123Y-130572214D01*
X145537938Y-130687418D01*
X145461803Y-130825908D01*
X145422500Y-130978981D01*
X145422500Y-132147350D01*
X134638053Y-132147350D01*
X134419885Y-131975360D01*
X134416904Y-131973010D01*
X134133269Y-131800218D01*
X133917312Y-131702028D01*
X133834381Y-131664321D01*
X133834373Y-131664318D01*
X133830929Y-131662752D01*
X133514264Y-131562604D01*
X133316808Y-131525473D01*
X133191585Y-131501925D01*
X133191580Y-131501924D01*
X133187861Y-131501225D01*
X132856449Y-131479503D01*
X132852669Y-131479711D01*
X132852668Y-131479711D01*
X132757655Y-131484940D01*
X132524827Y-131497753D01*
X132521100Y-131498414D01*
X132521096Y-131498414D01*
X132262396Y-131544263D01*
X132197799Y-131555711D01*
X132194174Y-131556816D01*
X132194169Y-131556817D01*
X131947671Y-131631945D01*
X131880103Y-131652538D01*
X131576341Y-131786830D01*
X131364738Y-131912720D01*
X131331047Y-131932764D01*
X131290911Y-131956642D01*
X131287910Y-131958957D01*
X131287906Y-131958960D01*
X131148062Y-132066849D01*
X131027950Y-132159515D01*
X131025249Y-132162174D01*
X131025242Y-132162180D01*
X130810849Y-132373233D01*
X130791266Y-132392511D01*
X130788902Y-132395478D01*
X130788899Y-132395481D01*
X130604773Y-132626545D01*
X130584287Y-132652253D01*
X130547080Y-132712615D01*
X130535260Y-132731790D01*
X130482488Y-132779283D01*
X130412417Y-132790707D01*
X130347293Y-132762433D01*
X130307793Y-132703439D01*
X130302000Y-132665674D01*
X130302000Y-127882096D01*
X148819729Y-127882096D01*
X148837113Y-128039553D01*
X148839723Y-128046684D01*
X148839723Y-128046686D01*
X148854913Y-128088193D01*
X148891553Y-128188319D01*
X148979908Y-128319805D01*
X148985527Y-128324918D01*
X148985528Y-128324919D01*
X149091460Y-128421309D01*
X149097076Y-128426419D01*
X149236293Y-128502008D01*
X149389522Y-128542207D01*
X149473477Y-128543526D01*
X149540319Y-128544576D01*
X149540322Y-128544576D01*
X149547916Y-128544695D01*
X149702332Y-128509329D01*
X149788284Y-128466100D01*
X149837072Y-128441563D01*
X149837075Y-128441561D01*
X149843855Y-128438151D01*
X149849626Y-128433222D01*
X149849629Y-128433220D01*
X149958536Y-128340204D01*
X149958536Y-128340203D01*
X149964314Y-128335269D01*
X150056755Y-128206624D01*
X150109920Y-128074373D01*
X152271350Y-128074373D01*
X152272514Y-128083275D01*
X152272514Y-128083278D01*
X152286250Y-128188319D01*
X152290088Y-128217665D01*
X152348289Y-128349939D01*
X152441276Y-128460560D01*
X152448747Y-128465533D01*
X152448748Y-128465534D01*
X152554101Y-128535663D01*
X152554103Y-128535664D01*
X152561574Y-128540637D01*
X152570138Y-128543313D01*
X152570141Y-128543314D01*
X152630542Y-128562185D01*
X152699510Y-128583732D01*
X152843998Y-128586380D01*
X152863530Y-128581055D01*
X152974763Y-128550730D01*
X152974765Y-128550729D01*
X152983422Y-128548369D01*
X153106572Y-128472754D01*
X153203551Y-128365614D01*
X153266560Y-128235562D01*
X153290536Y-128093053D01*
X153290688Y-128080600D01*
X153270201Y-127937548D01*
X153210388Y-127805995D01*
X153204530Y-127799196D01*
X153204527Y-127799192D01*
X153121916Y-127703318D01*
X153121913Y-127703316D01*
X153116056Y-127696518D01*
X152994790Y-127617917D01*
X152903614Y-127590649D01*
X152864938Y-127579082D01*
X152864936Y-127579082D01*
X152856337Y-127576510D01*
X152847363Y-127576455D01*
X152847361Y-127576455D01*
X152784082Y-127576069D01*
X152711827Y-127575628D01*
X152703196Y-127578095D01*
X152703194Y-127578095D01*
X152581509Y-127612872D01*
X152581505Y-127612874D01*
X152572879Y-127615339D01*
X152450661Y-127692453D01*
X152444718Y-127699182D01*
X152444717Y-127699183D01*
X152422242Y-127724631D01*
X152354999Y-127800770D01*
X152293583Y-127931582D01*
X152292203Y-127940446D01*
X152292202Y-127940449D01*
X152273644Y-128059641D01*
X152271350Y-128074373D01*
X150109920Y-128074373D01*
X150115842Y-128059641D01*
X150138162Y-127902807D01*
X150138307Y-127889000D01*
X150119276Y-127731733D01*
X150063280Y-127583546D01*
X149973553Y-127452992D01*
X149855275Y-127347611D01*
X149847889Y-127343700D01*
X149721988Y-127277039D01*
X149721989Y-127277039D01*
X149715274Y-127273484D01*
X149561633Y-127234892D01*
X149554034Y-127234852D01*
X149554033Y-127234852D01*
X149488181Y-127234507D01*
X149403221Y-127234062D01*
X149395841Y-127235834D01*
X149395839Y-127235834D01*
X149256563Y-127269271D01*
X149256560Y-127269272D01*
X149249184Y-127271043D01*
X149108414Y-127343700D01*
X148989039Y-127447838D01*
X148897950Y-127577444D01*
X148840406Y-127725037D01*
X148839414Y-127732570D01*
X148839414Y-127732571D01*
X148828672Y-127814169D01*
X148819729Y-127882096D01*
X130302000Y-127882096D01*
X130302000Y-124864773D01*
X152321250Y-124864773D01*
X152322414Y-124873675D01*
X152322414Y-124873678D01*
X152338824Y-124999164D01*
X152339988Y-125008065D01*
X152398189Y-125140339D01*
X152491176Y-125250960D01*
X152498647Y-125255933D01*
X152498648Y-125255934D01*
X152604001Y-125326063D01*
X152604003Y-125326064D01*
X152611474Y-125331037D01*
X152620038Y-125333713D01*
X152620041Y-125333714D01*
X152680442Y-125352585D01*
X152749410Y-125374132D01*
X152893898Y-125376780D01*
X152913430Y-125371455D01*
X153024663Y-125341130D01*
X153024665Y-125341129D01*
X153033322Y-125338769D01*
X153156472Y-125263154D01*
X153253451Y-125156014D01*
X153316460Y-125025962D01*
X153340436Y-124883453D01*
X153340588Y-124871000D01*
X153320101Y-124727948D01*
X153260288Y-124596395D01*
X153254430Y-124589596D01*
X153254427Y-124589592D01*
X153171816Y-124493718D01*
X153171813Y-124493716D01*
X153165956Y-124486918D01*
X153044690Y-124408317D01*
X152940410Y-124377130D01*
X152914838Y-124369482D01*
X152914836Y-124369482D01*
X152906237Y-124366910D01*
X152897263Y-124366855D01*
X152897261Y-124366855D01*
X152833982Y-124366469D01*
X152761727Y-124366028D01*
X152753096Y-124368495D01*
X152753094Y-124368495D01*
X152631409Y-124403272D01*
X152631405Y-124403274D01*
X152622779Y-124405739D01*
X152615192Y-124410526D01*
X152615190Y-124410527D01*
X152610954Y-124413200D01*
X152500561Y-124482853D01*
X152404899Y-124591170D01*
X152343483Y-124721982D01*
X152321250Y-124864773D01*
X130302000Y-124864773D01*
X130302000Y-123900773D01*
X140415450Y-123900773D01*
X140416614Y-123909675D01*
X140416614Y-123909678D01*
X140428031Y-123996980D01*
X140434188Y-124044065D01*
X140492389Y-124176339D01*
X140585376Y-124286960D01*
X140592847Y-124291933D01*
X140592848Y-124291934D01*
X140698201Y-124362063D01*
X140698203Y-124362064D01*
X140705674Y-124367037D01*
X140714238Y-124369713D01*
X140714241Y-124369714D01*
X140774642Y-124388585D01*
X140843610Y-124410132D01*
X140988098Y-124412780D01*
X140997811Y-124410132D01*
X141118863Y-124377130D01*
X141118865Y-124377129D01*
X141127522Y-124374769D01*
X141250672Y-124299154D01*
X141347651Y-124192014D01*
X141410660Y-124061962D01*
X141434636Y-123919453D01*
X141434788Y-123907000D01*
X141425976Y-123845473D01*
X150493350Y-123845473D01*
X150494514Y-123854375D01*
X150494514Y-123854378D01*
X150503024Y-123919453D01*
X150512088Y-123988765D01*
X150570289Y-124121039D01*
X150663276Y-124231660D01*
X150670747Y-124236633D01*
X150670748Y-124236634D01*
X150776101Y-124306763D01*
X150776103Y-124306764D01*
X150783574Y-124311737D01*
X150792138Y-124314413D01*
X150792141Y-124314414D01*
X150852542Y-124333284D01*
X150921510Y-124354832D01*
X151065998Y-124357480D01*
X151085530Y-124352155D01*
X151196763Y-124321830D01*
X151196765Y-124321829D01*
X151205422Y-124319469D01*
X151328572Y-124243854D01*
X151425551Y-124136714D01*
X151466056Y-124053110D01*
X151484645Y-124014743D01*
X151484645Y-124014742D01*
X151488560Y-124006662D01*
X151512536Y-123864153D01*
X151512688Y-123851700D01*
X151492201Y-123708648D01*
X151432388Y-123577095D01*
X151426530Y-123570296D01*
X151426527Y-123570292D01*
X151343916Y-123474418D01*
X151343913Y-123474416D01*
X151338056Y-123467618D01*
X151271572Y-123424525D01*
X151224324Y-123393900D01*
X151224322Y-123393899D01*
X151216790Y-123389017D01*
X151199921Y-123383972D01*
X151086938Y-123350182D01*
X151086936Y-123350182D01*
X151078337Y-123347610D01*
X151069363Y-123347555D01*
X151069361Y-123347555D01*
X151006082Y-123347169D01*
X150933827Y-123346728D01*
X150925196Y-123349195D01*
X150925194Y-123349195D01*
X150803509Y-123383972D01*
X150803505Y-123383974D01*
X150794879Y-123386439D01*
X150787292Y-123391226D01*
X150787290Y-123391227D01*
X150680254Y-123458762D01*
X150672661Y-123463553D01*
X150576999Y-123571870D01*
X150573185Y-123579993D01*
X150573184Y-123579995D01*
X150551363Y-123626473D01*
X150515583Y-123702682D01*
X150514203Y-123711546D01*
X150514202Y-123711549D01*
X150506044Y-123763948D01*
X150493350Y-123845473D01*
X141425976Y-123845473D01*
X141414301Y-123763948D01*
X141354488Y-123632395D01*
X141348630Y-123625596D01*
X141348627Y-123625592D01*
X141266016Y-123529718D01*
X141266013Y-123529716D01*
X141260156Y-123522918D01*
X141185330Y-123474418D01*
X141146424Y-123449200D01*
X141146422Y-123449199D01*
X141138890Y-123444317D01*
X141125569Y-123440333D01*
X141009038Y-123405482D01*
X141009036Y-123405482D01*
X141000437Y-123402910D01*
X140991463Y-123402855D01*
X140991461Y-123402855D01*
X140928182Y-123402469D01*
X140855927Y-123402028D01*
X140847296Y-123404495D01*
X140847294Y-123404495D01*
X140725609Y-123439272D01*
X140725605Y-123439274D01*
X140716979Y-123441739D01*
X140709392Y-123446526D01*
X140709390Y-123446527D01*
X140665186Y-123474418D01*
X140594761Y-123518853D01*
X140588818Y-123525582D01*
X140588817Y-123525583D01*
X140540762Y-123579995D01*
X140499099Y-123627170D01*
X140495285Y-123635293D01*
X140495284Y-123635295D01*
X140480484Y-123666818D01*
X140437683Y-123757982D01*
X140436303Y-123766846D01*
X140436302Y-123766849D01*
X140421152Y-123864153D01*
X140415450Y-123900773D01*
X130302000Y-123900773D01*
X130302000Y-123157173D01*
X137410050Y-123157173D01*
X137411214Y-123166075D01*
X137411214Y-123166078D01*
X137427624Y-123291564D01*
X137428788Y-123300465D01*
X137486989Y-123432739D01*
X137579976Y-123543360D01*
X137587447Y-123548333D01*
X137587448Y-123548334D01*
X137692801Y-123618463D01*
X137692803Y-123618464D01*
X137700274Y-123623437D01*
X137708838Y-123626113D01*
X137708841Y-123626114D01*
X137738228Y-123635295D01*
X137838210Y-123666532D01*
X137982698Y-123669180D01*
X138002230Y-123663855D01*
X138113463Y-123633530D01*
X138113465Y-123633529D01*
X138122122Y-123631169D01*
X138245272Y-123555554D01*
X138342251Y-123448414D01*
X138405260Y-123318362D01*
X138429236Y-123175853D01*
X138429388Y-123163400D01*
X138408901Y-123020348D01*
X138349088Y-122888795D01*
X138343230Y-122881996D01*
X138343227Y-122881992D01*
X138260616Y-122786118D01*
X138260613Y-122786116D01*
X138254756Y-122779318D01*
X138147241Y-122709630D01*
X138141024Y-122705600D01*
X138141022Y-122705599D01*
X138133490Y-122700717D01*
X138112913Y-122694563D01*
X138003638Y-122661882D01*
X138003636Y-122661882D01*
X137995037Y-122659310D01*
X137986063Y-122659255D01*
X137986061Y-122659255D01*
X137922782Y-122658869D01*
X137850527Y-122658428D01*
X137841896Y-122660895D01*
X137841894Y-122660895D01*
X137720209Y-122695672D01*
X137720205Y-122695674D01*
X137711579Y-122698139D01*
X137703992Y-122702926D01*
X137703990Y-122702927D01*
X137636865Y-122745280D01*
X137589361Y-122775253D01*
X137583418Y-122781982D01*
X137583417Y-122781983D01*
X137557322Y-122811530D01*
X137493699Y-122883570D01*
X137432283Y-123014382D01*
X137410050Y-123157173D01*
X130302000Y-123157173D01*
X130302000Y-121799395D01*
X142359595Y-121799395D01*
X142360759Y-121808297D01*
X142360759Y-121808300D01*
X142369631Y-121876145D01*
X142378333Y-121942687D01*
X142436534Y-122074961D01*
X142529521Y-122185582D01*
X142536992Y-122190555D01*
X142536993Y-122190556D01*
X142642346Y-122260685D01*
X142642348Y-122260686D01*
X142649819Y-122265659D01*
X142658383Y-122268335D01*
X142658386Y-122268336D01*
X142718787Y-122287207D01*
X142787755Y-122308754D01*
X142932243Y-122311402D01*
X142951775Y-122306077D01*
X143063008Y-122275752D01*
X143063010Y-122275751D01*
X143071667Y-122273391D01*
X143194817Y-122197776D01*
X143291796Y-122090636D01*
X143348756Y-121973069D01*
X143350890Y-121968665D01*
X143350890Y-121968664D01*
X143354229Y-121961773D01*
X148041150Y-121961773D01*
X148042314Y-121970675D01*
X148042314Y-121970678D01*
X148055263Y-122069695D01*
X148059888Y-122105065D01*
X148118089Y-122237339D01*
X148123863Y-122244208D01*
X148175870Y-122306077D01*
X148211076Y-122347960D01*
X148218547Y-122352933D01*
X148218548Y-122352934D01*
X148323901Y-122423063D01*
X148323903Y-122423064D01*
X148331374Y-122428037D01*
X148339938Y-122430713D01*
X148339941Y-122430714D01*
X148400342Y-122449585D01*
X148469310Y-122471132D01*
X148613798Y-122473780D01*
X148623511Y-122471132D01*
X148744563Y-122438130D01*
X148744565Y-122438129D01*
X148753222Y-122435769D01*
X148876372Y-122360154D01*
X148898984Y-122335173D01*
X149669650Y-122335173D01*
X149670814Y-122344075D01*
X149670814Y-122344078D01*
X149682805Y-122435769D01*
X149688388Y-122478465D01*
X149746589Y-122610739D01*
X149839576Y-122721360D01*
X149847047Y-122726333D01*
X149847048Y-122726334D01*
X149952401Y-122796463D01*
X149952403Y-122796464D01*
X149959874Y-122801437D01*
X149968438Y-122804113D01*
X149968441Y-122804114D01*
X150028842Y-122822985D01*
X150097810Y-122844532D01*
X150242298Y-122847180D01*
X150261830Y-122841855D01*
X150373063Y-122811530D01*
X150373065Y-122811529D01*
X150381722Y-122809169D01*
X150504872Y-122733554D01*
X150601851Y-122626414D01*
X150664860Y-122496362D01*
X150688836Y-122353853D01*
X150688988Y-122341400D01*
X150673503Y-122233273D01*
X155167450Y-122233273D01*
X155168614Y-122242175D01*
X155168614Y-122242178D01*
X155181940Y-122344078D01*
X155186188Y-122376565D01*
X155244389Y-122508839D01*
X155250163Y-122515708D01*
X155323141Y-122602525D01*
X155337376Y-122619460D01*
X155344847Y-122624433D01*
X155344848Y-122624434D01*
X155450201Y-122694563D01*
X155450203Y-122694564D01*
X155457674Y-122699537D01*
X155466238Y-122702213D01*
X155466241Y-122702214D01*
X155526642Y-122721085D01*
X155595610Y-122742632D01*
X155740098Y-122745280D01*
X155809592Y-122726334D01*
X155870863Y-122709630D01*
X155870865Y-122709629D01*
X155879522Y-122707269D01*
X156002672Y-122631654D01*
X156099651Y-122524514D01*
X156162660Y-122394462D01*
X156186636Y-122251953D01*
X156186788Y-122239500D01*
X156176447Y-122167296D01*
X156167574Y-122105335D01*
X156167573Y-122105333D01*
X156166301Y-122096448D01*
X156106488Y-121964895D01*
X156100630Y-121958096D01*
X156100627Y-121958092D01*
X156018016Y-121862218D01*
X156018013Y-121862216D01*
X156012156Y-121855418D01*
X155939462Y-121808300D01*
X155898424Y-121781700D01*
X155898422Y-121781699D01*
X155890890Y-121776817D01*
X155874021Y-121771772D01*
X155761038Y-121737982D01*
X155761036Y-121737982D01*
X155752437Y-121735410D01*
X155743463Y-121735355D01*
X155743461Y-121735355D01*
X155680182Y-121734969D01*
X155607927Y-121734528D01*
X155599296Y-121736995D01*
X155599294Y-121736995D01*
X155477609Y-121771772D01*
X155477605Y-121771774D01*
X155468979Y-121774239D01*
X155461392Y-121779026D01*
X155461390Y-121779027D01*
X155364941Y-121839882D01*
X155346761Y-121851353D01*
X155340818Y-121858082D01*
X155340817Y-121858083D01*
X155273959Y-121933786D01*
X155251099Y-121959670D01*
X155247285Y-121967793D01*
X155247284Y-121967795D01*
X155217624Y-122030969D01*
X155189683Y-122090482D01*
X155188303Y-122099346D01*
X155188302Y-122099349D01*
X155172246Y-122202472D01*
X155167450Y-122233273D01*
X150673503Y-122233273D01*
X150668501Y-122198348D01*
X150608688Y-122066795D01*
X150602830Y-122059996D01*
X150602827Y-122059992D01*
X150520216Y-121964118D01*
X150520213Y-121964116D01*
X150514356Y-121957318D01*
X150393090Y-121878717D01*
X150376221Y-121873672D01*
X150263238Y-121839882D01*
X150263236Y-121839882D01*
X150254637Y-121837310D01*
X150245663Y-121837255D01*
X150245661Y-121837255D01*
X150182382Y-121836869D01*
X150110127Y-121836428D01*
X150101496Y-121838895D01*
X150101494Y-121838895D01*
X149979809Y-121873672D01*
X149979805Y-121873674D01*
X149971179Y-121876139D01*
X149848961Y-121953253D01*
X149843018Y-121959982D01*
X149843017Y-121959983D01*
X149833572Y-121970678D01*
X149753299Y-122061570D01*
X149749485Y-122069693D01*
X149749484Y-122069695D01*
X149724476Y-122122962D01*
X149691883Y-122192382D01*
X149690503Y-122201246D01*
X149690502Y-122201249D01*
X149673764Y-122308754D01*
X149669650Y-122335173D01*
X148898984Y-122335173D01*
X148973351Y-122253014D01*
X149036360Y-122122962D01*
X149060336Y-121980453D01*
X149060488Y-121968000D01*
X149048018Y-121880927D01*
X149041274Y-121833835D01*
X149041273Y-121833833D01*
X149040001Y-121824948D01*
X148980188Y-121693395D01*
X148974330Y-121686596D01*
X148974327Y-121686592D01*
X148891716Y-121590718D01*
X148891713Y-121590716D01*
X148885856Y-121583918D01*
X148796179Y-121525792D01*
X148772124Y-121510200D01*
X148772122Y-121510199D01*
X148764590Y-121505317D01*
X148734383Y-121496283D01*
X148634738Y-121466482D01*
X148634736Y-121466482D01*
X148626137Y-121463910D01*
X148617163Y-121463855D01*
X148617161Y-121463855D01*
X148553882Y-121463469D01*
X148481627Y-121463028D01*
X148472996Y-121465495D01*
X148472994Y-121465495D01*
X148351309Y-121500272D01*
X148351305Y-121500274D01*
X148342679Y-121502739D01*
X148335092Y-121507526D01*
X148335090Y-121507527D01*
X148235421Y-121570414D01*
X148220461Y-121579853D01*
X148214518Y-121586582D01*
X148214517Y-121586583D01*
X148192849Y-121611118D01*
X148124799Y-121688170D01*
X148063383Y-121818982D01*
X148062003Y-121827846D01*
X148062002Y-121827849D01*
X148042843Y-121950902D01*
X148041150Y-121961773D01*
X143354229Y-121961773D01*
X143354805Y-121960584D01*
X143378781Y-121818075D01*
X143378933Y-121805622D01*
X143358446Y-121662570D01*
X143298633Y-121531017D01*
X143292775Y-121524218D01*
X143292772Y-121524214D01*
X143210161Y-121428340D01*
X143210158Y-121428338D01*
X143204301Y-121421540D01*
X143116500Y-121364630D01*
X143090569Y-121347822D01*
X143090567Y-121347821D01*
X143083035Y-121342939D01*
X143066166Y-121337894D01*
X142953183Y-121304104D01*
X142953181Y-121304104D01*
X142944582Y-121301532D01*
X142935608Y-121301477D01*
X142935606Y-121301477D01*
X142872327Y-121301091D01*
X142800072Y-121300650D01*
X142791441Y-121303117D01*
X142791439Y-121303117D01*
X142669754Y-121337894D01*
X142669750Y-121337896D01*
X142661124Y-121340361D01*
X142653537Y-121345148D01*
X142653535Y-121345149D01*
X142566420Y-121400115D01*
X142538906Y-121417475D01*
X142532963Y-121424204D01*
X142532962Y-121424205D01*
X142482988Y-121480790D01*
X142443244Y-121525792D01*
X142439430Y-121533915D01*
X142439429Y-121533917D01*
X142417862Y-121579853D01*
X142381828Y-121656604D01*
X142380448Y-121665468D01*
X142380447Y-121665471D01*
X142363512Y-121774239D01*
X142359595Y-121799395D01*
X130302000Y-121799395D01*
X130302000Y-121697412D01*
X130322002Y-121629291D01*
X130375658Y-121582798D01*
X130445932Y-121572694D01*
X130479248Y-121582305D01*
X130494920Y-121589283D01*
X130494928Y-121589286D01*
X130500955Y-121591969D01*
X130577104Y-121608155D01*
X130680476Y-121630128D01*
X130680480Y-121630128D01*
X130686933Y-121631500D01*
X130877067Y-121631500D01*
X130883520Y-121630128D01*
X130883524Y-121630128D01*
X130986896Y-121608155D01*
X131063045Y-121591969D01*
X131069078Y-121589283D01*
X131230711Y-121517320D01*
X131230713Y-121517319D01*
X131236741Y-121514635D01*
X131242846Y-121510200D01*
X131355515Y-121428340D01*
X131390562Y-121402877D01*
X131413827Y-121377039D01*
X131513367Y-121266488D01*
X131513368Y-121266487D01*
X131517786Y-121261580D01*
X131612853Y-121096920D01*
X131671608Y-120916092D01*
X131673080Y-120902093D01*
X131674532Y-120888273D01*
X137786950Y-120888273D01*
X137788114Y-120897175D01*
X137788114Y-120897178D01*
X137804524Y-121022664D01*
X137805688Y-121031565D01*
X137863889Y-121163839D01*
X137869663Y-121170708D01*
X137924433Y-121235864D01*
X137956876Y-121274460D01*
X137964347Y-121279433D01*
X137964348Y-121279434D01*
X138069701Y-121349563D01*
X138069703Y-121349564D01*
X138077174Y-121354537D01*
X138085738Y-121357213D01*
X138085741Y-121357214D01*
X138122906Y-121368825D01*
X138215110Y-121397632D01*
X138359598Y-121400280D01*
X138387350Y-121392714D01*
X138490363Y-121364630D01*
X138490365Y-121364629D01*
X138499022Y-121362269D01*
X138622172Y-121286654D01*
X138719151Y-121179514D01*
X138756961Y-121101473D01*
X139748650Y-121101473D01*
X139749814Y-121110375D01*
X139749814Y-121110378D01*
X139766224Y-121235864D01*
X139767388Y-121244765D01*
X139825589Y-121377039D01*
X139831363Y-121383908D01*
X139897871Y-121463028D01*
X139918576Y-121487660D01*
X139926047Y-121492633D01*
X139926048Y-121492634D01*
X140031401Y-121562763D01*
X140031403Y-121562764D01*
X140038874Y-121567737D01*
X140047438Y-121570413D01*
X140047441Y-121570414D01*
X140077654Y-121579853D01*
X140176810Y-121610832D01*
X140321298Y-121613480D01*
X140395168Y-121593341D01*
X140452063Y-121577830D01*
X140452065Y-121577829D01*
X140460722Y-121575469D01*
X140468369Y-121570774D01*
X140468373Y-121570772D01*
X140508974Y-121545843D01*
X140577491Y-121527245D01*
X140644721Y-121548331D01*
X140666401Y-121562763D01*
X140666404Y-121562764D01*
X140673874Y-121567737D01*
X140682438Y-121570413D01*
X140682441Y-121570414D01*
X140712654Y-121579853D01*
X140811810Y-121610832D01*
X140956298Y-121613480D01*
X141030168Y-121593341D01*
X141087063Y-121577830D01*
X141087065Y-121577829D01*
X141095722Y-121575469D01*
X141103369Y-121570774D01*
X141103373Y-121570772D01*
X141143974Y-121545843D01*
X141212491Y-121527245D01*
X141279721Y-121548331D01*
X141301401Y-121562763D01*
X141301404Y-121562764D01*
X141308874Y-121567737D01*
X141317438Y-121570413D01*
X141317441Y-121570414D01*
X141347654Y-121579853D01*
X141446810Y-121610832D01*
X141591298Y-121613480D01*
X141665168Y-121593341D01*
X141722063Y-121577830D01*
X141722065Y-121577829D01*
X141730722Y-121575469D01*
X141853872Y-121499854D01*
X141950851Y-121392714D01*
X141995028Y-121301532D01*
X142009945Y-121270743D01*
X142009945Y-121270742D01*
X142013860Y-121262662D01*
X142037836Y-121120153D01*
X142037988Y-121107700D01*
X142017501Y-120964648D01*
X141957688Y-120833095D01*
X141951830Y-120826296D01*
X141951827Y-120826292D01*
X141869216Y-120730418D01*
X141869213Y-120730416D01*
X141863356Y-120723618D01*
X141802723Y-120684317D01*
X141749624Y-120649900D01*
X141749622Y-120649899D01*
X141742090Y-120645017D01*
X141685421Y-120628069D01*
X141612238Y-120606182D01*
X141612236Y-120606182D01*
X141603637Y-120603610D01*
X141594663Y-120603555D01*
X141594661Y-120603555D01*
X141531382Y-120603169D01*
X141459127Y-120602728D01*
X141450496Y-120605195D01*
X141450494Y-120605195D01*
X141328813Y-120639971D01*
X141328810Y-120639972D01*
X141320179Y-120642439D01*
X141278332Y-120668843D01*
X141210049Y-120688276D01*
X141142569Y-120668014D01*
X141107090Y-120645017D01*
X141050421Y-120628069D01*
X140977238Y-120606182D01*
X140977236Y-120606182D01*
X140968637Y-120603610D01*
X140959663Y-120603555D01*
X140959661Y-120603555D01*
X140896382Y-120603169D01*
X140824127Y-120602728D01*
X140815496Y-120605195D01*
X140815494Y-120605195D01*
X140693813Y-120639971D01*
X140693810Y-120639972D01*
X140685179Y-120642439D01*
X140643332Y-120668843D01*
X140575049Y-120688276D01*
X140507569Y-120668014D01*
X140472090Y-120645017D01*
X140415421Y-120628069D01*
X140342238Y-120606182D01*
X140342236Y-120606182D01*
X140333637Y-120603610D01*
X140324663Y-120603555D01*
X140324661Y-120603555D01*
X140261382Y-120603169D01*
X140189127Y-120602728D01*
X140180496Y-120605195D01*
X140180494Y-120605195D01*
X140058809Y-120639972D01*
X140058805Y-120639974D01*
X140050179Y-120642439D01*
X140042592Y-120647226D01*
X140042590Y-120647227D01*
X139977532Y-120688276D01*
X139927961Y-120719553D01*
X139922018Y-120726282D01*
X139922017Y-120726283D01*
X139851214Y-120806452D01*
X139832299Y-120827870D01*
X139828485Y-120835993D01*
X139828484Y-120835995D01*
X139809975Y-120875418D01*
X139770883Y-120958682D01*
X139769503Y-120967546D01*
X139769502Y-120967549D01*
X139750338Y-121090635D01*
X139748650Y-121101473D01*
X138756961Y-121101473D01*
X138782160Y-121049462D01*
X138806136Y-120906953D01*
X138806288Y-120894500D01*
X138785801Y-120751448D01*
X138725988Y-120619895D01*
X138720130Y-120613096D01*
X138720127Y-120613092D01*
X138637516Y-120517218D01*
X138637513Y-120517216D01*
X138631656Y-120510418D01*
X138510390Y-120431817D01*
X138493521Y-120426772D01*
X138380538Y-120392982D01*
X138380536Y-120392982D01*
X138371937Y-120390410D01*
X138362963Y-120390355D01*
X138362961Y-120390355D01*
X138299682Y-120389969D01*
X138227427Y-120389528D01*
X138218796Y-120391995D01*
X138218794Y-120391995D01*
X138097109Y-120426772D01*
X138097105Y-120426774D01*
X138088479Y-120429239D01*
X137966261Y-120506353D01*
X137960318Y-120513082D01*
X137960317Y-120513083D01*
X137932596Y-120544471D01*
X137870599Y-120614670D01*
X137866785Y-120622793D01*
X137866784Y-120622795D01*
X137845555Y-120668012D01*
X137809183Y-120745482D01*
X137807803Y-120754346D01*
X137807802Y-120754349D01*
X137788584Y-120877780D01*
X137786950Y-120888273D01*
X131674532Y-120888273D01*
X131690792Y-120733565D01*
X131691482Y-120727000D01*
X131687412Y-120688276D01*
X131672298Y-120544471D01*
X131672298Y-120544469D01*
X131671608Y-120537908D01*
X131615678Y-120365773D01*
X135613850Y-120365773D01*
X135615014Y-120374675D01*
X135615014Y-120374678D01*
X135622149Y-120429239D01*
X135632588Y-120509065D01*
X135690789Y-120641339D01*
X135696563Y-120648208D01*
X135771503Y-120737359D01*
X135783776Y-120751960D01*
X135791247Y-120756933D01*
X135791248Y-120756934D01*
X135896601Y-120827063D01*
X135896603Y-120827064D01*
X135904074Y-120832037D01*
X135912638Y-120834713D01*
X135912641Y-120834714D01*
X135973042Y-120853584D01*
X136042010Y-120875132D01*
X136186498Y-120877780D01*
X136206030Y-120872455D01*
X136317263Y-120842130D01*
X136317265Y-120842129D01*
X136325922Y-120839769D01*
X136449072Y-120764154D01*
X136546051Y-120657014D01*
X136609060Y-120526962D01*
X136633036Y-120384453D01*
X136633188Y-120372000D01*
X136612701Y-120228948D01*
X136552888Y-120097395D01*
X136547030Y-120090596D01*
X136547027Y-120090592D01*
X136464416Y-119994718D01*
X136464413Y-119994716D01*
X136458556Y-119987918D01*
X136337290Y-119909317D01*
X136243038Y-119881129D01*
X136207438Y-119870482D01*
X136207436Y-119870482D01*
X136198837Y-119867910D01*
X136189863Y-119867855D01*
X136189861Y-119867855D01*
X136126582Y-119867469D01*
X136054327Y-119867028D01*
X136045696Y-119869495D01*
X136045694Y-119869495D01*
X135924009Y-119904272D01*
X135924005Y-119904274D01*
X135915379Y-119906739D01*
X135907792Y-119911526D01*
X135907790Y-119911527D01*
X135863670Y-119939365D01*
X135793161Y-119983853D01*
X135697499Y-120092170D01*
X135636083Y-120222982D01*
X135634703Y-120231846D01*
X135634702Y-120231849D01*
X135616095Y-120351357D01*
X135613850Y-120365773D01*
X131615678Y-120365773D01*
X131612853Y-120357080D01*
X131517786Y-120192420D01*
X131432226Y-120097395D01*
X131394984Y-120056034D01*
X131394983Y-120056033D01*
X131390562Y-120051123D01*
X131236741Y-119939365D01*
X131230713Y-119936681D01*
X131230711Y-119936680D01*
X131069076Y-119864716D01*
X131069075Y-119864716D01*
X131063045Y-119862031D01*
X130970056Y-119842265D01*
X130883524Y-119823872D01*
X130883520Y-119823872D01*
X130877067Y-119822500D01*
X130686933Y-119822500D01*
X130680480Y-119823872D01*
X130680476Y-119823872D01*
X130593944Y-119842265D01*
X130500955Y-119862031D01*
X130494928Y-119864714D01*
X130494920Y-119864717D01*
X130479248Y-119871695D01*
X130408881Y-119881129D01*
X130344584Y-119851022D01*
X130306771Y-119790933D01*
X130302000Y-119756588D01*
X130302000Y-119079273D01*
X143442050Y-119079273D01*
X143443214Y-119088175D01*
X143443214Y-119088178D01*
X143459624Y-119213664D01*
X143460788Y-119222565D01*
X143518989Y-119354839D01*
X143611976Y-119465460D01*
X143619447Y-119470433D01*
X143619448Y-119470434D01*
X143724801Y-119540563D01*
X143724803Y-119540564D01*
X143732274Y-119545537D01*
X143740838Y-119548213D01*
X143740841Y-119548214D01*
X143801242Y-119567084D01*
X143870210Y-119588632D01*
X144014698Y-119591280D01*
X144034230Y-119585955D01*
X144145463Y-119555630D01*
X144145465Y-119555629D01*
X144154122Y-119553269D01*
X144277272Y-119477654D01*
X144374251Y-119370514D01*
X144405756Y-119305488D01*
X144433345Y-119248543D01*
X144433345Y-119248542D01*
X144437260Y-119240462D01*
X144461236Y-119097953D01*
X144461388Y-119085500D01*
X144443239Y-118958773D01*
X150429250Y-118958773D01*
X150430414Y-118967675D01*
X150430414Y-118967678D01*
X150445192Y-119080684D01*
X150447988Y-119102065D01*
X150506189Y-119234339D01*
X150599176Y-119344960D01*
X150606647Y-119349933D01*
X150606648Y-119349934D01*
X150712001Y-119420063D01*
X150712003Y-119420064D01*
X150719474Y-119425037D01*
X150728038Y-119427713D01*
X150728041Y-119427714D01*
X150788442Y-119446585D01*
X150857410Y-119468132D01*
X151001898Y-119470780D01*
X151046611Y-119458590D01*
X151132663Y-119435130D01*
X151132665Y-119435129D01*
X151141322Y-119432769D01*
X151264472Y-119357154D01*
X151361451Y-119250014D01*
X151424460Y-119119962D01*
X151448436Y-118977453D01*
X151448588Y-118965000D01*
X151428101Y-118821948D01*
X151368288Y-118690395D01*
X151362430Y-118683596D01*
X151362427Y-118683592D01*
X151279816Y-118587718D01*
X151279813Y-118587716D01*
X151273956Y-118580918D01*
X151152690Y-118502317D01*
X151135821Y-118497272D01*
X151022838Y-118463482D01*
X151022836Y-118463482D01*
X151014237Y-118460910D01*
X151005263Y-118460855D01*
X151005261Y-118460855D01*
X150941982Y-118460469D01*
X150869727Y-118460028D01*
X150861096Y-118462495D01*
X150861094Y-118462495D01*
X150739409Y-118497272D01*
X150739405Y-118497274D01*
X150730779Y-118499739D01*
X150608561Y-118576853D01*
X150602618Y-118583582D01*
X150602617Y-118583583D01*
X150531814Y-118663752D01*
X150512899Y-118685170D01*
X150509085Y-118693293D01*
X150509084Y-118693295D01*
X150504019Y-118704083D01*
X150451483Y-118815982D01*
X150450103Y-118824846D01*
X150450102Y-118824849D01*
X150431792Y-118942448D01*
X150429250Y-118958773D01*
X144443239Y-118958773D01*
X144440901Y-118942448D01*
X144381088Y-118810895D01*
X144375230Y-118804096D01*
X144375227Y-118804092D01*
X144292616Y-118708218D01*
X144292613Y-118708216D01*
X144286756Y-118701418D01*
X144165490Y-118622817D01*
X144148621Y-118617772D01*
X144035638Y-118583982D01*
X144035636Y-118583982D01*
X144027037Y-118581410D01*
X144018063Y-118581355D01*
X144018061Y-118581355D01*
X143954782Y-118580969D01*
X143882527Y-118580528D01*
X143873896Y-118582995D01*
X143873894Y-118582995D01*
X143752209Y-118617772D01*
X143752205Y-118617774D01*
X143743579Y-118620239D01*
X143735992Y-118625026D01*
X143735990Y-118625027D01*
X143628954Y-118692562D01*
X143621361Y-118697353D01*
X143525699Y-118805670D01*
X143521885Y-118813793D01*
X143521884Y-118813795D01*
X143516694Y-118824849D01*
X143464283Y-118936482D01*
X143462903Y-118945346D01*
X143462902Y-118945349D01*
X143457904Y-118977453D01*
X143442050Y-119079273D01*
X130302000Y-119079273D01*
X130302000Y-117697273D01*
X142060050Y-117697273D01*
X142061214Y-117706175D01*
X142061214Y-117706178D01*
X142077624Y-117831664D01*
X142078788Y-117840565D01*
X142136989Y-117972839D01*
X142229976Y-118083460D01*
X142237447Y-118088433D01*
X142237448Y-118088434D01*
X142342801Y-118158563D01*
X142342803Y-118158564D01*
X142350274Y-118163537D01*
X142358838Y-118166213D01*
X142358841Y-118166214D01*
X142419242Y-118185085D01*
X142488210Y-118206632D01*
X142632698Y-118209280D01*
X142652230Y-118203955D01*
X142763463Y-118173630D01*
X142763465Y-118173629D01*
X142772122Y-118171269D01*
X142895272Y-118095654D01*
X142992251Y-117988514D01*
X143055260Y-117858462D01*
X143079236Y-117715953D01*
X143079388Y-117703500D01*
X143058901Y-117560448D01*
X142999088Y-117428895D01*
X142993230Y-117422096D01*
X142993227Y-117422092D01*
X142910616Y-117326218D01*
X142910613Y-117326216D01*
X142904756Y-117319418D01*
X142783490Y-117240817D01*
X142766621Y-117235772D01*
X142653638Y-117201982D01*
X142653636Y-117201982D01*
X142645037Y-117199410D01*
X142636063Y-117199355D01*
X142636061Y-117199355D01*
X142572782Y-117198969D01*
X142500527Y-117198528D01*
X142491896Y-117200995D01*
X142491894Y-117200995D01*
X142370209Y-117235772D01*
X142370205Y-117235774D01*
X142361579Y-117238239D01*
X142239361Y-117315353D01*
X142143699Y-117423670D01*
X142082283Y-117554482D01*
X142060050Y-117697273D01*
X130302000Y-117697273D01*
X130302000Y-115504373D01*
X159078550Y-115504373D01*
X159079714Y-115513275D01*
X159079714Y-115513278D01*
X159096124Y-115638764D01*
X159097288Y-115647665D01*
X159155489Y-115779939D01*
X159248476Y-115890560D01*
X159255947Y-115895533D01*
X159255948Y-115895534D01*
X159361301Y-115965663D01*
X159361303Y-115965664D01*
X159368774Y-115970637D01*
X159377338Y-115973313D01*
X159377341Y-115973314D01*
X159437742Y-115992185D01*
X159506710Y-116013732D01*
X159651198Y-116016380D01*
X159670730Y-116011055D01*
X159781963Y-115980730D01*
X159781965Y-115980729D01*
X159790622Y-115978369D01*
X159913772Y-115902754D01*
X160010751Y-115795614D01*
X160073760Y-115665562D01*
X160097736Y-115523053D01*
X160097888Y-115510600D01*
X160077401Y-115367548D01*
X160017588Y-115235995D01*
X160011730Y-115229196D01*
X160011727Y-115229192D01*
X159929116Y-115133318D01*
X159929113Y-115133316D01*
X159923256Y-115126518D01*
X159801990Y-115047917D01*
X159696901Y-115016488D01*
X159672138Y-115009082D01*
X159672136Y-115009082D01*
X159663537Y-115006510D01*
X159654563Y-115006455D01*
X159654561Y-115006455D01*
X159591282Y-115006069D01*
X159519027Y-115005628D01*
X159510396Y-115008095D01*
X159510394Y-115008095D01*
X159388709Y-115042872D01*
X159388705Y-115042874D01*
X159380079Y-115045339D01*
X159257861Y-115122453D01*
X159251918Y-115129182D01*
X159251917Y-115129183D01*
X159227562Y-115156760D01*
X159162199Y-115230770D01*
X159158385Y-115238893D01*
X159158384Y-115238895D01*
X159146299Y-115264635D01*
X159100783Y-115361582D01*
X159099403Y-115370446D01*
X159099402Y-115370449D01*
X159097682Y-115381500D01*
X159078550Y-115504373D01*
X130302000Y-115504373D01*
X130302000Y-115447412D01*
X130322002Y-115379291D01*
X130375658Y-115332798D01*
X130445932Y-115322694D01*
X130479248Y-115332305D01*
X130494920Y-115339283D01*
X130494928Y-115339286D01*
X130500955Y-115341969D01*
X130582853Y-115359377D01*
X130680476Y-115380128D01*
X130680480Y-115380128D01*
X130686933Y-115381500D01*
X130877067Y-115381500D01*
X130883520Y-115380128D01*
X130883524Y-115380128D01*
X130981147Y-115359377D01*
X131063045Y-115341969D01*
X131106338Y-115322694D01*
X131230711Y-115267320D01*
X131230713Y-115267319D01*
X131236741Y-115264635D01*
X131390562Y-115152877D01*
X131422270Y-115117662D01*
X131513367Y-115016488D01*
X131513368Y-115016487D01*
X131517786Y-115011580D01*
X131612853Y-114846920D01*
X131671608Y-114666092D01*
X131691482Y-114477000D01*
X131671608Y-114287908D01*
X131612853Y-114107080D01*
X131517786Y-113942420D01*
X131390562Y-113801123D01*
X131236741Y-113689365D01*
X131230713Y-113686681D01*
X131230711Y-113686680D01*
X131069076Y-113614716D01*
X131069075Y-113614716D01*
X131063045Y-113612031D01*
X130970056Y-113592266D01*
X130883524Y-113573872D01*
X130883520Y-113573872D01*
X130877067Y-113572500D01*
X130686933Y-113572500D01*
X130680480Y-113573872D01*
X130680476Y-113573872D01*
X130593944Y-113592266D01*
X130500955Y-113612031D01*
X130494928Y-113614714D01*
X130494920Y-113614717D01*
X130479248Y-113621695D01*
X130408881Y-113631129D01*
X130344584Y-113601022D01*
X130306771Y-113540933D01*
X130302000Y-113506588D01*
X130302000Y-111961373D01*
X151627550Y-111961373D01*
X151628714Y-111970275D01*
X151628714Y-111970278D01*
X151645124Y-112095764D01*
X151646288Y-112104665D01*
X151704489Y-112236939D01*
X151797476Y-112347560D01*
X151804947Y-112352533D01*
X151804948Y-112352534D01*
X151910301Y-112422663D01*
X151910303Y-112422664D01*
X151917774Y-112427637D01*
X151926338Y-112430313D01*
X151926341Y-112430314D01*
X151986742Y-112449185D01*
X152055710Y-112470732D01*
X152200198Y-112473380D01*
X152219730Y-112468055D01*
X152330963Y-112437730D01*
X152330965Y-112437729D01*
X152339622Y-112435369D01*
X152462772Y-112359754D01*
X152559751Y-112252614D01*
X152622760Y-112122562D01*
X152646736Y-111980053D01*
X152646888Y-111967600D01*
X152626401Y-111824548D01*
X152566588Y-111692995D01*
X152560730Y-111686196D01*
X152560727Y-111686192D01*
X152478116Y-111590318D01*
X152478113Y-111590316D01*
X152472256Y-111583518D01*
X152350990Y-111504917D01*
X152334121Y-111499872D01*
X152221138Y-111466082D01*
X152221136Y-111466082D01*
X152212537Y-111463510D01*
X152203563Y-111463455D01*
X152203561Y-111463455D01*
X152140282Y-111463069D01*
X152068027Y-111462628D01*
X152059396Y-111465095D01*
X152059394Y-111465095D01*
X151937709Y-111499872D01*
X151937705Y-111499874D01*
X151929079Y-111502339D01*
X151806861Y-111579453D01*
X151711199Y-111687770D01*
X151649783Y-111818582D01*
X151627550Y-111961373D01*
X130302000Y-111961373D01*
X130302000Y-110974773D01*
X147315650Y-110974773D01*
X147316814Y-110983675D01*
X147316814Y-110983678D01*
X147333224Y-111109164D01*
X147334388Y-111118065D01*
X147392589Y-111250339D01*
X147485576Y-111360960D01*
X147493047Y-111365933D01*
X147493048Y-111365934D01*
X147598401Y-111436063D01*
X147598403Y-111436064D01*
X147605874Y-111441037D01*
X147614438Y-111443713D01*
X147614441Y-111443714D01*
X147674842Y-111462585D01*
X147743810Y-111484132D01*
X147888298Y-111486780D01*
X147907830Y-111481455D01*
X148019063Y-111451130D01*
X148019065Y-111451129D01*
X148027722Y-111448769D01*
X148150872Y-111373154D01*
X148247851Y-111266014D01*
X148310860Y-111135962D01*
X148334836Y-110993453D01*
X148334988Y-110981000D01*
X148314501Y-110837948D01*
X148254688Y-110706395D01*
X148248830Y-110699596D01*
X148248827Y-110699592D01*
X148166216Y-110603718D01*
X148166213Y-110603716D01*
X148160356Y-110596918D01*
X148039090Y-110518317D01*
X148022221Y-110513272D01*
X147909238Y-110479482D01*
X147909236Y-110479482D01*
X147900637Y-110476910D01*
X147891663Y-110476855D01*
X147891661Y-110476855D01*
X147828382Y-110476469D01*
X147756127Y-110476028D01*
X147747496Y-110478495D01*
X147747494Y-110478495D01*
X147625809Y-110513272D01*
X147625805Y-110513274D01*
X147617179Y-110515739D01*
X147494961Y-110592853D01*
X147399299Y-110701170D01*
X147337883Y-110831982D01*
X147315650Y-110974773D01*
X130302000Y-110974773D01*
X130302000Y-109086673D01*
X142704450Y-109086673D01*
X142705614Y-109095575D01*
X142705614Y-109095578D01*
X142715283Y-109169518D01*
X142723188Y-109229965D01*
X142781389Y-109362239D01*
X142787163Y-109369108D01*
X142793320Y-109376432D01*
X142874376Y-109472860D01*
X142881847Y-109477833D01*
X142881848Y-109477834D01*
X142987201Y-109547963D01*
X142987203Y-109547964D01*
X142994674Y-109552937D01*
X143003238Y-109555613D01*
X143003241Y-109555614D01*
X143063642Y-109574485D01*
X143132610Y-109596032D01*
X143277098Y-109598680D01*
X143296630Y-109593355D01*
X143407863Y-109563030D01*
X143407865Y-109563029D01*
X143416522Y-109560669D01*
X143539672Y-109485054D01*
X143636651Y-109377914D01*
X143699660Y-109247862D01*
X143723636Y-109105353D01*
X143723788Y-109092900D01*
X143705605Y-108965934D01*
X143704574Y-108958735D01*
X143704573Y-108958733D01*
X143703301Y-108949848D01*
X143643488Y-108818295D01*
X143637630Y-108811496D01*
X143637627Y-108811492D01*
X143555016Y-108715618D01*
X143555013Y-108715616D01*
X143549156Y-108708818D01*
X143487382Y-108668778D01*
X143473643Y-108659873D01*
X146588750Y-108659873D01*
X146589914Y-108668775D01*
X146589914Y-108668778D01*
X146597434Y-108726280D01*
X146607488Y-108803165D01*
X146665689Y-108935439D01*
X146671463Y-108942308D01*
X146750273Y-109036063D01*
X146758676Y-109046060D01*
X146766147Y-109051033D01*
X146766148Y-109051034D01*
X146871501Y-109121163D01*
X146871503Y-109121164D01*
X146878974Y-109126137D01*
X146887538Y-109128813D01*
X146887541Y-109128814D01*
X146947942Y-109147685D01*
X147016910Y-109169232D01*
X147161398Y-109171880D01*
X147211158Y-109158314D01*
X147292163Y-109136230D01*
X147292165Y-109136229D01*
X147300822Y-109133869D01*
X147423972Y-109058254D01*
X147432558Y-109048769D01*
X147475376Y-109001464D01*
X147520951Y-108951114D01*
X147558956Y-108872670D01*
X147561668Y-108867073D01*
X148207350Y-108867073D01*
X148208514Y-108875975D01*
X148208514Y-108875978D01*
X148218729Y-108954090D01*
X148226088Y-109010365D01*
X148284289Y-109142639D01*
X148290063Y-109149508D01*
X148365298Y-109239010D01*
X148377276Y-109253260D01*
X148384747Y-109258233D01*
X148384748Y-109258234D01*
X148490101Y-109328363D01*
X148490103Y-109328364D01*
X148497574Y-109333337D01*
X148506138Y-109336013D01*
X148506141Y-109336014D01*
X148563791Y-109354025D01*
X148635510Y-109376432D01*
X148779998Y-109379080D01*
X148813916Y-109369833D01*
X148910763Y-109343430D01*
X148910765Y-109343429D01*
X148919422Y-109341069D01*
X149042572Y-109265454D01*
X149139551Y-109158314D01*
X149175412Y-109084296D01*
X149198645Y-109036343D01*
X149198645Y-109036342D01*
X149202560Y-109028262D01*
X149226536Y-108885753D01*
X149226688Y-108873300D01*
X149206201Y-108730248D01*
X149146388Y-108598695D01*
X149140530Y-108591896D01*
X149140527Y-108591892D01*
X149125776Y-108574773D01*
X156714550Y-108574773D01*
X156715714Y-108583675D01*
X156715714Y-108583678D01*
X156728121Y-108678553D01*
X156733288Y-108718065D01*
X156791489Y-108850339D01*
X156797263Y-108857208D01*
X156876200Y-108951114D01*
X156884476Y-108960960D01*
X156891947Y-108965933D01*
X156891948Y-108965934D01*
X156997301Y-109036063D01*
X156997303Y-109036064D01*
X157004774Y-109041037D01*
X157013338Y-109043713D01*
X157013341Y-109043714D01*
X157038583Y-109051600D01*
X157142710Y-109084132D01*
X157287198Y-109086780D01*
X157320133Y-109077801D01*
X157417963Y-109051130D01*
X157417965Y-109051129D01*
X157426622Y-109048769D01*
X157549772Y-108973154D01*
X157646751Y-108866014D01*
X157709760Y-108735962D01*
X157733736Y-108593453D01*
X157733888Y-108581000D01*
X157713401Y-108437948D01*
X157653588Y-108306395D01*
X157647730Y-108299596D01*
X157647727Y-108299592D01*
X157565116Y-108203718D01*
X157565113Y-108203716D01*
X157559256Y-108196918D01*
X157437990Y-108118317D01*
X157319165Y-108082780D01*
X157308138Y-108079482D01*
X157308136Y-108079482D01*
X157299537Y-108076910D01*
X157290563Y-108076855D01*
X157290561Y-108076855D01*
X157227282Y-108076469D01*
X157155027Y-108076028D01*
X157146396Y-108078495D01*
X157146394Y-108078495D01*
X157024709Y-108113272D01*
X157024705Y-108113274D01*
X157016079Y-108115739D01*
X157008492Y-108120526D01*
X157008490Y-108120527D01*
X156901454Y-108188062D01*
X156893861Y-108192853D01*
X156887918Y-108199582D01*
X156887917Y-108199583D01*
X156822935Y-108273162D01*
X156798199Y-108301170D01*
X156736783Y-108431982D01*
X156735403Y-108440846D01*
X156735402Y-108440849D01*
X156722604Y-108523048D01*
X156714550Y-108574773D01*
X149125776Y-108574773D01*
X149057916Y-108496018D01*
X149057913Y-108496016D01*
X149052056Y-108489218D01*
X148977432Y-108440849D01*
X148938324Y-108415500D01*
X148938322Y-108415499D01*
X148930790Y-108410617D01*
X148894183Y-108399669D01*
X148800938Y-108371782D01*
X148800936Y-108371782D01*
X148792337Y-108369210D01*
X148783363Y-108369155D01*
X148783361Y-108369155D01*
X148720082Y-108368769D01*
X148647827Y-108368328D01*
X148639196Y-108370795D01*
X148639194Y-108370795D01*
X148517509Y-108405572D01*
X148517505Y-108405574D01*
X148508879Y-108408039D01*
X148501292Y-108412826D01*
X148501290Y-108412827D01*
X148461476Y-108437948D01*
X148386661Y-108485153D01*
X148290999Y-108593470D01*
X148229583Y-108724282D01*
X148228203Y-108733146D01*
X148228202Y-108733149D01*
X148209956Y-108850339D01*
X148207350Y-108867073D01*
X147561668Y-108867073D01*
X147580045Y-108829143D01*
X147580045Y-108829142D01*
X147583960Y-108821062D01*
X147607936Y-108678553D01*
X147608088Y-108666100D01*
X147587601Y-108523048D01*
X147527788Y-108391495D01*
X147521930Y-108384696D01*
X147521927Y-108384692D01*
X147439316Y-108288818D01*
X147439313Y-108288816D01*
X147433456Y-108282018D01*
X147312190Y-108203417D01*
X147274132Y-108192035D01*
X147182338Y-108164582D01*
X147182336Y-108164582D01*
X147173737Y-108162010D01*
X147164763Y-108161955D01*
X147164761Y-108161955D01*
X147101482Y-108161569D01*
X147029227Y-108161128D01*
X147020596Y-108163595D01*
X147020594Y-108163595D01*
X146898909Y-108198372D01*
X146898905Y-108198374D01*
X146890279Y-108200839D01*
X146768061Y-108277953D01*
X146762118Y-108284682D01*
X146762117Y-108284683D01*
X146742942Y-108306395D01*
X146672399Y-108386270D01*
X146668585Y-108394393D01*
X146668584Y-108394395D01*
X146650937Y-108431982D01*
X146610983Y-108517082D01*
X146609603Y-108525946D01*
X146609602Y-108525949D01*
X146593368Y-108630217D01*
X146588750Y-108659873D01*
X143473643Y-108659873D01*
X143435424Y-108635100D01*
X143435422Y-108635099D01*
X143427890Y-108630217D01*
X143411021Y-108625172D01*
X143298038Y-108591382D01*
X143298036Y-108591382D01*
X143289437Y-108588810D01*
X143280463Y-108588755D01*
X143280461Y-108588755D01*
X143217182Y-108588369D01*
X143144927Y-108587928D01*
X143136296Y-108590395D01*
X143136294Y-108590395D01*
X143014609Y-108625172D01*
X143014605Y-108625174D01*
X143005979Y-108627639D01*
X142998392Y-108632426D01*
X142998390Y-108632427D01*
X142932988Y-108673693D01*
X142883761Y-108704753D01*
X142877818Y-108711482D01*
X142877817Y-108711483D01*
X142856198Y-108735962D01*
X142788099Y-108813070D01*
X142784285Y-108821193D01*
X142784284Y-108821195D01*
X142774458Y-108842125D01*
X142726683Y-108943882D01*
X142725303Y-108952746D01*
X142725302Y-108952749D01*
X142708144Y-109062950D01*
X142704450Y-109086673D01*
X130302000Y-109086673D01*
X130302000Y-107570773D01*
X133340850Y-107570773D01*
X133342014Y-107579675D01*
X133342014Y-107579678D01*
X133346436Y-107613490D01*
X133359588Y-107714065D01*
X133417789Y-107846339D01*
X133510776Y-107956960D01*
X133518247Y-107961933D01*
X133518248Y-107961934D01*
X133623601Y-108032063D01*
X133623603Y-108032064D01*
X133631074Y-108037037D01*
X133639638Y-108039713D01*
X133639641Y-108039714D01*
X133700042Y-108058585D01*
X133769010Y-108080132D01*
X133913498Y-108082780D01*
X133925595Y-108079482D01*
X134044263Y-108047130D01*
X134044265Y-108047129D01*
X134052922Y-108044769D01*
X134176072Y-107969154D01*
X134273051Y-107862014D01*
X134329172Y-107746180D01*
X134332145Y-107740043D01*
X134332145Y-107740042D01*
X134336060Y-107731962D01*
X134360036Y-107589453D01*
X134360188Y-107577000D01*
X134349379Y-107501525D01*
X134340974Y-107442835D01*
X134340973Y-107442833D01*
X134339701Y-107433948D01*
X134332300Y-107417669D01*
X134300055Y-107346750D01*
X134279888Y-107302395D01*
X134274030Y-107295596D01*
X134274027Y-107295592D01*
X134221105Y-107234173D01*
X141896750Y-107234173D01*
X141897914Y-107243075D01*
X141897914Y-107243078D01*
X141904988Y-107297170D01*
X141915488Y-107377465D01*
X141973689Y-107509739D01*
X141979463Y-107516608D01*
X142036611Y-107584593D01*
X142066676Y-107620360D01*
X142074147Y-107625333D01*
X142074148Y-107625334D01*
X142179501Y-107695463D01*
X142179503Y-107695464D01*
X142186974Y-107700437D01*
X142195538Y-107703113D01*
X142195541Y-107703114D01*
X142255942Y-107721985D01*
X142324910Y-107743532D01*
X142469398Y-107746180D01*
X142488930Y-107740855D01*
X142600163Y-107710530D01*
X142600165Y-107710529D01*
X142608822Y-107708169D01*
X142731972Y-107632554D01*
X142828951Y-107525414D01*
X142871860Y-107436849D01*
X142888045Y-107403443D01*
X142888045Y-107403442D01*
X142891960Y-107395362D01*
X142915936Y-107252853D01*
X142916088Y-107240400D01*
X142898031Y-107114317D01*
X142896874Y-107106235D01*
X142896873Y-107106233D01*
X142895601Y-107097348D01*
X142835788Y-106965795D01*
X142829930Y-106958996D01*
X142829927Y-106958992D01*
X142816727Y-106943673D01*
X151832150Y-106943673D01*
X151833314Y-106952575D01*
X151833314Y-106952578D01*
X151848935Y-107072028D01*
X151850888Y-107086965D01*
X151909089Y-107219239D01*
X151914863Y-107226108D01*
X151968942Y-107290442D01*
X152002076Y-107329860D01*
X152009547Y-107334833D01*
X152009548Y-107334834D01*
X152114901Y-107404963D01*
X152114903Y-107404964D01*
X152122374Y-107409937D01*
X152130938Y-107412613D01*
X152130941Y-107412614D01*
X152180131Y-107427982D01*
X152260310Y-107453032D01*
X152404798Y-107455680D01*
X152424330Y-107450355D01*
X152535563Y-107420030D01*
X152535565Y-107420029D01*
X152544222Y-107417669D01*
X152667372Y-107342054D01*
X152764351Y-107234914D01*
X152795855Y-107169888D01*
X152823445Y-107112943D01*
X152823445Y-107112942D01*
X152827360Y-107104862D01*
X152851336Y-106962353D01*
X152851488Y-106949900D01*
X152839060Y-106863118D01*
X152832274Y-106815735D01*
X152832273Y-106815733D01*
X152831001Y-106806848D01*
X152771188Y-106675295D01*
X152765330Y-106668496D01*
X152765327Y-106668492D01*
X152682716Y-106572618D01*
X152682713Y-106572616D01*
X152676856Y-106565818D01*
X152555590Y-106487217D01*
X152538721Y-106482172D01*
X152425738Y-106448382D01*
X152425736Y-106448382D01*
X152417137Y-106445810D01*
X152408163Y-106445755D01*
X152408161Y-106445755D01*
X152344882Y-106445369D01*
X152272627Y-106444928D01*
X152263996Y-106447395D01*
X152263994Y-106447395D01*
X152142309Y-106482172D01*
X152142305Y-106482174D01*
X152133679Y-106484639D01*
X152011461Y-106561753D01*
X151915799Y-106670070D01*
X151854383Y-106800882D01*
X151853003Y-106809746D01*
X151853002Y-106809749D01*
X151844693Y-106863118D01*
X151832150Y-106943673D01*
X142816727Y-106943673D01*
X142747316Y-106863118D01*
X142747313Y-106863116D01*
X142741456Y-106856318D01*
X142669609Y-106809749D01*
X142627724Y-106782600D01*
X142627722Y-106782599D01*
X142620190Y-106777717D01*
X142603321Y-106772672D01*
X142490338Y-106738882D01*
X142490336Y-106738882D01*
X142481737Y-106736310D01*
X142472763Y-106736255D01*
X142472761Y-106736255D01*
X142409482Y-106735869D01*
X142337227Y-106735428D01*
X142328596Y-106737895D01*
X142328594Y-106737895D01*
X142206909Y-106772672D01*
X142206905Y-106772674D01*
X142198279Y-106775139D01*
X142190692Y-106779926D01*
X142190690Y-106779927D01*
X142133938Y-106815735D01*
X142076061Y-106852253D01*
X141980399Y-106960570D01*
X141918983Y-107091382D01*
X141917603Y-107100246D01*
X141917602Y-107100249D01*
X141902115Y-107199718D01*
X141896750Y-107234173D01*
X134221105Y-107234173D01*
X134191416Y-107199718D01*
X134191413Y-107199716D01*
X134185556Y-107192918D01*
X134064290Y-107114317D01*
X134003077Y-107096010D01*
X133934438Y-107075482D01*
X133934436Y-107075482D01*
X133925837Y-107072910D01*
X133916863Y-107072855D01*
X133916861Y-107072855D01*
X133853582Y-107072469D01*
X133781327Y-107072028D01*
X133772696Y-107074495D01*
X133772694Y-107074495D01*
X133651009Y-107109272D01*
X133651005Y-107109274D01*
X133642379Y-107111739D01*
X133520161Y-107188853D01*
X133514218Y-107195582D01*
X133514217Y-107195583D01*
X133463638Y-107252853D01*
X133424499Y-107297170D01*
X133420685Y-107305293D01*
X133420684Y-107305295D01*
X133409151Y-107329860D01*
X133363083Y-107427982D01*
X133361703Y-107436846D01*
X133361702Y-107436849D01*
X133347913Y-107525414D01*
X133340850Y-107570773D01*
X130302000Y-107570773D01*
X130302000Y-105757773D01*
X139972550Y-105757773D01*
X139973714Y-105766675D01*
X139973714Y-105766678D01*
X139990124Y-105892164D01*
X139991288Y-105901065D01*
X140049489Y-106033339D01*
X140142476Y-106143960D01*
X140149947Y-106148933D01*
X140149948Y-106148934D01*
X140255301Y-106219063D01*
X140255303Y-106219064D01*
X140262774Y-106224037D01*
X140271338Y-106226713D01*
X140271341Y-106226714D01*
X140331742Y-106245584D01*
X140400710Y-106267132D01*
X140545198Y-106269780D01*
X140564730Y-106264455D01*
X140675963Y-106234130D01*
X140675965Y-106234129D01*
X140684622Y-106231769D01*
X140807772Y-106156154D01*
X140904751Y-106049014D01*
X140967760Y-105918962D01*
X140991736Y-105776453D01*
X140991888Y-105764000D01*
X140975793Y-105651614D01*
X140972674Y-105629835D01*
X140972673Y-105629833D01*
X140971401Y-105620948D01*
X140911588Y-105489395D01*
X140905730Y-105482596D01*
X140905727Y-105482592D01*
X140823116Y-105386718D01*
X140823113Y-105386716D01*
X140817256Y-105379918D01*
X140695990Y-105301317D01*
X140679121Y-105296272D01*
X140566138Y-105262482D01*
X140566136Y-105262482D01*
X140557537Y-105259910D01*
X140548563Y-105259855D01*
X140548561Y-105259855D01*
X140485282Y-105259469D01*
X140413027Y-105259028D01*
X140404396Y-105261495D01*
X140404394Y-105261495D01*
X140282709Y-105296272D01*
X140282705Y-105296274D01*
X140274079Y-105298739D01*
X140266492Y-105303526D01*
X140266490Y-105303527D01*
X140159454Y-105371062D01*
X140151861Y-105375853D01*
X140145918Y-105382582D01*
X140145917Y-105382583D01*
X140102683Y-105431537D01*
X140056199Y-105484170D01*
X139994783Y-105614982D01*
X139993403Y-105623846D01*
X139993402Y-105623849D01*
X139982374Y-105694680D01*
X139972550Y-105757773D01*
X130302000Y-105757773D01*
X130302000Y-104965273D01*
X134792050Y-104965273D01*
X134793214Y-104974175D01*
X134793214Y-104974178D01*
X134802966Y-105048749D01*
X134810788Y-105108565D01*
X134868989Y-105240839D01*
X134874763Y-105247708D01*
X134947451Y-105334180D01*
X134961976Y-105351460D01*
X134969447Y-105356433D01*
X134969448Y-105356434D01*
X135074801Y-105426563D01*
X135074803Y-105426564D01*
X135082274Y-105431537D01*
X135090838Y-105434213D01*
X135090841Y-105434214D01*
X135141449Y-105450025D01*
X135220210Y-105474632D01*
X135364698Y-105477280D01*
X135374411Y-105474632D01*
X135495463Y-105441630D01*
X135495465Y-105441629D01*
X135504122Y-105439269D01*
X135627272Y-105363654D01*
X135724251Y-105256514D01*
X135760026Y-105182673D01*
X138306150Y-105182673D01*
X138307314Y-105191575D01*
X138307314Y-105191578D01*
X138312682Y-105232625D01*
X138324888Y-105325965D01*
X138383089Y-105458239D01*
X138476076Y-105568860D01*
X138483547Y-105573833D01*
X138483548Y-105573834D01*
X138588901Y-105643963D01*
X138588903Y-105643964D01*
X138596374Y-105648937D01*
X138604938Y-105651613D01*
X138604941Y-105651614D01*
X138665342Y-105670485D01*
X138734310Y-105692032D01*
X138878798Y-105694680D01*
X138898330Y-105689355D01*
X139009563Y-105659030D01*
X139009565Y-105659029D01*
X139018222Y-105656669D01*
X139141372Y-105581054D01*
X139238351Y-105473914D01*
X139301360Y-105343862D01*
X139325336Y-105201353D01*
X139325488Y-105188900D01*
X139305001Y-105045848D01*
X139245188Y-104914295D01*
X139239330Y-104907496D01*
X139239327Y-104907492D01*
X139156716Y-104811618D01*
X139156713Y-104811616D01*
X139150856Y-104804818D01*
X139029590Y-104726217D01*
X139012721Y-104721172D01*
X138899738Y-104687382D01*
X138899736Y-104687382D01*
X138891137Y-104684810D01*
X138882163Y-104684755D01*
X138882161Y-104684755D01*
X138818882Y-104684369D01*
X138746627Y-104683928D01*
X138737996Y-104686395D01*
X138737994Y-104686395D01*
X138616309Y-104721172D01*
X138616305Y-104721174D01*
X138607679Y-104723639D01*
X138485461Y-104800753D01*
X138479518Y-104807482D01*
X138479517Y-104807483D01*
X138453153Y-104837335D01*
X138389799Y-104909070D01*
X138328383Y-105039882D01*
X138327003Y-105048746D01*
X138327002Y-105048749D01*
X138316281Y-105117610D01*
X138306150Y-105182673D01*
X135760026Y-105182673D01*
X135787260Y-105126462D01*
X135811236Y-104983953D01*
X135811388Y-104971500D01*
X135790901Y-104828448D01*
X135731088Y-104696895D01*
X135725230Y-104690096D01*
X135725227Y-104690092D01*
X135642616Y-104594218D01*
X135642613Y-104594216D01*
X135636756Y-104587418D01*
X135515490Y-104508817D01*
X135498621Y-104503772D01*
X135385638Y-104469982D01*
X135385636Y-104469982D01*
X135377037Y-104467410D01*
X135368063Y-104467355D01*
X135368061Y-104467355D01*
X135304782Y-104466969D01*
X135232527Y-104466528D01*
X135223896Y-104468995D01*
X135223894Y-104468995D01*
X135102209Y-104503772D01*
X135102205Y-104503774D01*
X135093579Y-104506239D01*
X134971361Y-104583353D01*
X134875699Y-104691670D01*
X134871885Y-104699793D01*
X134871884Y-104699795D01*
X134857187Y-104731100D01*
X134814283Y-104822482D01*
X134812903Y-104831346D01*
X134812902Y-104831349D01*
X134798715Y-104922469D01*
X134792050Y-104965273D01*
X130302000Y-104965273D01*
X130302000Y-103681473D01*
X138490650Y-103681473D01*
X138491814Y-103690375D01*
X138491814Y-103690378D01*
X138508224Y-103815864D01*
X138509388Y-103824765D01*
X138567589Y-103957039D01*
X138660576Y-104067660D01*
X138668047Y-104072633D01*
X138668048Y-104072634D01*
X138773401Y-104142763D01*
X138773403Y-104142764D01*
X138780874Y-104147737D01*
X138789438Y-104150413D01*
X138789441Y-104150414D01*
X138849842Y-104169285D01*
X138918810Y-104190832D01*
X139063298Y-104193480D01*
X139082830Y-104188155D01*
X139194063Y-104157830D01*
X139194065Y-104157829D01*
X139202722Y-104155469D01*
X139325872Y-104079854D01*
X139422851Y-103972714D01*
X139485860Y-103842662D01*
X139509836Y-103700153D01*
X139509988Y-103687700D01*
X139489501Y-103544648D01*
X139429688Y-103413095D01*
X139423830Y-103406296D01*
X139423827Y-103406292D01*
X139341216Y-103310418D01*
X139341213Y-103310416D01*
X139335356Y-103303618D01*
X139214090Y-103225017D01*
X139197221Y-103219972D01*
X139084238Y-103186182D01*
X139084236Y-103186182D01*
X139075637Y-103183610D01*
X139066663Y-103183555D01*
X139066661Y-103183555D01*
X139003382Y-103183169D01*
X138931127Y-103182728D01*
X138922496Y-103185195D01*
X138922494Y-103185195D01*
X138800809Y-103219972D01*
X138800805Y-103219974D01*
X138792179Y-103222439D01*
X138669961Y-103299553D01*
X138574299Y-103407870D01*
X138512883Y-103538682D01*
X138490650Y-103681473D01*
X130302000Y-103681473D01*
X130302000Y-101865173D01*
X140921450Y-101865173D01*
X140922614Y-101874075D01*
X140922614Y-101874078D01*
X140939024Y-101999564D01*
X140940188Y-102008465D01*
X140998389Y-102140739D01*
X141091376Y-102251360D01*
X141098847Y-102256333D01*
X141098848Y-102256334D01*
X141204201Y-102326463D01*
X141204203Y-102326464D01*
X141211674Y-102331437D01*
X141220238Y-102334113D01*
X141220241Y-102334114D01*
X141280642Y-102352985D01*
X141349610Y-102374532D01*
X141494098Y-102377180D01*
X141513630Y-102371855D01*
X141624863Y-102341530D01*
X141624865Y-102341529D01*
X141633522Y-102339169D01*
X141756672Y-102263554D01*
X141853651Y-102156414D01*
X141916660Y-102026362D01*
X141940636Y-101883853D01*
X141940788Y-101871400D01*
X141920301Y-101728348D01*
X141860488Y-101596795D01*
X141854630Y-101589996D01*
X141854627Y-101589992D01*
X141772016Y-101494118D01*
X141772013Y-101494116D01*
X141766156Y-101487318D01*
X141644890Y-101408717D01*
X141628021Y-101403672D01*
X141515038Y-101369882D01*
X141515036Y-101369882D01*
X141506437Y-101367310D01*
X141497463Y-101367255D01*
X141497461Y-101367255D01*
X141434182Y-101366869D01*
X141361927Y-101366428D01*
X141353296Y-101368895D01*
X141353294Y-101368895D01*
X141231609Y-101403672D01*
X141231605Y-101403674D01*
X141222979Y-101406139D01*
X141100761Y-101483253D01*
X141005099Y-101591570D01*
X140943683Y-101722382D01*
X140921450Y-101865173D01*
X130302000Y-101865173D01*
X130302000Y-99494574D01*
X130322002Y-99426453D01*
X130375658Y-99379960D01*
X130445932Y-99369856D01*
X130510512Y-99399350D01*
X130536620Y-99430717D01*
X130551552Y-99456117D01*
X130553853Y-99459132D01*
X130749548Y-99715553D01*
X130753046Y-99720137D01*
X130755694Y-99722856D01*
X130755699Y-99722861D01*
X130979381Y-99952477D01*
X130984798Y-99958038D01*
X130987742Y-99960409D01*
X130987745Y-99960412D01*
X131058810Y-100017652D01*
X131243453Y-100166374D01*
X131525264Y-100342127D01*
X131826147Y-100482751D01*
X131829757Y-100483934D01*
X131829756Y-100483934D01*
X132103984Y-100573830D01*
X132141746Y-100586209D01*
X132467488Y-100651003D01*
X132471261Y-100651290D01*
X132471268Y-100651291D01*
X132794878Y-100675908D01*
X132794883Y-100675908D01*
X132798655Y-100676195D01*
X133130450Y-100661418D01*
X133458067Y-100606888D01*
X133461701Y-100605822D01*
X133461705Y-100605821D01*
X133622108Y-100558763D01*
X133776759Y-100513393D01*
X133817583Y-100495854D01*
X134051467Y-100395370D01*
X134081912Y-100382290D01*
X134369103Y-100215475D01*
X134525414Y-100097473D01*
X139153750Y-100097473D01*
X139154914Y-100106375D01*
X139154914Y-100106378D01*
X139162760Y-100166374D01*
X139172488Y-100240765D01*
X139230689Y-100373039D01*
X139323676Y-100483660D01*
X139331147Y-100488633D01*
X139331148Y-100488634D01*
X139436501Y-100558763D01*
X139436503Y-100558764D01*
X139443974Y-100563737D01*
X139452538Y-100566413D01*
X139452541Y-100566414D01*
X139512127Y-100585030D01*
X139581910Y-100606832D01*
X139726398Y-100609480D01*
X139735509Y-100606996D01*
X139857163Y-100573830D01*
X139857165Y-100573829D01*
X139865822Y-100571469D01*
X139988972Y-100495854D01*
X140085951Y-100388714D01*
X140148960Y-100258662D01*
X140172936Y-100116153D01*
X140173088Y-100103700D01*
X140152601Y-99960648D01*
X140092788Y-99829095D01*
X140086930Y-99822296D01*
X140086927Y-99822292D01*
X140004316Y-99726418D01*
X140004313Y-99726416D01*
X139998456Y-99719618D01*
X139877190Y-99641017D01*
X139860321Y-99635972D01*
X139747338Y-99602182D01*
X139747336Y-99602182D01*
X139738737Y-99599610D01*
X139729763Y-99599555D01*
X139729761Y-99599555D01*
X139666482Y-99599169D01*
X139594227Y-99598728D01*
X139585596Y-99601195D01*
X139585594Y-99601195D01*
X139463909Y-99635972D01*
X139463905Y-99635974D01*
X139455279Y-99638439D01*
X139333061Y-99715553D01*
X139237399Y-99823870D01*
X139175983Y-99954682D01*
X139174603Y-99963546D01*
X139174602Y-99963549D01*
X139166944Y-100012736D01*
X139153750Y-100097473D01*
X134525414Y-100097473D01*
X134634175Y-100015367D01*
X134873286Y-99784863D01*
X134923764Y-99722861D01*
X135080582Y-99530239D01*
X135080583Y-99530238D01*
X135082973Y-99527302D01*
X135103623Y-99494574D01*
X135258176Y-99249623D01*
X135258179Y-99249617D01*
X135260199Y-99246416D01*
X135402397Y-98946273D01*
X135507506Y-98631220D01*
X135570439Y-98323273D01*
X138603050Y-98323273D01*
X138604214Y-98332175D01*
X138604214Y-98332178D01*
X138620624Y-98457664D01*
X138621788Y-98466565D01*
X138679989Y-98598839D01*
X138772976Y-98709460D01*
X138780447Y-98714433D01*
X138780448Y-98714434D01*
X138885801Y-98784563D01*
X138885803Y-98784564D01*
X138893274Y-98789537D01*
X138901838Y-98792213D01*
X138901841Y-98792214D01*
X138962242Y-98811084D01*
X139031210Y-98832632D01*
X139175698Y-98835280D01*
X139195230Y-98829955D01*
X139306463Y-98799630D01*
X139306465Y-98799629D01*
X139315122Y-98797269D01*
X139438272Y-98721654D01*
X139535251Y-98614514D01*
X139598260Y-98484462D01*
X139622236Y-98341953D01*
X139622388Y-98329500D01*
X139612047Y-98257296D01*
X139603174Y-98195335D01*
X139603173Y-98195333D01*
X139601901Y-98186448D01*
X139548443Y-98068873D01*
X152068150Y-98068873D01*
X152069314Y-98077775D01*
X152069314Y-98077778D01*
X152082745Y-98180482D01*
X152086888Y-98212165D01*
X152145089Y-98344439D01*
X152238076Y-98455060D01*
X152245547Y-98460033D01*
X152245548Y-98460034D01*
X152350901Y-98530163D01*
X152350903Y-98530164D01*
X152358374Y-98535137D01*
X152366938Y-98537813D01*
X152366941Y-98537814D01*
X152408456Y-98550784D01*
X152496310Y-98578232D01*
X152640798Y-98580880D01*
X152660330Y-98575555D01*
X152771563Y-98545230D01*
X152771565Y-98545229D01*
X152780222Y-98542869D01*
X152903372Y-98467254D01*
X152912053Y-98457664D01*
X152994326Y-98366770D01*
X153000351Y-98360114D01*
X153063360Y-98230062D01*
X153087336Y-98087553D01*
X153087488Y-98075100D01*
X153077147Y-98002896D01*
X153068274Y-97940935D01*
X153068273Y-97940933D01*
X153067001Y-97932048D01*
X153007188Y-97800495D01*
X153001330Y-97793696D01*
X153001327Y-97793692D01*
X152918716Y-97697818D01*
X152918713Y-97697816D01*
X152912856Y-97691018D01*
X152791590Y-97612417D01*
X152774721Y-97607372D01*
X152661738Y-97573582D01*
X152661736Y-97573582D01*
X152653137Y-97571010D01*
X152644163Y-97570955D01*
X152644161Y-97570955D01*
X152580882Y-97570569D01*
X152508627Y-97570128D01*
X152499996Y-97572595D01*
X152499994Y-97572595D01*
X152378309Y-97607372D01*
X152378305Y-97607374D01*
X152369679Y-97609839D01*
X152247461Y-97686953D01*
X152151799Y-97795270D01*
X152147985Y-97803393D01*
X152147984Y-97803395D01*
X152137674Y-97825355D01*
X152090383Y-97926082D01*
X152089003Y-97934946D01*
X152089002Y-97934949D01*
X152069875Y-98057795D01*
X152068150Y-98068873D01*
X139548443Y-98068873D01*
X139542088Y-98054895D01*
X139536230Y-98048096D01*
X139536227Y-98048092D01*
X139453616Y-97952218D01*
X139453613Y-97952216D01*
X139447756Y-97945418D01*
X139387123Y-97906117D01*
X139334024Y-97871700D01*
X139334022Y-97871699D01*
X139326490Y-97866817D01*
X139309621Y-97861772D01*
X139196638Y-97827982D01*
X139196636Y-97827982D01*
X139188037Y-97825410D01*
X139179063Y-97825355D01*
X139179061Y-97825355D01*
X139115782Y-97824969D01*
X139043527Y-97824528D01*
X139034896Y-97826995D01*
X139034894Y-97826995D01*
X138913209Y-97861772D01*
X138913205Y-97861774D01*
X138904579Y-97864239D01*
X138896992Y-97869026D01*
X138896990Y-97869027D01*
X138789954Y-97936562D01*
X138782361Y-97941353D01*
X138776418Y-97948082D01*
X138776417Y-97948083D01*
X138750856Y-97977026D01*
X138686699Y-98049670D01*
X138682885Y-98057793D01*
X138682884Y-98057795D01*
X138673502Y-98077778D01*
X138625283Y-98180482D01*
X138623903Y-98189346D01*
X138623902Y-98189349D01*
X138606357Y-98302035D01*
X138603050Y-98323273D01*
X135570439Y-98323273D01*
X135574005Y-98305822D01*
X135600930Y-97974791D01*
X135601347Y-97934949D01*
X135601512Y-97919221D01*
X135601512Y-97919214D01*
X135601535Y-97917000D01*
X135598355Y-97864239D01*
X135581777Y-97589256D01*
X135581777Y-97589252D01*
X135581549Y-97585478D01*
X135580869Y-97581754D01*
X135522559Y-97262481D01*
X135522558Y-97262477D01*
X135521879Y-97258759D01*
X135513177Y-97230732D01*
X135424513Y-96945189D01*
X135423391Y-96941574D01*
X135412913Y-96918203D01*
X135350172Y-96778272D01*
X135287510Y-96638518D01*
X135116205Y-96353982D01*
X135113878Y-96350998D01*
X135113873Y-96350991D01*
X134914294Y-96095082D01*
X134914292Y-96095079D01*
X134911958Y-96092087D01*
X134677726Y-95856626D01*
X134656865Y-95840180D01*
X134419885Y-95653360D01*
X134416904Y-95651010D01*
X134142112Y-95483605D01*
X134094343Y-95431082D01*
X134082553Y-95361071D01*
X134110485Y-95295800D01*
X134169271Y-95255992D01*
X134207665Y-95250000D01*
X156879217Y-95250000D01*
X156947338Y-95270002D01*
G37*
%TD.AperFunction*%
%TD*%
M02*
