M48
; DRILL file {KiCad (5.1.8)-1} date 06/05/21 10:25:29
; FORMAT={-:-/ absolute / inch / decimal}
; #@! TF.CreationDate,2021-06-05T10:25:29+02:00
; #@! TF.GenerationSoftware,Kicad,Pcbnew,(5.1.8)-1
; #@! TF.FileFunction,Plated,1,4,PTH
FMAT,2
INCH
T1C0.0118
T2C0.0157
T3C0.0197
T4C0.0236
T5C0.0315
T6C0.0984
%
G90
G05
T1
X5.26Y-5.14
X5.46Y-4.995
X5.46Y-4.965
X5.46Y-5.0194
X5.47Y-4.135
X5.476Y-4.286
X5.49Y-4.9269
X5.515Y-4.925
X5.54Y-4.925
X5.565Y-4.925
X5.57Y-4.725
X5.59Y-4.925
X5.615Y-4.925
X5.625Y-4.885
X5.64Y-4.59
X5.645Y-4.91
X5.665Y-4.925
X5.675Y-4.17
X5.675Y-4.215
X5.675Y-4.24
X5.6913Y-4.925
X5.745Y-4.295
X5.745Y-5.05
X5.775Y-4.295
X5.78Y-5.125
X5.81Y-5.06
X5.8445Y-4.6156
X5.845Y-4.735
X5.8656Y-5.1197
X5.868Y-4.68
X5.88Y-4.74
X5.9Y-4.68
X5.905Y-4.965
X5.915Y-4.805
X5.9276Y-4.68
X5.9326Y-4.9655
X5.995Y-5.045
X6.0117Y-4.8698
X6.0126Y-4.615
X6.065Y-4.99
X6.065Y-5.125
X6.095Y-5.055
X6.1Y-4.81
X6.165Y-4.595
X6.195Y-4.385
X6.22Y-4.865
X6.225Y-4.55
X6.235Y-4.785
X6.25Y-4.87
X6.2986Y-4.7786
X6.31Y-4.875
X6.315Y-5.18
T2
X5.155Y-4.875
X5.155Y-5.08
X5.26Y-4.195
X5.26Y-4.235
X5.2635Y-4.4698
X5.2983Y-4.635
X5.335Y-4.865
X5.415Y-4.535
X5.435Y-4.715
X5.435Y-4.7544
X5.45Y-4.535
X5.46Y-4.485
X5.4715Y-4.01
X5.4715Y-4.055
X5.48Y-4.845
X5.485Y-4.775
X5.485Y-4.805
X5.49Y-4.535
X5.5Y-4.31
X5.5Y-4.485
X5.565Y-4.77
X5.58Y-4.655
X5.59Y-3.965
X5.6Y-4.13
X5.6Y-4.59
X5.615Y-5.0584
X5.615Y-4.98
X5.615Y-5.015
X5.62Y-4.845
X5.64Y-4.705
X5.645Y-4.295
X5.7048Y-4.1402
X5.71Y-4.295
X5.75Y-4.14
X5.75Y-4.52
X5.78Y-3.9
X5.795Y-4.14
X5.805Y-4.925
X5.805Y-4.885
X5.815Y-4.295
X5.815Y-4.615
X5.825Y-4.525
X5.835Y-5.035
X5.8449Y-4.8863
X5.845Y-5.2041
X5.855Y-4.295
X5.88Y-3.9
X5.885Y-4.885
X5.9494Y-4.0256
X5.95Y-4.07
X5.995Y-4.14
X5.995Y-4.44
X5.995Y-4.485
X5.995Y-5.2041
X6.065Y-4.895
X6.065Y-4.94
X6.095Y-5.0215
X6.1Y-4.725
X6.105Y-4.55
X6.11Y-3.95
X6.1159Y-3.9111
X6.1225Y-4.0875
X6.195Y-4.275
X6.195Y-4.315
T3
X5.1562Y-5.285
X5.1778Y-5.2328
X5.1778Y-5.3372
X5.23Y-5.2112
X5.23Y-5.3588
X5.2822Y-5.2328
X5.2822Y-5.3372
X5.3038Y-5.285
X6.1562Y-5.285
X6.1778Y-5.2328
X6.1778Y-5.3372
X6.23Y-5.2112
X6.23Y-5.3588
X6.2822Y-5.2328
X6.2822Y-5.3372
X6.3038Y-5.285
X6.1562Y-3.99
X6.1778Y-3.9378
X6.1778Y-4.0422
X6.23Y-3.9162
X6.23Y-4.0638
X6.2822Y-3.9378
X6.2822Y-4.0422
X6.3038Y-3.99
X5.1562Y-3.99
X5.1778Y-3.9378
X5.1778Y-4.0422
X5.23Y-3.9162
X5.23Y-4.0638
X5.2822Y-3.9378
X5.2822Y-4.0422
X5.3038Y-3.99
T5
X5.1489Y-4.507
X5.1489Y-4.753
T6
X5.23Y-3.99
X5.23Y-5.285
X6.23Y-5.285
X6.23Y-3.99
T4
G00X5.7499Y-5.1588
M15
G01X5.7499Y-5.2021
M16
G05
G00X5.7499Y-5.3293
M15
G01X5.7499Y-5.3607
M16
G05
G00X6.0901Y-5.1588
M15
G01X6.0901Y-5.2021
M16
G05
G00X6.0901Y-5.3293
M15
G01X6.0901Y-5.3607
M16
G05
T0
M30
