G04 #@! TF.GenerationSoftware,KiCad,Pcbnew,(5.1.8)-1*
G04 #@! TF.CreationDate,2021-06-06T23:51:57+02:00*
G04 #@! TF.ProjectId,trick-tracker,74726963-6b2d-4747-9261-636b65722e6b,rev?*
G04 #@! TF.SameCoordinates,Original*
G04 #@! TF.FileFunction,Legend,Top*
G04 #@! TF.FilePolarity,Positive*
%FSLAX46Y46*%
G04 Gerber Fmt 4.6, Leading zero omitted, Abs format (unit mm)*
G04 Created by KiCad (PCBNEW (5.1.8)-1) date 2021-06-06 23:51:57*
%MOMM*%
%LPD*%
G01*
G04 APERTURE LIST*
%ADD10C,0.150000*%
%ADD11C,0.120000*%
%ADD12C,0.200000*%
%ADD13C,0.254000*%
%ADD14C,0.010000*%
%ADD15C,0.100000*%
%ADD16C,0.127000*%
%ADD17C,0.160000*%
G04 APERTURE END LIST*
D10*
X148641000Y-116857428D02*
X148641000Y-116257428D01*
X148783857Y-116257428D01*
X148869571Y-116286000D01*
X148926714Y-116343142D01*
X148955285Y-116400285D01*
X148983857Y-116514571D01*
X148983857Y-116600285D01*
X148955285Y-116714571D01*
X148926714Y-116771714D01*
X148869571Y-116828857D01*
X148783857Y-116857428D01*
X148641000Y-116857428D01*
X149241000Y-116857428D02*
X149241000Y-116257428D01*
X149469571Y-116257428D01*
X149526714Y-116286000D01*
X149555285Y-116314571D01*
X149583857Y-116371714D01*
X149583857Y-116457428D01*
X149555285Y-116514571D01*
X149526714Y-116543142D01*
X149469571Y-116571714D01*
X149241000Y-116571714D01*
X149812428Y-116828857D02*
X149898142Y-116857428D01*
X150041000Y-116857428D01*
X150098142Y-116828857D01*
X150126714Y-116800285D01*
X150155285Y-116743142D01*
X150155285Y-116686000D01*
X150126714Y-116628857D01*
X150098142Y-116600285D01*
X150041000Y-116571714D01*
X149926714Y-116543142D01*
X149869571Y-116514571D01*
X149841000Y-116486000D01*
X149812428Y-116428857D01*
X149812428Y-116371714D01*
X149841000Y-116314571D01*
X149869571Y-116286000D01*
X149926714Y-116257428D01*
X150069571Y-116257428D01*
X150155285Y-116286000D01*
X150355285Y-116257428D02*
X150726714Y-116257428D01*
X150526714Y-116486000D01*
X150612428Y-116486000D01*
X150669571Y-116514571D01*
X150698142Y-116543142D01*
X150726714Y-116600285D01*
X150726714Y-116743142D01*
X150698142Y-116800285D01*
X150669571Y-116828857D01*
X150612428Y-116857428D01*
X150441000Y-116857428D01*
X150383857Y-116828857D01*
X150355285Y-116800285D01*
X151241000Y-116257428D02*
X151126714Y-116257428D01*
X151069571Y-116286000D01*
X151041000Y-116314571D01*
X150983857Y-116400285D01*
X150955285Y-116514571D01*
X150955285Y-116743142D01*
X150983857Y-116800285D01*
X151012428Y-116828857D01*
X151069571Y-116857428D01*
X151183857Y-116857428D01*
X151241000Y-116828857D01*
X151269571Y-116800285D01*
X151298142Y-116743142D01*
X151298142Y-116600285D01*
X151269571Y-116543142D01*
X151241000Y-116514571D01*
X151183857Y-116486000D01*
X151069571Y-116486000D01*
X151012428Y-116514571D01*
X150983857Y-116543142D01*
X150955285Y-116600285D01*
X151641000Y-116514571D02*
X151583857Y-116486000D01*
X151555285Y-116457428D01*
X151526714Y-116400285D01*
X151526714Y-116371714D01*
X151555285Y-116314571D01*
X151583857Y-116286000D01*
X151641000Y-116257428D01*
X151755285Y-116257428D01*
X151812428Y-116286000D01*
X151841000Y-116314571D01*
X151869571Y-116371714D01*
X151869571Y-116400285D01*
X151841000Y-116457428D01*
X151812428Y-116486000D01*
X151755285Y-116514571D01*
X151641000Y-116514571D01*
X151583857Y-116543142D01*
X151555285Y-116571714D01*
X151526714Y-116628857D01*
X151526714Y-116743142D01*
X151555285Y-116800285D01*
X151583857Y-116828857D01*
X151641000Y-116857428D01*
X151755285Y-116857428D01*
X151812428Y-116828857D01*
X151841000Y-116800285D01*
X151869571Y-116743142D01*
X151869571Y-116628857D01*
X151841000Y-116571714D01*
X151812428Y-116543142D01*
X151755285Y-116514571D01*
X144480142Y-104224142D02*
X144565857Y-104252714D01*
X144594428Y-104281285D01*
X144623000Y-104338428D01*
X144623000Y-104424142D01*
X144594428Y-104481285D01*
X144565857Y-104509857D01*
X144508714Y-104538428D01*
X144280142Y-104538428D01*
X144280142Y-103938428D01*
X144480142Y-103938428D01*
X144537285Y-103967000D01*
X144565857Y-103995571D01*
X144594428Y-104052714D01*
X144594428Y-104109857D01*
X144565857Y-104167000D01*
X144537285Y-104195571D01*
X144480142Y-104224142D01*
X144280142Y-104224142D01*
X144880142Y-104538428D02*
X144880142Y-103938428D01*
X145080142Y-104367000D01*
X145280142Y-103938428D01*
X145280142Y-104538428D01*
X145508714Y-103938428D02*
X145908714Y-104538428D01*
X145908714Y-103938428D02*
X145508714Y-104538428D01*
X146451571Y-104538428D02*
X146108714Y-104538428D01*
X146280142Y-104538428D02*
X146280142Y-103938428D01*
X146223000Y-104024142D01*
X146165857Y-104081285D01*
X146108714Y-104109857D01*
X146965857Y-103938428D02*
X146851571Y-103938428D01*
X146794428Y-103967000D01*
X146765857Y-103995571D01*
X146708714Y-104081285D01*
X146680142Y-104195571D01*
X146680142Y-104424142D01*
X146708714Y-104481285D01*
X146737285Y-104509857D01*
X146794428Y-104538428D01*
X146908714Y-104538428D01*
X146965857Y-104509857D01*
X146994428Y-104481285D01*
X147023000Y-104424142D01*
X147023000Y-104281285D01*
X146994428Y-104224142D01*
X146965857Y-104195571D01*
X146908714Y-104167000D01*
X146794428Y-104167000D01*
X146737285Y-104195571D01*
X146708714Y-104224142D01*
X146680142Y-104281285D01*
X147394428Y-103938428D02*
X147451571Y-103938428D01*
X147508714Y-103967000D01*
X147537285Y-103995571D01*
X147565857Y-104052714D01*
X147594428Y-104167000D01*
X147594428Y-104309857D01*
X147565857Y-104424142D01*
X147537285Y-104481285D01*
X147508714Y-104509857D01*
X147451571Y-104538428D01*
X147394428Y-104538428D01*
X147337285Y-104509857D01*
X147308714Y-104481285D01*
X147280142Y-104424142D01*
X147251571Y-104309857D01*
X147251571Y-104167000D01*
X147280142Y-104052714D01*
X147308714Y-103995571D01*
X147337285Y-103967000D01*
X147394428Y-103938428D01*
X142367047Y-125801428D02*
X143128952Y-125801428D01*
X137668047Y-125801428D02*
X138429952Y-125801428D01*
X138049000Y-126182380D02*
X138049000Y-125420476D01*
X155960857Y-116095428D02*
X155960857Y-115495428D01*
X156103714Y-115495428D01*
X156189428Y-115524000D01*
X156246571Y-115581142D01*
X156275142Y-115638285D01*
X156303714Y-115752571D01*
X156303714Y-115838285D01*
X156275142Y-115952571D01*
X156246571Y-116009714D01*
X156189428Y-116066857D01*
X156103714Y-116095428D01*
X155960857Y-116095428D01*
X156760857Y-115781142D02*
X156846571Y-115809714D01*
X156875142Y-115838285D01*
X156903714Y-115895428D01*
X156903714Y-115981142D01*
X156875142Y-116038285D01*
X156846571Y-116066857D01*
X156789428Y-116095428D01*
X156560857Y-116095428D01*
X156560857Y-115495428D01*
X156760857Y-115495428D01*
X156818000Y-115524000D01*
X156846571Y-115552571D01*
X156875142Y-115609714D01*
X156875142Y-115666857D01*
X156846571Y-115724000D01*
X156818000Y-115752571D01*
X156760857Y-115781142D01*
X156560857Y-115781142D01*
X157475142Y-115524000D02*
X157418000Y-115495428D01*
X157332285Y-115495428D01*
X157246571Y-115524000D01*
X157189428Y-115581142D01*
X157160857Y-115638285D01*
X157132285Y-115752571D01*
X157132285Y-115838285D01*
X157160857Y-115952571D01*
X157189428Y-116009714D01*
X157246571Y-116066857D01*
X157332285Y-116095428D01*
X157389428Y-116095428D01*
X157475142Y-116066857D01*
X157503714Y-116038285D01*
X157503714Y-115838285D01*
X157389428Y-115838285D01*
X140516000Y-106986428D02*
X140916000Y-106986428D01*
X140516000Y-107586428D01*
X140916000Y-107586428D01*
D11*
X141351000Y-107950000D02*
X141097000Y-107823000D01*
X141224000Y-108077000D02*
X141351000Y-107950000D01*
X141097000Y-107823000D02*
X141224000Y-108077000D01*
X141859000Y-108585000D02*
X141097000Y-107823000D01*
D10*
X139319000Y-108570714D02*
X139319000Y-108856428D01*
X139119000Y-108256428D02*
X139319000Y-108570714D01*
X139519000Y-108256428D01*
X141659000Y-105589428D02*
X142059000Y-106189428D01*
X142059000Y-105589428D02*
X141659000Y-106189428D01*
D11*
X139954000Y-108712000D02*
X139700000Y-108585000D01*
X139700000Y-108585000D02*
X139954000Y-108712000D01*
X139700000Y-108585000D02*
X139954000Y-108458000D01*
X139954000Y-108458000D02*
X139954000Y-108712000D01*
X141351000Y-108585000D02*
X139700000Y-108585000D01*
X141986000Y-106680000D02*
X141732000Y-106680000D01*
X141859000Y-106426000D02*
X141986000Y-106680000D01*
X141732000Y-106680000D02*
X141859000Y-106426000D01*
X141859000Y-106426000D02*
X141732000Y-106680000D01*
X141859000Y-108077000D02*
X141859000Y-106426000D01*
X142142981Y-108585000D02*
G75*
G03*
X142142981Y-108585000I-283981J0D01*
G01*
X141986000Y-108585000D02*
G75*
G03*
X141986000Y-108585000I-127000J0D01*
G01*
X148209000Y-100838000D02*
X148209000Y-100772000D01*
X148209000Y-100965000D02*
X148209000Y-100838000D01*
X145669000Y-101473000D02*
X145923000Y-101473000D01*
X145669000Y-100838000D02*
X145669000Y-101473000D01*
X148209000Y-101473000D02*
X147955000Y-101473000D01*
X148209000Y-100965000D02*
X148209000Y-101473000D01*
D10*
X158910428Y-122117285D02*
X158881857Y-122145857D01*
X158796142Y-122174428D01*
X158739000Y-122174428D01*
X158653285Y-122145857D01*
X158596142Y-122088714D01*
X158567571Y-122031571D01*
X158539000Y-121917285D01*
X158539000Y-121831571D01*
X158567571Y-121717285D01*
X158596142Y-121660142D01*
X158653285Y-121603000D01*
X158739000Y-121574428D01*
X158796142Y-121574428D01*
X158881857Y-121603000D01*
X158910428Y-121631571D01*
X159167571Y-122174428D02*
X159167571Y-121574428D01*
X159167571Y-121860142D02*
X159510428Y-121860142D01*
X159510428Y-122174428D02*
X159510428Y-121574428D01*
X160139000Y-122174428D02*
X159939000Y-121888714D01*
X159796142Y-122174428D02*
X159796142Y-121574428D01*
X160024714Y-121574428D01*
X160081857Y-121603000D01*
X160110428Y-121631571D01*
X160139000Y-121688714D01*
X160139000Y-121774428D01*
X160110428Y-121831571D01*
X160081857Y-121860142D01*
X160024714Y-121888714D01*
X159796142Y-121888714D01*
X160710428Y-121603000D02*
X160653285Y-121574428D01*
X160567571Y-121574428D01*
X160481857Y-121603000D01*
X160424714Y-121660142D01*
X160396142Y-121717285D01*
X160367571Y-121831571D01*
X160367571Y-121917285D01*
X160396142Y-122031571D01*
X160424714Y-122088714D01*
X160481857Y-122145857D01*
X160567571Y-122174428D01*
X160624714Y-122174428D01*
X160710428Y-122145857D01*
X160739000Y-122117285D01*
X160739000Y-121917285D01*
X160624714Y-121917285D01*
X158581857Y-123224428D02*
X158581857Y-122624428D01*
X158724714Y-122624428D01*
X158810428Y-122653000D01*
X158867571Y-122710142D01*
X158896142Y-122767285D01*
X158924714Y-122881571D01*
X158924714Y-122967285D01*
X158896142Y-123081571D01*
X158867571Y-123138714D01*
X158810428Y-123195857D01*
X158724714Y-123224428D01*
X158581857Y-123224428D01*
X159296142Y-122624428D02*
X159410428Y-122624428D01*
X159467571Y-122653000D01*
X159524714Y-122710142D01*
X159553285Y-122824428D01*
X159553285Y-123024428D01*
X159524714Y-123138714D01*
X159467571Y-123195857D01*
X159410428Y-123224428D01*
X159296142Y-123224428D01*
X159239000Y-123195857D01*
X159181857Y-123138714D01*
X159153285Y-123024428D01*
X159153285Y-122824428D01*
X159181857Y-122710142D01*
X159239000Y-122653000D01*
X159296142Y-122624428D01*
X159810428Y-123224428D02*
X159810428Y-122624428D01*
X160153285Y-123224428D01*
X160153285Y-122624428D01*
X160439000Y-122910142D02*
X160639000Y-122910142D01*
X160724714Y-123224428D02*
X160439000Y-123224428D01*
X160439000Y-122624428D01*
X160724714Y-122624428D01*
X159037428Y-116038285D02*
X159008857Y-116066857D01*
X158923142Y-116095428D01*
X158866000Y-116095428D01*
X158780285Y-116066857D01*
X158723142Y-116009714D01*
X158694571Y-115952571D01*
X158666000Y-115838285D01*
X158666000Y-115752571D01*
X158694571Y-115638285D01*
X158723142Y-115581142D01*
X158780285Y-115524000D01*
X158866000Y-115495428D01*
X158923142Y-115495428D01*
X159008857Y-115524000D01*
X159037428Y-115552571D01*
X159294571Y-116095428D02*
X159294571Y-115495428D01*
X159294571Y-115781142D02*
X159637428Y-115781142D01*
X159637428Y-116095428D02*
X159637428Y-115495428D01*
X160266000Y-116095428D02*
X160066000Y-115809714D01*
X159923142Y-116095428D02*
X159923142Y-115495428D01*
X160151714Y-115495428D01*
X160208857Y-115524000D01*
X160237428Y-115552571D01*
X160266000Y-115609714D01*
X160266000Y-115695428D01*
X160237428Y-115752571D01*
X160208857Y-115781142D01*
X160151714Y-115809714D01*
X159923142Y-115809714D01*
X160837428Y-115524000D02*
X160780285Y-115495428D01*
X160694571Y-115495428D01*
X160608857Y-115524000D01*
X160551714Y-115581142D01*
X160523142Y-115638285D01*
X160494571Y-115752571D01*
X160494571Y-115838285D01*
X160523142Y-115952571D01*
X160551714Y-116009714D01*
X160608857Y-116066857D01*
X160694571Y-116095428D01*
X160751714Y-116095428D01*
X160837428Y-116066857D01*
X160866000Y-116038285D01*
X160866000Y-115838285D01*
X160751714Y-115838285D01*
X134948571Y-119897714D02*
X134948571Y-120012000D01*
X134920000Y-120069142D01*
X134862857Y-120126285D01*
X134748571Y-120154857D01*
X134548571Y-120154857D01*
X134434285Y-120126285D01*
X134377142Y-120069142D01*
X134348571Y-120012000D01*
X134348571Y-119897714D01*
X134377142Y-119840571D01*
X134434285Y-119783428D01*
X134548571Y-119754857D01*
X134748571Y-119754857D01*
X134862857Y-119783428D01*
X134920000Y-119840571D01*
X134948571Y-119897714D01*
X134662857Y-120612000D02*
X134662857Y-120412000D01*
X134348571Y-120412000D02*
X134948571Y-120412000D01*
X134948571Y-120697714D01*
X134662857Y-121126285D02*
X134662857Y-120926285D01*
X134348571Y-120926285D02*
X134948571Y-120926285D01*
X134948571Y-121212000D01*
X134977142Y-121869142D02*
X134205714Y-121354857D01*
X134948571Y-122183428D02*
X134948571Y-122297714D01*
X134920000Y-122354857D01*
X134862857Y-122412000D01*
X134748571Y-122440571D01*
X134548571Y-122440571D01*
X134434285Y-122412000D01*
X134377142Y-122354857D01*
X134348571Y-122297714D01*
X134348571Y-122183428D01*
X134377142Y-122126285D01*
X134434285Y-122069142D01*
X134548571Y-122040571D01*
X134748571Y-122040571D01*
X134862857Y-122069142D01*
X134920000Y-122126285D01*
X134948571Y-122183428D01*
X134348571Y-122697714D02*
X134948571Y-122697714D01*
X134348571Y-123040571D01*
X134948571Y-123040571D01*
X158527857Y-96899428D02*
X158670714Y-97299428D01*
X158813571Y-96899428D01*
X159356428Y-97299428D02*
X159013571Y-97299428D01*
X159185000Y-97299428D02*
X159185000Y-96699428D01*
X159127857Y-96785142D01*
X159070714Y-96842285D01*
X159013571Y-96870857D01*
X159613571Y-97242285D02*
X159642142Y-97270857D01*
X159613571Y-97299428D01*
X159585000Y-97270857D01*
X159613571Y-97242285D01*
X159613571Y-97299428D01*
X160013571Y-96699428D02*
X160070714Y-96699428D01*
X160127857Y-96728000D01*
X160156428Y-96756571D01*
X160185000Y-96813714D01*
X160213571Y-96928000D01*
X160213571Y-97070857D01*
X160185000Y-97185142D01*
X160156428Y-97242285D01*
X160127857Y-97270857D01*
X160070714Y-97299428D01*
X160013571Y-97299428D01*
X159956428Y-97270857D01*
X159927857Y-97242285D01*
X159899285Y-97185142D01*
X159870714Y-97070857D01*
X159870714Y-96928000D01*
X159899285Y-96813714D01*
X159927857Y-96756571D01*
X159956428Y-96728000D01*
X160013571Y-96699428D01*
X157056142Y-128835000D02*
X157056142Y-128635000D01*
X157370428Y-128549285D02*
X157370428Y-128835000D01*
X156770428Y-128835000D01*
X156770428Y-128549285D01*
X156770428Y-128377857D02*
X157370428Y-128177857D01*
X156770428Y-127977857D01*
X157056142Y-127777857D02*
X157056142Y-127577857D01*
X157370428Y-127492142D02*
X157370428Y-127777857D01*
X156770428Y-127777857D01*
X156770428Y-127492142D01*
X157370428Y-127235000D02*
X156770428Y-127235000D01*
X157370428Y-126892142D01*
X156770428Y-126892142D01*
X156770428Y-126692142D02*
X156770428Y-126349285D01*
X157370428Y-126520714D02*
X156770428Y-126520714D01*
X133840571Y-126890571D02*
X134126285Y-126690571D01*
X133840571Y-126547714D02*
X134440571Y-126547714D01*
X134440571Y-126776285D01*
X134412000Y-126833428D01*
X134383428Y-126862000D01*
X134326285Y-126890571D01*
X134240571Y-126890571D01*
X134183428Y-126862000D01*
X134154857Y-126833428D01*
X134126285Y-126776285D01*
X134126285Y-126547714D01*
X134154857Y-127147714D02*
X134154857Y-127347714D01*
X133840571Y-127433428D02*
X133840571Y-127147714D01*
X134440571Y-127147714D01*
X134440571Y-127433428D01*
X133869142Y-127662000D02*
X133840571Y-127747714D01*
X133840571Y-127890571D01*
X133869142Y-127947714D01*
X133897714Y-127976285D01*
X133954857Y-128004857D01*
X134012000Y-128004857D01*
X134069142Y-127976285D01*
X134097714Y-127947714D01*
X134126285Y-127890571D01*
X134154857Y-127776285D01*
X134183428Y-127719142D01*
X134212000Y-127690571D01*
X134269142Y-127662000D01*
X134326285Y-127662000D01*
X134383428Y-127690571D01*
X134412000Y-127719142D01*
X134440571Y-127776285D01*
X134440571Y-127919142D01*
X134412000Y-128004857D01*
X134154857Y-128262000D02*
X134154857Y-128462000D01*
X133840571Y-128547714D02*
X133840571Y-128262000D01*
X134440571Y-128262000D01*
X134440571Y-128547714D01*
X134440571Y-128719142D02*
X134440571Y-129062000D01*
X133840571Y-128890571D02*
X134440571Y-128890571D01*
X152874714Y-101144428D02*
X153217571Y-101144428D01*
X153046142Y-101744428D02*
X153046142Y-101144428D01*
X153360428Y-101744428D02*
X153674714Y-101344428D01*
X153360428Y-101344428D02*
X153674714Y-101744428D01*
X150691857Y-101744428D02*
X150491857Y-101458714D01*
X150349000Y-101744428D02*
X150349000Y-101144428D01*
X150577571Y-101144428D01*
X150634714Y-101173000D01*
X150663285Y-101201571D01*
X150691857Y-101258714D01*
X150691857Y-101344428D01*
X150663285Y-101401571D01*
X150634714Y-101430142D01*
X150577571Y-101458714D01*
X150349000Y-101458714D01*
X150891857Y-101744428D02*
X151206142Y-101344428D01*
X150891857Y-101344428D02*
X151206142Y-101744428D01*
X146481857Y-101173000D02*
X146424714Y-101144428D01*
X146339000Y-101144428D01*
X146253285Y-101173000D01*
X146196142Y-101230142D01*
X146167571Y-101287285D01*
X146139000Y-101401571D01*
X146139000Y-101487285D01*
X146167571Y-101601571D01*
X146196142Y-101658714D01*
X146253285Y-101715857D01*
X146339000Y-101744428D01*
X146396142Y-101744428D01*
X146481857Y-101715857D01*
X146510428Y-101687285D01*
X146510428Y-101487285D01*
X146396142Y-101487285D01*
X146767571Y-101744428D02*
X146767571Y-101144428D01*
X147110428Y-101744428D01*
X147110428Y-101144428D01*
X147396142Y-101744428D02*
X147396142Y-101144428D01*
X147539000Y-101144428D01*
X147624714Y-101173000D01*
X147681857Y-101230142D01*
X147710428Y-101287285D01*
X147739000Y-101401571D01*
X147739000Y-101487285D01*
X147710428Y-101601571D01*
X147681857Y-101658714D01*
X147624714Y-101715857D01*
X147539000Y-101744428D01*
X147396142Y-101744428D01*
X142386142Y-101144428D02*
X142757571Y-101144428D01*
X142557571Y-101373000D01*
X142643285Y-101373000D01*
X142700428Y-101401571D01*
X142729000Y-101430142D01*
X142757571Y-101487285D01*
X142757571Y-101630142D01*
X142729000Y-101687285D01*
X142700428Y-101715857D01*
X142643285Y-101744428D01*
X142471857Y-101744428D01*
X142414714Y-101715857D01*
X142386142Y-101687285D01*
X142929000Y-101144428D02*
X143129000Y-101744428D01*
X143329000Y-101144428D01*
X143471857Y-101144428D02*
X143843285Y-101144428D01*
X143643285Y-101373000D01*
X143729000Y-101373000D01*
X143786142Y-101401571D01*
X143814714Y-101430142D01*
X143843285Y-101487285D01*
X143843285Y-101630142D01*
X143814714Y-101687285D01*
X143786142Y-101715857D01*
X143729000Y-101744428D01*
X143557571Y-101744428D01*
X143500428Y-101715857D01*
X143471857Y-101687285D01*
X139974714Y-101744428D02*
X139974714Y-101144428D01*
X140117571Y-101144428D01*
X140203285Y-101173000D01*
X140260428Y-101230142D01*
X140289000Y-101287285D01*
X140317571Y-101401571D01*
X140317571Y-101487285D01*
X140289000Y-101601571D01*
X140260428Y-101658714D01*
X140203285Y-101715857D01*
X140117571Y-101744428D01*
X139974714Y-101744428D01*
X140574714Y-101744428D02*
X140574714Y-101144428D01*
X140974714Y-101144428D02*
X141089000Y-101144428D01*
X141146142Y-101173000D01*
X141203285Y-101230142D01*
X141231857Y-101344428D01*
X141231857Y-101544428D01*
X141203285Y-101658714D01*
X141146142Y-101715857D01*
X141089000Y-101744428D01*
X140974714Y-101744428D01*
X140917571Y-101715857D01*
X140860428Y-101658714D01*
X140831857Y-101544428D01*
X140831857Y-101344428D01*
X140860428Y-101230142D01*
X140917571Y-101173000D01*
X140974714Y-101144428D01*
X137691857Y-101687285D02*
X137663285Y-101715857D01*
X137577571Y-101744428D01*
X137520428Y-101744428D01*
X137434714Y-101715857D01*
X137377571Y-101658714D01*
X137349000Y-101601571D01*
X137320428Y-101487285D01*
X137320428Y-101401571D01*
X137349000Y-101287285D01*
X137377571Y-101230142D01*
X137434714Y-101173000D01*
X137520428Y-101144428D01*
X137577571Y-101144428D01*
X137663285Y-101173000D01*
X137691857Y-101201571D01*
X138234714Y-101744428D02*
X137949000Y-101744428D01*
X137949000Y-101144428D01*
X138434714Y-101744428D02*
X138434714Y-101144428D01*
X138777571Y-101744428D02*
X138520428Y-101401571D01*
X138777571Y-101144428D02*
X138434714Y-101487285D01*
D12*
G04 #@! TO.C,IC1*
X144550000Y-105938000D02*
X144550000Y-105938000D01*
X144550000Y-105938000D02*
X144550000Y-105938000D01*
X144550000Y-105938000D02*
X145050000Y-105938000D01*
X147550000Y-105938000D02*
X147550000Y-105938000D01*
X147550000Y-105938000D02*
X147050000Y-105938000D01*
X144550000Y-108438000D02*
X144550000Y-108438000D01*
X144550000Y-108438000D02*
X145050000Y-108438000D01*
X147550000Y-108438000D02*
X147550000Y-108438000D01*
X147550000Y-108438000D02*
X147050000Y-108438000D01*
D13*
X144075000Y-106438000D02*
G75*
G03*
X144075000Y-106438000I-125000J0D01*
G01*
D11*
G04 #@! TO.C,C6*
X143639000Y-107328580D02*
X143639000Y-107047420D01*
X142619000Y-107328580D02*
X142619000Y-107047420D01*
G04 #@! TO.C,C5*
X149227000Y-107328580D02*
X149227000Y-107047420D01*
X148207000Y-107328580D02*
X148207000Y-107047420D01*
G04 #@! TO.C,TP7*
X149159000Y-99822000D02*
G75*
G03*
X149159000Y-99822000I-950000J0D01*
G01*
D14*
G04 #@! TO.C,G\u002A\u002A\u002A*
G36*
X157710372Y-93129396D02*
G01*
X156588046Y-93129396D01*
X156588046Y-93838233D01*
X157237814Y-93838233D01*
X157237814Y-94547070D01*
X156588046Y-94547070D01*
X156588046Y-94897466D01*
X156593715Y-95100244D01*
X156620106Y-95224210D01*
X156681299Y-95308505D01*
X156757474Y-95368506D01*
X156873919Y-95445569D01*
X156942462Y-95454459D01*
X157011185Y-95395881D01*
X157032444Y-95372529D01*
X157128670Y-95285225D01*
X157188808Y-95255907D01*
X157255936Y-95285240D01*
X157384844Y-95359680D01*
X157543924Y-95458890D01*
X157701566Y-95562533D01*
X157826159Y-95650270D01*
X157886096Y-95701766D01*
X157887581Y-95705494D01*
X157842137Y-95745911D01*
X157723197Y-95832398D01*
X157556855Y-95947468D01*
X157369202Y-96073634D01*
X157186330Y-96193408D01*
X157034331Y-96289303D01*
X156939296Y-96343832D01*
X156927513Y-96348945D01*
X156853641Y-96326510D01*
X156705446Y-96246483D01*
X156503827Y-96121201D01*
X156269682Y-95962998D01*
X156248768Y-95948300D01*
X155643675Y-95521721D01*
X155657599Y-92420559D01*
X157710372Y-92420559D01*
X157710372Y-93129396D01*
G37*
X157710372Y-93129396D02*
X156588046Y-93129396D01*
X156588046Y-93838233D01*
X157237814Y-93838233D01*
X157237814Y-94547070D01*
X156588046Y-94547070D01*
X156588046Y-94897466D01*
X156593715Y-95100244D01*
X156620106Y-95224210D01*
X156681299Y-95308505D01*
X156757474Y-95368506D01*
X156873919Y-95445569D01*
X156942462Y-95454459D01*
X157011185Y-95395881D01*
X157032444Y-95372529D01*
X157128670Y-95285225D01*
X157188808Y-95255907D01*
X157255936Y-95285240D01*
X157384844Y-95359680D01*
X157543924Y-95458890D01*
X157701566Y-95562533D01*
X157826159Y-95650270D01*
X157886096Y-95701766D01*
X157887581Y-95705494D01*
X157842137Y-95745911D01*
X157723197Y-95832398D01*
X157556855Y-95947468D01*
X157369202Y-96073634D01*
X157186330Y-96193408D01*
X157034331Y-96289303D01*
X156939296Y-96343832D01*
X156927513Y-96348945D01*
X156853641Y-96326510D01*
X156705446Y-96246483D01*
X156503827Y-96121201D01*
X156269682Y-95962998D01*
X156248768Y-95948300D01*
X155643675Y-95521721D01*
X155657599Y-92420559D01*
X157710372Y-92420559D01*
X157710372Y-93129396D01*
G36*
X152571302Y-93129396D02*
G01*
X151448976Y-93129396D01*
X151448976Y-94182355D01*
X151449404Y-94558478D01*
X151452198Y-94834765D01*
X151459627Y-95029522D01*
X151473959Y-95161051D01*
X151497462Y-95247658D01*
X151532406Y-95307647D01*
X151581057Y-95359321D01*
X151596651Y-95374047D01*
X151744325Y-95512780D01*
X151890335Y-95375610D01*
X152036346Y-95238441D01*
X152392654Y-95472595D01*
X152748962Y-95706750D01*
X152259737Y-96042491D01*
X152047772Y-96183970D01*
X151869788Y-96295373D01*
X151749371Y-96362342D01*
X151713117Y-96375242D01*
X151645238Y-96341379D01*
X151502930Y-96251407D01*
X151307059Y-96119042D01*
X151079790Y-95958931D01*
X150503860Y-95545612D01*
X150503860Y-92420559D01*
X152571302Y-92420559D01*
X152571302Y-93129396D01*
G37*
X152571302Y-93129396D02*
X151448976Y-93129396D01*
X151448976Y-94182355D01*
X151449404Y-94558478D01*
X151452198Y-94834765D01*
X151459627Y-95029522D01*
X151473959Y-95161051D01*
X151497462Y-95247658D01*
X151532406Y-95307647D01*
X151581057Y-95359321D01*
X151596651Y-95374047D01*
X151744325Y-95512780D01*
X151890335Y-95375610D01*
X152036346Y-95238441D01*
X152392654Y-95472595D01*
X152748962Y-95706750D01*
X152259737Y-96042491D01*
X152047772Y-96183970D01*
X151869788Y-96295373D01*
X151749371Y-96362342D01*
X151713117Y-96375242D01*
X151645238Y-96341379D01*
X151502930Y-96251407D01*
X151307059Y-96119042D01*
X151079790Y-95958931D01*
X150503860Y-95545612D01*
X150503860Y-92420559D01*
X152571302Y-92420559D01*
X152571302Y-93129396D01*
G36*
X149076500Y-92455039D02*
G01*
X149213741Y-92543458D01*
X149405442Y-92673644D01*
X149617814Y-92822545D01*
X150178976Y-93221464D01*
X150194709Y-94799848D01*
X150210441Y-96378233D01*
X149322465Y-96378233D01*
X149322465Y-95669396D01*
X148672697Y-95669396D01*
X148672697Y-96378233D01*
X147786651Y-96378233D01*
X147786651Y-94901489D01*
X148672697Y-94901489D01*
X149322465Y-94901489D01*
X149322465Y-94226474D01*
X149321361Y-93934866D01*
X149314910Y-93737401D01*
X149298396Y-93610081D01*
X149267109Y-93528911D01*
X149216335Y-93469895D01*
X149165674Y-93428127D01*
X149053655Y-93348914D01*
X148979327Y-93342345D01*
X148890116Y-93404848D01*
X148885093Y-93409072D01*
X148794505Y-93490694D01*
X148734472Y-93570739D01*
X148698671Y-93674837D01*
X148680783Y-93828613D01*
X148674485Y-94057696D01*
X148673602Y-94266489D01*
X148672697Y-94901489D01*
X147786651Y-94901489D01*
X147786651Y-93256194D01*
X148379371Y-92838376D01*
X148610139Y-92678118D01*
X148806114Y-92546554D01*
X148947221Y-92456844D01*
X149013389Y-92422147D01*
X149014371Y-92422092D01*
X149076500Y-92455039D01*
G37*
X149076500Y-92455039D02*
X149213741Y-92543458D01*
X149405442Y-92673644D01*
X149617814Y-92822545D01*
X150178976Y-93221464D01*
X150194709Y-94799848D01*
X150210441Y-96378233D01*
X149322465Y-96378233D01*
X149322465Y-95669396D01*
X148672697Y-95669396D01*
X148672697Y-96378233D01*
X147786651Y-96378233D01*
X147786651Y-94901489D01*
X148672697Y-94901489D01*
X149322465Y-94901489D01*
X149322465Y-94226474D01*
X149321361Y-93934866D01*
X149314910Y-93737401D01*
X149298396Y-93610081D01*
X149267109Y-93528911D01*
X149216335Y-93469895D01*
X149165674Y-93428127D01*
X149053655Y-93348914D01*
X148979327Y-93342345D01*
X148890116Y-93404848D01*
X148885093Y-93409072D01*
X148794505Y-93490694D01*
X148734472Y-93570739D01*
X148698671Y-93674837D01*
X148680783Y-93828613D01*
X148674485Y-94057696D01*
X148673602Y-94266489D01*
X148672697Y-94901489D01*
X147786651Y-94901489D01*
X147786651Y-93256194D01*
X148379371Y-92838376D01*
X148610139Y-92678118D01*
X148806114Y-92546554D01*
X148947221Y-92456844D01*
X149013389Y-92422147D01*
X149014371Y-92422092D01*
X149076500Y-92455039D01*
G36*
X144774093Y-93188465D02*
G01*
X144006186Y-93188465D01*
X144006186Y-96378233D01*
X143061070Y-96378233D01*
X143061070Y-93188465D01*
X142293163Y-93188465D01*
X142293163Y-92420559D01*
X144774093Y-92420559D01*
X144774093Y-93188465D01*
G37*
X144774093Y-93188465D02*
X144006186Y-93188465D01*
X144006186Y-96378233D01*
X143061070Y-96378233D01*
X143061070Y-93188465D01*
X142293163Y-93188465D01*
X142293163Y-92420559D01*
X144774093Y-92420559D01*
X144774093Y-93188465D01*
G36*
X139103395Y-93129396D02*
G01*
X137981070Y-93129396D01*
X137981070Y-94182355D01*
X137981497Y-94558478D01*
X137984291Y-94834765D01*
X137991720Y-95029522D01*
X138006052Y-95161051D01*
X138029555Y-95247658D01*
X138064499Y-95307647D01*
X138113150Y-95359321D01*
X138128744Y-95374047D01*
X138276418Y-95512780D01*
X138422428Y-95375610D01*
X138568439Y-95238441D01*
X138924747Y-95472595D01*
X139281055Y-95706750D01*
X138791830Y-96042491D01*
X138579865Y-96183970D01*
X138401881Y-96295373D01*
X138281464Y-96362342D01*
X138245210Y-96375242D01*
X138177331Y-96341379D01*
X138035023Y-96251407D01*
X137839152Y-96119042D01*
X137611883Y-95958931D01*
X137035953Y-95545612D01*
X137035953Y-92420559D01*
X139103395Y-92420559D01*
X139103395Y-93129396D01*
G37*
X139103395Y-93129396D02*
X137981070Y-93129396D01*
X137981070Y-94182355D01*
X137981497Y-94558478D01*
X137984291Y-94834765D01*
X137991720Y-95029522D01*
X138006052Y-95161051D01*
X138029555Y-95247658D01*
X138064499Y-95307647D01*
X138113150Y-95359321D01*
X138128744Y-95374047D01*
X138276418Y-95512780D01*
X138422428Y-95375610D01*
X138568439Y-95238441D01*
X138924747Y-95472595D01*
X139281055Y-95706750D01*
X138791830Y-96042491D01*
X138579865Y-96183970D01*
X138401881Y-96295373D01*
X138281464Y-96362342D01*
X138245210Y-96375242D01*
X138177331Y-96341379D01*
X138035023Y-96251407D01*
X137839152Y-96119042D01*
X137611883Y-95958931D01*
X137035953Y-95545612D01*
X137035953Y-92420559D01*
X139103395Y-92420559D01*
X139103395Y-93129396D01*
G36*
X136799674Y-96378233D02*
G01*
X135854558Y-96378233D01*
X135854558Y-92420559D01*
X136799674Y-92420559D01*
X136799674Y-96378233D01*
G37*
X136799674Y-96378233D02*
X135854558Y-96378233D01*
X135854558Y-92420559D01*
X136799674Y-92420559D01*
X136799674Y-96378233D01*
G36*
X132842000Y-93188465D02*
G01*
X132074093Y-93188465D01*
X132074093Y-96378233D01*
X131128976Y-96378233D01*
X131128976Y-93188465D01*
X130361070Y-93188465D01*
X130361070Y-92420559D01*
X132842000Y-92420559D01*
X132842000Y-93188465D01*
G37*
X132842000Y-93188465D02*
X132074093Y-93188465D01*
X132074093Y-96378233D01*
X131128976Y-96378233D01*
X131128976Y-93188465D01*
X130361070Y-93188465D01*
X130361070Y-92420559D01*
X132842000Y-92420559D01*
X132842000Y-93188465D01*
G36*
X153884210Y-93425349D02*
G01*
X153900372Y-94430140D01*
X154520604Y-94012304D01*
X154520604Y-92420559D01*
X155465721Y-92420559D01*
X155464390Y-93380442D01*
X155463060Y-94340326D01*
X154985328Y-94655092D01*
X154772995Y-94793206D01*
X154640211Y-94890036D01*
X154590215Y-94965505D01*
X154626250Y-95039531D01*
X154751557Y-95132035D01*
X154969378Y-95262938D01*
X155096535Y-95338535D01*
X155465721Y-95559810D01*
X155465721Y-96028091D01*
X155460585Y-96245820D01*
X155446945Y-96408606D01*
X155427449Y-96488679D01*
X155421418Y-96492508D01*
X155359112Y-96460234D01*
X155216656Y-96373827D01*
X155012203Y-96244673D01*
X154763910Y-96084158D01*
X154623976Y-95992391D01*
X153870837Y-95496140D01*
X153870837Y-96378233D01*
X152925721Y-96378233D01*
X152925721Y-92420559D01*
X153868047Y-92420559D01*
X153884210Y-93425349D01*
G37*
X153884210Y-93425349D02*
X153900372Y-94430140D01*
X154520604Y-94012304D01*
X154520604Y-92420559D01*
X155465721Y-92420559D01*
X155464390Y-93380442D01*
X155463060Y-94340326D01*
X154985328Y-94655092D01*
X154772995Y-94793206D01*
X154640211Y-94890036D01*
X154590215Y-94965505D01*
X154626250Y-95039531D01*
X154751557Y-95132035D01*
X154969378Y-95262938D01*
X155096535Y-95338535D01*
X155465721Y-95559810D01*
X155465721Y-96028091D01*
X155460585Y-96245820D01*
X155446945Y-96408606D01*
X155427449Y-96488679D01*
X155421418Y-96492508D01*
X155359112Y-96460234D01*
X155216656Y-96373827D01*
X155012203Y-96244673D01*
X154763910Y-96084158D01*
X154623976Y-95992391D01*
X153870837Y-95496140D01*
X153870837Y-96378233D01*
X152925721Y-96378233D01*
X152925721Y-92420559D01*
X153868047Y-92420559D01*
X153884210Y-93425349D01*
G36*
X140475372Y-93425349D02*
G01*
X140491535Y-94430140D01*
X141111767Y-94012304D01*
X141111767Y-92420559D01*
X142056883Y-92420559D01*
X142055553Y-93380442D01*
X142054223Y-94340326D01*
X141576490Y-94655092D01*
X141364158Y-94793206D01*
X141231373Y-94890036D01*
X141181378Y-94965505D01*
X141217413Y-95039531D01*
X141342720Y-95132035D01*
X141560541Y-95262938D01*
X141687697Y-95338535D01*
X142056883Y-95559810D01*
X142056883Y-96028091D01*
X142051748Y-96245820D01*
X142038108Y-96408606D01*
X142018612Y-96488679D01*
X142012581Y-96492508D01*
X141950275Y-96460234D01*
X141807818Y-96373827D01*
X141603366Y-96244673D01*
X141355073Y-96084158D01*
X141215139Y-95992391D01*
X140462000Y-95496140D01*
X140462000Y-96378233D01*
X139516883Y-96378233D01*
X139516883Y-92420559D01*
X140459210Y-92420559D01*
X140475372Y-93425349D01*
G37*
X140475372Y-93425349D02*
X140491535Y-94430140D01*
X141111767Y-94012304D01*
X141111767Y-92420559D01*
X142056883Y-92420559D01*
X142055553Y-93380442D01*
X142054223Y-94340326D01*
X141576490Y-94655092D01*
X141364158Y-94793206D01*
X141231373Y-94890036D01*
X141181378Y-94965505D01*
X141217413Y-95039531D01*
X141342720Y-95132035D01*
X141560541Y-95262938D01*
X141687697Y-95338535D01*
X142056883Y-95559810D01*
X142056883Y-96028091D01*
X142051748Y-96245820D01*
X142038108Y-96408606D01*
X142018612Y-96488679D01*
X142012581Y-96492508D01*
X141950275Y-96460234D01*
X141807818Y-96373827D01*
X141603366Y-96244673D01*
X141355073Y-96084158D01*
X141215139Y-95992391D01*
X140462000Y-95496140D01*
X140462000Y-96378233D01*
X139516883Y-96378233D01*
X139516883Y-92420559D01*
X140459210Y-92420559D01*
X140475372Y-93425349D01*
G36*
X160709662Y-93349901D02*
G01*
X160693395Y-94279243D01*
X160209301Y-94599838D01*
X159725206Y-94920432D01*
X160150231Y-95211187D01*
X160394106Y-95378675D01*
X160557428Y-95501520D01*
X160655605Y-95603984D01*
X160704046Y-95710330D01*
X160718159Y-95844822D01*
X160713354Y-96031722D01*
X160710827Y-96093926D01*
X160693395Y-96538442D01*
X159910721Y-96014223D01*
X159128046Y-95490005D01*
X159128046Y-96378233D01*
X158123860Y-96378233D01*
X158123860Y-93188465D01*
X159128046Y-93188465D01*
X159128046Y-94439988D01*
X159408628Y-94238715D01*
X159689209Y-94037442D01*
X159706564Y-93612954D01*
X159723920Y-93188465D01*
X159128046Y-93188465D01*
X158123860Y-93188465D01*
X158123860Y-92420559D01*
X160725930Y-92420559D01*
X160709662Y-93349901D01*
G37*
X160709662Y-93349901D02*
X160693395Y-94279243D01*
X160209301Y-94599838D01*
X159725206Y-94920432D01*
X160150231Y-95211187D01*
X160394106Y-95378675D01*
X160557428Y-95501520D01*
X160655605Y-95603984D01*
X160704046Y-95710330D01*
X160718159Y-95844822D01*
X160713354Y-96031722D01*
X160710827Y-96093926D01*
X160693395Y-96538442D01*
X159910721Y-96014223D01*
X159128046Y-95490005D01*
X159128046Y-96378233D01*
X158123860Y-96378233D01*
X158123860Y-93188465D01*
X159128046Y-93188465D01*
X159128046Y-94439988D01*
X159408628Y-94238715D01*
X159689209Y-94037442D01*
X159706564Y-93612954D01*
X159723920Y-93188465D01*
X159128046Y-93188465D01*
X158123860Y-93188465D01*
X158123860Y-92420559D01*
X160725930Y-92420559D01*
X160709662Y-93349901D01*
G36*
X147596174Y-93349901D02*
G01*
X147579907Y-94279243D01*
X147095812Y-94599838D01*
X146611718Y-94920432D01*
X147036743Y-95211187D01*
X147280618Y-95378675D01*
X147443939Y-95501520D01*
X147542116Y-95603984D01*
X147590557Y-95710330D01*
X147604671Y-95844822D01*
X147599865Y-96031722D01*
X147597339Y-96093926D01*
X147579907Y-96538442D01*
X146797232Y-96014223D01*
X146014558Y-95490005D01*
X146014558Y-96378233D01*
X145010372Y-96378233D01*
X145010372Y-93188465D01*
X146014558Y-93188465D01*
X146014558Y-94439988D01*
X146295139Y-94238715D01*
X146575721Y-94037442D01*
X146593076Y-93612954D01*
X146610431Y-93188465D01*
X146014558Y-93188465D01*
X145010372Y-93188465D01*
X145010372Y-92420559D01*
X147612442Y-92420559D01*
X147596174Y-93349901D01*
G37*
X147596174Y-93349901D02*
X147579907Y-94279243D01*
X147095812Y-94599838D01*
X146611718Y-94920432D01*
X147036743Y-95211187D01*
X147280618Y-95378675D01*
X147443939Y-95501520D01*
X147542116Y-95603984D01*
X147590557Y-95710330D01*
X147604671Y-95844822D01*
X147599865Y-96031722D01*
X147597339Y-96093926D01*
X147579907Y-96538442D01*
X146797232Y-96014223D01*
X146014558Y-95490005D01*
X146014558Y-96378233D01*
X145010372Y-96378233D01*
X145010372Y-93188465D01*
X146014558Y-93188465D01*
X146014558Y-94439988D01*
X146295139Y-94238715D01*
X146575721Y-94037442D01*
X146593076Y-93612954D01*
X146610431Y-93188465D01*
X146014558Y-93188465D01*
X145010372Y-93188465D01*
X145010372Y-92420559D01*
X147612442Y-92420559D01*
X147596174Y-93349901D01*
G36*
X135647814Y-94279243D02*
G01*
X135163719Y-94599838D01*
X134679625Y-94920432D01*
X135104649Y-95211187D01*
X135348525Y-95378675D01*
X135511846Y-95501520D01*
X135610023Y-95603984D01*
X135658464Y-95710330D01*
X135672578Y-95844822D01*
X135667772Y-96031722D01*
X135665246Y-96093926D01*
X135647814Y-96538442D01*
X134865139Y-96014223D01*
X134082465Y-95490005D01*
X134082465Y-96378233D01*
X133078279Y-96378233D01*
X133078279Y-93188465D01*
X134082465Y-93188465D01*
X134082465Y-94439988D01*
X134363046Y-94238715D01*
X134643628Y-94037442D01*
X134660983Y-93612954D01*
X134678338Y-93188465D01*
X134082465Y-93188465D01*
X133078279Y-93188465D01*
X133078279Y-92420559D01*
X135680348Y-92420559D01*
X135647814Y-94279243D01*
G37*
X135647814Y-94279243D02*
X135163719Y-94599838D01*
X134679625Y-94920432D01*
X135104649Y-95211187D01*
X135348525Y-95378675D01*
X135511846Y-95501520D01*
X135610023Y-95603984D01*
X135658464Y-95710330D01*
X135672578Y-95844822D01*
X135667772Y-96031722D01*
X135665246Y-96093926D01*
X135647814Y-96538442D01*
X134865139Y-96014223D01*
X134082465Y-95490005D01*
X134082465Y-96378233D01*
X133078279Y-96378233D01*
X133078279Y-93188465D01*
X134082465Y-93188465D01*
X134082465Y-94439988D01*
X134363046Y-94238715D01*
X134643628Y-94037442D01*
X134660983Y-93612954D01*
X134678338Y-93188465D01*
X134082465Y-93188465D01*
X133078279Y-93188465D01*
X133078279Y-92420559D01*
X135680348Y-92420559D01*
X135647814Y-94279243D01*
D12*
G04 #@! TO.C,J1*
X145578000Y-137083000D02*
X145578000Y-138363000D01*
X145578000Y-138363000D02*
X155158000Y-138363000D01*
X155158000Y-138363000D02*
X155158000Y-137083000D01*
X145578000Y-133113000D02*
X145578000Y-134363000D01*
X155158000Y-133113000D02*
X155158000Y-134363000D01*
D11*
G04 #@! TO.C,TP6*
X146619000Y-99822000D02*
G75*
G03*
X146619000Y-99822000I-950000J0D01*
G01*
G04 #@! TO.C,TP5*
X144079000Y-99822000D02*
G75*
G03*
X144079000Y-99822000I-950000J0D01*
G01*
G04 #@! TO.C,TP4*
X141539000Y-99822000D02*
G75*
G03*
X141539000Y-99822000I-950000J0D01*
G01*
G04 #@! TO.C,TP3*
X138999000Y-99822000D02*
G75*
G03*
X138999000Y-99822000I-950000J0D01*
G01*
G04 #@! TO.C,TP2*
X151699000Y-99822000D02*
G75*
G03*
X151699000Y-99822000I-950000J0D01*
G01*
G04 #@! TO.C,TP1*
X154239000Y-99822000D02*
G75*
G03*
X154239000Y-99822000I-950000J0D01*
G01*
G04 #@! TO.C,U6*
X151168000Y-126543000D02*
X149568000Y-126543000D01*
X149568000Y-129743000D02*
X151868000Y-129743000D01*
G04 #@! TO.C,J2*
X138122000Y-134685000D02*
X142802000Y-134685000D01*
X143502000Y-128465000D02*
X142222000Y-128465000D01*
X143502000Y-126865000D02*
X143502000Y-128465000D01*
X144522000Y-126865000D02*
X143502000Y-126865000D01*
X144522000Y-131115000D02*
X144522000Y-126865000D01*
X138702000Y-128465000D02*
X138702000Y-125575000D01*
X137422000Y-128465000D02*
X138702000Y-128465000D01*
X137422000Y-126865000D02*
X137422000Y-128465000D01*
X136402000Y-126865000D02*
X137422000Y-126865000D01*
X136402000Y-131115000D02*
X136402000Y-126865000D01*
G04 #@! TO.C,J6*
X160673000Y-110017000D02*
X160673000Y-106137000D01*
X156203000Y-104967000D02*
X156203000Y-106017000D01*
X158703000Y-104967000D02*
X156203000Y-104967000D01*
X156203000Y-110137000D02*
X155213000Y-110137000D01*
X156203000Y-111187000D02*
X156203000Y-110137000D01*
X158703000Y-111187000D02*
X156203000Y-111187000D01*
G04 #@! TO.C,D5*
X140097000Y-117770000D02*
X142097000Y-117770000D01*
X142097000Y-117770000D02*
X142097000Y-113920000D01*
X140097000Y-117770000D02*
X140097000Y-113920000D01*
G04 #@! TO.C,D1*
X145399000Y-120482000D02*
X145399000Y-124332000D01*
X143399000Y-120482000D02*
X143399000Y-124332000D01*
X145399000Y-120482000D02*
X143399000Y-120482000D01*
G04 #@! TO.C,R7*
X155589500Y-114029258D02*
X155589500Y-113554742D01*
X154544500Y-114029258D02*
X154544500Y-113554742D01*
G04 #@! TO.C,D4*
X157453000Y-115277000D02*
X157453000Y-112992000D01*
X155983000Y-115277000D02*
X157453000Y-115277000D01*
X155983000Y-112992000D02*
X155983000Y-115277000D01*
G04 #@! TO.C,R18*
X144638500Y-115045258D02*
X144638500Y-114570742D01*
X145683500Y-115045258D02*
X145683500Y-114570742D01*
G04 #@! TO.C,R4*
X142733500Y-115045258D02*
X142733500Y-114570742D01*
X143778500Y-115045258D02*
X143778500Y-114570742D01*
G04 #@! TO.C,C12*
X147576000Y-114667420D02*
X147576000Y-114948580D01*
X146556000Y-114667420D02*
X146556000Y-114948580D01*
D12*
G04 #@! TO.C,S3*
X133707000Y-119602000D02*
X133707000Y-121952000D01*
X133707000Y-121952000D02*
X133707000Y-121952000D01*
X133707000Y-121952000D02*
X133707000Y-119602000D01*
X133707000Y-119602000D02*
X133707000Y-119602000D01*
X130707000Y-119352000D02*
X130707000Y-115852000D01*
X130707000Y-115852000D02*
X130707000Y-115852000D01*
X130707000Y-115852000D02*
X130707000Y-119352000D01*
X130707000Y-119352000D02*
X130707000Y-119352000D01*
X133707000Y-121952000D02*
X133707000Y-121952000D01*
X133707000Y-121952000D02*
X130707000Y-121952000D01*
X130707000Y-121952000D02*
X130707000Y-121952000D01*
X130707000Y-121952000D02*
X133707000Y-121952000D01*
X130707000Y-113252000D02*
X130707000Y-113252000D01*
X130707000Y-113252000D02*
X133707000Y-113252000D01*
X133707000Y-113252000D02*
X133707000Y-113252000D01*
X133707000Y-113252000D02*
X130707000Y-113252000D01*
X136407000Y-114602000D02*
X136407000Y-114602000D01*
X136307000Y-114602000D02*
X136307000Y-114602000D01*
X136407000Y-114602000D02*
X136407000Y-114602000D01*
X136307000Y-114602000D02*
G75*
G02*
X136407000Y-114602000I50000J0D01*
G01*
X136407000Y-114602000D02*
G75*
G02*
X136307000Y-114602000I-50000J0D01*
G01*
X136307000Y-114602000D02*
G75*
G02*
X136407000Y-114602000I50000J0D01*
G01*
D15*
G04 #@! TO.C,S2*
X157785000Y-130112000D02*
X157635000Y-130112000D01*
X157635000Y-130112000D02*
X157635000Y-125412000D01*
X157635000Y-125412000D02*
X157785000Y-125412000D01*
X160985000Y-130112000D02*
X162135000Y-130112000D01*
X162135000Y-130112000D02*
X162135000Y-125412000D01*
X162135000Y-125412000D02*
X160985000Y-125412000D01*
X158385000Y-123962000D02*
X158385000Y-123962000D01*
X158485000Y-123962000D02*
X158485000Y-123962000D01*
X158385000Y-123962000D02*
G75*
G02*
X158485000Y-123962000I50000J0D01*
G01*
X158485000Y-123962000D02*
G75*
G02*
X158385000Y-123962000I-50000J0D01*
G01*
G04 #@! TO.C,S1*
X133299000Y-125412000D02*
X133449000Y-125412000D01*
X133449000Y-125412000D02*
X133449000Y-130112000D01*
X133449000Y-130112000D02*
X133299000Y-130112000D01*
X130099000Y-125412000D02*
X128949000Y-125412000D01*
X128949000Y-125412000D02*
X128949000Y-130112000D01*
X128949000Y-130112000D02*
X130099000Y-130112000D01*
X132699000Y-131562000D02*
X132699000Y-131562000D01*
X132599000Y-131562000D02*
X132599000Y-131562000D01*
X132699000Y-131562000D02*
G75*
G02*
X132599000Y-131562000I-50000J0D01*
G01*
X132599000Y-131562000D02*
G75*
G02*
X132699000Y-131562000I50000J0D01*
G01*
D11*
G04 #@! TO.C,R17*
X147178500Y-121936742D02*
X147178500Y-122411258D01*
X148223500Y-121936742D02*
X148223500Y-122411258D01*
G04 #@! TO.C,R16*
X148829500Y-121936742D02*
X148829500Y-122411258D01*
X149874500Y-121936742D02*
X149874500Y-122411258D01*
G04 #@! TO.C,R15*
X150480500Y-121936742D02*
X150480500Y-122411258D01*
X151525500Y-121936742D02*
X151525500Y-122411258D01*
G04 #@! TO.C,R12*
X152131500Y-118634742D02*
X152131500Y-119109258D01*
X153176500Y-118634742D02*
X153176500Y-119109258D01*
G04 #@! TO.C,C11*
X152144000Y-122033420D02*
X152144000Y-122314580D01*
X153164000Y-122033420D02*
X153164000Y-122314580D01*
G04 #@! TO.C,C10*
X148211000Y-119012580D02*
X148211000Y-118731420D01*
X147191000Y-119012580D02*
X147191000Y-118731420D01*
G04 #@! TO.C,J3*
X132381000Y-104967000D02*
X134881000Y-104967000D01*
X134881000Y-104967000D02*
X134881000Y-106017000D01*
X134881000Y-106017000D02*
X135871000Y-106017000D01*
X132381000Y-111187000D02*
X134881000Y-111187000D01*
X134881000Y-111187000D02*
X134881000Y-110137000D01*
X130411000Y-106137000D02*
X130411000Y-110017000D01*
G04 #@! TO.C,U5*
X139659000Y-119899000D02*
X139659000Y-117449000D01*
X136439000Y-118099000D02*
X136439000Y-119899000D01*
G04 #@! TO.C,R6*
X158891500Y-119998258D02*
X158891500Y-119523742D01*
X157846500Y-119998258D02*
X157846500Y-119523742D01*
G04 #@! TO.C,R5*
X158891500Y-114029258D02*
X158891500Y-113554742D01*
X157846500Y-114029258D02*
X157846500Y-113554742D01*
G04 #@! TO.C,R3*
X136002500Y-122444742D02*
X136002500Y-122919258D01*
X137047500Y-122444742D02*
X137047500Y-122919258D01*
G04 #@! TO.C,R2*
X154288258Y-128763500D02*
X153813742Y-128763500D01*
X154288258Y-129808500D02*
X153813742Y-129808500D01*
G04 #@! TO.C,R1*
X146447742Y-129808500D02*
X146922258Y-129808500D01*
X146447742Y-128763500D02*
X146922258Y-128763500D01*
G04 #@! TO.C,D3*
X160755000Y-121246000D02*
X160755000Y-118961000D01*
X159285000Y-121246000D02*
X160755000Y-121246000D01*
X159285000Y-118961000D02*
X159285000Y-121246000D01*
G04 #@! TO.C,D2*
X160755000Y-114592000D02*
X160755000Y-112307000D01*
X160755000Y-112307000D02*
X159285000Y-112307000D01*
X159285000Y-112307000D02*
X159285000Y-114592000D01*
G04 #@! TO.C,C4*
X141226000Y-119520580D02*
X141226000Y-119239420D01*
X140206000Y-119520580D02*
X140206000Y-119239420D01*
G04 #@! TO.C,C3*
X142369000Y-123584580D02*
X142369000Y-123303420D01*
X141349000Y-123584580D02*
X141349000Y-123303420D01*
G04 #@! TO.C,C2*
X141857000Y-120409580D02*
X141857000Y-120128420D01*
X142877000Y-120409580D02*
X142877000Y-120128420D01*
G04 #@! TO.C,C1*
X138443580Y-115695000D02*
X138162420Y-115695000D01*
X138443580Y-116715000D02*
X138162420Y-116715000D01*
G04 #@! TO.C,U4*
X140802000Y-123963000D02*
X140802000Y-122163000D01*
X137582000Y-122163000D02*
X137582000Y-124613000D01*
D16*
G04 #@! TO.C,U2*
X151584000Y-119872000D02*
X151584000Y-117872000D01*
X148644000Y-119872000D02*
X148644000Y-117872000D01*
D17*
X149094000Y-117422000D02*
G75*
G03*
X149094000Y-117422000I-80000J0D01*
G01*
G04 #@! TO.C,IC1*
D10*
X145464285Y-107459428D02*
X145464285Y-106859428D01*
X146092857Y-107402285D02*
X146064285Y-107430857D01*
X145978571Y-107459428D01*
X145921428Y-107459428D01*
X145835714Y-107430857D01*
X145778571Y-107373714D01*
X145750000Y-107316571D01*
X145721428Y-107202285D01*
X145721428Y-107116571D01*
X145750000Y-107002285D01*
X145778571Y-106945142D01*
X145835714Y-106888000D01*
X145921428Y-106859428D01*
X145978571Y-106859428D01*
X146064285Y-106888000D01*
X146092857Y-106916571D01*
X146664285Y-107459428D02*
X146321428Y-107459428D01*
X146492857Y-107459428D02*
X146492857Y-106859428D01*
X146435714Y-106945142D01*
X146378571Y-107002285D01*
X146321428Y-107030857D01*
G04 #@! TO.C,C6*
X143029000Y-105497285D02*
X143000428Y-105525857D01*
X142914714Y-105554428D01*
X142857571Y-105554428D01*
X142771857Y-105525857D01*
X142714714Y-105468714D01*
X142686142Y-105411571D01*
X142657571Y-105297285D01*
X142657571Y-105211571D01*
X142686142Y-105097285D01*
X142714714Y-105040142D01*
X142771857Y-104983000D01*
X142857571Y-104954428D01*
X142914714Y-104954428D01*
X143000428Y-104983000D01*
X143029000Y-105011571D01*
X143543285Y-104954428D02*
X143429000Y-104954428D01*
X143371857Y-104983000D01*
X143343285Y-105011571D01*
X143286142Y-105097285D01*
X143257571Y-105211571D01*
X143257571Y-105440142D01*
X143286142Y-105497285D01*
X143314714Y-105525857D01*
X143371857Y-105554428D01*
X143486142Y-105554428D01*
X143543285Y-105525857D01*
X143571857Y-105497285D01*
X143600428Y-105440142D01*
X143600428Y-105297285D01*
X143571857Y-105240142D01*
X143543285Y-105211571D01*
X143486142Y-105183000D01*
X143371857Y-105183000D01*
X143314714Y-105211571D01*
X143286142Y-105240142D01*
X143257571Y-105297285D01*
G04 #@! TO.C,C5*
X148490000Y-105497285D02*
X148461428Y-105525857D01*
X148375714Y-105554428D01*
X148318571Y-105554428D01*
X148232857Y-105525857D01*
X148175714Y-105468714D01*
X148147142Y-105411571D01*
X148118571Y-105297285D01*
X148118571Y-105211571D01*
X148147142Y-105097285D01*
X148175714Y-105040142D01*
X148232857Y-104983000D01*
X148318571Y-104954428D01*
X148375714Y-104954428D01*
X148461428Y-104983000D01*
X148490000Y-105011571D01*
X149032857Y-104954428D02*
X148747142Y-104954428D01*
X148718571Y-105240142D01*
X148747142Y-105211571D01*
X148804285Y-105183000D01*
X148947142Y-105183000D01*
X149004285Y-105211571D01*
X149032857Y-105240142D01*
X149061428Y-105297285D01*
X149061428Y-105440142D01*
X149032857Y-105497285D01*
X149004285Y-105525857D01*
X148947142Y-105554428D01*
X148804285Y-105554428D01*
X148747142Y-105525857D01*
X148718571Y-105497285D01*
G04 #@! TO.C,U6*
X151434857Y-126036428D02*
X151434857Y-126522142D01*
X151463428Y-126579285D01*
X151492000Y-126607857D01*
X151549142Y-126636428D01*
X151663428Y-126636428D01*
X151720571Y-126607857D01*
X151749142Y-126579285D01*
X151777714Y-126522142D01*
X151777714Y-126036428D01*
X152320571Y-126036428D02*
X152206285Y-126036428D01*
X152149142Y-126065000D01*
X152120571Y-126093571D01*
X152063428Y-126179285D01*
X152034857Y-126293571D01*
X152034857Y-126522142D01*
X152063428Y-126579285D01*
X152092000Y-126607857D01*
X152149142Y-126636428D01*
X152263428Y-126636428D01*
X152320571Y-126607857D01*
X152349142Y-126579285D01*
X152377714Y-126522142D01*
X152377714Y-126379285D01*
X152349142Y-126322142D01*
X152320571Y-126293571D01*
X152263428Y-126265000D01*
X152149142Y-126265000D01*
X152092000Y-126293571D01*
X152063428Y-126322142D01*
X152034857Y-126379285D01*
G04 #@! TO.C,J2*
X140262000Y-129719428D02*
X140262000Y-130148000D01*
X140233428Y-130233714D01*
X140176285Y-130290857D01*
X140090571Y-130319428D01*
X140033428Y-130319428D01*
X140519142Y-129776571D02*
X140547714Y-129748000D01*
X140604857Y-129719428D01*
X140747714Y-129719428D01*
X140804857Y-129748000D01*
X140833428Y-129776571D01*
X140862000Y-129833714D01*
X140862000Y-129890857D01*
X140833428Y-129976571D01*
X140490571Y-130319428D01*
X140862000Y-130319428D01*
G04 #@! TO.C,J6*
X158929428Y-108277000D02*
X159358000Y-108277000D01*
X159443714Y-108305571D01*
X159500857Y-108362714D01*
X159529428Y-108448428D01*
X159529428Y-108505571D01*
X158929428Y-107734142D02*
X158929428Y-107848428D01*
X158958000Y-107905571D01*
X158986571Y-107934142D01*
X159072285Y-107991285D01*
X159186571Y-108019857D01*
X159415142Y-108019857D01*
X159472285Y-107991285D01*
X159500857Y-107962714D01*
X159529428Y-107905571D01*
X159529428Y-107791285D01*
X159500857Y-107734142D01*
X159472285Y-107705571D01*
X159415142Y-107677000D01*
X159272285Y-107677000D01*
X159215142Y-107705571D01*
X159186571Y-107734142D01*
X159158000Y-107791285D01*
X159158000Y-107905571D01*
X159186571Y-107962714D01*
X159215142Y-107991285D01*
X159272285Y-108019857D01*
G04 #@! TO.C,D5*
X141368428Y-116012857D02*
X140768428Y-116012857D01*
X140768428Y-115870000D01*
X140797000Y-115784285D01*
X140854142Y-115727142D01*
X140911285Y-115698571D01*
X141025571Y-115670000D01*
X141111285Y-115670000D01*
X141225571Y-115698571D01*
X141282714Y-115727142D01*
X141339857Y-115784285D01*
X141368428Y-115870000D01*
X141368428Y-116012857D01*
X140768428Y-115127142D02*
X140768428Y-115412857D01*
X141054142Y-115441428D01*
X141025571Y-115412857D01*
X140997000Y-115355714D01*
X140997000Y-115212857D01*
X141025571Y-115155714D01*
X141054142Y-115127142D01*
X141111285Y-115098571D01*
X141254142Y-115098571D01*
X141311285Y-115127142D01*
X141339857Y-115155714D01*
X141368428Y-115212857D01*
X141368428Y-115355714D01*
X141339857Y-115412857D01*
X141311285Y-115441428D01*
G04 #@! TO.C,D1*
X144670428Y-122997857D02*
X144070428Y-122997857D01*
X144070428Y-122855000D01*
X144099000Y-122769285D01*
X144156142Y-122712142D01*
X144213285Y-122683571D01*
X144327571Y-122655000D01*
X144413285Y-122655000D01*
X144527571Y-122683571D01*
X144584714Y-122712142D01*
X144641857Y-122769285D01*
X144670428Y-122855000D01*
X144670428Y-122997857D01*
X144670428Y-122083571D02*
X144670428Y-122426428D01*
X144670428Y-122255000D02*
X144070428Y-122255000D01*
X144156142Y-122312142D01*
X144213285Y-122369285D01*
X144241857Y-122426428D01*
G04 #@! TO.C,R7*
X155094000Y-112158428D02*
X154894000Y-111872714D01*
X154751142Y-112158428D02*
X154751142Y-111558428D01*
X154979714Y-111558428D01*
X155036857Y-111587000D01*
X155065428Y-111615571D01*
X155094000Y-111672714D01*
X155094000Y-111758428D01*
X155065428Y-111815571D01*
X155036857Y-111844142D01*
X154979714Y-111872714D01*
X154751142Y-111872714D01*
X155294000Y-111558428D02*
X155694000Y-111558428D01*
X155436857Y-112158428D01*
G04 #@! TO.C,D4*
X156275142Y-112158428D02*
X156275142Y-111558428D01*
X156418000Y-111558428D01*
X156503714Y-111587000D01*
X156560857Y-111644142D01*
X156589428Y-111701285D01*
X156618000Y-111815571D01*
X156618000Y-111901285D01*
X156589428Y-112015571D01*
X156560857Y-112072714D01*
X156503714Y-112129857D01*
X156418000Y-112158428D01*
X156275142Y-112158428D01*
X157132285Y-111758428D02*
X157132285Y-112158428D01*
X156989428Y-111529857D02*
X156846571Y-111958428D01*
X157218000Y-111958428D01*
G04 #@! TO.C,R18*
X144775285Y-116857428D02*
X144575285Y-116571714D01*
X144432428Y-116857428D02*
X144432428Y-116257428D01*
X144661000Y-116257428D01*
X144718142Y-116286000D01*
X144746714Y-116314571D01*
X144775285Y-116371714D01*
X144775285Y-116457428D01*
X144746714Y-116514571D01*
X144718142Y-116543142D01*
X144661000Y-116571714D01*
X144432428Y-116571714D01*
X145346714Y-116857428D02*
X145003857Y-116857428D01*
X145175285Y-116857428D02*
X145175285Y-116257428D01*
X145118142Y-116343142D01*
X145061000Y-116400285D01*
X145003857Y-116428857D01*
X145689571Y-116514571D02*
X145632428Y-116486000D01*
X145603857Y-116457428D01*
X145575285Y-116400285D01*
X145575285Y-116371714D01*
X145603857Y-116314571D01*
X145632428Y-116286000D01*
X145689571Y-116257428D01*
X145803857Y-116257428D01*
X145861000Y-116286000D01*
X145889571Y-116314571D01*
X145918142Y-116371714D01*
X145918142Y-116400285D01*
X145889571Y-116457428D01*
X145861000Y-116486000D01*
X145803857Y-116514571D01*
X145689571Y-116514571D01*
X145632428Y-116543142D01*
X145603857Y-116571714D01*
X145575285Y-116628857D01*
X145575285Y-116743142D01*
X145603857Y-116800285D01*
X145632428Y-116828857D01*
X145689571Y-116857428D01*
X145803857Y-116857428D01*
X145861000Y-116828857D01*
X145889571Y-116800285D01*
X145918142Y-116743142D01*
X145918142Y-116628857D01*
X145889571Y-116571714D01*
X145861000Y-116543142D01*
X145803857Y-116514571D01*
G04 #@! TO.C,R4*
X143156000Y-116857428D02*
X142956000Y-116571714D01*
X142813142Y-116857428D02*
X142813142Y-116257428D01*
X143041714Y-116257428D01*
X143098857Y-116286000D01*
X143127428Y-116314571D01*
X143156000Y-116371714D01*
X143156000Y-116457428D01*
X143127428Y-116514571D01*
X143098857Y-116543142D01*
X143041714Y-116571714D01*
X142813142Y-116571714D01*
X143670285Y-116457428D02*
X143670285Y-116857428D01*
X143527428Y-116228857D02*
X143384571Y-116657428D01*
X143756000Y-116657428D01*
G04 #@! TO.C,C12*
X146680285Y-116800285D02*
X146651714Y-116828857D01*
X146566000Y-116857428D01*
X146508857Y-116857428D01*
X146423142Y-116828857D01*
X146366000Y-116771714D01*
X146337428Y-116714571D01*
X146308857Y-116600285D01*
X146308857Y-116514571D01*
X146337428Y-116400285D01*
X146366000Y-116343142D01*
X146423142Y-116286000D01*
X146508857Y-116257428D01*
X146566000Y-116257428D01*
X146651714Y-116286000D01*
X146680285Y-116314571D01*
X147251714Y-116857428D02*
X146908857Y-116857428D01*
X147080285Y-116857428D02*
X147080285Y-116257428D01*
X147023142Y-116343142D01*
X146966000Y-116400285D01*
X146908857Y-116428857D01*
X147480285Y-116314571D02*
X147508857Y-116286000D01*
X147566000Y-116257428D01*
X147708857Y-116257428D01*
X147766000Y-116286000D01*
X147794571Y-116314571D01*
X147823142Y-116371714D01*
X147823142Y-116428857D01*
X147794571Y-116514571D01*
X147451714Y-116857428D01*
X147823142Y-116857428D01*
G04 #@! TO.C,S3*
X133199857Y-118059142D02*
X133228428Y-117973428D01*
X133228428Y-117830571D01*
X133199857Y-117773428D01*
X133171285Y-117744857D01*
X133114142Y-117716285D01*
X133057000Y-117716285D01*
X132999857Y-117744857D01*
X132971285Y-117773428D01*
X132942714Y-117830571D01*
X132914142Y-117944857D01*
X132885571Y-118002000D01*
X132857000Y-118030571D01*
X132799857Y-118059142D01*
X132742714Y-118059142D01*
X132685571Y-118030571D01*
X132657000Y-118002000D01*
X132628428Y-117944857D01*
X132628428Y-117802000D01*
X132657000Y-117716285D01*
X132628428Y-117516285D02*
X132628428Y-117144857D01*
X132857000Y-117344857D01*
X132857000Y-117259142D01*
X132885571Y-117202000D01*
X132914142Y-117173428D01*
X132971285Y-117144857D01*
X133114142Y-117144857D01*
X133171285Y-117173428D01*
X133199857Y-117202000D01*
X133228428Y-117259142D01*
X133228428Y-117430571D01*
X133199857Y-117487714D01*
X133171285Y-117516285D01*
G04 #@! TO.C,S2*
X159627857Y-128219142D02*
X159656428Y-128133428D01*
X159656428Y-127990571D01*
X159627857Y-127933428D01*
X159599285Y-127904857D01*
X159542142Y-127876285D01*
X159485000Y-127876285D01*
X159427857Y-127904857D01*
X159399285Y-127933428D01*
X159370714Y-127990571D01*
X159342142Y-128104857D01*
X159313571Y-128162000D01*
X159285000Y-128190571D01*
X159227857Y-128219142D01*
X159170714Y-128219142D01*
X159113571Y-128190571D01*
X159085000Y-128162000D01*
X159056428Y-128104857D01*
X159056428Y-127962000D01*
X159085000Y-127876285D01*
X159113571Y-127647714D02*
X159085000Y-127619142D01*
X159056428Y-127562000D01*
X159056428Y-127419142D01*
X159085000Y-127362000D01*
X159113571Y-127333428D01*
X159170714Y-127304857D01*
X159227857Y-127304857D01*
X159313571Y-127333428D01*
X159656428Y-127676285D01*
X159656428Y-127304857D01*
G04 #@! TO.C,S1*
X131941857Y-128219142D02*
X131970428Y-128133428D01*
X131970428Y-127990571D01*
X131941857Y-127933428D01*
X131913285Y-127904857D01*
X131856142Y-127876285D01*
X131799000Y-127876285D01*
X131741857Y-127904857D01*
X131713285Y-127933428D01*
X131684714Y-127990571D01*
X131656142Y-128104857D01*
X131627571Y-128162000D01*
X131599000Y-128190571D01*
X131541857Y-128219142D01*
X131484714Y-128219142D01*
X131427571Y-128190571D01*
X131399000Y-128162000D01*
X131370428Y-128104857D01*
X131370428Y-127962000D01*
X131399000Y-127876285D01*
X131970428Y-127304857D02*
X131970428Y-127647714D01*
X131970428Y-127476285D02*
X131370428Y-127476285D01*
X131456142Y-127533428D01*
X131513285Y-127590571D01*
X131541857Y-127647714D01*
G04 #@! TO.C,R17*
X146956428Y-122559714D02*
X146670714Y-122759714D01*
X146956428Y-122902571D02*
X146356428Y-122902571D01*
X146356428Y-122674000D01*
X146385000Y-122616857D01*
X146413571Y-122588285D01*
X146470714Y-122559714D01*
X146556428Y-122559714D01*
X146613571Y-122588285D01*
X146642142Y-122616857D01*
X146670714Y-122674000D01*
X146670714Y-122902571D01*
X146956428Y-121988285D02*
X146956428Y-122331142D01*
X146956428Y-122159714D02*
X146356428Y-122159714D01*
X146442142Y-122216857D01*
X146499285Y-122274000D01*
X146527857Y-122331142D01*
X146356428Y-121788285D02*
X146356428Y-121388285D01*
X146956428Y-121645428D01*
G04 #@! TO.C,R16*
X148966285Y-125112428D02*
X148766285Y-124826714D01*
X148623428Y-125112428D02*
X148623428Y-124512428D01*
X148852000Y-124512428D01*
X148909142Y-124541000D01*
X148937714Y-124569571D01*
X148966285Y-124626714D01*
X148966285Y-124712428D01*
X148937714Y-124769571D01*
X148909142Y-124798142D01*
X148852000Y-124826714D01*
X148623428Y-124826714D01*
X149537714Y-125112428D02*
X149194857Y-125112428D01*
X149366285Y-125112428D02*
X149366285Y-124512428D01*
X149309142Y-124598142D01*
X149252000Y-124655285D01*
X149194857Y-124683857D01*
X150052000Y-124512428D02*
X149937714Y-124512428D01*
X149880571Y-124541000D01*
X149852000Y-124569571D01*
X149794857Y-124655285D01*
X149766285Y-124769571D01*
X149766285Y-124998142D01*
X149794857Y-125055285D01*
X149823428Y-125083857D01*
X149880571Y-125112428D01*
X149994857Y-125112428D01*
X150052000Y-125083857D01*
X150080571Y-125055285D01*
X150109142Y-124998142D01*
X150109142Y-124855285D01*
X150080571Y-124798142D01*
X150052000Y-124769571D01*
X149994857Y-124741000D01*
X149880571Y-124741000D01*
X149823428Y-124769571D01*
X149794857Y-124798142D01*
X149766285Y-124855285D01*
G04 #@! TO.C,R15*
X150617285Y-124350428D02*
X150417285Y-124064714D01*
X150274428Y-124350428D02*
X150274428Y-123750428D01*
X150503000Y-123750428D01*
X150560142Y-123779000D01*
X150588714Y-123807571D01*
X150617285Y-123864714D01*
X150617285Y-123950428D01*
X150588714Y-124007571D01*
X150560142Y-124036142D01*
X150503000Y-124064714D01*
X150274428Y-124064714D01*
X151188714Y-124350428D02*
X150845857Y-124350428D01*
X151017285Y-124350428D02*
X151017285Y-123750428D01*
X150960142Y-123836142D01*
X150903000Y-123893285D01*
X150845857Y-123921857D01*
X151731571Y-123750428D02*
X151445857Y-123750428D01*
X151417285Y-124036142D01*
X151445857Y-124007571D01*
X151503000Y-123979000D01*
X151645857Y-123979000D01*
X151703000Y-124007571D01*
X151731571Y-124036142D01*
X151760142Y-124093285D01*
X151760142Y-124236142D01*
X151731571Y-124293285D01*
X151703000Y-124321857D01*
X151645857Y-124350428D01*
X151503000Y-124350428D01*
X151445857Y-124321857D01*
X151417285Y-124293285D01*
G04 #@! TO.C,R12*
X154355428Y-119257714D02*
X154069714Y-119457714D01*
X154355428Y-119600571D02*
X153755428Y-119600571D01*
X153755428Y-119372000D01*
X153784000Y-119314857D01*
X153812571Y-119286285D01*
X153869714Y-119257714D01*
X153955428Y-119257714D01*
X154012571Y-119286285D01*
X154041142Y-119314857D01*
X154069714Y-119372000D01*
X154069714Y-119600571D01*
X154355428Y-118686285D02*
X154355428Y-119029142D01*
X154355428Y-118857714D02*
X153755428Y-118857714D01*
X153841142Y-118914857D01*
X153898285Y-118972000D01*
X153926857Y-119029142D01*
X153812571Y-118457714D02*
X153784000Y-118429142D01*
X153755428Y-118372000D01*
X153755428Y-118229142D01*
X153784000Y-118172000D01*
X153812571Y-118143428D01*
X153869714Y-118114857D01*
X153926857Y-118114857D01*
X154012571Y-118143428D01*
X154355428Y-118486285D01*
X154355428Y-118114857D01*
G04 #@! TO.C,C11*
X152522285Y-124293285D02*
X152493714Y-124321857D01*
X152408000Y-124350428D01*
X152350857Y-124350428D01*
X152265142Y-124321857D01*
X152208000Y-124264714D01*
X152179428Y-124207571D01*
X152150857Y-124093285D01*
X152150857Y-124007571D01*
X152179428Y-123893285D01*
X152208000Y-123836142D01*
X152265142Y-123779000D01*
X152350857Y-123750428D01*
X152408000Y-123750428D01*
X152493714Y-123779000D01*
X152522285Y-123807571D01*
X153093714Y-124350428D02*
X152750857Y-124350428D01*
X152922285Y-124350428D02*
X152922285Y-123750428D01*
X152865142Y-123836142D01*
X152808000Y-123893285D01*
X152750857Y-123921857D01*
X153665142Y-124350428D02*
X153322285Y-124350428D01*
X153493714Y-124350428D02*
X153493714Y-123750428D01*
X153436571Y-123836142D01*
X153379428Y-123893285D01*
X153322285Y-123921857D01*
G04 #@! TO.C,C10*
X146899285Y-119257714D02*
X146927857Y-119286285D01*
X146956428Y-119372000D01*
X146956428Y-119429142D01*
X146927857Y-119514857D01*
X146870714Y-119572000D01*
X146813571Y-119600571D01*
X146699285Y-119629142D01*
X146613571Y-119629142D01*
X146499285Y-119600571D01*
X146442142Y-119572000D01*
X146385000Y-119514857D01*
X146356428Y-119429142D01*
X146356428Y-119372000D01*
X146385000Y-119286285D01*
X146413571Y-119257714D01*
X146956428Y-118686285D02*
X146956428Y-119029142D01*
X146956428Y-118857714D02*
X146356428Y-118857714D01*
X146442142Y-118914857D01*
X146499285Y-118972000D01*
X146527857Y-119029142D01*
X146356428Y-118314857D02*
X146356428Y-118257714D01*
X146385000Y-118200571D01*
X146413571Y-118172000D01*
X146470714Y-118143428D01*
X146585000Y-118114857D01*
X146727857Y-118114857D01*
X146842142Y-118143428D01*
X146899285Y-118172000D01*
X146927857Y-118200571D01*
X146956428Y-118257714D01*
X146956428Y-118314857D01*
X146927857Y-118372000D01*
X146899285Y-118400571D01*
X146842142Y-118429142D01*
X146727857Y-118457714D01*
X146585000Y-118457714D01*
X146470714Y-118429142D01*
X146413571Y-118400571D01*
X146385000Y-118372000D01*
X146356428Y-118314857D01*
G04 #@! TO.C,J3*
X131751428Y-108277000D02*
X132180000Y-108277000D01*
X132265714Y-108305571D01*
X132322857Y-108362714D01*
X132351428Y-108448428D01*
X132351428Y-108505571D01*
X131751428Y-108048428D02*
X131751428Y-107677000D01*
X131980000Y-107877000D01*
X131980000Y-107791285D01*
X132008571Y-107734142D01*
X132037142Y-107705571D01*
X132094285Y-107677000D01*
X132237142Y-107677000D01*
X132294285Y-107705571D01*
X132322857Y-107734142D01*
X132351428Y-107791285D01*
X132351428Y-107962714D01*
X132322857Y-108019857D01*
X132294285Y-108048428D01*
G04 #@! TO.C,U5*
X137591857Y-118670428D02*
X137591857Y-119156142D01*
X137620428Y-119213285D01*
X137649000Y-119241857D01*
X137706142Y-119270428D01*
X137820428Y-119270428D01*
X137877571Y-119241857D01*
X137906142Y-119213285D01*
X137934714Y-119156142D01*
X137934714Y-118670428D01*
X138506142Y-118670428D02*
X138220428Y-118670428D01*
X138191857Y-118956142D01*
X138220428Y-118927571D01*
X138277571Y-118899000D01*
X138420428Y-118899000D01*
X138477571Y-118927571D01*
X138506142Y-118956142D01*
X138534714Y-119013285D01*
X138534714Y-119156142D01*
X138506142Y-119213285D01*
X138477571Y-119241857D01*
X138420428Y-119270428D01*
X138277571Y-119270428D01*
X138220428Y-119241857D01*
X138191857Y-119213285D01*
G04 #@! TO.C,R6*
X158269000Y-118127428D02*
X158069000Y-117841714D01*
X157926142Y-118127428D02*
X157926142Y-117527428D01*
X158154714Y-117527428D01*
X158211857Y-117556000D01*
X158240428Y-117584571D01*
X158269000Y-117641714D01*
X158269000Y-117727428D01*
X158240428Y-117784571D01*
X158211857Y-117813142D01*
X158154714Y-117841714D01*
X157926142Y-117841714D01*
X158783285Y-117527428D02*
X158669000Y-117527428D01*
X158611857Y-117556000D01*
X158583285Y-117584571D01*
X158526142Y-117670285D01*
X158497571Y-117784571D01*
X158497571Y-118013142D01*
X158526142Y-118070285D01*
X158554714Y-118098857D01*
X158611857Y-118127428D01*
X158726142Y-118127428D01*
X158783285Y-118098857D01*
X158811857Y-118070285D01*
X158840428Y-118013142D01*
X158840428Y-117870285D01*
X158811857Y-117813142D01*
X158783285Y-117784571D01*
X158726142Y-117756000D01*
X158611857Y-117756000D01*
X158554714Y-117784571D01*
X158526142Y-117813142D01*
X158497571Y-117870285D01*
G04 #@! TO.C,R5*
X158269000Y-112158428D02*
X158069000Y-111872714D01*
X157926142Y-112158428D02*
X157926142Y-111558428D01*
X158154714Y-111558428D01*
X158211857Y-111587000D01*
X158240428Y-111615571D01*
X158269000Y-111672714D01*
X158269000Y-111758428D01*
X158240428Y-111815571D01*
X158211857Y-111844142D01*
X158154714Y-111872714D01*
X157926142Y-111872714D01*
X158811857Y-111558428D02*
X158526142Y-111558428D01*
X158497571Y-111844142D01*
X158526142Y-111815571D01*
X158583285Y-111787000D01*
X158726142Y-111787000D01*
X158783285Y-111815571D01*
X158811857Y-111844142D01*
X158840428Y-111901285D01*
X158840428Y-112044142D01*
X158811857Y-112101285D01*
X158783285Y-112129857D01*
X158726142Y-112158428D01*
X158583285Y-112158428D01*
X158526142Y-112129857D01*
X158497571Y-112101285D01*
G04 #@! TO.C,R3*
X136425000Y-124731428D02*
X136225000Y-124445714D01*
X136082142Y-124731428D02*
X136082142Y-124131428D01*
X136310714Y-124131428D01*
X136367857Y-124160000D01*
X136396428Y-124188571D01*
X136425000Y-124245714D01*
X136425000Y-124331428D01*
X136396428Y-124388571D01*
X136367857Y-124417142D01*
X136310714Y-124445714D01*
X136082142Y-124445714D01*
X136625000Y-124131428D02*
X136996428Y-124131428D01*
X136796428Y-124360000D01*
X136882142Y-124360000D01*
X136939285Y-124388571D01*
X136967857Y-124417142D01*
X136996428Y-124474285D01*
X136996428Y-124617142D01*
X136967857Y-124674285D01*
X136939285Y-124702857D01*
X136882142Y-124731428D01*
X136710714Y-124731428D01*
X136653571Y-124702857D01*
X136625000Y-124674285D01*
G04 #@! TO.C,R2*
X153824000Y-128414428D02*
X153624000Y-128128714D01*
X153481142Y-128414428D02*
X153481142Y-127814428D01*
X153709714Y-127814428D01*
X153766857Y-127843000D01*
X153795428Y-127871571D01*
X153824000Y-127928714D01*
X153824000Y-128014428D01*
X153795428Y-128071571D01*
X153766857Y-128100142D01*
X153709714Y-128128714D01*
X153481142Y-128128714D01*
X154052571Y-127871571D02*
X154081142Y-127843000D01*
X154138285Y-127814428D01*
X154281142Y-127814428D01*
X154338285Y-127843000D01*
X154366857Y-127871571D01*
X154395428Y-127928714D01*
X154395428Y-127985857D01*
X154366857Y-128071571D01*
X154024000Y-128414428D01*
X154395428Y-128414428D01*
G04 #@! TO.C,R1*
X146712000Y-128414428D02*
X146512000Y-128128714D01*
X146369142Y-128414428D02*
X146369142Y-127814428D01*
X146597714Y-127814428D01*
X146654857Y-127843000D01*
X146683428Y-127871571D01*
X146712000Y-127928714D01*
X146712000Y-128014428D01*
X146683428Y-128071571D01*
X146654857Y-128100142D01*
X146597714Y-128128714D01*
X146369142Y-128128714D01*
X147283428Y-128414428D02*
X146940571Y-128414428D01*
X147112000Y-128414428D02*
X147112000Y-127814428D01*
X147054857Y-127900142D01*
X146997714Y-127957285D01*
X146940571Y-127985857D01*
G04 #@! TO.C,D3*
X159577142Y-118127428D02*
X159577142Y-117527428D01*
X159720000Y-117527428D01*
X159805714Y-117556000D01*
X159862857Y-117613142D01*
X159891428Y-117670285D01*
X159920000Y-117784571D01*
X159920000Y-117870285D01*
X159891428Y-117984571D01*
X159862857Y-118041714D01*
X159805714Y-118098857D01*
X159720000Y-118127428D01*
X159577142Y-118127428D01*
X160120000Y-117527428D02*
X160491428Y-117527428D01*
X160291428Y-117756000D01*
X160377142Y-117756000D01*
X160434285Y-117784571D01*
X160462857Y-117813142D01*
X160491428Y-117870285D01*
X160491428Y-118013142D01*
X160462857Y-118070285D01*
X160434285Y-118098857D01*
X160377142Y-118127428D01*
X160205714Y-118127428D01*
X160148571Y-118098857D01*
X160120000Y-118070285D01*
G04 #@! TO.C,D2*
X159577142Y-112158428D02*
X159577142Y-111558428D01*
X159720000Y-111558428D01*
X159805714Y-111587000D01*
X159862857Y-111644142D01*
X159891428Y-111701285D01*
X159920000Y-111815571D01*
X159920000Y-111901285D01*
X159891428Y-112015571D01*
X159862857Y-112072714D01*
X159805714Y-112129857D01*
X159720000Y-112158428D01*
X159577142Y-112158428D01*
X160148571Y-111615571D02*
X160177142Y-111587000D01*
X160234285Y-111558428D01*
X160377142Y-111558428D01*
X160434285Y-111587000D01*
X160462857Y-111615571D01*
X160491428Y-111672714D01*
X160491428Y-111729857D01*
X160462857Y-111815571D01*
X160120000Y-112158428D01*
X160491428Y-112158428D01*
G04 #@! TO.C,C4*
X140362000Y-121245285D02*
X140333428Y-121273857D01*
X140247714Y-121302428D01*
X140190571Y-121302428D01*
X140104857Y-121273857D01*
X140047714Y-121216714D01*
X140019142Y-121159571D01*
X139990571Y-121045285D01*
X139990571Y-120959571D01*
X140019142Y-120845285D01*
X140047714Y-120788142D01*
X140104857Y-120731000D01*
X140190571Y-120702428D01*
X140247714Y-120702428D01*
X140333428Y-120731000D01*
X140362000Y-120759571D01*
X140876285Y-120902428D02*
X140876285Y-121302428D01*
X140733428Y-120673857D02*
X140590571Y-121102428D01*
X140962000Y-121102428D01*
G04 #@! TO.C,C3*
X141378000Y-122134285D02*
X141349428Y-122162857D01*
X141263714Y-122191428D01*
X141206571Y-122191428D01*
X141120857Y-122162857D01*
X141063714Y-122105714D01*
X141035142Y-122048571D01*
X141006571Y-121934285D01*
X141006571Y-121848571D01*
X141035142Y-121734285D01*
X141063714Y-121677142D01*
X141120857Y-121620000D01*
X141206571Y-121591428D01*
X141263714Y-121591428D01*
X141349428Y-121620000D01*
X141378000Y-121648571D01*
X141578000Y-121591428D02*
X141949428Y-121591428D01*
X141749428Y-121820000D01*
X141835142Y-121820000D01*
X141892285Y-121848571D01*
X141920857Y-121877142D01*
X141949428Y-121934285D01*
X141949428Y-122077142D01*
X141920857Y-122134285D01*
X141892285Y-122162857D01*
X141835142Y-122191428D01*
X141663714Y-122191428D01*
X141606571Y-122162857D01*
X141578000Y-122134285D01*
G04 #@! TO.C,C2*
X142394000Y-118705285D02*
X142365428Y-118733857D01*
X142279714Y-118762428D01*
X142222571Y-118762428D01*
X142136857Y-118733857D01*
X142079714Y-118676714D01*
X142051142Y-118619571D01*
X142022571Y-118505285D01*
X142022571Y-118419571D01*
X142051142Y-118305285D01*
X142079714Y-118248142D01*
X142136857Y-118191000D01*
X142222571Y-118162428D01*
X142279714Y-118162428D01*
X142365428Y-118191000D01*
X142394000Y-118219571D01*
X142622571Y-118219571D02*
X142651142Y-118191000D01*
X142708285Y-118162428D01*
X142851142Y-118162428D01*
X142908285Y-118191000D01*
X142936857Y-118219571D01*
X142965428Y-118276714D01*
X142965428Y-118333857D01*
X142936857Y-118419571D01*
X142594000Y-118762428D01*
X142965428Y-118762428D01*
G04 #@! TO.C,C1*
X136739285Y-116178000D02*
X136767857Y-116206571D01*
X136796428Y-116292285D01*
X136796428Y-116349428D01*
X136767857Y-116435142D01*
X136710714Y-116492285D01*
X136653571Y-116520857D01*
X136539285Y-116549428D01*
X136453571Y-116549428D01*
X136339285Y-116520857D01*
X136282142Y-116492285D01*
X136225000Y-116435142D01*
X136196428Y-116349428D01*
X136196428Y-116292285D01*
X136225000Y-116206571D01*
X136253571Y-116178000D01*
X136796428Y-115606571D02*
X136796428Y-115949428D01*
X136796428Y-115778000D02*
X136196428Y-115778000D01*
X136282142Y-115835142D01*
X136339285Y-115892285D01*
X136367857Y-115949428D01*
G04 #@! TO.C,U4*
X139623857Y-122734428D02*
X139623857Y-123220142D01*
X139652428Y-123277285D01*
X139681000Y-123305857D01*
X139738142Y-123334428D01*
X139852428Y-123334428D01*
X139909571Y-123305857D01*
X139938142Y-123277285D01*
X139966714Y-123220142D01*
X139966714Y-122734428D01*
X140509571Y-122934428D02*
X140509571Y-123334428D01*
X140366714Y-122705857D02*
X140223857Y-123134428D01*
X140595285Y-123134428D01*
G04 #@! TO.C,U2*
X150037857Y-118543428D02*
X150037857Y-119029142D01*
X150066428Y-119086285D01*
X150095000Y-119114857D01*
X150152142Y-119143428D01*
X150266428Y-119143428D01*
X150323571Y-119114857D01*
X150352142Y-119086285D01*
X150380714Y-119029142D01*
X150380714Y-118543428D01*
X150637857Y-118600571D02*
X150666428Y-118572000D01*
X150723571Y-118543428D01*
X150866428Y-118543428D01*
X150923571Y-118572000D01*
X150952142Y-118600571D01*
X150980714Y-118657714D01*
X150980714Y-118714857D01*
X150952142Y-118800571D01*
X150609285Y-119143428D01*
X150980714Y-119143428D01*
G04 #@! TD*
M02*
