M48
; DRILL file {KiCad (6.0.1)} date Fri Mar 18 07:57:29 2022
; FORMAT={-:-/ absolute / inch / decimal}
; #@! TF.CreationDate,2022-03-18T07:57:29+01:00
; #@! TF.GenerationSoftware,Kicad,Pcbnew,(6.0.1)
; #@! TF.FileFunction,Plated,1,4,PTH
FMAT,2
INCH
; #@! TA.AperFunction,Plated,PTH,ViaDrill
T1C0.0118
; #@! TA.AperFunction,Plated,PTH,ViaDrill
T2C0.0157
; #@! TA.AperFunction,Plated,PTH,ComponentDrill
T3C0.0197
; #@! TA.AperFunction,Plated,PTH,ComponentDrill
T4C0.0236
; #@! TA.AperFunction,Plated,PTH,ComponentDrill
T5C0.0315
; #@! TA.AperFunction,Plated,PTH,ComponentDrill
T6C0.0984
%
G90
G05
T1
X5.1515Y-4.8784
X5.1515Y-5.085
X5.2697Y-4.2353
X5.3187Y-4.1663
X5.3268Y-4.1327
X5.3473Y-4.8901
X5.3592Y-4.7391
X5.4299Y-4.849
X5.444Y-4.5471
X5.4447Y-4.7596
X5.4525Y-3.82
X5.4652Y-4.1413
X5.4725Y-4.0822
X5.4769Y-3.8712
X5.4986Y-3.9411
X5.522Y-4.768
X5.5305Y-5.0122
X5.5308Y-4.1639
X5.547Y-4.768
X5.5482Y-4.8507
X5.5482Y-4.8782
X5.5682Y-4.0107
X5.572Y-4.768
X5.5985Y-4.1895
X5.6066Y-4.2221
X5.613Y-4.634
X5.6248Y-4.7955
X5.6384Y-4.295
X5.6531Y-4.128
X5.6674Y-4.6884
X5.68Y-3.7777
X5.7533Y-4.5636
X5.7913Y-4.2782
X5.8075Y-5.0428
X5.8199Y-4.3693
X5.8485Y-4.8019
X5.855Y-4.2864
X5.87Y-5.205
X5.8724Y-4.6778
X5.8915Y-4.2003
X5.895Y-5.205
X5.9126Y-4.8166
X5.92Y-5.205
X5.9425Y-4.6837
X5.945Y-4.8761
X5.945Y-5.205
X5.9485Y-4.5632
X5.97Y-5.205
X5.9897Y-4.4082
X5.9977Y-4.2106
X6.007Y-3.8612
X6.0072Y-3.8231
X6.01Y-4.614
X6.015Y-5.0425
X6.017Y-4.9162
X6.0391Y-4.8126
X6.0645Y-5.0299
X6.105Y-4.5462
X6.1215Y-4.8525
X6.129Y-4.8126
X6.1295Y-4.7202
X6.1413Y-4.3442
X6.1899Y-4.2748
X6.283Y-4.5477
X6.3085Y-4.9761
X6.3085Y-5.0739
X6.3129Y-4.7811
T2
X5.885Y-5.035
T3
X5.1562Y-3.855
X5.1562Y-5.285
X5.1778Y-3.8028
X5.1778Y-3.9072
X5.1778Y-5.2328
X5.1778Y-5.3372
X5.23Y-3.7812
X5.23Y-3.9288
X5.23Y-5.2112
X5.23Y-5.3588
X5.2822Y-3.8028
X5.2822Y-3.9072
X5.2822Y-5.2328
X5.2822Y-5.3372
X5.3038Y-3.855
X5.3038Y-5.285
X6.1562Y-3.855
X6.1562Y-5.285
X6.1778Y-3.8028
X6.1778Y-3.9072
X6.1778Y-5.2328
X6.1778Y-5.3372
X6.23Y-3.7812
X6.23Y-3.9288
X6.23Y-5.2112
X6.23Y-5.3588
X6.2822Y-3.8028
X6.2822Y-3.9072
X6.2822Y-5.2328
X6.2822Y-5.3372
X6.3038Y-3.855
X6.3038Y-5.285
T5
X5.1489Y-4.507
X5.1489Y-4.753
T6
X5.23Y-3.855
X5.23Y-5.285
X6.23Y-3.855
X6.23Y-5.285
T4
G00X5.7499Y-5.1588
M15
G01X5.7499Y-5.2021
M16
G05
G00X5.7499Y-5.3293
M15
G01X5.7499Y-5.3607
M16
G05
G00X6.0901Y-5.1588
M15
G01X6.0901Y-5.2021
M16
G05
G00X6.0901Y-5.3293
M15
G01X6.0901Y-5.3607
M16
G05
T0
M30
