G04 #@! TF.GenerationSoftware,KiCad,Pcbnew,(5.1.8)-1*
G04 #@! TF.CreationDate,2021-06-06T23:51:57+02:00*
G04 #@! TF.ProjectId,trick-tracker,74726963-6b2d-4747-9261-636b65722e6b,rev?*
G04 #@! TF.SameCoordinates,Original*
G04 #@! TF.FileFunction,Copper,L3,Inr*
G04 #@! TF.FilePolarity,Positive*
%FSLAX46Y46*%
G04 Gerber Fmt 4.6, Leading zero omitted, Abs format (unit mm)*
G04 Created by KiCad (PCBNEW (5.1.8)-1) date 2021-06-06 23:51:57*
%MOMM*%
%LPD*%
G01*
G04 APERTURE LIST*
G04 #@! TA.AperFunction,ComponentPad*
%ADD10C,0.800000*%
G04 #@! TD*
G04 #@! TA.AperFunction,ComponentPad*
%ADD11C,5.000000*%
G04 #@! TD*
G04 #@! TA.AperFunction,ComponentPad*
%ADD12O,1.050000X2.100000*%
G04 #@! TD*
G04 #@! TA.AperFunction,ComponentPad*
%ADD13O,1.000000X2.000000*%
G04 #@! TD*
G04 #@! TA.AperFunction,ComponentPad*
%ADD14C,1.300000*%
G04 #@! TD*
G04 #@! TA.AperFunction,ViaPad*
%ADD15C,0.800000*%
G04 #@! TD*
G04 #@! TA.AperFunction,ViaPad*
%ADD16C,0.500000*%
G04 #@! TD*
G04 #@! TA.AperFunction,Conductor*
%ADD17C,0.254000*%
G04 #@! TD*
G04 #@! TA.AperFunction,Conductor*
%ADD18C,0.100000*%
G04 #@! TD*
G04 APERTURE END LIST*
D10*
G04 #@! TO.N,N/C*
G04 #@! TO.C,H4*
X159567825Y-100020175D03*
X158242000Y-99471000D03*
X156916175Y-100020175D03*
X156367000Y-101346000D03*
X156916175Y-102671825D03*
X158242000Y-103221000D03*
X159567825Y-102671825D03*
X160117000Y-101346000D03*
D11*
X158242000Y-101346000D03*
G04 #@! TD*
D10*
G04 #@! TO.N,N/C*
G04 #@! TO.C,H3*
X134167825Y-100020175D03*
X132842000Y-99471000D03*
X131516175Y-100020175D03*
X130967000Y-101346000D03*
X131516175Y-102671825D03*
X132842000Y-103221000D03*
X134167825Y-102671825D03*
X134717000Y-101346000D03*
D11*
X132842000Y-101346000D03*
G04 #@! TD*
D10*
G04 #@! TO.N,N/C*
G04 #@! TO.C,H2*
X159567825Y-132913175D03*
X158242000Y-132364000D03*
X156916175Y-132913175D03*
X156367000Y-134239000D03*
X156916175Y-135564825D03*
X158242000Y-136114000D03*
X159567825Y-135564825D03*
X160117000Y-134239000D03*
D11*
X158242000Y-134239000D03*
G04 #@! TD*
D10*
G04 #@! TO.N,N/C*
G04 #@! TO.C,H1*
X134167825Y-132913175D03*
X132842000Y-132364000D03*
X131516175Y-132913175D03*
X130967000Y-134239000D03*
X131516175Y-135564825D03*
X132842000Y-136114000D03*
X134167825Y-135564825D03*
X134717000Y-134239000D03*
D11*
X132842000Y-134239000D03*
G04 #@! TD*
D12*
G04 #@! TO.N,Net-(J1-PadS4)*
G04 #@! TO.C,J1*
X154688000Y-131583000D03*
G04 #@! TO.N,Net-(J1-PadS1)*
X146048000Y-131583000D03*
D13*
G04 #@! TO.N,Net-(J1-PadS3)*
X154688000Y-135763000D03*
G04 #@! TO.N,Net-(J1-PadS2)*
X146048000Y-135763000D03*
G04 #@! TD*
D14*
G04 #@! TO.N,Net-(S3-PadMH2)*
G04 #@! TO.C,S3*
X130782000Y-120727000D03*
G04 #@! TO.N,Net-(S3-PadMH1)*
X130782000Y-114477000D03*
G04 #@! TD*
D15*
G04 #@! TO.N,GND*
X133604000Y-106553000D03*
D16*
X146812000Y-130175000D03*
X145923000Y-128270000D03*
X152273000Y-128143000D03*
X154813000Y-128397000D03*
X154051000Y-130175000D03*
D15*
X142621000Y-127381000D03*
D16*
X160401000Y-131572000D03*
X160274000Y-123825000D03*
D15*
X142748000Y-123063000D03*
X139192000Y-123063000D03*
X135509000Y-123571000D03*
X130937000Y-123825000D03*
X130937000Y-129032000D03*
X143256000Y-119507000D03*
X141732000Y-118237000D03*
X137541000Y-115189000D03*
X157353000Y-109601000D03*
X138049000Y-119761000D03*
X147701000Y-117221000D03*
D16*
X148450387Y-117236200D03*
D15*
X154940000Y-120015000D03*
X155067000Y-115570000D03*
X152273000Y-112776000D03*
X138430000Y-115189000D03*
X142620997Y-128483997D03*
D16*
X149859996Y-118872000D03*
X152696851Y-123694182D03*
X152721010Y-117221000D03*
D15*
X142621000Y-126492000D03*
D16*
X159984907Y-121376907D03*
D15*
X146050000Y-114808000D03*
X147955000Y-114935000D03*
X155342887Y-99341134D03*
X146812000Y-99060000D03*
X149352000Y-99060000D03*
D16*
X146685000Y-109093000D03*
X145923000Y-109093000D03*
X144145000Y-107696000D03*
X144144996Y-107061000D03*
X144144992Y-105918000D03*
D15*
G04 #@! TO.N,/VBUS*
X139319000Y-122047000D03*
X141351000Y-121158000D03*
X152274035Y-132182971D03*
X148461965Y-132182971D03*
X148209000Y-127889000D03*
X154813000Y-127546997D03*
X139319000Y-121285000D03*
D16*
G04 #@! TO.N,/VBAT*
X143256000Y-116586000D03*
X140081000Y-125095000D03*
X141351000Y-125095000D03*
X140716000Y-125095000D03*
X141986000Y-125095000D03*
X142621000Y-125095000D03*
X139445936Y-125143032D03*
X138684000Y-126111010D03*
X138683994Y-126873006D03*
X138684000Y-127493956D03*
X144559969Y-125095260D03*
X143383000Y-124714000D03*
X143891000Y-125095000D03*
X142875000Y-124079000D03*
D15*
G04 #@! TO.N,/3.3V*
X152273000Y-113919000D03*
D16*
X154940000Y-122174000D03*
D15*
X138684000Y-113919000D03*
X133604000Y-107569000D03*
X157353000Y-108585000D03*
X138049000Y-120761003D03*
D16*
X141478000Y-120015000D03*
X149046582Y-118872004D03*
X150559999Y-118872000D03*
X148463000Y-120269000D03*
D15*
X148459989Y-124110840D03*
X147447001Y-124079001D03*
X149479000Y-124079000D03*
X141986000Y-100711000D03*
X148717000Y-109093000D03*
X143383000Y-109093000D03*
X145034000Y-109093000D03*
X147193000Y-105156000D03*
X147700998Y-109093000D03*
D16*
G04 #@! TO.N,/D-*
X149987000Y-126111000D03*
G04 #@! TO.N,/D+*
X150686887Y-126124179D03*
G04 #@! TO.N,/STAT*
X158369000Y-121539000D03*
X158115000Y-115570000D03*
D15*
X154051000Y-125476000D03*
D16*
X157988000Y-123571000D03*
D15*
G04 #@! TO.N,/SCL*
X155194000Y-100330000D03*
X142240000Y-104902000D03*
X146050000Y-105156008D03*
G04 #@! TO.N,/SDA*
X155511835Y-103822156D03*
X144902340Y-105160660D03*
D16*
G04 #@! TO.N,/RESET*
X150241000Y-122047000D03*
X133604000Y-130556000D03*
D15*
X133694010Y-113532205D03*
D16*
G04 #@! TO.N,/PRESS_INT*
X149352000Y-120396000D03*
G04 #@! TO.N,/BTN*
X156591000Y-116713000D03*
X154051000Y-126746000D03*
X158750000Y-123698000D03*
D15*
G04 #@! TO.N,/SWDIO*
X138974990Y-102997000D03*
G04 #@! TO.N,/SWDCLK*
X138974990Y-101854000D03*
G04 #@! TO.N,/Tx*
X151115433Y-102251095D03*
G04 #@! TO.N,/Rx*
X151130000Y-103378000D03*
G04 #@! TO.N,/BAT_SENS*
X152273000Y-105156000D03*
D16*
G04 #@! TO.N,Net-(J1-PadA5)*
X148986674Y-130039703D03*
X147574000Y-128524000D03*
G04 #@! TO.N,Net-(D4-Pad2)*
X157353000Y-111379000D03*
D15*
G04 #@! TO.N,/CS*
X154051000Y-124333000D03*
X147447000Y-125095000D03*
G04 #@! TO.N,/SD_DETECT*
X139700000Y-113919000D03*
X139700000Y-109474000D03*
G04 #@! TO.N,/VIN*
X142240000Y-116586000D03*
X139446000Y-115189000D03*
X134575998Y-117729000D03*
D16*
G04 #@! TO.N,/BMX_INT2*
X138938000Y-105029000D03*
G04 #@! TO.N,/BMX_INT1*
X139090587Y-108864587D03*
G04 #@! TD*
D17*
G04 #@! TO.N,/VBAT*
X138459002Y-123462802D02*
X138494210Y-123528672D01*
X138541592Y-123586408D01*
X138599328Y-123633790D01*
X138665198Y-123668998D01*
X138716441Y-123684542D01*
X138822058Y-123755113D01*
X138964191Y-123813987D01*
X139115078Y-123844000D01*
X139268922Y-123844000D01*
X139419809Y-123813987D01*
X139561942Y-123755113D01*
X139647418Y-123698000D01*
X142292582Y-123698000D01*
X142378058Y-123755113D01*
X142520191Y-123813987D01*
X142671078Y-123844000D01*
X142824922Y-123844000D01*
X142975809Y-123813987D01*
X143117942Y-123755113D01*
X143203418Y-123698000D01*
X144907000Y-123698000D01*
X144907000Y-125222000D01*
X140208000Y-125222000D01*
X140183224Y-125224440D01*
X140159399Y-125231667D01*
X140137443Y-125243403D01*
X140118197Y-125259197D01*
X140102403Y-125278443D01*
X140090667Y-125300399D01*
X140083440Y-125324224D01*
X140081000Y-125349000D01*
X140081000Y-129159000D01*
X138049000Y-129159000D01*
X138049000Y-123444000D01*
X138453299Y-123444000D01*
X138459002Y-123462802D01*
G04 #@! TA.AperFunction,Conductor*
D18*
G36*
X138459002Y-123462802D02*
G01*
X138494210Y-123528672D01*
X138541592Y-123586408D01*
X138599328Y-123633790D01*
X138665198Y-123668998D01*
X138716441Y-123684542D01*
X138822058Y-123755113D01*
X138964191Y-123813987D01*
X139115078Y-123844000D01*
X139268922Y-123844000D01*
X139419809Y-123813987D01*
X139561942Y-123755113D01*
X139647418Y-123698000D01*
X142292582Y-123698000D01*
X142378058Y-123755113D01*
X142520191Y-123813987D01*
X142671078Y-123844000D01*
X142824922Y-123844000D01*
X142975809Y-123813987D01*
X143117942Y-123755113D01*
X143203418Y-123698000D01*
X144907000Y-123698000D01*
X144907000Y-125222000D01*
X140208000Y-125222000D01*
X140183224Y-125224440D01*
X140159399Y-125231667D01*
X140137443Y-125243403D01*
X140118197Y-125259197D01*
X140102403Y-125278443D01*
X140090667Y-125300399D01*
X140083440Y-125324224D01*
X140081000Y-125349000D01*
X140081000Y-129159000D01*
X138049000Y-129159000D01*
X138049000Y-123444000D01*
X138453299Y-123444000D01*
X138459002Y-123462802D01*
G37*
G04 #@! TD.AperFunction*
G04 #@! TD*
D17*
G04 #@! TO.N,/VIN*
X136790013Y-114961191D02*
X136760000Y-115112078D01*
X136760000Y-115265922D01*
X136790013Y-115416809D01*
X136848887Y-115558942D01*
X136934358Y-115686859D01*
X137043141Y-115795642D01*
X137171058Y-115881113D01*
X137313191Y-115939987D01*
X137464078Y-115970000D01*
X137617922Y-115970000D01*
X137768809Y-115939987D01*
X137910942Y-115881113D01*
X137985500Y-115831295D01*
X138060058Y-115881113D01*
X138202191Y-115939987D01*
X138353078Y-115970000D01*
X138506922Y-115970000D01*
X138657809Y-115939987D01*
X138799942Y-115881113D01*
X138927859Y-115795642D01*
X139036642Y-115686859D01*
X139122113Y-115558942D01*
X139180987Y-115416809D01*
X139211000Y-115265922D01*
X139211000Y-115112078D01*
X139180987Y-114961191D01*
X139170138Y-114935000D01*
X142748000Y-114935000D01*
X142748000Y-116210505D01*
X142696815Y-116287109D01*
X142649249Y-116401944D01*
X142625000Y-116523852D01*
X142625000Y-116648148D01*
X142649249Y-116770056D01*
X142696815Y-116884891D01*
X142748000Y-116961495D01*
X142748000Y-118910499D01*
X142649358Y-119009141D01*
X142563887Y-119137058D01*
X142515862Y-119253000D01*
X138645501Y-119253000D01*
X138546859Y-119154358D01*
X138418942Y-119068887D01*
X138276809Y-119010013D01*
X138125922Y-118980000D01*
X137972078Y-118980000D01*
X137821191Y-119010013D01*
X137679058Y-119068887D01*
X137551141Y-119154358D01*
X137452499Y-119253000D01*
X133604000Y-119253000D01*
X133604000Y-118160078D01*
X140951000Y-118160078D01*
X140951000Y-118313922D01*
X140981013Y-118464809D01*
X141039887Y-118606942D01*
X141125358Y-118734859D01*
X141234141Y-118843642D01*
X141362058Y-118929113D01*
X141504191Y-118987987D01*
X141655078Y-119018000D01*
X141808922Y-119018000D01*
X141959809Y-118987987D01*
X142101942Y-118929113D01*
X142229859Y-118843642D01*
X142338642Y-118734859D01*
X142424113Y-118606942D01*
X142482987Y-118464809D01*
X142513000Y-118313922D01*
X142513000Y-118160078D01*
X142482987Y-118009191D01*
X142424113Y-117867058D01*
X142338642Y-117739141D01*
X142229859Y-117630358D01*
X142101942Y-117544887D01*
X141959809Y-117486013D01*
X141808922Y-117456000D01*
X141655078Y-117456000D01*
X141504191Y-117486013D01*
X141362058Y-117544887D01*
X141234141Y-117630358D01*
X141125358Y-117739141D01*
X141039887Y-117867058D01*
X140981013Y-118009191D01*
X140951000Y-118160078D01*
X133604000Y-118160078D01*
X133604000Y-114935000D01*
X136800862Y-114935000D01*
X136790013Y-114961191D01*
G04 #@! TA.AperFunction,Conductor*
D18*
G36*
X136790013Y-114961191D02*
G01*
X136760000Y-115112078D01*
X136760000Y-115265922D01*
X136790013Y-115416809D01*
X136848887Y-115558942D01*
X136934358Y-115686859D01*
X137043141Y-115795642D01*
X137171058Y-115881113D01*
X137313191Y-115939987D01*
X137464078Y-115970000D01*
X137617922Y-115970000D01*
X137768809Y-115939987D01*
X137910942Y-115881113D01*
X137985500Y-115831295D01*
X138060058Y-115881113D01*
X138202191Y-115939987D01*
X138353078Y-115970000D01*
X138506922Y-115970000D01*
X138657809Y-115939987D01*
X138799942Y-115881113D01*
X138927859Y-115795642D01*
X139036642Y-115686859D01*
X139122113Y-115558942D01*
X139180987Y-115416809D01*
X139211000Y-115265922D01*
X139211000Y-115112078D01*
X139180987Y-114961191D01*
X139170138Y-114935000D01*
X142748000Y-114935000D01*
X142748000Y-116210505D01*
X142696815Y-116287109D01*
X142649249Y-116401944D01*
X142625000Y-116523852D01*
X142625000Y-116648148D01*
X142649249Y-116770056D01*
X142696815Y-116884891D01*
X142748000Y-116961495D01*
X142748000Y-118910499D01*
X142649358Y-119009141D01*
X142563887Y-119137058D01*
X142515862Y-119253000D01*
X138645501Y-119253000D01*
X138546859Y-119154358D01*
X138418942Y-119068887D01*
X138276809Y-119010013D01*
X138125922Y-118980000D01*
X137972078Y-118980000D01*
X137821191Y-119010013D01*
X137679058Y-119068887D01*
X137551141Y-119154358D01*
X137452499Y-119253000D01*
X133604000Y-119253000D01*
X133604000Y-118160078D01*
X140951000Y-118160078D01*
X140951000Y-118313922D01*
X140981013Y-118464809D01*
X141039887Y-118606942D01*
X141125358Y-118734859D01*
X141234141Y-118843642D01*
X141362058Y-118929113D01*
X141504191Y-118987987D01*
X141655078Y-119018000D01*
X141808922Y-119018000D01*
X141959809Y-118987987D01*
X142101942Y-118929113D01*
X142229859Y-118843642D01*
X142338642Y-118734859D01*
X142424113Y-118606942D01*
X142482987Y-118464809D01*
X142513000Y-118313922D01*
X142513000Y-118160078D01*
X142482987Y-118009191D01*
X142424113Y-117867058D01*
X142338642Y-117739141D01*
X142229859Y-117630358D01*
X142101942Y-117544887D01*
X141959809Y-117486013D01*
X141808922Y-117456000D01*
X141655078Y-117456000D01*
X141504191Y-117486013D01*
X141362058Y-117544887D01*
X141234141Y-117630358D01*
X141125358Y-117739141D01*
X141039887Y-117867058D01*
X140981013Y-118009191D01*
X140951000Y-118160078D01*
X133604000Y-118160078D01*
X133604000Y-114935000D01*
X136800862Y-114935000D01*
X136790013Y-114961191D01*
G37*
G04 #@! TD.AperFunction*
G04 #@! TD*
D17*
G04 #@! TO.N,/VBUS*
X143256000Y-122174000D02*
X143258440Y-122198776D01*
X143265667Y-122222601D01*
X143277403Y-122244557D01*
X143293197Y-122263803D01*
X143312443Y-122279597D01*
X143334399Y-122291333D01*
X143358224Y-122298560D01*
X143383000Y-122301000D01*
X146812000Y-122301000D01*
X146812000Y-123623584D01*
X146754888Y-123709059D01*
X146696014Y-123851192D01*
X146666001Y-124002079D01*
X146666001Y-124155923D01*
X146696014Y-124306810D01*
X146754888Y-124448943D01*
X146812000Y-124534418D01*
X146812000Y-124639582D01*
X146754887Y-124725058D01*
X146696013Y-124867191D01*
X146666000Y-125018078D01*
X146666000Y-125171922D01*
X146696013Y-125322809D01*
X146754887Y-125464942D01*
X146812000Y-125550418D01*
X146812000Y-126365000D01*
X146814440Y-126389776D01*
X146821667Y-126413601D01*
X146833403Y-126435557D01*
X146849197Y-126454803D01*
X146868443Y-126470597D01*
X146890399Y-126482333D01*
X146914224Y-126489560D01*
X146939000Y-126492000D01*
X149482679Y-126492000D01*
X149496870Y-126513239D01*
X149584761Y-126601130D01*
X149688109Y-126670185D01*
X149802944Y-126717751D01*
X149924852Y-126742000D01*
X150049148Y-126742000D01*
X150171056Y-126717751D01*
X150285891Y-126670185D01*
X150327082Y-126642662D01*
X150387996Y-126683364D01*
X150502831Y-126730930D01*
X150624739Y-126755179D01*
X150749035Y-126755179D01*
X150870943Y-126730930D01*
X150985778Y-126683364D01*
X151089126Y-126614309D01*
X151177017Y-126526418D01*
X151200014Y-126492000D01*
X153473221Y-126492000D01*
X153444249Y-126561944D01*
X153420000Y-126683852D01*
X153420000Y-126808148D01*
X153444249Y-126930056D01*
X153491815Y-127044891D01*
X153560870Y-127148239D01*
X153648761Y-127236130D01*
X153752109Y-127305185D01*
X153866944Y-127352751D01*
X153988852Y-127377000D01*
X154113148Y-127377000D01*
X154235056Y-127352751D01*
X154349891Y-127305185D01*
X154453239Y-127236130D01*
X154541130Y-127148239D01*
X154610185Y-127044891D01*
X154657751Y-126930056D01*
X154682000Y-126808148D01*
X154682000Y-126683852D01*
X154657751Y-126561944D01*
X154628779Y-126492000D01*
X155196465Y-126492000D01*
X155224387Y-127916018D01*
X155215239Y-127906870D01*
X155111891Y-127837815D01*
X154997056Y-127790249D01*
X154875148Y-127766000D01*
X154750852Y-127766000D01*
X154628944Y-127790249D01*
X154514109Y-127837815D01*
X154410761Y-127906870D01*
X154322870Y-127994761D01*
X154253815Y-128098109D01*
X154206249Y-128212944D01*
X154182000Y-128334852D01*
X154182000Y-128459148D01*
X154206249Y-128581056D01*
X154253815Y-128695891D01*
X154322870Y-128799239D01*
X154410761Y-128887130D01*
X154514109Y-128956185D01*
X154628944Y-129003751D01*
X154750852Y-129028000D01*
X154875148Y-129028000D01*
X154997056Y-129003751D01*
X155111891Y-128956185D01*
X155215239Y-128887130D01*
X155242886Y-128859483D01*
X155272418Y-130365579D01*
X155193781Y-130301044D01*
X155036387Y-130216916D01*
X154865606Y-130165110D01*
X154688000Y-130147617D01*
X154682000Y-130148208D01*
X154682000Y-130112852D01*
X154657751Y-129990944D01*
X154610185Y-129876109D01*
X154541130Y-129772761D01*
X154453239Y-129684870D01*
X154349891Y-129615815D01*
X154235056Y-129568249D01*
X154113148Y-129544000D01*
X153988852Y-129544000D01*
X153866944Y-129568249D01*
X153752109Y-129615815D01*
X153648761Y-129684870D01*
X153560870Y-129772761D01*
X153491815Y-129876109D01*
X153444249Y-129990944D01*
X153420000Y-130112852D01*
X153420000Y-130237148D01*
X153444249Y-130359056D01*
X153491815Y-130473891D01*
X153560870Y-130577239D01*
X153648761Y-130665130D01*
X153752109Y-130734185D01*
X153829711Y-130766329D01*
X153795110Y-130880394D01*
X153782000Y-131013500D01*
X153782001Y-131608566D01*
X153708049Y-131534614D01*
X153592416Y-131457351D01*
X153463933Y-131404131D01*
X153327535Y-131377000D01*
X153188465Y-131377000D01*
X153052067Y-131404131D01*
X152923584Y-131457351D01*
X152807951Y-131534614D01*
X152709614Y-131632951D01*
X152632351Y-131748584D01*
X152579131Y-131877067D01*
X152552000Y-132013465D01*
X152552000Y-132152535D01*
X152579131Y-132288933D01*
X152632351Y-132417416D01*
X152709614Y-132533049D01*
X152807951Y-132631386D01*
X152923584Y-132708649D01*
X152938916Y-132715000D01*
X147797084Y-132715000D01*
X147812416Y-132708649D01*
X147928049Y-132631386D01*
X148026386Y-132533049D01*
X148103649Y-132417416D01*
X148156869Y-132288933D01*
X148184000Y-132152535D01*
X148184000Y-132013465D01*
X148156869Y-131877067D01*
X148103649Y-131748584D01*
X148026386Y-131632951D01*
X147928049Y-131534614D01*
X147812416Y-131457351D01*
X147683933Y-131404131D01*
X147547535Y-131377000D01*
X147408465Y-131377000D01*
X147272067Y-131404131D01*
X147143584Y-131457351D01*
X147027951Y-131534614D01*
X146954000Y-131608565D01*
X146954000Y-131013499D01*
X146940890Y-130880393D01*
X146915809Y-130797713D01*
X146996056Y-130781751D01*
X147110891Y-130734185D01*
X147214239Y-130665130D01*
X147302130Y-130577239D01*
X147371185Y-130473891D01*
X147418751Y-130359056D01*
X147443000Y-130237148D01*
X147443000Y-130112852D01*
X147418751Y-129990944D01*
X147413206Y-129977555D01*
X148355674Y-129977555D01*
X148355674Y-130101851D01*
X148379923Y-130223759D01*
X148427489Y-130338594D01*
X148496544Y-130441942D01*
X148584435Y-130529833D01*
X148687783Y-130598888D01*
X148802618Y-130646454D01*
X148924526Y-130670703D01*
X149048822Y-130670703D01*
X149170730Y-130646454D01*
X149285565Y-130598888D01*
X149388913Y-130529833D01*
X149476804Y-130441942D01*
X149545859Y-130338594D01*
X149593425Y-130223759D01*
X149617674Y-130101851D01*
X149617674Y-129977555D01*
X149593425Y-129855647D01*
X149545859Y-129740812D01*
X149476804Y-129637464D01*
X149388913Y-129549573D01*
X149285565Y-129480518D01*
X149170730Y-129432952D01*
X149048822Y-129408703D01*
X148924526Y-129408703D01*
X148802618Y-129432952D01*
X148687783Y-129480518D01*
X148584435Y-129549573D01*
X148496544Y-129637464D01*
X148427489Y-129740812D01*
X148379923Y-129855647D01*
X148355674Y-129977555D01*
X147413206Y-129977555D01*
X147371185Y-129876109D01*
X147302130Y-129772761D01*
X147214239Y-129684870D01*
X147110891Y-129615815D01*
X146996056Y-129568249D01*
X146874148Y-129544000D01*
X146749852Y-129544000D01*
X146627944Y-129568249D01*
X146513109Y-129615815D01*
X146409761Y-129684870D01*
X146321870Y-129772761D01*
X146252815Y-129876109D01*
X146205249Y-129990944D01*
X146181000Y-130112852D01*
X146181000Y-130160717D01*
X146048000Y-130147617D01*
X145870393Y-130165110D01*
X145699612Y-130216916D01*
X145542218Y-130301044D01*
X145415000Y-130405450D01*
X145415000Y-128645495D01*
X145432870Y-128672239D01*
X145520761Y-128760130D01*
X145624109Y-128829185D01*
X145738944Y-128876751D01*
X145860852Y-128901000D01*
X145985148Y-128901000D01*
X146107056Y-128876751D01*
X146221891Y-128829185D01*
X146325239Y-128760130D01*
X146413130Y-128672239D01*
X146482185Y-128568891D01*
X146526521Y-128461852D01*
X146943000Y-128461852D01*
X146943000Y-128586148D01*
X146967249Y-128708056D01*
X147014815Y-128822891D01*
X147083870Y-128926239D01*
X147171761Y-129014130D01*
X147275109Y-129083185D01*
X147389944Y-129130751D01*
X147511852Y-129155000D01*
X147636148Y-129155000D01*
X147758056Y-129130751D01*
X147872891Y-129083185D01*
X147976239Y-129014130D01*
X148064130Y-128926239D01*
X148133185Y-128822891D01*
X148180751Y-128708056D01*
X148205000Y-128586148D01*
X148205000Y-128461852D01*
X148180751Y-128339944D01*
X148133185Y-128225109D01*
X148064130Y-128121761D01*
X148023221Y-128080852D01*
X151642000Y-128080852D01*
X151642000Y-128205148D01*
X151666249Y-128327056D01*
X151713815Y-128441891D01*
X151782870Y-128545239D01*
X151870761Y-128633130D01*
X151974109Y-128702185D01*
X152088944Y-128749751D01*
X152210852Y-128774000D01*
X152335148Y-128774000D01*
X152457056Y-128749751D01*
X152571891Y-128702185D01*
X152675239Y-128633130D01*
X152763130Y-128545239D01*
X152832185Y-128441891D01*
X152879751Y-128327056D01*
X152904000Y-128205148D01*
X152904000Y-128080852D01*
X152879751Y-127958944D01*
X152832185Y-127844109D01*
X152763130Y-127740761D01*
X152675239Y-127652870D01*
X152571891Y-127583815D01*
X152457056Y-127536249D01*
X152335148Y-127512000D01*
X152210852Y-127512000D01*
X152088944Y-127536249D01*
X151974109Y-127583815D01*
X151870761Y-127652870D01*
X151782870Y-127740761D01*
X151713815Y-127844109D01*
X151666249Y-127958944D01*
X151642000Y-128080852D01*
X148023221Y-128080852D01*
X147976239Y-128033870D01*
X147872891Y-127964815D01*
X147758056Y-127917249D01*
X147636148Y-127893000D01*
X147511852Y-127893000D01*
X147389944Y-127917249D01*
X147275109Y-127964815D01*
X147171761Y-128033870D01*
X147083870Y-128121761D01*
X147014815Y-128225109D01*
X146967249Y-128339944D01*
X146943000Y-128461852D01*
X146526521Y-128461852D01*
X146529751Y-128454056D01*
X146554000Y-128332148D01*
X146554000Y-128207852D01*
X146529751Y-128085944D01*
X146482185Y-127971109D01*
X146413130Y-127867761D01*
X146325239Y-127779870D01*
X146221891Y-127710815D01*
X146107056Y-127663249D01*
X145985148Y-127639000D01*
X145860852Y-127639000D01*
X145738944Y-127663249D01*
X145624109Y-127710815D01*
X145520761Y-127779870D01*
X145432870Y-127867761D01*
X145415000Y-127894505D01*
X145415000Y-123317000D01*
X145412560Y-123292224D01*
X145405333Y-123268399D01*
X145393597Y-123246443D01*
X145377803Y-123227197D01*
X145358557Y-123211403D01*
X145336601Y-123199667D01*
X145312776Y-123192440D01*
X145288000Y-123190000D01*
X143519039Y-123190000D01*
X143529000Y-123139922D01*
X143529000Y-122986078D01*
X143498987Y-122835191D01*
X143440113Y-122693058D01*
X143354642Y-122565141D01*
X143245859Y-122456358D01*
X143117942Y-122370887D01*
X142975809Y-122312013D01*
X142824922Y-122282000D01*
X142671078Y-122282000D01*
X142520191Y-122312013D01*
X142378058Y-122370887D01*
X142250141Y-122456358D01*
X142141358Y-122565141D01*
X142055887Y-122693058D01*
X141997013Y-122835191D01*
X141967000Y-122986078D01*
X141967000Y-123139922D01*
X141976961Y-123190000D01*
X139963039Y-123190000D01*
X139973000Y-123139922D01*
X139973000Y-122986078D01*
X139942987Y-122835191D01*
X139884113Y-122693058D01*
X139798642Y-122565141D01*
X139689859Y-122456358D01*
X139561942Y-122370887D01*
X139419809Y-122312013D01*
X139268922Y-122282000D01*
X139115078Y-122282000D01*
X138964191Y-122312013D01*
X138938000Y-122322862D01*
X138938000Y-121031000D01*
X141478000Y-121031000D01*
X141502776Y-121028560D01*
X141526601Y-121021333D01*
X141548557Y-121009597D01*
X141567803Y-120993803D01*
X141583597Y-120974557D01*
X141595333Y-120952601D01*
X141602560Y-120928776D01*
X141605000Y-120904000D01*
X141605000Y-120633100D01*
X141662056Y-120621751D01*
X141776891Y-120574185D01*
X141880239Y-120505130D01*
X141968130Y-120417239D01*
X141982321Y-120396000D01*
X143256000Y-120396000D01*
X143256000Y-122174000D01*
G04 #@! TA.AperFunction,Conductor*
D18*
G36*
X143256000Y-122174000D02*
G01*
X143258440Y-122198776D01*
X143265667Y-122222601D01*
X143277403Y-122244557D01*
X143293197Y-122263803D01*
X143312443Y-122279597D01*
X143334399Y-122291333D01*
X143358224Y-122298560D01*
X143383000Y-122301000D01*
X146812000Y-122301000D01*
X146812000Y-123623584D01*
X146754888Y-123709059D01*
X146696014Y-123851192D01*
X146666001Y-124002079D01*
X146666001Y-124155923D01*
X146696014Y-124306810D01*
X146754888Y-124448943D01*
X146812000Y-124534418D01*
X146812000Y-124639582D01*
X146754887Y-124725058D01*
X146696013Y-124867191D01*
X146666000Y-125018078D01*
X146666000Y-125171922D01*
X146696013Y-125322809D01*
X146754887Y-125464942D01*
X146812000Y-125550418D01*
X146812000Y-126365000D01*
X146814440Y-126389776D01*
X146821667Y-126413601D01*
X146833403Y-126435557D01*
X146849197Y-126454803D01*
X146868443Y-126470597D01*
X146890399Y-126482333D01*
X146914224Y-126489560D01*
X146939000Y-126492000D01*
X149482679Y-126492000D01*
X149496870Y-126513239D01*
X149584761Y-126601130D01*
X149688109Y-126670185D01*
X149802944Y-126717751D01*
X149924852Y-126742000D01*
X150049148Y-126742000D01*
X150171056Y-126717751D01*
X150285891Y-126670185D01*
X150327082Y-126642662D01*
X150387996Y-126683364D01*
X150502831Y-126730930D01*
X150624739Y-126755179D01*
X150749035Y-126755179D01*
X150870943Y-126730930D01*
X150985778Y-126683364D01*
X151089126Y-126614309D01*
X151177017Y-126526418D01*
X151200014Y-126492000D01*
X153473221Y-126492000D01*
X153444249Y-126561944D01*
X153420000Y-126683852D01*
X153420000Y-126808148D01*
X153444249Y-126930056D01*
X153491815Y-127044891D01*
X153560870Y-127148239D01*
X153648761Y-127236130D01*
X153752109Y-127305185D01*
X153866944Y-127352751D01*
X153988852Y-127377000D01*
X154113148Y-127377000D01*
X154235056Y-127352751D01*
X154349891Y-127305185D01*
X154453239Y-127236130D01*
X154541130Y-127148239D01*
X154610185Y-127044891D01*
X154657751Y-126930056D01*
X154682000Y-126808148D01*
X154682000Y-126683852D01*
X154657751Y-126561944D01*
X154628779Y-126492000D01*
X155196465Y-126492000D01*
X155224387Y-127916018D01*
X155215239Y-127906870D01*
X155111891Y-127837815D01*
X154997056Y-127790249D01*
X154875148Y-127766000D01*
X154750852Y-127766000D01*
X154628944Y-127790249D01*
X154514109Y-127837815D01*
X154410761Y-127906870D01*
X154322870Y-127994761D01*
X154253815Y-128098109D01*
X154206249Y-128212944D01*
X154182000Y-128334852D01*
X154182000Y-128459148D01*
X154206249Y-128581056D01*
X154253815Y-128695891D01*
X154322870Y-128799239D01*
X154410761Y-128887130D01*
X154514109Y-128956185D01*
X154628944Y-129003751D01*
X154750852Y-129028000D01*
X154875148Y-129028000D01*
X154997056Y-129003751D01*
X155111891Y-128956185D01*
X155215239Y-128887130D01*
X155242886Y-128859483D01*
X155272418Y-130365579D01*
X155193781Y-130301044D01*
X155036387Y-130216916D01*
X154865606Y-130165110D01*
X154688000Y-130147617D01*
X154682000Y-130148208D01*
X154682000Y-130112852D01*
X154657751Y-129990944D01*
X154610185Y-129876109D01*
X154541130Y-129772761D01*
X154453239Y-129684870D01*
X154349891Y-129615815D01*
X154235056Y-129568249D01*
X154113148Y-129544000D01*
X153988852Y-129544000D01*
X153866944Y-129568249D01*
X153752109Y-129615815D01*
X153648761Y-129684870D01*
X153560870Y-129772761D01*
X153491815Y-129876109D01*
X153444249Y-129990944D01*
X153420000Y-130112852D01*
X153420000Y-130237148D01*
X153444249Y-130359056D01*
X153491815Y-130473891D01*
X153560870Y-130577239D01*
X153648761Y-130665130D01*
X153752109Y-130734185D01*
X153829711Y-130766329D01*
X153795110Y-130880394D01*
X153782000Y-131013500D01*
X153782001Y-131608566D01*
X153708049Y-131534614D01*
X153592416Y-131457351D01*
X153463933Y-131404131D01*
X153327535Y-131377000D01*
X153188465Y-131377000D01*
X153052067Y-131404131D01*
X152923584Y-131457351D01*
X152807951Y-131534614D01*
X152709614Y-131632951D01*
X152632351Y-131748584D01*
X152579131Y-131877067D01*
X152552000Y-132013465D01*
X152552000Y-132152535D01*
X152579131Y-132288933D01*
X152632351Y-132417416D01*
X152709614Y-132533049D01*
X152807951Y-132631386D01*
X152923584Y-132708649D01*
X152938916Y-132715000D01*
X147797084Y-132715000D01*
X147812416Y-132708649D01*
X147928049Y-132631386D01*
X148026386Y-132533049D01*
X148103649Y-132417416D01*
X148156869Y-132288933D01*
X148184000Y-132152535D01*
X148184000Y-132013465D01*
X148156869Y-131877067D01*
X148103649Y-131748584D01*
X148026386Y-131632951D01*
X147928049Y-131534614D01*
X147812416Y-131457351D01*
X147683933Y-131404131D01*
X147547535Y-131377000D01*
X147408465Y-131377000D01*
X147272067Y-131404131D01*
X147143584Y-131457351D01*
X147027951Y-131534614D01*
X146954000Y-131608565D01*
X146954000Y-131013499D01*
X146940890Y-130880393D01*
X146915809Y-130797713D01*
X146996056Y-130781751D01*
X147110891Y-130734185D01*
X147214239Y-130665130D01*
X147302130Y-130577239D01*
X147371185Y-130473891D01*
X147418751Y-130359056D01*
X147443000Y-130237148D01*
X147443000Y-130112852D01*
X147418751Y-129990944D01*
X147413206Y-129977555D01*
X148355674Y-129977555D01*
X148355674Y-130101851D01*
X148379923Y-130223759D01*
X148427489Y-130338594D01*
X148496544Y-130441942D01*
X148584435Y-130529833D01*
X148687783Y-130598888D01*
X148802618Y-130646454D01*
X148924526Y-130670703D01*
X149048822Y-130670703D01*
X149170730Y-130646454D01*
X149285565Y-130598888D01*
X149388913Y-130529833D01*
X149476804Y-130441942D01*
X149545859Y-130338594D01*
X149593425Y-130223759D01*
X149617674Y-130101851D01*
X149617674Y-129977555D01*
X149593425Y-129855647D01*
X149545859Y-129740812D01*
X149476804Y-129637464D01*
X149388913Y-129549573D01*
X149285565Y-129480518D01*
X149170730Y-129432952D01*
X149048822Y-129408703D01*
X148924526Y-129408703D01*
X148802618Y-129432952D01*
X148687783Y-129480518D01*
X148584435Y-129549573D01*
X148496544Y-129637464D01*
X148427489Y-129740812D01*
X148379923Y-129855647D01*
X148355674Y-129977555D01*
X147413206Y-129977555D01*
X147371185Y-129876109D01*
X147302130Y-129772761D01*
X147214239Y-129684870D01*
X147110891Y-129615815D01*
X146996056Y-129568249D01*
X146874148Y-129544000D01*
X146749852Y-129544000D01*
X146627944Y-129568249D01*
X146513109Y-129615815D01*
X146409761Y-129684870D01*
X146321870Y-129772761D01*
X146252815Y-129876109D01*
X146205249Y-129990944D01*
X146181000Y-130112852D01*
X146181000Y-130160717D01*
X146048000Y-130147617D01*
X145870393Y-130165110D01*
X145699612Y-130216916D01*
X145542218Y-130301044D01*
X145415000Y-130405450D01*
X145415000Y-128645495D01*
X145432870Y-128672239D01*
X145520761Y-128760130D01*
X145624109Y-128829185D01*
X145738944Y-128876751D01*
X145860852Y-128901000D01*
X145985148Y-128901000D01*
X146107056Y-128876751D01*
X146221891Y-128829185D01*
X146325239Y-128760130D01*
X146413130Y-128672239D01*
X146482185Y-128568891D01*
X146526521Y-128461852D01*
X146943000Y-128461852D01*
X146943000Y-128586148D01*
X146967249Y-128708056D01*
X147014815Y-128822891D01*
X147083870Y-128926239D01*
X147171761Y-129014130D01*
X147275109Y-129083185D01*
X147389944Y-129130751D01*
X147511852Y-129155000D01*
X147636148Y-129155000D01*
X147758056Y-129130751D01*
X147872891Y-129083185D01*
X147976239Y-129014130D01*
X148064130Y-128926239D01*
X148133185Y-128822891D01*
X148180751Y-128708056D01*
X148205000Y-128586148D01*
X148205000Y-128461852D01*
X148180751Y-128339944D01*
X148133185Y-128225109D01*
X148064130Y-128121761D01*
X148023221Y-128080852D01*
X151642000Y-128080852D01*
X151642000Y-128205148D01*
X151666249Y-128327056D01*
X151713815Y-128441891D01*
X151782870Y-128545239D01*
X151870761Y-128633130D01*
X151974109Y-128702185D01*
X152088944Y-128749751D01*
X152210852Y-128774000D01*
X152335148Y-128774000D01*
X152457056Y-128749751D01*
X152571891Y-128702185D01*
X152675239Y-128633130D01*
X152763130Y-128545239D01*
X152832185Y-128441891D01*
X152879751Y-128327056D01*
X152904000Y-128205148D01*
X152904000Y-128080852D01*
X152879751Y-127958944D01*
X152832185Y-127844109D01*
X152763130Y-127740761D01*
X152675239Y-127652870D01*
X152571891Y-127583815D01*
X152457056Y-127536249D01*
X152335148Y-127512000D01*
X152210852Y-127512000D01*
X152088944Y-127536249D01*
X151974109Y-127583815D01*
X151870761Y-127652870D01*
X151782870Y-127740761D01*
X151713815Y-127844109D01*
X151666249Y-127958944D01*
X151642000Y-128080852D01*
X148023221Y-128080852D01*
X147976239Y-128033870D01*
X147872891Y-127964815D01*
X147758056Y-127917249D01*
X147636148Y-127893000D01*
X147511852Y-127893000D01*
X147389944Y-127917249D01*
X147275109Y-127964815D01*
X147171761Y-128033870D01*
X147083870Y-128121761D01*
X147014815Y-128225109D01*
X146967249Y-128339944D01*
X146943000Y-128461852D01*
X146526521Y-128461852D01*
X146529751Y-128454056D01*
X146554000Y-128332148D01*
X146554000Y-128207852D01*
X146529751Y-128085944D01*
X146482185Y-127971109D01*
X146413130Y-127867761D01*
X146325239Y-127779870D01*
X146221891Y-127710815D01*
X146107056Y-127663249D01*
X145985148Y-127639000D01*
X145860852Y-127639000D01*
X145738944Y-127663249D01*
X145624109Y-127710815D01*
X145520761Y-127779870D01*
X145432870Y-127867761D01*
X145415000Y-127894505D01*
X145415000Y-123317000D01*
X145412560Y-123292224D01*
X145405333Y-123268399D01*
X145393597Y-123246443D01*
X145377803Y-123227197D01*
X145358557Y-123211403D01*
X145336601Y-123199667D01*
X145312776Y-123192440D01*
X145288000Y-123190000D01*
X143519039Y-123190000D01*
X143529000Y-123139922D01*
X143529000Y-122986078D01*
X143498987Y-122835191D01*
X143440113Y-122693058D01*
X143354642Y-122565141D01*
X143245859Y-122456358D01*
X143117942Y-122370887D01*
X142975809Y-122312013D01*
X142824922Y-122282000D01*
X142671078Y-122282000D01*
X142520191Y-122312013D01*
X142378058Y-122370887D01*
X142250141Y-122456358D01*
X142141358Y-122565141D01*
X142055887Y-122693058D01*
X141997013Y-122835191D01*
X141967000Y-122986078D01*
X141967000Y-123139922D01*
X141976961Y-123190000D01*
X139963039Y-123190000D01*
X139973000Y-123139922D01*
X139973000Y-122986078D01*
X139942987Y-122835191D01*
X139884113Y-122693058D01*
X139798642Y-122565141D01*
X139689859Y-122456358D01*
X139561942Y-122370887D01*
X139419809Y-122312013D01*
X139268922Y-122282000D01*
X139115078Y-122282000D01*
X138964191Y-122312013D01*
X138938000Y-122322862D01*
X138938000Y-121031000D01*
X141478000Y-121031000D01*
X141502776Y-121028560D01*
X141526601Y-121021333D01*
X141548557Y-121009597D01*
X141567803Y-120993803D01*
X141583597Y-120974557D01*
X141595333Y-120952601D01*
X141602560Y-120928776D01*
X141605000Y-120904000D01*
X141605000Y-120633100D01*
X141662056Y-120621751D01*
X141776891Y-120574185D01*
X141880239Y-120505130D01*
X141968130Y-120417239D01*
X141982321Y-120396000D01*
X143256000Y-120396000D01*
X143256000Y-122174000D01*
G37*
G04 #@! TD.AperFunction*
G04 #@! TD*
D17*
G04 #@! TO.N,/3.3V*
X146119887Y-98690058D02*
X146061013Y-98832191D01*
X146031000Y-98983078D01*
X146031000Y-99136922D01*
X146061013Y-99287809D01*
X146119887Y-99429942D01*
X146205358Y-99557859D01*
X146314141Y-99666642D01*
X146442058Y-99752113D01*
X146584191Y-99810987D01*
X146735078Y-99841000D01*
X146888922Y-99841000D01*
X147039809Y-99810987D01*
X147181942Y-99752113D01*
X147309859Y-99666642D01*
X147418642Y-99557859D01*
X147504113Y-99429942D01*
X147562987Y-99287809D01*
X147593000Y-99136922D01*
X147593000Y-98983078D01*
X147562987Y-98832191D01*
X147504113Y-98690058D01*
X147496724Y-98679000D01*
X148667276Y-98679000D01*
X148659887Y-98690058D01*
X148601013Y-98832191D01*
X148571000Y-98983078D01*
X148571000Y-99136922D01*
X148601013Y-99287809D01*
X148659887Y-99429942D01*
X148745358Y-99557859D01*
X148854141Y-99666642D01*
X148982058Y-99752113D01*
X149124191Y-99810987D01*
X149275078Y-99841000D01*
X149428922Y-99841000D01*
X149579809Y-99810987D01*
X149721942Y-99752113D01*
X149849859Y-99666642D01*
X149958642Y-99557859D01*
X150044113Y-99429942D01*
X150102987Y-99287809D01*
X150133000Y-99136922D01*
X150133000Y-98983078D01*
X150102987Y-98832191D01*
X150044113Y-98690058D01*
X150036724Y-98679000D01*
X154928078Y-98679000D01*
X154845028Y-98734492D01*
X154736245Y-98843275D01*
X154650774Y-98971192D01*
X154591900Y-99113325D01*
X154561887Y-99264212D01*
X154561887Y-99418056D01*
X154591900Y-99568943D01*
X154650774Y-99711076D01*
X154673865Y-99745634D01*
X154587358Y-99832141D01*
X154501887Y-99960058D01*
X154443013Y-100102191D01*
X154413000Y-100253078D01*
X154413000Y-100406922D01*
X154443013Y-100557809D01*
X154501887Y-100699942D01*
X154587358Y-100827859D01*
X154696141Y-100936642D01*
X154824058Y-101022113D01*
X154966191Y-101080987D01*
X155117078Y-101111000D01*
X155270922Y-101111000D01*
X155361000Y-101093083D01*
X155361000Y-101629754D01*
X155471715Y-102186357D01*
X155688891Y-102710665D01*
X156004181Y-103182530D01*
X156405470Y-103583819D01*
X156877335Y-103899109D01*
X157401643Y-104116285D01*
X157958246Y-104227000D01*
X158525754Y-104227000D01*
X159082357Y-104116285D01*
X159606665Y-103899109D01*
X160078530Y-103583819D01*
X160479819Y-103182530D01*
X160630000Y-102957768D01*
X160630001Y-123303975D01*
X160572891Y-123265815D01*
X160458056Y-123218249D01*
X160336148Y-123194000D01*
X160211852Y-123194000D01*
X160089944Y-123218249D01*
X159975109Y-123265815D01*
X159871761Y-123334870D01*
X159783870Y-123422761D01*
X159714815Y-123526109D01*
X159667249Y-123640944D01*
X159643000Y-123762852D01*
X159643000Y-123887148D01*
X159667249Y-124009056D01*
X159714815Y-124123891D01*
X159783870Y-124227239D01*
X159871761Y-124315130D01*
X159975109Y-124384185D01*
X160089944Y-124431751D01*
X160211852Y-124456000D01*
X160336148Y-124456000D01*
X160458056Y-124431751D01*
X160572891Y-124384185D01*
X160630001Y-124346025D01*
X160630001Y-130983866D01*
X160585056Y-130965249D01*
X160463148Y-130941000D01*
X160338852Y-130941000D01*
X160216944Y-130965249D01*
X160102109Y-131012815D01*
X159998761Y-131081870D01*
X159910870Y-131169761D01*
X159841815Y-131273109D01*
X159794249Y-131387944D01*
X159770000Y-131509852D01*
X159770000Y-131634148D01*
X159794249Y-131756056D01*
X159825849Y-131832345D01*
X159606665Y-131685891D01*
X159082357Y-131468715D01*
X158525754Y-131358000D01*
X157958246Y-131358000D01*
X157401643Y-131468715D01*
X156877335Y-131685891D01*
X156405470Y-132001181D01*
X156004181Y-132402470D01*
X155825693Y-132669596D01*
X155701927Y-126357531D01*
X155694679Y-126290671D01*
X155672998Y-126219198D01*
X155637790Y-126153328D01*
X155590408Y-126095592D01*
X155532672Y-126048210D01*
X155466802Y-126013002D01*
X155395329Y-125991321D01*
X155321000Y-125984000D01*
X154647501Y-125984000D01*
X154657642Y-125973859D01*
X154743113Y-125845942D01*
X154801987Y-125703809D01*
X154832000Y-125552922D01*
X154832000Y-125399078D01*
X154801987Y-125248191D01*
X154743113Y-125106058D01*
X154657642Y-124978141D01*
X154584001Y-124904500D01*
X154657642Y-124830859D01*
X154743113Y-124702942D01*
X154801987Y-124560809D01*
X154832000Y-124409922D01*
X154832000Y-124256078D01*
X154801987Y-124105191D01*
X154743113Y-123963058D01*
X154657642Y-123835141D01*
X154548859Y-123726358D01*
X154420942Y-123640887D01*
X154278809Y-123582013D01*
X154127922Y-123552000D01*
X153974078Y-123552000D01*
X153823191Y-123582013D01*
X153681058Y-123640887D01*
X153553141Y-123726358D01*
X153444358Y-123835141D01*
X153358887Y-123963058D01*
X153300013Y-124105191D01*
X153270000Y-124256078D01*
X153270000Y-124409922D01*
X153300013Y-124560809D01*
X153358887Y-124702942D01*
X153444358Y-124830859D01*
X153517999Y-124904500D01*
X153444358Y-124978141D01*
X153358887Y-125106058D01*
X153300013Y-125248191D01*
X153270000Y-125399078D01*
X153270000Y-125552922D01*
X153300013Y-125703809D01*
X153358887Y-125845942D01*
X153444358Y-125973859D01*
X153454499Y-125984000D01*
X151302366Y-125984000D01*
X151293638Y-125940123D01*
X151246072Y-125825288D01*
X151177017Y-125721940D01*
X151089126Y-125634049D01*
X150985778Y-125564994D01*
X150870943Y-125517428D01*
X150749035Y-125493179D01*
X150624739Y-125493179D01*
X150502831Y-125517428D01*
X150387996Y-125564994D01*
X150346805Y-125592517D01*
X150285891Y-125551815D01*
X150171056Y-125504249D01*
X150049148Y-125480000D01*
X149924852Y-125480000D01*
X149802944Y-125504249D01*
X149688109Y-125551815D01*
X149584761Y-125620870D01*
X149496870Y-125708761D01*
X149427815Y-125812109D01*
X149380249Y-125926944D01*
X149368900Y-125984000D01*
X147320000Y-125984000D01*
X147320000Y-125866039D01*
X147370078Y-125876000D01*
X147523922Y-125876000D01*
X147674809Y-125845987D01*
X147816942Y-125787113D01*
X147944859Y-125701642D01*
X148053642Y-125592859D01*
X148139113Y-125464942D01*
X148197987Y-125322809D01*
X148228000Y-125171922D01*
X148228000Y-125018078D01*
X148197987Y-124867191D01*
X148139113Y-124725058D01*
X148053642Y-124597141D01*
X147944859Y-124488358D01*
X147816942Y-124402887D01*
X147674809Y-124344013D01*
X147523922Y-124314000D01*
X147370078Y-124314000D01*
X147320000Y-124323961D01*
X147320000Y-123632034D01*
X152065851Y-123632034D01*
X152065851Y-123756330D01*
X152090100Y-123878238D01*
X152137666Y-123993073D01*
X152206721Y-124096421D01*
X152294612Y-124184312D01*
X152397960Y-124253367D01*
X152512795Y-124300933D01*
X152634703Y-124325182D01*
X152758999Y-124325182D01*
X152880907Y-124300933D01*
X152995742Y-124253367D01*
X153099090Y-124184312D01*
X153186981Y-124096421D01*
X153256036Y-123993073D01*
X153303602Y-123878238D01*
X153327851Y-123756330D01*
X153327851Y-123632034D01*
X153303602Y-123510126D01*
X153303075Y-123508852D01*
X157357000Y-123508852D01*
X157357000Y-123633148D01*
X157381249Y-123755056D01*
X157428815Y-123869891D01*
X157497870Y-123973239D01*
X157585761Y-124061130D01*
X157689109Y-124130185D01*
X157803944Y-124177751D01*
X157925852Y-124202000D01*
X158050148Y-124202000D01*
X158172056Y-124177751D01*
X158286891Y-124130185D01*
X158288644Y-124129013D01*
X158347761Y-124188130D01*
X158451109Y-124257185D01*
X158565944Y-124304751D01*
X158687852Y-124329000D01*
X158812148Y-124329000D01*
X158934056Y-124304751D01*
X159048891Y-124257185D01*
X159152239Y-124188130D01*
X159240130Y-124100239D01*
X159309185Y-123996891D01*
X159356751Y-123882056D01*
X159381000Y-123760148D01*
X159381000Y-123635852D01*
X159356751Y-123513944D01*
X159309185Y-123399109D01*
X159240130Y-123295761D01*
X159152239Y-123207870D01*
X159048891Y-123138815D01*
X158934056Y-123091249D01*
X158812148Y-123067000D01*
X158687852Y-123067000D01*
X158565944Y-123091249D01*
X158451109Y-123138815D01*
X158449356Y-123139987D01*
X158390239Y-123080870D01*
X158286891Y-123011815D01*
X158172056Y-122964249D01*
X158050148Y-122940000D01*
X157925852Y-122940000D01*
X157803944Y-122964249D01*
X157689109Y-123011815D01*
X157585761Y-123080870D01*
X157497870Y-123168761D01*
X157428815Y-123272109D01*
X157381249Y-123386944D01*
X157357000Y-123508852D01*
X153303075Y-123508852D01*
X153256036Y-123395291D01*
X153186981Y-123291943D01*
X153099090Y-123204052D01*
X152995742Y-123134997D01*
X152880907Y-123087431D01*
X152758999Y-123063182D01*
X152634703Y-123063182D01*
X152512795Y-123087431D01*
X152397960Y-123134997D01*
X152294612Y-123204052D01*
X152206721Y-123291943D01*
X152137666Y-123395291D01*
X152090100Y-123510126D01*
X152065851Y-123632034D01*
X147320000Y-123632034D01*
X147320000Y-122174000D01*
X147312679Y-122099671D01*
X147290998Y-122028198D01*
X147267830Y-121984852D01*
X149610000Y-121984852D01*
X149610000Y-122109148D01*
X149634249Y-122231056D01*
X149681815Y-122345891D01*
X149750870Y-122449239D01*
X149838761Y-122537130D01*
X149942109Y-122606185D01*
X150056944Y-122653751D01*
X150178852Y-122678000D01*
X150303148Y-122678000D01*
X150425056Y-122653751D01*
X150539891Y-122606185D01*
X150643239Y-122537130D01*
X150731130Y-122449239D01*
X150800185Y-122345891D01*
X150847751Y-122231056D01*
X150872000Y-122109148D01*
X150872000Y-121984852D01*
X150847751Y-121862944D01*
X150800185Y-121748109D01*
X150731130Y-121644761D01*
X150643239Y-121556870D01*
X150539891Y-121487815D01*
X150513424Y-121476852D01*
X157738000Y-121476852D01*
X157738000Y-121601148D01*
X157762249Y-121723056D01*
X157809815Y-121837891D01*
X157878870Y-121941239D01*
X157966761Y-122029130D01*
X158070109Y-122098185D01*
X158184944Y-122145751D01*
X158306852Y-122170000D01*
X158431148Y-122170000D01*
X158553056Y-122145751D01*
X158667891Y-122098185D01*
X158771239Y-122029130D01*
X158859130Y-121941239D01*
X158928185Y-121837891D01*
X158975751Y-121723056D01*
X159000000Y-121601148D01*
X159000000Y-121476852D01*
X158975751Y-121354944D01*
X158959106Y-121314759D01*
X159353907Y-121314759D01*
X159353907Y-121439055D01*
X159378156Y-121560963D01*
X159425722Y-121675798D01*
X159494777Y-121779146D01*
X159582668Y-121867037D01*
X159686016Y-121936092D01*
X159800851Y-121983658D01*
X159922759Y-122007907D01*
X160047055Y-122007907D01*
X160168963Y-121983658D01*
X160283798Y-121936092D01*
X160387146Y-121867037D01*
X160475037Y-121779146D01*
X160544092Y-121675798D01*
X160591658Y-121560963D01*
X160615907Y-121439055D01*
X160615907Y-121314759D01*
X160591658Y-121192851D01*
X160544092Y-121078016D01*
X160475037Y-120974668D01*
X160387146Y-120886777D01*
X160283798Y-120817722D01*
X160168963Y-120770156D01*
X160047055Y-120745907D01*
X159922759Y-120745907D01*
X159800851Y-120770156D01*
X159686016Y-120817722D01*
X159582668Y-120886777D01*
X159494777Y-120974668D01*
X159425722Y-121078016D01*
X159378156Y-121192851D01*
X159353907Y-121314759D01*
X158959106Y-121314759D01*
X158928185Y-121240109D01*
X158859130Y-121136761D01*
X158771239Y-121048870D01*
X158667891Y-120979815D01*
X158553056Y-120932249D01*
X158431148Y-120908000D01*
X158306852Y-120908000D01*
X158184944Y-120932249D01*
X158070109Y-120979815D01*
X157966761Y-121048870D01*
X157878870Y-121136761D01*
X157809815Y-121240109D01*
X157762249Y-121354944D01*
X157738000Y-121476852D01*
X150513424Y-121476852D01*
X150425056Y-121440249D01*
X150303148Y-121416000D01*
X150178852Y-121416000D01*
X150056944Y-121440249D01*
X149942109Y-121487815D01*
X149838761Y-121556870D01*
X149750870Y-121644761D01*
X149681815Y-121748109D01*
X149634249Y-121862944D01*
X149610000Y-121984852D01*
X147267830Y-121984852D01*
X147255790Y-121962328D01*
X147208408Y-121904592D01*
X147150672Y-121857210D01*
X147084802Y-121822002D01*
X147013329Y-121800321D01*
X146939000Y-121793000D01*
X143764000Y-121793000D01*
X143764000Y-120333852D01*
X148721000Y-120333852D01*
X148721000Y-120458148D01*
X148745249Y-120580056D01*
X148792815Y-120694891D01*
X148861870Y-120798239D01*
X148949761Y-120886130D01*
X149053109Y-120955185D01*
X149167944Y-121002751D01*
X149289852Y-121027000D01*
X149414148Y-121027000D01*
X149536056Y-121002751D01*
X149650891Y-120955185D01*
X149754239Y-120886130D01*
X149842130Y-120798239D01*
X149911185Y-120694891D01*
X149958751Y-120580056D01*
X149983000Y-120458148D01*
X149983000Y-120333852D01*
X149958751Y-120211944D01*
X149911185Y-120097109D01*
X149842130Y-119993761D01*
X149786447Y-119938078D01*
X154159000Y-119938078D01*
X154159000Y-120091922D01*
X154189013Y-120242809D01*
X154247887Y-120384942D01*
X154333358Y-120512859D01*
X154442141Y-120621642D01*
X154570058Y-120707113D01*
X154712191Y-120765987D01*
X154863078Y-120796000D01*
X155016922Y-120796000D01*
X155167809Y-120765987D01*
X155309942Y-120707113D01*
X155437859Y-120621642D01*
X155546642Y-120512859D01*
X155632113Y-120384942D01*
X155690987Y-120242809D01*
X155721000Y-120091922D01*
X155721000Y-119938078D01*
X155690987Y-119787191D01*
X155632113Y-119645058D01*
X155546642Y-119517141D01*
X155437859Y-119408358D01*
X155309942Y-119322887D01*
X155167809Y-119264013D01*
X155016922Y-119234000D01*
X154863078Y-119234000D01*
X154712191Y-119264013D01*
X154570058Y-119322887D01*
X154442141Y-119408358D01*
X154333358Y-119517141D01*
X154247887Y-119645058D01*
X154189013Y-119787191D01*
X154159000Y-119938078D01*
X149786447Y-119938078D01*
X149754239Y-119905870D01*
X149650891Y-119836815D01*
X149536056Y-119789249D01*
X149414148Y-119765000D01*
X149289852Y-119765000D01*
X149167944Y-119789249D01*
X149053109Y-119836815D01*
X148949761Y-119905870D01*
X148861870Y-119993761D01*
X148792815Y-120097109D01*
X148745249Y-120211944D01*
X148721000Y-120333852D01*
X143764000Y-120333852D01*
X143764000Y-120269000D01*
X143756679Y-120194671D01*
X143735766Y-120125731D01*
X143753859Y-120113642D01*
X143862642Y-120004859D01*
X143948113Y-119876942D01*
X144006987Y-119734809D01*
X144037000Y-119583922D01*
X144037000Y-119430078D01*
X144006987Y-119279191D01*
X143948113Y-119137058D01*
X143862642Y-119009141D01*
X143753859Y-118900358D01*
X143625942Y-118814887D01*
X143613787Y-118809852D01*
X149228996Y-118809852D01*
X149228996Y-118934148D01*
X149253245Y-119056056D01*
X149300811Y-119170891D01*
X149369866Y-119274239D01*
X149457757Y-119362130D01*
X149561105Y-119431185D01*
X149675940Y-119478751D01*
X149797848Y-119503000D01*
X149922144Y-119503000D01*
X150044052Y-119478751D01*
X150158887Y-119431185D01*
X150262235Y-119362130D01*
X150350126Y-119274239D01*
X150419181Y-119170891D01*
X150466747Y-119056056D01*
X150490996Y-118934148D01*
X150490996Y-118809852D01*
X150466747Y-118687944D01*
X150419181Y-118573109D01*
X150350126Y-118469761D01*
X150262235Y-118381870D01*
X150158887Y-118312815D01*
X150044052Y-118265249D01*
X149922144Y-118241000D01*
X149797848Y-118241000D01*
X149675940Y-118265249D01*
X149561105Y-118312815D01*
X149457757Y-118381870D01*
X149369866Y-118469761D01*
X149300811Y-118573109D01*
X149253245Y-118687944D01*
X149228996Y-118809852D01*
X143613787Y-118809852D01*
X143483809Y-118756013D01*
X143332922Y-118726000D01*
X143256000Y-118726000D01*
X143256000Y-117217000D01*
X143318148Y-117217000D01*
X143440056Y-117192751D01*
X143554891Y-117145185D01*
X143556547Y-117144078D01*
X146920000Y-117144078D01*
X146920000Y-117297922D01*
X146950013Y-117448809D01*
X147008887Y-117590942D01*
X147094358Y-117718859D01*
X147203141Y-117827642D01*
X147331058Y-117913113D01*
X147473191Y-117971987D01*
X147624078Y-118002000D01*
X147777922Y-118002000D01*
X147928809Y-117971987D01*
X148070942Y-117913113D01*
X148198859Y-117827642D01*
X148207796Y-117818705D01*
X148266331Y-117842951D01*
X148388239Y-117867200D01*
X148512535Y-117867200D01*
X148634443Y-117842951D01*
X148749278Y-117795385D01*
X148852626Y-117726330D01*
X148940517Y-117638439D01*
X149009572Y-117535091D01*
X149057138Y-117420256D01*
X149081387Y-117298348D01*
X149081387Y-117174052D01*
X149078364Y-117158852D01*
X152090010Y-117158852D01*
X152090010Y-117283148D01*
X152114259Y-117405056D01*
X152161825Y-117519891D01*
X152230880Y-117623239D01*
X152318771Y-117711130D01*
X152422119Y-117780185D01*
X152536954Y-117827751D01*
X152658862Y-117852000D01*
X152783158Y-117852000D01*
X152905066Y-117827751D01*
X153019901Y-117780185D01*
X153123249Y-117711130D01*
X153211140Y-117623239D01*
X153280195Y-117519891D01*
X153327761Y-117405056D01*
X153352010Y-117283148D01*
X153352010Y-117158852D01*
X153327761Y-117036944D01*
X153280195Y-116922109D01*
X153211140Y-116818761D01*
X153123249Y-116730870D01*
X153019901Y-116661815D01*
X152993434Y-116650852D01*
X155960000Y-116650852D01*
X155960000Y-116775148D01*
X155984249Y-116897056D01*
X156031815Y-117011891D01*
X156100870Y-117115239D01*
X156188761Y-117203130D01*
X156292109Y-117272185D01*
X156406944Y-117319751D01*
X156528852Y-117344000D01*
X156653148Y-117344000D01*
X156775056Y-117319751D01*
X156889891Y-117272185D01*
X156993239Y-117203130D01*
X157081130Y-117115239D01*
X157150185Y-117011891D01*
X157197751Y-116897056D01*
X157222000Y-116775148D01*
X157222000Y-116650852D01*
X157197751Y-116528944D01*
X157150185Y-116414109D01*
X157081130Y-116310761D01*
X156993239Y-116222870D01*
X156889891Y-116153815D01*
X156775056Y-116106249D01*
X156653148Y-116082000D01*
X156528852Y-116082000D01*
X156406944Y-116106249D01*
X156292109Y-116153815D01*
X156188761Y-116222870D01*
X156100870Y-116310761D01*
X156031815Y-116414109D01*
X155984249Y-116528944D01*
X155960000Y-116650852D01*
X152993434Y-116650852D01*
X152905066Y-116614249D01*
X152783158Y-116590000D01*
X152658862Y-116590000D01*
X152536954Y-116614249D01*
X152422119Y-116661815D01*
X152318771Y-116730870D01*
X152230880Y-116818761D01*
X152161825Y-116922109D01*
X152114259Y-117036944D01*
X152090010Y-117158852D01*
X149078364Y-117158852D01*
X149057138Y-117052144D01*
X149009572Y-116937309D01*
X148940517Y-116833961D01*
X148852626Y-116746070D01*
X148749278Y-116677015D01*
X148634443Y-116629449D01*
X148512535Y-116605200D01*
X148388239Y-116605200D01*
X148266331Y-116629449D01*
X148229292Y-116644791D01*
X148198859Y-116614358D01*
X148070942Y-116528887D01*
X147928809Y-116470013D01*
X147777922Y-116440000D01*
X147624078Y-116440000D01*
X147473191Y-116470013D01*
X147331058Y-116528887D01*
X147203141Y-116614358D01*
X147094358Y-116723141D01*
X147008887Y-116851058D01*
X146950013Y-116993191D01*
X146920000Y-117144078D01*
X143556547Y-117144078D01*
X143658239Y-117076130D01*
X143746130Y-116988239D01*
X143815185Y-116884891D01*
X143862751Y-116770056D01*
X143887000Y-116648148D01*
X143887000Y-116523852D01*
X143862751Y-116401944D01*
X143815185Y-116287109D01*
X143746130Y-116183761D01*
X143658239Y-116095870D01*
X143554891Y-116026815D01*
X143440056Y-115979249D01*
X143318148Y-115955000D01*
X143256000Y-115955000D01*
X143256000Y-114808000D01*
X143248679Y-114733671D01*
X143247893Y-114731078D01*
X145269000Y-114731078D01*
X145269000Y-114884922D01*
X145299013Y-115035809D01*
X145357887Y-115177942D01*
X145443358Y-115305859D01*
X145552141Y-115414642D01*
X145680058Y-115500113D01*
X145822191Y-115558987D01*
X145973078Y-115589000D01*
X146126922Y-115589000D01*
X146277809Y-115558987D01*
X146419942Y-115500113D01*
X146547859Y-115414642D01*
X146656642Y-115305859D01*
X146742113Y-115177942D01*
X146800987Y-115035809D01*
X146831000Y-114884922D01*
X146831000Y-114858078D01*
X147174000Y-114858078D01*
X147174000Y-115011922D01*
X147204013Y-115162809D01*
X147262887Y-115304942D01*
X147348358Y-115432859D01*
X147457141Y-115541642D01*
X147585058Y-115627113D01*
X147727191Y-115685987D01*
X147878078Y-115716000D01*
X148031922Y-115716000D01*
X148182809Y-115685987D01*
X148324942Y-115627113D01*
X148452859Y-115541642D01*
X148501423Y-115493078D01*
X154286000Y-115493078D01*
X154286000Y-115646922D01*
X154316013Y-115797809D01*
X154374887Y-115939942D01*
X154460358Y-116067859D01*
X154569141Y-116176642D01*
X154697058Y-116262113D01*
X154839191Y-116320987D01*
X154990078Y-116351000D01*
X155143922Y-116351000D01*
X155294809Y-116320987D01*
X155436942Y-116262113D01*
X155564859Y-116176642D01*
X155673642Y-116067859D01*
X155759113Y-115939942D01*
X155817987Y-115797809D01*
X155848000Y-115646922D01*
X155848000Y-115507852D01*
X157484000Y-115507852D01*
X157484000Y-115632148D01*
X157508249Y-115754056D01*
X157555815Y-115868891D01*
X157624870Y-115972239D01*
X157712761Y-116060130D01*
X157816109Y-116129185D01*
X157930944Y-116176751D01*
X158052852Y-116201000D01*
X158177148Y-116201000D01*
X158299056Y-116176751D01*
X158413891Y-116129185D01*
X158517239Y-116060130D01*
X158605130Y-115972239D01*
X158674185Y-115868891D01*
X158721751Y-115754056D01*
X158746000Y-115632148D01*
X158746000Y-115507852D01*
X158721751Y-115385944D01*
X158674185Y-115271109D01*
X158605130Y-115167761D01*
X158517239Y-115079870D01*
X158413891Y-115010815D01*
X158299056Y-114963249D01*
X158177148Y-114939000D01*
X158052852Y-114939000D01*
X157930944Y-114963249D01*
X157816109Y-115010815D01*
X157712761Y-115079870D01*
X157624870Y-115167761D01*
X157555815Y-115271109D01*
X157508249Y-115385944D01*
X157484000Y-115507852D01*
X155848000Y-115507852D01*
X155848000Y-115493078D01*
X155817987Y-115342191D01*
X155759113Y-115200058D01*
X155673642Y-115072141D01*
X155564859Y-114963358D01*
X155436942Y-114877887D01*
X155294809Y-114819013D01*
X155143922Y-114789000D01*
X154990078Y-114789000D01*
X154839191Y-114819013D01*
X154697058Y-114877887D01*
X154569141Y-114963358D01*
X154460358Y-115072141D01*
X154374887Y-115200058D01*
X154316013Y-115342191D01*
X154286000Y-115493078D01*
X148501423Y-115493078D01*
X148561642Y-115432859D01*
X148647113Y-115304942D01*
X148705987Y-115162809D01*
X148736000Y-115011922D01*
X148736000Y-114858078D01*
X148705987Y-114707191D01*
X148647113Y-114565058D01*
X148561642Y-114437141D01*
X148452859Y-114328358D01*
X148324942Y-114242887D01*
X148182809Y-114184013D01*
X148031922Y-114154000D01*
X147878078Y-114154000D01*
X147727191Y-114184013D01*
X147585058Y-114242887D01*
X147457141Y-114328358D01*
X147348358Y-114437141D01*
X147262887Y-114565058D01*
X147204013Y-114707191D01*
X147174000Y-114858078D01*
X146831000Y-114858078D01*
X146831000Y-114731078D01*
X146800987Y-114580191D01*
X146742113Y-114438058D01*
X146656642Y-114310141D01*
X146547859Y-114201358D01*
X146419942Y-114115887D01*
X146277809Y-114057013D01*
X146126922Y-114027000D01*
X145973078Y-114027000D01*
X145822191Y-114057013D01*
X145680058Y-114115887D01*
X145552141Y-114201358D01*
X145443358Y-114310141D01*
X145357887Y-114438058D01*
X145299013Y-114580191D01*
X145269000Y-114731078D01*
X143247893Y-114731078D01*
X143226998Y-114662198D01*
X143191790Y-114596328D01*
X143144408Y-114538592D01*
X143086672Y-114491210D01*
X143020802Y-114456002D01*
X142949329Y-114434321D01*
X142875000Y-114427000D01*
X140296501Y-114427000D01*
X140306642Y-114416859D01*
X140392113Y-114288942D01*
X140450987Y-114146809D01*
X140481000Y-113995922D01*
X140481000Y-113842078D01*
X140450987Y-113691191D01*
X140392113Y-113549058D01*
X140306642Y-113421141D01*
X140197859Y-113312358D01*
X140069942Y-113226887D01*
X139927809Y-113168013D01*
X139776922Y-113138000D01*
X139623078Y-113138000D01*
X139472191Y-113168013D01*
X139330058Y-113226887D01*
X139202141Y-113312358D01*
X139093358Y-113421141D01*
X139007887Y-113549058D01*
X138949013Y-113691191D01*
X138919000Y-113842078D01*
X138919000Y-113995922D01*
X138949013Y-114146809D01*
X139007887Y-114288942D01*
X139093358Y-114416859D01*
X139103499Y-114427000D01*
X138602442Y-114427000D01*
X138506922Y-114408000D01*
X138353078Y-114408000D01*
X138257558Y-114427000D01*
X137713442Y-114427000D01*
X137617922Y-114408000D01*
X137464078Y-114408000D01*
X137368558Y-114427000D01*
X133477000Y-114427000D01*
X133402671Y-114434321D01*
X133331198Y-114456002D01*
X133265328Y-114491210D01*
X133207592Y-114538592D01*
X133160210Y-114596328D01*
X133125002Y-114662198D01*
X133103321Y-114733671D01*
X133096000Y-114808000D01*
X133096000Y-119380000D01*
X133103321Y-119454329D01*
X133125002Y-119525802D01*
X133160210Y-119591672D01*
X133207592Y-119649408D01*
X133265328Y-119696790D01*
X133331198Y-119731998D01*
X133402671Y-119753679D01*
X133477000Y-119761000D01*
X137268000Y-119761000D01*
X137268000Y-119837922D01*
X137298013Y-119988809D01*
X137356887Y-120130942D01*
X137442358Y-120258859D01*
X137551141Y-120367642D01*
X137679058Y-120453113D01*
X137821191Y-120511987D01*
X137972078Y-120542000D01*
X138125922Y-120542000D01*
X138276809Y-120511987D01*
X138418942Y-120453113D01*
X138546859Y-120367642D01*
X138655642Y-120258859D01*
X138741113Y-120130942D01*
X138799987Y-119988809D01*
X138830000Y-119837922D01*
X138830000Y-119761000D01*
X142515862Y-119761000D01*
X142563887Y-119876942D01*
X142571276Y-119888000D01*
X141478000Y-119888000D01*
X141403671Y-119895321D01*
X141332198Y-119917002D01*
X141266328Y-119952210D01*
X141208592Y-119999592D01*
X141161210Y-120057328D01*
X141126002Y-120123198D01*
X141104321Y-120194671D01*
X141097000Y-120269000D01*
X141097000Y-120417862D01*
X140981058Y-120465887D01*
X140895582Y-120523000D01*
X139491442Y-120523000D01*
X139395922Y-120504000D01*
X139242078Y-120504000D01*
X139146558Y-120523000D01*
X138811000Y-120523000D01*
X138736671Y-120530321D01*
X138665198Y-120552002D01*
X138599328Y-120587210D01*
X138541592Y-120634592D01*
X138494210Y-120692328D01*
X138459002Y-120758198D01*
X138437321Y-120829671D01*
X138430000Y-120904000D01*
X138430000Y-122890558D01*
X138420961Y-122936000D01*
X137922000Y-122936000D01*
X137847671Y-122943321D01*
X137776198Y-122965002D01*
X137710328Y-123000210D01*
X137652592Y-123047592D01*
X137605210Y-123105328D01*
X137570002Y-123171198D01*
X137548321Y-123242671D01*
X137541000Y-123317000D01*
X137541000Y-129286000D01*
X137548321Y-129360329D01*
X137570002Y-129431802D01*
X137605210Y-129497672D01*
X137652592Y-129555408D01*
X137710328Y-129602790D01*
X137776198Y-129637998D01*
X137847671Y-129659679D01*
X137922000Y-129667000D01*
X140208000Y-129667000D01*
X140282329Y-129659679D01*
X140353802Y-129637998D01*
X140419672Y-129602790D01*
X140477408Y-129555408D01*
X140524790Y-129497672D01*
X140559998Y-129431802D01*
X140581679Y-129360329D01*
X140589000Y-129286000D01*
X140589000Y-125730000D01*
X142448558Y-125730000D01*
X142393191Y-125741013D01*
X142251058Y-125799887D01*
X142123141Y-125885358D01*
X142014358Y-125994141D01*
X141928887Y-126122058D01*
X141870013Y-126264191D01*
X141840000Y-126415078D01*
X141840000Y-126568922D01*
X141870013Y-126719809D01*
X141928887Y-126861942D01*
X141978705Y-126936500D01*
X141928887Y-127011058D01*
X141870013Y-127153191D01*
X141840000Y-127304078D01*
X141840000Y-127457922D01*
X141870013Y-127608809D01*
X141928887Y-127750942D01*
X142014358Y-127878859D01*
X142067996Y-127932497D01*
X142014355Y-127986138D01*
X141928884Y-128114055D01*
X141870010Y-128256188D01*
X141839997Y-128407075D01*
X141839997Y-128560919D01*
X141870010Y-128711806D01*
X141928884Y-128853939D01*
X142014355Y-128981856D01*
X142123138Y-129090639D01*
X142251055Y-129176110D01*
X142393188Y-129234984D01*
X142544075Y-129264997D01*
X142697919Y-129264997D01*
X142848806Y-129234984D01*
X142990939Y-129176110D01*
X143118856Y-129090639D01*
X143227639Y-128981856D01*
X143313110Y-128853939D01*
X143371984Y-128711806D01*
X143401997Y-128560919D01*
X143401997Y-128407075D01*
X143371984Y-128256188D01*
X143313110Y-128114055D01*
X143227639Y-127986138D01*
X143174001Y-127932500D01*
X143227642Y-127878859D01*
X143313113Y-127750942D01*
X143371987Y-127608809D01*
X143402000Y-127457922D01*
X143402000Y-127304078D01*
X143371987Y-127153191D01*
X143313113Y-127011058D01*
X143263295Y-126936500D01*
X143313113Y-126861942D01*
X143371987Y-126719809D01*
X143402000Y-126568922D01*
X143402000Y-126415078D01*
X143371987Y-126264191D01*
X143313113Y-126122058D01*
X143227642Y-125994141D01*
X143118859Y-125885358D01*
X142990942Y-125799887D01*
X142848809Y-125741013D01*
X142793442Y-125730000D01*
X144907000Y-125730000D01*
X144907000Y-132842000D01*
X144914321Y-132916329D01*
X144936002Y-132987802D01*
X144971210Y-133053672D01*
X145018592Y-133111408D01*
X145076328Y-133158790D01*
X145142198Y-133193998D01*
X145213671Y-133215679D01*
X145288000Y-133223000D01*
X155448000Y-133223000D01*
X155529641Y-133214150D01*
X155551010Y-133207207D01*
X155471715Y-133398643D01*
X155361000Y-133955246D01*
X155361000Y-134522754D01*
X155406046Y-134749215D01*
X155313975Y-134637025D01*
X155179824Y-134526932D01*
X155026774Y-134445125D01*
X154860705Y-134394748D01*
X154688000Y-134377738D01*
X154515294Y-134394748D01*
X154349225Y-134445125D01*
X154196175Y-134526932D01*
X154062025Y-134637025D01*
X153951932Y-134771176D01*
X153870125Y-134924226D01*
X153819748Y-135090295D01*
X153807000Y-135219728D01*
X153807001Y-136306273D01*
X153819749Y-136435706D01*
X153870126Y-136601775D01*
X153883609Y-136627000D01*
X146852392Y-136627000D01*
X146865875Y-136601775D01*
X146916252Y-136435706D01*
X146929000Y-136306273D01*
X146929000Y-135219727D01*
X146916252Y-135090294D01*
X146865875Y-134924225D01*
X146784068Y-134771175D01*
X146673975Y-134637025D01*
X146539824Y-134526932D01*
X146386774Y-134445125D01*
X146220705Y-134394748D01*
X146048000Y-134377738D01*
X145875294Y-134394748D01*
X145709225Y-134445125D01*
X145556175Y-134526932D01*
X145422025Y-134637025D01*
X145311932Y-134771176D01*
X145230125Y-134924226D01*
X145179748Y-135090295D01*
X145167000Y-135219728D01*
X145167001Y-136306273D01*
X145179749Y-136435706D01*
X145230126Y-136601775D01*
X145243609Y-136627000D01*
X144932000Y-136627000D01*
X144932000Y-135147941D01*
X144933964Y-135128000D01*
X144926125Y-135048410D01*
X144902910Y-134971879D01*
X144865210Y-134901347D01*
X144814474Y-134839526D01*
X144752653Y-134788790D01*
X144682121Y-134751090D01*
X144605590Y-134727875D01*
X144545941Y-134722000D01*
X144545940Y-134722000D01*
X144526000Y-134720036D01*
X144506059Y-134722000D01*
X136417940Y-134722000D01*
X136398000Y-134720036D01*
X136378059Y-134722000D01*
X136318410Y-134727875D01*
X136241879Y-134751090D01*
X136171347Y-134788790D01*
X136109526Y-134839526D01*
X136058790Y-134901347D01*
X136021090Y-134971879D01*
X135997875Y-135048410D01*
X135990036Y-135128000D01*
X135992000Y-135147941D01*
X135992001Y-136627000D01*
X134453768Y-136627000D01*
X134678530Y-136476819D01*
X135079819Y-136075530D01*
X135395109Y-135603665D01*
X135612285Y-135079357D01*
X135723000Y-134522754D01*
X135723000Y-133955246D01*
X135612285Y-133398643D01*
X135395109Y-132874335D01*
X135079819Y-132402470D01*
X134678530Y-132001181D01*
X134206665Y-131685891D01*
X133682357Y-131468715D01*
X133125754Y-131358000D01*
X132558246Y-131358000D01*
X132001643Y-131468715D01*
X131477335Y-131685891D01*
X131005470Y-132001181D01*
X130604181Y-132402470D01*
X130454000Y-132627232D01*
X130454000Y-130493852D01*
X132973000Y-130493852D01*
X132973000Y-130618148D01*
X132997249Y-130740056D01*
X133044815Y-130854891D01*
X133113870Y-130958239D01*
X133201761Y-131046130D01*
X133305109Y-131115185D01*
X133419944Y-131162751D01*
X133541852Y-131187000D01*
X133666148Y-131187000D01*
X133788056Y-131162751D01*
X133902891Y-131115185D01*
X134006239Y-131046130D01*
X134094130Y-130958239D01*
X134163185Y-130854891D01*
X134210751Y-130740056D01*
X134235000Y-130618148D01*
X134235000Y-130493852D01*
X134210751Y-130371944D01*
X134163185Y-130257109D01*
X134094130Y-130153761D01*
X134006239Y-130065870D01*
X133902891Y-129996815D01*
X133788056Y-129949249D01*
X133666148Y-129925000D01*
X133541852Y-129925000D01*
X133419944Y-129949249D01*
X133305109Y-129996815D01*
X133201761Y-130065870D01*
X133113870Y-130153761D01*
X133044815Y-130257109D01*
X132997249Y-130371944D01*
X132973000Y-130493852D01*
X130454000Y-130493852D01*
X130454000Y-129648570D01*
X130567058Y-129724113D01*
X130709191Y-129782987D01*
X130860078Y-129813000D01*
X131013922Y-129813000D01*
X131164809Y-129782987D01*
X131306942Y-129724113D01*
X131434859Y-129638642D01*
X131543642Y-129529859D01*
X131629113Y-129401942D01*
X131687987Y-129259809D01*
X131718000Y-129108922D01*
X131718000Y-128955078D01*
X131687987Y-128804191D01*
X131629113Y-128662058D01*
X131543642Y-128534141D01*
X131434859Y-128425358D01*
X131306942Y-128339887D01*
X131164809Y-128281013D01*
X131013922Y-128251000D01*
X130860078Y-128251000D01*
X130709191Y-128281013D01*
X130567058Y-128339887D01*
X130454000Y-128415430D01*
X130454000Y-124441570D01*
X130567058Y-124517113D01*
X130709191Y-124575987D01*
X130860078Y-124606000D01*
X131013922Y-124606000D01*
X131164809Y-124575987D01*
X131306942Y-124517113D01*
X131434859Y-124431642D01*
X131543642Y-124322859D01*
X131629113Y-124194942D01*
X131687987Y-124052809D01*
X131718000Y-123901922D01*
X131718000Y-123748078D01*
X131687987Y-123597191D01*
X131645276Y-123494078D01*
X134728000Y-123494078D01*
X134728000Y-123647922D01*
X134758013Y-123798809D01*
X134816887Y-123940942D01*
X134902358Y-124068859D01*
X135011141Y-124177642D01*
X135139058Y-124263113D01*
X135281191Y-124321987D01*
X135432078Y-124352000D01*
X135585922Y-124352000D01*
X135736809Y-124321987D01*
X135878942Y-124263113D01*
X136006859Y-124177642D01*
X136115642Y-124068859D01*
X136201113Y-123940942D01*
X136259987Y-123798809D01*
X136290000Y-123647922D01*
X136290000Y-123494078D01*
X136259987Y-123343191D01*
X136201113Y-123201058D01*
X136115642Y-123073141D01*
X136006859Y-122964358D01*
X135878942Y-122878887D01*
X135736809Y-122820013D01*
X135585922Y-122790000D01*
X135432078Y-122790000D01*
X135281191Y-122820013D01*
X135139058Y-122878887D01*
X135011141Y-122964358D01*
X134902358Y-123073141D01*
X134816887Y-123201058D01*
X134758013Y-123343191D01*
X134728000Y-123494078D01*
X131645276Y-123494078D01*
X131629113Y-123455058D01*
X131543642Y-123327141D01*
X131434859Y-123218358D01*
X131306942Y-123132887D01*
X131164809Y-123074013D01*
X131013922Y-123044000D01*
X130860078Y-123044000D01*
X130709191Y-123074013D01*
X130567058Y-123132887D01*
X130454000Y-123208430D01*
X130454000Y-121707085D01*
X130481268Y-121718380D01*
X130680455Y-121758000D01*
X130883545Y-121758000D01*
X131082732Y-121718380D01*
X131270362Y-121640661D01*
X131439224Y-121527830D01*
X131582830Y-121384224D01*
X131695661Y-121215362D01*
X131773380Y-121027732D01*
X131813000Y-120828545D01*
X131813000Y-120625455D01*
X131773380Y-120426268D01*
X131695661Y-120238638D01*
X131582830Y-120069776D01*
X131439224Y-119926170D01*
X131270362Y-119813339D01*
X131082732Y-119735620D01*
X130883545Y-119696000D01*
X130680455Y-119696000D01*
X130481268Y-119735620D01*
X130454000Y-119746915D01*
X130454000Y-115457085D01*
X130481268Y-115468380D01*
X130680455Y-115508000D01*
X130883545Y-115508000D01*
X131082732Y-115468380D01*
X131270362Y-115390661D01*
X131439224Y-115277830D01*
X131582830Y-115134224D01*
X131695661Y-114965362D01*
X131773380Y-114777732D01*
X131813000Y-114578545D01*
X131813000Y-114375455D01*
X131773380Y-114176268D01*
X131695661Y-113988638D01*
X131582830Y-113819776D01*
X131439224Y-113676170D01*
X131270362Y-113563339D01*
X131082732Y-113485620D01*
X130930215Y-113455283D01*
X132913010Y-113455283D01*
X132913010Y-113609127D01*
X132943023Y-113760014D01*
X133001897Y-113902147D01*
X133087368Y-114030064D01*
X133196151Y-114138847D01*
X133324068Y-114224318D01*
X133466201Y-114283192D01*
X133617088Y-114313205D01*
X133770932Y-114313205D01*
X133921819Y-114283192D01*
X134063952Y-114224318D01*
X134191869Y-114138847D01*
X134300652Y-114030064D01*
X134386123Y-113902147D01*
X134444997Y-113760014D01*
X134475010Y-113609127D01*
X134475010Y-113455283D01*
X134444997Y-113304396D01*
X134386123Y-113162263D01*
X134300652Y-113034346D01*
X134191869Y-112925563D01*
X134063952Y-112840092D01*
X133921819Y-112781218D01*
X133770932Y-112751205D01*
X133617088Y-112751205D01*
X133466201Y-112781218D01*
X133324068Y-112840092D01*
X133196151Y-112925563D01*
X133087368Y-113034346D01*
X133001897Y-113162263D01*
X132943023Y-113304396D01*
X132913010Y-113455283D01*
X130930215Y-113455283D01*
X130883545Y-113446000D01*
X130680455Y-113446000D01*
X130481268Y-113485620D01*
X130454000Y-113496915D01*
X130454000Y-112699078D01*
X151492000Y-112699078D01*
X151492000Y-112852922D01*
X151522013Y-113003809D01*
X151580887Y-113145942D01*
X151666358Y-113273859D01*
X151775141Y-113382642D01*
X151903058Y-113468113D01*
X152045191Y-113526987D01*
X152196078Y-113557000D01*
X152349922Y-113557000D01*
X152500809Y-113526987D01*
X152642942Y-113468113D01*
X152770859Y-113382642D01*
X152879642Y-113273859D01*
X152965113Y-113145942D01*
X153023987Y-113003809D01*
X153054000Y-112852922D01*
X153054000Y-112699078D01*
X153023987Y-112548191D01*
X152965113Y-112406058D01*
X152879642Y-112278141D01*
X152770859Y-112169358D01*
X152642942Y-112083887D01*
X152500809Y-112025013D01*
X152349922Y-111995000D01*
X152196078Y-111995000D01*
X152045191Y-112025013D01*
X151903058Y-112083887D01*
X151775141Y-112169358D01*
X151666358Y-112278141D01*
X151580887Y-112406058D01*
X151522013Y-112548191D01*
X151492000Y-112699078D01*
X130454000Y-112699078D01*
X130454000Y-111316852D01*
X156722000Y-111316852D01*
X156722000Y-111441148D01*
X156746249Y-111563056D01*
X156793815Y-111677891D01*
X156862870Y-111781239D01*
X156950761Y-111869130D01*
X157054109Y-111938185D01*
X157168944Y-111985751D01*
X157290852Y-112010000D01*
X157415148Y-112010000D01*
X157537056Y-111985751D01*
X157651891Y-111938185D01*
X157755239Y-111869130D01*
X157843130Y-111781239D01*
X157912185Y-111677891D01*
X157959751Y-111563056D01*
X157984000Y-111441148D01*
X157984000Y-111316852D01*
X157959751Y-111194944D01*
X157912185Y-111080109D01*
X157843130Y-110976761D01*
X157755239Y-110888870D01*
X157651891Y-110819815D01*
X157537056Y-110772249D01*
X157415148Y-110748000D01*
X157290852Y-110748000D01*
X157168944Y-110772249D01*
X157054109Y-110819815D01*
X156950761Y-110888870D01*
X156862870Y-110976761D01*
X156793815Y-111080109D01*
X156746249Y-111194944D01*
X156722000Y-111316852D01*
X130454000Y-111316852D01*
X130454000Y-108802439D01*
X138459587Y-108802439D01*
X138459587Y-108926735D01*
X138483836Y-109048643D01*
X138531402Y-109163478D01*
X138600457Y-109266826D01*
X138688348Y-109354717D01*
X138791696Y-109423772D01*
X138906531Y-109471338D01*
X138919000Y-109473818D01*
X138919000Y-109550922D01*
X138949013Y-109701809D01*
X139007887Y-109843942D01*
X139093358Y-109971859D01*
X139202141Y-110080642D01*
X139330058Y-110166113D01*
X139472191Y-110224987D01*
X139623078Y-110255000D01*
X139776922Y-110255000D01*
X139927809Y-110224987D01*
X140069942Y-110166113D01*
X140197859Y-110080642D01*
X140306642Y-109971859D01*
X140392113Y-109843942D01*
X140450987Y-109701809D01*
X140481000Y-109550922D01*
X140481000Y-109397078D01*
X140450987Y-109246191D01*
X140392113Y-109104058D01*
X140343199Y-109030852D01*
X145292000Y-109030852D01*
X145292000Y-109155148D01*
X145316249Y-109277056D01*
X145363815Y-109391891D01*
X145432870Y-109495239D01*
X145520761Y-109583130D01*
X145624109Y-109652185D01*
X145738944Y-109699751D01*
X145860852Y-109724000D01*
X145985148Y-109724000D01*
X146107056Y-109699751D01*
X146221891Y-109652185D01*
X146304000Y-109597321D01*
X146386109Y-109652185D01*
X146500944Y-109699751D01*
X146622852Y-109724000D01*
X146747148Y-109724000D01*
X146869056Y-109699751D01*
X146983891Y-109652185D01*
X147087239Y-109583130D01*
X147146291Y-109524078D01*
X156572000Y-109524078D01*
X156572000Y-109677922D01*
X156602013Y-109828809D01*
X156660887Y-109970942D01*
X156746358Y-110098859D01*
X156855141Y-110207642D01*
X156983058Y-110293113D01*
X157125191Y-110351987D01*
X157276078Y-110382000D01*
X157429922Y-110382000D01*
X157580809Y-110351987D01*
X157722942Y-110293113D01*
X157850859Y-110207642D01*
X157959642Y-110098859D01*
X158045113Y-109970942D01*
X158103987Y-109828809D01*
X158134000Y-109677922D01*
X158134000Y-109524078D01*
X158103987Y-109373191D01*
X158045113Y-109231058D01*
X157959642Y-109103141D01*
X157850859Y-108994358D01*
X157722942Y-108908887D01*
X157580809Y-108850013D01*
X157429922Y-108820000D01*
X157276078Y-108820000D01*
X157125191Y-108850013D01*
X156983058Y-108908887D01*
X156855141Y-108994358D01*
X156746358Y-109103141D01*
X156660887Y-109231058D01*
X156602013Y-109373191D01*
X156572000Y-109524078D01*
X147146291Y-109524078D01*
X147175130Y-109495239D01*
X147244185Y-109391891D01*
X147291751Y-109277056D01*
X147316000Y-109155148D01*
X147316000Y-109030852D01*
X147291751Y-108908944D01*
X147244185Y-108794109D01*
X147175130Y-108690761D01*
X147087239Y-108602870D01*
X146983891Y-108533815D01*
X146869056Y-108486249D01*
X146747148Y-108462000D01*
X146622852Y-108462000D01*
X146500944Y-108486249D01*
X146386109Y-108533815D01*
X146304000Y-108588679D01*
X146221891Y-108533815D01*
X146107056Y-108486249D01*
X145985148Y-108462000D01*
X145860852Y-108462000D01*
X145738944Y-108486249D01*
X145624109Y-108533815D01*
X145520761Y-108602870D01*
X145432870Y-108690761D01*
X145363815Y-108794109D01*
X145316249Y-108908944D01*
X145292000Y-109030852D01*
X140343199Y-109030852D01*
X140306642Y-108976141D01*
X140197859Y-108867358D01*
X140069942Y-108781887D01*
X139927809Y-108723013D01*
X139776922Y-108693000D01*
X139699818Y-108693000D01*
X139697338Y-108680531D01*
X139649772Y-108565696D01*
X139580717Y-108462348D01*
X139492826Y-108374457D01*
X139389478Y-108305402D01*
X139274643Y-108257836D01*
X139152735Y-108233587D01*
X139028439Y-108233587D01*
X138906531Y-108257836D01*
X138791696Y-108305402D01*
X138688348Y-108374457D01*
X138600457Y-108462348D01*
X138531402Y-108565696D01*
X138483836Y-108680531D01*
X138459587Y-108802439D01*
X130454000Y-108802439D01*
X130454000Y-106476078D01*
X132823000Y-106476078D01*
X132823000Y-106629922D01*
X132853013Y-106780809D01*
X132911887Y-106922942D01*
X132997358Y-107050859D01*
X133106141Y-107159642D01*
X133234058Y-107245113D01*
X133376191Y-107303987D01*
X133527078Y-107334000D01*
X133680922Y-107334000D01*
X133831809Y-107303987D01*
X133973942Y-107245113D01*
X134101859Y-107159642D01*
X134210642Y-107050859D01*
X134296113Y-106922942D01*
X134354987Y-106780809D01*
X134385000Y-106629922D01*
X134385000Y-106476078D01*
X134354987Y-106325191D01*
X134296113Y-106183058D01*
X134210642Y-106055141D01*
X134101859Y-105946358D01*
X133973942Y-105860887D01*
X133961787Y-105855852D01*
X143513992Y-105855852D01*
X143513992Y-105980148D01*
X143538241Y-106102056D01*
X143585807Y-106216891D01*
X143654862Y-106320239D01*
X143742753Y-106408130D01*
X143846101Y-106477185D01*
X143875834Y-106489501D01*
X143846105Y-106501815D01*
X143742757Y-106570870D01*
X143654866Y-106658761D01*
X143585811Y-106762109D01*
X143538245Y-106876944D01*
X143513996Y-106998852D01*
X143513996Y-107123148D01*
X143538245Y-107245056D01*
X143585811Y-107359891D01*
X143598247Y-107378503D01*
X143585815Y-107397109D01*
X143538249Y-107511944D01*
X143514000Y-107633852D01*
X143514000Y-107758148D01*
X143538249Y-107880056D01*
X143585815Y-107994891D01*
X143654870Y-108098239D01*
X143742761Y-108186130D01*
X143846109Y-108255185D01*
X143960944Y-108302751D01*
X144082852Y-108327000D01*
X144207148Y-108327000D01*
X144329056Y-108302751D01*
X144443891Y-108255185D01*
X144547239Y-108186130D01*
X144635130Y-108098239D01*
X144704185Y-107994891D01*
X144751751Y-107880056D01*
X144776000Y-107758148D01*
X144776000Y-107633852D01*
X144751751Y-107511944D01*
X144704185Y-107397109D01*
X144691749Y-107378497D01*
X144704181Y-107359891D01*
X144751747Y-107245056D01*
X144775996Y-107123148D01*
X144775996Y-106998852D01*
X144751747Y-106876944D01*
X144704181Y-106762109D01*
X144635126Y-106658761D01*
X144547235Y-106570870D01*
X144443887Y-106501815D01*
X144414154Y-106489499D01*
X144443883Y-106477185D01*
X144547231Y-106408130D01*
X144635122Y-106320239D01*
X144704177Y-106216891D01*
X144751743Y-106102056D01*
X144775992Y-105980148D01*
X144775992Y-105931829D01*
X144825418Y-105941660D01*
X144979262Y-105941660D01*
X145130149Y-105911647D01*
X145272282Y-105852773D01*
X145400199Y-105767302D01*
X145478496Y-105689005D01*
X145552141Y-105762650D01*
X145680058Y-105848121D01*
X145822191Y-105906995D01*
X145973078Y-105937008D01*
X146126922Y-105937008D01*
X146277809Y-105906995D01*
X146419942Y-105848121D01*
X146547859Y-105762650D01*
X146656642Y-105653867D01*
X146742113Y-105525950D01*
X146800987Y-105383817D01*
X146831000Y-105232930D01*
X146831000Y-105079086D01*
X146830999Y-105079078D01*
X151492000Y-105079078D01*
X151492000Y-105232922D01*
X151522013Y-105383809D01*
X151580887Y-105525942D01*
X151666358Y-105653859D01*
X151775141Y-105762642D01*
X151903058Y-105848113D01*
X152045191Y-105906987D01*
X152196078Y-105937000D01*
X152349922Y-105937000D01*
X152500809Y-105906987D01*
X152642942Y-105848113D01*
X152770859Y-105762642D01*
X152879642Y-105653859D01*
X152965113Y-105525942D01*
X153023987Y-105383809D01*
X153054000Y-105232922D01*
X153054000Y-105079078D01*
X153023987Y-104928191D01*
X152965113Y-104786058D01*
X152879642Y-104658141D01*
X152770859Y-104549358D01*
X152642942Y-104463887D01*
X152500809Y-104405013D01*
X152349922Y-104375000D01*
X152196078Y-104375000D01*
X152045191Y-104405013D01*
X151903058Y-104463887D01*
X151775141Y-104549358D01*
X151666358Y-104658141D01*
X151580887Y-104786058D01*
X151522013Y-104928191D01*
X151492000Y-105079078D01*
X146830999Y-105079078D01*
X146800987Y-104928199D01*
X146742113Y-104786066D01*
X146656642Y-104658149D01*
X146547859Y-104549366D01*
X146419942Y-104463895D01*
X146277809Y-104405021D01*
X146126922Y-104375008D01*
X145973078Y-104375008D01*
X145822191Y-104405021D01*
X145680058Y-104463895D01*
X145552141Y-104549366D01*
X145473844Y-104627663D01*
X145400199Y-104554018D01*
X145272282Y-104468547D01*
X145130149Y-104409673D01*
X144979262Y-104379660D01*
X144825418Y-104379660D01*
X144674531Y-104409673D01*
X144532398Y-104468547D01*
X144404481Y-104554018D01*
X144295698Y-104662801D01*
X144210227Y-104790718D01*
X144151353Y-104932851D01*
X144121340Y-105083738D01*
X144121340Y-105237582D01*
X144131170Y-105287000D01*
X144082844Y-105287000D01*
X143960936Y-105311249D01*
X143846101Y-105358815D01*
X143742753Y-105427870D01*
X143654862Y-105515761D01*
X143585807Y-105619109D01*
X143538241Y-105733944D01*
X143513992Y-105855852D01*
X133961787Y-105855852D01*
X133831809Y-105802013D01*
X133680922Y-105772000D01*
X133527078Y-105772000D01*
X133376191Y-105802013D01*
X133234058Y-105860887D01*
X133106141Y-105946358D01*
X132997358Y-106055141D01*
X132911887Y-106183058D01*
X132853013Y-106325191D01*
X132823000Y-106476078D01*
X130454000Y-106476078D01*
X130454000Y-104966852D01*
X138307000Y-104966852D01*
X138307000Y-105091148D01*
X138331249Y-105213056D01*
X138378815Y-105327891D01*
X138447870Y-105431239D01*
X138535761Y-105519130D01*
X138639109Y-105588185D01*
X138753944Y-105635751D01*
X138875852Y-105660000D01*
X139000148Y-105660000D01*
X139122056Y-105635751D01*
X139236891Y-105588185D01*
X139340239Y-105519130D01*
X139428130Y-105431239D01*
X139497185Y-105327891D01*
X139544751Y-105213056D01*
X139569000Y-105091148D01*
X139569000Y-104966852D01*
X139544751Y-104844944D01*
X139536523Y-104825078D01*
X141459000Y-104825078D01*
X141459000Y-104978922D01*
X141489013Y-105129809D01*
X141547887Y-105271942D01*
X141633358Y-105399859D01*
X141742141Y-105508642D01*
X141870058Y-105594113D01*
X142012191Y-105652987D01*
X142163078Y-105683000D01*
X142316922Y-105683000D01*
X142467809Y-105652987D01*
X142609942Y-105594113D01*
X142737859Y-105508642D01*
X142846642Y-105399859D01*
X142932113Y-105271942D01*
X142990987Y-105129809D01*
X143021000Y-104978922D01*
X143021000Y-104825078D01*
X142990987Y-104674191D01*
X142932113Y-104532058D01*
X142846642Y-104404141D01*
X142737859Y-104295358D01*
X142609942Y-104209887D01*
X142467809Y-104151013D01*
X142316922Y-104121000D01*
X142163078Y-104121000D01*
X142012191Y-104151013D01*
X141870058Y-104209887D01*
X141742141Y-104295358D01*
X141633358Y-104404141D01*
X141547887Y-104532058D01*
X141489013Y-104674191D01*
X141459000Y-104825078D01*
X139536523Y-104825078D01*
X139497185Y-104730109D01*
X139428130Y-104626761D01*
X139340239Y-104538870D01*
X139236891Y-104469815D01*
X139122056Y-104422249D01*
X139000148Y-104398000D01*
X138875852Y-104398000D01*
X138753944Y-104422249D01*
X138639109Y-104469815D01*
X138535761Y-104538870D01*
X138447870Y-104626761D01*
X138378815Y-104730109D01*
X138331249Y-104844944D01*
X138307000Y-104966852D01*
X130454000Y-104966852D01*
X130454000Y-102957768D01*
X130604181Y-103182530D01*
X131005470Y-103583819D01*
X131477335Y-103899109D01*
X132001643Y-104116285D01*
X132558246Y-104227000D01*
X133125754Y-104227000D01*
X133682357Y-104116285D01*
X134206665Y-103899109D01*
X134678530Y-103583819D01*
X135079819Y-103182530D01*
X135395109Y-102710665D01*
X135612285Y-102186357D01*
X135693695Y-101777078D01*
X138193990Y-101777078D01*
X138193990Y-101930922D01*
X138224003Y-102081809D01*
X138282877Y-102223942D01*
X138368348Y-102351859D01*
X138441989Y-102425500D01*
X138368348Y-102499141D01*
X138282877Y-102627058D01*
X138224003Y-102769191D01*
X138193990Y-102920078D01*
X138193990Y-103073922D01*
X138224003Y-103224809D01*
X138282877Y-103366942D01*
X138368348Y-103494859D01*
X138477131Y-103603642D01*
X138605048Y-103689113D01*
X138747181Y-103747987D01*
X138898068Y-103778000D01*
X139051912Y-103778000D01*
X139202799Y-103747987D01*
X139344932Y-103689113D01*
X139472849Y-103603642D01*
X139581632Y-103494859D01*
X139667103Y-103366942D01*
X139725977Y-103224809D01*
X139755990Y-103073922D01*
X139755990Y-102920078D01*
X139725977Y-102769191D01*
X139667103Y-102627058D01*
X139581632Y-102499141D01*
X139507991Y-102425500D01*
X139581632Y-102351859D01*
X139667103Y-102223942D01*
X139687718Y-102174173D01*
X150334433Y-102174173D01*
X150334433Y-102328017D01*
X150364446Y-102478904D01*
X150423320Y-102621037D01*
X150508791Y-102748954D01*
X150581668Y-102821831D01*
X150523358Y-102880141D01*
X150437887Y-103008058D01*
X150379013Y-103150191D01*
X150349000Y-103301078D01*
X150349000Y-103454922D01*
X150379013Y-103605809D01*
X150437887Y-103747942D01*
X150523358Y-103875859D01*
X150632141Y-103984642D01*
X150760058Y-104070113D01*
X150902191Y-104128987D01*
X151053078Y-104159000D01*
X151206922Y-104159000D01*
X151357809Y-104128987D01*
X151499942Y-104070113D01*
X151627859Y-103984642D01*
X151736642Y-103875859D01*
X151822113Y-103747942D01*
X151823234Y-103745234D01*
X154730835Y-103745234D01*
X154730835Y-103899078D01*
X154760848Y-104049965D01*
X154819722Y-104192098D01*
X154905193Y-104320015D01*
X155013976Y-104428798D01*
X155141893Y-104514269D01*
X155284026Y-104573143D01*
X155434913Y-104603156D01*
X155588757Y-104603156D01*
X155739644Y-104573143D01*
X155881777Y-104514269D01*
X156009694Y-104428798D01*
X156118477Y-104320015D01*
X156203948Y-104192098D01*
X156262822Y-104049965D01*
X156292835Y-103899078D01*
X156292835Y-103745234D01*
X156262822Y-103594347D01*
X156203948Y-103452214D01*
X156118477Y-103324297D01*
X156009694Y-103215514D01*
X155881777Y-103130043D01*
X155739644Y-103071169D01*
X155588757Y-103041156D01*
X155434913Y-103041156D01*
X155284026Y-103071169D01*
X155141893Y-103130043D01*
X155013976Y-103215514D01*
X154905193Y-103324297D01*
X154819722Y-103452214D01*
X154760848Y-103594347D01*
X154730835Y-103745234D01*
X151823234Y-103745234D01*
X151880987Y-103605809D01*
X151911000Y-103454922D01*
X151911000Y-103301078D01*
X151880987Y-103150191D01*
X151822113Y-103008058D01*
X151736642Y-102880141D01*
X151663765Y-102807264D01*
X151722075Y-102748954D01*
X151807546Y-102621037D01*
X151866420Y-102478904D01*
X151896433Y-102328017D01*
X151896433Y-102174173D01*
X151866420Y-102023286D01*
X151807546Y-101881153D01*
X151722075Y-101753236D01*
X151613292Y-101644453D01*
X151485375Y-101558982D01*
X151343242Y-101500108D01*
X151192355Y-101470095D01*
X151038511Y-101470095D01*
X150887624Y-101500108D01*
X150745491Y-101558982D01*
X150617574Y-101644453D01*
X150508791Y-101753236D01*
X150423320Y-101881153D01*
X150364446Y-102023286D01*
X150334433Y-102174173D01*
X139687718Y-102174173D01*
X139725977Y-102081809D01*
X139755990Y-101930922D01*
X139755990Y-101777078D01*
X139725977Y-101626191D01*
X139667103Y-101484058D01*
X139581632Y-101356141D01*
X139472849Y-101247358D01*
X139344932Y-101161887D01*
X139202799Y-101103013D01*
X139051912Y-101073000D01*
X138898068Y-101073000D01*
X138747181Y-101103013D01*
X138605048Y-101161887D01*
X138477131Y-101247358D01*
X138368348Y-101356141D01*
X138282877Y-101484058D01*
X138224003Y-101626191D01*
X138193990Y-101777078D01*
X135693695Y-101777078D01*
X135723000Y-101629754D01*
X135723000Y-101062246D01*
X135612285Y-100505643D01*
X135395109Y-99981335D01*
X135079819Y-99509470D01*
X134678530Y-99108181D01*
X134206665Y-98792891D01*
X133931708Y-98679000D01*
X146127276Y-98679000D01*
X146119887Y-98690058D01*
G04 #@! TA.AperFunction,Conductor*
D18*
G36*
X146119887Y-98690058D02*
G01*
X146061013Y-98832191D01*
X146031000Y-98983078D01*
X146031000Y-99136922D01*
X146061013Y-99287809D01*
X146119887Y-99429942D01*
X146205358Y-99557859D01*
X146314141Y-99666642D01*
X146442058Y-99752113D01*
X146584191Y-99810987D01*
X146735078Y-99841000D01*
X146888922Y-99841000D01*
X147039809Y-99810987D01*
X147181942Y-99752113D01*
X147309859Y-99666642D01*
X147418642Y-99557859D01*
X147504113Y-99429942D01*
X147562987Y-99287809D01*
X147593000Y-99136922D01*
X147593000Y-98983078D01*
X147562987Y-98832191D01*
X147504113Y-98690058D01*
X147496724Y-98679000D01*
X148667276Y-98679000D01*
X148659887Y-98690058D01*
X148601013Y-98832191D01*
X148571000Y-98983078D01*
X148571000Y-99136922D01*
X148601013Y-99287809D01*
X148659887Y-99429942D01*
X148745358Y-99557859D01*
X148854141Y-99666642D01*
X148982058Y-99752113D01*
X149124191Y-99810987D01*
X149275078Y-99841000D01*
X149428922Y-99841000D01*
X149579809Y-99810987D01*
X149721942Y-99752113D01*
X149849859Y-99666642D01*
X149958642Y-99557859D01*
X150044113Y-99429942D01*
X150102987Y-99287809D01*
X150133000Y-99136922D01*
X150133000Y-98983078D01*
X150102987Y-98832191D01*
X150044113Y-98690058D01*
X150036724Y-98679000D01*
X154928078Y-98679000D01*
X154845028Y-98734492D01*
X154736245Y-98843275D01*
X154650774Y-98971192D01*
X154591900Y-99113325D01*
X154561887Y-99264212D01*
X154561887Y-99418056D01*
X154591900Y-99568943D01*
X154650774Y-99711076D01*
X154673865Y-99745634D01*
X154587358Y-99832141D01*
X154501887Y-99960058D01*
X154443013Y-100102191D01*
X154413000Y-100253078D01*
X154413000Y-100406922D01*
X154443013Y-100557809D01*
X154501887Y-100699942D01*
X154587358Y-100827859D01*
X154696141Y-100936642D01*
X154824058Y-101022113D01*
X154966191Y-101080987D01*
X155117078Y-101111000D01*
X155270922Y-101111000D01*
X155361000Y-101093083D01*
X155361000Y-101629754D01*
X155471715Y-102186357D01*
X155688891Y-102710665D01*
X156004181Y-103182530D01*
X156405470Y-103583819D01*
X156877335Y-103899109D01*
X157401643Y-104116285D01*
X157958246Y-104227000D01*
X158525754Y-104227000D01*
X159082357Y-104116285D01*
X159606665Y-103899109D01*
X160078530Y-103583819D01*
X160479819Y-103182530D01*
X160630000Y-102957768D01*
X160630001Y-123303975D01*
X160572891Y-123265815D01*
X160458056Y-123218249D01*
X160336148Y-123194000D01*
X160211852Y-123194000D01*
X160089944Y-123218249D01*
X159975109Y-123265815D01*
X159871761Y-123334870D01*
X159783870Y-123422761D01*
X159714815Y-123526109D01*
X159667249Y-123640944D01*
X159643000Y-123762852D01*
X159643000Y-123887148D01*
X159667249Y-124009056D01*
X159714815Y-124123891D01*
X159783870Y-124227239D01*
X159871761Y-124315130D01*
X159975109Y-124384185D01*
X160089944Y-124431751D01*
X160211852Y-124456000D01*
X160336148Y-124456000D01*
X160458056Y-124431751D01*
X160572891Y-124384185D01*
X160630001Y-124346025D01*
X160630001Y-130983866D01*
X160585056Y-130965249D01*
X160463148Y-130941000D01*
X160338852Y-130941000D01*
X160216944Y-130965249D01*
X160102109Y-131012815D01*
X159998761Y-131081870D01*
X159910870Y-131169761D01*
X159841815Y-131273109D01*
X159794249Y-131387944D01*
X159770000Y-131509852D01*
X159770000Y-131634148D01*
X159794249Y-131756056D01*
X159825849Y-131832345D01*
X159606665Y-131685891D01*
X159082357Y-131468715D01*
X158525754Y-131358000D01*
X157958246Y-131358000D01*
X157401643Y-131468715D01*
X156877335Y-131685891D01*
X156405470Y-132001181D01*
X156004181Y-132402470D01*
X155825693Y-132669596D01*
X155701927Y-126357531D01*
X155694679Y-126290671D01*
X155672998Y-126219198D01*
X155637790Y-126153328D01*
X155590408Y-126095592D01*
X155532672Y-126048210D01*
X155466802Y-126013002D01*
X155395329Y-125991321D01*
X155321000Y-125984000D01*
X154647501Y-125984000D01*
X154657642Y-125973859D01*
X154743113Y-125845942D01*
X154801987Y-125703809D01*
X154832000Y-125552922D01*
X154832000Y-125399078D01*
X154801987Y-125248191D01*
X154743113Y-125106058D01*
X154657642Y-124978141D01*
X154584001Y-124904500D01*
X154657642Y-124830859D01*
X154743113Y-124702942D01*
X154801987Y-124560809D01*
X154832000Y-124409922D01*
X154832000Y-124256078D01*
X154801987Y-124105191D01*
X154743113Y-123963058D01*
X154657642Y-123835141D01*
X154548859Y-123726358D01*
X154420942Y-123640887D01*
X154278809Y-123582013D01*
X154127922Y-123552000D01*
X153974078Y-123552000D01*
X153823191Y-123582013D01*
X153681058Y-123640887D01*
X153553141Y-123726358D01*
X153444358Y-123835141D01*
X153358887Y-123963058D01*
X153300013Y-124105191D01*
X153270000Y-124256078D01*
X153270000Y-124409922D01*
X153300013Y-124560809D01*
X153358887Y-124702942D01*
X153444358Y-124830859D01*
X153517999Y-124904500D01*
X153444358Y-124978141D01*
X153358887Y-125106058D01*
X153300013Y-125248191D01*
X153270000Y-125399078D01*
X153270000Y-125552922D01*
X153300013Y-125703809D01*
X153358887Y-125845942D01*
X153444358Y-125973859D01*
X153454499Y-125984000D01*
X151302366Y-125984000D01*
X151293638Y-125940123D01*
X151246072Y-125825288D01*
X151177017Y-125721940D01*
X151089126Y-125634049D01*
X150985778Y-125564994D01*
X150870943Y-125517428D01*
X150749035Y-125493179D01*
X150624739Y-125493179D01*
X150502831Y-125517428D01*
X150387996Y-125564994D01*
X150346805Y-125592517D01*
X150285891Y-125551815D01*
X150171056Y-125504249D01*
X150049148Y-125480000D01*
X149924852Y-125480000D01*
X149802944Y-125504249D01*
X149688109Y-125551815D01*
X149584761Y-125620870D01*
X149496870Y-125708761D01*
X149427815Y-125812109D01*
X149380249Y-125926944D01*
X149368900Y-125984000D01*
X147320000Y-125984000D01*
X147320000Y-125866039D01*
X147370078Y-125876000D01*
X147523922Y-125876000D01*
X147674809Y-125845987D01*
X147816942Y-125787113D01*
X147944859Y-125701642D01*
X148053642Y-125592859D01*
X148139113Y-125464942D01*
X148197987Y-125322809D01*
X148228000Y-125171922D01*
X148228000Y-125018078D01*
X148197987Y-124867191D01*
X148139113Y-124725058D01*
X148053642Y-124597141D01*
X147944859Y-124488358D01*
X147816942Y-124402887D01*
X147674809Y-124344013D01*
X147523922Y-124314000D01*
X147370078Y-124314000D01*
X147320000Y-124323961D01*
X147320000Y-123632034D01*
X152065851Y-123632034D01*
X152065851Y-123756330D01*
X152090100Y-123878238D01*
X152137666Y-123993073D01*
X152206721Y-124096421D01*
X152294612Y-124184312D01*
X152397960Y-124253367D01*
X152512795Y-124300933D01*
X152634703Y-124325182D01*
X152758999Y-124325182D01*
X152880907Y-124300933D01*
X152995742Y-124253367D01*
X153099090Y-124184312D01*
X153186981Y-124096421D01*
X153256036Y-123993073D01*
X153303602Y-123878238D01*
X153327851Y-123756330D01*
X153327851Y-123632034D01*
X153303602Y-123510126D01*
X153303075Y-123508852D01*
X157357000Y-123508852D01*
X157357000Y-123633148D01*
X157381249Y-123755056D01*
X157428815Y-123869891D01*
X157497870Y-123973239D01*
X157585761Y-124061130D01*
X157689109Y-124130185D01*
X157803944Y-124177751D01*
X157925852Y-124202000D01*
X158050148Y-124202000D01*
X158172056Y-124177751D01*
X158286891Y-124130185D01*
X158288644Y-124129013D01*
X158347761Y-124188130D01*
X158451109Y-124257185D01*
X158565944Y-124304751D01*
X158687852Y-124329000D01*
X158812148Y-124329000D01*
X158934056Y-124304751D01*
X159048891Y-124257185D01*
X159152239Y-124188130D01*
X159240130Y-124100239D01*
X159309185Y-123996891D01*
X159356751Y-123882056D01*
X159381000Y-123760148D01*
X159381000Y-123635852D01*
X159356751Y-123513944D01*
X159309185Y-123399109D01*
X159240130Y-123295761D01*
X159152239Y-123207870D01*
X159048891Y-123138815D01*
X158934056Y-123091249D01*
X158812148Y-123067000D01*
X158687852Y-123067000D01*
X158565944Y-123091249D01*
X158451109Y-123138815D01*
X158449356Y-123139987D01*
X158390239Y-123080870D01*
X158286891Y-123011815D01*
X158172056Y-122964249D01*
X158050148Y-122940000D01*
X157925852Y-122940000D01*
X157803944Y-122964249D01*
X157689109Y-123011815D01*
X157585761Y-123080870D01*
X157497870Y-123168761D01*
X157428815Y-123272109D01*
X157381249Y-123386944D01*
X157357000Y-123508852D01*
X153303075Y-123508852D01*
X153256036Y-123395291D01*
X153186981Y-123291943D01*
X153099090Y-123204052D01*
X152995742Y-123134997D01*
X152880907Y-123087431D01*
X152758999Y-123063182D01*
X152634703Y-123063182D01*
X152512795Y-123087431D01*
X152397960Y-123134997D01*
X152294612Y-123204052D01*
X152206721Y-123291943D01*
X152137666Y-123395291D01*
X152090100Y-123510126D01*
X152065851Y-123632034D01*
X147320000Y-123632034D01*
X147320000Y-122174000D01*
X147312679Y-122099671D01*
X147290998Y-122028198D01*
X147267830Y-121984852D01*
X149610000Y-121984852D01*
X149610000Y-122109148D01*
X149634249Y-122231056D01*
X149681815Y-122345891D01*
X149750870Y-122449239D01*
X149838761Y-122537130D01*
X149942109Y-122606185D01*
X150056944Y-122653751D01*
X150178852Y-122678000D01*
X150303148Y-122678000D01*
X150425056Y-122653751D01*
X150539891Y-122606185D01*
X150643239Y-122537130D01*
X150731130Y-122449239D01*
X150800185Y-122345891D01*
X150847751Y-122231056D01*
X150872000Y-122109148D01*
X150872000Y-121984852D01*
X150847751Y-121862944D01*
X150800185Y-121748109D01*
X150731130Y-121644761D01*
X150643239Y-121556870D01*
X150539891Y-121487815D01*
X150513424Y-121476852D01*
X157738000Y-121476852D01*
X157738000Y-121601148D01*
X157762249Y-121723056D01*
X157809815Y-121837891D01*
X157878870Y-121941239D01*
X157966761Y-122029130D01*
X158070109Y-122098185D01*
X158184944Y-122145751D01*
X158306852Y-122170000D01*
X158431148Y-122170000D01*
X158553056Y-122145751D01*
X158667891Y-122098185D01*
X158771239Y-122029130D01*
X158859130Y-121941239D01*
X158928185Y-121837891D01*
X158975751Y-121723056D01*
X159000000Y-121601148D01*
X159000000Y-121476852D01*
X158975751Y-121354944D01*
X158959106Y-121314759D01*
X159353907Y-121314759D01*
X159353907Y-121439055D01*
X159378156Y-121560963D01*
X159425722Y-121675798D01*
X159494777Y-121779146D01*
X159582668Y-121867037D01*
X159686016Y-121936092D01*
X159800851Y-121983658D01*
X159922759Y-122007907D01*
X160047055Y-122007907D01*
X160168963Y-121983658D01*
X160283798Y-121936092D01*
X160387146Y-121867037D01*
X160475037Y-121779146D01*
X160544092Y-121675798D01*
X160591658Y-121560963D01*
X160615907Y-121439055D01*
X160615907Y-121314759D01*
X160591658Y-121192851D01*
X160544092Y-121078016D01*
X160475037Y-120974668D01*
X160387146Y-120886777D01*
X160283798Y-120817722D01*
X160168963Y-120770156D01*
X160047055Y-120745907D01*
X159922759Y-120745907D01*
X159800851Y-120770156D01*
X159686016Y-120817722D01*
X159582668Y-120886777D01*
X159494777Y-120974668D01*
X159425722Y-121078016D01*
X159378156Y-121192851D01*
X159353907Y-121314759D01*
X158959106Y-121314759D01*
X158928185Y-121240109D01*
X158859130Y-121136761D01*
X158771239Y-121048870D01*
X158667891Y-120979815D01*
X158553056Y-120932249D01*
X158431148Y-120908000D01*
X158306852Y-120908000D01*
X158184944Y-120932249D01*
X158070109Y-120979815D01*
X157966761Y-121048870D01*
X157878870Y-121136761D01*
X157809815Y-121240109D01*
X157762249Y-121354944D01*
X157738000Y-121476852D01*
X150513424Y-121476852D01*
X150425056Y-121440249D01*
X150303148Y-121416000D01*
X150178852Y-121416000D01*
X150056944Y-121440249D01*
X149942109Y-121487815D01*
X149838761Y-121556870D01*
X149750870Y-121644761D01*
X149681815Y-121748109D01*
X149634249Y-121862944D01*
X149610000Y-121984852D01*
X147267830Y-121984852D01*
X147255790Y-121962328D01*
X147208408Y-121904592D01*
X147150672Y-121857210D01*
X147084802Y-121822002D01*
X147013329Y-121800321D01*
X146939000Y-121793000D01*
X143764000Y-121793000D01*
X143764000Y-120333852D01*
X148721000Y-120333852D01*
X148721000Y-120458148D01*
X148745249Y-120580056D01*
X148792815Y-120694891D01*
X148861870Y-120798239D01*
X148949761Y-120886130D01*
X149053109Y-120955185D01*
X149167944Y-121002751D01*
X149289852Y-121027000D01*
X149414148Y-121027000D01*
X149536056Y-121002751D01*
X149650891Y-120955185D01*
X149754239Y-120886130D01*
X149842130Y-120798239D01*
X149911185Y-120694891D01*
X149958751Y-120580056D01*
X149983000Y-120458148D01*
X149983000Y-120333852D01*
X149958751Y-120211944D01*
X149911185Y-120097109D01*
X149842130Y-119993761D01*
X149786447Y-119938078D01*
X154159000Y-119938078D01*
X154159000Y-120091922D01*
X154189013Y-120242809D01*
X154247887Y-120384942D01*
X154333358Y-120512859D01*
X154442141Y-120621642D01*
X154570058Y-120707113D01*
X154712191Y-120765987D01*
X154863078Y-120796000D01*
X155016922Y-120796000D01*
X155167809Y-120765987D01*
X155309942Y-120707113D01*
X155437859Y-120621642D01*
X155546642Y-120512859D01*
X155632113Y-120384942D01*
X155690987Y-120242809D01*
X155721000Y-120091922D01*
X155721000Y-119938078D01*
X155690987Y-119787191D01*
X155632113Y-119645058D01*
X155546642Y-119517141D01*
X155437859Y-119408358D01*
X155309942Y-119322887D01*
X155167809Y-119264013D01*
X155016922Y-119234000D01*
X154863078Y-119234000D01*
X154712191Y-119264013D01*
X154570058Y-119322887D01*
X154442141Y-119408358D01*
X154333358Y-119517141D01*
X154247887Y-119645058D01*
X154189013Y-119787191D01*
X154159000Y-119938078D01*
X149786447Y-119938078D01*
X149754239Y-119905870D01*
X149650891Y-119836815D01*
X149536056Y-119789249D01*
X149414148Y-119765000D01*
X149289852Y-119765000D01*
X149167944Y-119789249D01*
X149053109Y-119836815D01*
X148949761Y-119905870D01*
X148861870Y-119993761D01*
X148792815Y-120097109D01*
X148745249Y-120211944D01*
X148721000Y-120333852D01*
X143764000Y-120333852D01*
X143764000Y-120269000D01*
X143756679Y-120194671D01*
X143735766Y-120125731D01*
X143753859Y-120113642D01*
X143862642Y-120004859D01*
X143948113Y-119876942D01*
X144006987Y-119734809D01*
X144037000Y-119583922D01*
X144037000Y-119430078D01*
X144006987Y-119279191D01*
X143948113Y-119137058D01*
X143862642Y-119009141D01*
X143753859Y-118900358D01*
X143625942Y-118814887D01*
X143613787Y-118809852D01*
X149228996Y-118809852D01*
X149228996Y-118934148D01*
X149253245Y-119056056D01*
X149300811Y-119170891D01*
X149369866Y-119274239D01*
X149457757Y-119362130D01*
X149561105Y-119431185D01*
X149675940Y-119478751D01*
X149797848Y-119503000D01*
X149922144Y-119503000D01*
X150044052Y-119478751D01*
X150158887Y-119431185D01*
X150262235Y-119362130D01*
X150350126Y-119274239D01*
X150419181Y-119170891D01*
X150466747Y-119056056D01*
X150490996Y-118934148D01*
X150490996Y-118809852D01*
X150466747Y-118687944D01*
X150419181Y-118573109D01*
X150350126Y-118469761D01*
X150262235Y-118381870D01*
X150158887Y-118312815D01*
X150044052Y-118265249D01*
X149922144Y-118241000D01*
X149797848Y-118241000D01*
X149675940Y-118265249D01*
X149561105Y-118312815D01*
X149457757Y-118381870D01*
X149369866Y-118469761D01*
X149300811Y-118573109D01*
X149253245Y-118687944D01*
X149228996Y-118809852D01*
X143613787Y-118809852D01*
X143483809Y-118756013D01*
X143332922Y-118726000D01*
X143256000Y-118726000D01*
X143256000Y-117217000D01*
X143318148Y-117217000D01*
X143440056Y-117192751D01*
X143554891Y-117145185D01*
X143556547Y-117144078D01*
X146920000Y-117144078D01*
X146920000Y-117297922D01*
X146950013Y-117448809D01*
X147008887Y-117590942D01*
X147094358Y-117718859D01*
X147203141Y-117827642D01*
X147331058Y-117913113D01*
X147473191Y-117971987D01*
X147624078Y-118002000D01*
X147777922Y-118002000D01*
X147928809Y-117971987D01*
X148070942Y-117913113D01*
X148198859Y-117827642D01*
X148207796Y-117818705D01*
X148266331Y-117842951D01*
X148388239Y-117867200D01*
X148512535Y-117867200D01*
X148634443Y-117842951D01*
X148749278Y-117795385D01*
X148852626Y-117726330D01*
X148940517Y-117638439D01*
X149009572Y-117535091D01*
X149057138Y-117420256D01*
X149081387Y-117298348D01*
X149081387Y-117174052D01*
X149078364Y-117158852D01*
X152090010Y-117158852D01*
X152090010Y-117283148D01*
X152114259Y-117405056D01*
X152161825Y-117519891D01*
X152230880Y-117623239D01*
X152318771Y-117711130D01*
X152422119Y-117780185D01*
X152536954Y-117827751D01*
X152658862Y-117852000D01*
X152783158Y-117852000D01*
X152905066Y-117827751D01*
X153019901Y-117780185D01*
X153123249Y-117711130D01*
X153211140Y-117623239D01*
X153280195Y-117519891D01*
X153327761Y-117405056D01*
X153352010Y-117283148D01*
X153352010Y-117158852D01*
X153327761Y-117036944D01*
X153280195Y-116922109D01*
X153211140Y-116818761D01*
X153123249Y-116730870D01*
X153019901Y-116661815D01*
X152993434Y-116650852D01*
X155960000Y-116650852D01*
X155960000Y-116775148D01*
X155984249Y-116897056D01*
X156031815Y-117011891D01*
X156100870Y-117115239D01*
X156188761Y-117203130D01*
X156292109Y-117272185D01*
X156406944Y-117319751D01*
X156528852Y-117344000D01*
X156653148Y-117344000D01*
X156775056Y-117319751D01*
X156889891Y-117272185D01*
X156993239Y-117203130D01*
X157081130Y-117115239D01*
X157150185Y-117011891D01*
X157197751Y-116897056D01*
X157222000Y-116775148D01*
X157222000Y-116650852D01*
X157197751Y-116528944D01*
X157150185Y-116414109D01*
X157081130Y-116310761D01*
X156993239Y-116222870D01*
X156889891Y-116153815D01*
X156775056Y-116106249D01*
X156653148Y-116082000D01*
X156528852Y-116082000D01*
X156406944Y-116106249D01*
X156292109Y-116153815D01*
X156188761Y-116222870D01*
X156100870Y-116310761D01*
X156031815Y-116414109D01*
X155984249Y-116528944D01*
X155960000Y-116650852D01*
X152993434Y-116650852D01*
X152905066Y-116614249D01*
X152783158Y-116590000D01*
X152658862Y-116590000D01*
X152536954Y-116614249D01*
X152422119Y-116661815D01*
X152318771Y-116730870D01*
X152230880Y-116818761D01*
X152161825Y-116922109D01*
X152114259Y-117036944D01*
X152090010Y-117158852D01*
X149078364Y-117158852D01*
X149057138Y-117052144D01*
X149009572Y-116937309D01*
X148940517Y-116833961D01*
X148852626Y-116746070D01*
X148749278Y-116677015D01*
X148634443Y-116629449D01*
X148512535Y-116605200D01*
X148388239Y-116605200D01*
X148266331Y-116629449D01*
X148229292Y-116644791D01*
X148198859Y-116614358D01*
X148070942Y-116528887D01*
X147928809Y-116470013D01*
X147777922Y-116440000D01*
X147624078Y-116440000D01*
X147473191Y-116470013D01*
X147331058Y-116528887D01*
X147203141Y-116614358D01*
X147094358Y-116723141D01*
X147008887Y-116851058D01*
X146950013Y-116993191D01*
X146920000Y-117144078D01*
X143556547Y-117144078D01*
X143658239Y-117076130D01*
X143746130Y-116988239D01*
X143815185Y-116884891D01*
X143862751Y-116770056D01*
X143887000Y-116648148D01*
X143887000Y-116523852D01*
X143862751Y-116401944D01*
X143815185Y-116287109D01*
X143746130Y-116183761D01*
X143658239Y-116095870D01*
X143554891Y-116026815D01*
X143440056Y-115979249D01*
X143318148Y-115955000D01*
X143256000Y-115955000D01*
X143256000Y-114808000D01*
X143248679Y-114733671D01*
X143247893Y-114731078D01*
X145269000Y-114731078D01*
X145269000Y-114884922D01*
X145299013Y-115035809D01*
X145357887Y-115177942D01*
X145443358Y-115305859D01*
X145552141Y-115414642D01*
X145680058Y-115500113D01*
X145822191Y-115558987D01*
X145973078Y-115589000D01*
X146126922Y-115589000D01*
X146277809Y-115558987D01*
X146419942Y-115500113D01*
X146547859Y-115414642D01*
X146656642Y-115305859D01*
X146742113Y-115177942D01*
X146800987Y-115035809D01*
X146831000Y-114884922D01*
X146831000Y-114858078D01*
X147174000Y-114858078D01*
X147174000Y-115011922D01*
X147204013Y-115162809D01*
X147262887Y-115304942D01*
X147348358Y-115432859D01*
X147457141Y-115541642D01*
X147585058Y-115627113D01*
X147727191Y-115685987D01*
X147878078Y-115716000D01*
X148031922Y-115716000D01*
X148182809Y-115685987D01*
X148324942Y-115627113D01*
X148452859Y-115541642D01*
X148501423Y-115493078D01*
X154286000Y-115493078D01*
X154286000Y-115646922D01*
X154316013Y-115797809D01*
X154374887Y-115939942D01*
X154460358Y-116067859D01*
X154569141Y-116176642D01*
X154697058Y-116262113D01*
X154839191Y-116320987D01*
X154990078Y-116351000D01*
X155143922Y-116351000D01*
X155294809Y-116320987D01*
X155436942Y-116262113D01*
X155564859Y-116176642D01*
X155673642Y-116067859D01*
X155759113Y-115939942D01*
X155817987Y-115797809D01*
X155848000Y-115646922D01*
X155848000Y-115507852D01*
X157484000Y-115507852D01*
X157484000Y-115632148D01*
X157508249Y-115754056D01*
X157555815Y-115868891D01*
X157624870Y-115972239D01*
X157712761Y-116060130D01*
X157816109Y-116129185D01*
X157930944Y-116176751D01*
X158052852Y-116201000D01*
X158177148Y-116201000D01*
X158299056Y-116176751D01*
X158413891Y-116129185D01*
X158517239Y-116060130D01*
X158605130Y-115972239D01*
X158674185Y-115868891D01*
X158721751Y-115754056D01*
X158746000Y-115632148D01*
X158746000Y-115507852D01*
X158721751Y-115385944D01*
X158674185Y-115271109D01*
X158605130Y-115167761D01*
X158517239Y-115079870D01*
X158413891Y-115010815D01*
X158299056Y-114963249D01*
X158177148Y-114939000D01*
X158052852Y-114939000D01*
X157930944Y-114963249D01*
X157816109Y-115010815D01*
X157712761Y-115079870D01*
X157624870Y-115167761D01*
X157555815Y-115271109D01*
X157508249Y-115385944D01*
X157484000Y-115507852D01*
X155848000Y-115507852D01*
X155848000Y-115493078D01*
X155817987Y-115342191D01*
X155759113Y-115200058D01*
X155673642Y-115072141D01*
X155564859Y-114963358D01*
X155436942Y-114877887D01*
X155294809Y-114819013D01*
X155143922Y-114789000D01*
X154990078Y-114789000D01*
X154839191Y-114819013D01*
X154697058Y-114877887D01*
X154569141Y-114963358D01*
X154460358Y-115072141D01*
X154374887Y-115200058D01*
X154316013Y-115342191D01*
X154286000Y-115493078D01*
X148501423Y-115493078D01*
X148561642Y-115432859D01*
X148647113Y-115304942D01*
X148705987Y-115162809D01*
X148736000Y-115011922D01*
X148736000Y-114858078D01*
X148705987Y-114707191D01*
X148647113Y-114565058D01*
X148561642Y-114437141D01*
X148452859Y-114328358D01*
X148324942Y-114242887D01*
X148182809Y-114184013D01*
X148031922Y-114154000D01*
X147878078Y-114154000D01*
X147727191Y-114184013D01*
X147585058Y-114242887D01*
X147457141Y-114328358D01*
X147348358Y-114437141D01*
X147262887Y-114565058D01*
X147204013Y-114707191D01*
X147174000Y-114858078D01*
X146831000Y-114858078D01*
X146831000Y-114731078D01*
X146800987Y-114580191D01*
X146742113Y-114438058D01*
X146656642Y-114310141D01*
X146547859Y-114201358D01*
X146419942Y-114115887D01*
X146277809Y-114057013D01*
X146126922Y-114027000D01*
X145973078Y-114027000D01*
X145822191Y-114057013D01*
X145680058Y-114115887D01*
X145552141Y-114201358D01*
X145443358Y-114310141D01*
X145357887Y-114438058D01*
X145299013Y-114580191D01*
X145269000Y-114731078D01*
X143247893Y-114731078D01*
X143226998Y-114662198D01*
X143191790Y-114596328D01*
X143144408Y-114538592D01*
X143086672Y-114491210D01*
X143020802Y-114456002D01*
X142949329Y-114434321D01*
X142875000Y-114427000D01*
X140296501Y-114427000D01*
X140306642Y-114416859D01*
X140392113Y-114288942D01*
X140450987Y-114146809D01*
X140481000Y-113995922D01*
X140481000Y-113842078D01*
X140450987Y-113691191D01*
X140392113Y-113549058D01*
X140306642Y-113421141D01*
X140197859Y-113312358D01*
X140069942Y-113226887D01*
X139927809Y-113168013D01*
X139776922Y-113138000D01*
X139623078Y-113138000D01*
X139472191Y-113168013D01*
X139330058Y-113226887D01*
X139202141Y-113312358D01*
X139093358Y-113421141D01*
X139007887Y-113549058D01*
X138949013Y-113691191D01*
X138919000Y-113842078D01*
X138919000Y-113995922D01*
X138949013Y-114146809D01*
X139007887Y-114288942D01*
X139093358Y-114416859D01*
X139103499Y-114427000D01*
X138602442Y-114427000D01*
X138506922Y-114408000D01*
X138353078Y-114408000D01*
X138257558Y-114427000D01*
X137713442Y-114427000D01*
X137617922Y-114408000D01*
X137464078Y-114408000D01*
X137368558Y-114427000D01*
X133477000Y-114427000D01*
X133402671Y-114434321D01*
X133331198Y-114456002D01*
X133265328Y-114491210D01*
X133207592Y-114538592D01*
X133160210Y-114596328D01*
X133125002Y-114662198D01*
X133103321Y-114733671D01*
X133096000Y-114808000D01*
X133096000Y-119380000D01*
X133103321Y-119454329D01*
X133125002Y-119525802D01*
X133160210Y-119591672D01*
X133207592Y-119649408D01*
X133265328Y-119696790D01*
X133331198Y-119731998D01*
X133402671Y-119753679D01*
X133477000Y-119761000D01*
X137268000Y-119761000D01*
X137268000Y-119837922D01*
X137298013Y-119988809D01*
X137356887Y-120130942D01*
X137442358Y-120258859D01*
X137551141Y-120367642D01*
X137679058Y-120453113D01*
X137821191Y-120511987D01*
X137972078Y-120542000D01*
X138125922Y-120542000D01*
X138276809Y-120511987D01*
X138418942Y-120453113D01*
X138546859Y-120367642D01*
X138655642Y-120258859D01*
X138741113Y-120130942D01*
X138799987Y-119988809D01*
X138830000Y-119837922D01*
X138830000Y-119761000D01*
X142515862Y-119761000D01*
X142563887Y-119876942D01*
X142571276Y-119888000D01*
X141478000Y-119888000D01*
X141403671Y-119895321D01*
X141332198Y-119917002D01*
X141266328Y-119952210D01*
X141208592Y-119999592D01*
X141161210Y-120057328D01*
X141126002Y-120123198D01*
X141104321Y-120194671D01*
X141097000Y-120269000D01*
X141097000Y-120417862D01*
X140981058Y-120465887D01*
X140895582Y-120523000D01*
X139491442Y-120523000D01*
X139395922Y-120504000D01*
X139242078Y-120504000D01*
X139146558Y-120523000D01*
X138811000Y-120523000D01*
X138736671Y-120530321D01*
X138665198Y-120552002D01*
X138599328Y-120587210D01*
X138541592Y-120634592D01*
X138494210Y-120692328D01*
X138459002Y-120758198D01*
X138437321Y-120829671D01*
X138430000Y-120904000D01*
X138430000Y-122890558D01*
X138420961Y-122936000D01*
X137922000Y-122936000D01*
X137847671Y-122943321D01*
X137776198Y-122965002D01*
X137710328Y-123000210D01*
X137652592Y-123047592D01*
X137605210Y-123105328D01*
X137570002Y-123171198D01*
X137548321Y-123242671D01*
X137541000Y-123317000D01*
X137541000Y-129286000D01*
X137548321Y-129360329D01*
X137570002Y-129431802D01*
X137605210Y-129497672D01*
X137652592Y-129555408D01*
X137710328Y-129602790D01*
X137776198Y-129637998D01*
X137847671Y-129659679D01*
X137922000Y-129667000D01*
X140208000Y-129667000D01*
X140282329Y-129659679D01*
X140353802Y-129637998D01*
X140419672Y-129602790D01*
X140477408Y-129555408D01*
X140524790Y-129497672D01*
X140559998Y-129431802D01*
X140581679Y-129360329D01*
X140589000Y-129286000D01*
X140589000Y-125730000D01*
X142448558Y-125730000D01*
X142393191Y-125741013D01*
X142251058Y-125799887D01*
X142123141Y-125885358D01*
X142014358Y-125994141D01*
X141928887Y-126122058D01*
X141870013Y-126264191D01*
X141840000Y-126415078D01*
X141840000Y-126568922D01*
X141870013Y-126719809D01*
X141928887Y-126861942D01*
X141978705Y-126936500D01*
X141928887Y-127011058D01*
X141870013Y-127153191D01*
X141840000Y-127304078D01*
X141840000Y-127457922D01*
X141870013Y-127608809D01*
X141928887Y-127750942D01*
X142014358Y-127878859D01*
X142067996Y-127932497D01*
X142014355Y-127986138D01*
X141928884Y-128114055D01*
X141870010Y-128256188D01*
X141839997Y-128407075D01*
X141839997Y-128560919D01*
X141870010Y-128711806D01*
X141928884Y-128853939D01*
X142014355Y-128981856D01*
X142123138Y-129090639D01*
X142251055Y-129176110D01*
X142393188Y-129234984D01*
X142544075Y-129264997D01*
X142697919Y-129264997D01*
X142848806Y-129234984D01*
X142990939Y-129176110D01*
X143118856Y-129090639D01*
X143227639Y-128981856D01*
X143313110Y-128853939D01*
X143371984Y-128711806D01*
X143401997Y-128560919D01*
X143401997Y-128407075D01*
X143371984Y-128256188D01*
X143313110Y-128114055D01*
X143227639Y-127986138D01*
X143174001Y-127932500D01*
X143227642Y-127878859D01*
X143313113Y-127750942D01*
X143371987Y-127608809D01*
X143402000Y-127457922D01*
X143402000Y-127304078D01*
X143371987Y-127153191D01*
X143313113Y-127011058D01*
X143263295Y-126936500D01*
X143313113Y-126861942D01*
X143371987Y-126719809D01*
X143402000Y-126568922D01*
X143402000Y-126415078D01*
X143371987Y-126264191D01*
X143313113Y-126122058D01*
X143227642Y-125994141D01*
X143118859Y-125885358D01*
X142990942Y-125799887D01*
X142848809Y-125741013D01*
X142793442Y-125730000D01*
X144907000Y-125730000D01*
X144907000Y-132842000D01*
X144914321Y-132916329D01*
X144936002Y-132987802D01*
X144971210Y-133053672D01*
X145018592Y-133111408D01*
X145076328Y-133158790D01*
X145142198Y-133193998D01*
X145213671Y-133215679D01*
X145288000Y-133223000D01*
X155448000Y-133223000D01*
X155529641Y-133214150D01*
X155551010Y-133207207D01*
X155471715Y-133398643D01*
X155361000Y-133955246D01*
X155361000Y-134522754D01*
X155406046Y-134749215D01*
X155313975Y-134637025D01*
X155179824Y-134526932D01*
X155026774Y-134445125D01*
X154860705Y-134394748D01*
X154688000Y-134377738D01*
X154515294Y-134394748D01*
X154349225Y-134445125D01*
X154196175Y-134526932D01*
X154062025Y-134637025D01*
X153951932Y-134771176D01*
X153870125Y-134924226D01*
X153819748Y-135090295D01*
X153807000Y-135219728D01*
X153807001Y-136306273D01*
X153819749Y-136435706D01*
X153870126Y-136601775D01*
X153883609Y-136627000D01*
X146852392Y-136627000D01*
X146865875Y-136601775D01*
X146916252Y-136435706D01*
X146929000Y-136306273D01*
X146929000Y-135219727D01*
X146916252Y-135090294D01*
X146865875Y-134924225D01*
X146784068Y-134771175D01*
X146673975Y-134637025D01*
X146539824Y-134526932D01*
X146386774Y-134445125D01*
X146220705Y-134394748D01*
X146048000Y-134377738D01*
X145875294Y-134394748D01*
X145709225Y-134445125D01*
X145556175Y-134526932D01*
X145422025Y-134637025D01*
X145311932Y-134771176D01*
X145230125Y-134924226D01*
X145179748Y-135090295D01*
X145167000Y-135219728D01*
X145167001Y-136306273D01*
X145179749Y-136435706D01*
X145230126Y-136601775D01*
X145243609Y-136627000D01*
X144932000Y-136627000D01*
X144932000Y-135147941D01*
X144933964Y-135128000D01*
X144926125Y-135048410D01*
X144902910Y-134971879D01*
X144865210Y-134901347D01*
X144814474Y-134839526D01*
X144752653Y-134788790D01*
X144682121Y-134751090D01*
X144605590Y-134727875D01*
X144545941Y-134722000D01*
X144545940Y-134722000D01*
X144526000Y-134720036D01*
X144506059Y-134722000D01*
X136417940Y-134722000D01*
X136398000Y-134720036D01*
X136378059Y-134722000D01*
X136318410Y-134727875D01*
X136241879Y-134751090D01*
X136171347Y-134788790D01*
X136109526Y-134839526D01*
X136058790Y-134901347D01*
X136021090Y-134971879D01*
X135997875Y-135048410D01*
X135990036Y-135128000D01*
X135992000Y-135147941D01*
X135992001Y-136627000D01*
X134453768Y-136627000D01*
X134678530Y-136476819D01*
X135079819Y-136075530D01*
X135395109Y-135603665D01*
X135612285Y-135079357D01*
X135723000Y-134522754D01*
X135723000Y-133955246D01*
X135612285Y-133398643D01*
X135395109Y-132874335D01*
X135079819Y-132402470D01*
X134678530Y-132001181D01*
X134206665Y-131685891D01*
X133682357Y-131468715D01*
X133125754Y-131358000D01*
X132558246Y-131358000D01*
X132001643Y-131468715D01*
X131477335Y-131685891D01*
X131005470Y-132001181D01*
X130604181Y-132402470D01*
X130454000Y-132627232D01*
X130454000Y-130493852D01*
X132973000Y-130493852D01*
X132973000Y-130618148D01*
X132997249Y-130740056D01*
X133044815Y-130854891D01*
X133113870Y-130958239D01*
X133201761Y-131046130D01*
X133305109Y-131115185D01*
X133419944Y-131162751D01*
X133541852Y-131187000D01*
X133666148Y-131187000D01*
X133788056Y-131162751D01*
X133902891Y-131115185D01*
X134006239Y-131046130D01*
X134094130Y-130958239D01*
X134163185Y-130854891D01*
X134210751Y-130740056D01*
X134235000Y-130618148D01*
X134235000Y-130493852D01*
X134210751Y-130371944D01*
X134163185Y-130257109D01*
X134094130Y-130153761D01*
X134006239Y-130065870D01*
X133902891Y-129996815D01*
X133788056Y-129949249D01*
X133666148Y-129925000D01*
X133541852Y-129925000D01*
X133419944Y-129949249D01*
X133305109Y-129996815D01*
X133201761Y-130065870D01*
X133113870Y-130153761D01*
X133044815Y-130257109D01*
X132997249Y-130371944D01*
X132973000Y-130493852D01*
X130454000Y-130493852D01*
X130454000Y-129648570D01*
X130567058Y-129724113D01*
X130709191Y-129782987D01*
X130860078Y-129813000D01*
X131013922Y-129813000D01*
X131164809Y-129782987D01*
X131306942Y-129724113D01*
X131434859Y-129638642D01*
X131543642Y-129529859D01*
X131629113Y-129401942D01*
X131687987Y-129259809D01*
X131718000Y-129108922D01*
X131718000Y-128955078D01*
X131687987Y-128804191D01*
X131629113Y-128662058D01*
X131543642Y-128534141D01*
X131434859Y-128425358D01*
X131306942Y-128339887D01*
X131164809Y-128281013D01*
X131013922Y-128251000D01*
X130860078Y-128251000D01*
X130709191Y-128281013D01*
X130567058Y-128339887D01*
X130454000Y-128415430D01*
X130454000Y-124441570D01*
X130567058Y-124517113D01*
X130709191Y-124575987D01*
X130860078Y-124606000D01*
X131013922Y-124606000D01*
X131164809Y-124575987D01*
X131306942Y-124517113D01*
X131434859Y-124431642D01*
X131543642Y-124322859D01*
X131629113Y-124194942D01*
X131687987Y-124052809D01*
X131718000Y-123901922D01*
X131718000Y-123748078D01*
X131687987Y-123597191D01*
X131645276Y-123494078D01*
X134728000Y-123494078D01*
X134728000Y-123647922D01*
X134758013Y-123798809D01*
X134816887Y-123940942D01*
X134902358Y-124068859D01*
X135011141Y-124177642D01*
X135139058Y-124263113D01*
X135281191Y-124321987D01*
X135432078Y-124352000D01*
X135585922Y-124352000D01*
X135736809Y-124321987D01*
X135878942Y-124263113D01*
X136006859Y-124177642D01*
X136115642Y-124068859D01*
X136201113Y-123940942D01*
X136259987Y-123798809D01*
X136290000Y-123647922D01*
X136290000Y-123494078D01*
X136259987Y-123343191D01*
X136201113Y-123201058D01*
X136115642Y-123073141D01*
X136006859Y-122964358D01*
X135878942Y-122878887D01*
X135736809Y-122820013D01*
X135585922Y-122790000D01*
X135432078Y-122790000D01*
X135281191Y-122820013D01*
X135139058Y-122878887D01*
X135011141Y-122964358D01*
X134902358Y-123073141D01*
X134816887Y-123201058D01*
X134758013Y-123343191D01*
X134728000Y-123494078D01*
X131645276Y-123494078D01*
X131629113Y-123455058D01*
X131543642Y-123327141D01*
X131434859Y-123218358D01*
X131306942Y-123132887D01*
X131164809Y-123074013D01*
X131013922Y-123044000D01*
X130860078Y-123044000D01*
X130709191Y-123074013D01*
X130567058Y-123132887D01*
X130454000Y-123208430D01*
X130454000Y-121707085D01*
X130481268Y-121718380D01*
X130680455Y-121758000D01*
X130883545Y-121758000D01*
X131082732Y-121718380D01*
X131270362Y-121640661D01*
X131439224Y-121527830D01*
X131582830Y-121384224D01*
X131695661Y-121215362D01*
X131773380Y-121027732D01*
X131813000Y-120828545D01*
X131813000Y-120625455D01*
X131773380Y-120426268D01*
X131695661Y-120238638D01*
X131582830Y-120069776D01*
X131439224Y-119926170D01*
X131270362Y-119813339D01*
X131082732Y-119735620D01*
X130883545Y-119696000D01*
X130680455Y-119696000D01*
X130481268Y-119735620D01*
X130454000Y-119746915D01*
X130454000Y-115457085D01*
X130481268Y-115468380D01*
X130680455Y-115508000D01*
X130883545Y-115508000D01*
X131082732Y-115468380D01*
X131270362Y-115390661D01*
X131439224Y-115277830D01*
X131582830Y-115134224D01*
X131695661Y-114965362D01*
X131773380Y-114777732D01*
X131813000Y-114578545D01*
X131813000Y-114375455D01*
X131773380Y-114176268D01*
X131695661Y-113988638D01*
X131582830Y-113819776D01*
X131439224Y-113676170D01*
X131270362Y-113563339D01*
X131082732Y-113485620D01*
X130930215Y-113455283D01*
X132913010Y-113455283D01*
X132913010Y-113609127D01*
X132943023Y-113760014D01*
X133001897Y-113902147D01*
X133087368Y-114030064D01*
X133196151Y-114138847D01*
X133324068Y-114224318D01*
X133466201Y-114283192D01*
X133617088Y-114313205D01*
X133770932Y-114313205D01*
X133921819Y-114283192D01*
X134063952Y-114224318D01*
X134191869Y-114138847D01*
X134300652Y-114030064D01*
X134386123Y-113902147D01*
X134444997Y-113760014D01*
X134475010Y-113609127D01*
X134475010Y-113455283D01*
X134444997Y-113304396D01*
X134386123Y-113162263D01*
X134300652Y-113034346D01*
X134191869Y-112925563D01*
X134063952Y-112840092D01*
X133921819Y-112781218D01*
X133770932Y-112751205D01*
X133617088Y-112751205D01*
X133466201Y-112781218D01*
X133324068Y-112840092D01*
X133196151Y-112925563D01*
X133087368Y-113034346D01*
X133001897Y-113162263D01*
X132943023Y-113304396D01*
X132913010Y-113455283D01*
X130930215Y-113455283D01*
X130883545Y-113446000D01*
X130680455Y-113446000D01*
X130481268Y-113485620D01*
X130454000Y-113496915D01*
X130454000Y-112699078D01*
X151492000Y-112699078D01*
X151492000Y-112852922D01*
X151522013Y-113003809D01*
X151580887Y-113145942D01*
X151666358Y-113273859D01*
X151775141Y-113382642D01*
X151903058Y-113468113D01*
X152045191Y-113526987D01*
X152196078Y-113557000D01*
X152349922Y-113557000D01*
X152500809Y-113526987D01*
X152642942Y-113468113D01*
X152770859Y-113382642D01*
X152879642Y-113273859D01*
X152965113Y-113145942D01*
X153023987Y-113003809D01*
X153054000Y-112852922D01*
X153054000Y-112699078D01*
X153023987Y-112548191D01*
X152965113Y-112406058D01*
X152879642Y-112278141D01*
X152770859Y-112169358D01*
X152642942Y-112083887D01*
X152500809Y-112025013D01*
X152349922Y-111995000D01*
X152196078Y-111995000D01*
X152045191Y-112025013D01*
X151903058Y-112083887D01*
X151775141Y-112169358D01*
X151666358Y-112278141D01*
X151580887Y-112406058D01*
X151522013Y-112548191D01*
X151492000Y-112699078D01*
X130454000Y-112699078D01*
X130454000Y-111316852D01*
X156722000Y-111316852D01*
X156722000Y-111441148D01*
X156746249Y-111563056D01*
X156793815Y-111677891D01*
X156862870Y-111781239D01*
X156950761Y-111869130D01*
X157054109Y-111938185D01*
X157168944Y-111985751D01*
X157290852Y-112010000D01*
X157415148Y-112010000D01*
X157537056Y-111985751D01*
X157651891Y-111938185D01*
X157755239Y-111869130D01*
X157843130Y-111781239D01*
X157912185Y-111677891D01*
X157959751Y-111563056D01*
X157984000Y-111441148D01*
X157984000Y-111316852D01*
X157959751Y-111194944D01*
X157912185Y-111080109D01*
X157843130Y-110976761D01*
X157755239Y-110888870D01*
X157651891Y-110819815D01*
X157537056Y-110772249D01*
X157415148Y-110748000D01*
X157290852Y-110748000D01*
X157168944Y-110772249D01*
X157054109Y-110819815D01*
X156950761Y-110888870D01*
X156862870Y-110976761D01*
X156793815Y-111080109D01*
X156746249Y-111194944D01*
X156722000Y-111316852D01*
X130454000Y-111316852D01*
X130454000Y-108802439D01*
X138459587Y-108802439D01*
X138459587Y-108926735D01*
X138483836Y-109048643D01*
X138531402Y-109163478D01*
X138600457Y-109266826D01*
X138688348Y-109354717D01*
X138791696Y-109423772D01*
X138906531Y-109471338D01*
X138919000Y-109473818D01*
X138919000Y-109550922D01*
X138949013Y-109701809D01*
X139007887Y-109843942D01*
X139093358Y-109971859D01*
X139202141Y-110080642D01*
X139330058Y-110166113D01*
X139472191Y-110224987D01*
X139623078Y-110255000D01*
X139776922Y-110255000D01*
X139927809Y-110224987D01*
X140069942Y-110166113D01*
X140197859Y-110080642D01*
X140306642Y-109971859D01*
X140392113Y-109843942D01*
X140450987Y-109701809D01*
X140481000Y-109550922D01*
X140481000Y-109397078D01*
X140450987Y-109246191D01*
X140392113Y-109104058D01*
X140343199Y-109030852D01*
X145292000Y-109030852D01*
X145292000Y-109155148D01*
X145316249Y-109277056D01*
X145363815Y-109391891D01*
X145432870Y-109495239D01*
X145520761Y-109583130D01*
X145624109Y-109652185D01*
X145738944Y-109699751D01*
X145860852Y-109724000D01*
X145985148Y-109724000D01*
X146107056Y-109699751D01*
X146221891Y-109652185D01*
X146304000Y-109597321D01*
X146386109Y-109652185D01*
X146500944Y-109699751D01*
X146622852Y-109724000D01*
X146747148Y-109724000D01*
X146869056Y-109699751D01*
X146983891Y-109652185D01*
X147087239Y-109583130D01*
X147146291Y-109524078D01*
X156572000Y-109524078D01*
X156572000Y-109677922D01*
X156602013Y-109828809D01*
X156660887Y-109970942D01*
X156746358Y-110098859D01*
X156855141Y-110207642D01*
X156983058Y-110293113D01*
X157125191Y-110351987D01*
X157276078Y-110382000D01*
X157429922Y-110382000D01*
X157580809Y-110351987D01*
X157722942Y-110293113D01*
X157850859Y-110207642D01*
X157959642Y-110098859D01*
X158045113Y-109970942D01*
X158103987Y-109828809D01*
X158134000Y-109677922D01*
X158134000Y-109524078D01*
X158103987Y-109373191D01*
X158045113Y-109231058D01*
X157959642Y-109103141D01*
X157850859Y-108994358D01*
X157722942Y-108908887D01*
X157580809Y-108850013D01*
X157429922Y-108820000D01*
X157276078Y-108820000D01*
X157125191Y-108850013D01*
X156983058Y-108908887D01*
X156855141Y-108994358D01*
X156746358Y-109103141D01*
X156660887Y-109231058D01*
X156602013Y-109373191D01*
X156572000Y-109524078D01*
X147146291Y-109524078D01*
X147175130Y-109495239D01*
X147244185Y-109391891D01*
X147291751Y-109277056D01*
X147316000Y-109155148D01*
X147316000Y-109030852D01*
X147291751Y-108908944D01*
X147244185Y-108794109D01*
X147175130Y-108690761D01*
X147087239Y-108602870D01*
X146983891Y-108533815D01*
X146869056Y-108486249D01*
X146747148Y-108462000D01*
X146622852Y-108462000D01*
X146500944Y-108486249D01*
X146386109Y-108533815D01*
X146304000Y-108588679D01*
X146221891Y-108533815D01*
X146107056Y-108486249D01*
X145985148Y-108462000D01*
X145860852Y-108462000D01*
X145738944Y-108486249D01*
X145624109Y-108533815D01*
X145520761Y-108602870D01*
X145432870Y-108690761D01*
X145363815Y-108794109D01*
X145316249Y-108908944D01*
X145292000Y-109030852D01*
X140343199Y-109030852D01*
X140306642Y-108976141D01*
X140197859Y-108867358D01*
X140069942Y-108781887D01*
X139927809Y-108723013D01*
X139776922Y-108693000D01*
X139699818Y-108693000D01*
X139697338Y-108680531D01*
X139649772Y-108565696D01*
X139580717Y-108462348D01*
X139492826Y-108374457D01*
X139389478Y-108305402D01*
X139274643Y-108257836D01*
X139152735Y-108233587D01*
X139028439Y-108233587D01*
X138906531Y-108257836D01*
X138791696Y-108305402D01*
X138688348Y-108374457D01*
X138600457Y-108462348D01*
X138531402Y-108565696D01*
X138483836Y-108680531D01*
X138459587Y-108802439D01*
X130454000Y-108802439D01*
X130454000Y-106476078D01*
X132823000Y-106476078D01*
X132823000Y-106629922D01*
X132853013Y-106780809D01*
X132911887Y-106922942D01*
X132997358Y-107050859D01*
X133106141Y-107159642D01*
X133234058Y-107245113D01*
X133376191Y-107303987D01*
X133527078Y-107334000D01*
X133680922Y-107334000D01*
X133831809Y-107303987D01*
X133973942Y-107245113D01*
X134101859Y-107159642D01*
X134210642Y-107050859D01*
X134296113Y-106922942D01*
X134354987Y-106780809D01*
X134385000Y-106629922D01*
X134385000Y-106476078D01*
X134354987Y-106325191D01*
X134296113Y-106183058D01*
X134210642Y-106055141D01*
X134101859Y-105946358D01*
X133973942Y-105860887D01*
X133961787Y-105855852D01*
X143513992Y-105855852D01*
X143513992Y-105980148D01*
X143538241Y-106102056D01*
X143585807Y-106216891D01*
X143654862Y-106320239D01*
X143742753Y-106408130D01*
X143846101Y-106477185D01*
X143875834Y-106489501D01*
X143846105Y-106501815D01*
X143742757Y-106570870D01*
X143654866Y-106658761D01*
X143585811Y-106762109D01*
X143538245Y-106876944D01*
X143513996Y-106998852D01*
X143513996Y-107123148D01*
X143538245Y-107245056D01*
X143585811Y-107359891D01*
X143598247Y-107378503D01*
X143585815Y-107397109D01*
X143538249Y-107511944D01*
X143514000Y-107633852D01*
X143514000Y-107758148D01*
X143538249Y-107880056D01*
X143585815Y-107994891D01*
X143654870Y-108098239D01*
X143742761Y-108186130D01*
X143846109Y-108255185D01*
X143960944Y-108302751D01*
X144082852Y-108327000D01*
X144207148Y-108327000D01*
X144329056Y-108302751D01*
X144443891Y-108255185D01*
X144547239Y-108186130D01*
X144635130Y-108098239D01*
X144704185Y-107994891D01*
X144751751Y-107880056D01*
X144776000Y-107758148D01*
X144776000Y-107633852D01*
X144751751Y-107511944D01*
X144704185Y-107397109D01*
X144691749Y-107378497D01*
X144704181Y-107359891D01*
X144751747Y-107245056D01*
X144775996Y-107123148D01*
X144775996Y-106998852D01*
X144751747Y-106876944D01*
X144704181Y-106762109D01*
X144635126Y-106658761D01*
X144547235Y-106570870D01*
X144443887Y-106501815D01*
X144414154Y-106489499D01*
X144443883Y-106477185D01*
X144547231Y-106408130D01*
X144635122Y-106320239D01*
X144704177Y-106216891D01*
X144751743Y-106102056D01*
X144775992Y-105980148D01*
X144775992Y-105931829D01*
X144825418Y-105941660D01*
X144979262Y-105941660D01*
X145130149Y-105911647D01*
X145272282Y-105852773D01*
X145400199Y-105767302D01*
X145478496Y-105689005D01*
X145552141Y-105762650D01*
X145680058Y-105848121D01*
X145822191Y-105906995D01*
X145973078Y-105937008D01*
X146126922Y-105937008D01*
X146277809Y-105906995D01*
X146419942Y-105848121D01*
X146547859Y-105762650D01*
X146656642Y-105653867D01*
X146742113Y-105525950D01*
X146800987Y-105383817D01*
X146831000Y-105232930D01*
X146831000Y-105079086D01*
X146830999Y-105079078D01*
X151492000Y-105079078D01*
X151492000Y-105232922D01*
X151522013Y-105383809D01*
X151580887Y-105525942D01*
X151666358Y-105653859D01*
X151775141Y-105762642D01*
X151903058Y-105848113D01*
X152045191Y-105906987D01*
X152196078Y-105937000D01*
X152349922Y-105937000D01*
X152500809Y-105906987D01*
X152642942Y-105848113D01*
X152770859Y-105762642D01*
X152879642Y-105653859D01*
X152965113Y-105525942D01*
X153023987Y-105383809D01*
X153054000Y-105232922D01*
X153054000Y-105079078D01*
X153023987Y-104928191D01*
X152965113Y-104786058D01*
X152879642Y-104658141D01*
X152770859Y-104549358D01*
X152642942Y-104463887D01*
X152500809Y-104405013D01*
X152349922Y-104375000D01*
X152196078Y-104375000D01*
X152045191Y-104405013D01*
X151903058Y-104463887D01*
X151775141Y-104549358D01*
X151666358Y-104658141D01*
X151580887Y-104786058D01*
X151522013Y-104928191D01*
X151492000Y-105079078D01*
X146830999Y-105079078D01*
X146800987Y-104928199D01*
X146742113Y-104786066D01*
X146656642Y-104658149D01*
X146547859Y-104549366D01*
X146419942Y-104463895D01*
X146277809Y-104405021D01*
X146126922Y-104375008D01*
X145973078Y-104375008D01*
X145822191Y-104405021D01*
X145680058Y-104463895D01*
X145552141Y-104549366D01*
X145473844Y-104627663D01*
X145400199Y-104554018D01*
X145272282Y-104468547D01*
X145130149Y-104409673D01*
X144979262Y-104379660D01*
X144825418Y-104379660D01*
X144674531Y-104409673D01*
X144532398Y-104468547D01*
X144404481Y-104554018D01*
X144295698Y-104662801D01*
X144210227Y-104790718D01*
X144151353Y-104932851D01*
X144121340Y-105083738D01*
X144121340Y-105237582D01*
X144131170Y-105287000D01*
X144082844Y-105287000D01*
X143960936Y-105311249D01*
X143846101Y-105358815D01*
X143742753Y-105427870D01*
X143654862Y-105515761D01*
X143585807Y-105619109D01*
X143538241Y-105733944D01*
X143513992Y-105855852D01*
X133961787Y-105855852D01*
X133831809Y-105802013D01*
X133680922Y-105772000D01*
X133527078Y-105772000D01*
X133376191Y-105802013D01*
X133234058Y-105860887D01*
X133106141Y-105946358D01*
X132997358Y-106055141D01*
X132911887Y-106183058D01*
X132853013Y-106325191D01*
X132823000Y-106476078D01*
X130454000Y-106476078D01*
X130454000Y-104966852D01*
X138307000Y-104966852D01*
X138307000Y-105091148D01*
X138331249Y-105213056D01*
X138378815Y-105327891D01*
X138447870Y-105431239D01*
X138535761Y-105519130D01*
X138639109Y-105588185D01*
X138753944Y-105635751D01*
X138875852Y-105660000D01*
X139000148Y-105660000D01*
X139122056Y-105635751D01*
X139236891Y-105588185D01*
X139340239Y-105519130D01*
X139428130Y-105431239D01*
X139497185Y-105327891D01*
X139544751Y-105213056D01*
X139569000Y-105091148D01*
X139569000Y-104966852D01*
X139544751Y-104844944D01*
X139536523Y-104825078D01*
X141459000Y-104825078D01*
X141459000Y-104978922D01*
X141489013Y-105129809D01*
X141547887Y-105271942D01*
X141633358Y-105399859D01*
X141742141Y-105508642D01*
X141870058Y-105594113D01*
X142012191Y-105652987D01*
X142163078Y-105683000D01*
X142316922Y-105683000D01*
X142467809Y-105652987D01*
X142609942Y-105594113D01*
X142737859Y-105508642D01*
X142846642Y-105399859D01*
X142932113Y-105271942D01*
X142990987Y-105129809D01*
X143021000Y-104978922D01*
X143021000Y-104825078D01*
X142990987Y-104674191D01*
X142932113Y-104532058D01*
X142846642Y-104404141D01*
X142737859Y-104295358D01*
X142609942Y-104209887D01*
X142467809Y-104151013D01*
X142316922Y-104121000D01*
X142163078Y-104121000D01*
X142012191Y-104151013D01*
X141870058Y-104209887D01*
X141742141Y-104295358D01*
X141633358Y-104404141D01*
X141547887Y-104532058D01*
X141489013Y-104674191D01*
X141459000Y-104825078D01*
X139536523Y-104825078D01*
X139497185Y-104730109D01*
X139428130Y-104626761D01*
X139340239Y-104538870D01*
X139236891Y-104469815D01*
X139122056Y-104422249D01*
X139000148Y-104398000D01*
X138875852Y-104398000D01*
X138753944Y-104422249D01*
X138639109Y-104469815D01*
X138535761Y-104538870D01*
X138447870Y-104626761D01*
X138378815Y-104730109D01*
X138331249Y-104844944D01*
X138307000Y-104966852D01*
X130454000Y-104966852D01*
X130454000Y-102957768D01*
X130604181Y-103182530D01*
X131005470Y-103583819D01*
X131477335Y-103899109D01*
X132001643Y-104116285D01*
X132558246Y-104227000D01*
X133125754Y-104227000D01*
X133682357Y-104116285D01*
X134206665Y-103899109D01*
X134678530Y-103583819D01*
X135079819Y-103182530D01*
X135395109Y-102710665D01*
X135612285Y-102186357D01*
X135693695Y-101777078D01*
X138193990Y-101777078D01*
X138193990Y-101930922D01*
X138224003Y-102081809D01*
X138282877Y-102223942D01*
X138368348Y-102351859D01*
X138441989Y-102425500D01*
X138368348Y-102499141D01*
X138282877Y-102627058D01*
X138224003Y-102769191D01*
X138193990Y-102920078D01*
X138193990Y-103073922D01*
X138224003Y-103224809D01*
X138282877Y-103366942D01*
X138368348Y-103494859D01*
X138477131Y-103603642D01*
X138605048Y-103689113D01*
X138747181Y-103747987D01*
X138898068Y-103778000D01*
X139051912Y-103778000D01*
X139202799Y-103747987D01*
X139344932Y-103689113D01*
X139472849Y-103603642D01*
X139581632Y-103494859D01*
X139667103Y-103366942D01*
X139725977Y-103224809D01*
X139755990Y-103073922D01*
X139755990Y-102920078D01*
X139725977Y-102769191D01*
X139667103Y-102627058D01*
X139581632Y-102499141D01*
X139507991Y-102425500D01*
X139581632Y-102351859D01*
X139667103Y-102223942D01*
X139687718Y-102174173D01*
X150334433Y-102174173D01*
X150334433Y-102328017D01*
X150364446Y-102478904D01*
X150423320Y-102621037D01*
X150508791Y-102748954D01*
X150581668Y-102821831D01*
X150523358Y-102880141D01*
X150437887Y-103008058D01*
X150379013Y-103150191D01*
X150349000Y-103301078D01*
X150349000Y-103454922D01*
X150379013Y-103605809D01*
X150437887Y-103747942D01*
X150523358Y-103875859D01*
X150632141Y-103984642D01*
X150760058Y-104070113D01*
X150902191Y-104128987D01*
X151053078Y-104159000D01*
X151206922Y-104159000D01*
X151357809Y-104128987D01*
X151499942Y-104070113D01*
X151627859Y-103984642D01*
X151736642Y-103875859D01*
X151822113Y-103747942D01*
X151823234Y-103745234D01*
X154730835Y-103745234D01*
X154730835Y-103899078D01*
X154760848Y-104049965D01*
X154819722Y-104192098D01*
X154905193Y-104320015D01*
X155013976Y-104428798D01*
X155141893Y-104514269D01*
X155284026Y-104573143D01*
X155434913Y-104603156D01*
X155588757Y-104603156D01*
X155739644Y-104573143D01*
X155881777Y-104514269D01*
X156009694Y-104428798D01*
X156118477Y-104320015D01*
X156203948Y-104192098D01*
X156262822Y-104049965D01*
X156292835Y-103899078D01*
X156292835Y-103745234D01*
X156262822Y-103594347D01*
X156203948Y-103452214D01*
X156118477Y-103324297D01*
X156009694Y-103215514D01*
X155881777Y-103130043D01*
X155739644Y-103071169D01*
X155588757Y-103041156D01*
X155434913Y-103041156D01*
X155284026Y-103071169D01*
X155141893Y-103130043D01*
X155013976Y-103215514D01*
X154905193Y-103324297D01*
X154819722Y-103452214D01*
X154760848Y-103594347D01*
X154730835Y-103745234D01*
X151823234Y-103745234D01*
X151880987Y-103605809D01*
X151911000Y-103454922D01*
X151911000Y-103301078D01*
X151880987Y-103150191D01*
X151822113Y-103008058D01*
X151736642Y-102880141D01*
X151663765Y-102807264D01*
X151722075Y-102748954D01*
X151807546Y-102621037D01*
X151866420Y-102478904D01*
X151896433Y-102328017D01*
X151896433Y-102174173D01*
X151866420Y-102023286D01*
X151807546Y-101881153D01*
X151722075Y-101753236D01*
X151613292Y-101644453D01*
X151485375Y-101558982D01*
X151343242Y-101500108D01*
X151192355Y-101470095D01*
X151038511Y-101470095D01*
X150887624Y-101500108D01*
X150745491Y-101558982D01*
X150617574Y-101644453D01*
X150508791Y-101753236D01*
X150423320Y-101881153D01*
X150364446Y-102023286D01*
X150334433Y-102174173D01*
X139687718Y-102174173D01*
X139725977Y-102081809D01*
X139755990Y-101930922D01*
X139755990Y-101777078D01*
X139725977Y-101626191D01*
X139667103Y-101484058D01*
X139581632Y-101356141D01*
X139472849Y-101247358D01*
X139344932Y-101161887D01*
X139202799Y-101103013D01*
X139051912Y-101073000D01*
X138898068Y-101073000D01*
X138747181Y-101103013D01*
X138605048Y-101161887D01*
X138477131Y-101247358D01*
X138368348Y-101356141D01*
X138282877Y-101484058D01*
X138224003Y-101626191D01*
X138193990Y-101777078D01*
X135693695Y-101777078D01*
X135723000Y-101629754D01*
X135723000Y-101062246D01*
X135612285Y-100505643D01*
X135395109Y-99981335D01*
X135079819Y-99509470D01*
X134678530Y-99108181D01*
X134206665Y-98792891D01*
X133931708Y-98679000D01*
X146127276Y-98679000D01*
X146119887Y-98690058D01*
G37*
G04 #@! TD.AperFunction*
G04 #@! TD*
M02*
