%TF.GenerationSoftware,KiCad,Pcbnew,(5.1.8)-1*%
%TF.CreationDate,2021-06-05T10:25:27+02:00*%
%TF.ProjectId,trick-tracker,74726963-6b2d-4747-9261-636b65722e6b,rev?*%
%TF.SameCoordinates,Original*%
%TF.FileFunction,Legend,Bot*%
%TF.FilePolarity,Positive*%
%FSLAX46Y46*%
G04 Gerber Fmt 4.6, Leading zero omitted, Abs format (unit mm)*
G04 Created by KiCad (PCBNEW (5.1.8)-1) date 2021-06-05 10:25:27*
%MOMM*%
%LPD*%
G01*
G04 APERTURE LIST*
%ADD10C,0.200000*%
%ADD11C,0.120000*%
%ADD12C,0.015000*%
%ADD13C,0.150000*%
G04 APERTURE END LIST*
D10*
%TO.C,J4*%
X156385000Y-126444000D02*
G75*
G03*
X156385000Y-126444000I-100000J0D01*
G01*
X145310000Y-125425200D02*
X145310000Y-130444000D01*
X158585000Y-130444000D02*
X145310000Y-130444000D01*
X160760000Y-116444000D02*
X160085000Y-116444000D01*
X145310000Y-119634000D02*
X145310000Y-122986800D01*
X160760000Y-116444000D02*
X160760000Y-128994000D01*
X145310000Y-116444000D02*
X145310000Y-117170200D01*
X157585000Y-116444000D02*
X145310000Y-116444000D01*
D11*
%TO.C,P1*%
X134976000Y-129444000D02*
X132176000Y-129444000D01*
X132176000Y-129444000D02*
X132176000Y-117644000D01*
X132176000Y-117644000D02*
X134976000Y-117644000D01*
X141376000Y-129444000D02*
X144176000Y-129444000D01*
X144176000Y-129444000D02*
X144176000Y-117644000D01*
X144176000Y-117644000D02*
X141376000Y-117644000D01*
X143157025Y-127244000D02*
G75*
G03*
X143157025Y-127244000I-781025J0D01*
G01*
X132176000Y-124544000D02*
X133276000Y-124544000D01*
X133276000Y-124544000D02*
X133276000Y-122544000D01*
X133276000Y-122544000D02*
X132176000Y-122544000D01*
%TO.C,U1*%
X139470000Y-98168000D02*
X137270000Y-95768000D01*
X141670000Y-98168000D02*
X137270000Y-92968000D01*
X143870000Y-98168000D02*
X139070000Y-92568000D01*
X145870000Y-98168000D02*
X144270000Y-96568000D01*
X144870000Y-94168000D02*
X143270000Y-92568000D01*
X150070000Y-98168000D02*
X148670000Y-96768000D01*
X152870000Y-98168000D02*
X147270000Y-92568000D01*
X153870000Y-93768000D02*
X152670000Y-92568000D01*
X153670000Y-95368000D02*
X150870000Y-92568000D01*
X153670000Y-97168000D02*
X149070000Y-92568000D01*
X136870000Y-98568000D02*
X154270000Y-98568000D01*
X154270000Y-99068000D02*
X154270000Y-92068000D01*
X136870000Y-99068000D02*
X136870000Y-92068000D01*
X136870000Y-115268000D02*
X136870000Y-114368000D01*
X154270000Y-114368000D02*
X154270000Y-115268000D01*
X154270000Y-92068000D02*
X136870000Y-92068000D01*
X154270000Y-115268000D02*
X136870000Y-115268000D01*
%TO.C,J4*%
D12*
X152031335Y-121513378D02*
X153174811Y-121513378D01*
X153403506Y-121437146D01*
X153555969Y-121284682D01*
X153632201Y-121055987D01*
X153632201Y-120903524D01*
X152564957Y-122961780D02*
X153632201Y-122961780D01*
X151955103Y-122580622D02*
X153098579Y-122199463D01*
X153098579Y-123190475D01*
%TO.C,P1*%
D13*
X138787095Y-123896380D02*
X138787095Y-122896380D01*
X138406142Y-122896380D01*
X138310904Y-122944000D01*
X138263285Y-122991619D01*
X138215666Y-123086857D01*
X138215666Y-123229714D01*
X138263285Y-123324952D01*
X138310904Y-123372571D01*
X138406142Y-123420190D01*
X138787095Y-123420190D01*
X137263285Y-123896380D02*
X137834714Y-123896380D01*
X137549000Y-123896380D02*
X137549000Y-122896380D01*
X137644238Y-123039238D01*
X137739476Y-123134476D01*
X137834714Y-123182095D01*
%TO.C,U1*%
X146331904Y-108820380D02*
X146331904Y-109629904D01*
X146284285Y-109725142D01*
X146236666Y-109772761D01*
X146141428Y-109820380D01*
X145950952Y-109820380D01*
X145855714Y-109772761D01*
X145808095Y-109725142D01*
X145760476Y-109629904D01*
X145760476Y-108820380D01*
X144760476Y-109820380D02*
X145331904Y-109820380D01*
X145046190Y-109820380D02*
X145046190Y-108820380D01*
X145141428Y-108963238D01*
X145236666Y-109058476D01*
X145331904Y-109106095D01*
X148741428Y-95534666D02*
X148265238Y-95534666D01*
X148836666Y-95820380D02*
X148503333Y-94820380D01*
X148169999Y-95820380D01*
X147836666Y-95820380D02*
X147836666Y-94820380D01*
X147265238Y-95820380D01*
X147265238Y-94820380D01*
X146931904Y-94820380D02*
X146360476Y-94820380D01*
X146646190Y-95820380D02*
X146646190Y-94820380D01*
X146027142Y-95296571D02*
X145693809Y-95296571D01*
X145550952Y-95820380D02*
X146027142Y-95820380D01*
X146027142Y-94820380D01*
X145550952Y-94820380D01*
X145122380Y-95820380D02*
X145122380Y-94820380D01*
X144550952Y-95820380D01*
X144550952Y-94820380D01*
X144074761Y-95820380D02*
X144074761Y-94820380D01*
X143503333Y-95820380D01*
X143503333Y-94820380D01*
X143074761Y-95534666D02*
X142598571Y-95534666D01*
X143169999Y-95820380D02*
X142836666Y-94820380D01*
X142503333Y-95820380D01*
%TD*%
M02*
