G04 #@! TF.GenerationSoftware,KiCad,Pcbnew,(5.1.8)-1*
G04 #@! TF.CreationDate,2021-06-06T23:51:57+02:00*
G04 #@! TF.ProjectId,trick-tracker,74726963-6b2d-4747-9261-636b65722e6b,rev?*
G04 #@! TF.SameCoordinates,Original*
G04 #@! TF.FileFunction,Copper,L4,Bot*
G04 #@! TF.FilePolarity,Positive*
%FSLAX46Y46*%
G04 Gerber Fmt 4.6, Leading zero omitted, Abs format (unit mm)*
G04 Created by KiCad (PCBNEW (5.1.8)-1) date 2021-06-06 23:51:57*
%MOMM*%
%LPD*%
G01*
G04 APERTURE LIST*
G04 #@! TA.AperFunction,ComponentPad*
%ADD10C,0.800000*%
G04 #@! TD*
G04 #@! TA.AperFunction,ComponentPad*
%ADD11C,5.000000*%
G04 #@! TD*
G04 #@! TA.AperFunction,ComponentPad*
%ADD12O,1.050000X2.100000*%
G04 #@! TD*
G04 #@! TA.AperFunction,ComponentPad*
%ADD13O,1.000000X2.000000*%
G04 #@! TD*
G04 #@! TA.AperFunction,SMDPad,CuDef*
%ADD14R,2.000000X0.800000*%
G04 #@! TD*
G04 #@! TA.AperFunction,SMDPad,CuDef*
%ADD15R,1.400000X1.800000*%
G04 #@! TD*
G04 #@! TA.AperFunction,SMDPad,CuDef*
%ADD16R,1.900000X1.400000*%
G04 #@! TD*
G04 #@! TA.AperFunction,SMDPad,CuDef*
%ADD17R,6.000000X3.000000*%
G04 #@! TD*
G04 #@! TA.AperFunction,ComponentPad*
%ADD18C,1.300000*%
G04 #@! TD*
G04 #@! TA.AperFunction,SMDPad,CuDef*
%ADD19R,1.700000X0.800000*%
G04 #@! TD*
G04 #@! TA.AperFunction,ViaPad*
%ADD20C,0.800000*%
G04 #@! TD*
G04 #@! TA.AperFunction,ViaPad*
%ADD21C,0.500000*%
G04 #@! TD*
G04 #@! TA.AperFunction,Conductor*
%ADD22C,0.250000*%
G04 #@! TD*
G04 #@! TA.AperFunction,Conductor*
%ADD23C,0.200000*%
G04 #@! TD*
G04 #@! TA.AperFunction,Conductor*
%ADD24C,0.300000*%
G04 #@! TD*
G04 #@! TA.AperFunction,Conductor*
%ADD25C,0.254000*%
G04 #@! TD*
G04 #@! TA.AperFunction,Conductor*
%ADD26C,0.100000*%
G04 #@! TD*
G04 APERTURE END LIST*
D10*
G04 #@! TO.P,H4,1*
G04 #@! TO.N,N/C*
X159567825Y-100020175D03*
X158242000Y-99471000D03*
X156916175Y-100020175D03*
X156367000Y-101346000D03*
X156916175Y-102671825D03*
X158242000Y-103221000D03*
X159567825Y-102671825D03*
X160117000Y-101346000D03*
D11*
X158242000Y-101346000D03*
G04 #@! TD*
D10*
G04 #@! TO.P,H3,1*
G04 #@! TO.N,N/C*
X134167825Y-100020175D03*
X132842000Y-99471000D03*
X131516175Y-100020175D03*
X130967000Y-101346000D03*
X131516175Y-102671825D03*
X132842000Y-103221000D03*
X134167825Y-102671825D03*
X134717000Y-101346000D03*
D11*
X132842000Y-101346000D03*
G04 #@! TD*
D10*
G04 #@! TO.P,H2,1*
G04 #@! TO.N,N/C*
X159567825Y-132913175D03*
X158242000Y-132364000D03*
X156916175Y-132913175D03*
X156367000Y-134239000D03*
X156916175Y-135564825D03*
X158242000Y-136114000D03*
X159567825Y-135564825D03*
X160117000Y-134239000D03*
D11*
X158242000Y-134239000D03*
G04 #@! TD*
D10*
G04 #@! TO.P,H1,1*
G04 #@! TO.N,N/C*
X134167825Y-132913175D03*
X132842000Y-132364000D03*
X131516175Y-132913175D03*
X130967000Y-134239000D03*
X131516175Y-135564825D03*
X132842000Y-136114000D03*
X134167825Y-135564825D03*
X134717000Y-134239000D03*
D11*
X132842000Y-134239000D03*
G04 #@! TD*
D12*
G04 #@! TO.P,J1,S4*
G04 #@! TO.N,Net-(J1-PadS4)*
X154688000Y-131583000D03*
G04 #@! TO.P,J1,S1*
G04 #@! TO.N,Net-(J1-PadS1)*
X146048000Y-131583000D03*
D13*
G04 #@! TO.P,J1,S3*
G04 #@! TO.N,Net-(J1-PadS3)*
X154688000Y-135763000D03*
G04 #@! TO.P,J1,S2*
G04 #@! TO.N,Net-(J1-PadS2)*
X146048000Y-135763000D03*
G04 #@! TD*
D14*
G04 #@! TO.P,J4,1*
G04 #@! TO.N,Net-(J4-Pad1)*
X156260000Y-125384000D03*
G04 #@! TO.P,J4,2*
G04 #@! TO.N,/CS*
X155860000Y-124284000D03*
G04 #@! TO.P,J4,3*
G04 #@! TO.N,/MOSI*
X156260000Y-123184000D03*
G04 #@! TO.P,J4,4*
G04 #@! TO.N,/3.3V*
X156460000Y-122084000D03*
G04 #@! TO.P,J4,5*
G04 #@! TO.N,/SCK*
X156260000Y-120984000D03*
G04 #@! TO.P,J4,6*
G04 #@! TO.N,GND*
X156460000Y-119884000D03*
G04 #@! TO.P,J4,7*
G04 #@! TO.N,/MISO*
X156260000Y-118784000D03*
G04 #@! TO.P,J4,8*
G04 #@! TO.N,Net-(J4-Pad8)*
X156260000Y-117684000D03*
D15*
G04 #@! TO.P,J4,9*
G04 #@! TO.N,/SD_DETECT*
X145710000Y-118494000D03*
G04 #@! TO.P,J4,10*
G04 #@! TO.N,N/C*
X145710000Y-124194000D03*
D16*
G04 #@! TO.P,J4,11*
X158860000Y-116894000D03*
G04 #@! TO.P,J4,12*
X159860000Y-130044000D03*
G04 #@! TD*
D17*
G04 #@! TO.P,P1,2*
G04 #@! TO.N,GND*
X138176000Y-117544000D03*
G04 #@! TO.P,P1,1*
G04 #@! TO.N,Net-(P1-Pad1)*
X138176000Y-129444000D03*
G04 #@! TD*
D18*
G04 #@! TO.P,S3,MH2*
G04 #@! TO.N,Net-(S3-PadMH2)*
X130782000Y-120727000D03*
G04 #@! TO.P,S3,MH1*
G04 #@! TO.N,Net-(S3-PadMH1)*
X130782000Y-114477000D03*
G04 #@! TD*
D19*
G04 #@! TO.P,U1,28*
G04 #@! TO.N,/3.3V*
X137370000Y-113868000D03*
G04 #@! TO.P,U1,27*
G04 #@! TO.N,/D-*
X137370000Y-112768000D03*
G04 #@! TO.P,U1,26*
G04 #@! TO.N,/D+*
X137370000Y-111668000D03*
G04 #@! TO.P,U1,25*
G04 #@! TO.N,/PRESS_INT*
X137370000Y-110568000D03*
G04 #@! TO.P,U1,24*
G04 #@! TO.N,/SCK*
X137370000Y-109468000D03*
G04 #@! TO.P,U1,23*
G04 #@! TO.N,/RESET*
X137370000Y-108368000D03*
G04 #@! TO.P,U1,22*
G04 #@! TO.N,/BMX_INT1*
X137370000Y-107268000D03*
G04 #@! TO.P,U1,21*
G04 #@! TO.N,/CS*
X137370000Y-106168000D03*
G04 #@! TO.P,U1,20*
G04 #@! TO.N,/BMX_INT2*
X137370000Y-105068000D03*
G04 #@! TO.P,U1,19*
G04 #@! TO.N,Net-(U1-Pad19)*
X137370000Y-103968000D03*
G04 #@! TO.P,U1,18*
G04 #@! TO.N,/SWDIO*
X137370000Y-102868000D03*
G04 #@! TO.P,U1,17*
G04 #@! TO.N,/SWDCLK*
X137370000Y-101768000D03*
G04 #@! TO.P,U1,16*
G04 #@! TO.N,/SD_DETECT*
X137370000Y-100668000D03*
G04 #@! TO.P,U1,15*
G04 #@! TO.N,Net-(P1-Pad1)*
X137370000Y-99568000D03*
G04 #@! TO.P,U1,14*
G04 #@! TO.N,/3.3V*
X153770000Y-113868000D03*
G04 #@! TO.P,U1,13*
G04 #@! TO.N,GND*
X153770000Y-112768000D03*
G04 #@! TO.P,U1,12*
G04 #@! TO.N,Net-(U1-Pad12)*
X153770000Y-111668000D03*
G04 #@! TO.P,U1,11*
G04 #@! TO.N,/BTN*
X153770000Y-110568000D03*
G04 #@! TO.P,U1,10*
G04 #@! TO.N,/MOSI*
X153770000Y-109468000D03*
G04 #@! TO.P,U1,9*
G04 #@! TO.N,Net-(D4-Pad2)*
X153770000Y-108368000D03*
G04 #@! TO.P,U1,8*
G04 #@! TO.N,/MISO*
X153770000Y-107268000D03*
G04 #@! TO.P,U1,7*
G04 #@! TO.N,Net-(U1-Pad7)*
X153770000Y-106168000D03*
G04 #@! TO.P,U1,6*
G04 #@! TO.N,/BAT_SENS*
X153770000Y-105068000D03*
G04 #@! TO.P,U1,5*
G04 #@! TO.N,/Tx*
X153770000Y-103968000D03*
G04 #@! TO.P,U1,4*
G04 #@! TO.N,/Rx*
X153770000Y-102868000D03*
G04 #@! TO.P,U1,3*
G04 #@! TO.N,/SDA*
X153770000Y-101768000D03*
G04 #@! TO.P,U1,2*
G04 #@! TO.N,/SCL*
X153770000Y-100668000D03*
G04 #@! TO.P,U1,1*
G04 #@! TO.N,GND*
X153770000Y-99568000D03*
G04 #@! TD*
D20*
G04 #@! TO.N,GND*
X133604000Y-106553000D03*
D21*
X146812000Y-130175000D03*
X145923000Y-128270000D03*
X152273000Y-128143000D03*
X154813000Y-128397000D03*
X154051000Y-130175000D03*
D20*
X142621000Y-127381000D03*
D21*
X160401000Y-131572000D03*
X160274000Y-123825000D03*
D20*
X142748000Y-123063000D03*
X139192000Y-123063000D03*
X135509000Y-123571000D03*
X130937000Y-123825000D03*
X130937000Y-129032000D03*
X143256000Y-119507000D03*
X141732000Y-118237000D03*
X137541000Y-115189000D03*
X157353000Y-109601000D03*
X138049000Y-119761000D03*
X147701000Y-117221000D03*
D21*
X148450387Y-117236200D03*
D20*
X154940000Y-120015000D03*
X155067000Y-115570000D03*
X152273000Y-112776000D03*
X138430000Y-115189000D03*
X142620997Y-128483997D03*
D21*
X149859996Y-118872000D03*
X152696851Y-123694182D03*
X152721010Y-117221000D03*
D20*
X142621000Y-126492000D03*
D21*
X159984907Y-121376907D03*
D20*
X146050000Y-114808000D03*
X147955000Y-114935000D03*
X155342887Y-99341134D03*
X146812000Y-99060000D03*
X149352000Y-99060000D03*
D21*
X146685000Y-109093000D03*
X145923000Y-109093000D03*
X144145000Y-107696000D03*
X144144996Y-107061000D03*
X144144992Y-105918000D03*
D20*
G04 #@! TO.N,/VBUS*
X139319000Y-122047000D03*
X141351000Y-121158000D03*
X152274035Y-132182971D03*
X148461965Y-132182971D03*
X148209000Y-127889000D03*
X154813000Y-127546997D03*
X139319000Y-121285000D03*
D21*
G04 #@! TO.N,/VBAT*
X143256000Y-116586000D03*
X140081000Y-125095000D03*
X141351000Y-125095000D03*
X140716000Y-125095000D03*
X141986000Y-125095000D03*
X142621000Y-125095000D03*
X139445936Y-125143032D03*
X138684000Y-126111010D03*
X138683994Y-126873006D03*
X138684000Y-127493956D03*
X144559969Y-125095260D03*
X143383000Y-124714000D03*
X143891000Y-125095000D03*
X142875000Y-124079000D03*
D20*
G04 #@! TO.N,/3.3V*
X152273000Y-113919000D03*
D21*
X154940000Y-122174000D03*
D20*
X138684000Y-113919000D03*
X133604000Y-107569000D03*
X157353000Y-108585000D03*
X138049000Y-120761003D03*
D21*
X141478000Y-120015000D03*
X149046582Y-118872004D03*
X150559999Y-118872000D03*
X148463000Y-120269000D03*
D20*
X148459989Y-124110840D03*
X147447001Y-124079001D03*
X149479000Y-124079000D03*
X141986000Y-100711000D03*
X148717000Y-109093000D03*
X143383000Y-109093000D03*
X145034000Y-109093000D03*
X147193000Y-105156000D03*
X147700998Y-109093000D03*
D21*
G04 #@! TO.N,/D-*
X149987000Y-126111000D03*
G04 #@! TO.N,/D+*
X150686887Y-126124179D03*
G04 #@! TO.N,/STAT*
X158369000Y-121539000D03*
X158115000Y-115570000D03*
D20*
X154051000Y-125476000D03*
D21*
X157988000Y-123571000D03*
D20*
G04 #@! TO.N,/SCL*
X155194000Y-100330000D03*
X142240000Y-104902000D03*
X146050000Y-105156008D03*
G04 #@! TO.N,/SDA*
X155511835Y-103822156D03*
X144902340Y-105160660D03*
D21*
G04 #@! TO.N,/RESET*
X150241000Y-122047000D03*
X133604000Y-130556000D03*
D20*
X133694010Y-113532205D03*
D21*
G04 #@! TO.N,/PRESS_INT*
X149352000Y-120396000D03*
G04 #@! TO.N,/BTN*
X156591000Y-116713000D03*
X154051000Y-126746000D03*
X158750000Y-123698000D03*
D20*
G04 #@! TO.N,/SWDIO*
X138974990Y-102997000D03*
G04 #@! TO.N,/SWDCLK*
X138974990Y-101854000D03*
G04 #@! TO.N,/Tx*
X151115433Y-102251095D03*
G04 #@! TO.N,/Rx*
X151130000Y-103378000D03*
G04 #@! TO.N,/BAT_SENS*
X152273000Y-105156000D03*
D21*
G04 #@! TO.N,Net-(J1-PadA5)*
X148986674Y-130039703D03*
X147574000Y-128524000D03*
G04 #@! TO.N,Net-(D4-Pad2)*
X157353000Y-111379000D03*
D20*
G04 #@! TO.N,/CS*
X154051000Y-124333000D03*
X147447000Y-125095000D03*
G04 #@! TO.N,/SD_DETECT*
X139700000Y-113919000D03*
X139700000Y-109474000D03*
G04 #@! TO.N,/VIN*
X142240000Y-116586000D03*
X139446000Y-115189000D03*
X134575998Y-117729000D03*
D21*
G04 #@! TO.N,/BMX_INT2*
X138938000Y-105029000D03*
G04 #@! TO.N,/BMX_INT1*
X139090587Y-108864587D03*
G04 #@! TD*
D22*
G04 #@! TO.N,GND*
X155071000Y-119884000D02*
X154940000Y-120015000D01*
X156460000Y-119884000D02*
X155071000Y-119884000D01*
X152281000Y-112768000D02*
X152273000Y-112776000D01*
X153770000Y-112768000D02*
X152281000Y-112768000D01*
X138176000Y-115443000D02*
X138430000Y-115189000D01*
X138176000Y-117544000D02*
X138176000Y-115443000D01*
X153770000Y-99568000D02*
X155116021Y-99568000D01*
X155116021Y-99568000D02*
X155342887Y-99341134D01*
G04 #@! TO.N,/VBAT*
X138683994Y-127493950D02*
X138684000Y-127493956D01*
G04 #@! TO.N,/3.3V*
X152324000Y-113868000D02*
X152273000Y-113919000D01*
X153770000Y-113868000D02*
X152324000Y-113868000D01*
X155030000Y-122084000D02*
X154940000Y-122174000D01*
X156460000Y-122084000D02*
X155030000Y-122084000D01*
D23*
X138633000Y-113868000D02*
X138684000Y-113919000D01*
X137370000Y-113868000D02*
X138633000Y-113868000D01*
G04 #@! TO.N,/D-*
X149319335Y-114331535D02*
X150105354Y-115117554D01*
X145987697Y-111261634D02*
X146019366Y-111293303D01*
X150105354Y-115117554D02*
X150105354Y-117603353D01*
X145949776Y-111237807D02*
X145987697Y-111261634D01*
X145863000Y-111218000D02*
X145907504Y-111223015D01*
X145818495Y-111223015D02*
X145863000Y-111218000D01*
X146409712Y-112382350D02*
X146539159Y-112427645D01*
X145776223Y-111237807D02*
X145818495Y-111223015D01*
X147693825Y-114112331D02*
X147827529Y-114081813D01*
X145663000Y-111418000D02*
X145668014Y-111373496D01*
X148513851Y-113587757D02*
X148557514Y-113597723D01*
X145647644Y-113191840D02*
X145663000Y-113055559D01*
X150105354Y-125126702D02*
X150105354Y-125992646D01*
X145432409Y-113534384D02*
X145529384Y-113437409D01*
X147430800Y-112725841D02*
X147139076Y-113017564D01*
X144709712Y-113607349D02*
X144839159Y-113652644D01*
X144378355Y-113191840D02*
X144423650Y-113321287D01*
X144249776Y-111237807D02*
X144287697Y-111261634D01*
X147951091Y-114022309D02*
X148058314Y-113936802D01*
X144118495Y-111223015D02*
X144163000Y-111218000D01*
X144006633Y-111293303D02*
X144038302Y-111261634D01*
X147478156Y-112650476D02*
X147458724Y-112690826D01*
X143982806Y-111331224D02*
X144006633Y-111293303D01*
X143968014Y-111373496D02*
X143982806Y-111331224D01*
X143902349Y-113321287D02*
X143947644Y-113191840D01*
X143829384Y-113437409D02*
X143902349Y-113321287D01*
X143486840Y-113652644D02*
X143616287Y-113607349D01*
X143009712Y-113607349D02*
X143139159Y-113652644D01*
X148058314Y-113936802D02*
X148350037Y-113645078D01*
X146963547Y-113519197D02*
X146994065Y-113652901D01*
X146963547Y-113382053D02*
X146963547Y-113519197D01*
X146994065Y-113248349D02*
X146963547Y-113382053D01*
X147430800Y-112442999D02*
X147458724Y-112478013D01*
X147488122Y-112562027D02*
X147488122Y-112606813D01*
X147556681Y-114112331D02*
X147693825Y-114112331D01*
X146123650Y-112096288D02*
X146196615Y-112212410D01*
X147139076Y-113883686D02*
X147192192Y-113936802D01*
X148557514Y-113597723D02*
X148597864Y-113617155D01*
X146196615Y-112212410D02*
X146293590Y-112309385D01*
X147827529Y-114081813D02*
X147951091Y-114022309D01*
X150105354Y-125992646D02*
X149987000Y-126111000D01*
X145907504Y-111223015D02*
X145949776Y-111237807D01*
X142893590Y-113534384D02*
X143009712Y-113607349D01*
X146063000Y-111830560D02*
X146078355Y-111966841D01*
X142268014Y-111373496D02*
X142282806Y-111331224D01*
X146019366Y-111293303D02*
X146043193Y-111331224D01*
X145738302Y-111261634D02*
X145776223Y-111237807D01*
X144207504Y-111223015D02*
X144249776Y-111237807D01*
X145663000Y-113055559D02*
X145663000Y-111418000D01*
X144287697Y-111261634D02*
X144319366Y-111293303D01*
X147192192Y-113936802D02*
X147299415Y-114022309D01*
X145602349Y-113321287D02*
X145647644Y-113191840D01*
X147458724Y-112690826D02*
X147430800Y-112725841D01*
X144975440Y-113668000D02*
X145050559Y-113668000D01*
X145668014Y-111373496D02*
X145682806Y-111331224D01*
X148597864Y-113617155D02*
X148632879Y-113645078D01*
X144163000Y-111218000D02*
X144207504Y-111223015D01*
X146293590Y-112309385D02*
X146409712Y-112382350D01*
X145706633Y-111293303D02*
X145738302Y-111261634D01*
X147422977Y-114081813D02*
X147556681Y-114112331D01*
X143139159Y-113652644D02*
X143275440Y-113668000D01*
X150105354Y-117603353D02*
X151110000Y-118607999D01*
X145050559Y-113668000D02*
X145186840Y-113652644D01*
X146994065Y-113652901D02*
X147053569Y-113776463D01*
X143350559Y-113668000D02*
X143486840Y-113652644D01*
X143275440Y-113668000D02*
X143350559Y-113668000D01*
X144363000Y-113055559D02*
X144378355Y-113191840D01*
X148350037Y-113645078D02*
X148385051Y-113617155D01*
X144357985Y-111373496D02*
X144363000Y-111418000D01*
X145316287Y-113607349D02*
X145432409Y-113534384D01*
X147478156Y-112518364D02*
X147488122Y-112562027D01*
X144593590Y-113534384D02*
X144709712Y-113607349D01*
X148469065Y-113587757D02*
X148513851Y-113587757D01*
X144319366Y-111293303D02*
X144343193Y-111331224D01*
X151110000Y-118607999D02*
X151110000Y-124122056D01*
X142796615Y-113437409D02*
X142893590Y-113534384D01*
X143947644Y-113191840D02*
X143963000Y-113055559D01*
X144343193Y-111331224D02*
X144357985Y-111373496D01*
X147299415Y-114022309D02*
X147422977Y-114081813D01*
X147139076Y-113017564D02*
X147053569Y-113124787D01*
X143616287Y-113607349D02*
X143732409Y-113534384D01*
X148632879Y-113645078D02*
X149319335Y-114331535D01*
X143732409Y-113534384D02*
X143829384Y-113437409D01*
X147053569Y-113776463D02*
X147139076Y-113883686D01*
X145682806Y-111331224D02*
X145706633Y-111293303D01*
X147053569Y-113124787D02*
X146994065Y-113248349D01*
X142723650Y-113321287D02*
X142796615Y-113437409D01*
X145186840Y-113652644D02*
X145316287Y-113607349D01*
X148385051Y-113617155D02*
X148425402Y-113597723D01*
X144076223Y-111237807D02*
X144118495Y-111223015D01*
X144038302Y-111261634D02*
X144076223Y-111237807D01*
X145529384Y-113437409D02*
X145602349Y-113321287D01*
X144363000Y-111418000D02*
X144363000Y-113055559D01*
X147458724Y-112478013D02*
X147478156Y-112518364D01*
X148425402Y-113597723D02*
X148469065Y-113587757D01*
X144496615Y-113437409D02*
X144593590Y-113534384D01*
X146078355Y-111966841D02*
X146123650Y-112096288D01*
X143963000Y-113055559D02*
X143963000Y-111418000D01*
X146057985Y-111373496D02*
X146063000Y-111418000D01*
X144423650Y-113321287D02*
X144496615Y-113437409D01*
X147488122Y-112606813D02*
X147478156Y-112650476D01*
X144839159Y-113652644D02*
X144975440Y-113668000D01*
X146675440Y-112443000D02*
X147430800Y-112442999D01*
X143963000Y-111418000D02*
X143968014Y-111373496D01*
X142418495Y-111223015D02*
X142463000Y-111218000D01*
X142463000Y-111218000D02*
X142507504Y-111223015D01*
X142663000Y-111418000D02*
X142663000Y-113055559D01*
X142663000Y-113055559D02*
X142678355Y-113191840D01*
X142619366Y-111293303D02*
X142643193Y-111331224D01*
X142282806Y-111331224D02*
X142306633Y-111293303D01*
X142549776Y-111237807D02*
X142587697Y-111261634D01*
X142657985Y-111373496D02*
X142663000Y-111418000D01*
X142643193Y-111331224D02*
X142657985Y-111373496D01*
X142306633Y-111293303D02*
X142338302Y-111261634D01*
X146043193Y-111331224D02*
X146057985Y-111373496D01*
X142507504Y-111223015D02*
X142549776Y-111237807D01*
X137370000Y-112768000D02*
X138645001Y-112768000D01*
X138645001Y-112768000D02*
X138970001Y-112443000D01*
X138970001Y-112443000D02*
X139213000Y-112443000D01*
X139213000Y-112443000D02*
X139224126Y-112444253D01*
X139224126Y-112444253D02*
X139234694Y-112447951D01*
X139234694Y-112447951D02*
X139244174Y-112453908D01*
X139244174Y-112453908D02*
X139252091Y-112461825D01*
X139252091Y-112461825D02*
X139258048Y-112471305D01*
X139258048Y-112471305D02*
X139261746Y-112481873D01*
X142587697Y-111261634D02*
X142619366Y-111293303D01*
X139261746Y-112481873D02*
X139263000Y-112493000D01*
X139263000Y-112493000D02*
X139263000Y-112746891D01*
X139263000Y-112746891D02*
X139274811Y-112851723D01*
X139274811Y-112851723D02*
X139309654Y-112951297D01*
X139309654Y-112951297D02*
X139365781Y-113040622D01*
X139365781Y-113040622D02*
X139440377Y-113115218D01*
X139440377Y-113115218D02*
X139529702Y-113171345D01*
X139529702Y-113171345D02*
X139629276Y-113206188D01*
X139629276Y-113206188D02*
X139734108Y-113218000D01*
X146063000Y-111418000D02*
X146063000Y-111830560D01*
X142678355Y-113191840D02*
X142723650Y-113321287D01*
X139734108Y-113218000D02*
X140091891Y-113218000D01*
X140091891Y-113218000D02*
X140196723Y-113206188D01*
X140196723Y-113206188D02*
X140296297Y-113171345D01*
X140296297Y-113171345D02*
X140385622Y-113115218D01*
X140385622Y-113115218D02*
X140460218Y-113040622D01*
X140460218Y-113040622D02*
X140516345Y-112951297D01*
X140516345Y-112951297D02*
X140551188Y-112851723D01*
X140551188Y-112851723D02*
X140563000Y-112746891D01*
X140563000Y-112746891D02*
X140563000Y-111418000D01*
X140563000Y-111418000D02*
X140568014Y-111373496D01*
X146539159Y-112427645D02*
X146675440Y-112443000D01*
X142338302Y-111261634D02*
X142376223Y-111237807D01*
X140568014Y-111373496D02*
X140582806Y-111331224D01*
X140582806Y-111331224D02*
X140606633Y-111293303D01*
X140606633Y-111293303D02*
X140638302Y-111261634D01*
X140638302Y-111261634D02*
X140676223Y-111237807D01*
X140676223Y-111237807D02*
X140718495Y-111223015D01*
X140718495Y-111223015D02*
X140763000Y-111218000D01*
X140763000Y-111218000D02*
X140807504Y-111223015D01*
X140807504Y-111223015D02*
X140849776Y-111237807D01*
X140849776Y-111237807D02*
X140887697Y-111261634D01*
X140887697Y-111261634D02*
X140919366Y-111293303D01*
X140919366Y-111293303D02*
X140943193Y-111331224D01*
X151110000Y-124122056D02*
X150105354Y-125126702D01*
X142376223Y-111237807D02*
X142418495Y-111223015D01*
X140943193Y-111331224D02*
X140957985Y-111373496D01*
X140957985Y-111373496D02*
X140963000Y-111418000D01*
X140963000Y-111418000D02*
X140963000Y-113055559D01*
X140963000Y-113055559D02*
X140978355Y-113191840D01*
X140978355Y-113191840D02*
X141023650Y-113321287D01*
X141023650Y-113321287D02*
X141096615Y-113437409D01*
X141096615Y-113437409D02*
X141193590Y-113534384D01*
X141193590Y-113534384D02*
X141309712Y-113607349D01*
X141309712Y-113607349D02*
X141439159Y-113652644D01*
X141439159Y-113652644D02*
X141575440Y-113668000D01*
X141575440Y-113668000D02*
X141650559Y-113668000D01*
X141650559Y-113668000D02*
X141786840Y-113652644D01*
X141786840Y-113652644D02*
X141916287Y-113607349D01*
X141916287Y-113607349D02*
X142032409Y-113534384D01*
X142032409Y-113534384D02*
X142129384Y-113437409D01*
X142129384Y-113437409D02*
X142202349Y-113321287D01*
X142202349Y-113321287D02*
X142247644Y-113191840D01*
X142247644Y-113191840D02*
X142263000Y-113055559D01*
X142263000Y-113055559D02*
X142263000Y-111418000D01*
X142263000Y-111418000D02*
X142268014Y-111373496D01*
G04 #@! TO.N,/D+*
X145443590Y-110901616D02*
X145559712Y-110828651D01*
X145346615Y-110998591D02*
X145443590Y-110901616D01*
X145213000Y-113018000D02*
X145213000Y-111380441D01*
X145137697Y-113174366D02*
X145169366Y-113142697D01*
X145013000Y-113218000D02*
X145057504Y-113212985D01*
X144968495Y-113212985D02*
X145013000Y-113218000D01*
X144926223Y-113198193D02*
X144968495Y-113212985D01*
X144888302Y-113174366D02*
X144926223Y-113198193D01*
X144856633Y-113142697D02*
X144888302Y-113174366D01*
X144832806Y-113104776D02*
X144856633Y-113142697D01*
X144818014Y-113062504D02*
X144832806Y-113104776D01*
X144813000Y-113018000D02*
X144818014Y-113062504D01*
X144813000Y-111380441D02*
X144813000Y-113018000D01*
X144797644Y-111244160D02*
X144813000Y-111380441D01*
X144679384Y-110998591D02*
X144752349Y-111114713D01*
X144582409Y-110901616D02*
X144679384Y-110998591D01*
X144466287Y-110828651D02*
X144582409Y-110901616D01*
X144336840Y-110783356D02*
X144466287Y-110828651D01*
X144200559Y-110768000D02*
X144336840Y-110783356D01*
X144125440Y-110768000D02*
X144200559Y-110768000D01*
X143989159Y-110783356D02*
X144125440Y-110768000D01*
X143859712Y-110828651D02*
X143989159Y-110783356D01*
X143743590Y-110901616D02*
X143859712Y-110828651D01*
X143573650Y-111114713D02*
X143646615Y-110998591D01*
X143528355Y-111244160D02*
X143573650Y-111114713D01*
X143513000Y-111380441D02*
X143528355Y-111244160D01*
X143513000Y-113018000D02*
X143513000Y-111380441D01*
X143507985Y-113062504D02*
X143513000Y-113018000D01*
X143493193Y-113104776D02*
X143507985Y-113062504D01*
X143469366Y-113142697D02*
X143493193Y-113104776D01*
X143437697Y-113174366D02*
X143469366Y-113142697D01*
X143399776Y-113198193D02*
X143437697Y-113174366D01*
X143357504Y-113212985D02*
X143399776Y-113198193D01*
X143313000Y-113218000D02*
X143357504Y-113212985D01*
X143268495Y-113212985D02*
X143313000Y-113218000D01*
X143226223Y-113198193D02*
X143268495Y-113212985D01*
X143188302Y-113174366D02*
X143226223Y-113198193D01*
X143156633Y-113142697D02*
X143188302Y-113174366D01*
X143132806Y-113104776D02*
X143156633Y-113142697D01*
X143118014Y-113062504D02*
X143132806Y-113104776D01*
X143113000Y-113018000D02*
X143118014Y-113062504D01*
X143113000Y-111380441D02*
X143113000Y-113018000D01*
X143097644Y-111244160D02*
X143113000Y-111380441D01*
X143052349Y-111114713D02*
X143097644Y-111244160D01*
X142979384Y-110998591D02*
X143052349Y-111114713D01*
X142882409Y-110901616D02*
X142979384Y-110998591D01*
X142766287Y-110828651D02*
X142882409Y-110901616D01*
X142636840Y-110783356D02*
X142766287Y-110828651D01*
X142500559Y-110768000D02*
X142636840Y-110783356D01*
X142425440Y-110768000D02*
X142500559Y-110768000D01*
X142289159Y-110783356D02*
X142425440Y-110768000D01*
X142159712Y-110828651D02*
X142289159Y-110783356D01*
X142043590Y-110901616D02*
X142159712Y-110828651D01*
X141946615Y-110998591D02*
X142043590Y-110901616D01*
X141873650Y-111114713D02*
X141946615Y-110998591D01*
X141828355Y-111244160D02*
X141873650Y-111114713D01*
X140113000Y-112718000D02*
X140113000Y-111380441D01*
X145193193Y-113104776D02*
X145207985Y-113062504D01*
X140108048Y-112739694D02*
X140111746Y-112729126D01*
X139701188Y-112359276D02*
X139713000Y-112464108D01*
X143646615Y-110998591D02*
X143743590Y-110901616D01*
X140102091Y-112749174D02*
X140108048Y-112739694D01*
X145207985Y-113062504D02*
X145213000Y-113018000D01*
X140084694Y-112763048D02*
X140094174Y-112757091D01*
X139763000Y-112768000D02*
X140063000Y-112768000D01*
X139741305Y-112763048D02*
X139751873Y-112766746D01*
X140111746Y-112729126D02*
X140113000Y-112718000D01*
X139723908Y-112749174D02*
X139731825Y-112757091D01*
X137370000Y-111668000D02*
X138645001Y-111668000D01*
X145689159Y-110783356D02*
X145825440Y-110768000D01*
X139713000Y-112718000D02*
X139714253Y-112729126D01*
X138645001Y-111668000D02*
X138970001Y-111993000D01*
X138970001Y-111993000D02*
X139241891Y-111993000D01*
X139446297Y-112039654D02*
X139535622Y-112095781D01*
X139610218Y-112170377D02*
X139666345Y-112259702D01*
X139717951Y-112739694D02*
X139723908Y-112749174D01*
X139241891Y-111993000D02*
X139346723Y-112004811D01*
X145057504Y-113212985D02*
X145099776Y-113198193D01*
X139731825Y-112757091D02*
X139741305Y-112763048D01*
X139346723Y-112004811D02*
X139446297Y-112039654D01*
X139535622Y-112095781D02*
X139610218Y-112170377D01*
X139713000Y-112464108D02*
X139713000Y-112718000D01*
X141699776Y-113198193D02*
X141737697Y-113174366D01*
X145099776Y-113198193D02*
X145137697Y-113174366D01*
X140128355Y-111244160D02*
X140173650Y-111114713D01*
X145169366Y-113142697D02*
X145193193Y-113104776D01*
X140173650Y-111114713D02*
X140246615Y-110998591D01*
X144752349Y-111114713D02*
X144797644Y-111244160D01*
X140246615Y-110998591D02*
X140343590Y-110901616D01*
X140459712Y-110828651D02*
X140589159Y-110783356D01*
X141793193Y-113104776D02*
X141807985Y-113062504D01*
X140589159Y-110783356D02*
X140725440Y-110768000D01*
X140725440Y-110768000D02*
X140800559Y-110768000D01*
X141737697Y-113174366D02*
X141769366Y-113142697D01*
X140800559Y-110768000D02*
X140936840Y-110783356D01*
X140936840Y-110783356D02*
X141066287Y-110828651D01*
X141182409Y-110901616D02*
X141279384Y-110998591D01*
X141279384Y-110998591D02*
X141352349Y-111114713D01*
X145213000Y-111380441D02*
X145228355Y-111244160D01*
X141352349Y-111114713D02*
X141397644Y-111244160D01*
X141397644Y-111244160D02*
X141413000Y-111380441D01*
X141413000Y-111380441D02*
X141413000Y-113018000D01*
X141613000Y-113218000D02*
X141657504Y-113212985D01*
X141657504Y-113212985D02*
X141699776Y-113198193D01*
X141413000Y-113018000D02*
X141418014Y-113062504D01*
X145273650Y-111114713D02*
X145346615Y-110998591D01*
X141418014Y-113062504D02*
X141432806Y-113104776D01*
X145559712Y-110828651D02*
X145689159Y-110783356D01*
X141432806Y-113104776D02*
X141456633Y-113142697D01*
X141813000Y-113018000D02*
X141813000Y-111380441D01*
X141456633Y-113142697D02*
X141488302Y-113174366D01*
X145228355Y-111244160D02*
X145273650Y-111114713D01*
X141488302Y-113174366D02*
X141526223Y-113198193D01*
X141813000Y-111380441D02*
X141828355Y-111244160D01*
X141568495Y-113212985D02*
X141613000Y-113218000D01*
X141769366Y-113142697D02*
X141793193Y-113104776D01*
X141807985Y-113062504D02*
X141813000Y-113018000D01*
X145825440Y-110768000D02*
X145900559Y-110768000D01*
X145900559Y-110768000D02*
X146036840Y-110783356D01*
X146036840Y-110783356D02*
X146166287Y-110828651D01*
X146166287Y-110828651D02*
X146282409Y-110901616D01*
X146282409Y-110901616D02*
X146379384Y-110998591D01*
X146379384Y-110998591D02*
X146452349Y-111114713D01*
X146452349Y-111114713D02*
X146497644Y-111244160D01*
X141526223Y-113198193D02*
X141568495Y-113212985D01*
X146497644Y-111244160D02*
X146513000Y-111380441D01*
X146513000Y-111380441D02*
X146513000Y-111793000D01*
X146513000Y-111793000D02*
X146518014Y-111837505D01*
X146518014Y-111837505D02*
X146532806Y-111879777D01*
X146532806Y-111879777D02*
X146556633Y-111917698D01*
X146556633Y-111917698D02*
X146588302Y-111949367D01*
X146588302Y-111949367D02*
X146626223Y-111973194D01*
X146626223Y-111973194D02*
X146668495Y-111987986D01*
X146668495Y-111987986D02*
X146713000Y-111993000D01*
X146713000Y-111993000D02*
X147617200Y-111993000D01*
X147617200Y-111993000D02*
X147775557Y-112151359D01*
X147775557Y-112151359D02*
X147861064Y-112258582D01*
X139666345Y-112259702D02*
X139701188Y-112359276D01*
X147861064Y-112258582D02*
X147920568Y-112382143D01*
X147920568Y-112382143D02*
X147951086Y-112515848D01*
X147951086Y-112515848D02*
X147951086Y-112652992D01*
X147951086Y-112652992D02*
X147920568Y-112786696D01*
X147920568Y-112786696D02*
X147861064Y-112910258D01*
X147861064Y-112910258D02*
X147775557Y-113017481D01*
X147775557Y-113017481D02*
X147483833Y-113309204D01*
X147483833Y-113309204D02*
X147455910Y-113344218D01*
X147455910Y-113344218D02*
X147436478Y-113384569D01*
X147436478Y-113384569D02*
X147426512Y-113428232D01*
X147426512Y-113428232D02*
X147426512Y-113473018D01*
X147426512Y-113473018D02*
X147436478Y-113516681D01*
X140074126Y-112766746D02*
X140084694Y-112763048D01*
X147436478Y-113516681D02*
X147455910Y-113557031D01*
X147455910Y-113557031D02*
X147483833Y-113592046D01*
X147483833Y-113592046D02*
X147518847Y-113619969D01*
X147518847Y-113619969D02*
X147559198Y-113639401D01*
X147559198Y-113639401D02*
X147602861Y-113649367D01*
X147602861Y-113649367D02*
X147647647Y-113649367D01*
X147647647Y-113649367D02*
X147691310Y-113639401D01*
X147691310Y-113639401D02*
X147731660Y-113619969D01*
X147731660Y-113619969D02*
X147766675Y-113592046D01*
X139714253Y-112729126D02*
X139717951Y-112739694D01*
X147766675Y-113592046D02*
X148058398Y-113300322D01*
X148058398Y-113300322D02*
X148165621Y-113214815D01*
X140063000Y-112768000D02*
X140074126Y-112766746D01*
X148165621Y-113214815D02*
X148289183Y-113155311D01*
X148289183Y-113155311D02*
X148422887Y-113124793D01*
X148422887Y-113124793D02*
X148560031Y-113124793D01*
X148560031Y-113124793D02*
X148693735Y-113155311D01*
X148693735Y-113155311D02*
X148817297Y-113214815D01*
X148817297Y-113214815D02*
X148924520Y-113300322D01*
X148924520Y-113300322D02*
X150555354Y-114931154D01*
X150555354Y-114931154D02*
X150555354Y-117416970D01*
X150555354Y-117416970D02*
X151559991Y-118421607D01*
X151559991Y-118421607D02*
X151559991Y-124308447D01*
X140113000Y-111380441D02*
X140128355Y-111244160D01*
X151559991Y-124308447D02*
X150555354Y-125313084D01*
X150555354Y-125313084D02*
X150555354Y-125992646D01*
X150555354Y-125992646D02*
X150686887Y-126124179D01*
X139751873Y-112766746D02*
X139763000Y-112768000D01*
X140343590Y-110901616D02*
X140459712Y-110828651D01*
X141066287Y-110828651D02*
X141182409Y-110901616D01*
X140094174Y-112757091D02*
X140102091Y-112749174D01*
D24*
G04 #@! TO.N,/STAT*
X159816002Y-115570000D02*
X158115000Y-115570000D01*
X160160001Y-115913999D02*
X159816002Y-115570000D01*
X160160001Y-119747999D02*
X160160001Y-115913999D01*
X158369000Y-121539000D02*
X160160001Y-119747999D01*
D22*
X154684001Y-126109001D02*
X154051000Y-125476000D01*
X157520001Y-126109001D02*
X154684001Y-126109001D01*
X157988000Y-125641002D02*
X157520001Y-126109001D01*
X157988000Y-123571000D02*
X157988000Y-125641002D01*
G04 #@! TO.N,/SCL*
X153770000Y-100668000D02*
X154856000Y-100668000D01*
X154856000Y-100668000D02*
X155194000Y-100330000D01*
X146050000Y-104336315D02*
X146050000Y-105156008D01*
X149718315Y-100668000D02*
X146050000Y-104336315D01*
X153770000Y-100668000D02*
X149718315Y-100668000D01*
X142706342Y-104435658D02*
X145329650Y-104435658D01*
X142240000Y-104902000D02*
X142706342Y-104435658D01*
X145329650Y-104435658D02*
X146050000Y-105156008D01*
G04 #@! TO.N,/SDA*
X154870000Y-101768000D02*
X155511835Y-102409835D01*
X153770000Y-101768000D02*
X154870000Y-101768000D01*
X155511835Y-102409835D02*
X155511835Y-103822156D01*
X153528094Y-101526094D02*
X150060906Y-101526094D01*
X153770000Y-101768000D02*
X153528094Y-101526094D01*
X150060906Y-101526094D02*
X148045001Y-103541999D01*
X148045001Y-105504001D02*
X147541001Y-106008001D01*
X147541001Y-106008001D02*
X145749681Y-106008001D01*
X145749681Y-106008001D02*
X144902340Y-105160660D01*
X148045001Y-103541999D02*
X148045001Y-105504001D01*
G04 #@! TO.N,/RESET*
X134747000Y-131699000D02*
X133604000Y-130556000D01*
X141006002Y-131699000D02*
X134747000Y-131699000D01*
X148431993Y-126199009D02*
X146505993Y-126199009D01*
X150241000Y-124390002D02*
X148431993Y-126199009D01*
X146505993Y-126199009D02*
X141006002Y-131699000D01*
X150241000Y-122047000D02*
X150241000Y-124390002D01*
X137370000Y-108368000D02*
X136270000Y-108368000D01*
X133694010Y-110943990D02*
X133694010Y-113532205D01*
X136270000Y-108368000D02*
X133694010Y-110943990D01*
G04 #@! TO.N,/PRESS_INT*
X148844000Y-120904000D02*
X149352000Y-120396000D01*
X143833998Y-120904000D02*
X148844000Y-120904000D01*
X140949997Y-123788001D02*
X143833998Y-120904000D01*
X136270000Y-110568000D02*
X134419011Y-112418989D01*
X138843999Y-123788001D02*
X140949997Y-123788001D01*
X133850997Y-118794999D02*
X138843999Y-123788001D01*
X133850997Y-114448220D02*
X133850997Y-118794999D01*
X134419011Y-113880206D02*
X133850997Y-114448220D01*
X134419011Y-112418989D02*
X134419011Y-113880206D01*
X137370000Y-110568000D02*
X136270000Y-110568000D01*
G04 #@! TO.N,/BTN*
X156591000Y-112653998D02*
X156591000Y-116713000D01*
X154505002Y-110568000D02*
X156591000Y-112653998D01*
X153770000Y-110568000D02*
X154505002Y-110568000D01*
X158750000Y-125515412D02*
X158750000Y-123698000D01*
X157519412Y-126746000D02*
X158750000Y-125515412D01*
X154051000Y-126746000D02*
X157519412Y-126746000D01*
G04 #@! TO.N,/SWDIO*
X138845990Y-102868000D02*
X138974990Y-102997000D01*
X137370000Y-102868000D02*
X138845990Y-102868000D01*
G04 #@! TO.N,/SWDCLK*
X138888990Y-101768000D02*
X138974990Y-101854000D01*
X137370000Y-101768000D02*
X138888990Y-101768000D01*
G04 #@! TO.N,/Tx*
X153770000Y-103968000D02*
X153634999Y-104103001D01*
X153634999Y-104103001D02*
X150781999Y-104103001D01*
X150781999Y-104103001D02*
X150404999Y-103726001D01*
X150404999Y-103726001D02*
X150404999Y-102961529D01*
X150404999Y-102961529D02*
X151115433Y-102251095D01*
G04 #@! TO.N,/Rx*
X151640000Y-102868000D02*
X151130000Y-103378000D01*
X153770000Y-102868000D02*
X151640000Y-102868000D01*
G04 #@! TO.N,/BAT_SENS*
X153682000Y-105156000D02*
X153770000Y-105068000D01*
X152273000Y-105156000D02*
X153682000Y-105156000D01*
G04 #@! TO.N,Net-(J1-PadA5)*
X148986674Y-129936674D02*
X147574000Y-128524000D01*
X148986674Y-130039703D02*
X148986674Y-129936674D01*
G04 #@! TO.N,Net-(D4-Pad2)*
X154870000Y-108368000D02*
X157353000Y-110851000D01*
X157353000Y-110851000D02*
X157353000Y-111379000D01*
X153770000Y-108368000D02*
X154870000Y-108368000D01*
G04 #@! TO.N,/CS*
X155811000Y-124333000D02*
X155860000Y-124284000D01*
X154051000Y-124333000D02*
X155811000Y-124333000D01*
X132969000Y-109469000D02*
X132969000Y-119379614D01*
X136270000Y-106168000D02*
X132969000Y-109469000D01*
X138870999Y-125281613D02*
X138870999Y-125419013D01*
X132969000Y-119379614D02*
X138870999Y-125281613D01*
X138870999Y-125419013D02*
X139200985Y-125748999D01*
X146793001Y-125748999D02*
X147447000Y-125095000D01*
X139200985Y-125748999D02*
X146793001Y-125748999D01*
X137370000Y-106168000D02*
X136270000Y-106168000D01*
G04 #@! TO.N,/MOSI*
X159239001Y-122936000D02*
X156508000Y-122936000D01*
X156508000Y-122936000D02*
X156260000Y-123184000D01*
X160635011Y-121539990D02*
X159239001Y-122936000D01*
X160635011Y-115717244D02*
X160635011Y-121539990D01*
X154385767Y-109468000D02*
X160635011Y-115717244D01*
X153770000Y-109468000D02*
X154385767Y-109468000D01*
G04 #@! TO.N,/SCK*
X138470000Y-109468000D02*
X137370000Y-109468000D01*
X139201001Y-110199001D02*
X138470000Y-109468000D01*
X146775001Y-110199001D02*
X139201001Y-110199001D01*
X152146000Y-115570000D02*
X146775001Y-110199001D01*
X152146000Y-118294002D02*
X152146000Y-115570000D01*
X154835998Y-120984000D02*
X152146000Y-118294002D01*
X156260000Y-120984000D02*
X154835998Y-120984000D01*
G04 #@! TO.N,/MISO*
X152670000Y-107268000D02*
X153770000Y-107268000D01*
X151511000Y-108427000D02*
X152670000Y-107268000D01*
X151511000Y-114298589D02*
X151511000Y-108427000D01*
X152596011Y-115383600D02*
X151511000Y-114298589D01*
X152596011Y-116005013D02*
X152596011Y-115383600D01*
X155374998Y-118784000D02*
X152596011Y-116005013D01*
X156260000Y-118784000D02*
X155374998Y-118784000D01*
G04 #@! TO.N,/SD_DETECT*
X141514999Y-115733999D02*
X139700000Y-113919000D01*
X141514999Y-116934001D02*
X141514999Y-115733999D01*
X143074998Y-118494000D02*
X141514999Y-116934001D01*
X145710000Y-118494000D02*
X143074998Y-118494000D01*
X139146997Y-100668000D02*
X137370000Y-100668000D01*
X139700000Y-101221003D02*
X139146997Y-100668000D01*
X139700000Y-109474000D02*
X139700000Y-101221003D01*
G04 #@! TO.N,Net-(P1-Pad1)*
X135890000Y-100076000D02*
X136398000Y-99568000D01*
X136398000Y-99568000D02*
X137370000Y-99568000D01*
X135890000Y-102743000D02*
X135890000Y-100076000D01*
X132518990Y-106114010D02*
X135890000Y-102743000D01*
X132518990Y-123786990D02*
X132518990Y-106114010D01*
X138176000Y-129444000D02*
X132518990Y-123786990D01*
G04 #@! TO.N,/BMX_INT2*
X137409000Y-105029000D02*
X137370000Y-105068000D01*
X138938000Y-105029000D02*
X137409000Y-105029000D01*
G04 #@! TO.N,/BMX_INT1*
X138105002Y-107268000D02*
X137370000Y-107268000D01*
X139090587Y-108253585D02*
X138105002Y-107268000D01*
X139090587Y-108864587D02*
X139090587Y-108253585D01*
G04 #@! TD*
D25*
G04 #@! TO.N,GND*
X154460626Y-121324220D02*
X154476471Y-121343527D01*
X154553519Y-121406759D01*
X154640246Y-121453116D01*
X154641423Y-121453745D01*
X154736805Y-121482678D01*
X154835998Y-121492448D01*
X154860852Y-121490000D01*
X154894011Y-121490000D01*
X154906299Y-121530508D01*
X154912976Y-121543000D01*
X154877852Y-121543000D01*
X154755944Y-121567249D01*
X154641109Y-121614815D01*
X154537761Y-121683870D01*
X154449870Y-121771761D01*
X154380815Y-121875109D01*
X154333249Y-121989944D01*
X154309000Y-122111852D01*
X154309000Y-122236148D01*
X154333249Y-122358056D01*
X154380815Y-122472891D01*
X154449870Y-122576239D01*
X154537761Y-122664130D01*
X154641109Y-122733185D01*
X154755944Y-122780751D01*
X154877157Y-122804862D01*
X154877157Y-123501157D01*
X154860000Y-123501157D01*
X154785311Y-123508513D01*
X154713492Y-123530299D01*
X154647304Y-123565678D01*
X154589289Y-123613289D01*
X154541678Y-123671304D01*
X154521884Y-123708334D01*
X154420942Y-123640887D01*
X154278809Y-123582013D01*
X154127922Y-123552000D01*
X153974078Y-123552000D01*
X153823191Y-123582013D01*
X153681058Y-123640887D01*
X153553141Y-123726358D01*
X153444358Y-123835141D01*
X153358887Y-123963058D01*
X153300013Y-124105191D01*
X153270000Y-124256078D01*
X153270000Y-124409922D01*
X153300013Y-124560809D01*
X153358887Y-124702942D01*
X153444358Y-124830859D01*
X153517999Y-124904500D01*
X153444358Y-124978141D01*
X153358887Y-125106058D01*
X153300013Y-125248191D01*
X153270000Y-125399078D01*
X153270000Y-125552922D01*
X153300013Y-125703809D01*
X153358887Y-125845942D01*
X153444358Y-125973859D01*
X153553141Y-126082642D01*
X153681058Y-126168113D01*
X153742197Y-126193438D01*
X153648761Y-126255870D01*
X153560870Y-126343761D01*
X153491815Y-126447109D01*
X153444249Y-126561944D01*
X153420000Y-126683852D01*
X153420000Y-126808148D01*
X153444249Y-126930056D01*
X153491815Y-127044891D01*
X153560870Y-127148239D01*
X153648761Y-127236130D01*
X153752109Y-127305185D01*
X153866944Y-127352751D01*
X153988852Y-127377000D01*
X154050514Y-127377000D01*
X154032000Y-127470075D01*
X154032000Y-127623919D01*
X154062013Y-127774806D01*
X154120887Y-127916939D01*
X154206358Y-128044856D01*
X154315141Y-128153639D01*
X154443058Y-128239110D01*
X154585191Y-128297984D01*
X154736078Y-128327997D01*
X154889922Y-128327997D01*
X155040809Y-128297984D01*
X155182942Y-128239110D01*
X155310859Y-128153639D01*
X155419642Y-128044856D01*
X155505113Y-127916939D01*
X155563987Y-127774806D01*
X155594000Y-127623919D01*
X155594000Y-127470075D01*
X155563987Y-127319188D01*
X155536157Y-127252000D01*
X157494566Y-127252000D01*
X157519412Y-127254447D01*
X157544258Y-127252000D01*
X157544266Y-127252000D01*
X157618605Y-127244678D01*
X157713987Y-127215745D01*
X157801891Y-127168759D01*
X157878939Y-127105527D01*
X157894788Y-127086215D01*
X159090220Y-125890784D01*
X159109527Y-125874939D01*
X159172759Y-125797891D01*
X159219745Y-125709987D01*
X159226948Y-125686242D01*
X159248678Y-125614606D01*
X159251025Y-125590775D01*
X159256000Y-125540266D01*
X159256000Y-125540259D01*
X159258447Y-125515413D01*
X159256000Y-125490567D01*
X159256000Y-124076488D01*
X159309185Y-123996891D01*
X159356751Y-123882056D01*
X159381000Y-123760148D01*
X159381000Y-123635852D01*
X159356751Y-123513944D01*
X159324478Y-123436029D01*
X159338194Y-123434678D01*
X159433576Y-123405745D01*
X159521480Y-123358759D01*
X159598528Y-123295527D01*
X159614377Y-123276215D01*
X160630001Y-122260592D01*
X160630001Y-128961157D01*
X158910000Y-128961157D01*
X158835311Y-128968513D01*
X158763492Y-128990299D01*
X158697304Y-129025678D01*
X158639289Y-129073289D01*
X158591678Y-129131304D01*
X158556299Y-129197492D01*
X158534513Y-129269311D01*
X158527157Y-129344000D01*
X158527157Y-130744000D01*
X158534513Y-130818689D01*
X158556299Y-130890508D01*
X158591678Y-130956696D01*
X158639289Y-131014711D01*
X158697304Y-131062322D01*
X158763492Y-131097701D01*
X158835311Y-131119487D01*
X158910000Y-131126843D01*
X160630001Y-131126843D01*
X160630001Y-132627233D01*
X160479819Y-132402470D01*
X160078530Y-132001181D01*
X159606665Y-131685891D01*
X159082357Y-131468715D01*
X158525754Y-131358000D01*
X157958246Y-131358000D01*
X157401643Y-131468715D01*
X156877335Y-131685891D01*
X156405470Y-132001181D01*
X156004181Y-132402470D01*
X155688891Y-132874335D01*
X155471715Y-133398643D01*
X155361000Y-133955246D01*
X155361000Y-134522754D01*
X155406046Y-134749215D01*
X155313975Y-134637025D01*
X155179824Y-134526932D01*
X155026774Y-134445125D01*
X154860705Y-134394748D01*
X154688000Y-134377738D01*
X154515294Y-134394748D01*
X154349225Y-134445125D01*
X154196175Y-134526932D01*
X154062025Y-134637025D01*
X153951932Y-134771176D01*
X153870125Y-134924226D01*
X153819748Y-135090295D01*
X153807000Y-135219728D01*
X153807001Y-136306273D01*
X153819749Y-136435706D01*
X153870126Y-136601775D01*
X153883609Y-136627000D01*
X146852392Y-136627000D01*
X146865875Y-136601775D01*
X146916252Y-136435706D01*
X146929000Y-136306273D01*
X146929000Y-135219727D01*
X146916252Y-135090294D01*
X146865875Y-134924225D01*
X146784068Y-134771175D01*
X146673975Y-134637025D01*
X146539824Y-134526932D01*
X146386774Y-134445125D01*
X146220705Y-134394748D01*
X146048000Y-134377738D01*
X145875294Y-134394748D01*
X145709225Y-134445125D01*
X145556175Y-134526932D01*
X145422025Y-134637025D01*
X145311932Y-134771176D01*
X145230125Y-134924226D01*
X145179748Y-135090295D01*
X145167000Y-135219728D01*
X145167001Y-136306273D01*
X145179749Y-136435706D01*
X145230126Y-136601775D01*
X145243609Y-136627000D01*
X144932000Y-136627000D01*
X144932000Y-135147941D01*
X144933964Y-135128000D01*
X144926125Y-135048410D01*
X144902910Y-134971879D01*
X144865210Y-134901347D01*
X144814474Y-134839526D01*
X144752653Y-134788790D01*
X144682121Y-134751090D01*
X144605590Y-134727875D01*
X144545941Y-134722000D01*
X144545940Y-134722000D01*
X144526000Y-134720036D01*
X144506059Y-134722000D01*
X136417940Y-134722000D01*
X136398000Y-134720036D01*
X136378059Y-134722000D01*
X136318410Y-134727875D01*
X136241879Y-134751090D01*
X136171347Y-134788790D01*
X136109526Y-134839526D01*
X136058790Y-134901347D01*
X136021090Y-134971879D01*
X135997875Y-135048410D01*
X135990036Y-135128000D01*
X135992000Y-135147941D01*
X135992001Y-136627000D01*
X134453768Y-136627000D01*
X134678530Y-136476819D01*
X135079819Y-136075530D01*
X135395109Y-135603665D01*
X135612285Y-135079357D01*
X135723000Y-134522754D01*
X135723000Y-133955246D01*
X135612285Y-133398643D01*
X135395109Y-132874335D01*
X135079819Y-132402470D01*
X134882349Y-132205000D01*
X140981156Y-132205000D01*
X141006002Y-132207447D01*
X141030848Y-132205000D01*
X141030856Y-132205000D01*
X141105195Y-132197678D01*
X141200577Y-132168745D01*
X141288481Y-132121759D01*
X141365529Y-132058527D01*
X141381378Y-132039215D01*
X142407093Y-131013500D01*
X145142000Y-131013500D01*
X145142001Y-132152501D01*
X145155111Y-132285607D01*
X145206917Y-132456388D01*
X145291045Y-132613782D01*
X145404263Y-132751738D01*
X145542219Y-132864956D01*
X145699613Y-132949084D01*
X145870394Y-133000890D01*
X146048000Y-133018383D01*
X146225607Y-133000890D01*
X146396388Y-132949084D01*
X146553782Y-132864956D01*
X146691738Y-132751738D01*
X146804956Y-132613782D01*
X146884332Y-132465279D01*
X146929614Y-132533049D01*
X147027951Y-132631386D01*
X147143584Y-132708649D01*
X147272067Y-132761869D01*
X147408465Y-132789000D01*
X147547535Y-132789000D01*
X147683933Y-132761869D01*
X147812416Y-132708649D01*
X147854930Y-132680242D01*
X147855323Y-132680830D01*
X147964106Y-132789613D01*
X148092023Y-132875084D01*
X148234156Y-132933958D01*
X148385043Y-132963971D01*
X148538887Y-132963971D01*
X148689774Y-132933958D01*
X148831907Y-132875084D01*
X148959824Y-132789613D01*
X149068607Y-132680830D01*
X149154078Y-132552913D01*
X149212952Y-132410780D01*
X149242965Y-132259893D01*
X149242965Y-132106049D01*
X151493035Y-132106049D01*
X151493035Y-132259893D01*
X151523048Y-132410780D01*
X151581922Y-132552913D01*
X151667393Y-132680830D01*
X151776176Y-132789613D01*
X151904093Y-132875084D01*
X152046226Y-132933958D01*
X152197113Y-132963971D01*
X152350957Y-132963971D01*
X152501844Y-132933958D01*
X152643977Y-132875084D01*
X152771894Y-132789613D01*
X152880677Y-132680830D01*
X152881070Y-132680242D01*
X152923584Y-132708649D01*
X153052067Y-132761869D01*
X153188465Y-132789000D01*
X153327535Y-132789000D01*
X153463933Y-132761869D01*
X153592416Y-132708649D01*
X153708049Y-132631386D01*
X153806386Y-132533049D01*
X153851669Y-132465278D01*
X153931045Y-132613782D01*
X154044263Y-132751738D01*
X154182219Y-132864956D01*
X154339613Y-132949084D01*
X154510394Y-133000890D01*
X154688000Y-133018383D01*
X154865607Y-133000890D01*
X155036388Y-132949084D01*
X155193782Y-132864956D01*
X155331738Y-132751738D01*
X155444956Y-132613782D01*
X155529084Y-132456388D01*
X155580890Y-132285607D01*
X155594000Y-132152501D01*
X155594000Y-131013499D01*
X155580890Y-130880393D01*
X155529084Y-130709612D01*
X155444956Y-130552218D01*
X155331738Y-130414262D01*
X155193781Y-130301044D01*
X155036387Y-130216916D01*
X154865606Y-130165110D01*
X154688000Y-130147617D01*
X154510393Y-130165110D01*
X154339612Y-130216916D01*
X154182218Y-130301044D01*
X154044262Y-130414262D01*
X153931044Y-130552219D01*
X153846916Y-130709613D01*
X153795110Y-130880394D01*
X153782000Y-131013500D01*
X153782001Y-131608566D01*
X153708049Y-131534614D01*
X153592416Y-131457351D01*
X153463933Y-131404131D01*
X153327535Y-131377000D01*
X153188465Y-131377000D01*
X153052067Y-131404131D01*
X152923584Y-131457351D01*
X152807951Y-131534614D01*
X152768502Y-131574063D01*
X152643977Y-131490858D01*
X152501844Y-131431984D01*
X152350957Y-131401971D01*
X152197113Y-131401971D01*
X152046226Y-131431984D01*
X151904093Y-131490858D01*
X151776176Y-131576329D01*
X151667393Y-131685112D01*
X151581922Y-131813029D01*
X151523048Y-131955162D01*
X151493035Y-132106049D01*
X149242965Y-132106049D01*
X149212952Y-131955162D01*
X149154078Y-131813029D01*
X149068607Y-131685112D01*
X148959824Y-131576329D01*
X148831907Y-131490858D01*
X148689774Y-131431984D01*
X148538887Y-131401971D01*
X148385043Y-131401971D01*
X148234156Y-131431984D01*
X148092023Y-131490858D01*
X147967498Y-131574063D01*
X147928049Y-131534614D01*
X147812416Y-131457351D01*
X147683933Y-131404131D01*
X147547535Y-131377000D01*
X147408465Y-131377000D01*
X147272067Y-131404131D01*
X147143584Y-131457351D01*
X147027951Y-131534614D01*
X146954000Y-131608565D01*
X146954000Y-131013499D01*
X146940890Y-130880393D01*
X146889084Y-130709612D01*
X146804956Y-130552218D01*
X146691738Y-130414262D01*
X146553781Y-130301044D01*
X146396387Y-130216916D01*
X146225606Y-130165110D01*
X146048000Y-130147617D01*
X145870393Y-130165110D01*
X145699612Y-130216916D01*
X145542218Y-130301044D01*
X145404262Y-130414262D01*
X145291044Y-130552219D01*
X145206916Y-130709613D01*
X145155110Y-130880394D01*
X145142000Y-131013500D01*
X142407093Y-131013500D01*
X144958741Y-128461852D01*
X146943000Y-128461852D01*
X146943000Y-128586148D01*
X146967249Y-128708056D01*
X147014815Y-128822891D01*
X147083870Y-128926239D01*
X147171761Y-129014130D01*
X147275109Y-129083185D01*
X147389944Y-129130751D01*
X147483836Y-129149427D01*
X148355674Y-130021266D01*
X148355674Y-130101851D01*
X148379923Y-130223759D01*
X148427489Y-130338594D01*
X148496544Y-130441942D01*
X148584435Y-130529833D01*
X148687783Y-130598888D01*
X148802618Y-130646454D01*
X148924526Y-130670703D01*
X149048822Y-130670703D01*
X149170730Y-130646454D01*
X149285565Y-130598888D01*
X149388913Y-130529833D01*
X149476804Y-130441942D01*
X149545859Y-130338594D01*
X149593425Y-130223759D01*
X149617674Y-130101851D01*
X149617674Y-129977555D01*
X149593425Y-129855647D01*
X149545859Y-129740812D01*
X149476804Y-129637464D01*
X149388913Y-129549573D01*
X149285565Y-129480518D01*
X149218211Y-129452619D01*
X148410760Y-128645168D01*
X148436809Y-128639987D01*
X148578942Y-128581113D01*
X148706859Y-128495642D01*
X148815642Y-128386859D01*
X148901113Y-128258942D01*
X148959987Y-128116809D01*
X148990000Y-127965922D01*
X148990000Y-127812078D01*
X148959987Y-127661191D01*
X148901113Y-127519058D01*
X148815642Y-127391141D01*
X148706859Y-127282358D01*
X148578942Y-127196887D01*
X148436809Y-127138013D01*
X148285922Y-127108000D01*
X148132078Y-127108000D01*
X147981191Y-127138013D01*
X147839058Y-127196887D01*
X147711141Y-127282358D01*
X147602358Y-127391141D01*
X147516887Y-127519058D01*
X147458013Y-127661191D01*
X147428000Y-127812078D01*
X147428000Y-127909679D01*
X147389944Y-127917249D01*
X147275109Y-127964815D01*
X147171761Y-128033870D01*
X147083870Y-128121761D01*
X147014815Y-128225109D01*
X146967249Y-128339944D01*
X146943000Y-128461852D01*
X144958741Y-128461852D01*
X146715585Y-126705009D01*
X148407147Y-126705009D01*
X148431993Y-126707456D01*
X148456839Y-126705009D01*
X148456847Y-126705009D01*
X148531186Y-126697687D01*
X148626568Y-126668754D01*
X148714472Y-126621768D01*
X148791520Y-126558536D01*
X148807369Y-126539224D01*
X149370466Y-125976128D01*
X149356000Y-126048852D01*
X149356000Y-126173148D01*
X149380249Y-126295056D01*
X149427815Y-126409891D01*
X149496870Y-126513239D01*
X149584761Y-126601130D01*
X149688109Y-126670185D01*
X149802944Y-126717751D01*
X149924852Y-126742000D01*
X150049148Y-126742000D01*
X150171056Y-126717751D01*
X150285891Y-126670185D01*
X150327082Y-126642662D01*
X150387996Y-126683364D01*
X150502831Y-126730930D01*
X150624739Y-126755179D01*
X150749035Y-126755179D01*
X150870943Y-126730930D01*
X150985778Y-126683364D01*
X151089126Y-126614309D01*
X151177017Y-126526418D01*
X151246072Y-126423070D01*
X151293638Y-126308235D01*
X151317887Y-126186327D01*
X151317887Y-126062031D01*
X151293638Y-125940123D01*
X151246072Y-125825288D01*
X151177017Y-125721940D01*
X151089126Y-125634049D01*
X151036354Y-125598788D01*
X151036354Y-125512320D01*
X151883402Y-124665272D01*
X151901755Y-124650211D01*
X151961863Y-124576969D01*
X152006527Y-124493408D01*
X152034031Y-124402739D01*
X152040991Y-124332073D01*
X152040991Y-124332072D01*
X152043318Y-124308448D01*
X152040991Y-124284824D01*
X152040991Y-118904584D01*
X154460626Y-121324220D01*
G04 #@! TA.AperFunction,Conductor*
D26*
G36*
X154460626Y-121324220D02*
G01*
X154476471Y-121343527D01*
X154553519Y-121406759D01*
X154640246Y-121453116D01*
X154641423Y-121453745D01*
X154736805Y-121482678D01*
X154835998Y-121492448D01*
X154860852Y-121490000D01*
X154894011Y-121490000D01*
X154906299Y-121530508D01*
X154912976Y-121543000D01*
X154877852Y-121543000D01*
X154755944Y-121567249D01*
X154641109Y-121614815D01*
X154537761Y-121683870D01*
X154449870Y-121771761D01*
X154380815Y-121875109D01*
X154333249Y-121989944D01*
X154309000Y-122111852D01*
X154309000Y-122236148D01*
X154333249Y-122358056D01*
X154380815Y-122472891D01*
X154449870Y-122576239D01*
X154537761Y-122664130D01*
X154641109Y-122733185D01*
X154755944Y-122780751D01*
X154877157Y-122804862D01*
X154877157Y-123501157D01*
X154860000Y-123501157D01*
X154785311Y-123508513D01*
X154713492Y-123530299D01*
X154647304Y-123565678D01*
X154589289Y-123613289D01*
X154541678Y-123671304D01*
X154521884Y-123708334D01*
X154420942Y-123640887D01*
X154278809Y-123582013D01*
X154127922Y-123552000D01*
X153974078Y-123552000D01*
X153823191Y-123582013D01*
X153681058Y-123640887D01*
X153553141Y-123726358D01*
X153444358Y-123835141D01*
X153358887Y-123963058D01*
X153300013Y-124105191D01*
X153270000Y-124256078D01*
X153270000Y-124409922D01*
X153300013Y-124560809D01*
X153358887Y-124702942D01*
X153444358Y-124830859D01*
X153517999Y-124904500D01*
X153444358Y-124978141D01*
X153358887Y-125106058D01*
X153300013Y-125248191D01*
X153270000Y-125399078D01*
X153270000Y-125552922D01*
X153300013Y-125703809D01*
X153358887Y-125845942D01*
X153444358Y-125973859D01*
X153553141Y-126082642D01*
X153681058Y-126168113D01*
X153742197Y-126193438D01*
X153648761Y-126255870D01*
X153560870Y-126343761D01*
X153491815Y-126447109D01*
X153444249Y-126561944D01*
X153420000Y-126683852D01*
X153420000Y-126808148D01*
X153444249Y-126930056D01*
X153491815Y-127044891D01*
X153560870Y-127148239D01*
X153648761Y-127236130D01*
X153752109Y-127305185D01*
X153866944Y-127352751D01*
X153988852Y-127377000D01*
X154050514Y-127377000D01*
X154032000Y-127470075D01*
X154032000Y-127623919D01*
X154062013Y-127774806D01*
X154120887Y-127916939D01*
X154206358Y-128044856D01*
X154315141Y-128153639D01*
X154443058Y-128239110D01*
X154585191Y-128297984D01*
X154736078Y-128327997D01*
X154889922Y-128327997D01*
X155040809Y-128297984D01*
X155182942Y-128239110D01*
X155310859Y-128153639D01*
X155419642Y-128044856D01*
X155505113Y-127916939D01*
X155563987Y-127774806D01*
X155594000Y-127623919D01*
X155594000Y-127470075D01*
X155563987Y-127319188D01*
X155536157Y-127252000D01*
X157494566Y-127252000D01*
X157519412Y-127254447D01*
X157544258Y-127252000D01*
X157544266Y-127252000D01*
X157618605Y-127244678D01*
X157713987Y-127215745D01*
X157801891Y-127168759D01*
X157878939Y-127105527D01*
X157894788Y-127086215D01*
X159090220Y-125890784D01*
X159109527Y-125874939D01*
X159172759Y-125797891D01*
X159219745Y-125709987D01*
X159226948Y-125686242D01*
X159248678Y-125614606D01*
X159251025Y-125590775D01*
X159256000Y-125540266D01*
X159256000Y-125540259D01*
X159258447Y-125515413D01*
X159256000Y-125490567D01*
X159256000Y-124076488D01*
X159309185Y-123996891D01*
X159356751Y-123882056D01*
X159381000Y-123760148D01*
X159381000Y-123635852D01*
X159356751Y-123513944D01*
X159324478Y-123436029D01*
X159338194Y-123434678D01*
X159433576Y-123405745D01*
X159521480Y-123358759D01*
X159598528Y-123295527D01*
X159614377Y-123276215D01*
X160630001Y-122260592D01*
X160630001Y-128961157D01*
X158910000Y-128961157D01*
X158835311Y-128968513D01*
X158763492Y-128990299D01*
X158697304Y-129025678D01*
X158639289Y-129073289D01*
X158591678Y-129131304D01*
X158556299Y-129197492D01*
X158534513Y-129269311D01*
X158527157Y-129344000D01*
X158527157Y-130744000D01*
X158534513Y-130818689D01*
X158556299Y-130890508D01*
X158591678Y-130956696D01*
X158639289Y-131014711D01*
X158697304Y-131062322D01*
X158763492Y-131097701D01*
X158835311Y-131119487D01*
X158910000Y-131126843D01*
X160630001Y-131126843D01*
X160630001Y-132627233D01*
X160479819Y-132402470D01*
X160078530Y-132001181D01*
X159606665Y-131685891D01*
X159082357Y-131468715D01*
X158525754Y-131358000D01*
X157958246Y-131358000D01*
X157401643Y-131468715D01*
X156877335Y-131685891D01*
X156405470Y-132001181D01*
X156004181Y-132402470D01*
X155688891Y-132874335D01*
X155471715Y-133398643D01*
X155361000Y-133955246D01*
X155361000Y-134522754D01*
X155406046Y-134749215D01*
X155313975Y-134637025D01*
X155179824Y-134526932D01*
X155026774Y-134445125D01*
X154860705Y-134394748D01*
X154688000Y-134377738D01*
X154515294Y-134394748D01*
X154349225Y-134445125D01*
X154196175Y-134526932D01*
X154062025Y-134637025D01*
X153951932Y-134771176D01*
X153870125Y-134924226D01*
X153819748Y-135090295D01*
X153807000Y-135219728D01*
X153807001Y-136306273D01*
X153819749Y-136435706D01*
X153870126Y-136601775D01*
X153883609Y-136627000D01*
X146852392Y-136627000D01*
X146865875Y-136601775D01*
X146916252Y-136435706D01*
X146929000Y-136306273D01*
X146929000Y-135219727D01*
X146916252Y-135090294D01*
X146865875Y-134924225D01*
X146784068Y-134771175D01*
X146673975Y-134637025D01*
X146539824Y-134526932D01*
X146386774Y-134445125D01*
X146220705Y-134394748D01*
X146048000Y-134377738D01*
X145875294Y-134394748D01*
X145709225Y-134445125D01*
X145556175Y-134526932D01*
X145422025Y-134637025D01*
X145311932Y-134771176D01*
X145230125Y-134924226D01*
X145179748Y-135090295D01*
X145167000Y-135219728D01*
X145167001Y-136306273D01*
X145179749Y-136435706D01*
X145230126Y-136601775D01*
X145243609Y-136627000D01*
X144932000Y-136627000D01*
X144932000Y-135147941D01*
X144933964Y-135128000D01*
X144926125Y-135048410D01*
X144902910Y-134971879D01*
X144865210Y-134901347D01*
X144814474Y-134839526D01*
X144752653Y-134788790D01*
X144682121Y-134751090D01*
X144605590Y-134727875D01*
X144545941Y-134722000D01*
X144545940Y-134722000D01*
X144526000Y-134720036D01*
X144506059Y-134722000D01*
X136417940Y-134722000D01*
X136398000Y-134720036D01*
X136378059Y-134722000D01*
X136318410Y-134727875D01*
X136241879Y-134751090D01*
X136171347Y-134788790D01*
X136109526Y-134839526D01*
X136058790Y-134901347D01*
X136021090Y-134971879D01*
X135997875Y-135048410D01*
X135990036Y-135128000D01*
X135992000Y-135147941D01*
X135992001Y-136627000D01*
X134453768Y-136627000D01*
X134678530Y-136476819D01*
X135079819Y-136075530D01*
X135395109Y-135603665D01*
X135612285Y-135079357D01*
X135723000Y-134522754D01*
X135723000Y-133955246D01*
X135612285Y-133398643D01*
X135395109Y-132874335D01*
X135079819Y-132402470D01*
X134882349Y-132205000D01*
X140981156Y-132205000D01*
X141006002Y-132207447D01*
X141030848Y-132205000D01*
X141030856Y-132205000D01*
X141105195Y-132197678D01*
X141200577Y-132168745D01*
X141288481Y-132121759D01*
X141365529Y-132058527D01*
X141381378Y-132039215D01*
X142407093Y-131013500D01*
X145142000Y-131013500D01*
X145142001Y-132152501D01*
X145155111Y-132285607D01*
X145206917Y-132456388D01*
X145291045Y-132613782D01*
X145404263Y-132751738D01*
X145542219Y-132864956D01*
X145699613Y-132949084D01*
X145870394Y-133000890D01*
X146048000Y-133018383D01*
X146225607Y-133000890D01*
X146396388Y-132949084D01*
X146553782Y-132864956D01*
X146691738Y-132751738D01*
X146804956Y-132613782D01*
X146884332Y-132465279D01*
X146929614Y-132533049D01*
X147027951Y-132631386D01*
X147143584Y-132708649D01*
X147272067Y-132761869D01*
X147408465Y-132789000D01*
X147547535Y-132789000D01*
X147683933Y-132761869D01*
X147812416Y-132708649D01*
X147854930Y-132680242D01*
X147855323Y-132680830D01*
X147964106Y-132789613D01*
X148092023Y-132875084D01*
X148234156Y-132933958D01*
X148385043Y-132963971D01*
X148538887Y-132963971D01*
X148689774Y-132933958D01*
X148831907Y-132875084D01*
X148959824Y-132789613D01*
X149068607Y-132680830D01*
X149154078Y-132552913D01*
X149212952Y-132410780D01*
X149242965Y-132259893D01*
X149242965Y-132106049D01*
X151493035Y-132106049D01*
X151493035Y-132259893D01*
X151523048Y-132410780D01*
X151581922Y-132552913D01*
X151667393Y-132680830D01*
X151776176Y-132789613D01*
X151904093Y-132875084D01*
X152046226Y-132933958D01*
X152197113Y-132963971D01*
X152350957Y-132963971D01*
X152501844Y-132933958D01*
X152643977Y-132875084D01*
X152771894Y-132789613D01*
X152880677Y-132680830D01*
X152881070Y-132680242D01*
X152923584Y-132708649D01*
X153052067Y-132761869D01*
X153188465Y-132789000D01*
X153327535Y-132789000D01*
X153463933Y-132761869D01*
X153592416Y-132708649D01*
X153708049Y-132631386D01*
X153806386Y-132533049D01*
X153851669Y-132465278D01*
X153931045Y-132613782D01*
X154044263Y-132751738D01*
X154182219Y-132864956D01*
X154339613Y-132949084D01*
X154510394Y-133000890D01*
X154688000Y-133018383D01*
X154865607Y-133000890D01*
X155036388Y-132949084D01*
X155193782Y-132864956D01*
X155331738Y-132751738D01*
X155444956Y-132613782D01*
X155529084Y-132456388D01*
X155580890Y-132285607D01*
X155594000Y-132152501D01*
X155594000Y-131013499D01*
X155580890Y-130880393D01*
X155529084Y-130709612D01*
X155444956Y-130552218D01*
X155331738Y-130414262D01*
X155193781Y-130301044D01*
X155036387Y-130216916D01*
X154865606Y-130165110D01*
X154688000Y-130147617D01*
X154510393Y-130165110D01*
X154339612Y-130216916D01*
X154182218Y-130301044D01*
X154044262Y-130414262D01*
X153931044Y-130552219D01*
X153846916Y-130709613D01*
X153795110Y-130880394D01*
X153782000Y-131013500D01*
X153782001Y-131608566D01*
X153708049Y-131534614D01*
X153592416Y-131457351D01*
X153463933Y-131404131D01*
X153327535Y-131377000D01*
X153188465Y-131377000D01*
X153052067Y-131404131D01*
X152923584Y-131457351D01*
X152807951Y-131534614D01*
X152768502Y-131574063D01*
X152643977Y-131490858D01*
X152501844Y-131431984D01*
X152350957Y-131401971D01*
X152197113Y-131401971D01*
X152046226Y-131431984D01*
X151904093Y-131490858D01*
X151776176Y-131576329D01*
X151667393Y-131685112D01*
X151581922Y-131813029D01*
X151523048Y-131955162D01*
X151493035Y-132106049D01*
X149242965Y-132106049D01*
X149212952Y-131955162D01*
X149154078Y-131813029D01*
X149068607Y-131685112D01*
X148959824Y-131576329D01*
X148831907Y-131490858D01*
X148689774Y-131431984D01*
X148538887Y-131401971D01*
X148385043Y-131401971D01*
X148234156Y-131431984D01*
X148092023Y-131490858D01*
X147967498Y-131574063D01*
X147928049Y-131534614D01*
X147812416Y-131457351D01*
X147683933Y-131404131D01*
X147547535Y-131377000D01*
X147408465Y-131377000D01*
X147272067Y-131404131D01*
X147143584Y-131457351D01*
X147027951Y-131534614D01*
X146954000Y-131608565D01*
X146954000Y-131013499D01*
X146940890Y-130880393D01*
X146889084Y-130709612D01*
X146804956Y-130552218D01*
X146691738Y-130414262D01*
X146553781Y-130301044D01*
X146396387Y-130216916D01*
X146225606Y-130165110D01*
X146048000Y-130147617D01*
X145870393Y-130165110D01*
X145699612Y-130216916D01*
X145542218Y-130301044D01*
X145404262Y-130414262D01*
X145291044Y-130552219D01*
X145206916Y-130709613D01*
X145155110Y-130880394D01*
X145142000Y-131013500D01*
X142407093Y-131013500D01*
X144958741Y-128461852D01*
X146943000Y-128461852D01*
X146943000Y-128586148D01*
X146967249Y-128708056D01*
X147014815Y-128822891D01*
X147083870Y-128926239D01*
X147171761Y-129014130D01*
X147275109Y-129083185D01*
X147389944Y-129130751D01*
X147483836Y-129149427D01*
X148355674Y-130021266D01*
X148355674Y-130101851D01*
X148379923Y-130223759D01*
X148427489Y-130338594D01*
X148496544Y-130441942D01*
X148584435Y-130529833D01*
X148687783Y-130598888D01*
X148802618Y-130646454D01*
X148924526Y-130670703D01*
X149048822Y-130670703D01*
X149170730Y-130646454D01*
X149285565Y-130598888D01*
X149388913Y-130529833D01*
X149476804Y-130441942D01*
X149545859Y-130338594D01*
X149593425Y-130223759D01*
X149617674Y-130101851D01*
X149617674Y-129977555D01*
X149593425Y-129855647D01*
X149545859Y-129740812D01*
X149476804Y-129637464D01*
X149388913Y-129549573D01*
X149285565Y-129480518D01*
X149218211Y-129452619D01*
X148410760Y-128645168D01*
X148436809Y-128639987D01*
X148578942Y-128581113D01*
X148706859Y-128495642D01*
X148815642Y-128386859D01*
X148901113Y-128258942D01*
X148959987Y-128116809D01*
X148990000Y-127965922D01*
X148990000Y-127812078D01*
X148959987Y-127661191D01*
X148901113Y-127519058D01*
X148815642Y-127391141D01*
X148706859Y-127282358D01*
X148578942Y-127196887D01*
X148436809Y-127138013D01*
X148285922Y-127108000D01*
X148132078Y-127108000D01*
X147981191Y-127138013D01*
X147839058Y-127196887D01*
X147711141Y-127282358D01*
X147602358Y-127391141D01*
X147516887Y-127519058D01*
X147458013Y-127661191D01*
X147428000Y-127812078D01*
X147428000Y-127909679D01*
X147389944Y-127917249D01*
X147275109Y-127964815D01*
X147171761Y-128033870D01*
X147083870Y-128121761D01*
X147014815Y-128225109D01*
X146967249Y-128339944D01*
X146943000Y-128461852D01*
X144958741Y-128461852D01*
X146715585Y-126705009D01*
X148407147Y-126705009D01*
X148431993Y-126707456D01*
X148456839Y-126705009D01*
X148456847Y-126705009D01*
X148531186Y-126697687D01*
X148626568Y-126668754D01*
X148714472Y-126621768D01*
X148791520Y-126558536D01*
X148807369Y-126539224D01*
X149370466Y-125976128D01*
X149356000Y-126048852D01*
X149356000Y-126173148D01*
X149380249Y-126295056D01*
X149427815Y-126409891D01*
X149496870Y-126513239D01*
X149584761Y-126601130D01*
X149688109Y-126670185D01*
X149802944Y-126717751D01*
X149924852Y-126742000D01*
X150049148Y-126742000D01*
X150171056Y-126717751D01*
X150285891Y-126670185D01*
X150327082Y-126642662D01*
X150387996Y-126683364D01*
X150502831Y-126730930D01*
X150624739Y-126755179D01*
X150749035Y-126755179D01*
X150870943Y-126730930D01*
X150985778Y-126683364D01*
X151089126Y-126614309D01*
X151177017Y-126526418D01*
X151246072Y-126423070D01*
X151293638Y-126308235D01*
X151317887Y-126186327D01*
X151317887Y-126062031D01*
X151293638Y-125940123D01*
X151246072Y-125825288D01*
X151177017Y-125721940D01*
X151089126Y-125634049D01*
X151036354Y-125598788D01*
X151036354Y-125512320D01*
X151883402Y-124665272D01*
X151901755Y-124650211D01*
X151961863Y-124576969D01*
X152006527Y-124493408D01*
X152034031Y-124402739D01*
X152040991Y-124332073D01*
X152040991Y-124332072D01*
X152043318Y-124308448D01*
X152040991Y-124284824D01*
X152040991Y-118904584D01*
X154460626Y-121324220D01*
G37*
G04 #@! TD.AperFunction*
D25*
X130604181Y-103182530D02*
X131005470Y-103583819D01*
X131477335Y-103899109D01*
X132001643Y-104116285D01*
X132558246Y-104227000D01*
X133125754Y-104227000D01*
X133682357Y-104116285D01*
X133885104Y-104032304D01*
X132178771Y-105738638D01*
X132159464Y-105754483D01*
X132096232Y-105831531D01*
X132084878Y-105852773D01*
X132049245Y-105919436D01*
X132020312Y-106014818D01*
X132010543Y-106114010D01*
X132012991Y-106138866D01*
X132012990Y-123762144D01*
X132010543Y-123786990D01*
X132012990Y-123811836D01*
X132012990Y-123811843D01*
X132020312Y-123886182D01*
X132049245Y-123981564D01*
X132096231Y-124069469D01*
X132159463Y-124146517D01*
X132178775Y-124162366D01*
X135577565Y-127561157D01*
X135176000Y-127561157D01*
X135101311Y-127568513D01*
X135029492Y-127590299D01*
X134963304Y-127625678D01*
X134905289Y-127673289D01*
X134857678Y-127731304D01*
X134822299Y-127797492D01*
X134800513Y-127869311D01*
X134793157Y-127944000D01*
X134793157Y-130944000D01*
X134800513Y-131018689D01*
X134808452Y-131044860D01*
X134229427Y-130465836D01*
X134210751Y-130371944D01*
X134163185Y-130257109D01*
X134094130Y-130153761D01*
X134006239Y-130065870D01*
X133902891Y-129996815D01*
X133788056Y-129949249D01*
X133666148Y-129925000D01*
X133541852Y-129925000D01*
X133419944Y-129949249D01*
X133305109Y-129996815D01*
X133201761Y-130065870D01*
X133113870Y-130153761D01*
X133044815Y-130257109D01*
X132997249Y-130371944D01*
X132973000Y-130493852D01*
X132973000Y-130618148D01*
X132997249Y-130740056D01*
X133044815Y-130854891D01*
X133113870Y-130958239D01*
X133201761Y-131046130D01*
X133305109Y-131115185D01*
X133419944Y-131162751D01*
X133513836Y-131181427D01*
X133885104Y-131552696D01*
X133682357Y-131468715D01*
X133125754Y-131358000D01*
X132558246Y-131358000D01*
X132001643Y-131468715D01*
X131477335Y-131685891D01*
X131005470Y-132001181D01*
X130604181Y-132402470D01*
X130454000Y-132627232D01*
X130454000Y-121707085D01*
X130481268Y-121718380D01*
X130680455Y-121758000D01*
X130883545Y-121758000D01*
X131082732Y-121718380D01*
X131270362Y-121640661D01*
X131439224Y-121527830D01*
X131582830Y-121384224D01*
X131695661Y-121215362D01*
X131773380Y-121027732D01*
X131813000Y-120828545D01*
X131813000Y-120625455D01*
X131773380Y-120426268D01*
X131695661Y-120238638D01*
X131582830Y-120069776D01*
X131439224Y-119926170D01*
X131270362Y-119813339D01*
X131082732Y-119735620D01*
X130883545Y-119696000D01*
X130680455Y-119696000D01*
X130481268Y-119735620D01*
X130454000Y-119746915D01*
X130454000Y-115457085D01*
X130481268Y-115468380D01*
X130680455Y-115508000D01*
X130883545Y-115508000D01*
X131082732Y-115468380D01*
X131270362Y-115390661D01*
X131439224Y-115277830D01*
X131582830Y-115134224D01*
X131695661Y-114965362D01*
X131773380Y-114777732D01*
X131813000Y-114578545D01*
X131813000Y-114375455D01*
X131773380Y-114176268D01*
X131695661Y-113988638D01*
X131582830Y-113819776D01*
X131439224Y-113676170D01*
X131270362Y-113563339D01*
X131082732Y-113485620D01*
X130883545Y-113446000D01*
X130680455Y-113446000D01*
X130481268Y-113485620D01*
X130454000Y-113496915D01*
X130454000Y-102957768D01*
X130604181Y-103182530D01*
G04 #@! TA.AperFunction,Conductor*
D26*
G36*
X130604181Y-103182530D02*
G01*
X131005470Y-103583819D01*
X131477335Y-103899109D01*
X132001643Y-104116285D01*
X132558246Y-104227000D01*
X133125754Y-104227000D01*
X133682357Y-104116285D01*
X133885104Y-104032304D01*
X132178771Y-105738638D01*
X132159464Y-105754483D01*
X132096232Y-105831531D01*
X132084878Y-105852773D01*
X132049245Y-105919436D01*
X132020312Y-106014818D01*
X132010543Y-106114010D01*
X132012991Y-106138866D01*
X132012990Y-123762144D01*
X132010543Y-123786990D01*
X132012990Y-123811836D01*
X132012990Y-123811843D01*
X132020312Y-123886182D01*
X132049245Y-123981564D01*
X132096231Y-124069469D01*
X132159463Y-124146517D01*
X132178775Y-124162366D01*
X135577565Y-127561157D01*
X135176000Y-127561157D01*
X135101311Y-127568513D01*
X135029492Y-127590299D01*
X134963304Y-127625678D01*
X134905289Y-127673289D01*
X134857678Y-127731304D01*
X134822299Y-127797492D01*
X134800513Y-127869311D01*
X134793157Y-127944000D01*
X134793157Y-130944000D01*
X134800513Y-131018689D01*
X134808452Y-131044860D01*
X134229427Y-130465836D01*
X134210751Y-130371944D01*
X134163185Y-130257109D01*
X134094130Y-130153761D01*
X134006239Y-130065870D01*
X133902891Y-129996815D01*
X133788056Y-129949249D01*
X133666148Y-129925000D01*
X133541852Y-129925000D01*
X133419944Y-129949249D01*
X133305109Y-129996815D01*
X133201761Y-130065870D01*
X133113870Y-130153761D01*
X133044815Y-130257109D01*
X132997249Y-130371944D01*
X132973000Y-130493852D01*
X132973000Y-130618148D01*
X132997249Y-130740056D01*
X133044815Y-130854891D01*
X133113870Y-130958239D01*
X133201761Y-131046130D01*
X133305109Y-131115185D01*
X133419944Y-131162751D01*
X133513836Y-131181427D01*
X133885104Y-131552696D01*
X133682357Y-131468715D01*
X133125754Y-131358000D01*
X132558246Y-131358000D01*
X132001643Y-131468715D01*
X131477335Y-131685891D01*
X131005470Y-132001181D01*
X130604181Y-132402470D01*
X130454000Y-132627232D01*
X130454000Y-121707085D01*
X130481268Y-121718380D01*
X130680455Y-121758000D01*
X130883545Y-121758000D01*
X131082732Y-121718380D01*
X131270362Y-121640661D01*
X131439224Y-121527830D01*
X131582830Y-121384224D01*
X131695661Y-121215362D01*
X131773380Y-121027732D01*
X131813000Y-120828545D01*
X131813000Y-120625455D01*
X131773380Y-120426268D01*
X131695661Y-120238638D01*
X131582830Y-120069776D01*
X131439224Y-119926170D01*
X131270362Y-119813339D01*
X131082732Y-119735620D01*
X130883545Y-119696000D01*
X130680455Y-119696000D01*
X130481268Y-119735620D01*
X130454000Y-119746915D01*
X130454000Y-115457085D01*
X130481268Y-115468380D01*
X130680455Y-115508000D01*
X130883545Y-115508000D01*
X131082732Y-115468380D01*
X131270362Y-115390661D01*
X131439224Y-115277830D01*
X131582830Y-115134224D01*
X131695661Y-114965362D01*
X131773380Y-114777732D01*
X131813000Y-114578545D01*
X131813000Y-114375455D01*
X131773380Y-114176268D01*
X131695661Y-113988638D01*
X131582830Y-113819776D01*
X131439224Y-113676170D01*
X131270362Y-113563339D01*
X131082732Y-113485620D01*
X130883545Y-113446000D01*
X130680455Y-113446000D01*
X130481268Y-113485620D01*
X130454000Y-113496915D01*
X130454000Y-102957768D01*
X130604181Y-103182530D01*
G37*
G04 #@! TD.AperFunction*
D25*
X141558843Y-130430568D02*
X141558843Y-127944000D01*
X141551487Y-127869311D01*
X141529701Y-127797492D01*
X141494322Y-127731304D01*
X141446711Y-127673289D01*
X141388696Y-127625678D01*
X141322508Y-127590299D01*
X141250689Y-127568513D01*
X141176000Y-127561157D01*
X139313995Y-127561157D01*
X139315000Y-127556104D01*
X139315000Y-127431808D01*
X139290751Y-127309900D01*
X139243185Y-127195065D01*
X139235442Y-127183477D01*
X139243179Y-127171897D01*
X139290745Y-127057062D01*
X139314994Y-126935154D01*
X139314994Y-126810858D01*
X139290745Y-126688950D01*
X139243179Y-126574115D01*
X139188320Y-126492012D01*
X139243185Y-126409901D01*
X139290751Y-126295066D01*
X139298721Y-126254999D01*
X145734411Y-126254999D01*
X141558843Y-130430568D01*
G04 #@! TA.AperFunction,Conductor*
D26*
G36*
X141558843Y-130430568D02*
G01*
X141558843Y-127944000D01*
X141551487Y-127869311D01*
X141529701Y-127797492D01*
X141494322Y-127731304D01*
X141446711Y-127673289D01*
X141388696Y-127625678D01*
X141322508Y-127590299D01*
X141250689Y-127568513D01*
X141176000Y-127561157D01*
X139313995Y-127561157D01*
X139315000Y-127556104D01*
X139315000Y-127431808D01*
X139290751Y-127309900D01*
X139243185Y-127195065D01*
X139235442Y-127183477D01*
X139243179Y-127171897D01*
X139290745Y-127057062D01*
X139314994Y-126935154D01*
X139314994Y-126810858D01*
X139290745Y-126688950D01*
X139243179Y-126574115D01*
X139188320Y-126492012D01*
X139243185Y-126409901D01*
X139290751Y-126295066D01*
X139298721Y-126254999D01*
X145734411Y-126254999D01*
X141558843Y-130430568D01*
G37*
G04 #@! TD.AperFunction*
D25*
X138370171Y-125496377D02*
X138372321Y-125518206D01*
X138382955Y-125553264D01*
X138281761Y-125620880D01*
X138193870Y-125708771D01*
X138124815Y-125812119D01*
X138077249Y-125926954D01*
X138053000Y-126048862D01*
X138053000Y-126173158D01*
X138077249Y-126295066D01*
X138124815Y-126409901D01*
X138179674Y-126492004D01*
X138124809Y-126574115D01*
X138077243Y-126688950D01*
X138052994Y-126810858D01*
X138052994Y-126935154D01*
X138077243Y-127057062D01*
X138124809Y-127171897D01*
X138132552Y-127183485D01*
X138124815Y-127195065D01*
X138077249Y-127309900D01*
X138053000Y-127431808D01*
X138053000Y-127556104D01*
X138054005Y-127561157D01*
X137008749Y-127561157D01*
X133024990Y-123577399D01*
X133024990Y-120151195D01*
X138370171Y-125496377D01*
G04 #@! TA.AperFunction,Conductor*
D26*
G36*
X138370171Y-125496377D02*
G01*
X138372321Y-125518206D01*
X138382955Y-125553264D01*
X138281761Y-125620880D01*
X138193870Y-125708771D01*
X138124815Y-125812119D01*
X138077249Y-125926954D01*
X138053000Y-126048862D01*
X138053000Y-126173158D01*
X138077249Y-126295066D01*
X138124815Y-126409901D01*
X138179674Y-126492004D01*
X138124809Y-126574115D01*
X138077243Y-126688950D01*
X138052994Y-126810858D01*
X138052994Y-126935154D01*
X138077243Y-127057062D01*
X138124809Y-127171897D01*
X138132552Y-127183485D01*
X138124815Y-127195065D01*
X138077249Y-127309900D01*
X138053000Y-127431808D01*
X138053000Y-127556104D01*
X138054005Y-127561157D01*
X137008749Y-127561157D01*
X133024990Y-123577399D01*
X133024990Y-120151195D01*
X138370171Y-125496377D01*
G37*
G04 #@! TD.AperFunction*
D25*
X136137157Y-112068000D02*
X136144513Y-112142689D01*
X136166299Y-112214508D01*
X136168166Y-112218000D01*
X136166299Y-112221492D01*
X136144513Y-112293311D01*
X136137157Y-112368000D01*
X136137157Y-113168000D01*
X136144513Y-113242689D01*
X136166299Y-113314508D01*
X136168166Y-113318000D01*
X136166299Y-113321492D01*
X136144513Y-113393311D01*
X136137157Y-113468000D01*
X136137157Y-114268000D01*
X136144513Y-114342689D01*
X136166299Y-114414508D01*
X136201678Y-114480696D01*
X136249289Y-114538711D01*
X136307304Y-114586322D01*
X136373492Y-114621701D01*
X136445311Y-114643487D01*
X136520000Y-114650843D01*
X138220000Y-114650843D01*
X138294689Y-114643487D01*
X138350986Y-114626409D01*
X138456191Y-114669987D01*
X138607078Y-114700000D01*
X138760922Y-114700000D01*
X138847775Y-114682724D01*
X138839358Y-114691141D01*
X138753887Y-114819058D01*
X138695013Y-114961191D01*
X138665000Y-115112078D01*
X138665000Y-115265922D01*
X138695013Y-115416809D01*
X138753887Y-115558942D01*
X138823228Y-115662718D01*
X138398250Y-115663000D01*
X138303000Y-115758250D01*
X138303000Y-117417000D01*
X138323000Y-117417000D01*
X138323000Y-117671000D01*
X138303000Y-117671000D01*
X138303000Y-119329750D01*
X138398250Y-119425000D01*
X141176000Y-119426843D01*
X141250689Y-119419487D01*
X141322508Y-119397701D01*
X141388696Y-119362322D01*
X141446711Y-119314711D01*
X141494322Y-119256696D01*
X141529701Y-119190508D01*
X141551487Y-119118689D01*
X141558843Y-119044000D01*
X141557000Y-117766250D01*
X141461752Y-117671002D01*
X141536409Y-117671002D01*
X142699626Y-118834220D01*
X142715471Y-118853527D01*
X142792519Y-118916759D01*
X142854263Y-118949762D01*
X142880423Y-118963745D01*
X142975805Y-118992678D01*
X143074998Y-119002448D01*
X143099852Y-119000000D01*
X144627157Y-119000000D01*
X144627157Y-119394000D01*
X144634513Y-119468689D01*
X144656299Y-119540508D01*
X144691678Y-119606696D01*
X144739289Y-119664711D01*
X144797304Y-119712322D01*
X144863492Y-119747701D01*
X144935311Y-119769487D01*
X145010000Y-119776843D01*
X146410000Y-119776843D01*
X146484689Y-119769487D01*
X146556508Y-119747701D01*
X146622696Y-119712322D01*
X146680711Y-119664711D01*
X146728322Y-119606696D01*
X146763701Y-119540508D01*
X146785487Y-119468689D01*
X146792843Y-119394000D01*
X146792843Y-118809856D01*
X148415582Y-118809856D01*
X148415582Y-118934152D01*
X148439831Y-119056060D01*
X148487397Y-119170895D01*
X148556452Y-119274243D01*
X148644343Y-119362134D01*
X148747691Y-119431189D01*
X148862526Y-119478755D01*
X148984434Y-119503004D01*
X149108730Y-119503004D01*
X149230638Y-119478755D01*
X149345473Y-119431189D01*
X149448821Y-119362134D01*
X149536712Y-119274243D01*
X149605767Y-119170895D01*
X149653333Y-119056060D01*
X149677582Y-118934152D01*
X149677582Y-118809856D01*
X149653333Y-118687948D01*
X149605767Y-118573113D01*
X149536712Y-118469765D01*
X149448821Y-118381874D01*
X149345473Y-118312819D01*
X149230638Y-118265253D01*
X149108730Y-118241004D01*
X148984434Y-118241004D01*
X148862526Y-118265253D01*
X148747691Y-118312819D01*
X148644343Y-118381874D01*
X148556452Y-118469765D01*
X148487397Y-118573113D01*
X148439831Y-118687948D01*
X148415582Y-118809856D01*
X146792843Y-118809856D01*
X146792843Y-117594000D01*
X146785487Y-117519311D01*
X146763701Y-117447492D01*
X146728322Y-117381304D01*
X146680711Y-117323289D01*
X146622696Y-117275678D01*
X146556508Y-117240299D01*
X146484689Y-117218513D01*
X146410000Y-117211157D01*
X145010000Y-117211157D01*
X144935311Y-117218513D01*
X144863492Y-117240299D01*
X144797304Y-117275678D01*
X144739289Y-117323289D01*
X144691678Y-117381304D01*
X144656299Y-117447492D01*
X144634513Y-117519311D01*
X144627157Y-117594000D01*
X144627157Y-117988000D01*
X143284590Y-117988000D01*
X142585024Y-117288434D01*
X142609942Y-117278113D01*
X142737859Y-117192642D01*
X142846642Y-117083859D01*
X142852589Y-117074958D01*
X142853761Y-117076130D01*
X142957109Y-117145185D01*
X143071944Y-117192751D01*
X143193852Y-117217000D01*
X143318148Y-117217000D01*
X143440056Y-117192751D01*
X143554891Y-117145185D01*
X143658239Y-117076130D01*
X143746130Y-116988239D01*
X143815185Y-116884891D01*
X143862751Y-116770056D01*
X143887000Y-116648148D01*
X143887000Y-116523852D01*
X143862751Y-116401944D01*
X143815185Y-116287109D01*
X143746130Y-116183761D01*
X143658239Y-116095870D01*
X143554891Y-116026815D01*
X143440056Y-115979249D01*
X143318148Y-115955000D01*
X143193852Y-115955000D01*
X143071944Y-115979249D01*
X142957109Y-116026815D01*
X142853761Y-116095870D01*
X142852589Y-116097042D01*
X142846642Y-116088141D01*
X142737859Y-115979358D01*
X142609942Y-115893887D01*
X142467809Y-115835013D01*
X142316922Y-115805000D01*
X142163078Y-115805000D01*
X142020999Y-115833261D01*
X142020999Y-115758844D01*
X142023446Y-115733998D01*
X142020999Y-115709152D01*
X142020999Y-115709145D01*
X142013677Y-115634806D01*
X141984744Y-115539424D01*
X141937758Y-115451520D01*
X141874526Y-115374472D01*
X141855219Y-115358627D01*
X140481000Y-113984409D01*
X140481000Y-113842078D01*
X140450987Y-113691191D01*
X140427696Y-113634963D01*
X140439247Y-113630921D01*
X140468663Y-113622891D01*
X140505021Y-113604750D01*
X140541865Y-113587639D01*
X140566484Y-113569647D01*
X140599127Y-113549135D01*
X140607354Y-113566851D01*
X140625348Y-113591473D01*
X140680369Y-113679036D01*
X140694744Y-113705931D01*
X140720521Y-113737340D01*
X140745402Y-113769454D01*
X140768422Y-113789452D01*
X140841547Y-113862577D01*
X140861545Y-113885597D01*
X140893659Y-113910478D01*
X140925068Y-113936255D01*
X140951963Y-113950630D01*
X141039529Y-114005653D01*
X141064148Y-114023645D01*
X141100986Y-114040753D01*
X141137345Y-114058895D01*
X141166766Y-114066926D01*
X141264374Y-114101080D01*
X141292382Y-114113145D01*
X141332110Y-114121628D01*
X141371595Y-114131225D01*
X141402069Y-114132508D01*
X141477888Y-114141051D01*
X141481148Y-114142040D01*
X141524951Y-114146354D01*
X141545059Y-114148620D01*
X141548437Y-114148667D01*
X141551814Y-114149000D01*
X141572148Y-114149000D01*
X141609435Y-114149523D01*
X141609939Y-114149616D01*
X141612999Y-114149573D01*
X141616060Y-114149616D01*
X141616564Y-114149523D01*
X141653851Y-114149000D01*
X141674185Y-114149000D01*
X141677562Y-114148667D01*
X141680939Y-114148620D01*
X141701040Y-114146355D01*
X141744851Y-114142040D01*
X141748111Y-114141051D01*
X141823929Y-114132508D01*
X141854403Y-114131225D01*
X141893890Y-114121628D01*
X141933617Y-114113145D01*
X141961624Y-114101081D01*
X142059238Y-114066925D01*
X142088654Y-114058895D01*
X142125006Y-114040757D01*
X142161851Y-114023645D01*
X142186473Y-114005651D01*
X142274036Y-113950630D01*
X142300931Y-113936255D01*
X142332340Y-113910478D01*
X142364454Y-113885597D01*
X142384452Y-113862577D01*
X142457577Y-113789452D01*
X142463000Y-113784741D01*
X142468422Y-113789452D01*
X142541547Y-113862577D01*
X142561545Y-113885597D01*
X142593659Y-113910478D01*
X142625068Y-113936255D01*
X142651963Y-113950630D01*
X142739529Y-114005653D01*
X142764148Y-114023645D01*
X142800986Y-114040753D01*
X142837345Y-114058895D01*
X142866766Y-114066926D01*
X142964374Y-114101080D01*
X142992382Y-114113145D01*
X143032110Y-114121628D01*
X143071595Y-114131225D01*
X143102069Y-114132508D01*
X143177888Y-114141051D01*
X143181148Y-114142040D01*
X143224951Y-114146354D01*
X143245059Y-114148620D01*
X143248437Y-114148667D01*
X143251814Y-114149000D01*
X143272148Y-114149000D01*
X143309435Y-114149523D01*
X143309939Y-114149616D01*
X143312999Y-114149573D01*
X143316060Y-114149616D01*
X143316564Y-114149523D01*
X143353851Y-114149000D01*
X143374185Y-114149000D01*
X143377562Y-114148667D01*
X143380939Y-114148620D01*
X143401040Y-114146355D01*
X143444851Y-114142040D01*
X143448111Y-114141051D01*
X143523929Y-114132508D01*
X143554403Y-114131225D01*
X143593890Y-114121628D01*
X143633617Y-114113145D01*
X143661624Y-114101081D01*
X143759238Y-114066925D01*
X143788654Y-114058895D01*
X143825006Y-114040757D01*
X143861851Y-114023645D01*
X143886473Y-114005651D01*
X143974036Y-113950630D01*
X144000931Y-113936255D01*
X144032340Y-113910478D01*
X144064454Y-113885597D01*
X144084452Y-113862577D01*
X144157577Y-113789452D01*
X144163000Y-113784741D01*
X144168422Y-113789452D01*
X144241547Y-113862577D01*
X144261545Y-113885597D01*
X144293659Y-113910478D01*
X144325068Y-113936255D01*
X144351963Y-113950630D01*
X144439529Y-114005653D01*
X144464148Y-114023645D01*
X144500986Y-114040753D01*
X144537345Y-114058895D01*
X144566766Y-114066926D01*
X144664374Y-114101080D01*
X144692382Y-114113145D01*
X144732110Y-114121628D01*
X144771595Y-114131225D01*
X144802069Y-114132508D01*
X144877888Y-114141051D01*
X144881148Y-114142040D01*
X144924951Y-114146354D01*
X144945059Y-114148620D01*
X144948437Y-114148667D01*
X144951814Y-114149000D01*
X144972148Y-114149000D01*
X145009435Y-114149523D01*
X145009939Y-114149616D01*
X145012999Y-114149573D01*
X145016060Y-114149616D01*
X145016564Y-114149523D01*
X145053851Y-114149000D01*
X145074185Y-114149000D01*
X145077562Y-114148667D01*
X145080939Y-114148620D01*
X145101040Y-114146355D01*
X145144851Y-114142040D01*
X145148111Y-114141051D01*
X145223929Y-114132508D01*
X145254403Y-114131225D01*
X145293890Y-114121628D01*
X145333617Y-114113145D01*
X145361624Y-114101081D01*
X145459238Y-114066925D01*
X145488654Y-114058895D01*
X145525006Y-114040757D01*
X145561851Y-114023645D01*
X145586473Y-114005651D01*
X145674036Y-113950630D01*
X145700931Y-113936255D01*
X145732340Y-113910478D01*
X145764454Y-113885597D01*
X145784452Y-113862577D01*
X145857577Y-113789452D01*
X145880597Y-113769454D01*
X145905478Y-113737340D01*
X145931255Y-113705931D01*
X145945630Y-113679036D01*
X146000653Y-113591470D01*
X146018645Y-113566851D01*
X146035753Y-113530013D01*
X146053895Y-113493654D01*
X146061926Y-113464233D01*
X146096080Y-113366625D01*
X146108145Y-113338617D01*
X146116628Y-113298889D01*
X146126225Y-113259404D01*
X146127508Y-113228930D01*
X146136051Y-113153111D01*
X146137040Y-113149851D01*
X146141354Y-113106048D01*
X146143620Y-113085940D01*
X146143667Y-113082562D01*
X146144000Y-113079185D01*
X146144000Y-113058851D01*
X146144616Y-113014939D01*
X146144000Y-113011598D01*
X146144000Y-112783921D01*
X146164148Y-112798646D01*
X146200986Y-112815754D01*
X146237345Y-112833896D01*
X146266766Y-112841927D01*
X146364373Y-112876081D01*
X146392385Y-112888147D01*
X146432118Y-112896631D01*
X146471595Y-112906226D01*
X146502067Y-112907509D01*
X146577892Y-112916052D01*
X146581149Y-112917040D01*
X146617143Y-112920585D01*
X146612883Y-112931290D01*
X146568017Y-113024456D01*
X146552894Y-113050935D01*
X146540013Y-113089469D01*
X146526058Y-113127626D01*
X146521373Y-113157755D01*
X146498360Y-113258579D01*
X146489507Y-113287762D01*
X146485524Y-113328199D01*
X146480411Y-113368494D01*
X146482547Y-113398907D01*
X146482547Y-113502343D01*
X146480411Y-113532756D01*
X146485524Y-113573047D01*
X146489507Y-113613489D01*
X146498361Y-113642675D01*
X146521373Y-113743495D01*
X146526058Y-113773624D01*
X146540007Y-113811763D01*
X146552894Y-113850315D01*
X146568017Y-113876794D01*
X146612883Y-113969960D01*
X146624159Y-113998300D01*
X146646255Y-114032394D01*
X146667385Y-114067094D01*
X146688024Y-114089547D01*
X146735602Y-114149208D01*
X146737205Y-114152208D01*
X146765092Y-114186188D01*
X146777745Y-114202055D01*
X146780106Y-114204484D01*
X146782252Y-114207098D01*
X146796589Y-114221435D01*
X146822623Y-114248210D01*
X146822914Y-114248632D01*
X146825110Y-114250768D01*
X146827246Y-114252964D01*
X146827668Y-114253255D01*
X146854443Y-114279289D01*
X146868780Y-114293626D01*
X146871394Y-114295772D01*
X146873823Y-114298133D01*
X146889693Y-114310789D01*
X146923670Y-114338673D01*
X146926669Y-114340276D01*
X146986333Y-114387857D01*
X147008784Y-114408493D01*
X147043474Y-114429617D01*
X147077578Y-114451719D01*
X147105917Y-114462994D01*
X147199090Y-114507864D01*
X147225563Y-114522984D01*
X147264086Y-114535861D01*
X147302253Y-114549820D01*
X147332385Y-114554506D01*
X147433203Y-114577517D01*
X147462389Y-114586371D01*
X147502831Y-114590354D01*
X147543122Y-114595467D01*
X147573536Y-114593331D01*
X147676971Y-114593331D01*
X147707384Y-114595467D01*
X147747675Y-114590354D01*
X147788117Y-114586371D01*
X147817303Y-114577517D01*
X147918123Y-114554505D01*
X147948252Y-114549820D01*
X147986409Y-114535865D01*
X148024943Y-114522984D01*
X148051422Y-114507861D01*
X148144588Y-114462995D01*
X148172928Y-114451719D01*
X148207022Y-114429623D01*
X148241722Y-114408493D01*
X148264175Y-114387854D01*
X148323838Y-114340275D01*
X148326837Y-114338672D01*
X148360787Y-114310810D01*
X148376683Y-114298133D01*
X148379118Y-114295765D01*
X148381726Y-114293625D01*
X148396025Y-114279326D01*
X148427592Y-114248632D01*
X148429523Y-114245827D01*
X148491458Y-114183893D01*
X148995922Y-114688359D01*
X148995927Y-114688363D01*
X149624354Y-115316791D01*
X149624355Y-117579717D01*
X149622027Y-117603353D01*
X149631314Y-117697645D01*
X149649846Y-117758734D01*
X149658819Y-117788314D01*
X149703483Y-117871875D01*
X149763591Y-117945117D01*
X149781943Y-117960178D01*
X150185260Y-118363495D01*
X150157760Y-118381870D01*
X150069869Y-118469761D01*
X150000814Y-118573109D01*
X149953248Y-118687944D01*
X149928999Y-118809852D01*
X149928999Y-118934148D01*
X149953248Y-119056056D01*
X150000814Y-119170891D01*
X150069869Y-119274239D01*
X150157760Y-119362130D01*
X150261108Y-119431185D01*
X150375943Y-119478751D01*
X150497851Y-119503000D01*
X150622147Y-119503000D01*
X150629000Y-119501637D01*
X150629001Y-121547356D01*
X150539891Y-121487815D01*
X150425056Y-121440249D01*
X150303148Y-121416000D01*
X150178852Y-121416000D01*
X150056944Y-121440249D01*
X149942109Y-121487815D01*
X149838761Y-121556870D01*
X149750870Y-121644761D01*
X149681815Y-121748109D01*
X149634249Y-121862944D01*
X149610000Y-121984852D01*
X149610000Y-122109148D01*
X149634249Y-122231056D01*
X149681815Y-122345891D01*
X149735000Y-122425488D01*
X149735001Y-123339690D01*
X149706809Y-123328013D01*
X149555922Y-123298000D01*
X149402078Y-123298000D01*
X149251191Y-123328013D01*
X149109058Y-123386887D01*
X148981141Y-123472358D01*
X148952724Y-123500775D01*
X148829931Y-123418727D01*
X148687798Y-123359853D01*
X148536911Y-123329840D01*
X148383067Y-123329840D01*
X148232180Y-123359853D01*
X148090047Y-123418727D01*
X147970863Y-123498362D01*
X147944860Y-123472359D01*
X147816943Y-123386888D01*
X147674810Y-123328014D01*
X147523923Y-123298001D01*
X147370079Y-123298001D01*
X147219192Y-123328014D01*
X147077059Y-123386888D01*
X146949142Y-123472359D01*
X146840359Y-123581142D01*
X146792843Y-123652255D01*
X146792843Y-123294000D01*
X146785487Y-123219311D01*
X146763701Y-123147492D01*
X146728322Y-123081304D01*
X146680711Y-123023289D01*
X146622696Y-122975678D01*
X146556508Y-122940299D01*
X146484689Y-122918513D01*
X146410000Y-122911157D01*
X145010000Y-122911157D01*
X144935311Y-122918513D01*
X144863492Y-122940299D01*
X144797304Y-122975678D01*
X144739289Y-123023289D01*
X144691678Y-123081304D01*
X144656299Y-123147492D01*
X144634513Y-123219311D01*
X144627157Y-123294000D01*
X144627157Y-124465263D01*
X144622117Y-124464260D01*
X144497821Y-124464260D01*
X144375913Y-124488509D01*
X144261078Y-124536075D01*
X144225679Y-124559728D01*
X144189891Y-124535815D01*
X144075056Y-124488249D01*
X143963270Y-124466013D01*
X143942185Y-124415109D01*
X143873130Y-124311761D01*
X143785239Y-124223870D01*
X143681891Y-124154815D01*
X143567056Y-124107249D01*
X143506000Y-124095104D01*
X143506000Y-124016852D01*
X143481751Y-123894944D01*
X143434185Y-123780109D01*
X143365130Y-123676761D01*
X143277239Y-123588870D01*
X143173891Y-123519815D01*
X143059056Y-123472249D01*
X142937148Y-123448000D01*
X142812852Y-123448000D01*
X142690944Y-123472249D01*
X142576109Y-123519815D01*
X142472761Y-123588870D01*
X142384870Y-123676761D01*
X142315815Y-123780109D01*
X142268249Y-123894944D01*
X142244000Y-124016852D01*
X142244000Y-124141148D01*
X142268249Y-124263056D01*
X142315815Y-124377891D01*
X142384870Y-124481239D01*
X142405079Y-124501448D01*
X142322109Y-124535815D01*
X142303500Y-124548249D01*
X142284891Y-124535815D01*
X142170056Y-124488249D01*
X142048148Y-124464000D01*
X141923852Y-124464000D01*
X141801944Y-124488249D01*
X141687109Y-124535815D01*
X141668500Y-124548249D01*
X141649891Y-124535815D01*
X141535056Y-124488249D01*
X141413148Y-124464000D01*
X141288852Y-124464000D01*
X141166944Y-124488249D01*
X141052109Y-124535815D01*
X141033500Y-124548249D01*
X141014891Y-124535815D01*
X140900056Y-124488249D01*
X140778148Y-124464000D01*
X140653852Y-124464000D01*
X140531944Y-124488249D01*
X140417109Y-124535815D01*
X140398500Y-124548249D01*
X140379891Y-124535815D01*
X140265056Y-124488249D01*
X140143148Y-124464000D01*
X140018852Y-124464000D01*
X139896944Y-124488249D01*
X139782109Y-124535815D01*
X139723466Y-124574999D01*
X139629992Y-124536281D01*
X139508084Y-124512032D01*
X139383788Y-124512032D01*
X139261880Y-124536281D01*
X139147045Y-124583847D01*
X139043697Y-124652902D01*
X139000788Y-124695811D01*
X133475000Y-119170023D01*
X133475000Y-119134456D01*
X133491471Y-119154526D01*
X133510778Y-119170371D01*
X138468627Y-124128221D01*
X138484472Y-124147528D01*
X138561520Y-124210760D01*
X138646303Y-124256078D01*
X138649424Y-124257746D01*
X138744805Y-124286679D01*
X138754693Y-124287653D01*
X138819145Y-124294001D01*
X138819152Y-124294001D01*
X138843998Y-124296448D01*
X138868844Y-124294001D01*
X140925151Y-124294001D01*
X140949997Y-124296448D01*
X140974843Y-124294001D01*
X140974851Y-124294001D01*
X141049190Y-124286679D01*
X141144572Y-124257746D01*
X141232476Y-124210760D01*
X141309524Y-124147528D01*
X141325373Y-124128216D01*
X144043590Y-121410000D01*
X148819154Y-121410000D01*
X148844000Y-121412447D01*
X148868846Y-121410000D01*
X148868854Y-121410000D01*
X148943193Y-121402678D01*
X149038575Y-121373745D01*
X149126479Y-121326759D01*
X149203527Y-121263527D01*
X149219376Y-121244215D01*
X149442164Y-121021427D01*
X149536056Y-121002751D01*
X149650891Y-120955185D01*
X149754239Y-120886130D01*
X149842130Y-120798239D01*
X149911185Y-120694891D01*
X149958751Y-120580056D01*
X149983000Y-120458148D01*
X149983000Y-120333852D01*
X149958751Y-120211944D01*
X149911185Y-120097109D01*
X149842130Y-119993761D01*
X149754239Y-119905870D01*
X149650891Y-119836815D01*
X149536056Y-119789249D01*
X149414148Y-119765000D01*
X149289852Y-119765000D01*
X149167944Y-119789249D01*
X149053109Y-119836815D01*
X148970156Y-119892242D01*
X148953130Y-119866761D01*
X148865239Y-119778870D01*
X148761891Y-119709815D01*
X148647056Y-119662249D01*
X148525148Y-119638000D01*
X148400852Y-119638000D01*
X148278944Y-119662249D01*
X148164109Y-119709815D01*
X148060761Y-119778870D01*
X147972870Y-119866761D01*
X147903815Y-119970109D01*
X147856249Y-120084944D01*
X147832000Y-120206852D01*
X147832000Y-120331148D01*
X147845298Y-120398000D01*
X143858843Y-120398000D01*
X143833997Y-120395553D01*
X143809151Y-120398000D01*
X143809144Y-120398000D01*
X143744692Y-120404348D01*
X143734804Y-120405322D01*
X143729230Y-120407013D01*
X143639423Y-120434255D01*
X143551519Y-120481241D01*
X143474471Y-120544473D01*
X143458627Y-120563779D01*
X140740406Y-123282001D01*
X139053591Y-123282001D01*
X136455671Y-120684081D01*
X137268000Y-120684081D01*
X137268000Y-120837925D01*
X137298013Y-120988812D01*
X137356887Y-121130945D01*
X137442358Y-121258862D01*
X137551141Y-121367645D01*
X137679058Y-121453116D01*
X137821191Y-121511990D01*
X137972078Y-121542003D01*
X138125922Y-121542003D01*
X138276809Y-121511990D01*
X138418942Y-121453116D01*
X138540044Y-121372199D01*
X138568013Y-121512809D01*
X138626887Y-121654942D01*
X138634276Y-121666000D01*
X138626887Y-121677058D01*
X138568013Y-121819191D01*
X138538000Y-121970078D01*
X138538000Y-122123922D01*
X138568013Y-122274809D01*
X138626887Y-122416942D01*
X138712358Y-122544859D01*
X138821141Y-122653642D01*
X138949058Y-122739113D01*
X139091191Y-122797987D01*
X139242078Y-122828000D01*
X139395922Y-122828000D01*
X139546809Y-122797987D01*
X139688942Y-122739113D01*
X139816859Y-122653642D01*
X139925642Y-122544859D01*
X140011113Y-122416942D01*
X140069987Y-122274809D01*
X140100000Y-122123922D01*
X140100000Y-121970078D01*
X140069987Y-121819191D01*
X140011113Y-121677058D01*
X140003724Y-121666000D01*
X140011113Y-121654942D01*
X140069987Y-121512809D01*
X140100000Y-121361922D01*
X140100000Y-121208078D01*
X140074739Y-121081078D01*
X140570000Y-121081078D01*
X140570000Y-121234922D01*
X140600013Y-121385809D01*
X140658887Y-121527942D01*
X140744358Y-121655859D01*
X140853141Y-121764642D01*
X140981058Y-121850113D01*
X141123191Y-121908987D01*
X141274078Y-121939000D01*
X141427922Y-121939000D01*
X141578809Y-121908987D01*
X141720942Y-121850113D01*
X141848859Y-121764642D01*
X141957642Y-121655859D01*
X142043113Y-121527942D01*
X142101987Y-121385809D01*
X142132000Y-121234922D01*
X142132000Y-121081078D01*
X142101987Y-120930191D01*
X142043113Y-120788058D01*
X141957642Y-120660141D01*
X141848859Y-120551358D01*
X141829956Y-120538728D01*
X141880239Y-120505130D01*
X141968130Y-120417239D01*
X142037185Y-120313891D01*
X142084751Y-120199056D01*
X142109000Y-120077148D01*
X142109000Y-119952852D01*
X142084751Y-119830944D01*
X142037185Y-119716109D01*
X141968130Y-119612761D01*
X141880239Y-119524870D01*
X141776891Y-119455815D01*
X141662056Y-119408249D01*
X141540148Y-119384000D01*
X141415852Y-119384000D01*
X141293944Y-119408249D01*
X141179109Y-119455815D01*
X141075761Y-119524870D01*
X140987870Y-119612761D01*
X140918815Y-119716109D01*
X140871249Y-119830944D01*
X140847000Y-119952852D01*
X140847000Y-120077148D01*
X140871249Y-120199056D01*
X140918815Y-120313891D01*
X140987870Y-120417239D01*
X141020274Y-120449643D01*
X140981058Y-120465887D01*
X140853141Y-120551358D01*
X140744358Y-120660141D01*
X140658887Y-120788058D01*
X140600013Y-120930191D01*
X140570000Y-121081078D01*
X140074739Y-121081078D01*
X140069987Y-121057191D01*
X140011113Y-120915058D01*
X139925642Y-120787141D01*
X139816859Y-120678358D01*
X139688942Y-120592887D01*
X139546809Y-120534013D01*
X139395922Y-120504000D01*
X139242078Y-120504000D01*
X139091191Y-120534013D01*
X138949058Y-120592887D01*
X138827956Y-120673804D01*
X138799987Y-120533194D01*
X138741113Y-120391061D01*
X138655642Y-120263144D01*
X138546859Y-120154361D01*
X138418942Y-120068890D01*
X138276809Y-120010016D01*
X138125922Y-119980003D01*
X137972078Y-119980003D01*
X137821191Y-120010016D01*
X137679058Y-120068890D01*
X137551141Y-120154361D01*
X137442358Y-120263144D01*
X137356887Y-120391061D01*
X137298013Y-120533194D01*
X137268000Y-120684081D01*
X136455671Y-120684081D01*
X135198417Y-119426828D01*
X137953750Y-119425000D01*
X138049000Y-119329750D01*
X138049000Y-117671000D01*
X138029000Y-117671000D01*
X138029000Y-117417000D01*
X138049000Y-117417000D01*
X138049000Y-115758250D01*
X137953750Y-115663000D01*
X135176000Y-115661157D01*
X135101311Y-115668513D01*
X135029492Y-115690299D01*
X134963304Y-115725678D01*
X134905289Y-115773289D01*
X134857678Y-115831304D01*
X134822299Y-115897492D01*
X134800513Y-115969311D01*
X134793157Y-116044000D01*
X134794502Y-116976162D01*
X134652920Y-116948000D01*
X134499076Y-116948000D01*
X134356997Y-116976261D01*
X134356997Y-114657811D01*
X134759231Y-114255578D01*
X134778538Y-114239733D01*
X134841770Y-114162685D01*
X134888756Y-114074781D01*
X134892695Y-114061797D01*
X134917689Y-113979400D01*
X134920096Y-113954964D01*
X134925011Y-113905060D01*
X134925011Y-113905053D01*
X134927458Y-113880207D01*
X134925011Y-113855361D01*
X134925011Y-112628580D01*
X136137157Y-111416435D01*
X136137157Y-112068000D01*
G04 #@! TA.AperFunction,Conductor*
D26*
G36*
X136137157Y-112068000D02*
G01*
X136144513Y-112142689D01*
X136166299Y-112214508D01*
X136168166Y-112218000D01*
X136166299Y-112221492D01*
X136144513Y-112293311D01*
X136137157Y-112368000D01*
X136137157Y-113168000D01*
X136144513Y-113242689D01*
X136166299Y-113314508D01*
X136168166Y-113318000D01*
X136166299Y-113321492D01*
X136144513Y-113393311D01*
X136137157Y-113468000D01*
X136137157Y-114268000D01*
X136144513Y-114342689D01*
X136166299Y-114414508D01*
X136201678Y-114480696D01*
X136249289Y-114538711D01*
X136307304Y-114586322D01*
X136373492Y-114621701D01*
X136445311Y-114643487D01*
X136520000Y-114650843D01*
X138220000Y-114650843D01*
X138294689Y-114643487D01*
X138350986Y-114626409D01*
X138456191Y-114669987D01*
X138607078Y-114700000D01*
X138760922Y-114700000D01*
X138847775Y-114682724D01*
X138839358Y-114691141D01*
X138753887Y-114819058D01*
X138695013Y-114961191D01*
X138665000Y-115112078D01*
X138665000Y-115265922D01*
X138695013Y-115416809D01*
X138753887Y-115558942D01*
X138823228Y-115662718D01*
X138398250Y-115663000D01*
X138303000Y-115758250D01*
X138303000Y-117417000D01*
X138323000Y-117417000D01*
X138323000Y-117671000D01*
X138303000Y-117671000D01*
X138303000Y-119329750D01*
X138398250Y-119425000D01*
X141176000Y-119426843D01*
X141250689Y-119419487D01*
X141322508Y-119397701D01*
X141388696Y-119362322D01*
X141446711Y-119314711D01*
X141494322Y-119256696D01*
X141529701Y-119190508D01*
X141551487Y-119118689D01*
X141558843Y-119044000D01*
X141557000Y-117766250D01*
X141461752Y-117671002D01*
X141536409Y-117671002D01*
X142699626Y-118834220D01*
X142715471Y-118853527D01*
X142792519Y-118916759D01*
X142854263Y-118949762D01*
X142880423Y-118963745D01*
X142975805Y-118992678D01*
X143074998Y-119002448D01*
X143099852Y-119000000D01*
X144627157Y-119000000D01*
X144627157Y-119394000D01*
X144634513Y-119468689D01*
X144656299Y-119540508D01*
X144691678Y-119606696D01*
X144739289Y-119664711D01*
X144797304Y-119712322D01*
X144863492Y-119747701D01*
X144935311Y-119769487D01*
X145010000Y-119776843D01*
X146410000Y-119776843D01*
X146484689Y-119769487D01*
X146556508Y-119747701D01*
X146622696Y-119712322D01*
X146680711Y-119664711D01*
X146728322Y-119606696D01*
X146763701Y-119540508D01*
X146785487Y-119468689D01*
X146792843Y-119394000D01*
X146792843Y-118809856D01*
X148415582Y-118809856D01*
X148415582Y-118934152D01*
X148439831Y-119056060D01*
X148487397Y-119170895D01*
X148556452Y-119274243D01*
X148644343Y-119362134D01*
X148747691Y-119431189D01*
X148862526Y-119478755D01*
X148984434Y-119503004D01*
X149108730Y-119503004D01*
X149230638Y-119478755D01*
X149345473Y-119431189D01*
X149448821Y-119362134D01*
X149536712Y-119274243D01*
X149605767Y-119170895D01*
X149653333Y-119056060D01*
X149677582Y-118934152D01*
X149677582Y-118809856D01*
X149653333Y-118687948D01*
X149605767Y-118573113D01*
X149536712Y-118469765D01*
X149448821Y-118381874D01*
X149345473Y-118312819D01*
X149230638Y-118265253D01*
X149108730Y-118241004D01*
X148984434Y-118241004D01*
X148862526Y-118265253D01*
X148747691Y-118312819D01*
X148644343Y-118381874D01*
X148556452Y-118469765D01*
X148487397Y-118573113D01*
X148439831Y-118687948D01*
X148415582Y-118809856D01*
X146792843Y-118809856D01*
X146792843Y-117594000D01*
X146785487Y-117519311D01*
X146763701Y-117447492D01*
X146728322Y-117381304D01*
X146680711Y-117323289D01*
X146622696Y-117275678D01*
X146556508Y-117240299D01*
X146484689Y-117218513D01*
X146410000Y-117211157D01*
X145010000Y-117211157D01*
X144935311Y-117218513D01*
X144863492Y-117240299D01*
X144797304Y-117275678D01*
X144739289Y-117323289D01*
X144691678Y-117381304D01*
X144656299Y-117447492D01*
X144634513Y-117519311D01*
X144627157Y-117594000D01*
X144627157Y-117988000D01*
X143284590Y-117988000D01*
X142585024Y-117288434D01*
X142609942Y-117278113D01*
X142737859Y-117192642D01*
X142846642Y-117083859D01*
X142852589Y-117074958D01*
X142853761Y-117076130D01*
X142957109Y-117145185D01*
X143071944Y-117192751D01*
X143193852Y-117217000D01*
X143318148Y-117217000D01*
X143440056Y-117192751D01*
X143554891Y-117145185D01*
X143658239Y-117076130D01*
X143746130Y-116988239D01*
X143815185Y-116884891D01*
X143862751Y-116770056D01*
X143887000Y-116648148D01*
X143887000Y-116523852D01*
X143862751Y-116401944D01*
X143815185Y-116287109D01*
X143746130Y-116183761D01*
X143658239Y-116095870D01*
X143554891Y-116026815D01*
X143440056Y-115979249D01*
X143318148Y-115955000D01*
X143193852Y-115955000D01*
X143071944Y-115979249D01*
X142957109Y-116026815D01*
X142853761Y-116095870D01*
X142852589Y-116097042D01*
X142846642Y-116088141D01*
X142737859Y-115979358D01*
X142609942Y-115893887D01*
X142467809Y-115835013D01*
X142316922Y-115805000D01*
X142163078Y-115805000D01*
X142020999Y-115833261D01*
X142020999Y-115758844D01*
X142023446Y-115733998D01*
X142020999Y-115709152D01*
X142020999Y-115709145D01*
X142013677Y-115634806D01*
X141984744Y-115539424D01*
X141937758Y-115451520D01*
X141874526Y-115374472D01*
X141855219Y-115358627D01*
X140481000Y-113984409D01*
X140481000Y-113842078D01*
X140450987Y-113691191D01*
X140427696Y-113634963D01*
X140439247Y-113630921D01*
X140468663Y-113622891D01*
X140505021Y-113604750D01*
X140541865Y-113587639D01*
X140566484Y-113569647D01*
X140599127Y-113549135D01*
X140607354Y-113566851D01*
X140625348Y-113591473D01*
X140680369Y-113679036D01*
X140694744Y-113705931D01*
X140720521Y-113737340D01*
X140745402Y-113769454D01*
X140768422Y-113789452D01*
X140841547Y-113862577D01*
X140861545Y-113885597D01*
X140893659Y-113910478D01*
X140925068Y-113936255D01*
X140951963Y-113950630D01*
X141039529Y-114005653D01*
X141064148Y-114023645D01*
X141100986Y-114040753D01*
X141137345Y-114058895D01*
X141166766Y-114066926D01*
X141264374Y-114101080D01*
X141292382Y-114113145D01*
X141332110Y-114121628D01*
X141371595Y-114131225D01*
X141402069Y-114132508D01*
X141477888Y-114141051D01*
X141481148Y-114142040D01*
X141524951Y-114146354D01*
X141545059Y-114148620D01*
X141548437Y-114148667D01*
X141551814Y-114149000D01*
X141572148Y-114149000D01*
X141609435Y-114149523D01*
X141609939Y-114149616D01*
X141612999Y-114149573D01*
X141616060Y-114149616D01*
X141616564Y-114149523D01*
X141653851Y-114149000D01*
X141674185Y-114149000D01*
X141677562Y-114148667D01*
X141680939Y-114148620D01*
X141701040Y-114146355D01*
X141744851Y-114142040D01*
X141748111Y-114141051D01*
X141823929Y-114132508D01*
X141854403Y-114131225D01*
X141893890Y-114121628D01*
X141933617Y-114113145D01*
X141961624Y-114101081D01*
X142059238Y-114066925D01*
X142088654Y-114058895D01*
X142125006Y-114040757D01*
X142161851Y-114023645D01*
X142186473Y-114005651D01*
X142274036Y-113950630D01*
X142300931Y-113936255D01*
X142332340Y-113910478D01*
X142364454Y-113885597D01*
X142384452Y-113862577D01*
X142457577Y-113789452D01*
X142463000Y-113784741D01*
X142468422Y-113789452D01*
X142541547Y-113862577D01*
X142561545Y-113885597D01*
X142593659Y-113910478D01*
X142625068Y-113936255D01*
X142651963Y-113950630D01*
X142739529Y-114005653D01*
X142764148Y-114023645D01*
X142800986Y-114040753D01*
X142837345Y-114058895D01*
X142866766Y-114066926D01*
X142964374Y-114101080D01*
X142992382Y-114113145D01*
X143032110Y-114121628D01*
X143071595Y-114131225D01*
X143102069Y-114132508D01*
X143177888Y-114141051D01*
X143181148Y-114142040D01*
X143224951Y-114146354D01*
X143245059Y-114148620D01*
X143248437Y-114148667D01*
X143251814Y-114149000D01*
X143272148Y-114149000D01*
X143309435Y-114149523D01*
X143309939Y-114149616D01*
X143312999Y-114149573D01*
X143316060Y-114149616D01*
X143316564Y-114149523D01*
X143353851Y-114149000D01*
X143374185Y-114149000D01*
X143377562Y-114148667D01*
X143380939Y-114148620D01*
X143401040Y-114146355D01*
X143444851Y-114142040D01*
X143448111Y-114141051D01*
X143523929Y-114132508D01*
X143554403Y-114131225D01*
X143593890Y-114121628D01*
X143633617Y-114113145D01*
X143661624Y-114101081D01*
X143759238Y-114066925D01*
X143788654Y-114058895D01*
X143825006Y-114040757D01*
X143861851Y-114023645D01*
X143886473Y-114005651D01*
X143974036Y-113950630D01*
X144000931Y-113936255D01*
X144032340Y-113910478D01*
X144064454Y-113885597D01*
X144084452Y-113862577D01*
X144157577Y-113789452D01*
X144163000Y-113784741D01*
X144168422Y-113789452D01*
X144241547Y-113862577D01*
X144261545Y-113885597D01*
X144293659Y-113910478D01*
X144325068Y-113936255D01*
X144351963Y-113950630D01*
X144439529Y-114005653D01*
X144464148Y-114023645D01*
X144500986Y-114040753D01*
X144537345Y-114058895D01*
X144566766Y-114066926D01*
X144664374Y-114101080D01*
X144692382Y-114113145D01*
X144732110Y-114121628D01*
X144771595Y-114131225D01*
X144802069Y-114132508D01*
X144877888Y-114141051D01*
X144881148Y-114142040D01*
X144924951Y-114146354D01*
X144945059Y-114148620D01*
X144948437Y-114148667D01*
X144951814Y-114149000D01*
X144972148Y-114149000D01*
X145009435Y-114149523D01*
X145009939Y-114149616D01*
X145012999Y-114149573D01*
X145016060Y-114149616D01*
X145016564Y-114149523D01*
X145053851Y-114149000D01*
X145074185Y-114149000D01*
X145077562Y-114148667D01*
X145080939Y-114148620D01*
X145101040Y-114146355D01*
X145144851Y-114142040D01*
X145148111Y-114141051D01*
X145223929Y-114132508D01*
X145254403Y-114131225D01*
X145293890Y-114121628D01*
X145333617Y-114113145D01*
X145361624Y-114101081D01*
X145459238Y-114066925D01*
X145488654Y-114058895D01*
X145525006Y-114040757D01*
X145561851Y-114023645D01*
X145586473Y-114005651D01*
X145674036Y-113950630D01*
X145700931Y-113936255D01*
X145732340Y-113910478D01*
X145764454Y-113885597D01*
X145784452Y-113862577D01*
X145857577Y-113789452D01*
X145880597Y-113769454D01*
X145905478Y-113737340D01*
X145931255Y-113705931D01*
X145945630Y-113679036D01*
X146000653Y-113591470D01*
X146018645Y-113566851D01*
X146035753Y-113530013D01*
X146053895Y-113493654D01*
X146061926Y-113464233D01*
X146096080Y-113366625D01*
X146108145Y-113338617D01*
X146116628Y-113298889D01*
X146126225Y-113259404D01*
X146127508Y-113228930D01*
X146136051Y-113153111D01*
X146137040Y-113149851D01*
X146141354Y-113106048D01*
X146143620Y-113085940D01*
X146143667Y-113082562D01*
X146144000Y-113079185D01*
X146144000Y-113058851D01*
X146144616Y-113014939D01*
X146144000Y-113011598D01*
X146144000Y-112783921D01*
X146164148Y-112798646D01*
X146200986Y-112815754D01*
X146237345Y-112833896D01*
X146266766Y-112841927D01*
X146364373Y-112876081D01*
X146392385Y-112888147D01*
X146432118Y-112896631D01*
X146471595Y-112906226D01*
X146502067Y-112907509D01*
X146577892Y-112916052D01*
X146581149Y-112917040D01*
X146617143Y-112920585D01*
X146612883Y-112931290D01*
X146568017Y-113024456D01*
X146552894Y-113050935D01*
X146540013Y-113089469D01*
X146526058Y-113127626D01*
X146521373Y-113157755D01*
X146498360Y-113258579D01*
X146489507Y-113287762D01*
X146485524Y-113328199D01*
X146480411Y-113368494D01*
X146482547Y-113398907D01*
X146482547Y-113502343D01*
X146480411Y-113532756D01*
X146485524Y-113573047D01*
X146489507Y-113613489D01*
X146498361Y-113642675D01*
X146521373Y-113743495D01*
X146526058Y-113773624D01*
X146540007Y-113811763D01*
X146552894Y-113850315D01*
X146568017Y-113876794D01*
X146612883Y-113969960D01*
X146624159Y-113998300D01*
X146646255Y-114032394D01*
X146667385Y-114067094D01*
X146688024Y-114089547D01*
X146735602Y-114149208D01*
X146737205Y-114152208D01*
X146765092Y-114186188D01*
X146777745Y-114202055D01*
X146780106Y-114204484D01*
X146782252Y-114207098D01*
X146796589Y-114221435D01*
X146822623Y-114248210D01*
X146822914Y-114248632D01*
X146825110Y-114250768D01*
X146827246Y-114252964D01*
X146827668Y-114253255D01*
X146854443Y-114279289D01*
X146868780Y-114293626D01*
X146871394Y-114295772D01*
X146873823Y-114298133D01*
X146889693Y-114310789D01*
X146923670Y-114338673D01*
X146926669Y-114340276D01*
X146986333Y-114387857D01*
X147008784Y-114408493D01*
X147043474Y-114429617D01*
X147077578Y-114451719D01*
X147105917Y-114462994D01*
X147199090Y-114507864D01*
X147225563Y-114522984D01*
X147264086Y-114535861D01*
X147302253Y-114549820D01*
X147332385Y-114554506D01*
X147433203Y-114577517D01*
X147462389Y-114586371D01*
X147502831Y-114590354D01*
X147543122Y-114595467D01*
X147573536Y-114593331D01*
X147676971Y-114593331D01*
X147707384Y-114595467D01*
X147747675Y-114590354D01*
X147788117Y-114586371D01*
X147817303Y-114577517D01*
X147918123Y-114554505D01*
X147948252Y-114549820D01*
X147986409Y-114535865D01*
X148024943Y-114522984D01*
X148051422Y-114507861D01*
X148144588Y-114462995D01*
X148172928Y-114451719D01*
X148207022Y-114429623D01*
X148241722Y-114408493D01*
X148264175Y-114387854D01*
X148323838Y-114340275D01*
X148326837Y-114338672D01*
X148360787Y-114310810D01*
X148376683Y-114298133D01*
X148379118Y-114295765D01*
X148381726Y-114293625D01*
X148396025Y-114279326D01*
X148427592Y-114248632D01*
X148429523Y-114245827D01*
X148491458Y-114183893D01*
X148995922Y-114688359D01*
X148995927Y-114688363D01*
X149624354Y-115316791D01*
X149624355Y-117579717D01*
X149622027Y-117603353D01*
X149631314Y-117697645D01*
X149649846Y-117758734D01*
X149658819Y-117788314D01*
X149703483Y-117871875D01*
X149763591Y-117945117D01*
X149781943Y-117960178D01*
X150185260Y-118363495D01*
X150157760Y-118381870D01*
X150069869Y-118469761D01*
X150000814Y-118573109D01*
X149953248Y-118687944D01*
X149928999Y-118809852D01*
X149928999Y-118934148D01*
X149953248Y-119056056D01*
X150000814Y-119170891D01*
X150069869Y-119274239D01*
X150157760Y-119362130D01*
X150261108Y-119431185D01*
X150375943Y-119478751D01*
X150497851Y-119503000D01*
X150622147Y-119503000D01*
X150629000Y-119501637D01*
X150629001Y-121547356D01*
X150539891Y-121487815D01*
X150425056Y-121440249D01*
X150303148Y-121416000D01*
X150178852Y-121416000D01*
X150056944Y-121440249D01*
X149942109Y-121487815D01*
X149838761Y-121556870D01*
X149750870Y-121644761D01*
X149681815Y-121748109D01*
X149634249Y-121862944D01*
X149610000Y-121984852D01*
X149610000Y-122109148D01*
X149634249Y-122231056D01*
X149681815Y-122345891D01*
X149735000Y-122425488D01*
X149735001Y-123339690D01*
X149706809Y-123328013D01*
X149555922Y-123298000D01*
X149402078Y-123298000D01*
X149251191Y-123328013D01*
X149109058Y-123386887D01*
X148981141Y-123472358D01*
X148952724Y-123500775D01*
X148829931Y-123418727D01*
X148687798Y-123359853D01*
X148536911Y-123329840D01*
X148383067Y-123329840D01*
X148232180Y-123359853D01*
X148090047Y-123418727D01*
X147970863Y-123498362D01*
X147944860Y-123472359D01*
X147816943Y-123386888D01*
X147674810Y-123328014D01*
X147523923Y-123298001D01*
X147370079Y-123298001D01*
X147219192Y-123328014D01*
X147077059Y-123386888D01*
X146949142Y-123472359D01*
X146840359Y-123581142D01*
X146792843Y-123652255D01*
X146792843Y-123294000D01*
X146785487Y-123219311D01*
X146763701Y-123147492D01*
X146728322Y-123081304D01*
X146680711Y-123023289D01*
X146622696Y-122975678D01*
X146556508Y-122940299D01*
X146484689Y-122918513D01*
X146410000Y-122911157D01*
X145010000Y-122911157D01*
X144935311Y-122918513D01*
X144863492Y-122940299D01*
X144797304Y-122975678D01*
X144739289Y-123023289D01*
X144691678Y-123081304D01*
X144656299Y-123147492D01*
X144634513Y-123219311D01*
X144627157Y-123294000D01*
X144627157Y-124465263D01*
X144622117Y-124464260D01*
X144497821Y-124464260D01*
X144375913Y-124488509D01*
X144261078Y-124536075D01*
X144225679Y-124559728D01*
X144189891Y-124535815D01*
X144075056Y-124488249D01*
X143963270Y-124466013D01*
X143942185Y-124415109D01*
X143873130Y-124311761D01*
X143785239Y-124223870D01*
X143681891Y-124154815D01*
X143567056Y-124107249D01*
X143506000Y-124095104D01*
X143506000Y-124016852D01*
X143481751Y-123894944D01*
X143434185Y-123780109D01*
X143365130Y-123676761D01*
X143277239Y-123588870D01*
X143173891Y-123519815D01*
X143059056Y-123472249D01*
X142937148Y-123448000D01*
X142812852Y-123448000D01*
X142690944Y-123472249D01*
X142576109Y-123519815D01*
X142472761Y-123588870D01*
X142384870Y-123676761D01*
X142315815Y-123780109D01*
X142268249Y-123894944D01*
X142244000Y-124016852D01*
X142244000Y-124141148D01*
X142268249Y-124263056D01*
X142315815Y-124377891D01*
X142384870Y-124481239D01*
X142405079Y-124501448D01*
X142322109Y-124535815D01*
X142303500Y-124548249D01*
X142284891Y-124535815D01*
X142170056Y-124488249D01*
X142048148Y-124464000D01*
X141923852Y-124464000D01*
X141801944Y-124488249D01*
X141687109Y-124535815D01*
X141668500Y-124548249D01*
X141649891Y-124535815D01*
X141535056Y-124488249D01*
X141413148Y-124464000D01*
X141288852Y-124464000D01*
X141166944Y-124488249D01*
X141052109Y-124535815D01*
X141033500Y-124548249D01*
X141014891Y-124535815D01*
X140900056Y-124488249D01*
X140778148Y-124464000D01*
X140653852Y-124464000D01*
X140531944Y-124488249D01*
X140417109Y-124535815D01*
X140398500Y-124548249D01*
X140379891Y-124535815D01*
X140265056Y-124488249D01*
X140143148Y-124464000D01*
X140018852Y-124464000D01*
X139896944Y-124488249D01*
X139782109Y-124535815D01*
X139723466Y-124574999D01*
X139629992Y-124536281D01*
X139508084Y-124512032D01*
X139383788Y-124512032D01*
X139261880Y-124536281D01*
X139147045Y-124583847D01*
X139043697Y-124652902D01*
X139000788Y-124695811D01*
X133475000Y-119170023D01*
X133475000Y-119134456D01*
X133491471Y-119154526D01*
X133510778Y-119170371D01*
X138468627Y-124128221D01*
X138484472Y-124147528D01*
X138561520Y-124210760D01*
X138646303Y-124256078D01*
X138649424Y-124257746D01*
X138744805Y-124286679D01*
X138754693Y-124287653D01*
X138819145Y-124294001D01*
X138819152Y-124294001D01*
X138843998Y-124296448D01*
X138868844Y-124294001D01*
X140925151Y-124294001D01*
X140949997Y-124296448D01*
X140974843Y-124294001D01*
X140974851Y-124294001D01*
X141049190Y-124286679D01*
X141144572Y-124257746D01*
X141232476Y-124210760D01*
X141309524Y-124147528D01*
X141325373Y-124128216D01*
X144043590Y-121410000D01*
X148819154Y-121410000D01*
X148844000Y-121412447D01*
X148868846Y-121410000D01*
X148868854Y-121410000D01*
X148943193Y-121402678D01*
X149038575Y-121373745D01*
X149126479Y-121326759D01*
X149203527Y-121263527D01*
X149219376Y-121244215D01*
X149442164Y-121021427D01*
X149536056Y-121002751D01*
X149650891Y-120955185D01*
X149754239Y-120886130D01*
X149842130Y-120798239D01*
X149911185Y-120694891D01*
X149958751Y-120580056D01*
X149983000Y-120458148D01*
X149983000Y-120333852D01*
X149958751Y-120211944D01*
X149911185Y-120097109D01*
X149842130Y-119993761D01*
X149754239Y-119905870D01*
X149650891Y-119836815D01*
X149536056Y-119789249D01*
X149414148Y-119765000D01*
X149289852Y-119765000D01*
X149167944Y-119789249D01*
X149053109Y-119836815D01*
X148970156Y-119892242D01*
X148953130Y-119866761D01*
X148865239Y-119778870D01*
X148761891Y-119709815D01*
X148647056Y-119662249D01*
X148525148Y-119638000D01*
X148400852Y-119638000D01*
X148278944Y-119662249D01*
X148164109Y-119709815D01*
X148060761Y-119778870D01*
X147972870Y-119866761D01*
X147903815Y-119970109D01*
X147856249Y-120084944D01*
X147832000Y-120206852D01*
X147832000Y-120331148D01*
X147845298Y-120398000D01*
X143858843Y-120398000D01*
X143833997Y-120395553D01*
X143809151Y-120398000D01*
X143809144Y-120398000D01*
X143744692Y-120404348D01*
X143734804Y-120405322D01*
X143729230Y-120407013D01*
X143639423Y-120434255D01*
X143551519Y-120481241D01*
X143474471Y-120544473D01*
X143458627Y-120563779D01*
X140740406Y-123282001D01*
X139053591Y-123282001D01*
X136455671Y-120684081D01*
X137268000Y-120684081D01*
X137268000Y-120837925D01*
X137298013Y-120988812D01*
X137356887Y-121130945D01*
X137442358Y-121258862D01*
X137551141Y-121367645D01*
X137679058Y-121453116D01*
X137821191Y-121511990D01*
X137972078Y-121542003D01*
X138125922Y-121542003D01*
X138276809Y-121511990D01*
X138418942Y-121453116D01*
X138540044Y-121372199D01*
X138568013Y-121512809D01*
X138626887Y-121654942D01*
X138634276Y-121666000D01*
X138626887Y-121677058D01*
X138568013Y-121819191D01*
X138538000Y-121970078D01*
X138538000Y-122123922D01*
X138568013Y-122274809D01*
X138626887Y-122416942D01*
X138712358Y-122544859D01*
X138821141Y-122653642D01*
X138949058Y-122739113D01*
X139091191Y-122797987D01*
X139242078Y-122828000D01*
X139395922Y-122828000D01*
X139546809Y-122797987D01*
X139688942Y-122739113D01*
X139816859Y-122653642D01*
X139925642Y-122544859D01*
X140011113Y-122416942D01*
X140069987Y-122274809D01*
X140100000Y-122123922D01*
X140100000Y-121970078D01*
X140069987Y-121819191D01*
X140011113Y-121677058D01*
X140003724Y-121666000D01*
X140011113Y-121654942D01*
X140069987Y-121512809D01*
X140100000Y-121361922D01*
X140100000Y-121208078D01*
X140074739Y-121081078D01*
X140570000Y-121081078D01*
X140570000Y-121234922D01*
X140600013Y-121385809D01*
X140658887Y-121527942D01*
X140744358Y-121655859D01*
X140853141Y-121764642D01*
X140981058Y-121850113D01*
X141123191Y-121908987D01*
X141274078Y-121939000D01*
X141427922Y-121939000D01*
X141578809Y-121908987D01*
X141720942Y-121850113D01*
X141848859Y-121764642D01*
X141957642Y-121655859D01*
X142043113Y-121527942D01*
X142101987Y-121385809D01*
X142132000Y-121234922D01*
X142132000Y-121081078D01*
X142101987Y-120930191D01*
X142043113Y-120788058D01*
X141957642Y-120660141D01*
X141848859Y-120551358D01*
X141829956Y-120538728D01*
X141880239Y-120505130D01*
X141968130Y-120417239D01*
X142037185Y-120313891D01*
X142084751Y-120199056D01*
X142109000Y-120077148D01*
X142109000Y-119952852D01*
X142084751Y-119830944D01*
X142037185Y-119716109D01*
X141968130Y-119612761D01*
X141880239Y-119524870D01*
X141776891Y-119455815D01*
X141662056Y-119408249D01*
X141540148Y-119384000D01*
X141415852Y-119384000D01*
X141293944Y-119408249D01*
X141179109Y-119455815D01*
X141075761Y-119524870D01*
X140987870Y-119612761D01*
X140918815Y-119716109D01*
X140871249Y-119830944D01*
X140847000Y-119952852D01*
X140847000Y-120077148D01*
X140871249Y-120199056D01*
X140918815Y-120313891D01*
X140987870Y-120417239D01*
X141020274Y-120449643D01*
X140981058Y-120465887D01*
X140853141Y-120551358D01*
X140744358Y-120660141D01*
X140658887Y-120788058D01*
X140600013Y-120930191D01*
X140570000Y-121081078D01*
X140074739Y-121081078D01*
X140069987Y-121057191D01*
X140011113Y-120915058D01*
X139925642Y-120787141D01*
X139816859Y-120678358D01*
X139688942Y-120592887D01*
X139546809Y-120534013D01*
X139395922Y-120504000D01*
X139242078Y-120504000D01*
X139091191Y-120534013D01*
X138949058Y-120592887D01*
X138827956Y-120673804D01*
X138799987Y-120533194D01*
X138741113Y-120391061D01*
X138655642Y-120263144D01*
X138546859Y-120154361D01*
X138418942Y-120068890D01*
X138276809Y-120010016D01*
X138125922Y-119980003D01*
X137972078Y-119980003D01*
X137821191Y-120010016D01*
X137679058Y-120068890D01*
X137551141Y-120154361D01*
X137442358Y-120263144D01*
X137356887Y-120391061D01*
X137298013Y-120533194D01*
X137268000Y-120684081D01*
X136455671Y-120684081D01*
X135198417Y-119426828D01*
X137953750Y-119425000D01*
X138049000Y-119329750D01*
X138049000Y-117671000D01*
X138029000Y-117671000D01*
X138029000Y-117417000D01*
X138049000Y-117417000D01*
X138049000Y-115758250D01*
X137953750Y-115663000D01*
X135176000Y-115661157D01*
X135101311Y-115668513D01*
X135029492Y-115690299D01*
X134963304Y-115725678D01*
X134905289Y-115773289D01*
X134857678Y-115831304D01*
X134822299Y-115897492D01*
X134800513Y-115969311D01*
X134793157Y-116044000D01*
X134794502Y-116976162D01*
X134652920Y-116948000D01*
X134499076Y-116948000D01*
X134356997Y-116976261D01*
X134356997Y-114657811D01*
X134759231Y-114255578D01*
X134778538Y-114239733D01*
X134841770Y-114162685D01*
X134888756Y-114074781D01*
X134892695Y-114061797D01*
X134917689Y-113979400D01*
X134920096Y-113954964D01*
X134925011Y-113905060D01*
X134925011Y-113905053D01*
X134927458Y-113880207D01*
X134925011Y-113855361D01*
X134925011Y-112628580D01*
X136137157Y-111416435D01*
X136137157Y-112068000D01*
G37*
G04 #@! TD.AperFunction*
D25*
X160129012Y-121330397D02*
X159029410Y-122430000D01*
X157842843Y-122430000D01*
X157842843Y-121887321D01*
X157878870Y-121941239D01*
X157966761Y-122029130D01*
X158070109Y-122098185D01*
X158184944Y-122145751D01*
X158306852Y-122170000D01*
X158431148Y-122170000D01*
X158553056Y-122145751D01*
X158667891Y-122098185D01*
X158771239Y-122029130D01*
X158859130Y-121941239D01*
X158928185Y-121837891D01*
X158975751Y-121723056D01*
X158985649Y-121673298D01*
X160129012Y-120529935D01*
X160129012Y-121330397D01*
G04 #@! TA.AperFunction,Conductor*
D26*
G36*
X160129012Y-121330397D02*
G01*
X159029410Y-122430000D01*
X157842843Y-122430000D01*
X157842843Y-121887321D01*
X157878870Y-121941239D01*
X157966761Y-122029130D01*
X158070109Y-122098185D01*
X158184944Y-122145751D01*
X158306852Y-122170000D01*
X158431148Y-122170000D01*
X158553056Y-122145751D01*
X158667891Y-122098185D01*
X158771239Y-122029130D01*
X158859130Y-121941239D01*
X158928185Y-121837891D01*
X158975751Y-121723056D01*
X158985649Y-121673298D01*
X160129012Y-120529935D01*
X160129012Y-121330397D01*
G37*
G04 #@! TD.AperFunction*
D25*
X154877157Y-119001751D02*
X154877157Y-119184000D01*
X154884513Y-119258689D01*
X154906299Y-119330508D01*
X154941678Y-119396696D01*
X154989289Y-119454711D01*
X155047304Y-119502322D01*
X155077514Y-119518470D01*
X155079000Y-119661750D01*
X155174250Y-119757000D01*
X156333000Y-119757000D01*
X156333000Y-119737000D01*
X156587000Y-119737000D01*
X156587000Y-119757000D01*
X157745750Y-119757000D01*
X157841000Y-119661750D01*
X157842843Y-119484000D01*
X157835487Y-119409311D01*
X157813701Y-119337492D01*
X157778322Y-119271304D01*
X157730711Y-119213289D01*
X157672696Y-119165678D01*
X157642843Y-119149721D01*
X157642843Y-118384000D01*
X157635487Y-118309311D01*
X157613701Y-118237492D01*
X157611834Y-118234000D01*
X157613701Y-118230508D01*
X157635487Y-118158689D01*
X157642843Y-118084000D01*
X157642843Y-117867628D01*
X157697304Y-117912322D01*
X157763492Y-117947701D01*
X157835311Y-117969487D01*
X157910000Y-117976843D01*
X159629001Y-117976843D01*
X159629001Y-119528052D01*
X158234702Y-120922351D01*
X158184944Y-120932249D01*
X158070109Y-120979815D01*
X157966761Y-121048870D01*
X157878870Y-121136761D01*
X157809815Y-121240109D01*
X157762249Y-121354944D01*
X157746755Y-121432839D01*
X157730711Y-121413289D01*
X157672696Y-121365678D01*
X157642843Y-121349721D01*
X157642843Y-120618279D01*
X157672696Y-120602322D01*
X157730711Y-120554711D01*
X157778322Y-120496696D01*
X157813701Y-120430508D01*
X157835487Y-120358689D01*
X157842843Y-120284000D01*
X157841000Y-120106250D01*
X157745750Y-120011000D01*
X156587000Y-120011000D01*
X156587000Y-120031000D01*
X156333000Y-120031000D01*
X156333000Y-120011000D01*
X155174250Y-120011000D01*
X155079000Y-120106250D01*
X155077514Y-120249530D01*
X155047304Y-120265678D01*
X154989289Y-120313289D01*
X154941678Y-120371304D01*
X154940708Y-120373118D01*
X152652000Y-118084411D01*
X152652000Y-116776593D01*
X154877157Y-119001751D01*
G04 #@! TA.AperFunction,Conductor*
D26*
G36*
X154877157Y-119001751D02*
G01*
X154877157Y-119184000D01*
X154884513Y-119258689D01*
X154906299Y-119330508D01*
X154941678Y-119396696D01*
X154989289Y-119454711D01*
X155047304Y-119502322D01*
X155077514Y-119518470D01*
X155079000Y-119661750D01*
X155174250Y-119757000D01*
X156333000Y-119757000D01*
X156333000Y-119737000D01*
X156587000Y-119737000D01*
X156587000Y-119757000D01*
X157745750Y-119757000D01*
X157841000Y-119661750D01*
X157842843Y-119484000D01*
X157835487Y-119409311D01*
X157813701Y-119337492D01*
X157778322Y-119271304D01*
X157730711Y-119213289D01*
X157672696Y-119165678D01*
X157642843Y-119149721D01*
X157642843Y-118384000D01*
X157635487Y-118309311D01*
X157613701Y-118237492D01*
X157611834Y-118234000D01*
X157613701Y-118230508D01*
X157635487Y-118158689D01*
X157642843Y-118084000D01*
X157642843Y-117867628D01*
X157697304Y-117912322D01*
X157763492Y-117947701D01*
X157835311Y-117969487D01*
X157910000Y-117976843D01*
X159629001Y-117976843D01*
X159629001Y-119528052D01*
X158234702Y-120922351D01*
X158184944Y-120932249D01*
X158070109Y-120979815D01*
X157966761Y-121048870D01*
X157878870Y-121136761D01*
X157809815Y-121240109D01*
X157762249Y-121354944D01*
X157746755Y-121432839D01*
X157730711Y-121413289D01*
X157672696Y-121365678D01*
X157642843Y-121349721D01*
X157642843Y-120618279D01*
X157672696Y-120602322D01*
X157730711Y-120554711D01*
X157778322Y-120496696D01*
X157813701Y-120430508D01*
X157835487Y-120358689D01*
X157842843Y-120284000D01*
X157841000Y-120106250D01*
X157745750Y-120011000D01*
X156587000Y-120011000D01*
X156587000Y-120031000D01*
X156333000Y-120031000D01*
X156333000Y-120011000D01*
X155174250Y-120011000D01*
X155079000Y-120106250D01*
X155077514Y-120249530D01*
X155047304Y-120265678D01*
X154989289Y-120313289D01*
X154941678Y-120371304D01*
X154940708Y-120373118D01*
X152652000Y-118084411D01*
X152652000Y-116776593D01*
X154877157Y-119001751D01*
G37*
G04 #@! TD.AperFunction*
D25*
X152537157Y-108768000D02*
X152544513Y-108842689D01*
X152566299Y-108914508D01*
X152568166Y-108918000D01*
X152566299Y-108921492D01*
X152544513Y-108993311D01*
X152537157Y-109068000D01*
X152537157Y-109868000D01*
X152544513Y-109942689D01*
X152566299Y-110014508D01*
X152568166Y-110018000D01*
X152566299Y-110021492D01*
X152544513Y-110093311D01*
X152537157Y-110168000D01*
X152537157Y-110968000D01*
X152544513Y-111042689D01*
X152566299Y-111114508D01*
X152568166Y-111118000D01*
X152566299Y-111121492D01*
X152544513Y-111193311D01*
X152537157Y-111268000D01*
X152537157Y-112068000D01*
X152544513Y-112142689D01*
X152566299Y-112214508D01*
X152568166Y-112218000D01*
X152566299Y-112221492D01*
X152544513Y-112293311D01*
X152537157Y-112368000D01*
X152539000Y-112545750D01*
X152634250Y-112641000D01*
X153643000Y-112641000D01*
X153643000Y-112621000D01*
X153897000Y-112621000D01*
X153897000Y-112641000D01*
X154905750Y-112641000D01*
X155001000Y-112545750D01*
X155002843Y-112368000D01*
X154995487Y-112293311D01*
X154973701Y-112221492D01*
X154971834Y-112218000D01*
X154973701Y-112214508D01*
X154995487Y-112142689D01*
X155002843Y-112068000D01*
X155002843Y-111781432D01*
X156085000Y-112863590D01*
X156085001Y-116334511D01*
X156031815Y-116414109D01*
X155984249Y-116528944D01*
X155960000Y-116650852D01*
X155960000Y-116775148D01*
X155984249Y-116897056D01*
X155985948Y-116901157D01*
X155260000Y-116901157D01*
X155185311Y-116908513D01*
X155113492Y-116930299D01*
X155047304Y-116965678D01*
X154989289Y-117013289D01*
X154941678Y-117071304D01*
X154906299Y-117137492D01*
X154884513Y-117209311D01*
X154877157Y-117284000D01*
X154877157Y-117570567D01*
X153102011Y-115795422D01*
X153102011Y-115408445D01*
X153104458Y-115383599D01*
X153102011Y-115358753D01*
X153102011Y-115358746D01*
X153094689Y-115284407D01*
X153065756Y-115189025D01*
X153018770Y-115101121D01*
X152955538Y-115024073D01*
X152936231Y-115008228D01*
X152569526Y-114641523D01*
X152642942Y-114611113D01*
X152695070Y-114576282D01*
X152707304Y-114586322D01*
X152773492Y-114621701D01*
X152845311Y-114643487D01*
X152920000Y-114650843D01*
X154620000Y-114650843D01*
X154694689Y-114643487D01*
X154766508Y-114621701D01*
X154832696Y-114586322D01*
X154890711Y-114538711D01*
X154938322Y-114480696D01*
X154973701Y-114414508D01*
X154995487Y-114342689D01*
X155002843Y-114268000D01*
X155002843Y-113468000D01*
X154995487Y-113393311D01*
X154973701Y-113321492D01*
X154971834Y-113318000D01*
X154973701Y-113314508D01*
X154995487Y-113242689D01*
X155002843Y-113168000D01*
X155001000Y-112990250D01*
X154905750Y-112895000D01*
X153897000Y-112895000D01*
X153897000Y-112915000D01*
X153643000Y-112915000D01*
X153643000Y-112895000D01*
X152634250Y-112895000D01*
X152539000Y-112990250D01*
X152537157Y-113168000D01*
X152538704Y-113183710D01*
X152500809Y-113168013D01*
X152349922Y-113138000D01*
X152196078Y-113138000D01*
X152045191Y-113168013D01*
X152017000Y-113179690D01*
X152017000Y-108636591D01*
X152537157Y-108116435D01*
X152537157Y-108768000D01*
G04 #@! TA.AperFunction,Conductor*
D26*
G36*
X152537157Y-108768000D02*
G01*
X152544513Y-108842689D01*
X152566299Y-108914508D01*
X152568166Y-108918000D01*
X152566299Y-108921492D01*
X152544513Y-108993311D01*
X152537157Y-109068000D01*
X152537157Y-109868000D01*
X152544513Y-109942689D01*
X152566299Y-110014508D01*
X152568166Y-110018000D01*
X152566299Y-110021492D01*
X152544513Y-110093311D01*
X152537157Y-110168000D01*
X152537157Y-110968000D01*
X152544513Y-111042689D01*
X152566299Y-111114508D01*
X152568166Y-111118000D01*
X152566299Y-111121492D01*
X152544513Y-111193311D01*
X152537157Y-111268000D01*
X152537157Y-112068000D01*
X152544513Y-112142689D01*
X152566299Y-112214508D01*
X152568166Y-112218000D01*
X152566299Y-112221492D01*
X152544513Y-112293311D01*
X152537157Y-112368000D01*
X152539000Y-112545750D01*
X152634250Y-112641000D01*
X153643000Y-112641000D01*
X153643000Y-112621000D01*
X153897000Y-112621000D01*
X153897000Y-112641000D01*
X154905750Y-112641000D01*
X155001000Y-112545750D01*
X155002843Y-112368000D01*
X154995487Y-112293311D01*
X154973701Y-112221492D01*
X154971834Y-112218000D01*
X154973701Y-112214508D01*
X154995487Y-112142689D01*
X155002843Y-112068000D01*
X155002843Y-111781432D01*
X156085000Y-112863590D01*
X156085001Y-116334511D01*
X156031815Y-116414109D01*
X155984249Y-116528944D01*
X155960000Y-116650852D01*
X155960000Y-116775148D01*
X155984249Y-116897056D01*
X155985948Y-116901157D01*
X155260000Y-116901157D01*
X155185311Y-116908513D01*
X155113492Y-116930299D01*
X155047304Y-116965678D01*
X154989289Y-117013289D01*
X154941678Y-117071304D01*
X154906299Y-117137492D01*
X154884513Y-117209311D01*
X154877157Y-117284000D01*
X154877157Y-117570567D01*
X153102011Y-115795422D01*
X153102011Y-115408445D01*
X153104458Y-115383599D01*
X153102011Y-115358753D01*
X153102011Y-115358746D01*
X153094689Y-115284407D01*
X153065756Y-115189025D01*
X153018770Y-115101121D01*
X152955538Y-115024073D01*
X152936231Y-115008228D01*
X152569526Y-114641523D01*
X152642942Y-114611113D01*
X152695070Y-114576282D01*
X152707304Y-114586322D01*
X152773492Y-114621701D01*
X152845311Y-114643487D01*
X152920000Y-114650843D01*
X154620000Y-114650843D01*
X154694689Y-114643487D01*
X154766508Y-114621701D01*
X154832696Y-114586322D01*
X154890711Y-114538711D01*
X154938322Y-114480696D01*
X154973701Y-114414508D01*
X154995487Y-114342689D01*
X155002843Y-114268000D01*
X155002843Y-113468000D01*
X154995487Y-113393311D01*
X154973701Y-113321492D01*
X154971834Y-113318000D01*
X154973701Y-113314508D01*
X154995487Y-113242689D01*
X155002843Y-113168000D01*
X155001000Y-112990250D01*
X154905750Y-112895000D01*
X153897000Y-112895000D01*
X153897000Y-112915000D01*
X153643000Y-112915000D01*
X153643000Y-112895000D01*
X152634250Y-112895000D01*
X152539000Y-112990250D01*
X152537157Y-113168000D01*
X152538704Y-113183710D01*
X152500809Y-113168013D01*
X152349922Y-113138000D01*
X152196078Y-113138000D01*
X152045191Y-113168013D01*
X152017000Y-113179690D01*
X152017000Y-108636591D01*
X152537157Y-108116435D01*
X152537157Y-108768000D01*
G37*
G04 #@! TD.AperFunction*
D25*
X160630001Y-114996642D02*
X157595077Y-111961718D01*
X157651891Y-111938185D01*
X157755239Y-111869130D01*
X157843130Y-111781239D01*
X157912185Y-111677891D01*
X157959751Y-111563056D01*
X157984000Y-111441148D01*
X157984000Y-111316852D01*
X157959751Y-111194944D01*
X157912185Y-111080109D01*
X157859000Y-111000512D01*
X157859000Y-110875845D01*
X157861447Y-110850999D01*
X157859000Y-110826153D01*
X157859000Y-110826146D01*
X157851678Y-110751807D01*
X157850953Y-110749415D01*
X157844944Y-110729607D01*
X157822745Y-110656425D01*
X157775759Y-110568521D01*
X157712527Y-110491473D01*
X157693220Y-110475628D01*
X155725670Y-108508078D01*
X156572000Y-108508078D01*
X156572000Y-108661922D01*
X156602013Y-108812809D01*
X156660887Y-108954942D01*
X156746358Y-109082859D01*
X156855141Y-109191642D01*
X156983058Y-109277113D01*
X157125191Y-109335987D01*
X157276078Y-109366000D01*
X157429922Y-109366000D01*
X157580809Y-109335987D01*
X157722942Y-109277113D01*
X157850859Y-109191642D01*
X157959642Y-109082859D01*
X158045113Y-108954942D01*
X158103987Y-108812809D01*
X158134000Y-108661922D01*
X158134000Y-108508078D01*
X158103987Y-108357191D01*
X158045113Y-108215058D01*
X157959642Y-108087141D01*
X157850859Y-107978358D01*
X157722942Y-107892887D01*
X157580809Y-107834013D01*
X157429922Y-107804000D01*
X157276078Y-107804000D01*
X157125191Y-107834013D01*
X156983058Y-107892887D01*
X156855141Y-107978358D01*
X156746358Y-108087141D01*
X156660887Y-108215058D01*
X156602013Y-108357191D01*
X156572000Y-108508078D01*
X155725670Y-108508078D01*
X155245376Y-108027785D01*
X155229527Y-108008473D01*
X155152479Y-107945241D01*
X155064575Y-107898255D01*
X154990137Y-107875675D01*
X154973701Y-107821492D01*
X154971834Y-107818000D01*
X154973701Y-107814508D01*
X154995487Y-107742689D01*
X155002843Y-107668000D01*
X155002843Y-106868000D01*
X154995487Y-106793311D01*
X154973701Y-106721492D01*
X154971834Y-106718000D01*
X154973701Y-106714508D01*
X154995487Y-106642689D01*
X155002843Y-106568000D01*
X155002843Y-105768000D01*
X154995487Y-105693311D01*
X154973701Y-105621492D01*
X154971834Y-105618000D01*
X154973701Y-105614508D01*
X154995487Y-105542689D01*
X155002843Y-105468000D01*
X155002843Y-104668000D01*
X154995487Y-104593311D01*
X154973701Y-104521492D01*
X154971834Y-104518000D01*
X154973701Y-104514508D01*
X154995487Y-104442689D01*
X154998390Y-104413212D01*
X155013976Y-104428798D01*
X155141893Y-104514269D01*
X155284026Y-104573143D01*
X155434913Y-104603156D01*
X155588757Y-104603156D01*
X155739644Y-104573143D01*
X155881777Y-104514269D01*
X156009694Y-104428798D01*
X156118477Y-104320015D01*
X156203948Y-104192098D01*
X156262822Y-104049965D01*
X156292835Y-103899078D01*
X156292835Y-103745234D01*
X156262822Y-103594347D01*
X156203948Y-103452214D01*
X156118477Y-103324297D01*
X156017835Y-103223655D01*
X156017835Y-103196184D01*
X156405470Y-103583819D01*
X156877335Y-103899109D01*
X157401643Y-104116285D01*
X157958246Y-104227000D01*
X158525754Y-104227000D01*
X159082357Y-104116285D01*
X159606665Y-103899109D01*
X160078530Y-103583819D01*
X160479819Y-103182530D01*
X160630000Y-102957768D01*
X160630001Y-114996642D01*
G04 #@! TA.AperFunction,Conductor*
D26*
G36*
X160630001Y-114996642D02*
G01*
X157595077Y-111961718D01*
X157651891Y-111938185D01*
X157755239Y-111869130D01*
X157843130Y-111781239D01*
X157912185Y-111677891D01*
X157959751Y-111563056D01*
X157984000Y-111441148D01*
X157984000Y-111316852D01*
X157959751Y-111194944D01*
X157912185Y-111080109D01*
X157859000Y-111000512D01*
X157859000Y-110875845D01*
X157861447Y-110850999D01*
X157859000Y-110826153D01*
X157859000Y-110826146D01*
X157851678Y-110751807D01*
X157850953Y-110749415D01*
X157844944Y-110729607D01*
X157822745Y-110656425D01*
X157775759Y-110568521D01*
X157712527Y-110491473D01*
X157693220Y-110475628D01*
X155725670Y-108508078D01*
X156572000Y-108508078D01*
X156572000Y-108661922D01*
X156602013Y-108812809D01*
X156660887Y-108954942D01*
X156746358Y-109082859D01*
X156855141Y-109191642D01*
X156983058Y-109277113D01*
X157125191Y-109335987D01*
X157276078Y-109366000D01*
X157429922Y-109366000D01*
X157580809Y-109335987D01*
X157722942Y-109277113D01*
X157850859Y-109191642D01*
X157959642Y-109082859D01*
X158045113Y-108954942D01*
X158103987Y-108812809D01*
X158134000Y-108661922D01*
X158134000Y-108508078D01*
X158103987Y-108357191D01*
X158045113Y-108215058D01*
X157959642Y-108087141D01*
X157850859Y-107978358D01*
X157722942Y-107892887D01*
X157580809Y-107834013D01*
X157429922Y-107804000D01*
X157276078Y-107804000D01*
X157125191Y-107834013D01*
X156983058Y-107892887D01*
X156855141Y-107978358D01*
X156746358Y-108087141D01*
X156660887Y-108215058D01*
X156602013Y-108357191D01*
X156572000Y-108508078D01*
X155725670Y-108508078D01*
X155245376Y-108027785D01*
X155229527Y-108008473D01*
X155152479Y-107945241D01*
X155064575Y-107898255D01*
X154990137Y-107875675D01*
X154973701Y-107821492D01*
X154971834Y-107818000D01*
X154973701Y-107814508D01*
X154995487Y-107742689D01*
X155002843Y-107668000D01*
X155002843Y-106868000D01*
X154995487Y-106793311D01*
X154973701Y-106721492D01*
X154971834Y-106718000D01*
X154973701Y-106714508D01*
X154995487Y-106642689D01*
X155002843Y-106568000D01*
X155002843Y-105768000D01*
X154995487Y-105693311D01*
X154973701Y-105621492D01*
X154971834Y-105618000D01*
X154973701Y-105614508D01*
X154995487Y-105542689D01*
X155002843Y-105468000D01*
X155002843Y-104668000D01*
X154995487Y-104593311D01*
X154973701Y-104521492D01*
X154971834Y-104518000D01*
X154973701Y-104514508D01*
X154995487Y-104442689D01*
X154998390Y-104413212D01*
X155013976Y-104428798D01*
X155141893Y-104514269D01*
X155284026Y-104573143D01*
X155434913Y-104603156D01*
X155588757Y-104603156D01*
X155739644Y-104573143D01*
X155881777Y-104514269D01*
X156009694Y-104428798D01*
X156118477Y-104320015D01*
X156203948Y-104192098D01*
X156262822Y-104049965D01*
X156292835Y-103899078D01*
X156292835Y-103745234D01*
X156262822Y-103594347D01*
X156203948Y-103452214D01*
X156118477Y-103324297D01*
X156017835Y-103223655D01*
X156017835Y-103196184D01*
X156405470Y-103583819D01*
X156877335Y-103899109D01*
X157401643Y-104116285D01*
X157958246Y-104227000D01*
X158525754Y-104227000D01*
X159082357Y-104116285D01*
X159606665Y-103899109D01*
X160078530Y-103583819D01*
X160479819Y-103182530D01*
X160630000Y-102957768D01*
X160630001Y-114996642D01*
G37*
G04 #@! TD.AperFunction*
D25*
X156877335Y-98792891D02*
X156405470Y-99108181D01*
X156004181Y-99509470D01*
X155793411Y-99824910D01*
X155691859Y-99723358D01*
X155563942Y-99637887D01*
X155421809Y-99579013D01*
X155270922Y-99549000D01*
X155117078Y-99549000D01*
X154966191Y-99579013D01*
X154824058Y-99637887D01*
X154738582Y-99695000D01*
X153897000Y-99695000D01*
X153897000Y-99715000D01*
X153643000Y-99715000D01*
X153643000Y-99695000D01*
X152634250Y-99695000D01*
X152539000Y-99790250D01*
X152537157Y-99968000D01*
X152544513Y-100042689D01*
X152566299Y-100114508D01*
X152568166Y-100118000D01*
X152566299Y-100121492D01*
X152554011Y-100162000D01*
X149743169Y-100162000D01*
X149718315Y-100159552D01*
X149693461Y-100162000D01*
X149619122Y-100169322D01*
X149523740Y-100198255D01*
X149435836Y-100245241D01*
X149358788Y-100308473D01*
X149342944Y-100327779D01*
X145709785Y-103960939D01*
X145690473Y-103976788D01*
X145641234Y-104036785D01*
X145612129Y-104012899D01*
X145524225Y-103965913D01*
X145428843Y-103936980D01*
X145354504Y-103929658D01*
X145354496Y-103929658D01*
X145329650Y-103927211D01*
X145304804Y-103929658D01*
X142731187Y-103929658D01*
X142706341Y-103927211D01*
X142681495Y-103929658D01*
X142681488Y-103929658D01*
X142617036Y-103936006D01*
X142607148Y-103936980D01*
X142515578Y-103964757D01*
X142511767Y-103965913D01*
X142423863Y-104012899D01*
X142346815Y-104076131D01*
X142330970Y-104095438D01*
X142305408Y-104121000D01*
X142163078Y-104121000D01*
X142012191Y-104151013D01*
X141870058Y-104209887D01*
X141742141Y-104295358D01*
X141633358Y-104404141D01*
X141547887Y-104532058D01*
X141489013Y-104674191D01*
X141459000Y-104825078D01*
X141459000Y-104978922D01*
X141489013Y-105129809D01*
X141547887Y-105271942D01*
X141633358Y-105399859D01*
X141742141Y-105508642D01*
X141870058Y-105594113D01*
X142012191Y-105652987D01*
X142163078Y-105683000D01*
X142316922Y-105683000D01*
X142467809Y-105652987D01*
X142609942Y-105594113D01*
X142737859Y-105508642D01*
X142846642Y-105399859D01*
X142932113Y-105271942D01*
X142990987Y-105129809D01*
X143021000Y-104978922D01*
X143021000Y-104941658D01*
X144149601Y-104941658D01*
X144121340Y-105083738D01*
X144121340Y-105237582D01*
X144151353Y-105388469D01*
X144210227Y-105530602D01*
X144295698Y-105658519D01*
X144404481Y-105767302D01*
X144532398Y-105852773D01*
X144674531Y-105911647D01*
X144825418Y-105941660D01*
X144967749Y-105941660D01*
X145374309Y-106348221D01*
X145390154Y-106367528D01*
X145467202Y-106430760D01*
X145547232Y-106473537D01*
X145555106Y-106477746D01*
X145650487Y-106506679D01*
X145660375Y-106507653D01*
X145724827Y-106514001D01*
X145724834Y-106514001D01*
X145749680Y-106516448D01*
X145774526Y-106514001D01*
X147516155Y-106514001D01*
X147541001Y-106516448D01*
X147565847Y-106514001D01*
X147565855Y-106514001D01*
X147640194Y-106506679D01*
X147735576Y-106477746D01*
X147823480Y-106430760D01*
X147900528Y-106367528D01*
X147916377Y-106348216D01*
X148385221Y-105879373D01*
X148404528Y-105863528D01*
X148467760Y-105786480D01*
X148514746Y-105698576D01*
X148543679Y-105603194D01*
X148550396Y-105535000D01*
X148553449Y-105504001D01*
X148551001Y-105479147D01*
X148551001Y-103751590D01*
X150270498Y-102032094D01*
X150362694Y-102032094D01*
X150334433Y-102174173D01*
X150334433Y-102316504D01*
X150064779Y-102586158D01*
X150045473Y-102602002D01*
X149982241Y-102679050D01*
X149978587Y-102685887D01*
X149935254Y-102766955D01*
X149906321Y-102862337D01*
X149896552Y-102961529D01*
X149899000Y-102986385D01*
X149898999Y-103701154D01*
X149896552Y-103726001D01*
X149898999Y-103750847D01*
X149898999Y-103750854D01*
X149906321Y-103825193D01*
X149935254Y-103920575D01*
X149982240Y-104008480D01*
X150045472Y-104085528D01*
X150064784Y-104101377D01*
X150406627Y-104443221D01*
X150422472Y-104462528D01*
X150499520Y-104525760D01*
X150581018Y-104569322D01*
X150587424Y-104572746D01*
X150682806Y-104601679D01*
X150781999Y-104611449D01*
X150806853Y-104609001D01*
X151715498Y-104609001D01*
X151666358Y-104658141D01*
X151580887Y-104786058D01*
X151522013Y-104928191D01*
X151492000Y-105079078D01*
X151492000Y-105232922D01*
X151522013Y-105383809D01*
X151580887Y-105525942D01*
X151666358Y-105653859D01*
X151775141Y-105762642D01*
X151903058Y-105848113D01*
X152045191Y-105906987D01*
X152196078Y-105937000D01*
X152349922Y-105937000D01*
X152500809Y-105906987D01*
X152537157Y-105891931D01*
X152537157Y-106568000D01*
X152544513Y-106642689D01*
X152566299Y-106714508D01*
X152568166Y-106718000D01*
X152566299Y-106721492D01*
X152549863Y-106775675D01*
X152475425Y-106798255D01*
X152387521Y-106845241D01*
X152310473Y-106908473D01*
X152294628Y-106927780D01*
X151170780Y-108051629D01*
X151151474Y-108067473D01*
X151088242Y-108144521D01*
X151063127Y-108191508D01*
X151041255Y-108232426D01*
X151012322Y-108327808D01*
X151002553Y-108427000D01*
X151005001Y-108451856D01*
X151005000Y-113713408D01*
X147150377Y-109858786D01*
X147134528Y-109839474D01*
X147057480Y-109776242D01*
X146969576Y-109729256D01*
X146874194Y-109700323D01*
X146799855Y-109693001D01*
X146799847Y-109693001D01*
X146775001Y-109690554D01*
X146750155Y-109693001D01*
X145538500Y-109693001D01*
X145640642Y-109590859D01*
X145726113Y-109462942D01*
X145784987Y-109320809D01*
X145815000Y-109169922D01*
X145815000Y-109016078D01*
X146919998Y-109016078D01*
X146919998Y-109169922D01*
X146950011Y-109320809D01*
X147008885Y-109462942D01*
X147094356Y-109590859D01*
X147203139Y-109699642D01*
X147331056Y-109785113D01*
X147473189Y-109843987D01*
X147624076Y-109874000D01*
X147777920Y-109874000D01*
X147928807Y-109843987D01*
X148070940Y-109785113D01*
X148198857Y-109699642D01*
X148208999Y-109689500D01*
X148219141Y-109699642D01*
X148347058Y-109785113D01*
X148489191Y-109843987D01*
X148640078Y-109874000D01*
X148793922Y-109874000D01*
X148944809Y-109843987D01*
X149086942Y-109785113D01*
X149214859Y-109699642D01*
X149323642Y-109590859D01*
X149409113Y-109462942D01*
X149467987Y-109320809D01*
X149498000Y-109169922D01*
X149498000Y-109016078D01*
X149467987Y-108865191D01*
X149409113Y-108723058D01*
X149323642Y-108595141D01*
X149214859Y-108486358D01*
X149086942Y-108400887D01*
X148944809Y-108342013D01*
X148793922Y-108312000D01*
X148640078Y-108312000D01*
X148489191Y-108342013D01*
X148347058Y-108400887D01*
X148219141Y-108486358D01*
X148208999Y-108496500D01*
X148198857Y-108486358D01*
X148070940Y-108400887D01*
X147928807Y-108342013D01*
X147777920Y-108312000D01*
X147624076Y-108312000D01*
X147473189Y-108342013D01*
X147331056Y-108400887D01*
X147203139Y-108486358D01*
X147094356Y-108595141D01*
X147008885Y-108723058D01*
X146950011Y-108865191D01*
X146919998Y-109016078D01*
X145815000Y-109016078D01*
X145784987Y-108865191D01*
X145726113Y-108723058D01*
X145640642Y-108595141D01*
X145531859Y-108486358D01*
X145403942Y-108400887D01*
X145261809Y-108342013D01*
X145110922Y-108312000D01*
X144957078Y-108312000D01*
X144806191Y-108342013D01*
X144664058Y-108400887D01*
X144536141Y-108486358D01*
X144427358Y-108595141D01*
X144341887Y-108723058D01*
X144283013Y-108865191D01*
X144253000Y-109016078D01*
X144253000Y-109169922D01*
X144283013Y-109320809D01*
X144341887Y-109462942D01*
X144427358Y-109590859D01*
X144529500Y-109693001D01*
X143887500Y-109693001D01*
X143989642Y-109590859D01*
X144075113Y-109462942D01*
X144133987Y-109320809D01*
X144164000Y-109169922D01*
X144164000Y-109016078D01*
X144133987Y-108865191D01*
X144075113Y-108723058D01*
X143989642Y-108595141D01*
X143880859Y-108486358D01*
X143752942Y-108400887D01*
X143610809Y-108342013D01*
X143459922Y-108312000D01*
X143306078Y-108312000D01*
X143155191Y-108342013D01*
X143013058Y-108400887D01*
X142885141Y-108486358D01*
X142776358Y-108595141D01*
X142690887Y-108723058D01*
X142632013Y-108865191D01*
X142602000Y-109016078D01*
X142602000Y-109169922D01*
X142632013Y-109320809D01*
X142690887Y-109462942D01*
X142776358Y-109590859D01*
X142878500Y-109693001D01*
X140452739Y-109693001D01*
X140481000Y-109550922D01*
X140481000Y-109397078D01*
X140450987Y-109246191D01*
X140392113Y-109104058D01*
X140306642Y-108976141D01*
X140206000Y-108875499D01*
X140206000Y-101245848D01*
X140208447Y-101221002D01*
X140206000Y-101196156D01*
X140206000Y-101196149D01*
X140198678Y-101121810D01*
X140169745Y-101026428D01*
X140122759Y-100938524D01*
X140059527Y-100861476D01*
X140040220Y-100845631D01*
X139828667Y-100634078D01*
X141205000Y-100634078D01*
X141205000Y-100787922D01*
X141235013Y-100938809D01*
X141293887Y-101080942D01*
X141379358Y-101208859D01*
X141488141Y-101317642D01*
X141616058Y-101403113D01*
X141758191Y-101461987D01*
X141909078Y-101492000D01*
X142062922Y-101492000D01*
X142213809Y-101461987D01*
X142355942Y-101403113D01*
X142483859Y-101317642D01*
X142592642Y-101208859D01*
X142678113Y-101080942D01*
X142736987Y-100938809D01*
X142767000Y-100787922D01*
X142767000Y-100634078D01*
X142736987Y-100483191D01*
X142678113Y-100341058D01*
X142592642Y-100213141D01*
X142483859Y-100104358D01*
X142355942Y-100018887D01*
X142213809Y-99960013D01*
X142062922Y-99930000D01*
X141909078Y-99930000D01*
X141758191Y-99960013D01*
X141616058Y-100018887D01*
X141488141Y-100104358D01*
X141379358Y-100213141D01*
X141293887Y-100341058D01*
X141235013Y-100483191D01*
X141205000Y-100634078D01*
X139828667Y-100634078D01*
X139522373Y-100327785D01*
X139506524Y-100308473D01*
X139429476Y-100245241D01*
X139341572Y-100198255D01*
X139246190Y-100169322D01*
X139171851Y-100162000D01*
X139171843Y-100162000D01*
X139146997Y-100159553D01*
X139122151Y-100162000D01*
X138585989Y-100162000D01*
X138573701Y-100121492D01*
X138571834Y-100118000D01*
X138573701Y-100114508D01*
X138595487Y-100042689D01*
X138602843Y-99968000D01*
X138602843Y-99168000D01*
X152537157Y-99168000D01*
X152539000Y-99345750D01*
X152634250Y-99441000D01*
X153643000Y-99441000D01*
X153643000Y-98882250D01*
X153897000Y-98882250D01*
X153897000Y-99441000D01*
X154905750Y-99441000D01*
X155001000Y-99345750D01*
X155002843Y-99168000D01*
X154995487Y-99093311D01*
X154973701Y-99021492D01*
X154938322Y-98955304D01*
X154890711Y-98897289D01*
X154832696Y-98849678D01*
X154766508Y-98814299D01*
X154694689Y-98792513D01*
X154620000Y-98785157D01*
X153992250Y-98787000D01*
X153897000Y-98882250D01*
X153643000Y-98882250D01*
X153547750Y-98787000D01*
X152920000Y-98785157D01*
X152845311Y-98792513D01*
X152773492Y-98814299D01*
X152707304Y-98849678D01*
X152649289Y-98897289D01*
X152601678Y-98955304D01*
X152566299Y-99021492D01*
X152544513Y-99093311D01*
X152537157Y-99168000D01*
X138602843Y-99168000D01*
X138595487Y-99093311D01*
X138573701Y-99021492D01*
X138538322Y-98955304D01*
X138490711Y-98897289D01*
X138432696Y-98849678D01*
X138366508Y-98814299D01*
X138294689Y-98792513D01*
X138220000Y-98785157D01*
X136520000Y-98785157D01*
X136445311Y-98792513D01*
X136373492Y-98814299D01*
X136307304Y-98849678D01*
X136249289Y-98897289D01*
X136201678Y-98955304D01*
X136166299Y-99021492D01*
X136144513Y-99093311D01*
X136140725Y-99131769D01*
X136115521Y-99145241D01*
X136038473Y-99208473D01*
X136022628Y-99227780D01*
X135549780Y-99700629D01*
X135530474Y-99716473D01*
X135467242Y-99793521D01*
X135447037Y-99831322D01*
X135420255Y-99881426D01*
X135391560Y-99976023D01*
X135079819Y-99509470D01*
X134678530Y-99108181D01*
X134206665Y-98792891D01*
X133931708Y-98679000D01*
X157152292Y-98679000D01*
X156877335Y-98792891D01*
G04 #@! TA.AperFunction,Conductor*
D26*
G36*
X156877335Y-98792891D02*
G01*
X156405470Y-99108181D01*
X156004181Y-99509470D01*
X155793411Y-99824910D01*
X155691859Y-99723358D01*
X155563942Y-99637887D01*
X155421809Y-99579013D01*
X155270922Y-99549000D01*
X155117078Y-99549000D01*
X154966191Y-99579013D01*
X154824058Y-99637887D01*
X154738582Y-99695000D01*
X153897000Y-99695000D01*
X153897000Y-99715000D01*
X153643000Y-99715000D01*
X153643000Y-99695000D01*
X152634250Y-99695000D01*
X152539000Y-99790250D01*
X152537157Y-99968000D01*
X152544513Y-100042689D01*
X152566299Y-100114508D01*
X152568166Y-100118000D01*
X152566299Y-100121492D01*
X152554011Y-100162000D01*
X149743169Y-100162000D01*
X149718315Y-100159552D01*
X149693461Y-100162000D01*
X149619122Y-100169322D01*
X149523740Y-100198255D01*
X149435836Y-100245241D01*
X149358788Y-100308473D01*
X149342944Y-100327779D01*
X145709785Y-103960939D01*
X145690473Y-103976788D01*
X145641234Y-104036785D01*
X145612129Y-104012899D01*
X145524225Y-103965913D01*
X145428843Y-103936980D01*
X145354504Y-103929658D01*
X145354496Y-103929658D01*
X145329650Y-103927211D01*
X145304804Y-103929658D01*
X142731187Y-103929658D01*
X142706341Y-103927211D01*
X142681495Y-103929658D01*
X142681488Y-103929658D01*
X142617036Y-103936006D01*
X142607148Y-103936980D01*
X142515578Y-103964757D01*
X142511767Y-103965913D01*
X142423863Y-104012899D01*
X142346815Y-104076131D01*
X142330970Y-104095438D01*
X142305408Y-104121000D01*
X142163078Y-104121000D01*
X142012191Y-104151013D01*
X141870058Y-104209887D01*
X141742141Y-104295358D01*
X141633358Y-104404141D01*
X141547887Y-104532058D01*
X141489013Y-104674191D01*
X141459000Y-104825078D01*
X141459000Y-104978922D01*
X141489013Y-105129809D01*
X141547887Y-105271942D01*
X141633358Y-105399859D01*
X141742141Y-105508642D01*
X141870058Y-105594113D01*
X142012191Y-105652987D01*
X142163078Y-105683000D01*
X142316922Y-105683000D01*
X142467809Y-105652987D01*
X142609942Y-105594113D01*
X142737859Y-105508642D01*
X142846642Y-105399859D01*
X142932113Y-105271942D01*
X142990987Y-105129809D01*
X143021000Y-104978922D01*
X143021000Y-104941658D01*
X144149601Y-104941658D01*
X144121340Y-105083738D01*
X144121340Y-105237582D01*
X144151353Y-105388469D01*
X144210227Y-105530602D01*
X144295698Y-105658519D01*
X144404481Y-105767302D01*
X144532398Y-105852773D01*
X144674531Y-105911647D01*
X144825418Y-105941660D01*
X144967749Y-105941660D01*
X145374309Y-106348221D01*
X145390154Y-106367528D01*
X145467202Y-106430760D01*
X145547232Y-106473537D01*
X145555106Y-106477746D01*
X145650487Y-106506679D01*
X145660375Y-106507653D01*
X145724827Y-106514001D01*
X145724834Y-106514001D01*
X145749680Y-106516448D01*
X145774526Y-106514001D01*
X147516155Y-106514001D01*
X147541001Y-106516448D01*
X147565847Y-106514001D01*
X147565855Y-106514001D01*
X147640194Y-106506679D01*
X147735576Y-106477746D01*
X147823480Y-106430760D01*
X147900528Y-106367528D01*
X147916377Y-106348216D01*
X148385221Y-105879373D01*
X148404528Y-105863528D01*
X148467760Y-105786480D01*
X148514746Y-105698576D01*
X148543679Y-105603194D01*
X148550396Y-105535000D01*
X148553449Y-105504001D01*
X148551001Y-105479147D01*
X148551001Y-103751590D01*
X150270498Y-102032094D01*
X150362694Y-102032094D01*
X150334433Y-102174173D01*
X150334433Y-102316504D01*
X150064779Y-102586158D01*
X150045473Y-102602002D01*
X149982241Y-102679050D01*
X149978587Y-102685887D01*
X149935254Y-102766955D01*
X149906321Y-102862337D01*
X149896552Y-102961529D01*
X149899000Y-102986385D01*
X149898999Y-103701154D01*
X149896552Y-103726001D01*
X149898999Y-103750847D01*
X149898999Y-103750854D01*
X149906321Y-103825193D01*
X149935254Y-103920575D01*
X149982240Y-104008480D01*
X150045472Y-104085528D01*
X150064784Y-104101377D01*
X150406627Y-104443221D01*
X150422472Y-104462528D01*
X150499520Y-104525760D01*
X150581018Y-104569322D01*
X150587424Y-104572746D01*
X150682806Y-104601679D01*
X150781999Y-104611449D01*
X150806853Y-104609001D01*
X151715498Y-104609001D01*
X151666358Y-104658141D01*
X151580887Y-104786058D01*
X151522013Y-104928191D01*
X151492000Y-105079078D01*
X151492000Y-105232922D01*
X151522013Y-105383809D01*
X151580887Y-105525942D01*
X151666358Y-105653859D01*
X151775141Y-105762642D01*
X151903058Y-105848113D01*
X152045191Y-105906987D01*
X152196078Y-105937000D01*
X152349922Y-105937000D01*
X152500809Y-105906987D01*
X152537157Y-105891931D01*
X152537157Y-106568000D01*
X152544513Y-106642689D01*
X152566299Y-106714508D01*
X152568166Y-106718000D01*
X152566299Y-106721492D01*
X152549863Y-106775675D01*
X152475425Y-106798255D01*
X152387521Y-106845241D01*
X152310473Y-106908473D01*
X152294628Y-106927780D01*
X151170780Y-108051629D01*
X151151474Y-108067473D01*
X151088242Y-108144521D01*
X151063127Y-108191508D01*
X151041255Y-108232426D01*
X151012322Y-108327808D01*
X151002553Y-108427000D01*
X151005001Y-108451856D01*
X151005000Y-113713408D01*
X147150377Y-109858786D01*
X147134528Y-109839474D01*
X147057480Y-109776242D01*
X146969576Y-109729256D01*
X146874194Y-109700323D01*
X146799855Y-109693001D01*
X146799847Y-109693001D01*
X146775001Y-109690554D01*
X146750155Y-109693001D01*
X145538500Y-109693001D01*
X145640642Y-109590859D01*
X145726113Y-109462942D01*
X145784987Y-109320809D01*
X145815000Y-109169922D01*
X145815000Y-109016078D01*
X146919998Y-109016078D01*
X146919998Y-109169922D01*
X146950011Y-109320809D01*
X147008885Y-109462942D01*
X147094356Y-109590859D01*
X147203139Y-109699642D01*
X147331056Y-109785113D01*
X147473189Y-109843987D01*
X147624076Y-109874000D01*
X147777920Y-109874000D01*
X147928807Y-109843987D01*
X148070940Y-109785113D01*
X148198857Y-109699642D01*
X148208999Y-109689500D01*
X148219141Y-109699642D01*
X148347058Y-109785113D01*
X148489191Y-109843987D01*
X148640078Y-109874000D01*
X148793922Y-109874000D01*
X148944809Y-109843987D01*
X149086942Y-109785113D01*
X149214859Y-109699642D01*
X149323642Y-109590859D01*
X149409113Y-109462942D01*
X149467987Y-109320809D01*
X149498000Y-109169922D01*
X149498000Y-109016078D01*
X149467987Y-108865191D01*
X149409113Y-108723058D01*
X149323642Y-108595141D01*
X149214859Y-108486358D01*
X149086942Y-108400887D01*
X148944809Y-108342013D01*
X148793922Y-108312000D01*
X148640078Y-108312000D01*
X148489191Y-108342013D01*
X148347058Y-108400887D01*
X148219141Y-108486358D01*
X148208999Y-108496500D01*
X148198857Y-108486358D01*
X148070940Y-108400887D01*
X147928807Y-108342013D01*
X147777920Y-108312000D01*
X147624076Y-108312000D01*
X147473189Y-108342013D01*
X147331056Y-108400887D01*
X147203139Y-108486358D01*
X147094356Y-108595141D01*
X147008885Y-108723058D01*
X146950011Y-108865191D01*
X146919998Y-109016078D01*
X145815000Y-109016078D01*
X145784987Y-108865191D01*
X145726113Y-108723058D01*
X145640642Y-108595141D01*
X145531859Y-108486358D01*
X145403942Y-108400887D01*
X145261809Y-108342013D01*
X145110922Y-108312000D01*
X144957078Y-108312000D01*
X144806191Y-108342013D01*
X144664058Y-108400887D01*
X144536141Y-108486358D01*
X144427358Y-108595141D01*
X144341887Y-108723058D01*
X144283013Y-108865191D01*
X144253000Y-109016078D01*
X144253000Y-109169922D01*
X144283013Y-109320809D01*
X144341887Y-109462942D01*
X144427358Y-109590859D01*
X144529500Y-109693001D01*
X143887500Y-109693001D01*
X143989642Y-109590859D01*
X144075113Y-109462942D01*
X144133987Y-109320809D01*
X144164000Y-109169922D01*
X144164000Y-109016078D01*
X144133987Y-108865191D01*
X144075113Y-108723058D01*
X143989642Y-108595141D01*
X143880859Y-108486358D01*
X143752942Y-108400887D01*
X143610809Y-108342013D01*
X143459922Y-108312000D01*
X143306078Y-108312000D01*
X143155191Y-108342013D01*
X143013058Y-108400887D01*
X142885141Y-108486358D01*
X142776358Y-108595141D01*
X142690887Y-108723058D01*
X142632013Y-108865191D01*
X142602000Y-109016078D01*
X142602000Y-109169922D01*
X142632013Y-109320809D01*
X142690887Y-109462942D01*
X142776358Y-109590859D01*
X142878500Y-109693001D01*
X140452739Y-109693001D01*
X140481000Y-109550922D01*
X140481000Y-109397078D01*
X140450987Y-109246191D01*
X140392113Y-109104058D01*
X140306642Y-108976141D01*
X140206000Y-108875499D01*
X140206000Y-101245848D01*
X140208447Y-101221002D01*
X140206000Y-101196156D01*
X140206000Y-101196149D01*
X140198678Y-101121810D01*
X140169745Y-101026428D01*
X140122759Y-100938524D01*
X140059527Y-100861476D01*
X140040220Y-100845631D01*
X139828667Y-100634078D01*
X141205000Y-100634078D01*
X141205000Y-100787922D01*
X141235013Y-100938809D01*
X141293887Y-101080942D01*
X141379358Y-101208859D01*
X141488141Y-101317642D01*
X141616058Y-101403113D01*
X141758191Y-101461987D01*
X141909078Y-101492000D01*
X142062922Y-101492000D01*
X142213809Y-101461987D01*
X142355942Y-101403113D01*
X142483859Y-101317642D01*
X142592642Y-101208859D01*
X142678113Y-101080942D01*
X142736987Y-100938809D01*
X142767000Y-100787922D01*
X142767000Y-100634078D01*
X142736987Y-100483191D01*
X142678113Y-100341058D01*
X142592642Y-100213141D01*
X142483859Y-100104358D01*
X142355942Y-100018887D01*
X142213809Y-99960013D01*
X142062922Y-99930000D01*
X141909078Y-99930000D01*
X141758191Y-99960013D01*
X141616058Y-100018887D01*
X141488141Y-100104358D01*
X141379358Y-100213141D01*
X141293887Y-100341058D01*
X141235013Y-100483191D01*
X141205000Y-100634078D01*
X139828667Y-100634078D01*
X139522373Y-100327785D01*
X139506524Y-100308473D01*
X139429476Y-100245241D01*
X139341572Y-100198255D01*
X139246190Y-100169322D01*
X139171851Y-100162000D01*
X139171843Y-100162000D01*
X139146997Y-100159553D01*
X139122151Y-100162000D01*
X138585989Y-100162000D01*
X138573701Y-100121492D01*
X138571834Y-100118000D01*
X138573701Y-100114508D01*
X138595487Y-100042689D01*
X138602843Y-99968000D01*
X138602843Y-99168000D01*
X152537157Y-99168000D01*
X152539000Y-99345750D01*
X152634250Y-99441000D01*
X153643000Y-99441000D01*
X153643000Y-98882250D01*
X153897000Y-98882250D01*
X153897000Y-99441000D01*
X154905750Y-99441000D01*
X155001000Y-99345750D01*
X155002843Y-99168000D01*
X154995487Y-99093311D01*
X154973701Y-99021492D01*
X154938322Y-98955304D01*
X154890711Y-98897289D01*
X154832696Y-98849678D01*
X154766508Y-98814299D01*
X154694689Y-98792513D01*
X154620000Y-98785157D01*
X153992250Y-98787000D01*
X153897000Y-98882250D01*
X153643000Y-98882250D01*
X153547750Y-98787000D01*
X152920000Y-98785157D01*
X152845311Y-98792513D01*
X152773492Y-98814299D01*
X152707304Y-98849678D01*
X152649289Y-98897289D01*
X152601678Y-98955304D01*
X152566299Y-99021492D01*
X152544513Y-99093311D01*
X152537157Y-99168000D01*
X138602843Y-99168000D01*
X138595487Y-99093311D01*
X138573701Y-99021492D01*
X138538322Y-98955304D01*
X138490711Y-98897289D01*
X138432696Y-98849678D01*
X138366508Y-98814299D01*
X138294689Y-98792513D01*
X138220000Y-98785157D01*
X136520000Y-98785157D01*
X136445311Y-98792513D01*
X136373492Y-98814299D01*
X136307304Y-98849678D01*
X136249289Y-98897289D01*
X136201678Y-98955304D01*
X136166299Y-99021492D01*
X136144513Y-99093311D01*
X136140725Y-99131769D01*
X136115521Y-99145241D01*
X136038473Y-99208473D01*
X136022628Y-99227780D01*
X135549780Y-99700629D01*
X135530474Y-99716473D01*
X135467242Y-99793521D01*
X135447037Y-99831322D01*
X135420255Y-99881426D01*
X135391560Y-99976023D01*
X135079819Y-99509470D01*
X134678530Y-99108181D01*
X134206665Y-98792891D01*
X133931708Y-98679000D01*
X157152292Y-98679000D01*
X156877335Y-98792891D01*
G37*
G04 #@! TD.AperFunction*
D25*
X136137157Y-103268000D02*
X136144513Y-103342689D01*
X136166299Y-103414508D01*
X136168166Y-103418000D01*
X136166299Y-103421492D01*
X136144513Y-103493311D01*
X136137157Y-103568000D01*
X136137157Y-104368000D01*
X136144513Y-104442689D01*
X136166299Y-104514508D01*
X136168166Y-104518000D01*
X136166299Y-104521492D01*
X136144513Y-104593311D01*
X136137157Y-104668000D01*
X136137157Y-105468000D01*
X136144513Y-105542689D01*
X136166299Y-105614508D01*
X136168166Y-105618000D01*
X136166299Y-105621492D01*
X136149863Y-105675675D01*
X136075425Y-105698255D01*
X135987521Y-105745241D01*
X135910473Y-105808473D01*
X135894628Y-105827780D01*
X134359339Y-107363070D01*
X134354987Y-107341191D01*
X134296113Y-107199058D01*
X134210642Y-107071141D01*
X134101859Y-106962358D01*
X133973942Y-106876887D01*
X133831809Y-106818013D01*
X133680922Y-106788000D01*
X133527078Y-106788000D01*
X133376191Y-106818013D01*
X133234058Y-106876887D01*
X133106141Y-106962358D01*
X133024990Y-107043509D01*
X133024990Y-106323601D01*
X136137157Y-103211435D01*
X136137157Y-103268000D01*
G04 #@! TA.AperFunction,Conductor*
D26*
G36*
X136137157Y-103268000D02*
G01*
X136144513Y-103342689D01*
X136166299Y-103414508D01*
X136168166Y-103418000D01*
X136166299Y-103421492D01*
X136144513Y-103493311D01*
X136137157Y-103568000D01*
X136137157Y-104368000D01*
X136144513Y-104442689D01*
X136166299Y-104514508D01*
X136168166Y-104518000D01*
X136166299Y-104521492D01*
X136144513Y-104593311D01*
X136137157Y-104668000D01*
X136137157Y-105468000D01*
X136144513Y-105542689D01*
X136166299Y-105614508D01*
X136168166Y-105618000D01*
X136166299Y-105621492D01*
X136149863Y-105675675D01*
X136075425Y-105698255D01*
X135987521Y-105745241D01*
X135910473Y-105808473D01*
X135894628Y-105827780D01*
X134359339Y-107363070D01*
X134354987Y-107341191D01*
X134296113Y-107199058D01*
X134210642Y-107071141D01*
X134101859Y-106962358D01*
X133973942Y-106876887D01*
X133831809Y-106818013D01*
X133680922Y-106788000D01*
X133527078Y-106788000D01*
X133376191Y-106818013D01*
X133234058Y-106876887D01*
X133106141Y-106962358D01*
X133024990Y-107043509D01*
X133024990Y-106323601D01*
X136137157Y-103211435D01*
X136137157Y-103268000D01*
G37*
G04 #@! TD.AperFunction*
G04 #@! TD*
M02*
