%TF.GenerationSoftware,KiCad,Pcbnew,(6.0.1)*%
%TF.CreationDate,2022-03-18T07:57:27+01:00*%
%TF.ProjectId,trick-tracker,74726963-6b2d-4747-9261-636b65722e6b,rev?*%
%TF.SameCoordinates,Original*%
%TF.FileFunction,Copper,L1,Top*%
%TF.FilePolarity,Positive*%
%FSLAX46Y46*%
G04 Gerber Fmt 4.6, Leading zero omitted, Abs format (unit mm)*
G04 Created by KiCad (PCBNEW (6.0.1)) date 2022-03-18 07:57:27*
%MOMM*%
%LPD*%
G01*
G04 APERTURE LIST*
G04 Aperture macros list*
%AMRoundRect*
0 Rectangle with rounded corners*
0 $1 Rounding radius*
0 $2 $3 $4 $5 $6 $7 $8 $9 X,Y pos of 4 corners*
0 Add a 4 corners polygon primitive as box body*
4,1,4,$2,$3,$4,$5,$6,$7,$8,$9,$2,$3,0*
0 Add four circle primitives for the rounded corners*
1,1,$1+$1,$2,$3*
1,1,$1+$1,$4,$5*
1,1,$1+$1,$6,$7*
1,1,$1+$1,$8,$9*
0 Add four rect primitives between the rounded corners*
20,1,$1+$1,$2,$3,$4,$5,0*
20,1,$1+$1,$4,$5,$6,$7,0*
20,1,$1+$1,$6,$7,$8,$9,0*
20,1,$1+$1,$8,$9,$2,$3,0*%
G04 Aperture macros list end*
%TA.AperFunction,SMDPad,CuDef*%
%ADD10R,0.350000X0.350000*%
%TD*%
%TA.AperFunction,SMDPad,CuDef*%
%ADD11R,0.650000X1.060000*%
%TD*%
%TA.AperFunction,SMDPad,CuDef*%
%ADD12R,0.600000X1.150000*%
%TD*%
%TA.AperFunction,SMDPad,CuDef*%
%ADD13R,0.300000X1.150000*%
%TD*%
%TA.AperFunction,ComponentPad*%
%ADD14O,1.050000X2.100000*%
%TD*%
%TA.AperFunction,ComponentPad*%
%ADD15O,1.000000X2.000000*%
%TD*%
%TA.AperFunction,SMDPad,CuDef*%
%ADD16RoundRect,0.250000X-0.250000X-1.500000X0.250000X-1.500000X0.250000X1.500000X-0.250000X1.500000X0*%
%TD*%
%TA.AperFunction,SMDPad,CuDef*%
%ADD17RoundRect,0.250000X-0.500000X-1.450000X0.500000X-1.450000X0.500000X1.450000X-0.500000X1.450000X0*%
%TD*%
%TA.AperFunction,SMDPad,CuDef*%
%ADD18RoundRect,0.225000X0.225000X0.250000X-0.225000X0.250000X-0.225000X-0.250000X0.225000X-0.250000X0*%
%TD*%
%TA.AperFunction,SMDPad,CuDef*%
%ADD19RoundRect,0.225000X0.250000X-0.225000X0.250000X0.225000X-0.250000X0.225000X-0.250000X-0.225000X0*%
%TD*%
%TA.AperFunction,SMDPad,CuDef*%
%ADD20RoundRect,0.218750X-0.256250X0.218750X-0.256250X-0.218750X0.256250X-0.218750X0.256250X0.218750X0*%
%TD*%
%TA.AperFunction,SMDPad,CuDef*%
%ADD21RoundRect,0.218750X0.256250X-0.218750X0.256250X0.218750X-0.256250X0.218750X-0.256250X-0.218750X0*%
%TD*%
%TA.AperFunction,SMDPad,CuDef*%
%ADD22RoundRect,0.200000X-0.200000X-0.275000X0.200000X-0.275000X0.200000X0.275000X-0.200000X0.275000X0*%
%TD*%
%TA.AperFunction,SMDPad,CuDef*%
%ADD23RoundRect,0.200000X0.200000X0.275000X-0.200000X0.275000X-0.200000X-0.275000X0.200000X-0.275000X0*%
%TD*%
%TA.AperFunction,SMDPad,CuDef*%
%ADD24RoundRect,0.200000X-0.275000X0.200000X-0.275000X-0.200000X0.275000X-0.200000X0.275000X0.200000X0*%
%TD*%
%TA.AperFunction,SMDPad,CuDef*%
%ADD25RoundRect,0.200000X0.275000X-0.200000X0.275000X0.200000X-0.275000X0.200000X-0.275000X-0.200000X0*%
%TD*%
%TA.AperFunction,SMDPad,CuDef*%
%ADD26RoundRect,0.150000X-0.625000X0.150000X-0.625000X-0.150000X0.625000X-0.150000X0.625000X0.150000X0*%
%TD*%
%TA.AperFunction,SMDPad,CuDef*%
%ADD27RoundRect,0.249999X-0.650001X0.350001X-0.650001X-0.350001X0.650001X-0.350001X0.650001X0.350001X0*%
%TD*%
%TA.AperFunction,SMDPad,CuDef*%
%ADD28RoundRect,0.225000X-0.250000X0.225000X-0.250000X-0.225000X0.250000X-0.225000X0.250000X0.225000X0*%
%TD*%
%TA.AperFunction,SMDPad,CuDef*%
%ADD29R,1.100000X1.100000*%
%TD*%
%TA.AperFunction,SMDPad,CuDef*%
%ADD30R,1.000000X1.550000*%
%TD*%
%TA.AperFunction,ComponentPad*%
%ADD31C,0.800000*%
%TD*%
%TA.AperFunction,ComponentPad*%
%ADD32C,5.000000*%
%TD*%
%TA.AperFunction,SMDPad,CuDef*%
%ADD33R,1.900000X1.000000*%
%TD*%
%TA.AperFunction,ComponentPad*%
%ADD34C,1.300000*%
%TD*%
%TA.AperFunction,SMDPad,CuDef*%
%ADD35RoundRect,0.150000X0.625000X-0.150000X0.625000X0.150000X-0.625000X0.150000X-0.625000X-0.150000X0*%
%TD*%
%TA.AperFunction,SMDPad,CuDef*%
%ADD36RoundRect,0.249999X0.650001X-0.350001X0.650001X0.350001X-0.650001X0.350001X-0.650001X-0.350001X0*%
%TD*%
%TA.AperFunction,SMDPad,CuDef*%
%ADD37C,1.500000*%
%TD*%
%TA.AperFunction,SMDPad,CuDef*%
%ADD38R,0.600000X0.300000*%
%TD*%
%TA.AperFunction,SMDPad,CuDef*%
%ADD39R,0.300000X0.600000*%
%TD*%
%TA.AperFunction,ViaPad*%
%ADD40C,0.500000*%
%TD*%
%TA.AperFunction,ViaPad*%
%ADD41C,0.800000*%
%TD*%
%TA.AperFunction,Conductor*%
%ADD42C,0.250000*%
%TD*%
G04 APERTURE END LIST*
D10*
%TO.P,U2,1,GND*%
%TO.N,GND*%
X149139000Y-118147000D03*
%TO.P,U2,2,CSB*%
%TO.N,unconnected-(U2-Pad2)*%
X149789000Y-118147000D03*
%TO.P,U2,3,SDI*%
%TO.N,/SDA*%
X150439000Y-118147000D03*
%TO.P,U2,4,SCK*%
%TO.N,/SCL*%
X151089000Y-118147000D03*
%TO.P,U2,5,SDO*%
%TO.N,/PRESS_INT*%
X151089000Y-119597000D03*
%TO.P,U2,6,VDDIO*%
%TO.N,+3V3*%
X150439000Y-119597000D03*
%TO.P,U2,7,GND*%
%TO.N,GND*%
X149789000Y-119597000D03*
%TO.P,U2,8,VDD*%
%TO.N,+3V3*%
X149139000Y-119597000D03*
%TD*%
D11*
%TO.P,U4,1,STAT*%
%TO.N,/STAT*%
X138242000Y-124163000D03*
%TO.P,U4,2,VSS*%
%TO.N,GND*%
X139192000Y-124163000D03*
%TO.P,U4,3,VBAT*%
%TO.N,/VBAT*%
X140142000Y-124163000D03*
%TO.P,U4,4,VDD*%
%TO.N,/VBUS*%
X140142000Y-121963000D03*
%TO.P,U4,5,PROG*%
%TO.N,Net-(R3-Pad1)*%
X138242000Y-121963000D03*
%TD*%
D12*
%TO.P,J1,A1_B12,GND*%
%TO.N,GND*%
X147168000Y-131008000D03*
%TO.P,J1,A4_B9,VBUS*%
%TO.N,/VBUS*%
X147968000Y-131008000D03*
D13*
%TO.P,J1,A5,CC1*%
%TO.N,Net-(J1-PadA5)*%
X149118000Y-131008000D03*
%TO.P,J1,A6,DP1*%
%TO.N,unconnected-(J1-PadA6)*%
X150118000Y-131008000D03*
%TO.P,J1,A7,DN1*%
%TO.N,unconnected-(J1-PadA7)*%
X150618000Y-131008000D03*
%TO.P,J1,A8,SBU1*%
%TO.N,unconnected-(J1-PadA8)*%
X151618000Y-131008000D03*
D12*
%TO.P,J1,B1_A12,GND*%
%TO.N,GND*%
X153568000Y-131008000D03*
%TO.P,J1,B4_A9,VBUS*%
%TO.N,/VBUS*%
X152768000Y-131008000D03*
D13*
%TO.P,J1,B5,CC2*%
%TO.N,Net-(J1-PadB5)*%
X152118000Y-131008000D03*
%TO.P,J1,B6,DP2*%
%TO.N,unconnected-(J1-PadB6)*%
X151118000Y-131008000D03*
%TO.P,J1,B7,DN2*%
%TO.N,unconnected-(J1-PadB7)*%
X149618000Y-131008000D03*
%TO.P,J1,B8,SBU2*%
%TO.N,unconnected-(J1-PadB8)*%
X148618000Y-131008000D03*
D14*
%TO.P,J1,S1,SHELL_GND*%
%TO.N,unconnected-(J1-PadS1)*%
X146048000Y-131583000D03*
D15*
%TO.P,J1,S2,SHELL_GND*%
%TO.N,unconnected-(J1-PadS2)*%
X146048000Y-135763000D03*
%TO.P,J1,S3,SHELL_GND*%
%TO.N,unconnected-(J1-PadS3)*%
X154688000Y-135763000D03*
D14*
%TO.P,J1,S4,SHELL_GND*%
%TO.N,unconnected-(J1-PadS4)*%
X154688000Y-131583000D03*
%TD*%
D16*
%TO.P,J2,1,Pin_1*%
%TO.N,/VBAT*%
X139462000Y-127325000D03*
%TO.P,J2,2,Pin_2*%
%TO.N,GND*%
X141462000Y-127325000D03*
D17*
%TO.P,J2,MP*%
%TO.N,N/C*%
X137112000Y-133075000D03*
X143812000Y-133075000D03*
%TD*%
D18*
%TO.P,C1,1*%
%TO.N,/VIN*%
X139078000Y-116205000D03*
%TO.P,C1,2*%
%TO.N,GND*%
X137528000Y-116205000D03*
%TD*%
D19*
%TO.P,C2,1*%
%TO.N,/VBUS*%
X142367000Y-121044000D03*
%TO.P,C2,2*%
%TO.N,GND*%
X142367000Y-119494000D03*
%TD*%
%TO.P,C3,1*%
%TO.N,/VBAT*%
X141859000Y-124219000D03*
%TO.P,C3,2*%
%TO.N,GND*%
X141859000Y-122669000D03*
%TD*%
%TO.P,C4,1*%
%TO.N,+3V3*%
X140716000Y-120155000D03*
%TO.P,C4,2*%
%TO.N,GND*%
X140716000Y-118605000D03*
%TD*%
D20*
%TO.P,D2,1,K*%
%TO.N,Net-(D2-Pad1)*%
X160020000Y-113004500D03*
%TO.P,D2,2,A*%
%TO.N,/VBUS*%
X160020000Y-114579500D03*
%TD*%
D21*
%TO.P,D3,1,K*%
%TO.N,GND*%
X160020000Y-120548500D03*
%TO.P,D3,2,A*%
%TO.N,Net-(D3-Pad2)*%
X160020000Y-118973500D03*
%TD*%
D22*
%TO.P,R1,1*%
%TO.N,GND*%
X147511000Y-129032000D03*
%TO.P,R1,2*%
%TO.N,Net-(J1-PadA5)*%
X149161000Y-129032000D03*
%TD*%
D23*
%TO.P,R2,1*%
%TO.N,GND*%
X153606000Y-129032000D03*
%TO.P,R2,2*%
%TO.N,Net-(J1-PadB5)*%
X151956000Y-129032000D03*
%TD*%
D24*
%TO.P,R3,1*%
%TO.N,Net-(R3-Pad1)*%
X136525000Y-121857000D03*
%TO.P,R3,2*%
%TO.N,GND*%
X136525000Y-123507000D03*
%TD*%
D25*
%TO.P,R5,1*%
%TO.N,/STAT*%
X158369000Y-114617000D03*
%TO.P,R5,2*%
%TO.N,Net-(D2-Pad1)*%
X158369000Y-112967000D03*
%TD*%
%TO.P,R6,1*%
%TO.N,/STAT*%
X158369000Y-120586000D03*
%TO.P,R6,2*%
%TO.N,Net-(D3-Pad2)*%
X158369000Y-118936000D03*
%TD*%
D11*
%TO.P,U5,1,VIN*%
%TO.N,/VIN*%
X138999000Y-117899000D03*
%TO.P,U5,2,GND*%
%TO.N,GND*%
X138049000Y-117899000D03*
%TO.P,U5,3,EN*%
%TO.N,/EN*%
X137099000Y-117899000D03*
%TO.P,U5,4,NC*%
%TO.N,unconnected-(U5-Pad4)*%
X137099000Y-120099000D03*
%TO.P,U5,5,VOUT*%
%TO.N,+3V3*%
X138999000Y-120099000D03*
%TD*%
D26*
%TO.P,J3,1,Pin_1*%
%TO.N,GND*%
X135096000Y-106577000D03*
%TO.P,J3,2,Pin_2*%
%TO.N,+3V3*%
X135096000Y-107577000D03*
%TO.P,J3,3,Pin_3*%
%TO.N,/SDA*%
X135096000Y-108577000D03*
%TO.P,J3,4,Pin_4*%
%TO.N,/SCL*%
X135096000Y-109577000D03*
D27*
%TO.P,J3,MP*%
%TO.N,N/C*%
X131221000Y-105277000D03*
X131221000Y-110877000D03*
%TD*%
D19*
%TO.P,C10,1*%
%TO.N,+3V3*%
X147701000Y-119647000D03*
%TO.P,C10,2*%
%TO.N,GND*%
X147701000Y-118097000D03*
%TD*%
D28*
%TO.P,C11,1*%
%TO.N,/RESET*%
X152654000Y-121399000D03*
%TO.P,C11,2*%
%TO.N,GND*%
X152654000Y-122949000D03*
%TD*%
D29*
%TO.P,D1,1,K*%
%TO.N,/VIN*%
X144399000Y-121282000D03*
%TO.P,D1,2,A*%
%TO.N,/VBAT*%
X144399000Y-124082000D03*
%TD*%
D24*
%TO.P,R12,1*%
%TO.N,GND*%
X152654000Y-118047000D03*
%TO.P,R12,2*%
%TO.N,/PRESS_INT*%
X152654000Y-119697000D03*
%TD*%
%TO.P,R15,1*%
%TO.N,/RESET*%
X151003000Y-121349000D03*
%TO.P,R15,2*%
%TO.N,+3V3*%
X151003000Y-122999000D03*
%TD*%
%TO.P,R16,1*%
%TO.N,/SCL*%
X149352000Y-121349000D03*
%TO.P,R16,2*%
%TO.N,+3V3*%
X149352000Y-122999000D03*
%TD*%
%TO.P,R17,1*%
%TO.N,/SDA*%
X147701000Y-121349000D03*
%TO.P,R17,2*%
%TO.N,+3V3*%
X147701000Y-122999000D03*
%TD*%
D30*
%TO.P,S1,1,NO*%
%TO.N,/RESET*%
X132549000Y-130387000D03*
%TO.P,S1,2,COM*%
%TO.N,GND*%
X130849000Y-130387000D03*
%TO.P,S1,3,NO*%
%TO.N,/RESET*%
X132549000Y-125137000D03*
%TO.P,S1,4,COM*%
%TO.N,GND*%
X130849000Y-125137000D03*
%TD*%
%TO.P,S2,1,NO*%
%TO.N,/BTN*%
X158535000Y-125137000D03*
%TO.P,S2,2,COM*%
%TO.N,GND*%
X160235000Y-125137000D03*
%TO.P,S2,3,NO*%
%TO.N,/BTN*%
X158535000Y-130387000D03*
%TO.P,S2,4,COM*%
%TO.N,GND*%
X160235000Y-130387000D03*
%TD*%
D31*
%TO.P,H1,1*%
%TO.N,N/C*%
X134717000Y-134239000D03*
X131516175Y-135564825D03*
X131516175Y-132913175D03*
X132842000Y-132364000D03*
X132842000Y-136114000D03*
X134167825Y-132913175D03*
D32*
X132842000Y-134239000D03*
D31*
X134167825Y-135564825D03*
X130967000Y-134239000D03*
%TD*%
%TO.P,H2,1*%
%TO.N,N/C*%
X156916175Y-135564825D03*
X159567825Y-135564825D03*
X158242000Y-136114000D03*
D32*
X158242000Y-134239000D03*
D31*
X159567825Y-132913175D03*
X158242000Y-132364000D03*
X160117000Y-134239000D03*
X156916175Y-132913175D03*
X156367000Y-134239000D03*
%TD*%
D33*
%TO.P,S3,1,NC*%
%TO.N,unconnected-(S3-Pad1)*%
X134832000Y-114602000D03*
%TO.P,S3,2,NO*%
%TO.N,/EN*%
X134832000Y-116602000D03*
%TO.P,S3,3,COM*%
%TO.N,/VIN*%
X134832000Y-118602000D03*
D34*
%TO.P,S3,MH1,MH1*%
%TO.N,unconnected-(S3-PadMH1)*%
X130782000Y-114477000D03*
%TO.P,S3,MH2,MH2*%
%TO.N,unconnected-(S3-PadMH2)*%
X130782000Y-120727000D03*
%TD*%
D28*
%TO.P,C12,1*%
%TO.N,/BAT_SENS*%
X147066000Y-114033000D03*
%TO.P,C12,2*%
%TO.N,GND*%
X147066000Y-115583000D03*
%TD*%
D25*
%TO.P,R4,1*%
%TO.N,/VBAT*%
X143256000Y-115633000D03*
%TO.P,R4,2*%
%TO.N,/BAT_SENS*%
X143256000Y-113983000D03*
%TD*%
%TO.P,R18,1*%
%TO.N,GND*%
X145161000Y-115633000D03*
%TO.P,R18,2*%
%TO.N,/BAT_SENS*%
X145161000Y-113983000D03*
%TD*%
D21*
%TO.P,D4,1,K*%
%TO.N,Net-(D4-Pad1)*%
X156718000Y-114579500D03*
%TO.P,D4,2,A*%
%TO.N,Net-(D4-Pad2)*%
X156718000Y-113004500D03*
%TD*%
D31*
%TO.P,H3,1*%
%TO.N,N/C*%
X132842000Y-99792000D03*
X134167825Y-96591175D03*
X130967000Y-97917000D03*
X134717000Y-97917000D03*
D32*
X132842000Y-97917000D03*
D31*
X132842000Y-96042000D03*
X131516175Y-96591175D03*
X134167825Y-99242825D03*
X131516175Y-99242825D03*
%TD*%
%TO.P,H4,1*%
%TO.N,N/C*%
X160117000Y-97917000D03*
X159567825Y-99242825D03*
X156367000Y-97917000D03*
X159567825Y-96591175D03*
X158242000Y-99792000D03*
D32*
X158242000Y-97917000D03*
D31*
X158242000Y-96042000D03*
X156916175Y-99242825D03*
X156916175Y-96591175D03*
%TD*%
D25*
%TO.P,R7,1*%
%TO.N,GND*%
X155067000Y-114617000D03*
%TO.P,R7,2*%
%TO.N,Net-(D4-Pad1)*%
X155067000Y-112967000D03*
%TD*%
D29*
%TO.P,D5,1,K*%
%TO.N,/VIN*%
X141097000Y-116970000D03*
%TO.P,D5,2,A*%
%TO.N,/VBUS*%
X141097000Y-114170000D03*
%TD*%
D35*
%TO.P,J6,1,Pin_1*%
%TO.N,GND*%
X155988000Y-109577000D03*
%TO.P,J6,2,Pin_2*%
%TO.N,+3V3*%
X155988000Y-108577000D03*
%TO.P,J6,3,Pin_3*%
%TO.N,/SDA*%
X155988000Y-107577000D03*
%TO.P,J6,4,Pin_4*%
%TO.N,/SCL*%
X155988000Y-106577000D03*
D36*
%TO.P,J6,MP*%
%TO.N,N/C*%
X159863000Y-110877000D03*
X159863000Y-105277000D03*
%TD*%
D37*
%TO.P,TP1,1,1*%
%TO.N,/VBUS*%
X141732000Y-97155000D03*
%TD*%
%TO.P,TP2,1,1*%
%TO.N,GND*%
X144272000Y-97155000D03*
%TD*%
%TO.P,TP4,1,1*%
%TO.N,/Rx*%
X149352000Y-97155000D03*
%TD*%
%TO.P,TP3,1,1*%
%TO.N,/Tx*%
X146812000Y-97155000D03*
%TD*%
D19*
%TO.P,C5,1*%
%TO.N,+3V3*%
X148717000Y-107963000D03*
%TO.P,C5,2*%
%TO.N,GND*%
X148717000Y-106413000D03*
%TD*%
%TO.P,C6,1*%
%TO.N,+3V3*%
X143129000Y-107963000D03*
%TO.P,C6,2*%
%TO.N,GND*%
X143129000Y-106413000D03*
%TD*%
D38*
%TO.P,IC1,1,SDO*%
%TO.N,GND*%
X144900000Y-106438000D03*
%TO.P,IC1,2,GND_1*%
X144900000Y-106938000D03*
%TO.P,IC1,3,GND_2*%
X144900000Y-107438000D03*
%TO.P,IC1,4,INT1*%
%TO.N,/BMX_INT1*%
X144900000Y-107938000D03*
D39*
%TO.P,IC1,5,VDDIO*%
%TO.N,+3V3*%
X145550000Y-108088000D03*
%TO.P,IC1,6,GNDIO*%
%TO.N,GND*%
X146050000Y-108088000D03*
%TO.P,IC1,7,GND_3*%
X146550000Y-108088000D03*
D38*
%TO.P,IC1,8,VDD*%
%TO.N,+3V3*%
X147200000Y-107938000D03*
%TO.P,IC1,9,INT2*%
%TO.N,/BMX_INT2*%
X147200000Y-107438000D03*
%TO.P,IC1,10,DNC_1*%
%TO.N,unconnected-(IC1-Pad10)*%
X147200000Y-106938000D03*
%TO.P,IC1,11,DNC_2*%
%TO.N,unconnected-(IC1-Pad11)*%
X147200000Y-106438000D03*
D39*
%TO.P,IC1,12,CSB*%
%TO.N,+3V3*%
X146550000Y-106288000D03*
%TO.P,IC1,13,SCX*%
%TO.N,/SCL*%
X146050000Y-106288000D03*
%TO.P,IC1,14,SDX*%
%TO.N,/SDA*%
X145550000Y-106288000D03*
%TD*%
D18*
%TO.P,C7,1*%
%TO.N,/BTN*%
X155588000Y-126492000D03*
%TO.P,C7,2*%
%TO.N,GND*%
X154038000Y-126492000D03*
%TD*%
D23*
%TO.P,R8,1*%
%TO.N,/BTN*%
X155638000Y-124841000D03*
%TO.P,R8,2*%
%TO.N,+3V3*%
X153988000Y-124841000D03*
%TD*%
D40*
%TO.N,+3V3*%
X157224200Y-108581000D03*
X155677100Y-122239500D03*
X152577800Y-98075100D03*
X148717000Y-108873300D03*
X151003000Y-123851700D03*
X148550800Y-121968000D03*
X147098400Y-108666100D03*
X133850500Y-107577000D03*
X142406400Y-107240400D03*
X138296600Y-120894500D03*
%TO.N,GND*%
X149159200Y-118815800D03*
X155067000Y-115474300D03*
X154038000Y-127759900D03*
X151091800Y-115904300D03*
X153392300Y-122239300D03*
X135096000Y-105822900D03*
X155690100Y-119894300D03*
X140925100Y-123206600D03*
X138492300Y-97028000D03*
X140475200Y-127310200D03*
X155485800Y-123253000D03*
X146134600Y-115914800D03*
X135822400Y-124209600D03*
X130849000Y-123911200D03*
X160235000Y-128876900D03*
X155988000Y-110343700D03*
X138278100Y-115495100D03*
X149645200Y-106687200D03*
X147511000Y-128086100D03*
X143588900Y-104852300D03*
X142202500Y-106413000D03*
X152582000Y-97107100D03*
X152654000Y-117195600D03*
X160235000Y-126392400D03*
X144272000Y-95954700D03*
X130849000Y-129159000D03*
X160347100Y-121441200D03*
%TO.N,/VBUS*%
X140893300Y-121107700D03*
X151638000Y-132207000D03*
X151003000Y-132207000D03*
X140482200Y-105764000D03*
D41*
X149479000Y-127889000D03*
D40*
X149733000Y-132207000D03*
X159588200Y-115510600D03*
X139000300Y-103687700D03*
X142869245Y-121805622D03*
X149098000Y-132207000D03*
X140258300Y-121107700D03*
X150368000Y-132207000D03*
X141528300Y-121107700D03*
X152781000Y-128080600D03*
%TO.N,/VBAT*%
X140925100Y-123907000D03*
X137919700Y-123163400D03*
%TO.N,/SCL*%
X135301700Y-104971500D03*
%TO.N,/SDA*%
X138815800Y-105188900D03*
%TO.N,/RESET*%
X139112700Y-98329500D03*
X150179300Y-122341400D03*
X136123500Y-120372000D03*
%TO.N,/PRESS_INT*%
X150938900Y-118965000D03*
%TO.N,/BTN*%
X152830900Y-124871000D03*
%TO.N,/Tx*%
X139663400Y-100103700D03*
%TO.N,/Rx*%
X141431100Y-101871400D03*
%TO.N,/BAT_SENS*%
X152341800Y-106949900D03*
%TO.N,Net-(D4-Pad2)*%
X152137200Y-111967600D03*
%TO.N,/VIN*%
X142569700Y-117703500D03*
X143951700Y-119085500D03*
%TO.N,/BMX_INT2*%
X147825300Y-110981000D03*
%TO.N,/BMX_INT1*%
X143214100Y-109092900D03*
%TD*%
D42*
%TO.N,+3V3*%
X155992000Y-108581000D02*
X155988000Y-108577000D01*
X149139000Y-120097200D02*
X149139100Y-120097300D01*
X148717000Y-107680200D02*
X147915700Y-106878900D01*
X149352000Y-122999000D02*
X148526500Y-122173500D01*
X150439000Y-119597000D02*
X150439000Y-120097300D01*
X148739500Y-120496800D02*
X149139000Y-120097300D01*
X145550000Y-108088000D02*
X145550000Y-108713300D01*
X138595300Y-120894500D02*
X138296600Y-120894500D01*
X148717000Y-108873300D02*
X148717000Y-107963000D01*
X148526500Y-122173500D02*
X148550800Y-122149200D01*
X149139100Y-120097300D02*
X150439000Y-120097300D01*
X148526500Y-122173500D02*
X147701000Y-122999000D01*
X139055000Y-120155000D02*
X140716000Y-120155000D01*
X147006300Y-108574000D02*
X147098400Y-108666100D01*
X146801000Y-105923300D02*
X146550000Y-106174300D01*
X149139000Y-119984700D02*
X149139000Y-120097200D01*
X147915700Y-106235400D02*
X147603600Y-105923300D01*
X148550800Y-120496800D02*
X147701000Y-119647000D01*
X138999000Y-120099000D02*
X139055000Y-120155000D01*
X149139000Y-120097200D02*
X149139000Y-120097300D01*
X138999000Y-120099000D02*
X138999000Y-120490800D01*
X149139000Y-119597000D02*
X149139000Y-119984700D01*
X148717000Y-107963000D02*
X148717000Y-107680200D01*
X146867000Y-108713300D02*
X147006300Y-108574000D01*
X148550800Y-120496800D02*
X148739500Y-120496800D01*
X146550000Y-106174300D02*
X146550000Y-106288000D01*
X147915700Y-106878900D02*
X147915700Y-106235400D01*
X151003000Y-123851700D02*
X151003000Y-122999000D01*
X147006300Y-108574000D02*
X147200000Y-108380300D01*
X153988000Y-123928600D02*
X153988000Y-124841000D01*
X148550800Y-121968000D02*
X148550800Y-120496800D01*
X147603600Y-105923300D02*
X146801000Y-105923300D01*
X157224200Y-108581000D02*
X155992000Y-108581000D01*
X148550800Y-122149200D02*
X148550800Y-121968000D01*
X145550000Y-108713300D02*
X146867000Y-108713300D01*
X155677100Y-122239500D02*
X153988000Y-123928600D01*
X147200000Y-108380300D02*
X147200000Y-107938000D01*
X138999000Y-120490800D02*
X138595300Y-120894500D01*
X143129000Y-107963000D02*
X142406400Y-107240400D01*
X135096000Y-107577000D02*
X133850500Y-107577000D01*
%TO.N,GND*%
X155988000Y-110343700D02*
X155988000Y-109577000D01*
X146550000Y-108088000D02*
X146550000Y-107462700D01*
X155067000Y-115474300D02*
X155067000Y-114617000D01*
X138278100Y-115495100D02*
X138237900Y-115495100D01*
X138049000Y-117899000D02*
X138049000Y-118754300D01*
X144900000Y-107438000D02*
X145525300Y-107438000D01*
X139192000Y-123307700D02*
X140824000Y-123307700D01*
X140716000Y-118605000D02*
X141478000Y-118605000D01*
X147016000Y-115633000D02*
X147066000Y-115583000D01*
X135096000Y-106577000D02*
X135096000Y-105822900D01*
X146025300Y-107438000D02*
X146050000Y-107462700D01*
X149159200Y-118667500D02*
X149139000Y-118647300D01*
X153606000Y-129032000D02*
X153606000Y-130069700D01*
X137528000Y-116205000D02*
X138049000Y-116726000D01*
X135822400Y-124209600D02*
X136525000Y-123507000D01*
X146050000Y-108088000D02*
X146050000Y-107462700D01*
X139192000Y-124163000D02*
X139192000Y-123307700D01*
X145525300Y-107438000D02*
X146025300Y-107438000D01*
X141321400Y-123206600D02*
X140925100Y-123206600D01*
X149508100Y-118815800D02*
X149159200Y-118815800D01*
X144249700Y-106413000D02*
X144274700Y-106438000D01*
X140824000Y-123307700D02*
X140925100Y-123206600D01*
X147511000Y-129032000D02*
X147511000Y-128086100D01*
X153606000Y-130069700D02*
X153568000Y-130107700D01*
X141478000Y-118605000D02*
X142367000Y-119494000D01*
X146134600Y-115633000D02*
X147016000Y-115633000D01*
X141462000Y-127325000D02*
X141447200Y-127310200D01*
X160020000Y-121114100D02*
X160347100Y-121441200D01*
X130849000Y-129159000D02*
X130849000Y-130387000D01*
X144272000Y-97155000D02*
X144272000Y-95954700D01*
X144743700Y-106938000D02*
X144900000Y-106938000D01*
X138237900Y-115495100D02*
X137528000Y-116205000D01*
X160235000Y-125137000D02*
X160235000Y-126237300D01*
X149159200Y-118815800D02*
X149159200Y-118667500D01*
X149789000Y-119096700D02*
X149508100Y-118815800D01*
X147168000Y-129375000D02*
X147168000Y-131008000D01*
X130849000Y-125137000D02*
X130849000Y-123911200D01*
X141447200Y-127310200D02*
X140475200Y-127310200D01*
X145161000Y-115633000D02*
X146134600Y-115633000D01*
X149139000Y-118147000D02*
X149139000Y-118647300D01*
X153606000Y-128191900D02*
X153606000Y-129032000D01*
X147511000Y-129032000D02*
X147168000Y-129375000D01*
X143129000Y-106413000D02*
X142202500Y-106413000D01*
X149789000Y-119597000D02*
X149789000Y-119096700D01*
X149139000Y-118147000D02*
X147751000Y-118147000D01*
X147751000Y-118147000D02*
X147701000Y-118097000D01*
X152682600Y-122949000D02*
X152654000Y-122949000D01*
X152654000Y-117195600D02*
X152654000Y-118047000D01*
X138049000Y-116726000D02*
X138049000Y-117899000D01*
X145525300Y-106938000D02*
X145525300Y-107438000D01*
X144743700Y-106938000D02*
X144587400Y-106938000D01*
X154038000Y-126492000D02*
X154038000Y-127759900D01*
X144587400Y-106438000D02*
X144274700Y-106438000D01*
X144587400Y-106438000D02*
X144587400Y-106938000D01*
X160235000Y-128876900D02*
X160235000Y-130387000D01*
X141859000Y-122669000D02*
X141321400Y-123206600D01*
X144900000Y-106938000D02*
X145525300Y-106938000D01*
X140566700Y-118754300D02*
X140716000Y-118605000D01*
X149645200Y-106687200D02*
X148991200Y-106687200D01*
X138049000Y-118754300D02*
X140566700Y-118754300D01*
X148991200Y-106687200D02*
X148717000Y-106413000D01*
X160020000Y-120548500D02*
X160020000Y-121114100D01*
X153392300Y-122239300D02*
X152682600Y-122949000D01*
X153568000Y-131008000D02*
X153568000Y-130107700D01*
X154038000Y-127759900D02*
X153606000Y-128191900D01*
X146134600Y-115914800D02*
X146134600Y-115633000D01*
X143129000Y-106413000D02*
X144249700Y-106413000D01*
X144900000Y-106438000D02*
X144587400Y-106438000D01*
X160235000Y-126237300D02*
X160235000Y-126392400D01*
X146050000Y-107462700D02*
X146550000Y-107462700D01*
%TO.N,/VBUS*%
X148642978Y-132207000D02*
X149098000Y-132207000D01*
X147968000Y-131008000D02*
X148243489Y-131283489D01*
X143168300Y-117116600D02*
X143168300Y-120242700D01*
X142367000Y-121044000D02*
X142367000Y-121303377D01*
X152093022Y-132207000D02*
X152768000Y-131532022D01*
X160020000Y-115078800D02*
X159588200Y-115510600D01*
X141528300Y-121107700D02*
X142303300Y-121107700D01*
X141097000Y-114425200D02*
X141097000Y-115045300D01*
X142303300Y-121107700D02*
X142367000Y-121044000D01*
X151638000Y-132207000D02*
X152093022Y-132207000D01*
X148235520Y-130740480D02*
X148235520Y-128427137D01*
X150368000Y-132207000D02*
X151003000Y-132207000D01*
X141097000Y-114425200D02*
X140462000Y-113790200D01*
X148235520Y-128427137D02*
X148773657Y-127889000D01*
X152768000Y-131008000D02*
X152768000Y-130107700D01*
X140462000Y-113790200D02*
X140462000Y-105784200D01*
X149098000Y-132207000D02*
X149733000Y-132207000D01*
X139000300Y-103687700D02*
X139000300Y-99886700D01*
X139000300Y-99886700D02*
X141732000Y-97155000D01*
X140142000Y-121107700D02*
X140258300Y-121107700D01*
X148243489Y-131807511D02*
X148642978Y-132207000D01*
X147968000Y-131008000D02*
X148235520Y-130740480D01*
X152781000Y-130094700D02*
X152768000Y-130107700D01*
X142367000Y-121303377D02*
X142869245Y-121805622D01*
X152768000Y-131532022D02*
X152768000Y-131008000D01*
X141097000Y-114170000D02*
X141097000Y-114425200D01*
X140142000Y-121963000D02*
X140142000Y-121107700D01*
X151003000Y-132207000D02*
X151638000Y-132207000D01*
X143168300Y-120242700D02*
X142367000Y-121044000D01*
X141097000Y-115045300D02*
X143168300Y-117116600D01*
X140258300Y-121107700D02*
X140893300Y-121107700D01*
X140893300Y-121107700D02*
X141528300Y-121107700D01*
X140462000Y-105784200D02*
X140482200Y-105764000D01*
X148243489Y-131283489D02*
X148243489Y-131807511D01*
X149733000Y-132207000D02*
X150368000Y-132207000D01*
X148773657Y-127889000D02*
X149479000Y-127889000D01*
X152781000Y-128080600D02*
X152781000Y-130094700D01*
X160020000Y-114579500D02*
X160020000Y-115078800D01*
%TO.N,/VBAT*%
X143523700Y-124082000D02*
X141996000Y-124082000D01*
X140981100Y-124219000D02*
X140925100Y-124163000D01*
X144399000Y-124082000D02*
X143523700Y-124082000D01*
X141859000Y-124219000D02*
X140981100Y-124219000D01*
X143256000Y-115633000D02*
X145274400Y-117651400D01*
X139462000Y-127325000D02*
X137591600Y-125454600D01*
X145274400Y-117651400D02*
X145274400Y-122768900D01*
X141996000Y-124082000D02*
X141859000Y-124219000D01*
X144399000Y-124082000D02*
X144399000Y-123644300D01*
X145274400Y-122768900D02*
X144399000Y-123644300D01*
X137591600Y-125454600D02*
X137591600Y-123491500D01*
X140925100Y-124163000D02*
X140925100Y-123907000D01*
X140925100Y-124163000D02*
X140142000Y-124163000D01*
X137591600Y-123491500D02*
X137919700Y-123163400D01*
%TO.N,Net-(D2-Pad1)*%
X159982500Y-112967000D02*
X160020000Y-113004500D01*
X158369000Y-112967000D02*
X159982500Y-112967000D01*
%TO.N,Net-(D3-Pad2)*%
X158406500Y-118973500D02*
X160020000Y-118973500D01*
X158369000Y-118936000D02*
X158406500Y-118973500D01*
%TO.N,Net-(R3-Pad1)*%
X136525000Y-121857000D02*
X138136000Y-121857000D01*
X138136000Y-121857000D02*
X138242000Y-121963000D01*
%TO.N,/STAT*%
X138242000Y-124163000D02*
X138242000Y-125018300D01*
X158369000Y-120586000D02*
X157565500Y-119782500D01*
X157565500Y-119782500D02*
X157105700Y-119782500D01*
X157105700Y-119782500D02*
X151869900Y-125018300D01*
X158369000Y-116431200D02*
X158369000Y-114617000D01*
X151869900Y-125018300D02*
X138242000Y-125018300D01*
X157565500Y-119782500D02*
X157565500Y-117234700D01*
X157565500Y-117234700D02*
X158369000Y-116431200D01*
%TO.N,/SCL*%
X151589300Y-118249900D02*
X151589300Y-118147000D01*
X155988000Y-106577000D02*
X156450500Y-106577000D01*
X157543500Y-115034000D02*
X153794600Y-118782900D01*
X157881800Y-111864600D02*
X157543500Y-112202900D01*
X154876100Y-105465100D02*
X155988000Y-106577000D01*
X135096000Y-109577000D02*
X134617100Y-109577000D01*
X150153300Y-120547700D02*
X149352000Y-121349000D01*
X153505600Y-118782900D02*
X153505600Y-120085400D01*
X153505600Y-120085400D02*
X153043300Y-120547700D01*
X144859200Y-104274300D02*
X146050000Y-105465100D01*
X135058300Y-104971500D02*
X135301700Y-104971500D01*
X153043300Y-120547700D02*
X150153300Y-120547700D01*
X153794600Y-118782900D02*
X153505600Y-118782900D01*
X146050000Y-105465100D02*
X154876100Y-105465100D01*
X151089000Y-118147000D02*
X151589300Y-118147000D01*
X157543500Y-112202900D02*
X157543500Y-115034000D01*
X156450500Y-106577000D02*
X157881800Y-108008300D01*
X146050000Y-106288000D02*
X146050000Y-105465100D01*
X153505600Y-118782900D02*
X152122300Y-118782900D01*
X133255600Y-106774200D02*
X135058300Y-104971500D01*
X133255600Y-108215500D02*
X133255600Y-106774200D01*
X135301700Y-104971500D02*
X135998900Y-104274300D01*
X157881800Y-108008300D02*
X157881800Y-111864600D01*
X152122300Y-118782900D02*
X151589300Y-118249900D01*
X135998900Y-104274300D02*
X144859200Y-104274300D01*
X134617100Y-109577000D02*
X133255600Y-108215500D01*
%TO.N,/SDA*%
X141603300Y-105603900D02*
X141603300Y-107514000D01*
X142119500Y-114072100D02*
X142855400Y-114808000D01*
X141188100Y-105188700D02*
X138816000Y-105188700D01*
X147174700Y-117293100D02*
X146891000Y-117576800D01*
X150085400Y-113002200D02*
X150085400Y-117293100D01*
X141603300Y-105603900D02*
X145491200Y-105603900D01*
X138815800Y-105188900D02*
X138815800Y-105358800D01*
X144208500Y-115924100D02*
X145861200Y-117576800D01*
X150085400Y-117293100D02*
X147174700Y-117293100D01*
X135597600Y-108577000D02*
X135096000Y-108577000D01*
X145550000Y-106288000D02*
X145550000Y-105662700D01*
X150439000Y-118147000D02*
X150439000Y-117646700D01*
X145861200Y-117576800D02*
X146891000Y-117576800D01*
X145491200Y-105603900D02*
X145550000Y-105662700D01*
X141603300Y-107514000D02*
X142119500Y-108030200D01*
X146891000Y-117576800D02*
X146891000Y-120539000D01*
X138816000Y-105188700D02*
X138815800Y-105188900D01*
X142855400Y-114808000D02*
X143720700Y-114808000D01*
X141603300Y-105603900D02*
X141188100Y-105188700D01*
X150085400Y-117293100D02*
X150439000Y-117646700D01*
X155510600Y-107577000D02*
X150085400Y-113002200D01*
X144208500Y-115295800D02*
X144208500Y-115924100D01*
X143720700Y-114808000D02*
X144208500Y-115295800D01*
X155988000Y-107577000D02*
X155510600Y-107577000D01*
X146891000Y-120539000D02*
X147701000Y-121349000D01*
X138815800Y-105358800D02*
X135597600Y-108577000D01*
X142119500Y-108030200D02*
X142119500Y-114072100D01*
%TO.N,/RESET*%
X151003000Y-121399000D02*
X152654000Y-121399000D01*
X132758400Y-120372000D02*
X136123500Y-120372000D01*
X132758400Y-104683800D02*
X132758400Y-120372000D01*
X150179300Y-122222700D02*
X150179300Y-122341400D01*
X151003000Y-121399000D02*
X150179300Y-122222700D01*
X151003000Y-121349000D02*
X151003000Y-121399000D01*
X132758400Y-123827300D02*
X132549000Y-124036700D01*
X132758400Y-120372000D02*
X132758400Y-123827300D01*
X132549000Y-130387000D02*
X132549000Y-125137000D01*
X132549000Y-125137000D02*
X132549000Y-124036700D01*
X139112700Y-98329500D02*
X132758400Y-104683800D01*
%TO.N,/PRESS_INT*%
X151089000Y-119597000D02*
X151089000Y-119096700D01*
X151070600Y-119096700D02*
X150938900Y-118965000D01*
X151089000Y-119096700D02*
X151070600Y-119096700D01*
X152554000Y-119597000D02*
X152654000Y-119697000D01*
X151089000Y-119597000D02*
X152554000Y-119597000D01*
%TO.N,/BTN*%
X154812600Y-125666400D02*
X155638000Y-124841000D01*
X155588000Y-126492000D02*
X155638000Y-126442000D01*
X158535000Y-125641500D02*
X158535000Y-129286700D01*
X152830900Y-124956100D02*
X153541200Y-125666400D01*
X155638000Y-126442000D02*
X155638000Y-125641500D01*
X155638000Y-125641500D02*
X155638000Y-124841000D01*
X158535000Y-130387000D02*
X158535000Y-129286700D01*
X158535000Y-125137000D02*
X158535000Y-125641500D01*
X152830900Y-124871000D02*
X152830900Y-124956100D01*
X155638000Y-125641500D02*
X158535000Y-125641500D01*
X153541200Y-125666400D02*
X154812600Y-125666400D01*
%TO.N,/Tx*%
X143863300Y-100103700D02*
X146812000Y-97155000D01*
X139663400Y-100103700D02*
X143863300Y-100103700D01*
%TO.N,/Rx*%
X144635600Y-101871400D02*
X141431100Y-101871400D01*
X149352000Y-97155000D02*
X144635600Y-101871400D01*
%TO.N,/EN*%
X134832000Y-116602000D02*
X136107300Y-116602000D01*
X136107300Y-116602000D02*
X136549000Y-117043700D01*
X137099000Y-117899000D02*
X137099000Y-117043700D01*
X136549000Y-117043700D02*
X137099000Y-117043700D01*
%TO.N,/BAT_SENS*%
X147066000Y-113983000D02*
X147066000Y-114033000D01*
X143256000Y-113983000D02*
X145161000Y-113983000D01*
X152341800Y-108707200D02*
X147066000Y-113983000D01*
X145161000Y-113983000D02*
X147066000Y-113983000D01*
X152341800Y-106949900D02*
X152341800Y-108707200D01*
%TO.N,Net-(J1-PadA5)*%
X149161000Y-129032000D02*
X149118000Y-129075000D01*
X149118000Y-129075000D02*
X149118000Y-131008000D01*
%TO.N,Net-(J1-PadB5)*%
X151956000Y-129032000D02*
X152118000Y-129194000D01*
X152118000Y-129194000D02*
X152118000Y-131008000D01*
%TO.N,Net-(D4-Pad2)*%
X155681100Y-111967600D02*
X156718000Y-113004500D01*
X152137200Y-111967600D02*
X155681100Y-111967600D01*
%TO.N,Net-(D4-Pad1)*%
X155067000Y-112967000D02*
X156679500Y-114579500D01*
X156679500Y-114579500D02*
X156718000Y-114579500D01*
%TO.N,/VIN*%
X135916700Y-115427400D02*
X134083400Y-115427400D01*
X142569700Y-117703500D02*
X141972300Y-117106100D01*
X134832000Y-118602000D02*
X133556700Y-118602000D01*
X134083400Y-115427400D02*
X133556700Y-115954100D01*
X141097000Y-116970000D02*
X141972300Y-116970000D01*
X138999000Y-117899000D02*
X138999000Y-117043700D01*
X143951700Y-119959400D02*
X143951700Y-119085500D01*
X139078000Y-116205000D02*
X139078000Y-115471000D01*
X136438600Y-114905500D02*
X135916700Y-115427400D01*
X139078000Y-115471000D02*
X138512500Y-114905500D01*
X139004300Y-117043700D02*
X138999000Y-117043700D01*
X139078000Y-116970000D02*
X139004300Y-117043700D01*
X144399000Y-121282000D02*
X144399000Y-120406700D01*
X144399000Y-120406700D02*
X143951700Y-119959400D01*
X139078000Y-116970000D02*
X139078000Y-116205000D01*
X133556700Y-115954100D02*
X133556700Y-118602000D01*
X141972300Y-117106100D02*
X141972300Y-116970000D01*
X138512500Y-114905500D02*
X136438600Y-114905500D01*
X141097000Y-116970000D02*
X139078000Y-116970000D01*
%TO.N,/BMX_INT2*%
X147825300Y-110981000D02*
X147825300Y-107438000D01*
X147200000Y-107438000D02*
X147825300Y-107438000D01*
%TO.N,/BMX_INT1*%
X143214100Y-109092900D02*
X143309400Y-109092900D01*
X143309400Y-109092900D02*
X144274700Y-108127600D01*
X144900000Y-107938000D02*
X144274700Y-107938000D01*
X144274700Y-108127600D02*
X144274700Y-107938000D01*
%TD*%
M02*
