%TF.GenerationSoftware,KiCad,Pcbnew,(5.1.8)-1*%
%TF.CreationDate,2021-06-05T10:25:27+02:00*%
%TF.ProjectId,trick-tracker,74726963-6b2d-4747-9261-636b65722e6b,rev?*%
%TF.SameCoordinates,Original*%
%TF.FileFunction,Soldermask,Top*%
%TF.FilePolarity,Negative*%
%FSLAX46Y46*%
G04 Gerber Fmt 4.6, Leading zero omitted, Abs format (unit mm)*
G04 Created by KiCad (PCBNEW (5.1.8)-1) date 2021-06-05 10:25:27*
%MOMM*%
%LPD*%
G01*
G04 APERTURE LIST*
%ADD10R,0.300000X0.600000*%
%ADD11R,0.600000X0.300000*%
%ADD12C,1.500000*%
%ADD13C,0.800000*%
%ADD14C,5.000000*%
%ADD15R,0.300000X1.150000*%
%ADD16R,0.600000X1.150000*%
%ADD17C,0.650000*%
%ADD18O,1.050000X2.100000*%
%ADD19O,1.000000X2.000000*%
%ADD20R,0.700000X0.510000*%
%ADD21R,1.100000X1.100000*%
%ADD22C,1.300000*%
%ADD23R,1.900000X1.000000*%
%ADD24R,1.000000X1.550000*%
%ADD25R,0.650000X1.060000*%
%ADD26R,0.350000X0.350000*%
G04 APERTURE END LIST*
D10*
%TO.C,IC1*%
X145550000Y-106288000D03*
X146050000Y-106288000D03*
X146550000Y-106288000D03*
D11*
X147200000Y-106438000D03*
X147200000Y-106938000D03*
X147200000Y-107438000D03*
X147200000Y-107938000D03*
D10*
X146550000Y-108088000D03*
X146050000Y-108088000D03*
X145550000Y-108088000D03*
D11*
X144900000Y-107938000D03*
X144900000Y-107438000D03*
X144900000Y-106938000D03*
X144900000Y-106438000D03*
%TD*%
%TO.C,C6*%
G36*
G01*
X143379000Y-106863000D02*
X142879000Y-106863000D01*
G75*
G02*
X142654000Y-106638000I0J225000D01*
G01*
X142654000Y-106188000D01*
G75*
G02*
X142879000Y-105963000I225000J0D01*
G01*
X143379000Y-105963000D01*
G75*
G02*
X143604000Y-106188000I0J-225000D01*
G01*
X143604000Y-106638000D01*
G75*
G02*
X143379000Y-106863000I-225000J0D01*
G01*
G37*
G36*
G01*
X143379000Y-108413000D02*
X142879000Y-108413000D01*
G75*
G02*
X142654000Y-108188000I0J225000D01*
G01*
X142654000Y-107738000D01*
G75*
G02*
X142879000Y-107513000I225000J0D01*
G01*
X143379000Y-107513000D01*
G75*
G02*
X143604000Y-107738000I0J-225000D01*
G01*
X143604000Y-108188000D01*
G75*
G02*
X143379000Y-108413000I-225000J0D01*
G01*
G37*
%TD*%
%TO.C,C5*%
G36*
G01*
X148967000Y-106863000D02*
X148467000Y-106863000D01*
G75*
G02*
X148242000Y-106638000I0J225000D01*
G01*
X148242000Y-106188000D01*
G75*
G02*
X148467000Y-105963000I225000J0D01*
G01*
X148967000Y-105963000D01*
G75*
G02*
X149192000Y-106188000I0J-225000D01*
G01*
X149192000Y-106638000D01*
G75*
G02*
X148967000Y-106863000I-225000J0D01*
G01*
G37*
G36*
G01*
X148967000Y-108413000D02*
X148467000Y-108413000D01*
G75*
G02*
X148242000Y-108188000I0J225000D01*
G01*
X148242000Y-107738000D01*
G75*
G02*
X148467000Y-107513000I225000J0D01*
G01*
X148967000Y-107513000D01*
G75*
G02*
X149192000Y-107738000I0J-225000D01*
G01*
X149192000Y-108188000D01*
G75*
G02*
X148967000Y-108413000I-225000J0D01*
G01*
G37*
%TD*%
D12*
%TO.C,TP7*%
X148209000Y-99822000D03*
%TD*%
D13*
%TO.C,H4*%
X159567825Y-100020175D03*
X158242000Y-99471000D03*
X156916175Y-100020175D03*
X156367000Y-101346000D03*
X156916175Y-102671825D03*
X158242000Y-103221000D03*
X159567825Y-102671825D03*
X160117000Y-101346000D03*
D14*
X158242000Y-101346000D03*
%TD*%
D13*
%TO.C,H3*%
X134167825Y-100020175D03*
X132842000Y-99471000D03*
X131516175Y-100020175D03*
X130967000Y-101346000D03*
X131516175Y-102671825D03*
X132842000Y-103221000D03*
X134167825Y-102671825D03*
X134717000Y-101346000D03*
D14*
X132842000Y-101346000D03*
%TD*%
D13*
%TO.C,H2*%
X159567825Y-132913175D03*
X158242000Y-132364000D03*
X156916175Y-132913175D03*
X156367000Y-134239000D03*
X156916175Y-135564825D03*
X158242000Y-136114000D03*
X159567825Y-135564825D03*
X160117000Y-134239000D03*
D14*
X158242000Y-134239000D03*
%TD*%
D13*
%TO.C,H1*%
X134167825Y-132913175D03*
X132842000Y-132364000D03*
X131516175Y-132913175D03*
X130967000Y-134239000D03*
X131516175Y-135564825D03*
X132842000Y-136114000D03*
X134167825Y-135564825D03*
X134717000Y-134239000D03*
D14*
X132842000Y-134239000D03*
%TD*%
D15*
%TO.C,J1*%
X148618000Y-131008000D03*
X149118000Y-131008000D03*
X149618000Y-131008000D03*
X152118000Y-131008000D03*
X151618000Y-131008000D03*
X151118000Y-131008000D03*
X150118000Y-131008000D03*
X150618000Y-131008000D03*
D16*
X152768000Y-131008000D03*
X147968000Y-131008000D03*
X153568000Y-131008000D03*
X147168000Y-131008000D03*
D17*
X147478000Y-132083000D03*
X153258000Y-132083000D03*
D18*
X154688000Y-131583000D03*
X146048000Y-131583000D03*
D19*
X154688000Y-135763000D03*
X146048000Y-135763000D03*
%TD*%
D12*
%TO.C,TP6*%
X145669000Y-99822000D03*
%TD*%
%TO.C,TP5*%
X143129000Y-99822000D03*
%TD*%
%TO.C,TP4*%
X140589000Y-99822000D03*
%TD*%
%TO.C,TP3*%
X138049000Y-99822000D03*
%TD*%
%TO.C,TP2*%
X150749000Y-99822000D03*
%TD*%
%TO.C,TP1*%
X153289000Y-99822000D03*
%TD*%
D20*
%TO.C,U6*%
X151528000Y-129093000D03*
X151528000Y-128143000D03*
X151528000Y-127193000D03*
X149208000Y-127193000D03*
X149208000Y-128143000D03*
X149208000Y-129093000D03*
%TD*%
%TO.C,J2*%
G36*
G01*
X138962000Y-128825000D02*
X138962000Y-125825000D01*
G75*
G02*
X139212000Y-125575000I250000J0D01*
G01*
X139712000Y-125575000D01*
G75*
G02*
X139962000Y-125825000I0J-250000D01*
G01*
X139962000Y-128825000D01*
G75*
G02*
X139712000Y-129075000I-250000J0D01*
G01*
X139212000Y-129075000D01*
G75*
G02*
X138962000Y-128825000I0J250000D01*
G01*
G37*
G36*
G01*
X140962000Y-128825000D02*
X140962000Y-125825000D01*
G75*
G02*
X141212000Y-125575000I250000J0D01*
G01*
X141712000Y-125575000D01*
G75*
G02*
X141962000Y-125825000I0J-250000D01*
G01*
X141962000Y-128825000D01*
G75*
G02*
X141712000Y-129075000I-250000J0D01*
G01*
X141212000Y-129075000D01*
G75*
G02*
X140962000Y-128825000I0J250000D01*
G01*
G37*
G36*
G01*
X136362000Y-134525000D02*
X136362000Y-131625000D01*
G75*
G02*
X136612000Y-131375000I250000J0D01*
G01*
X137612000Y-131375000D01*
G75*
G02*
X137862000Y-131625000I0J-250000D01*
G01*
X137862000Y-134525000D01*
G75*
G02*
X137612000Y-134775000I-250000J0D01*
G01*
X136612000Y-134775000D01*
G75*
G02*
X136362000Y-134525000I0J250000D01*
G01*
G37*
G36*
G01*
X143062000Y-134525000D02*
X143062000Y-131625000D01*
G75*
G02*
X143312000Y-131375000I250000J0D01*
G01*
X144312000Y-131375000D01*
G75*
G02*
X144562000Y-131625000I0J-250000D01*
G01*
X144562000Y-134525000D01*
G75*
G02*
X144312000Y-134775000I-250000J0D01*
G01*
X143312000Y-134775000D01*
G75*
G02*
X143062000Y-134525000I0J250000D01*
G01*
G37*
%TD*%
%TO.C,J6*%
G36*
G01*
X156613000Y-109877000D02*
X155363000Y-109877000D01*
G75*
G02*
X155213000Y-109727000I0J150000D01*
G01*
X155213000Y-109427000D01*
G75*
G02*
X155363000Y-109277000I150000J0D01*
G01*
X156613000Y-109277000D01*
G75*
G02*
X156763000Y-109427000I0J-150000D01*
G01*
X156763000Y-109727000D01*
G75*
G02*
X156613000Y-109877000I-150000J0D01*
G01*
G37*
G36*
G01*
X156613000Y-108877000D02*
X155363000Y-108877000D01*
G75*
G02*
X155213000Y-108727000I0J150000D01*
G01*
X155213000Y-108427000D01*
G75*
G02*
X155363000Y-108277000I150000J0D01*
G01*
X156613000Y-108277000D01*
G75*
G02*
X156763000Y-108427000I0J-150000D01*
G01*
X156763000Y-108727000D01*
G75*
G02*
X156613000Y-108877000I-150000J0D01*
G01*
G37*
G36*
G01*
X156613000Y-107877000D02*
X155363000Y-107877000D01*
G75*
G02*
X155213000Y-107727000I0J150000D01*
G01*
X155213000Y-107427000D01*
G75*
G02*
X155363000Y-107277000I150000J0D01*
G01*
X156613000Y-107277000D01*
G75*
G02*
X156763000Y-107427000I0J-150000D01*
G01*
X156763000Y-107727000D01*
G75*
G02*
X156613000Y-107877000I-150000J0D01*
G01*
G37*
G36*
G01*
X156613000Y-106877000D02*
X155363000Y-106877000D01*
G75*
G02*
X155213000Y-106727000I0J150000D01*
G01*
X155213000Y-106427000D01*
G75*
G02*
X155363000Y-106277000I150000J0D01*
G01*
X156613000Y-106277000D01*
G75*
G02*
X156763000Y-106427000I0J-150000D01*
G01*
X156763000Y-106727000D01*
G75*
G02*
X156613000Y-106877000I-150000J0D01*
G01*
G37*
G36*
G01*
X160513001Y-111477000D02*
X159212999Y-111477000D01*
G75*
G02*
X158963000Y-111227001I0J249999D01*
G01*
X158963000Y-110526999D01*
G75*
G02*
X159212999Y-110277000I249999J0D01*
G01*
X160513001Y-110277000D01*
G75*
G02*
X160763000Y-110526999I0J-249999D01*
G01*
X160763000Y-111227001D01*
G75*
G02*
X160513001Y-111477000I-249999J0D01*
G01*
G37*
G36*
G01*
X160513001Y-105877000D02*
X159212999Y-105877000D01*
G75*
G02*
X158963000Y-105627001I0J249999D01*
G01*
X158963000Y-104926999D01*
G75*
G02*
X159212999Y-104677000I249999J0D01*
G01*
X160513001Y-104677000D01*
G75*
G02*
X160763000Y-104926999I0J-249999D01*
G01*
X160763000Y-105627001D01*
G75*
G02*
X160513001Y-105877000I-249999J0D01*
G01*
G37*
%TD*%
D21*
%TO.C,D5*%
X141097000Y-116970000D03*
X141097000Y-114170000D03*
%TD*%
%TO.C,D1*%
X144399000Y-124082000D03*
X144399000Y-121282000D03*
%TD*%
%TO.C,R7*%
G36*
G01*
X155342000Y-113367000D02*
X154792000Y-113367000D01*
G75*
G02*
X154592000Y-113167000I0J200000D01*
G01*
X154592000Y-112767000D01*
G75*
G02*
X154792000Y-112567000I200000J0D01*
G01*
X155342000Y-112567000D01*
G75*
G02*
X155542000Y-112767000I0J-200000D01*
G01*
X155542000Y-113167000D01*
G75*
G02*
X155342000Y-113367000I-200000J0D01*
G01*
G37*
G36*
G01*
X155342000Y-115017000D02*
X154792000Y-115017000D01*
G75*
G02*
X154592000Y-114817000I0J200000D01*
G01*
X154592000Y-114417000D01*
G75*
G02*
X154792000Y-114217000I200000J0D01*
G01*
X155342000Y-114217000D01*
G75*
G02*
X155542000Y-114417000I0J-200000D01*
G01*
X155542000Y-114817000D01*
G75*
G02*
X155342000Y-115017000I-200000J0D01*
G01*
G37*
%TD*%
%TO.C,D4*%
G36*
G01*
X156974250Y-113442000D02*
X156461750Y-113442000D01*
G75*
G02*
X156243000Y-113223250I0J218750D01*
G01*
X156243000Y-112785750D01*
G75*
G02*
X156461750Y-112567000I218750J0D01*
G01*
X156974250Y-112567000D01*
G75*
G02*
X157193000Y-112785750I0J-218750D01*
G01*
X157193000Y-113223250D01*
G75*
G02*
X156974250Y-113442000I-218750J0D01*
G01*
G37*
G36*
G01*
X156974250Y-115017000D02*
X156461750Y-115017000D01*
G75*
G02*
X156243000Y-114798250I0J218750D01*
G01*
X156243000Y-114360750D01*
G75*
G02*
X156461750Y-114142000I218750J0D01*
G01*
X156974250Y-114142000D01*
G75*
G02*
X157193000Y-114360750I0J-218750D01*
G01*
X157193000Y-114798250D01*
G75*
G02*
X156974250Y-115017000I-218750J0D01*
G01*
G37*
%TD*%
%TO.C,R18*%
G36*
G01*
X145436000Y-114383000D02*
X144886000Y-114383000D01*
G75*
G02*
X144686000Y-114183000I0J200000D01*
G01*
X144686000Y-113783000D01*
G75*
G02*
X144886000Y-113583000I200000J0D01*
G01*
X145436000Y-113583000D01*
G75*
G02*
X145636000Y-113783000I0J-200000D01*
G01*
X145636000Y-114183000D01*
G75*
G02*
X145436000Y-114383000I-200000J0D01*
G01*
G37*
G36*
G01*
X145436000Y-116033000D02*
X144886000Y-116033000D01*
G75*
G02*
X144686000Y-115833000I0J200000D01*
G01*
X144686000Y-115433000D01*
G75*
G02*
X144886000Y-115233000I200000J0D01*
G01*
X145436000Y-115233000D01*
G75*
G02*
X145636000Y-115433000I0J-200000D01*
G01*
X145636000Y-115833000D01*
G75*
G02*
X145436000Y-116033000I-200000J0D01*
G01*
G37*
%TD*%
%TO.C,R4*%
G36*
G01*
X143531000Y-114383000D02*
X142981000Y-114383000D01*
G75*
G02*
X142781000Y-114183000I0J200000D01*
G01*
X142781000Y-113783000D01*
G75*
G02*
X142981000Y-113583000I200000J0D01*
G01*
X143531000Y-113583000D01*
G75*
G02*
X143731000Y-113783000I0J-200000D01*
G01*
X143731000Y-114183000D01*
G75*
G02*
X143531000Y-114383000I-200000J0D01*
G01*
G37*
G36*
G01*
X143531000Y-116033000D02*
X142981000Y-116033000D01*
G75*
G02*
X142781000Y-115833000I0J200000D01*
G01*
X142781000Y-115433000D01*
G75*
G02*
X142981000Y-115233000I200000J0D01*
G01*
X143531000Y-115233000D01*
G75*
G02*
X143731000Y-115433000I0J-200000D01*
G01*
X143731000Y-115833000D01*
G75*
G02*
X143531000Y-116033000I-200000J0D01*
G01*
G37*
%TD*%
%TO.C,C12*%
G36*
G01*
X146816000Y-115133000D02*
X147316000Y-115133000D01*
G75*
G02*
X147541000Y-115358000I0J-225000D01*
G01*
X147541000Y-115808000D01*
G75*
G02*
X147316000Y-116033000I-225000J0D01*
G01*
X146816000Y-116033000D01*
G75*
G02*
X146591000Y-115808000I0J225000D01*
G01*
X146591000Y-115358000D01*
G75*
G02*
X146816000Y-115133000I225000J0D01*
G01*
G37*
G36*
G01*
X146816000Y-113583000D02*
X147316000Y-113583000D01*
G75*
G02*
X147541000Y-113808000I0J-225000D01*
G01*
X147541000Y-114258000D01*
G75*
G02*
X147316000Y-114483000I-225000J0D01*
G01*
X146816000Y-114483000D01*
G75*
G02*
X146591000Y-114258000I0J225000D01*
G01*
X146591000Y-113808000D01*
G75*
G02*
X146816000Y-113583000I225000J0D01*
G01*
G37*
%TD*%
D22*
%TO.C,S3*%
X130782000Y-120727000D03*
X130782000Y-114477000D03*
D23*
X134832000Y-118602000D03*
X134832000Y-116602000D03*
X134832000Y-114602000D03*
%TD*%
D24*
%TO.C,S2*%
X160235000Y-130387000D03*
X158535000Y-130387000D03*
X160235000Y-125137000D03*
X158535000Y-125137000D03*
%TD*%
%TO.C,S1*%
X130849000Y-125137000D03*
X132549000Y-125137000D03*
X130849000Y-130387000D03*
X132549000Y-130387000D03*
%TD*%
%TO.C,R17*%
G36*
G01*
X147426000Y-122599000D02*
X147976000Y-122599000D01*
G75*
G02*
X148176000Y-122799000I0J-200000D01*
G01*
X148176000Y-123199000D01*
G75*
G02*
X147976000Y-123399000I-200000J0D01*
G01*
X147426000Y-123399000D01*
G75*
G02*
X147226000Y-123199000I0J200000D01*
G01*
X147226000Y-122799000D01*
G75*
G02*
X147426000Y-122599000I200000J0D01*
G01*
G37*
G36*
G01*
X147426000Y-120949000D02*
X147976000Y-120949000D01*
G75*
G02*
X148176000Y-121149000I0J-200000D01*
G01*
X148176000Y-121549000D01*
G75*
G02*
X147976000Y-121749000I-200000J0D01*
G01*
X147426000Y-121749000D01*
G75*
G02*
X147226000Y-121549000I0J200000D01*
G01*
X147226000Y-121149000D01*
G75*
G02*
X147426000Y-120949000I200000J0D01*
G01*
G37*
%TD*%
%TO.C,R16*%
G36*
G01*
X149077000Y-122599000D02*
X149627000Y-122599000D01*
G75*
G02*
X149827000Y-122799000I0J-200000D01*
G01*
X149827000Y-123199000D01*
G75*
G02*
X149627000Y-123399000I-200000J0D01*
G01*
X149077000Y-123399000D01*
G75*
G02*
X148877000Y-123199000I0J200000D01*
G01*
X148877000Y-122799000D01*
G75*
G02*
X149077000Y-122599000I200000J0D01*
G01*
G37*
G36*
G01*
X149077000Y-120949000D02*
X149627000Y-120949000D01*
G75*
G02*
X149827000Y-121149000I0J-200000D01*
G01*
X149827000Y-121549000D01*
G75*
G02*
X149627000Y-121749000I-200000J0D01*
G01*
X149077000Y-121749000D01*
G75*
G02*
X148877000Y-121549000I0J200000D01*
G01*
X148877000Y-121149000D01*
G75*
G02*
X149077000Y-120949000I200000J0D01*
G01*
G37*
%TD*%
%TO.C,R15*%
G36*
G01*
X150728000Y-122599000D02*
X151278000Y-122599000D01*
G75*
G02*
X151478000Y-122799000I0J-200000D01*
G01*
X151478000Y-123199000D01*
G75*
G02*
X151278000Y-123399000I-200000J0D01*
G01*
X150728000Y-123399000D01*
G75*
G02*
X150528000Y-123199000I0J200000D01*
G01*
X150528000Y-122799000D01*
G75*
G02*
X150728000Y-122599000I200000J0D01*
G01*
G37*
G36*
G01*
X150728000Y-120949000D02*
X151278000Y-120949000D01*
G75*
G02*
X151478000Y-121149000I0J-200000D01*
G01*
X151478000Y-121549000D01*
G75*
G02*
X151278000Y-121749000I-200000J0D01*
G01*
X150728000Y-121749000D01*
G75*
G02*
X150528000Y-121549000I0J200000D01*
G01*
X150528000Y-121149000D01*
G75*
G02*
X150728000Y-120949000I200000J0D01*
G01*
G37*
%TD*%
%TO.C,R12*%
G36*
G01*
X152379000Y-119297000D02*
X152929000Y-119297000D01*
G75*
G02*
X153129000Y-119497000I0J-200000D01*
G01*
X153129000Y-119897000D01*
G75*
G02*
X152929000Y-120097000I-200000J0D01*
G01*
X152379000Y-120097000D01*
G75*
G02*
X152179000Y-119897000I0J200000D01*
G01*
X152179000Y-119497000D01*
G75*
G02*
X152379000Y-119297000I200000J0D01*
G01*
G37*
G36*
G01*
X152379000Y-117647000D02*
X152929000Y-117647000D01*
G75*
G02*
X153129000Y-117847000I0J-200000D01*
G01*
X153129000Y-118247000D01*
G75*
G02*
X152929000Y-118447000I-200000J0D01*
G01*
X152379000Y-118447000D01*
G75*
G02*
X152179000Y-118247000I0J200000D01*
G01*
X152179000Y-117847000D01*
G75*
G02*
X152379000Y-117647000I200000J0D01*
G01*
G37*
%TD*%
%TO.C,C11*%
G36*
G01*
X152404000Y-122499000D02*
X152904000Y-122499000D01*
G75*
G02*
X153129000Y-122724000I0J-225000D01*
G01*
X153129000Y-123174000D01*
G75*
G02*
X152904000Y-123399000I-225000J0D01*
G01*
X152404000Y-123399000D01*
G75*
G02*
X152179000Y-123174000I0J225000D01*
G01*
X152179000Y-122724000D01*
G75*
G02*
X152404000Y-122499000I225000J0D01*
G01*
G37*
G36*
G01*
X152404000Y-120949000D02*
X152904000Y-120949000D01*
G75*
G02*
X153129000Y-121174000I0J-225000D01*
G01*
X153129000Y-121624000D01*
G75*
G02*
X152904000Y-121849000I-225000J0D01*
G01*
X152404000Y-121849000D01*
G75*
G02*
X152179000Y-121624000I0J225000D01*
G01*
X152179000Y-121174000D01*
G75*
G02*
X152404000Y-120949000I225000J0D01*
G01*
G37*
%TD*%
%TO.C,C10*%
G36*
G01*
X147951000Y-118547000D02*
X147451000Y-118547000D01*
G75*
G02*
X147226000Y-118322000I0J225000D01*
G01*
X147226000Y-117872000D01*
G75*
G02*
X147451000Y-117647000I225000J0D01*
G01*
X147951000Y-117647000D01*
G75*
G02*
X148176000Y-117872000I0J-225000D01*
G01*
X148176000Y-118322000D01*
G75*
G02*
X147951000Y-118547000I-225000J0D01*
G01*
G37*
G36*
G01*
X147951000Y-120097000D02*
X147451000Y-120097000D01*
G75*
G02*
X147226000Y-119872000I0J225000D01*
G01*
X147226000Y-119422000D01*
G75*
G02*
X147451000Y-119197000I225000J0D01*
G01*
X147951000Y-119197000D01*
G75*
G02*
X148176000Y-119422000I0J-225000D01*
G01*
X148176000Y-119872000D01*
G75*
G02*
X147951000Y-120097000I-225000J0D01*
G01*
G37*
%TD*%
%TO.C,J3*%
G36*
G01*
X134471000Y-106277000D02*
X135721000Y-106277000D01*
G75*
G02*
X135871000Y-106427000I0J-150000D01*
G01*
X135871000Y-106727000D01*
G75*
G02*
X135721000Y-106877000I-150000J0D01*
G01*
X134471000Y-106877000D01*
G75*
G02*
X134321000Y-106727000I0J150000D01*
G01*
X134321000Y-106427000D01*
G75*
G02*
X134471000Y-106277000I150000J0D01*
G01*
G37*
G36*
G01*
X134471000Y-107277000D02*
X135721000Y-107277000D01*
G75*
G02*
X135871000Y-107427000I0J-150000D01*
G01*
X135871000Y-107727000D01*
G75*
G02*
X135721000Y-107877000I-150000J0D01*
G01*
X134471000Y-107877000D01*
G75*
G02*
X134321000Y-107727000I0J150000D01*
G01*
X134321000Y-107427000D01*
G75*
G02*
X134471000Y-107277000I150000J0D01*
G01*
G37*
G36*
G01*
X134471000Y-108277000D02*
X135721000Y-108277000D01*
G75*
G02*
X135871000Y-108427000I0J-150000D01*
G01*
X135871000Y-108727000D01*
G75*
G02*
X135721000Y-108877000I-150000J0D01*
G01*
X134471000Y-108877000D01*
G75*
G02*
X134321000Y-108727000I0J150000D01*
G01*
X134321000Y-108427000D01*
G75*
G02*
X134471000Y-108277000I150000J0D01*
G01*
G37*
G36*
G01*
X134471000Y-109277000D02*
X135721000Y-109277000D01*
G75*
G02*
X135871000Y-109427000I0J-150000D01*
G01*
X135871000Y-109727000D01*
G75*
G02*
X135721000Y-109877000I-150000J0D01*
G01*
X134471000Y-109877000D01*
G75*
G02*
X134321000Y-109727000I0J150000D01*
G01*
X134321000Y-109427000D01*
G75*
G02*
X134471000Y-109277000I150000J0D01*
G01*
G37*
G36*
G01*
X130570999Y-104677000D02*
X131871001Y-104677000D01*
G75*
G02*
X132121000Y-104926999I0J-249999D01*
G01*
X132121000Y-105627001D01*
G75*
G02*
X131871001Y-105877000I-249999J0D01*
G01*
X130570999Y-105877000D01*
G75*
G02*
X130321000Y-105627001I0J249999D01*
G01*
X130321000Y-104926999D01*
G75*
G02*
X130570999Y-104677000I249999J0D01*
G01*
G37*
G36*
G01*
X130570999Y-110277000D02*
X131871001Y-110277000D01*
G75*
G02*
X132121000Y-110526999I0J-249999D01*
G01*
X132121000Y-111227001D01*
G75*
G02*
X131871001Y-111477000I-249999J0D01*
G01*
X130570999Y-111477000D01*
G75*
G02*
X130321000Y-111227001I0J249999D01*
G01*
X130321000Y-110526999D01*
G75*
G02*
X130570999Y-110277000I249999J0D01*
G01*
G37*
%TD*%
D25*
%TO.C,U5*%
X138999000Y-120099000D03*
X137099000Y-120099000D03*
X137099000Y-117899000D03*
X138049000Y-117899000D03*
X138999000Y-117899000D03*
%TD*%
%TO.C,R6*%
G36*
G01*
X158644000Y-119336000D02*
X158094000Y-119336000D01*
G75*
G02*
X157894000Y-119136000I0J200000D01*
G01*
X157894000Y-118736000D01*
G75*
G02*
X158094000Y-118536000I200000J0D01*
G01*
X158644000Y-118536000D01*
G75*
G02*
X158844000Y-118736000I0J-200000D01*
G01*
X158844000Y-119136000D01*
G75*
G02*
X158644000Y-119336000I-200000J0D01*
G01*
G37*
G36*
G01*
X158644000Y-120986000D02*
X158094000Y-120986000D01*
G75*
G02*
X157894000Y-120786000I0J200000D01*
G01*
X157894000Y-120386000D01*
G75*
G02*
X158094000Y-120186000I200000J0D01*
G01*
X158644000Y-120186000D01*
G75*
G02*
X158844000Y-120386000I0J-200000D01*
G01*
X158844000Y-120786000D01*
G75*
G02*
X158644000Y-120986000I-200000J0D01*
G01*
G37*
%TD*%
%TO.C,R5*%
G36*
G01*
X158644000Y-113367000D02*
X158094000Y-113367000D01*
G75*
G02*
X157894000Y-113167000I0J200000D01*
G01*
X157894000Y-112767000D01*
G75*
G02*
X158094000Y-112567000I200000J0D01*
G01*
X158644000Y-112567000D01*
G75*
G02*
X158844000Y-112767000I0J-200000D01*
G01*
X158844000Y-113167000D01*
G75*
G02*
X158644000Y-113367000I-200000J0D01*
G01*
G37*
G36*
G01*
X158644000Y-115017000D02*
X158094000Y-115017000D01*
G75*
G02*
X157894000Y-114817000I0J200000D01*
G01*
X157894000Y-114417000D01*
G75*
G02*
X158094000Y-114217000I200000J0D01*
G01*
X158644000Y-114217000D01*
G75*
G02*
X158844000Y-114417000I0J-200000D01*
G01*
X158844000Y-114817000D01*
G75*
G02*
X158644000Y-115017000I-200000J0D01*
G01*
G37*
%TD*%
%TO.C,R3*%
G36*
G01*
X136250000Y-123107000D02*
X136800000Y-123107000D01*
G75*
G02*
X137000000Y-123307000I0J-200000D01*
G01*
X137000000Y-123707000D01*
G75*
G02*
X136800000Y-123907000I-200000J0D01*
G01*
X136250000Y-123907000D01*
G75*
G02*
X136050000Y-123707000I0J200000D01*
G01*
X136050000Y-123307000D01*
G75*
G02*
X136250000Y-123107000I200000J0D01*
G01*
G37*
G36*
G01*
X136250000Y-121457000D02*
X136800000Y-121457000D01*
G75*
G02*
X137000000Y-121657000I0J-200000D01*
G01*
X137000000Y-122057000D01*
G75*
G02*
X136800000Y-122257000I-200000J0D01*
G01*
X136250000Y-122257000D01*
G75*
G02*
X136050000Y-122057000I0J200000D01*
G01*
X136050000Y-121657000D01*
G75*
G02*
X136250000Y-121457000I200000J0D01*
G01*
G37*
%TD*%
%TO.C,R2*%
G36*
G01*
X153626000Y-129011000D02*
X153626000Y-129561000D01*
G75*
G02*
X153426000Y-129761000I-200000J0D01*
G01*
X153026000Y-129761000D01*
G75*
G02*
X152826000Y-129561000I0J200000D01*
G01*
X152826000Y-129011000D01*
G75*
G02*
X153026000Y-128811000I200000J0D01*
G01*
X153426000Y-128811000D01*
G75*
G02*
X153626000Y-129011000I0J-200000D01*
G01*
G37*
G36*
G01*
X155276000Y-129011000D02*
X155276000Y-129561000D01*
G75*
G02*
X155076000Y-129761000I-200000J0D01*
G01*
X154676000Y-129761000D01*
G75*
G02*
X154476000Y-129561000I0J200000D01*
G01*
X154476000Y-129011000D01*
G75*
G02*
X154676000Y-128811000I200000J0D01*
G01*
X155076000Y-128811000D01*
G75*
G02*
X155276000Y-129011000I0J-200000D01*
G01*
G37*
%TD*%
%TO.C,R1*%
G36*
G01*
X147110000Y-129561000D02*
X147110000Y-129011000D01*
G75*
G02*
X147310000Y-128811000I200000J0D01*
G01*
X147710000Y-128811000D01*
G75*
G02*
X147910000Y-129011000I0J-200000D01*
G01*
X147910000Y-129561000D01*
G75*
G02*
X147710000Y-129761000I-200000J0D01*
G01*
X147310000Y-129761000D01*
G75*
G02*
X147110000Y-129561000I0J200000D01*
G01*
G37*
G36*
G01*
X145460000Y-129561000D02*
X145460000Y-129011000D01*
G75*
G02*
X145660000Y-128811000I200000J0D01*
G01*
X146060000Y-128811000D01*
G75*
G02*
X146260000Y-129011000I0J-200000D01*
G01*
X146260000Y-129561000D01*
G75*
G02*
X146060000Y-129761000I-200000J0D01*
G01*
X145660000Y-129761000D01*
G75*
G02*
X145460000Y-129561000I0J200000D01*
G01*
G37*
%TD*%
%TO.C,D3*%
G36*
G01*
X160276250Y-119411000D02*
X159763750Y-119411000D01*
G75*
G02*
X159545000Y-119192250I0J218750D01*
G01*
X159545000Y-118754750D01*
G75*
G02*
X159763750Y-118536000I218750J0D01*
G01*
X160276250Y-118536000D01*
G75*
G02*
X160495000Y-118754750I0J-218750D01*
G01*
X160495000Y-119192250D01*
G75*
G02*
X160276250Y-119411000I-218750J0D01*
G01*
G37*
G36*
G01*
X160276250Y-120986000D02*
X159763750Y-120986000D01*
G75*
G02*
X159545000Y-120767250I0J218750D01*
G01*
X159545000Y-120329750D01*
G75*
G02*
X159763750Y-120111000I218750J0D01*
G01*
X160276250Y-120111000D01*
G75*
G02*
X160495000Y-120329750I0J-218750D01*
G01*
X160495000Y-120767250D01*
G75*
G02*
X160276250Y-120986000I-218750J0D01*
G01*
G37*
%TD*%
%TO.C,D2*%
G36*
G01*
X159763750Y-112567000D02*
X160276250Y-112567000D01*
G75*
G02*
X160495000Y-112785750I0J-218750D01*
G01*
X160495000Y-113223250D01*
G75*
G02*
X160276250Y-113442000I-218750J0D01*
G01*
X159763750Y-113442000D01*
G75*
G02*
X159545000Y-113223250I0J218750D01*
G01*
X159545000Y-112785750D01*
G75*
G02*
X159763750Y-112567000I218750J0D01*
G01*
G37*
G36*
G01*
X159763750Y-114142000D02*
X160276250Y-114142000D01*
G75*
G02*
X160495000Y-114360750I0J-218750D01*
G01*
X160495000Y-114798250D01*
G75*
G02*
X160276250Y-115017000I-218750J0D01*
G01*
X159763750Y-115017000D01*
G75*
G02*
X159545000Y-114798250I0J218750D01*
G01*
X159545000Y-114360750D01*
G75*
G02*
X159763750Y-114142000I218750J0D01*
G01*
G37*
%TD*%
%TO.C,C4*%
G36*
G01*
X140966000Y-119055000D02*
X140466000Y-119055000D01*
G75*
G02*
X140241000Y-118830000I0J225000D01*
G01*
X140241000Y-118380000D01*
G75*
G02*
X140466000Y-118155000I225000J0D01*
G01*
X140966000Y-118155000D01*
G75*
G02*
X141191000Y-118380000I0J-225000D01*
G01*
X141191000Y-118830000D01*
G75*
G02*
X140966000Y-119055000I-225000J0D01*
G01*
G37*
G36*
G01*
X140966000Y-120605000D02*
X140466000Y-120605000D01*
G75*
G02*
X140241000Y-120380000I0J225000D01*
G01*
X140241000Y-119930000D01*
G75*
G02*
X140466000Y-119705000I225000J0D01*
G01*
X140966000Y-119705000D01*
G75*
G02*
X141191000Y-119930000I0J-225000D01*
G01*
X141191000Y-120380000D01*
G75*
G02*
X140966000Y-120605000I-225000J0D01*
G01*
G37*
%TD*%
%TO.C,C3*%
G36*
G01*
X142109000Y-123119000D02*
X141609000Y-123119000D01*
G75*
G02*
X141384000Y-122894000I0J225000D01*
G01*
X141384000Y-122444000D01*
G75*
G02*
X141609000Y-122219000I225000J0D01*
G01*
X142109000Y-122219000D01*
G75*
G02*
X142334000Y-122444000I0J-225000D01*
G01*
X142334000Y-122894000D01*
G75*
G02*
X142109000Y-123119000I-225000J0D01*
G01*
G37*
G36*
G01*
X142109000Y-124669000D02*
X141609000Y-124669000D01*
G75*
G02*
X141384000Y-124444000I0J225000D01*
G01*
X141384000Y-123994000D01*
G75*
G02*
X141609000Y-123769000I225000J0D01*
G01*
X142109000Y-123769000D01*
G75*
G02*
X142334000Y-123994000I0J-225000D01*
G01*
X142334000Y-124444000D01*
G75*
G02*
X142109000Y-124669000I-225000J0D01*
G01*
G37*
%TD*%
%TO.C,C2*%
G36*
G01*
X142617000Y-121494000D02*
X142117000Y-121494000D01*
G75*
G02*
X141892000Y-121269000I0J225000D01*
G01*
X141892000Y-120819000D01*
G75*
G02*
X142117000Y-120594000I225000J0D01*
G01*
X142617000Y-120594000D01*
G75*
G02*
X142842000Y-120819000I0J-225000D01*
G01*
X142842000Y-121269000D01*
G75*
G02*
X142617000Y-121494000I-225000J0D01*
G01*
G37*
G36*
G01*
X142617000Y-119944000D02*
X142117000Y-119944000D01*
G75*
G02*
X141892000Y-119719000I0J225000D01*
G01*
X141892000Y-119269000D01*
G75*
G02*
X142117000Y-119044000I225000J0D01*
G01*
X142617000Y-119044000D01*
G75*
G02*
X142842000Y-119269000I0J-225000D01*
G01*
X142842000Y-119719000D01*
G75*
G02*
X142617000Y-119944000I-225000J0D01*
G01*
G37*
%TD*%
%TO.C,C1*%
G36*
G01*
X137978000Y-115955000D02*
X137978000Y-116455000D01*
G75*
G02*
X137753000Y-116680000I-225000J0D01*
G01*
X137303000Y-116680000D01*
G75*
G02*
X137078000Y-116455000I0J225000D01*
G01*
X137078000Y-115955000D01*
G75*
G02*
X137303000Y-115730000I225000J0D01*
G01*
X137753000Y-115730000D01*
G75*
G02*
X137978000Y-115955000I0J-225000D01*
G01*
G37*
G36*
G01*
X139528000Y-115955000D02*
X139528000Y-116455000D01*
G75*
G02*
X139303000Y-116680000I-225000J0D01*
G01*
X138853000Y-116680000D01*
G75*
G02*
X138628000Y-116455000I0J225000D01*
G01*
X138628000Y-115955000D01*
G75*
G02*
X138853000Y-115730000I225000J0D01*
G01*
X139303000Y-115730000D01*
G75*
G02*
X139528000Y-115955000I0J-225000D01*
G01*
G37*
%TD*%
%TO.C,U4*%
X138242000Y-124163000D03*
X139192000Y-124163000D03*
X140142000Y-124163000D03*
X140142000Y-121963000D03*
X138242000Y-121963000D03*
%TD*%
D26*
%TO.C,U2*%
X151089000Y-118147000D03*
X151089000Y-119597000D03*
X149139000Y-118147000D03*
X149139000Y-119597000D03*
X150439000Y-118147000D03*
X150439000Y-119597000D03*
X149789000Y-118147000D03*
X149789000Y-119597000D03*
%TD*%
M02*
