%TF.GenerationSoftware,KiCad,Pcbnew,(5.1.8)-1*%
%TF.CreationDate,2021-06-05T10:25:27+02:00*%
%TF.ProjectId,trick-tracker,74726963-6b2d-4747-9261-636b65722e6b,rev?*%
%TF.SameCoordinates,Original*%
%TF.FileFunction,Soldermask,Bot*%
%TF.FilePolarity,Negative*%
%FSLAX46Y46*%
G04 Gerber Fmt 4.6, Leading zero omitted, Abs format (unit mm)*
G04 Created by KiCad (PCBNEW (5.1.8)-1) date 2021-06-05 10:25:27*
%MOMM*%
%LPD*%
G01*
G04 APERTURE LIST*
%ADD10C,0.800000*%
%ADD11C,5.000000*%
%ADD12C,0.650000*%
%ADD13O,1.050000X2.100000*%
%ADD14O,1.000000X2.000000*%
%ADD15R,2.000000X0.800000*%
%ADD16R,1.400000X1.800000*%
%ADD17R,1.900000X1.400000*%
%ADD18R,6.000000X3.000000*%
%ADD19C,1.300000*%
%ADD20R,1.700000X0.800000*%
G04 APERTURE END LIST*
D10*
%TO.C,H4*%
X159567825Y-100020175D03*
X158242000Y-99471000D03*
X156916175Y-100020175D03*
X156367000Y-101346000D03*
X156916175Y-102671825D03*
X158242000Y-103221000D03*
X159567825Y-102671825D03*
X160117000Y-101346000D03*
D11*
X158242000Y-101346000D03*
%TD*%
D10*
%TO.C,H3*%
X134167825Y-100020175D03*
X132842000Y-99471000D03*
X131516175Y-100020175D03*
X130967000Y-101346000D03*
X131516175Y-102671825D03*
X132842000Y-103221000D03*
X134167825Y-102671825D03*
X134717000Y-101346000D03*
D11*
X132842000Y-101346000D03*
%TD*%
D10*
%TO.C,H2*%
X159567825Y-132913175D03*
X158242000Y-132364000D03*
X156916175Y-132913175D03*
X156367000Y-134239000D03*
X156916175Y-135564825D03*
X158242000Y-136114000D03*
X159567825Y-135564825D03*
X160117000Y-134239000D03*
D11*
X158242000Y-134239000D03*
%TD*%
D10*
%TO.C,H1*%
X134167825Y-132913175D03*
X132842000Y-132364000D03*
X131516175Y-132913175D03*
X130967000Y-134239000D03*
X131516175Y-135564825D03*
X132842000Y-136114000D03*
X134167825Y-135564825D03*
X134717000Y-134239000D03*
D11*
X132842000Y-134239000D03*
%TD*%
D12*
%TO.C,J1*%
X147478000Y-132083000D03*
X153258000Y-132083000D03*
D13*
X154688000Y-131583000D03*
X146048000Y-131583000D03*
D14*
X154688000Y-135763000D03*
X146048000Y-135763000D03*
%TD*%
D15*
%TO.C,J4*%
X156260000Y-125384000D03*
X155860000Y-124284000D03*
X156260000Y-123184000D03*
X156460000Y-122084000D03*
X156260000Y-120984000D03*
X156460000Y-119884000D03*
X156260000Y-118784000D03*
X156260000Y-117684000D03*
D16*
X145710000Y-118494000D03*
X145710000Y-124194000D03*
D17*
X158860000Y-116894000D03*
X159860000Y-130044000D03*
%TD*%
D18*
%TO.C,P1*%
X138176000Y-117544000D03*
X138176000Y-129444000D03*
%TD*%
D19*
%TO.C,S3*%
X130782000Y-120727000D03*
X130782000Y-114477000D03*
%TD*%
D20*
%TO.C,U1*%
X137370000Y-113868000D03*
X137370000Y-112768000D03*
X137370000Y-111668000D03*
X137370000Y-110568000D03*
X137370000Y-109468000D03*
X137370000Y-108368000D03*
X137370000Y-107268000D03*
X137370000Y-106168000D03*
X137370000Y-105068000D03*
X137370000Y-103968000D03*
X137370000Y-102868000D03*
X137370000Y-101768000D03*
X137370000Y-100668000D03*
X137370000Y-99568000D03*
X153770000Y-113868000D03*
X153770000Y-112768000D03*
X153770000Y-111668000D03*
X153770000Y-110568000D03*
X153770000Y-109468000D03*
X153770000Y-108368000D03*
X153770000Y-107268000D03*
X153770000Y-106168000D03*
X153770000Y-105068000D03*
X153770000Y-103968000D03*
X153770000Y-102868000D03*
X153770000Y-101768000D03*
X153770000Y-100668000D03*
X153770000Y-99568000D03*
%TD*%
M02*
